<?xml version="1.0" encoding="UTF-8" standalone="no"?>
<!DOCTYPE svg PUBLIC "-//W3C//DTD SVG 1.1//EN"
 "http://www.w3.org/Graphics/SVG/1.1/DTD/svg11.dtd">
<!-- Generated by graphviz version 2.47.1 (20210417.1919)
 -->
<!-- Title: src.db_tools.db_class_defs.ExitException Pages: 1 -->
<svg width="130pt" height="162pt"
 viewBox="0.00 0.00 130.00 162.00" xmlns="http://www.w3.org/2000/svg" xmlns:xlink="http://www.w3.org/1999/xlink">
<g id="graph0" class="graph" transform="scale(1 1) rotate(0) translate(4 158)">
<title>src.db_tools.db_class_defs.ExitException</title>
<polygon fill="white" stroke="transparent" points="-4,4 -4,-158 126,-158 126,4 -4,4"/>
<!-- Node1 -->
<g id="node1" class="node">
<title>Node1</title>
<g id="a_node1"><a xlink:title="A custom exception class that we raise should something fishy occur while exiting a DBBase context.">
<polygon fill="#bfbfbf" stroke="black" points="5,-0.5 5,-30.5 117,-30.5 117,-0.5 5,-0.5"/>
<text text-anchor="start" x="13" y="-18.5" font-family="Helvetica,sans-Serif" font-size="10.00">src.db_tools.db_class</text>
<text text-anchor="middle" x="61" y="-7.5" font-family="Helvetica,sans-Serif" font-size="10.00">_defs.ExitException</text>
</a>
</g>
</g>
<!-- Node2 -->
<g id="node2" class="node">
<title>Node2</title>
<g id="a_node2"><a xlink:href="classsrc_1_1db__tools_1_1db__class__defs_1_1_d_b_base_exception.html" target="_top" xlink:title="The custom database exception base class.">
<polygon fill="white" stroke="black" points="0,-67.5 0,-97.5 122,-97.5 122,-67.5 0,-67.5"/>
<text text-anchor="start" x="8" y="-85.5" font-family="Helvetica,sans-Serif" font-size="10.00">src.db_tools.db_class</text>
<text text-anchor="middle" x="61" y="-74.5" font-family="Helvetica,sans-Serif" font-size="10.00">_defs.DBBaseException</text>
</a>
</g>
</g>
<!-- Node2&#45;&gt;Node1 -->
<g id="edge1" class="edge">
<title>Node2&#45;&gt;Node1</title>
<path fill="none" stroke="midnightblue" d="M61,-57.11C61,-48.15 61,-38.32 61,-30.58"/>
<polygon fill="midnightblue" stroke="midnightblue" points="57.5,-57.4 61,-67.4 64.5,-57.4 57.5,-57.4"/>
</g>
<!-- Node3 -->
<g id="node3" class="node">
<title>Node3</title>
<g id="a_node3"><a xlink:title=" ">
<polygon fill="white" stroke="#bfbfbf" points="31,-134.5 31,-153.5 91,-153.5 91,-134.5 31,-134.5"/>
<text text-anchor="middle" x="61" y="-141.5" font-family="Helvetica,sans-Serif" font-size="10.00">Exception</text>
</a>
</g>
</g>
<!-- Node3&#45;&gt;Node2 -->
<g id="edge2" class="edge">
<title>Node3&#45;&gt;Node2</title>
<path fill="none" stroke="midnightblue" d="M61,-124.23C61,-115.59 61,-105.5 61,-97.52"/>
<polygon fill="midnightblue" stroke="midnightblue" points="57.5,-124.48 61,-134.48 64.5,-124.48 57.5,-124.48"/>
</g>
</g>
</svg>
