<?xml version="1.0" encoding="UTF-8" standalone="no"?>
<!DOCTYPE svg PUBLIC "-//W3C//DTD SVG 1.1//EN"
 "http://www.w3.org/Graphics/SVG/1.1/DTD/svg11.dtd">
<!-- Generated by graphviz version 2.47.1 (20210417.1919)
 -->
<!-- Title: src.body_extraction.cache_class_defs.MessageBodyDB.select Pages: 1 -->
<svg width="357pt" height="39pt"
 viewBox="0.00 0.00 357.00 39.00" xmlns="http://www.w3.org/2000/svg" xmlns:xlink="http://www.w3.org/1999/xlink">
<g id="graph0" class="graph" transform="scale(1 1) rotate(0) translate(4 35)">
<title>src.body_extraction.cache_class_defs.MessageBodyDB.select</title>
<polygon fill="white" stroke="transparent" points="-4,4 -4,-35 353,-35 353,4 -4,4"/>
<!-- Node1 -->
<g id="node1" class="node">
<title>Node1</title>
<g id="a_node1"><a xlink:title=" ">
<polygon fill="#bfbfbf" stroke="black" points="0,-0.5 0,-30.5 176,-30.5 176,-0.5 0,-0.5"/>
<text text-anchor="start" x="8" y="-18.5" font-family="Helvetica,sans-Serif" font-size="10.00">src.body_extraction.cache</text>
<text text-anchor="middle" x="88" y="-7.5" font-family="Helvetica,sans-Serif" font-size="10.00">_class_defs.MessageBodyDB.select</text>
</a>
</g>
</g>
<!-- Node2 -->
<g id="node2" class="node">
<title>Node2</title>
<g id="a_node2"><a xlink:href="classsrc_1_1db__tools_1_1db__class__defs_1_1_d_b_base.html#ade81609e37ef5b096b7d351a7d116b83" target="_top" xlink:title="A list of strings, where each element in the list is the name of a table in the main DB.">
<polygon fill="white" stroke="black" points="212,-0.5 212,-30.5 349,-30.5 349,-0.5 212,-0.5"/>
<text text-anchor="start" x="220" y="-18.5" font-family="Helvetica,sans-Serif" font-size="10.00">src.db_tools.db_class</text>
<text text-anchor="middle" x="280.5" y="-7.5" font-family="Helvetica,sans-Serif" font-size="10.00">_defs.DBBase.table_names</text>
</a>
</g>
</g>
<!-- Node1&#45;&gt;Node2 -->
<g id="edge1" class="edge">
<title>Node1&#45;&gt;Node2</title>
<path fill="none" stroke="midnightblue" d="M176.17,-15.5C184.66,-15.5 193.25,-15.5 201.64,-15.5"/>
<polygon fill="midnightblue" stroke="midnightblue" points="201.78,-19 211.78,-15.5 201.78,-12 201.78,-19"/>
</g>
</g>
</svg>
