<?xml version="1.0" encoding="UTF-8" standalone="no"?>
<!DOCTYPE svg PUBLIC "-//W3C//DTD SVG 1.1//EN"
 "http://www.w3.org/Graphics/SVG/1.1/DTD/svg11.dtd">
<!-- Generated by graphviz version 2.47.1 (20210417.1919)
 -->
<!-- Title: src.db_tools.db_class_defs.DBBase.connection Pages: 1 -->
<svg width="675pt" height="169pt"
 viewBox="0.00 0.00 675.00 168.98" xmlns="http://www.w3.org/2000/svg" xmlns:xlink="http://www.w3.org/1999/xlink">
<g id="graph0" class="graph" transform="scale(1 1) rotate(0) translate(4 164.98)">
<title>src.db_tools.db_class_defs.DBBase.connection</title>
<polygon fill="white" stroke="transparent" points="-4,4 -4,-164.98 671,-164.98 671,4 -4,4"/>
<!-- Node1 -->
<g id="node1" class="node">
<title>Node1</title>
<g id="a_node1"><a xlink:title="Calling this property requires that we have made a previous call to self.__call__() in order to prope...">
<polygon fill="#bfbfbf" stroke="black" points="538,-74 538,-104 667,-104 667,-74 538,-74"/>
<text text-anchor="start" x="546" y="-92" font-family="Helvetica,sans-Serif" font-size="10.00">src.db_tools.db_class</text>
<text text-anchor="middle" x="602.5" y="-81" font-family="Helvetica,sans-Serif" font-size="10.00">_defs.DBBase.connection</text>
</a>
</g>
</g>
<!-- Node2 -->
<g id="node2" class="node">
<title>Node2</title>
<g id="a_node2"><a xlink:href="classsrc_1_1db__tools_1_1db__class__defs_1_1_d_b_base.html#a970d3d8297eb67288f50f6e28e1883fa" target="_top" xlink:title=" ">
<polygon fill="white" stroke="black" points="20,-99 20,-129 138,-129 138,-99 20,-99"/>
<text text-anchor="start" x="28" y="-117" font-family="Helvetica,sans-Serif" font-size="10.00">src.db_tools.db_class</text>
<text text-anchor="middle" x="79" y="-106" font-family="Helvetica,sans-Serif" font-size="10.00">_defs.DBBase.__call__</text>
</a>
</g>
</g>
<!-- Node1&#45;&gt;Node2 -->
<g id="edge1" class="edge">
<title>Node1&#45;&gt;Node2</title>
<path fill="none" stroke="midnightblue" d="M569.77,-109.46C550.89,-120.45 526.01,-132.96 502,-139 369.23,-172.41 329.78,-161.57 194,-144 171.27,-141.06 146.61,-134.95 126.05,-129.01"/>
<polygon fill="midnightblue" stroke="midnightblue" points="571.74,-112.36 578.52,-104.22 568.15,-106.35 571.74,-112.36"/>
</g>
<!-- Node3 -->
<g id="node3" class="node">
<title>Node3</title>
<g id="a_node3"><a xlink:href="classsrc_1_1db__tools_1_1db__class__defs_1_1_d_b_base.html#a47894228f63f488c5212dd846621da72" target="_top" xlink:title=" ">
<polygon fill="white" stroke="black" points="356,-99 356,-129 502,-129 502,-99 356,-99"/>
<text text-anchor="start" x="364" y="-117" font-family="Helvetica,sans-Serif" font-size="10.00">src.db_tools.db_class</text>
<text text-anchor="middle" x="429" y="-106" font-family="Helvetica,sans-Serif" font-size="10.00">_defs.DBBase._register_table</text>
</a>
</g>
</g>
<!-- Node1&#45;&gt;Node3 -->
<g id="edge2" class="edge">
<title>Node1&#45;&gt;Node3</title>
<path fill="none" stroke="midnightblue" d="M527.53,-99.78C519.16,-101 510.63,-102.25 502.28,-103.46"/>
<polygon fill="midnightblue" stroke="midnightblue" points="528.25,-103.22 537.64,-98.31 527.24,-96.29 528.25,-103.22"/>
</g>
<!-- Node5 -->
<g id="node5" class="node">
<title>Node5</title>
<g id="a_node5"><a xlink:href="classsrc_1_1db__tools_1_1db__class__defs_1_1_d_b_base.html#a9cecfb49b2da2b1f574adc0d810fb5c2" target="_top" xlink:title=" ">
<polygon fill="white" stroke="black" points="198,-6 198,-36 316,-36 316,-6 198,-6"/>
<text text-anchor="start" x="206" y="-24" font-family="Helvetica,sans-Serif" font-size="10.00">src.db_tools.db_class</text>
<text text-anchor="middle" x="257" y="-13" font-family="Helvetica,sans-Serif" font-size="10.00">_defs.DBBase.add_row</text>
</a>
</g>
</g>
<!-- Node1&#45;&gt;Node5 -->
<g id="edge5" class="edge">
<title>Node1&#45;&gt;Node5</title>
<path fill="none" stroke="midnightblue" d="M568.83,-68.97C549.99,-58.45 525.46,-46.43 502,-40 440.13,-23.03 366.35,-19.47 316.24,-19.4"/>
<polygon fill="midnightblue" stroke="midnightblue" points="567.17,-72.06 577.59,-73.99 570.65,-65.98 567.17,-72.06"/>
</g>
<!-- Node7 -->
<g id="node7" class="node">
<title>Node7</title>
<g id="a_node7"><a xlink:href="classsrc_1_1db__tools_1_1db__class__defs_1_1_d_b_base.html#afab76d33daab3aa5e5c9263f284ee9d6" target="_top" xlink:title=" ">
<polygon fill="white" stroke="black" points="373,-50 373,-80 485,-80 485,-50 373,-50"/>
<text text-anchor="start" x="381" y="-68" font-family="Helvetica,sans-Serif" font-size="10.00">src.db_tools.db_class</text>
<text text-anchor="middle" x="429" y="-57" font-family="Helvetica,sans-Serif" font-size="10.00">_defs.DBBase.cursor</text>
</a>
</g>
</g>
<!-- Node1&#45;&gt;Node7 -->
<g id="edge7" class="edge">
<title>Node1&#45;&gt;Node7</title>
<path fill="none" stroke="midnightblue" d="M527.42,-78.63C513.24,-76.65 498.63,-74.6 485.18,-72.72"/>
<polygon fill="midnightblue" stroke="midnightblue" points="527.25,-82.14 537.64,-80.06 528.22,-75.21 527.25,-82.14"/>
</g>
<!-- Node4 -->
<g id="node4" class="node">
<title>Node4</title>
<g id="a_node4"><a xlink:href="classsrc_1_1db__tools_1_1db__class__defs_1_1_d_b_base.html#a7d81ecdc59e01a8449b98a2050672b24" target="_top" xlink:title=" ">
<polygon fill="white" stroke="black" points="194,-93.5 194,-134.5 320,-134.5 320,-93.5 194,-93.5"/>
<text text-anchor="start" x="202" y="-122.5" font-family="Helvetica,sans-Serif" font-size="10.00">src.db_tools.db_class</text>
<text text-anchor="start" x="202" y="-111.5" font-family="Helvetica,sans-Serif" font-size="10.00">_defs.DBBase._establish</text>
<text text-anchor="middle" x="257" y="-100.5" font-family="Helvetica,sans-Serif" font-size="10.00">_new_connection</text>
</a>
</g>
</g>
<!-- Node3&#45;&gt;Node4 -->
<g id="edge3" class="edge">
<title>Node3&#45;&gt;Node4</title>
<path fill="none" stroke="midnightblue" d="M345.84,-114C337.24,-114 328.59,-114 320.26,-114"/>
<polygon fill="midnightblue" stroke="midnightblue" points="345.9,-117.5 355.9,-114 345.9,-110.5 345.9,-117.5"/>
</g>
<!-- Node4&#45;&gt;Node2 -->
<g id="edge4" class="edge">
<title>Node4&#45;&gt;Node2</title>
<path fill="none" stroke="midnightblue" d="M183.61,-114C168.51,-114 152.77,-114 138.25,-114"/>
<polygon fill="midnightblue" stroke="midnightblue" points="183.95,-117.5 193.95,-114 183.95,-110.5 183.95,-117.5"/>
</g>
<!-- Node6 -->
<g id="node6" class="node">
<title>Node6</title>
<g id="a_node6"><a xlink:href="classsrc_1_1db__tools_1_1db__class__defs_1_1_threaded_d_b_base.html#a48e555303526711e03e9406703a1622c" target="_top" xlink:title=" ">
<polygon fill="white" stroke="black" points="0,-0.5 0,-41.5 158,-41.5 158,-0.5 0,-0.5"/>
<text text-anchor="start" x="8" y="-29.5" font-family="Helvetica,sans-Serif" font-size="10.00">src.db_tools.db_class</text>
<text text-anchor="start" x="8" y="-18.5" font-family="Helvetica,sans-Serif" font-size="10.00">_defs.ThreadedDBBase.enqueue</text>
<text text-anchor="middle" x="79" y="-7.5" font-family="Helvetica,sans-Serif" font-size="10.00">_add_row</text>
</a>
</g>
</g>
<!-- Node5&#45;&gt;Node6 -->
<g id="edge6" class="edge">
<title>Node5&#45;&gt;Node6</title>
<path fill="none" stroke="midnightblue" d="M187.88,-21C178.14,-21 168.06,-21 158.15,-21"/>
<polygon fill="midnightblue" stroke="midnightblue" points="187.88,-24.5 197.88,-21 187.88,-17.5 187.88,-24.5"/>
</g>
<!-- Node7&#45;&gt;Node2 -->
<g id="edge8" class="edge">
<title>Node7&#45;&gt;Node2</title>
<path fill="none" stroke="midnightblue" d="M362.73,-67.22C315.58,-69.56 250.52,-74.35 194,-84 172.62,-87.65 149.4,-93.42 129.53,-98.93"/>
<polygon fill="midnightblue" stroke="midnightblue" points="362.99,-70.71 372.81,-66.74 362.66,-63.72 362.99,-70.71"/>
</g>
<!-- Node7&#45;&gt;Node5 -->
<g id="edge9" class="edge">
<title>Node7&#45;&gt;Node5</title>
<path fill="none" stroke="midnightblue" d="M362.85,-48.14C347.48,-44.16 331.18,-39.94 316.13,-36.05"/>
<polygon fill="midnightblue" stroke="midnightblue" points="362.25,-51.6 372.81,-50.71 364,-44.82 362.25,-51.6"/>
</g>
</g>
</svg>
