<?xml version="1.0" encoding="UTF-8" standalone="no"?>
<!DOCTYPE svg PUBLIC "-//W3C//DTD SVG 1.1//EN"
 "http://www.w3.org/Graphics/SVG/1.1/DTD/svg11.dtd">
<!-- Generated by graphviz version 2.47.1 (20210417.1919)
 -->
<!-- Title: src.db_tools.db_class_defs.DBBase.add_row Pages: 1 -->
<svg width="439pt" height="61pt"
 viewBox="0.00 0.00 439.00 61.00" xmlns="http://www.w3.org/2000/svg" xmlns:xlink="http://www.w3.org/1999/xlink">
<g id="graph0" class="graph" transform="scale(1 1) rotate(0) translate(4 57)">
<title>src.db_tools.db_class_defs.DBBase.add_row</title>
<polygon fill="white" stroke="transparent" points="-4,4 -4,-57 435,-57 435,4 -4,4"/>
<!-- Node1 -->
<g id="node1" class="node">
<title>Node1</title>
<g id="a_node1"><a xlink:title=" ">
<polygon fill="#bfbfbf" stroke="black" points="0,-22.5 0,-52.5 118,-52.5 118,-22.5 0,-22.5"/>
<text text-anchor="start" x="8" y="-40.5" font-family="Helvetica,sans-Serif" font-size="10.00">src.db_tools.db_class</text>
<text text-anchor="middle" x="59" y="-29.5" font-family="Helvetica,sans-Serif" font-size="10.00">_defs.DBBase.add_row</text>
</a>
</g>
</g>
<!-- Node2 -->
<g id="node2" class="node">
<title>Node2</title>
<g id="a_node2"><a xlink:href="classsrc_1_1db__tools_1_1db__class__defs_1_1_d_b_base.html#a429bfd28d78ab3be7bfc8b3f24509fa1" target="_top" xlink:title="Calling this property requires that we have made a previous call to self.__call__() in order to prope...">
<polygon fill="white" stroke="black" points="302,-22.5 302,-52.5 431,-52.5 431,-22.5 302,-22.5"/>
<text text-anchor="start" x="310" y="-40.5" font-family="Helvetica,sans-Serif" font-size="10.00">src.db_tools.db_class</text>
<text text-anchor="middle" x="366.5" y="-29.5" font-family="Helvetica,sans-Serif" font-size="10.00">_defs.DBBase.connection</text>
</a>
</g>
</g>
<!-- Node1&#45;&gt;Node2 -->
<g id="edge1" class="edge">
<title>Node1&#45;&gt;Node2</title>
<path fill="none" stroke="midnightblue" d="M118.16,-39.65C130.02,-40 142.41,-40.32 154,-40.5 203.77,-41.29 216.23,-41.25 266,-40.5 274.32,-40.37 283.03,-40.19 291.69,-39.97"/>
<polygon fill="midnightblue" stroke="midnightblue" points="291.91,-43.47 301.81,-39.71 291.72,-36.47 291.91,-43.47"/>
</g>
<!-- Node3 -->
<g id="node3" class="node">
<title>Node3</title>
<g id="a_node3"><a xlink:href="classsrc_1_1db__tools_1_1db__class__defs_1_1_d_b_base.html#afab76d33daab3aa5e5c9263f284ee9d6" target="_top" xlink:title=" ">
<polygon fill="white" stroke="black" points="154,-0.5 154,-30.5 266,-30.5 266,-0.5 154,-0.5"/>
<text text-anchor="start" x="162" y="-18.5" font-family="Helvetica,sans-Serif" font-size="10.00">src.db_tools.db_class</text>
<text text-anchor="middle" x="210" y="-7.5" font-family="Helvetica,sans-Serif" font-size="10.00">_defs.DBBase.cursor</text>
</a>
</g>
</g>
<!-- Node1&#45;&gt;Node3 -->
<g id="edge2" class="edge">
<title>Node1&#45;&gt;Node3</title>
<path fill="none" stroke="midnightblue" d="M118.03,-28.93C126.49,-27.68 135.25,-26.39 143.83,-25.12"/>
<polygon fill="midnightblue" stroke="midnightblue" points="144.43,-28.57 153.81,-23.65 143.4,-21.65 144.43,-28.57"/>
</g>
<!-- Node3&#45;&gt;Node2 -->
<g id="edge3" class="edge">
<title>Node3&#45;&gt;Node2</title>
<path fill="none" stroke="midnightblue" d="M266.34,-23.38C274.62,-24.56 283.26,-25.79 291.85,-27.01"/>
<polygon fill="midnightblue" stroke="midnightblue" points="291.48,-30.49 301.87,-28.44 292.46,-23.56 291.48,-30.49"/>
</g>
</g>
</svg>
