<?xml version="1.0" encoding="UTF-8" standalone="no"?>
<!DOCTYPE svg PUBLIC "-//W3C//DTD SVG 1.1//EN"
 "http://www.w3.org/Graphics/SVG/1.1/DTD/svg11.dtd">
<!-- Generated by graphviz version 2.47.1 (20210417.1919)
 -->
<!-- Title: src.utils.backup.JPickleSerializable.__conform__ Pages: 1 -->
<svg width="339pt" height="78pt"
 viewBox="0.00 0.00 339.00 77.50" xmlns="http://www.w3.org/2000/svg" xmlns:xlink="http://www.w3.org/1999/xlink">
<g id="graph0" class="graph" transform="scale(1 1) rotate(0) translate(4 73.5)">
<title>src.utils.backup.JPickleSerializable.__conform__</title>
<polygon fill="white" stroke="transparent" points="-4,4 -4,-73.5 335,-73.5 335,4 -4,4"/>
<!-- Node1 -->
<g id="node1" class="node">
<title>Node1</title>
<g id="a_node1"><a xlink:title=" ">
<polygon fill="#bfbfbf" stroke="black" points="0,-22.5 0,-52.5 125,-52.5 125,-22.5 0,-22.5"/>
<text text-anchor="start" x="8" y="-40.5" font-family="Helvetica,sans-Serif" font-size="10.00">src.utils.backup.JPickle</text>
<text text-anchor="middle" x="62.5" y="-29.5" font-family="Helvetica,sans-Serif" font-size="10.00">Serializable.__conform__</text>
</a>
</g>
</g>
<!-- Node2 -->
<g id="node2" class="node">
<title>Node2</title>
<g id="a_node2"><a xlink:href="classsrc_1_1utils_1_1_j_pickle_serializable.html#addd7dc2224b1ff399f41c6c344dad59b" target="_top" xlink:title=" ">
<polygon fill="white" stroke="black" points="161,-50 161,-69 331,-69 331,-50 161,-50"/>
<text text-anchor="middle" x="246" y="-57" font-family="Helvetica,sans-Serif" font-size="10.00">src.utils.JPickleSerializable.to_json</text>
</a>
</g>
</g>
<!-- Node1&#45;&gt;Node2 -->
<g id="edge1" class="edge">
<title>Node1&#45;&gt;Node2</title>
<path fill="none" stroke="midnightblue" d="M125.2,-44.98C135.25,-46.2 145.82,-47.48 156.36,-48.76"/>
<polygon fill="midnightblue" stroke="midnightblue" points="156.09,-52.25 166.44,-49.98 156.93,-45.3 156.09,-52.25"/>
</g>
<!-- Node3 -->
<g id="node3" class="node">
<title>Node3</title>
<g id="a_node3"><a xlink:href="classsrc_1_1utils_1_1backup_1_1_j_pickle_serializable.html#a1b9a3fb302c111258e64dda3fb31878e" target="_top" xlink:title=" ">
<polygon fill="white" stroke="black" points="186,-0.5 186,-30.5 306,-30.5 306,-0.5 186,-0.5"/>
<text text-anchor="start" x="194" y="-18.5" font-family="Helvetica,sans-Serif" font-size="10.00">src.utils.backup.JPickle</text>
<text text-anchor="middle" x="246" y="-7.5" font-family="Helvetica,sans-Serif" font-size="10.00">Serializable.to_json</text>
</a>
</g>
</g>
<!-- Node1&#45;&gt;Node3 -->
<g id="edge2" class="edge">
<title>Node1&#45;&gt;Node3</title>
<path fill="none" stroke="midnightblue" d="M125.2,-30.02C141.46,-28.05 159.1,-25.91 175.73,-23.9"/>
<polygon fill="midnightblue" stroke="midnightblue" points="176.42,-27.34 185.92,-22.66 175.58,-20.39 176.42,-27.34"/>
</g>
</g>
</svg>
