<?xml version="1.0" encoding="UTF-8" standalone="no"?>
<!DOCTYPE svg PUBLIC "-//W3C//DTD SVG 1.1//EN"
 "http://www.w3.org/Graphics/SVG/1.1/DTD/svg11.dtd">
<!-- Generated by graphviz version 2.47.1 (20210417.1919)
 -->
<!-- Title: src.lemma_extraction.word_extraction_classes.LemmaExtractor.do_join Pages: 1 -->
<svg width="674pt" height="110pt"
 viewBox="0.00 0.00 674.00 110.00" xmlns="http://www.w3.org/2000/svg" xmlns:xlink="http://www.w3.org/1999/xlink">
<g id="graph0" class="graph" transform="scale(1 1) rotate(0) translate(4 106)">
<title>src.lemma_extraction.word_extraction_classes.LemmaExtractor.do_join</title>
<polygon fill="white" stroke="transparent" points="-4,4 -4,-106 670,-106 670,4 -4,4"/>
<!-- Node1 -->
<g id="node1" class="node">
<title>Node1</title>
<g id="a_node1"><a xlink:title=" ">
<polygon fill="#bfbfbf" stroke="black" points="454,-36 454,-66 666,-66 666,-36 454,-36"/>
<text text-anchor="start" x="462" y="-54" font-family="Helvetica,sans-Serif" font-size="10.00">src.lemma_extraction.word</text>
<text text-anchor="middle" x="560" y="-43" font-family="Helvetica,sans-Serif" font-size="10.00">_extraction_classes.LemmaExtractor.do_join</text>
</a>
</g>
</g>
<!-- Node2 -->
<g id="node2" class="node">
<title>Node2</title>
<g id="a_node2"><a xlink:href="classsrc_1_1lemma__extraction_1_1word__extraction__classes_1_1_lemma_extractor.html#a8edd0fe27eced07828ec901a7cd28ed5" target="_top" xlink:title=" ">
<polygon fill="white" stroke="black" points="226,-60.5 226,-101.5 418,-101.5 418,-60.5 226,-60.5"/>
<text text-anchor="start" x="234" y="-89.5" font-family="Helvetica,sans-Serif" font-size="10.00">src.lemma_extraction.word</text>
<text text-anchor="start" x="234" y="-78.5" font-family="Helvetica,sans-Serif" font-size="10.00">_extraction_classes.LemmaExtractor.do</text>
<text text-anchor="middle" x="322" y="-67.5" font-family="Helvetica,sans-Serif" font-size="10.00">_all_lemma_join</text>
</a>
</g>
</g>
<!-- Node1&#45;&gt;Node2 -->
<g id="edge1" class="edge">
<title>Node1&#45;&gt;Node2</title>
<path fill="none" stroke="midnightblue" d="M443.78,-65.65C435.26,-66.73 426.72,-67.82 418.33,-68.88"/>
<polygon fill="midnightblue" stroke="midnightblue" points="444.29,-69.11 453.77,-64.38 443.41,-62.17 444.29,-69.11"/>
</g>
<!-- Node4 -->
<g id="node4" class="node">
<title>Node4</title>
<g id="a_node4"><a xlink:href="classsrc_1_1lemma__extraction_1_1word__extraction__classes_1_1_lemma_extractor.html#a7244548bc27ffaaf0b429c0bf02527a0" target="_top" xlink:title=" ">
<polygon fill="white" stroke="black" points="226,-0.5 226,-41.5 418,-41.5 418,-0.5 226,-0.5"/>
<text text-anchor="start" x="234" y="-29.5" font-family="Helvetica,sans-Serif" font-size="10.00">src.lemma_extraction.word</text>
<text text-anchor="start" x="234" y="-18.5" font-family="Helvetica,sans-Serif" font-size="10.00">_extraction_classes.LemmaExtractor.do</text>
<text text-anchor="middle" x="322" y="-7.5" font-family="Helvetica,sans-Serif" font-size="10.00">_no_stops_lemma_join</text>
</a>
</g>
</g>
<!-- Node1&#45;&gt;Node4 -->
<g id="edge3" class="edge">
<title>Node1&#45;&gt;Node4</title>
<path fill="none" stroke="midnightblue" d="M443.78,-36.35C435.26,-35.27 426.72,-34.18 418.33,-33.12"/>
<polygon fill="midnightblue" stroke="midnightblue" points="443.41,-39.83 453.77,-37.62 444.29,-32.89 443.41,-39.83"/>
</g>
<!-- Node3 -->
<g id="node3" class="node">
<title>Node3</title>
<g id="a_node3"><a xlink:href="classsrc_1_1lemma__extraction_1_1word__extraction__classes_1_1_lemma_extractor.html#a94fdd1216e8de74d01fc04a990281d13" target="_top" xlink:title=" ">
<polygon fill="white" stroke="black" points="0,-30.5 0,-71.5 190,-71.5 190,-30.5 0,-30.5"/>
<text text-anchor="start" x="8" y="-59.5" font-family="Helvetica,sans-Serif" font-size="10.00">src.lemma_extraction.word</text>
<text text-anchor="start" x="8" y="-48.5" font-family="Helvetica,sans-Serif" font-size="10.00">_extraction_classes.LemmaExtractor.to</text>
<text text-anchor="middle" x="95" y="-37.5" font-family="Helvetica,sans-Serif" font-size="10.00">_table_row_dict</text>
</a>
</g>
</g>
<!-- Node2&#45;&gt;Node3 -->
<g id="edge2" class="edge">
<title>Node2&#45;&gt;Node3</title>
<path fill="none" stroke="midnightblue" d="M215.84,-66.98C207.23,-65.83 198.56,-64.67 190.04,-63.54"/>
<polygon fill="midnightblue" stroke="midnightblue" points="215.53,-70.47 225.91,-68.32 216.46,-63.53 215.53,-70.47"/>
</g>
<!-- Node4&#45;&gt;Node3 -->
<g id="edge4" class="edge">
<title>Node4&#45;&gt;Node3</title>
<path fill="none" stroke="midnightblue" d="M215.84,-35.02C207.23,-36.17 198.56,-37.33 190.04,-38.46"/>
<polygon fill="midnightblue" stroke="midnightblue" points="216.46,-38.47 225.91,-33.68 215.53,-31.53 216.46,-38.47"/>
</g>
</g>
</svg>
