<?xml version="1.0" encoding="UTF-8" standalone="no"?>
<!DOCTYPE svg PUBLIC "-//W3C//DTD SVG 1.1//EN"
 "http://www.w3.org/Graphics/SVG/1.1/DTD/svg11.dtd">
<!-- Generated by graphviz version 2.47.1 (20210417.1919)
 -->
<!-- Title: src.utils.PoliteDownloader Pages: 1 -->
<svg width="251pt" height="150pt"
 viewBox="0.00 0.00 250.50 150.00" xmlns="http://www.w3.org/2000/svg" xmlns:xlink="http://www.w3.org/1999/xlink">
<g id="graph0" class="graph" transform="scale(1 1) rotate(0) translate(4 146)">
<title>src.utils.PoliteDownloader</title>
<polygon fill="white" stroke="transparent" points="-4,4 -4,-146 246.5,-146 246.5,4 -4,4"/>
<!-- Node1 -->
<g id="node1" class="node">
<title>Node1</title>
<g id="a_node1"><a xlink:title="Subclassed the Downloader provided by nltk to give better control over the garbage console output the...">
<polygon fill="#bfbfbf" stroke="black" points="62,-0.5 62,-19.5 191,-19.5 191,-0.5 62,-0.5"/>
<text text-anchor="middle" x="126.5" y="-7.5" font-family="Helvetica,sans-Serif" font-size="10.00">src.utils.PoliteDownloader</text>
</a>
</g>
</g>
<!-- Node2 -->
<g id="node2" class="node">
<title>Node2</title>
<g id="a_node2"><a xlink:title=" ">
<polygon fill="white" stroke="#bfbfbf" points="0,-122.5 0,-141.5 143,-141.5 143,-122.5 0,-122.5"/>
<text text-anchor="middle" x="71.5" y="-129.5" font-family="Helvetica,sans-Serif" font-size="10.00">nltk::downloader::Downloader</text>
</a>
</g>
</g>
<!-- Node2&#45;&gt;Node1 -->
<g id="edge1" class="edge">
<title>Node2&#45;&gt;Node1</title>
<path fill="none" stroke="midnightblue" d="M79.66,-113.2C91.67,-86.99 113.66,-39.02 122.58,-19.55"/>
<polygon fill="midnightblue" stroke="midnightblue" points="76.44,-111.82 75.46,-122.37 82.8,-114.74 76.44,-111.82"/>
</g>
<!-- Node3 -->
<g id="node3" class="node">
<title>Node3</title>
<g id="a_node3"><a xlink:title=" ">
<polygon fill="white" stroke="#bfbfbf" points="161,-122.5 161,-141.5 202,-141.5 202,-122.5 161,-122.5"/>
<text text-anchor="middle" x="181.5" y="-129.5" font-family="Helvetica,sans-Serif" font-size="10.00">string</text>
</a>
</g>
</g>
<!-- Node3&#45;&gt;Node1 -->
<g id="edge2" class="edge">
<title>Node3&#45;&gt;Node1</title>
<path fill="none" stroke="#9a32cd" stroke-dasharray="5,2" d="M173.34,-113.2C161.33,-86.99 139.34,-39.02 130.42,-19.55"/>
<polygon fill="#9a32cd" stroke="#9a32cd" points="170.2,-114.74 177.54,-122.37 176.56,-111.82 170.2,-114.74"/>
<text text-anchor="middle" x="205" y="-96" font-family="Helvetica,sans-Serif" font-size="10.00"> COLOR_RESET</text>
<text text-anchor="middle" x="205" y="-85" font-family="Helvetica,sans-Serif" font-size="10.00">ESC_SEQ</text>
<text text-anchor="middle" x="205" y="-74" font-family="Helvetica,sans-Serif" font-size="10.00">formatted_charc</text>
<text text-anchor="middle" x="205" y="-63" font-family="Helvetica,sans-Serif" font-size="10.00">formatted_cyan</text>
<text text-anchor="middle" x="205" y="-52" font-family="Helvetica,sans-Serif" font-size="10.00">formatted_green</text>
<text text-anchor="middle" x="205" y="-41" font-family="Helvetica,sans-Serif" font-size="10.00">formatted_red</text>
</g>
</g>
</svg>
