<?xml version="1.0" encoding="UTF-8" standalone="no"?>
<!DOCTYPE svg PUBLIC "-//W3C//DTD SVG 1.1//EN"
 "http://www.w3.org/Graphics/SVG/1.1/DTD/svg11.dtd">
<!-- Generated by graphviz version 2.47.1 (20210417.1919)
 -->
<!-- Title: src.utils.custom_logger.CallStackFormatter.formatStack Pages: 1 -->
<svg width="365pt" height="88pt"
 viewBox="0.00 0.00 365.00 88.00" xmlns="http://www.w3.org/2000/svg" xmlns:xlink="http://www.w3.org/1999/xlink">
<g id="graph0" class="graph" transform="scale(1 1) rotate(0) translate(4 84)">
<title>src.utils.custom_logger.CallStackFormatter.formatStack</title>
<polygon fill="white" stroke="transparent" points="-4,4 -4,-84 361,-84 361,4 -4,4"/>
<!-- Node1 -->
<g id="node1" class="node">
<title>Node1</title>
<g id="a_node1"><a xlink:title=" ">
<polygon fill="#bfbfbf" stroke="black" points="201,-24.5 201,-54.5 357,-54.5 357,-24.5 201,-24.5"/>
<text text-anchor="start" x="209" y="-42.5" font-family="Helvetica,sans-Serif" font-size="10.00">src.utils.custom_logger.</text>
<text text-anchor="middle" x="279" y="-31.5" font-family="Helvetica,sans-Serif" font-size="10.00">CallStackFormatter.formatStack</text>
</a>
</g>
</g>
<!-- Node2 -->
<g id="node2" class="node">
<title>Node2</title>
<g id="a_node2"><a xlink:href="classsrc_1_1utils_1_1backup_1_1custom__logger_1_1_call_stack_formatter.html#ada8edadc3a502f9f4965b14b57d9c8b3" target="_top" xlink:title=" ">
<polygon fill="white" stroke="black" points="0,-49.5 0,-79.5 165,-79.5 165,-49.5 0,-49.5"/>
<text text-anchor="start" x="8" y="-67.5" font-family="Helvetica,sans-Serif" font-size="10.00">src.utils.backup.custom</text>
<text text-anchor="middle" x="82.5" y="-56.5" font-family="Helvetica,sans-Serif" font-size="10.00">_logger.CallStackFormatter.format</text>
</a>
</g>
</g>
<!-- Node1&#45;&gt;Node2 -->
<g id="edge1" class="edge">
<title>Node1&#45;&gt;Node2</title>
<path fill="none" stroke="midnightblue" d="M190.83,-50.7C182.25,-51.81 173.56,-52.92 165.03,-54.02"/>
<polygon fill="midnightblue" stroke="midnightblue" points="191.38,-54.16 200.85,-49.42 190.48,-47.22 191.38,-54.16"/>
</g>
<!-- Node3 -->
<g id="node3" class="node">
<title>Node3</title>
<g id="a_node3"><a xlink:href="classsrc_1_1utils_1_1custom__logger_1_1_call_stack_formatter.html#a857c64c44956a7731f4157a4fce34f54" target="_top" xlink:title=" ">
<polygon fill="white" stroke="black" points="17,-0.5 17,-30.5 148,-30.5 148,-0.5 17,-0.5"/>
<text text-anchor="start" x="25" y="-18.5" font-family="Helvetica,sans-Serif" font-size="10.00">src.utils.custom_logger.</text>
<text text-anchor="middle" x="82.5" y="-7.5" font-family="Helvetica,sans-Serif" font-size="10.00">CallStackFormatter.format</text>
</a>
</g>
</g>
<!-- Node1&#45;&gt;Node3 -->
<g id="edge2" class="edge">
<title>Node1&#45;&gt;Node3</title>
<path fill="none" stroke="midnightblue" d="M190.51,-28.7C176.22,-26.94 161.64,-25.14 148.03,-23.46"/>
<polygon fill="midnightblue" stroke="midnightblue" points="190.5,-32.23 200.85,-29.98 191.35,-25.28 190.5,-32.23"/>
</g>
</g>
</svg>
