<?xml version="1.0" encoding="UTF-8" standalone="no"?>
<!DOCTYPE svg PUBLIC "-//W3C//DTD SVG 1.1//EN"
 "http://www.w3.org/Graphics/SVG/1.1/DTD/svg11.dtd">
<!-- Generated by graphviz version 2.47.1 (20210417.1919)
 -->
<!-- Title: src.db_tools.db_class_defs.DBBase.__call__ Pages: 1 -->
<!--zoomable 211 -->
<svg id="main" version="1.1" xmlns="http://www.w3.org/2000/svg" xmlns:xlink="http://www.w3.org/1999/xlink" xml:space="preserve" onload="init(evt)">
<style type="text/css"><![CDATA[
.edge:hover path { stroke: red; }
.edge:hover polygon { stroke: red; fill: red; }
]]></style>
<script type="text/javascript"><![CDATA[
var edges = document.getElementsByTagName('g');
if (edges && edges.length) {
  for (var i=0;i<edges.length;i++) {
    if (edges[i].id.substr(0,4)=='edge') {
      edges[i].setAttribute('class','edge');
    }
  }
}
]]></script>
        <defs>
                <circle id="rim" cx="0" cy="0" r="7"/>
                <circle id="rim2" cx="0" cy="0" r="3.5"/>
                <g id="zoomPlus">
                        <use xlink:href="#rim" fill="#404040">
                                <set attributeName="fill" to="#808080" begin="zoomplus.mouseover" end="zoomplus.mouseout"/>
                        </use>
                        <path d="M-4,0h8M0,-4v8" fill="none" stroke="white" stroke-width="1.5" pointer-events="none"/>
                </g>
                <g id="zoomMin">
                        <use xlink:href="#rim" fill="#404040">
                                <set attributeName="fill" to="#808080" begin="zoomminus.mouseover" end="zoomminus.mouseout"/>
                        </use>
                        <path d="M-4,0h8" fill="none" stroke="white" stroke-width="1.5" pointer-events="none"/>
                </g>
                <g id="dirArrow">
                        <path fill="none" stroke="white" stroke-width="1.5" d="M0,-3.0v7 M-2.5,-0.5L0,-3.0L2.5,-0.5"/>
                </g>
               <g id="resetDef">
                       <use xlink:href="#rim2" fill="#404040">
                               <set attributeName="fill" to="#808080" begin="reset.mouseover" end="reset.mouseout"/>
                       </use>
               </g>
        </defs>

<script type="text/javascript">
var viewWidth = 652;
var viewHeight = 211;
var sectionId = 'dynsection-2';
</script>
<script xlink:href="svgpan.js"/>
<svg id="graph" class="graph">
<g id="viewport">
<title>src.db_tools.db_class_defs.DBBase.__call__</title>
<polygon fill="white" stroke="transparent" points="-4,4 -4,-207.43 648,-207.43 648,4 -4,4"/>
<!-- Node1 -->
<g id="node1" class="node">
<title>Node1</title>
<g id="a_node1"><a xlink:title=" ">
<polygon fill="#bfbfbf" stroke="black" points="0,-68.93 0,-98.93 118,-98.93 118,-68.93 0,-68.93"/>
<text text-anchor="start" x="8" y="-86.93" font-family="Helvetica,sans-Serif" font-size="10.00">src.db_tools.db_class</text>
<text text-anchor="middle" x="59" y="-75.93" font-family="Helvetica,sans-Serif" font-size="10.00">_defs.DBBase.__call__</text>
</a>
</g>
</g>
<!-- Node2 -->
<g id="node2" class="node">
<title>Node2</title>
<g id="a_node2"><a xlink:href="classsrc_1_1db__tools_1_1db__class__defs_1_1_d_b_base.html#a1dc699a71be35e805020d2c3f92b66c3" target="_top" xlink:title=" ">
<polygon fill="white" stroke="black" points="154,-172.93 154,-202.93 297,-202.93 297,-172.93 154,-172.93"/>
<text text-anchor="start" x="162" y="-190.93" font-family="Helvetica,sans-Serif" font-size="10.00">src.db_tools.db_class</text>
<text text-anchor="middle" x="225.5" y="-179.93" font-family="Helvetica,sans-Serif" font-size="10.00">_defs.DBBase._add_to_keys</text>
</a>
</g>
</g>
<!-- Node1&#45;&gt;Node2 -->
<g id="edge1" class="edge">
<title>Node1&#45;&gt;Node2</title>
<path fill="none" stroke="midnightblue" d="M74.67,-99.21C92.15,-116.67 122.92,-145.14 154,-162.93 157.68,-165.03 161.56,-167.01 165.54,-168.85"/>
<polygon fill="midnightblue" stroke="midnightblue" points="164.38,-172.16 174.95,-172.91 167.15,-165.73 164.38,-172.16"/>
</g>
<!-- Node3 -->
<g id="node3" class="node">
<title>Node3</title>
<g id="a_node3"><a xlink:href="classsrc_1_1db__tools_1_1db__class__defs_1_1_d_b_base.html#a7d81ecdc59e01a8449b98a2050672b24" target="_top" xlink:title=" ">
<polygon fill="white" stroke="black" points="162.5,-112.43 162.5,-153.43 288.5,-153.43 288.5,-112.43 162.5,-112.43"/>
<text text-anchor="start" x="170.5" y="-141.43" font-family="Helvetica,sans-Serif" font-size="10.00">src.db_tools.db_class</text>
<text text-anchor="start" x="170.5" y="-130.43" font-family="Helvetica,sans-Serif" font-size="10.00">_defs.DBBase._establish</text>
<text text-anchor="middle" x="225.5" y="-119.43" font-family="Helvetica,sans-Serif" font-size="10.00">_new_connection</text>
</a>
</g>
</g>
<!-- Node1&#45;&gt;Node3 -->
<g id="edge2" class="edge">
<title>Node1&#45;&gt;Node3</title>
<path fill="none" stroke="midnightblue" d="M110.7,-99.03C123.97,-102.98 138.53,-107.32 152.67,-111.53"/>
<polygon fill="midnightblue" stroke="midnightblue" points="151.79,-114.92 162.37,-114.42 153.79,-108.21 151.79,-114.92"/>
</g>
<!-- Node5 -->
<g id="node5" class="node">
<title>Node5</title>
<g id="a_node5"><a xlink:href="classsrc_1_1db__tools_1_1db__class__defs_1_1_d_b_base.html#a429bfd28d78ab3be7bfc8b3f24509fa1" target="_top" xlink:title="Calling this property requires that we have made a previous call to self.__call__() in order to prope...">
<polygon fill="white" stroke="black" points="515,-68.93 515,-98.93 644,-98.93 644,-68.93 515,-68.93"/>
<text text-anchor="start" x="523" y="-86.93" font-family="Helvetica,sans-Serif" font-size="10.00">src.db_tools.db_class</text>
<text text-anchor="middle" x="579.5" y="-75.93" font-family="Helvetica,sans-Serif" font-size="10.00">_defs.DBBase.connection</text>
</a>
</g>
</g>
<!-- Node1&#45;&gt;Node5 -->
<g id="edge7" class="edge">
<title>Node1&#45;&gt;Node5</title>
<path fill="none" stroke="midnightblue" d="M118.22,-83.93C213.08,-83.93 400.81,-83.93 504.82,-83.93"/>
<polygon fill="midnightblue" stroke="midnightblue" points="504.92,-87.43 514.92,-83.93 504.92,-80.43 504.92,-87.43"/>
</g>
<!-- Node7 -->
<g id="node7" class="node">
<title>Node7</title>
<g id="a_node7"><a xlink:href="classsrc_1_1db__tools_1_1db__class__defs_1_1_d_b_base.html#ab958b56da34f2ee3455c2e50a860c022" target="_top" xlink:title=" ">
<polygon fill="white" stroke="black" points="168.5,-24.93 168.5,-54.93 282.5,-54.93 282.5,-24.93 168.5,-24.93"/>
<text text-anchor="start" x="176.5" y="-42.93" font-family="Helvetica,sans-Serif" font-size="10.00">src.db_tools.db_class</text>
<text text-anchor="middle" x="225.5" y="-31.93" font-family="Helvetica,sans-Serif" font-size="10.00">_defs.DBBase.commit</text>
</a>
</g>
</g>
<!-- Node1&#45;&gt;Node7 -->
<g id="edge6" class="edge">
<title>Node1&#45;&gt;Node7</title>
<path fill="none" stroke="midnightblue" d="M116.15,-68.91C129.71,-65.28 144.32,-61.37 158.29,-57.64"/>
<polygon fill="midnightblue" stroke="midnightblue" points="159.57,-60.92 168.32,-54.95 157.76,-54.16 159.57,-60.92"/>
</g>
<!-- Node8 -->
<g id="node8" class="node">
<title>Node8</title>
<g id="a_node8"><a xlink:href="classsrc_1_1db__tools_1_1db__class__defs_1_1_d_b_base.html#afab76d33daab3aa5e5c9263f284ee9d6" target="_top" xlink:title=" ">
<polygon fill="white" stroke="black" points="350,-2.93 350,-32.93 462,-32.93 462,-2.93 350,-2.93"/>
<text text-anchor="start" x="358" y="-20.93" font-family="Helvetica,sans-Serif" font-size="10.00">src.db_tools.db_class</text>
<text text-anchor="middle" x="406" y="-9.93" font-family="Helvetica,sans-Serif" font-size="10.00">_defs.DBBase.cursor</text>
</a>
</g>
</g>
<!-- Node1&#45;&gt;Node8 -->
<g id="edge8" class="edge">
<title>Node1&#45;&gt;Node8</title>
<path fill="none" stroke="midnightblue" d="M74.23,-68.83C91.3,-51.92 121.68,-25.52 154,-14.93 214.57,4.92 287.85,1.11 339.55,-5.8"/>
<polygon fill="midnightblue" stroke="midnightblue" points="339.21,-9.29 349.6,-7.22 340.18,-2.36 339.21,-9.29"/>
</g>
<!-- Node4 -->
<g id="node4" class="node">
<title>Node4</title>
<g id="a_node4"><a xlink:href="classsrc_1_1db__tools_1_1db__class__defs_1_1_d_b_base.html#a47894228f63f488c5212dd846621da72" target="_top" xlink:title=" ">
<polygon fill="white" stroke="black" points="333,-161.93 333,-191.93 479,-191.93 479,-161.93 333,-161.93"/>
<text text-anchor="start" x="341" y="-179.93" font-family="Helvetica,sans-Serif" font-size="10.00">src.db_tools.db_class</text>
<text text-anchor="middle" x="406" y="-168.93" font-family="Helvetica,sans-Serif" font-size="10.00">_defs.DBBase._register_table</text>
</a>
</g>
</g>
<!-- Node3&#45;&gt;Node4 -->
<g id="edge3" class="edge">
<title>Node3&#45;&gt;Node4</title>
<path fill="none" stroke="midnightblue" d="M288.68,-148.25C303.37,-151.88 319.14,-155.76 334.19,-159.47"/>
<polygon fill="midnightblue" stroke="midnightblue" points="333.4,-162.88 343.95,-161.88 335.07,-156.09 333.4,-162.88"/>
</g>
<!-- Node6 -->
<g id="node6" class="node">
<title>Node6</title>
<g id="a_node6"><a xlink:href="classsrc_1_1db__tools_1_1db__class__defs_1_1_d_b_base.html#ade81609e37ef5b096b7d351a7d116b83" target="_top" xlink:title="A list of strings, where each element in the list is the name of a table in the main DB.">
<polygon fill="white" stroke="black" points="337.5,-112.93 337.5,-142.93 474.5,-142.93 474.5,-112.93 337.5,-112.93"/>
<text text-anchor="start" x="345.5" y="-130.93" font-family="Helvetica,sans-Serif" font-size="10.00">src.db_tools.db_class</text>
<text text-anchor="middle" x="406" y="-119.93" font-family="Helvetica,sans-Serif" font-size="10.00">_defs.DBBase.table_names</text>
</a>
</g>
</g>
<!-- Node3&#45;&gt;Node6 -->
<g id="edge5" class="edge">
<title>Node3&#45;&gt;Node6</title>
<path fill="none" stroke="midnightblue" d="M288.68,-131.19C301.07,-130.84 314.22,-130.47 327.05,-130.11"/>
<polygon fill="midnightblue" stroke="midnightblue" points="327.36,-133.6 337.26,-129.82 327.17,-126.61 327.36,-133.6"/>
</g>
<!-- Node4&#45;&gt;Node5 -->
<g id="edge4" class="edge">
<title>Node4&#45;&gt;Node5</title>
<path fill="none" stroke="midnightblue" d="M458.09,-161.92C465.24,-159.24 472.4,-156.23 479,-152.93 505.36,-139.73 532.7,-120.29 552.04,-105.4"/>
<polygon fill="midnightblue" stroke="midnightblue" points="554.34,-108.04 560.07,-99.12 550.03,-102.52 554.34,-108.04"/>
</g>
<!-- Node8&#45;&gt;Node5 -->
<g id="edge9" class="edge">
<title>Node8&#45;&gt;Node5</title>
<path fill="none" stroke="midnightblue" d="M446.35,-33.07C471.18,-42.63 503.45,-55.05 529.89,-65.22"/>
<polygon fill="midnightblue" stroke="midnightblue" points="528.75,-68.53 539.34,-68.86 531.26,-62 528.75,-68.53"/>
</g>
</g>
</svg>
        <g id="navigator" transform="translate(0 0)" fill="#404254">
                <rect fill="#f2f5e9" fill-opacity="0.5" stroke="#606060" stroke-width=".5" x="0" y="0" width="60" height="60"/>
                <use id="zoomplus" xlink:href="#zoomPlus" x="17" y="9" onmousedown="handleZoom(evt,'in')"/>
                <use id="zoomminus" xlink:href="#zoomMin" x="42" y="9" onmousedown="handleZoom(evt,'out')"/>
                <use id="reset" xlink:href="#resetDef" x="30" y="36" onmousedown="handleReset()"/>
                <g id="arrowUp" xlink:href="#dirArrow" transform="translate(30 24)" onmousedown="handlePan(0,-1)">
                  <use xlink:href="#rim" fill="#404040">
                        <set attributeName="fill" to="#808080" begin="arrowUp.mouseover" end="arrowUp.mouseout"/>
                  </use>
                  <path fill="none" stroke="white" stroke-width="1.5" d="M0,-3.0v7 M-2.5,-0.5L0,-3.0L2.5,-0.5"/>
                </g>
                <g id="arrowRight" xlink:href="#dirArrow" transform="rotate(90) translate(36 -43)" onmousedown="handlePan(1,0)">
                  <use xlink:href="#rim" fill="#404040">
                        <set attributeName="fill" to="#808080" begin="arrowRight.mouseover" end="arrowRight.mouseout"/>
                  </use>
                  <path fill="none" stroke="white" stroke-width="1.5" d="M0,-3.0v7 M-2.5,-0.5L0,-3.0L2.5,-0.5"/>
                </g>
                <g id="arrowDown" xlink:href="#dirArrow" transform="rotate(180) translate(-30 -48)" onmousedown="handlePan(0,1)">
                  <use xlink:href="#rim" fill="#404040">
                        <set attributeName="fill" to="#808080" begin="arrowDown.mouseover" end="arrowDown.mouseout"/>
                  </use>
                  <path fill="none" stroke="white" stroke-width="1.5" d="M0,-3.0v7 M-2.5,-0.5L0,-3.0L2.5,-0.5"/>
                </g>
                <g id="arrowLeft" xlink:href="#dirArrow" transform="rotate(270) translate(-36 17)" onmousedown="handlePan(-1,0)">
                  <use xlink:href="#rim" fill="#404040">
                        <set attributeName="fill" to="#808080" begin="arrowLeft.mouseover" end="arrowLeft.mouseout"/>
                  </use>
                  <path fill="none" stroke="white" stroke-width="1.5" d="M0,-3.0v7 M-2.5,-0.5L0,-3.0L2.5,-0.5"/>
                </g>
        </g>
        <svg viewBox="0 0 15 15" width="100%" height="30px" preserveAspectRatio="xMaxYMin meet">
         <g id="arrow_out" transform="scale(0.3 0.3)">
          <a xlink:href="classsrc_1_1db__tools_1_1db__class__defs_1_1_d_b_base_a970d3d8297eb67288f50f6e28e1883fa_cgraph_org.svg" target="_base">
           <rect id="button" ry="5" rx="5" y="6" x="6" height="38" width="38"
                fill="#f2f5e9" fill-opacity="0.5" stroke="#606060" stroke-width="1.0"/>
           <path id="arrow"
             d="M 11.500037,31.436501 C 11.940474,20.09759 22.043105,11.32322 32.158766,21.979434 L 37.068811,17.246167 C 37.068811,17.246167 37.088388,32 37.088388,32 L 22.160133,31.978069 C 22.160133,31.978069 26.997745,27.140456 26.997745,27.140456 C 18.528582,18.264221 13.291696,25.230495 11.500037,31.436501 z"
             style="fill:#404040;"/>
          </a>
         </g>
        </svg>
</svg>
