<?xml version="1.0" encoding="UTF-8" standalone="no"?>
<!DOCTYPE svg PUBLIC "-//W3C//DTD SVG 1.1//EN"
 "http://www.w3.org/Graphics/SVG/1.1/DTD/svg11.dtd">
<!-- Generated by graphviz version 2.47.1 (20210417.1919)
 -->
<!-- Title: src.lemma_extraction.cache_class_defs.LemmaDB.add_row Pages: 1 -->
<svg width="358pt" height="50pt"
 viewBox="0.00 0.00 358.00 50.00" xmlns="http://www.w3.org/2000/svg" xmlns:xlink="http://www.w3.org/1999/xlink">
<g id="graph0" class="graph" transform="scale(1 1) rotate(0) translate(4 46)">
<title>src.lemma_extraction.cache_class_defs.LemmaDB.add_row</title>
<polygon fill="white" stroke="transparent" points="-4,4 -4,-46 354,-46 354,4 -4,4"/>
<!-- Node1 -->
<g id="node1" class="node">
<title>Node1</title>
<g id="a_node1"><a xlink:title=" ">
<polygon fill="#bfbfbf" stroke="black" points="194,-6 194,-36 350,-36 350,-6 194,-6"/>
<text text-anchor="start" x="202" y="-24" font-family="Helvetica,sans-Serif" font-size="10.00">src.lemma_extraction.cache</text>
<text text-anchor="middle" x="272" y="-13" font-family="Helvetica,sans-Serif" font-size="10.00">_class_defs.LemmaDB.add_row</text>
</a>
</g>
</g>
<!-- Node2 -->
<g id="node2" class="node">
<title>Node2</title>
<g id="a_node2"><a xlink:href="classsrc_1_1db__tools_1_1db__class__defs_1_1_threaded_d_b_base.html#a48e555303526711e03e9406703a1622c" target="_top" xlink:title=" ">
<polygon fill="white" stroke="black" points="0,-0.5 0,-41.5 158,-41.5 158,-0.5 0,-0.5"/>
<text text-anchor="start" x="8" y="-29.5" font-family="Helvetica,sans-Serif" font-size="10.00">src.db_tools.db_class</text>
<text text-anchor="start" x="8" y="-18.5" font-family="Helvetica,sans-Serif" font-size="10.00">_defs.ThreadedDBBase.enqueue</text>
<text text-anchor="middle" x="79" y="-7.5" font-family="Helvetica,sans-Serif" font-size="10.00">_add_row</text>
</a>
</g>
</g>
<!-- Node1&#45;&gt;Node2 -->
<g id="edge1" class="edge">
<title>Node1&#45;&gt;Node2</title>
<path fill="none" stroke="midnightblue" d="M183.83,-21C175.23,-21 166.54,-21 158.05,-21"/>
<polygon fill="midnightblue" stroke="midnightblue" points="183.86,-24.5 193.86,-21 183.86,-17.5 183.86,-24.5"/>
</g>
</g>
</svg>
