<?xml version="1.0" encoding="UTF-8" standalone="no"?>
<!DOCTYPE svg PUBLIC "-//W3C//DTD SVG 1.1//EN"
 "http://www.w3.org/Graphics/SVG/1.1/DTD/svg11.dtd">
<!-- Generated by graphviz version 2.47.1 (20210417.1919)
 -->
<!-- Title: src.db_tools.db_class_defs.DBBaseException Pages: 1 -->
<!--zoomable 492 -->
<svg id="main" version="1.1" xmlns="http://www.w3.org/2000/svg" xmlns:xlink="http://www.w3.org/1999/xlink" xml:space="preserve" onload="init(evt)">
<style type="text/css"><![CDATA[
.edge:hover path { stroke: red; }
.edge:hover polygon { stroke: red; fill: red; }
]]></style>
<script type="text/javascript"><![CDATA[
var edges = document.getElementsByTagName('g');
if (edges && edges.length) {
  for (var i=0;i<edges.length;i++) {
    if (edges[i].id.substr(0,4)=='edge') {
      edges[i].setAttribute('class','edge');
    }
  }
}
]]></script>
        <defs>
                <circle id="rim" cx="0" cy="0" r="7"/>
                <circle id="rim2" cx="0" cy="0" r="3.5"/>
                <g id="zoomPlus">
                        <use xlink:href="#rim" fill="#404040">
                                <set attributeName="fill" to="#808080" begin="zoomplus.mouseover" end="zoomplus.mouseout"/>
                        </use>
                        <path d="M-4,0h8M0,-4v8" fill="none" stroke="white" stroke-width="1.5" pointer-events="none"/>
                </g>
                <g id="zoomMin">
                        <use xlink:href="#rim" fill="#404040">
                                <set attributeName="fill" to="#808080" begin="zoomminus.mouseover" end="zoomminus.mouseout"/>
                        </use>
                        <path d="M-4,0h8" fill="none" stroke="white" stroke-width="1.5" pointer-events="none"/>
                </g>
                <g id="dirArrow">
                        <path fill="none" stroke="white" stroke-width="1.5" d="M0,-3.0v7 M-2.5,-0.5L0,-3.0L2.5,-0.5"/>
                </g>
               <g id="resetDef">
                       <use xlink:href="#rim2" fill="#404040">
                               <set attributeName="fill" to="#808080" begin="reset.mouseover" end="reset.mouseout"/>
                       </use>
               </g>
        </defs>

<script type="text/javascript">
var viewWidth = 432;
var viewHeight = 492;
var sectionId = 'dynsection-0';
</script>
<script xlink:href="svgpan.js"/>
<svg id="graph" class="graph">
<g id="viewport">
<title>src.db_tools.db_class_defs.DBBaseException</title>
<polygon fill="white" stroke="transparent" points="-4,4 -4,-488 428,-488 428,4 -4,4"/>
<!-- Node1 -->
<g id="node1" class="node">
<title>Node1</title>
<g id="a_node1"><a xlink:title="The custom database exception base class.">
<polygon fill="#bfbfbf" stroke="black" points="96,-232.5 96,-262.5 218,-262.5 218,-232.5 96,-232.5"/>
<text text-anchor="start" x="104" y="-250.5" font-family="Helvetica,sans-Serif" font-size="10.00">src.db_tools.db_class</text>
<text text-anchor="middle" x="157" y="-239.5" font-family="Helvetica,sans-Serif" font-size="10.00">_defs.DBBaseException</text>
</a>
</g>
</g>
<!-- Node3 -->
<g id="node3" class="node">
<title>Node3</title>
<g id="a_node3"><a xlink:href="classsrc_1_1body__extraction_1_1cache__class__defs_1_1_msg_body_d_b_exception.html" target="_top" xlink:title=" ">
<polygon fill="white" stroke="black" points="254,-453.5 254,-483.5 424,-483.5 424,-453.5 254,-453.5"/>
<text text-anchor="start" x="262" y="-471.5" font-family="Helvetica,sans-Serif" font-size="10.00">src.body_extraction.cache</text>
<text text-anchor="middle" x="339" y="-460.5" font-family="Helvetica,sans-Serif" font-size="10.00">_class_defs.MsgBodyDBException</text>
</a>
</g>
</g>
<!-- Node1&#45;&gt;Node3 -->
<g id="edge2" class="edge">
<title>Node1&#45;&gt;Node3</title>
<path fill="none" stroke="midnightblue" d="M163.25,-272.62C173.33,-314.56 199.43,-398.73 254,-444.5 258.07,-447.91 262.59,-450.84 267.38,-453.35"/>
<polygon fill="midnightblue" stroke="midnightblue" points="166.62,-271.65 160.97,-262.68 159.79,-273.21 166.62,-271.65"/>
</g>
<!-- Node4 -->
<g id="node4" class="node">
<title>Node4</title>
<g id="a_node4"><a xlink:href="classsrc_1_1db__tools_1_1db__class__defs_1_1_attach_failed_exception.html" target="_top" xlink:title="A custom exception class that we raise should something fishy occur while attaching a secondary DB to...">
<polygon fill="white" stroke="black" points="268.5,-404.5 268.5,-434.5 409.5,-434.5 409.5,-404.5 268.5,-404.5"/>
<text text-anchor="start" x="276.5" y="-422.5" font-family="Helvetica,sans-Serif" font-size="10.00">src.db_tools.db_class</text>
<text text-anchor="middle" x="339" y="-411.5" font-family="Helvetica,sans-Serif" font-size="10.00">_defs.AttachFailedException</text>
</a>
</g>
</g>
<!-- Node1&#45;&gt;Node4 -->
<g id="edge3" class="edge">
<title>Node1&#45;&gt;Node4</title>
<path fill="none" stroke="midnightblue" d="M167.4,-272.03C181.3,-305.04 210.49,-363.32 254,-395.5 258.63,-398.93 263.74,-401.87 269.08,-404.39"/>
<polygon fill="midnightblue" stroke="midnightblue" points="170.59,-270.59 163.58,-262.66 164.11,-273.24 170.59,-270.59"/>
</g>
<!-- Node5 -->
<g id="node5" class="node">
<title>Node5</title>
<g id="a_node5"><a xlink:href="classsrc_1_1db__tools_1_1db__class__defs_1_1_d_b_consolidation_exception.html" target="_top" xlink:title="A custom exception class that we raise should something fishy occur during the creation of a consolid...">
<polygon fill="white" stroke="black" points="260,-355.5 260,-385.5 418,-385.5 418,-355.5 260,-355.5"/>
<text text-anchor="start" x="268" y="-373.5" font-family="Helvetica,sans-Serif" font-size="10.00">src.db_tools.db_class</text>
<text text-anchor="middle" x="339" y="-362.5" font-family="Helvetica,sans-Serif" font-size="10.00">_defs.DBConsolidationException</text>
</a>
</g>
</g>
<!-- Node1&#45;&gt;Node5 -->
<g id="edge4" class="edge">
<title>Node1&#45;&gt;Node5</title>
<path fill="none" stroke="midnightblue" d="M174.64,-270.69C191.99,-293.23 221.22,-326.87 254,-346.5 259.73,-349.93 265.96,-352.89 272.37,-355.44"/>
<polygon fill="midnightblue" stroke="midnightblue" points="177.39,-268.53 168.58,-262.64 171.8,-272.74 177.39,-268.53"/>
</g>
<!-- Node6 -->
<g id="node6" class="node">
<title>Node6</title>
<g id="a_node6"><a xlink:href="classsrc_1_1db__tools_1_1db__class__defs_1_1_d_b_detach_exception.html" target="_top" xlink:title="A custom exception class that we raise if any sqlite3.OperationalError occur while detaching from a s...">
<polygon fill="white" stroke="black" points="273.5,-306.5 273.5,-336.5 404.5,-336.5 404.5,-306.5 273.5,-306.5"/>
<text text-anchor="start" x="281.5" y="-324.5" font-family="Helvetica,sans-Serif" font-size="10.00">src.db_tools.db_class</text>
<text text-anchor="middle" x="339" y="-313.5" font-family="Helvetica,sans-Serif" font-size="10.00">_defs.DBDetachException</text>
</a>
</g>
</g>
<!-- Node1&#45;&gt;Node6 -->
<g id="edge5" class="edge">
<title>Node1&#45;&gt;Node6</title>
<path fill="none" stroke="midnightblue" d="M192.35,-267.55C210.3,-277.47 232.89,-289.09 254,-297.5 262.17,-300.76 270.95,-303.77 279.65,-306.48"/>
<polygon fill="midnightblue" stroke="midnightblue" points="193.84,-264.37 183.41,-262.54 190.42,-270.48 193.84,-264.37"/>
</g>
<!-- Node7 -->
<g id="node7" class="node">
<title>Node7</title>
<g id="a_node7"><a xlink:href="classsrc_1_1db__tools_1_1db__class__defs_1_1_d_b_locked_exception.html" target="_top" xlink:title="A custom exception class that we raise when we detect a locked connection.">
<polygon fill="white" stroke="black" points="273.5,-257.5 273.5,-287.5 404.5,-287.5 404.5,-257.5 273.5,-257.5"/>
<text text-anchor="start" x="281.5" y="-275.5" font-family="Helvetica,sans-Serif" font-size="10.00">src.db_tools.db_class</text>
<text text-anchor="middle" x="339" y="-264.5" font-family="Helvetica,sans-Serif" font-size="10.00">_defs.DBLockedException</text>
</a>
</g>
</g>
<!-- Node1&#45;&gt;Node7 -->
<g id="edge6" class="edge">
<title>Node1&#45;&gt;Node7</title>
<path fill="none" stroke="midnightblue" d="M228.29,-257.26C243.1,-259.32 258.65,-261.48 273.23,-263.5"/>
<polygon fill="midnightblue" stroke="midnightblue" points="228.57,-253.77 218.19,-255.86 227.61,-260.7 228.57,-253.77"/>
</g>
<!-- Node8 -->
<g id="node8" class="node">
<title>Node8</title>
<g id="a_node8"><a xlink:href="classsrc_1_1db__tools_1_1db__class__defs_1_1_exit_exception.html" target="_top" xlink:title="A custom exception class that we raise should something fishy occur while exiting a DBBase context.">
<polygon fill="white" stroke="black" points="283,-208.5 283,-238.5 395,-238.5 395,-208.5 283,-208.5"/>
<text text-anchor="start" x="291" y="-226.5" font-family="Helvetica,sans-Serif" font-size="10.00">src.db_tools.db_class</text>
<text text-anchor="middle" x="339" y="-215.5" font-family="Helvetica,sans-Serif" font-size="10.00">_defs.ExitException</text>
</a>
</g>
</g>
<!-- Node1&#45;&gt;Node8 -->
<g id="edge7" class="edge">
<title>Node1&#45;&gt;Node8</title>
<path fill="none" stroke="midnightblue" d="M228.12,-238.15C246.24,-235.74 265.49,-233.17 282.73,-230.87"/>
<polygon fill="midnightblue" stroke="midnightblue" points="227.64,-234.68 218.19,-239.47 228.56,-241.62 227.64,-234.68"/>
</g>
<!-- Node9 -->
<g id="node9" class="node">
<title>Node9</title>
<g id="a_node9"><a xlink:href="classsrc_1_1db__tools_1_1db__class__defs_1_1_illegal_d_b_access_exception.html" target="_top" xlink:title=" ">
<polygon fill="white" stroke="black" points="260,-159.5 260,-189.5 418,-189.5 418,-159.5 260,-159.5"/>
<text text-anchor="start" x="268" y="-177.5" font-family="Helvetica,sans-Serif" font-size="10.00">src.db_tools.db_class</text>
<text text-anchor="middle" x="339" y="-166.5" font-family="Helvetica,sans-Serif" font-size="10.00">_defs.IllegalDBAccessException</text>
</a>
</g>
</g>
<!-- Node1&#45;&gt;Node9 -->
<g id="edge8" class="edge">
<title>Node1&#45;&gt;Node9</title>
<path fill="none" stroke="midnightblue" d="M193.15,-227.48C211,-217.86 233.24,-206.67 254,-198.5 262.19,-195.28 270.97,-192.28 279.67,-189.58"/>
<polygon fill="midnightblue" stroke="midnightblue" points="191.35,-224.48 184.26,-232.35 194.71,-230.62 191.35,-224.48"/>
</g>
<!-- Node10 -->
<g id="node10" class="node">
<title>Node10</title>
<g id="a_node10"><a xlink:href="classsrc_1_1db__tools_1_1db__class__defs_1_1_uninitialized_connection_exception.html" target="_top" xlink:title="A custom exception class that we raise should we create a new DBBase context before initializing the ...">
<polygon fill="white" stroke="black" points="267,-99 267,-140 411,-140 411,-99 267,-99"/>
<text text-anchor="start" x="275" y="-128" font-family="Helvetica,sans-Serif" font-size="10.00">src.db_tools.db_class</text>
<text text-anchor="start" x="275" y="-117" font-family="Helvetica,sans-Serif" font-size="10.00">_defs.UninitializedConnection</text>
<text text-anchor="middle" x="339" y="-106" font-family="Helvetica,sans-Serif" font-size="10.00">Exception</text>
</a>
</g>
</g>
<!-- Node1&#45;&gt;Node10 -->
<g id="edge9" class="edge">
<title>Node1&#45;&gt;Node10</title>
<path fill="none" stroke="midnightblue" d="M175.49,-224.34C193.16,-202.37 222.3,-169.79 254,-149.5 259.35,-146.08 265.14,-142.98 271.09,-140.2"/>
<polygon fill="midnightblue" stroke="midnightblue" points="172.52,-222.45 169.09,-232.47 178.02,-226.78 172.52,-222.45"/>
</g>
<!-- Node11 -->
<g id="node11" class="node">
<title>Node11</title>
<g id="a_node11"><a xlink:href="classsrc_1_1email__caching_1_1cache__class__defs_1_1_email_d_b_exception.html" target="_top" xlink:title=" ">
<polygon fill="white" stroke="black" points="262.5,-49.5 262.5,-79.5 415.5,-79.5 415.5,-49.5 262.5,-49.5"/>
<text text-anchor="start" x="270.5" y="-67.5" font-family="Helvetica,sans-Serif" font-size="10.00">src.email_caching.cache</text>
<text text-anchor="middle" x="339" y="-56.5" font-family="Helvetica,sans-Serif" font-size="10.00">_class_defs.EmailDBException</text>
</a>
</g>
</g>
<!-- Node1&#45;&gt;Node11 -->
<g id="edge10" class="edge">
<title>Node1&#45;&gt;Node11</title>
<path fill="none" stroke="midnightblue" d="M166.42,-222.92C179.6,-188.07 208.43,-124.65 254,-89.5 259.06,-85.6 264.72,-82.3 270.65,-79.52"/>
<polygon fill="midnightblue" stroke="midnightblue" points="163.12,-221.75 162.97,-232.35 169.69,-224.16 163.12,-221.75"/>
</g>
<!-- Node12 -->
<g id="node12" class="node">
<title>Node12</title>
<g id="a_node12"><a xlink:href="classsrc_1_1lemma__extraction_1_1cache__class__defs_1_1_lemma_d_b_exception.html" target="_top" xlink:title=" ">
<polygon fill="white" stroke="black" points="258.5,-0.5 258.5,-30.5 419.5,-30.5 419.5,-0.5 258.5,-0.5"/>
<text text-anchor="start" x="266.5" y="-18.5" font-family="Helvetica,sans-Serif" font-size="10.00">src.lemma_extraction.cache</text>
<text text-anchor="middle" x="339" y="-7.5" font-family="Helvetica,sans-Serif" font-size="10.00">_class_defs.LemmaDBException</text>
</a>
</g>
</g>
<!-- Node1&#45;&gt;Node12 -->
<g id="edge11" class="edge">
<title>Node1&#45;&gt;Node12</title>
<path fill="none" stroke="midnightblue" d="M162.5,-222.53C171.69,-178.84 196.8,-88.5 254,-39.5 258.03,-36.05 262.53,-33.09 267.29,-30.56"/>
<polygon fill="midnightblue" stroke="midnightblue" points="159.07,-221.85 160.54,-232.34 165.93,-223.22 159.07,-221.85"/>
</g>
<!-- Node2 -->
<g id="node2" class="node">
<title>Node2</title>
<g id="a_node2"><a xlink:title=" ">
<polygon fill="white" stroke="#bfbfbf" points="0,-238 0,-257 60,-257 60,-238 0,-238"/>
<text text-anchor="middle" x="30" y="-245" font-family="Helvetica,sans-Serif" font-size="10.00">Exception</text>
</a>
</g>
</g>
<!-- Node2&#45;&gt;Node1 -->
<g id="edge1" class="edge">
<title>Node2&#45;&gt;Node1</title>
<path fill="none" stroke="midnightblue" d="M70.52,-247.5C78.59,-247.5 87.26,-247.5 95.87,-247.5"/>
<polygon fill="midnightblue" stroke="midnightblue" points="70.31,-244 60.31,-247.5 70.31,-251 70.31,-244"/>
</g>
</g>
</svg>
        <g id="navigator" transform="translate(0 0)" fill="#404254">
                <rect fill="#f2f5e9" fill-opacity="0.5" stroke="#606060" stroke-width=".5" x="0" y="0" width="60" height="60"/>
                <use id="zoomplus" xlink:href="#zoomPlus" x="17" y="9" onmousedown="handleZoom(evt,'in')"/>
                <use id="zoomminus" xlink:href="#zoomMin" x="42" y="9" onmousedown="handleZoom(evt,'out')"/>
                <use id="reset" xlink:href="#resetDef" x="30" y="36" onmousedown="handleReset()"/>
                <g id="arrowUp" xlink:href="#dirArrow" transform="translate(30 24)" onmousedown="handlePan(0,-1)">
                  <use xlink:href="#rim" fill="#404040">
                        <set attributeName="fill" to="#808080" begin="arrowUp.mouseover" end="arrowUp.mouseout"/>
                  </use>
                  <path fill="none" stroke="white" stroke-width="1.5" d="M0,-3.0v7 M-2.5,-0.5L0,-3.0L2.5,-0.5"/>
                </g>
                <g id="arrowRight" xlink:href="#dirArrow" transform="rotate(90) translate(36 -43)" onmousedown="handlePan(1,0)">
                  <use xlink:href="#rim" fill="#404040">
                        <set attributeName="fill" to="#808080" begin="arrowRight.mouseover" end="arrowRight.mouseout"/>
                  </use>
                  <path fill="none" stroke="white" stroke-width="1.5" d="M0,-3.0v7 M-2.5,-0.5L0,-3.0L2.5,-0.5"/>
                </g>
                <g id="arrowDown" xlink:href="#dirArrow" transform="rotate(180) translate(-30 -48)" onmousedown="handlePan(0,1)">
                  <use xlink:href="#rim" fill="#404040">
                        <set attributeName="fill" to="#808080" begin="arrowDown.mouseover" end="arrowDown.mouseout"/>
                  </use>
                  <path fill="none" stroke="white" stroke-width="1.5" d="M0,-3.0v7 M-2.5,-0.5L0,-3.0L2.5,-0.5"/>
                </g>
                <g id="arrowLeft" xlink:href="#dirArrow" transform="rotate(270) translate(-36 17)" onmousedown="handlePan(-1,0)">
                  <use xlink:href="#rim" fill="#404040">
                        <set attributeName="fill" to="#808080" begin="arrowLeft.mouseover" end="arrowLeft.mouseout"/>
                  </use>
                  <path fill="none" stroke="white" stroke-width="1.5" d="M0,-3.0v7 M-2.5,-0.5L0,-3.0L2.5,-0.5"/>
                </g>
        </g>
        <svg viewBox="0 0 15 15" width="100%" height="30px" preserveAspectRatio="xMaxYMin meet">
         <g id="arrow_out" transform="scale(0.3 0.3)">
          <a xlink:href="classsrc_1_1db__tools_1_1db__class__defs_1_1_d_b_base_exception__inherit__graph_org.svg" target="_base">
           <rect id="button" ry="5" rx="5" y="6" x="6" height="38" width="38"
                fill="#f2f5e9" fill-opacity="0.5" stroke="#606060" stroke-width="1.0"/>
           <path id="arrow"
             d="M 11.500037,31.436501 C 11.940474,20.09759 22.043105,11.32322 32.158766,21.979434 L 37.068811,17.246167 C 37.068811,17.246167 37.088388,32 37.088388,32 L 22.160133,31.978069 C 22.160133,31.978069 26.997745,27.140456 26.997745,27.140456 C 18.528582,18.264221 13.291696,25.230495 11.500037,31.436501 z"
             style="fill:#404040;"/>
          </a>
         </g>
        </svg>
</svg>
