<?xml version="1.0" encoding="UTF-8" standalone="no"?>
<!DOCTYPE svg PUBLIC "-//W3C//DTD SVG 1.1//EN"
 "http://www.w3.org/Graphics/SVG/1.1/DTD/svg11.dtd">
<!-- Generated by graphviz version 2.47.1 (20210417.1919)
 -->
<!-- Title: src.db_tools.db_class_defs.DBBase.commit Pages: 1 -->
<svg width="289pt" height="100pt"
 viewBox="0.00 0.00 289.00 99.50" xmlns="http://www.w3.org/2000/svg" xmlns:xlink="http://www.w3.org/1999/xlink">
<g id="graph0" class="graph" transform="scale(1 1) rotate(0) translate(4 95.5)">
<title>src.db_tools.db_class_defs.DBBase.commit</title>
<polygon fill="white" stroke="transparent" points="-4,4 -4,-95.5 285,-95.5 285,4 -4,4"/>
<!-- Node1 -->
<g id="node1" class="node">
<title>Node1</title>
<g id="a_node1"><a xlink:title=" ">
<polygon fill="#bfbfbf" stroke="black" points="167,-33 167,-63 281,-63 281,-33 167,-33"/>
<text text-anchor="start" x="175" y="-51" font-family="Helvetica,sans-Serif" font-size="10.00">src.db_tools.db_class</text>
<text text-anchor="middle" x="224" y="-40" font-family="Helvetica,sans-Serif" font-size="10.00">_defs.DBBase.commit</text>
</a>
</g>
</g>
<!-- Node2 -->
<g id="node2" class="node">
<title>Node2</title>
<g id="a_node2"><a xlink:href="classsrc_1_1db__tools_1_1db__class__defs_1_1_d_b_base.html#a970d3d8297eb67288f50f6e28e1883fa" target="_top" xlink:title=" ">
<polygon fill="white" stroke="black" points="6.5,-61 6.5,-91 124.5,-91 124.5,-61 6.5,-61"/>
<text text-anchor="start" x="14.5" y="-79" font-family="Helvetica,sans-Serif" font-size="10.00">src.db_tools.db_class</text>
<text text-anchor="middle" x="65.5" y="-68" font-family="Helvetica,sans-Serif" font-size="10.00">_defs.DBBase.__call__</text>
</a>
</g>
</g>
<!-- Node1&#45;&gt;Node2 -->
<g id="edge1" class="edge">
<title>Node1&#45;&gt;Node2</title>
<path fill="none" stroke="midnightblue" d="M156.79,-59.85C146.07,-61.76 135.05,-63.74 124.54,-65.62"/>
<polygon fill="midnightblue" stroke="midnightblue" points="157.71,-63.24 166.94,-58.03 156.48,-56.35 157.71,-63.24"/>
</g>
<!-- Node3 -->
<g id="node3" class="node">
<title>Node3</title>
<g id="a_node3"><a xlink:href="classsrc_1_1db__tools_1_1db__class__defs_1_1_d_b_base.html#a08376f1c7b197c5175b44e452116ae65" target="_top" xlink:title="This function allows for multiple nested context blocks that can inspect existing contents of primary...">
<polygon fill="white" stroke="black" points="0,-0.5 0,-41.5 131,-41.5 131,-0.5 0,-0.5"/>
<text text-anchor="start" x="8" y="-29.5" font-family="Helvetica,sans-Serif" font-size="10.00">src.db_tools.db_class</text>
<text text-anchor="start" x="8" y="-18.5" font-family="Helvetica,sans-Serif" font-size="10.00">_defs.DBBase.consolidate</text>
<text text-anchor="middle" x="65.5" y="-7.5" font-family="Helvetica,sans-Serif" font-size="10.00">_mem_to_disk</text>
</a>
</g>
</g>
<!-- Node1&#45;&gt;Node3 -->
<g id="edge2" class="edge">
<title>Node1&#45;&gt;Node3</title>
<path fill="none" stroke="midnightblue" d="M157.03,-36.62C148.49,-35.15 139.75,-33.64 131.22,-32.17"/>
<polygon fill="midnightblue" stroke="midnightblue" points="156.49,-40.08 166.94,-38.33 157.68,-33.18 156.49,-40.08"/>
</g>
</g>
</svg>
