<?xml version="1.0" encoding="UTF-8" standalone="no"?>
<!DOCTYPE svg PUBLIC "-//W3C//DTD SVG 1.1//EN"
 "http://www.w3.org/Graphics/SVG/1.1/DTD/svg11.dtd">
<!-- Generated by graphviz version 2.47.1 (20210417.1919)
 -->
<!-- Title: src.db_tools.db_class_defs.DBBase.table_names Pages: 1 -->
<svg width="511pt" height="198pt"
 viewBox="0.00 0.00 511.00 197.50" xmlns="http://www.w3.org/2000/svg" xmlns:xlink="http://www.w3.org/1999/xlink">
<g id="graph0" class="graph" transform="scale(1 1) rotate(0) translate(4 193.5)">
<title>src.db_tools.db_class_defs.DBBase.table_names</title>
<polygon fill="white" stroke="transparent" points="-4,4 -4,-193.5 507,-193.5 507,4 -4,4"/>
<!-- Node1 -->
<g id="node1" class="node">
<title>Node1</title>
<g id="a_node1"><a xlink:title="A list of strings, where each element in the list is the name of a table in the main DB.">
<polygon fill="#bfbfbf" stroke="black" points="366,-73.5 366,-103.5 503,-103.5 503,-73.5 366,-73.5"/>
<text text-anchor="start" x="374" y="-91.5" font-family="Helvetica,sans-Serif" font-size="10.00">src.db_tools.db_class</text>
<text text-anchor="middle" x="434.5" y="-80.5" font-family="Helvetica,sans-Serif" font-size="10.00">_defs.DBBase.table_names</text>
</a>
</g>
</g>
<!-- Node2 -->
<g id="node2" class="node">
<title>Node2</title>
<g id="a_node2"><a xlink:href="classsrc_1_1db__tools_1_1db__class__defs_1_1_d_b_base.html#a7d81ecdc59e01a8449b98a2050672b24" target="_top" xlink:title=" ">
<polygon fill="white" stroke="black" points="179,-148 179,-189 305,-189 305,-148 179,-148"/>
<text text-anchor="start" x="187" y="-177" font-family="Helvetica,sans-Serif" font-size="10.00">src.db_tools.db_class</text>
<text text-anchor="start" x="187" y="-166" font-family="Helvetica,sans-Serif" font-size="10.00">_defs.DBBase._establish</text>
<text text-anchor="middle" x="242" y="-155" font-family="Helvetica,sans-Serif" font-size="10.00">_new_connection</text>
</a>
</g>
</g>
<!-- Node1&#45;&gt;Node2 -->
<g id="edge1" class="edge">
<title>Node1&#45;&gt;Node2</title>
<path fill="none" stroke="midnightblue" d="M395.38,-108.25C376.04,-117.92 352.04,-129.41 330,-138.5 322.02,-141.79 313.54,-145.02 305.12,-148.08"/>
<polygon fill="midnightblue" stroke="midnightblue" points="397.12,-111.29 404.47,-103.66 393.97,-105.04 397.12,-111.29"/>
</g>
<!-- Node4 -->
<g id="node4" class="node">
<title>Node4</title>
<g id="a_node4"><a xlink:href="classsrc_1_1body__extraction_1_1cache__class__defs_1_1_message_body_d_b.html#aaef439b6cdcbd1685f6d90b2aaf3f8c2" target="_top" xlink:title=" ">
<polygon fill="white" stroke="black" points="154,-98.5 154,-128.5 330,-128.5 330,-98.5 154,-98.5"/>
<text text-anchor="start" x="162" y="-116.5" font-family="Helvetica,sans-Serif" font-size="10.00">src.body_extraction.cache</text>
<text text-anchor="middle" x="242" y="-105.5" font-family="Helvetica,sans-Serif" font-size="10.00">_class_defs.MessageBodyDB.select</text>
</a>
</g>
</g>
<!-- Node1&#45;&gt;Node4 -->
<g id="edge3" class="edge">
<title>Node1&#45;&gt;Node4</title>
<path fill="none" stroke="midnightblue" d="M355.65,-98.72C347.25,-99.82 338.65,-100.95 330.14,-102.06"/>
<polygon fill="midnightblue" stroke="midnightblue" points="356.34,-102.16 365.8,-97.38 355.43,-95.22 356.34,-102.16"/>
</g>
<!-- Node5 -->
<g id="node5" class="node">
<title>Node5</title>
<g id="a_node5"><a xlink:href="classsrc_1_1email__caching_1_1cache__class__defs_1_1_email_d_b.html#af124178446e4474011f762557af2e422" target="_top" xlink:title=" ">
<polygon fill="white" stroke="black" points="172.5,-49.5 172.5,-79.5 311.5,-79.5 311.5,-49.5 172.5,-49.5"/>
<text text-anchor="start" x="180.5" y="-67.5" font-family="Helvetica,sans-Serif" font-size="10.00">src.email_caching.cache</text>
<text text-anchor="middle" x="242" y="-56.5" font-family="Helvetica,sans-Serif" font-size="10.00">_class_defs.EmailDB.select</text>
</a>
</g>
</g>
<!-- Node1&#45;&gt;Node5 -->
<g id="edge4" class="edge">
<title>Node1&#45;&gt;Node5</title>
<path fill="none" stroke="midnightblue" d="M355.81,-78.71C341.22,-76.87 326.06,-74.96 311.77,-73.16"/>
<polygon fill="midnightblue" stroke="midnightblue" points="355.44,-82.19 365.8,-79.97 356.32,-75.25 355.44,-82.19"/>
</g>
<!-- Node6 -->
<g id="node6" class="node">
<title>Node6</title>
<g id="a_node6"><a xlink:href="classsrc_1_1lemma__extraction_1_1cache__class__defs_1_1_lemma_d_b.html#aca6da04d3a7e3bc28890f056fe442096" target="_top" xlink:title=" ">
<polygon fill="white" stroke="black" points="169,-0.5 169,-30.5 315,-30.5 315,-0.5 169,-0.5"/>
<text text-anchor="start" x="177" y="-18.5" font-family="Helvetica,sans-Serif" font-size="10.00">src.lemma_extraction.cache</text>
<text text-anchor="middle" x="242" y="-7.5" font-family="Helvetica,sans-Serif" font-size="10.00">_class_defs.LemmaDB.select</text>
</a>
</g>
</g>
<!-- Node1&#45;&gt;Node6 -->
<g id="edge5" class="edge">
<title>Node1&#45;&gt;Node6</title>
<path fill="none" stroke="midnightblue" d="M395.08,-68.95C375.84,-59.61 352.01,-48.71 330,-40.5 320.43,-36.93 310.11,-33.56 300.04,-30.52"/>
<polygon fill="midnightblue" stroke="midnightblue" points="393.61,-72.13 404.13,-73.4 396.69,-65.85 393.61,-72.13"/>
</g>
<!-- Node3 -->
<g id="node3" class="node">
<title>Node3</title>
<g id="a_node3"><a xlink:href="classsrc_1_1db__tools_1_1db__class__defs_1_1_d_b_base.html#a970d3d8297eb67288f50f6e28e1883fa" target="_top" xlink:title=" ">
<polygon fill="white" stroke="black" points="0,-153.5 0,-183.5 118,-183.5 118,-153.5 0,-153.5"/>
<text text-anchor="start" x="8" y="-171.5" font-family="Helvetica,sans-Serif" font-size="10.00">src.db_tools.db_class</text>
<text text-anchor="middle" x="59" y="-160.5" font-family="Helvetica,sans-Serif" font-size="10.00">_defs.DBBase.__call__</text>
</a>
</g>
</g>
<!-- Node2&#45;&gt;Node3 -->
<g id="edge2" class="edge">
<title>Node2&#45;&gt;Node3</title>
<path fill="none" stroke="midnightblue" d="M168.68,-168.5C151.94,-168.5 134.34,-168.5 118.3,-168.5"/>
<polygon fill="midnightblue" stroke="midnightblue" points="168.96,-172 178.96,-168.5 168.96,-165 168.96,-172"/>
</g>
</g>
</svg>
