<?xml version="1.0" encoding="UTF-8" standalone="no"?>
<!DOCTYPE svg PUBLIC "-//W3C//DTD SVG 1.1//EN"
 "http://www.w3.org/Graphics/SVG/1.1/DTD/svg11.dtd">
<!-- Generated by graphviz version 2.47.1 (20210417.1919)
 -->
<!-- Title: Graphical Class Hierarchy Pages: 1 -->
<svg width="303pt" height="186pt"
 viewBox="0.00 0.00 303.00 186.00" xmlns="http://www.w3.org/2000/svg" xmlns:xlink="http://www.w3.org/1999/xlink">
<g id="graph0" class="graph" transform="scale(1 1) rotate(0) translate(4 182)">
<title>Graphical Class Hierarchy</title>
<polygon fill="white" stroke="transparent" points="-4,4 -4,-182 299,-182 299,4 -4,4"/>
<!-- Node0 -->
<g id="node1" class="node">
<title>Node0</title>
<g id="a_node1"><a xlink:href="classsrc_1_1db__tools_1_1db__class__defs_1_1_d_b_base.html" target="_top" xlink:title="The base class for our various custom database management classes.">
<polygon fill="white" stroke="black" points="0,-73.5 0,-103.5 112,-103.5 112,-73.5 0,-73.5"/>
<text text-anchor="start" x="8" y="-91.5" font-family="Helvetica,sans-Serif" font-size="10.00">src.db_tools.db_class</text>
<text text-anchor="middle" x="56" y="-80.5" font-family="Helvetica,sans-Serif" font-size="10.00">_defs.DBBase</text>
</a>
</g>
</g>
<!-- Node1 -->
<g id="node2" class="node">
<title>Node1</title>
<g id="a_node2"><a xlink:href="classsrc_1_1body__extraction_1_1cache__class__defs_1_1_message_body_d_b.html" target="_top" xlink:title=" ">
<polygon fill="white" stroke="black" points="148,-147.5 148,-177.5 295,-177.5 295,-147.5 148,-147.5"/>
<text text-anchor="start" x="156" y="-165.5" font-family="Helvetica,sans-Serif" font-size="10.00">src.body_extraction.cache</text>
<text text-anchor="middle" x="221.5" y="-154.5" font-family="Helvetica,sans-Serif" font-size="10.00">_class_defs.MessageBodyDB</text>
</a>
</g>
</g>
<!-- Node0&#45;&gt;Node1 -->
<g id="edge1" class="edge">
<title>Node0&#45;&gt;Node1</title>
<path fill="none" stroke="midnightblue" d="M90.41,-108.78C107.3,-118.53 128.34,-129.93 148,-138.5 155.29,-141.68 163.15,-144.69 170.9,-147.43"/>
<polygon fill="midnightblue" stroke="midnightblue" points="91.89,-105.58 81.49,-103.56 88.35,-111.63 91.89,-105.58"/>
</g>
<!-- Node2 -->
<g id="node3" class="node">
<title>Node2</title>
<g id="a_node3"><a xlink:href="classsrc_1_1db__tools_1_1db__class__defs_1_1_threaded_d_b_base.html" target="_top" xlink:title="This is an experimental class that is not yet finished!! An experimental subclass of DBBase attemptin...">
<polygon fill="white" stroke="black" points="162,-98.5 162,-128.5 281,-128.5 281,-98.5 162,-98.5"/>
<text text-anchor="start" x="170" y="-116.5" font-family="Helvetica,sans-Serif" font-size="10.00">src.db_tools.db_class</text>
<text text-anchor="middle" x="221.5" y="-105.5" font-family="Helvetica,sans-Serif" font-size="10.00">_defs.ThreadedDBBase</text>
</a>
</g>
</g>
<!-- Node0&#45;&gt;Node2 -->
<g id="edge2" class="edge">
<title>Node0&#45;&gt;Node2</title>
<path fill="none" stroke="midnightblue" d="M122.61,-98.53C135.58,-100.52 149.12,-102.59 161.85,-104.53"/>
<polygon fill="midnightblue" stroke="midnightblue" points="122.77,-95.02 112.35,-96.96 121.71,-101.94 122.77,-95.02"/>
</g>
<!-- Node3 -->
<g id="node4" class="node">
<title>Node3</title>
<g id="a_node4"><a xlink:href="classsrc_1_1email__caching_1_1cache__class__defs_1_1_email_d_b.html" target="_top" xlink:title=" ">
<polygon fill="white" stroke="black" points="159,-49.5 159,-79.5 284,-79.5 284,-49.5 159,-49.5"/>
<text text-anchor="start" x="167" y="-67.5" font-family="Helvetica,sans-Serif" font-size="10.00">src.email_caching.cache</text>
<text text-anchor="middle" x="221.5" y="-56.5" font-family="Helvetica,sans-Serif" font-size="10.00">_class_defs.EmailDB</text>
</a>
</g>
</g>
<!-- Node0&#45;&gt;Node3 -->
<g id="edge3" class="edge">
<title>Node0&#45;&gt;Node3</title>
<path fill="none" stroke="midnightblue" d="M122.31,-78.91C134.32,-77.15 146.83,-75.31 158.74,-73.57"/>
<polygon fill="midnightblue" stroke="midnightblue" points="121.74,-75.46 112.35,-80.37 122.76,-82.39 121.74,-75.46"/>
</g>
<!-- Node4 -->
<g id="node5" class="node">
<title>Node4</title>
<g id="a_node5"><a xlink:href="classsrc_1_1lemma__extraction_1_1cache__class__defs_1_1_lemma_d_b.html" target="_top" xlink:title=" ">
<polygon fill="white" stroke="black" points="151.5,-0.5 151.5,-30.5 291.5,-30.5 291.5,-0.5 151.5,-0.5"/>
<text text-anchor="start" x="159.5" y="-18.5" font-family="Helvetica,sans-Serif" font-size="10.00">src.lemma_extraction.cache</text>
<text text-anchor="middle" x="221.5" y="-7.5" font-family="Helvetica,sans-Serif" font-size="10.00">_class_defs.LemmaDB</text>
</a>
</g>
</g>
<!-- Node0&#45;&gt;Node4 -->
<g id="edge4" class="edge">
<title>Node0&#45;&gt;Node4</title>
<path fill="none" stroke="midnightblue" d="M92,-68.43C108.66,-59.29 129.05,-48.71 148,-40.5 156.06,-37.01 164.79,-33.65 173.3,-30.6"/>
<polygon fill="midnightblue" stroke="midnightblue" points="90.2,-65.42 83.15,-73.33 93.6,-71.54 90.2,-65.42"/>
</g>
</g>
</svg>
