<?xml version="1.0" encoding="UTF-8" standalone="no"?>
<!DOCTYPE svg PUBLIC "-//W3C//DTD SVG 1.1//EN"
 "http://www.w3.org/Graphics/SVG/1.1/DTD/svg11.dtd">
<!-- Generated by graphviz version 2.47.1 (20210417.1919)
 -->
<!-- Title: Graphical Class Hierarchy Pages: 1 -->
<svg width="454pt" height="737pt"
 viewBox="0.00 0.00 454.00 737.00" xmlns="http://www.w3.org/2000/svg" xmlns:xlink="http://www.w3.org/1999/xlink">
<g id="graph0" class="graph" transform="scale(1 1) rotate(0) translate(4 733)">
<title>Graphical Class Hierarchy</title>
<polygon fill="white" stroke="transparent" points="-4,4 -4,-733 450,-733 450,4 -4,4"/>
<!-- Node14 -->
<g id="node1" class="node">
<title>Node14</title>
<g id="a_node1"><a xlink:title=" ">
<polygon fill="white" stroke="#bfbfbf" points="0,-282 0,-301 60,-301 60,-282 0,-282"/>
<text text-anchor="middle" x="30" y="-289" font-family="Helvetica,sans-Serif" font-size="10.00">Exception</text>
</a>
</g>
</g>
<!-- Node0 -->
<g id="node2" class="node">
<title>Node0</title>
<g id="a_node2"><a xlink:href="classsrc_1_1db__tools_1_1db__class__defs_1_1_d_b_base_exception.html" target="_top" xlink:title="The custom database exception base class.">
<polygon fill="white" stroke="black" points="107,-453.5 107,-483.5 229,-483.5 229,-453.5 107,-453.5"/>
<text text-anchor="start" x="115" y="-471.5" font-family="Helvetica,sans-Serif" font-size="10.00">src.db_tools.db_class</text>
<text text-anchor="middle" x="168" y="-460.5" font-family="Helvetica,sans-Serif" font-size="10.00">_defs.DBBaseException</text>
</a>
</g>
</g>
<!-- Node14&#45;&gt;Node0 -->
<g id="edge1" class="edge">
<title>Node14&#45;&gt;Node0</title>
<path fill="none" stroke="midnightblue" d="M44.68,-309.3C71.46,-344.16 130.41,-420.88 155.42,-453.42"/>
<polygon fill="midnightblue" stroke="midnightblue" points="47.18,-306.81 38.31,-301.02 41.63,-311.08 47.18,-306.81"/>
</g>
<!-- Node26 -->
<g id="node13" class="node">
<title>Node26</title>
<g id="a_node13"><a xlink:href="classsrc_1_1eralchemy_1_1parser_1_1_parsing_exception.html" target="_top" xlink:title=" ">
<polygon fill="white" stroke="black" points="96,-123.5 96,-153.5 240,-153.5 240,-123.5 96,-123.5"/>
<text text-anchor="start" x="104" y="-141.5" font-family="Helvetica,sans-Serif" font-size="10.00">src.eralchemy.parser.Parsing</text>
<text text-anchor="middle" x="168" y="-130.5" font-family="Helvetica,sans-Serif" font-size="10.00">Exception</text>
</a>
</g>
</g>
<!-- Node14&#45;&gt;Node26 -->
<g id="edge12" class="edge">
<title>Node14&#45;&gt;Node26</title>
<path fill="none" stroke="midnightblue" d="M46.26,-274.33C73.01,-244.24 127.96,-182.42 153.46,-153.74"/>
<polygon fill="midnightblue" stroke="midnightblue" points="43.54,-272.13 39.51,-281.93 48.77,-276.78 43.54,-272.13"/>
</g>
<!-- Node1 -->
<g id="node3" class="node">
<title>Node1</title>
<g id="a_node3"><a xlink:href="classsrc_1_1body__extraction_1_1cache__class__defs_1_1_msg_body_d_b_exception.html" target="_top" xlink:title=" ">
<polygon fill="white" stroke="black" points="276,-698.5 276,-728.5 446,-728.5 446,-698.5 276,-698.5"/>
<text text-anchor="start" x="284" y="-716.5" font-family="Helvetica,sans-Serif" font-size="10.00">src.body_extraction.cache</text>
<text text-anchor="middle" x="361" y="-705.5" font-family="Helvetica,sans-Serif" font-size="10.00">_class_defs.MsgBodyDBException</text>
</a>
</g>
</g>
<!-- Node0&#45;&gt;Node1 -->
<g id="edge2" class="edge">
<title>Node0&#45;&gt;Node1</title>
<path fill="none" stroke="midnightblue" d="M174.11,-493.75C184.74,-539.69 213.62,-637.06 276,-689.5 280.06,-692.92 284.59,-695.85 289.37,-698.36"/>
<polygon fill="midnightblue" stroke="midnightblue" points="177.47,-492.75 171.9,-483.74 170.64,-494.26 177.47,-492.75"/>
</g>
<!-- Node2 -->
<g id="node4" class="node">
<title>Node2</title>
<g id="a_node4"><a xlink:href="classsrc_1_1db__tools_1_1db__class__defs_1_1_attach_failed_exception.html" target="_top" xlink:title="A custom exception class that we raise should something fishy occur while attaching a secondary DB to...">
<polygon fill="white" stroke="black" points="290.5,-649.5 290.5,-679.5 431.5,-679.5 431.5,-649.5 290.5,-649.5"/>
<text text-anchor="start" x="298.5" y="-667.5" font-family="Helvetica,sans-Serif" font-size="10.00">src.db_tools.db_class</text>
<text text-anchor="middle" x="361" y="-656.5" font-family="Helvetica,sans-Serif" font-size="10.00">_defs.AttachFailedException</text>
</a>
</g>
</g>
<!-- Node0&#45;&gt;Node2 -->
<g id="edge3" class="edge">
<title>Node0&#45;&gt;Node2</title>
<path fill="none" stroke="midnightblue" d="M177.65,-493.14C192.09,-530.65 224.68,-601.78 276,-640.5 280.6,-643.97 285.69,-646.94 291.01,-649.48"/>
<polygon fill="midnightblue" stroke="midnightblue" points="180.83,-491.66 174.06,-483.51 174.27,-494.1 180.83,-491.66"/>
</g>
<!-- Node3 -->
<g id="node5" class="node">
<title>Node3</title>
<g id="a_node5"><a xlink:href="classsrc_1_1db__tools_1_1db__class__defs_1_1_d_b_consolidation_exception.html" target="_top" xlink:title="A custom exception class that we raise should something fishy occur during the creation of a consolid...">
<polygon fill="white" stroke="black" points="282,-600.5 282,-630.5 440,-630.5 440,-600.5 282,-600.5"/>
<text text-anchor="start" x="290" y="-618.5" font-family="Helvetica,sans-Serif" font-size="10.00">src.db_tools.db_class</text>
<text text-anchor="middle" x="361" y="-607.5" font-family="Helvetica,sans-Serif" font-size="10.00">_defs.DBConsolidationException</text>
</a>
</g>
</g>
<!-- Node0&#45;&gt;Node3 -->
<g id="edge4" class="edge">
<title>Node0&#45;&gt;Node3</title>
<path fill="none" stroke="midnightblue" d="M183.72,-492.61C201.97,-520.5 235.66,-565.84 276,-591.5 281.37,-594.92 287.25,-597.86 293.31,-600.39"/>
<polygon fill="midnightblue" stroke="midnightblue" points="186.47,-490.42 178.13,-483.88 180.57,-494.19 186.47,-490.42"/>
</g>
<!-- Node4 -->
<g id="node6" class="node">
<title>Node4</title>
<g id="a_node6"><a xlink:href="classsrc_1_1db__tools_1_1db__class__defs_1_1_d_b_detach_exception.html" target="_top" xlink:title="A custom exception class that we raise if any sqlite3.OperationalError occur while detaching from a s...">
<polygon fill="white" stroke="black" points="295.5,-551.5 295.5,-581.5 426.5,-581.5 426.5,-551.5 295.5,-551.5"/>
<text text-anchor="start" x="303.5" y="-569.5" font-family="Helvetica,sans-Serif" font-size="10.00">src.db_tools.db_class</text>
<text text-anchor="middle" x="361" y="-558.5" font-family="Helvetica,sans-Serif" font-size="10.00">_defs.DBDetachException</text>
</a>
</g>
</g>
<!-- Node0&#45;&gt;Node4 -->
<g id="edge5" class="edge">
<title>Node0&#45;&gt;Node4</title>
<path fill="none" stroke="midnightblue" d="M194.82,-489.97C215.62,-506.35 246.21,-528.41 276,-542.5 283.13,-545.87 290.83,-548.86 298.57,-551.49"/>
<polygon fill="midnightblue" stroke="midnightblue" points="196.8,-487.08 186.81,-483.56 192.43,-492.54 196.8,-487.08"/>
</g>
<!-- Node5 -->
<g id="node7" class="node">
<title>Node5</title>
<g id="a_node7"><a xlink:href="classsrc_1_1db__tools_1_1db__class__defs_1_1_d_b_locked_exception.html" target="_top" xlink:title="A custom exception class that we raise when we detect a locked connection.">
<polygon fill="white" stroke="black" points="295.5,-502.5 295.5,-532.5 426.5,-532.5 426.5,-502.5 295.5,-502.5"/>
<text text-anchor="start" x="303.5" y="-520.5" font-family="Helvetica,sans-Serif" font-size="10.00">src.db_tools.db_class</text>
<text text-anchor="middle" x="361" y="-509.5" font-family="Helvetica,sans-Serif" font-size="10.00">_defs.DBLockedException</text>
</a>
</g>
</g>
<!-- Node0&#45;&gt;Node5 -->
<g id="edge6" class="edge">
<title>Node0&#45;&gt;Node5</title>
<path fill="none" stroke="midnightblue" d="M237.41,-486.05C258.38,-491.43 281.26,-497.3 301.51,-502.49"/>
<polygon fill="midnightblue" stroke="midnightblue" points="238.16,-482.63 227.6,-483.53 236.42,-489.41 238.16,-482.63"/>
</g>
<!-- Node6 -->
<g id="node8" class="node">
<title>Node6</title>
<g id="a_node8"><a xlink:href="classsrc_1_1db__tools_1_1db__class__defs_1_1_exit_exception.html" target="_top" xlink:title="A custom exception class that we raise should something fishy occur while exiting a DBBase context.">
<polygon fill="white" stroke="black" points="305,-453.5 305,-483.5 417,-483.5 417,-453.5 305,-453.5"/>
<text text-anchor="start" x="313" y="-471.5" font-family="Helvetica,sans-Serif" font-size="10.00">src.db_tools.db_class</text>
<text text-anchor="middle" x="361" y="-460.5" font-family="Helvetica,sans-Serif" font-size="10.00">_defs.ExitException</text>
</a>
</g>
</g>
<!-- Node0&#45;&gt;Node6 -->
<g id="edge7" class="edge">
<title>Node0&#45;&gt;Node6</title>
<path fill="none" stroke="midnightblue" d="M239.31,-468.5C260.98,-468.5 284.51,-468.5 304.99,-468.5"/>
<polygon fill="midnightblue" stroke="midnightblue" points="239.17,-465 229.17,-468.5 239.17,-472 239.17,-465"/>
</g>
<!-- Node7 -->
<g id="node9" class="node">
<title>Node7</title>
<g id="a_node9"><a xlink:href="classsrc_1_1db__tools_1_1db__class__defs_1_1_illegal_d_b_access_exception.html" target="_top" xlink:title=" ">
<polygon fill="white" stroke="black" points="282,-404.5 282,-434.5 440,-434.5 440,-404.5 282,-404.5"/>
<text text-anchor="start" x="290" y="-422.5" font-family="Helvetica,sans-Serif" font-size="10.00">src.db_tools.db_class</text>
<text text-anchor="middle" x="361" y="-411.5" font-family="Helvetica,sans-Serif" font-size="10.00">_defs.IllegalDBAccessException</text>
</a>
</g>
</g>
<!-- Node0&#45;&gt;Node7 -->
<g id="edge8" class="edge">
<title>Node0&#45;&gt;Node7</title>
<path fill="none" stroke="midnightblue" d="M237.41,-450.95C258.38,-445.57 281.26,-439.7 301.51,-434.51"/>
<polygon fill="midnightblue" stroke="midnightblue" points="236.42,-447.59 227.6,-453.47 238.16,-454.37 236.42,-447.59"/>
</g>
<!-- Node8 -->
<g id="node10" class="node">
<title>Node8</title>
<g id="a_node10"><a xlink:href="classsrc_1_1db__tools_1_1db__class__defs_1_1_uninitialized_connection_exception.html" target="_top" xlink:title="A custom exception class that we raise should we create a new DBBase context before initializing the ...">
<polygon fill="white" stroke="black" points="289,-344 289,-385 433,-385 433,-344 289,-344"/>
<text text-anchor="start" x="297" y="-373" font-family="Helvetica,sans-Serif" font-size="10.00">src.db_tools.db_class</text>
<text text-anchor="start" x="297" y="-362" font-family="Helvetica,sans-Serif" font-size="10.00">_defs.UninitializedConnection</text>
<text text-anchor="middle" x="361" y="-351" font-family="Helvetica,sans-Serif" font-size="10.00">Exception</text>
</a>
</g>
</g>
<!-- Node0&#45;&gt;Node8 -->
<g id="edge9" class="edge">
<title>Node0&#45;&gt;Node8</title>
<path fill="none" stroke="midnightblue" d="M196.32,-447.09C217.27,-431.37 247.37,-410.27 276,-395.5 283.18,-391.8 290.92,-388.32 298.68,-385.12"/>
<polygon fill="midnightblue" stroke="midnightblue" points="194.05,-444.41 188.21,-453.25 198.29,-449.99 194.05,-444.41"/>
</g>
<!-- Node9 -->
<g id="node11" class="node">
<title>Node9</title>
<g id="a_node11"><a xlink:href="classsrc_1_1email__caching_1_1cache__class__defs_1_1_email_d_b_exception.html" target="_top" xlink:title=" ">
<polygon fill="white" stroke="black" points="284.5,-294.5 284.5,-324.5 437.5,-324.5 437.5,-294.5 284.5,-294.5"/>
<text text-anchor="start" x="292.5" y="-312.5" font-family="Helvetica,sans-Serif" font-size="10.00">src.email_caching.cache</text>
<text text-anchor="middle" x="361" y="-301.5" font-family="Helvetica,sans-Serif" font-size="10.00">_class_defs.EmailDBException</text>
</a>
</g>
</g>
<!-- Node0&#45;&gt;Node9 -->
<g id="edge10" class="edge">
<title>Node0&#45;&gt;Node9</title>
<path fill="none" stroke="midnightblue" d="M182.18,-444.11C199.7,-413.98 233.45,-363.18 276,-334.5 281.68,-330.67 287.95,-327.42 294.44,-324.65"/>
<polygon fill="midnightblue" stroke="midnightblue" points="178.96,-442.69 177.07,-453.12 185.05,-446.15 178.96,-442.69"/>
</g>
<!-- Node10 -->
<g id="node12" class="node">
<title>Node10</title>
<g id="a_node12"><a xlink:href="classsrc_1_1lemma__extraction_1_1cache__class__defs_1_1_lemma_d_b_exception.html" target="_top" xlink:title=" ">
<polygon fill="white" stroke="black" points="280.5,-245.5 280.5,-275.5 441.5,-275.5 441.5,-245.5 280.5,-245.5"/>
<text text-anchor="start" x="288.5" y="-263.5" font-family="Helvetica,sans-Serif" font-size="10.00">src.lemma_extraction.cache</text>
<text text-anchor="middle" x="361" y="-252.5" font-family="Helvetica,sans-Serif" font-size="10.00">_class_defs.LemmaDBException</text>
</a>
</g>
</g>
<!-- Node0&#45;&gt;Node10 -->
<g id="edge11" class="edge">
<title>Node0&#45;&gt;Node10</title>
<path fill="none" stroke="midnightblue" d="M176.77,-443.76C190.42,-404.36 222.45,-327.53 276,-285.5 280.91,-281.65 286.4,-278.39 292.16,-275.63"/>
<polygon fill="midnightblue" stroke="midnightblue" points="173.41,-442.78 173.55,-453.38 180.05,-445.01 173.41,-442.78"/>
</g>
<!-- Node27 -->
<g id="node14" class="node">
<title>Node27</title>
<g id="a_node14"><a xlink:href="classsrc_1_1eralchemy_1_1parser_1_1_duplicate_column_exception.html" target="_top" xlink:title=" ">
<polygon fill="white" stroke="black" points="285,-196.5 285,-226.5 437,-226.5 437,-196.5 285,-196.5"/>
<text text-anchor="start" x="293" y="-214.5" font-family="Helvetica,sans-Serif" font-size="10.00">src.eralchemy.parser.Duplicate</text>
<text text-anchor="middle" x="361" y="-203.5" font-family="Helvetica,sans-Serif" font-size="10.00">ColumnException</text>
</a>
</g>
</g>
<!-- Node26&#45;&gt;Node27 -->
<g id="edge13" class="edge">
<title>Node26&#45;&gt;Node27</title>
<path fill="none" stroke="midnightblue" d="M208.04,-158.1C228.05,-167.71 253,-179 276,-187.5 284.54,-190.65 293.69,-193.65 302.69,-196.38"/>
<polygon fill="midnightblue" stroke="midnightblue" points="209.45,-154.9 198.93,-153.68 206.4,-161.2 209.45,-154.9"/>
</g>
<!-- Node28 -->
<g id="node15" class="node">
<title>Node28</title>
<g id="a_node15"><a xlink:href="classsrc_1_1eralchemy_1_1parser_1_1_duplicate_table_exception.html" target="_top" xlink:title=" ">
<polygon fill="white" stroke="black" points="285,-147.5 285,-177.5 437,-177.5 437,-147.5 285,-147.5"/>
<text text-anchor="start" x="293" y="-165.5" font-family="Helvetica,sans-Serif" font-size="10.00">src.eralchemy.parser.Duplicate</text>
<text text-anchor="middle" x="361" y="-154.5" font-family="Helvetica,sans-Serif" font-size="10.00">TableException</text>
</a>
</g>
</g>
<!-- Node26&#45;&gt;Node28 -->
<g id="edge14" class="edge">
<title>Node26&#45;&gt;Node28</title>
<path fill="none" stroke="midnightblue" d="M250.18,-148.7C261.73,-150.15 273.56,-151.64 284.98,-153.07"/>
<polygon fill="midnightblue" stroke="midnightblue" points="250.48,-145.21 240.12,-147.44 249.61,-152.16 250.48,-145.21"/>
</g>
<!-- Node29 -->
<g id="node16" class="node">
<title>Node29</title>
<g id="a_node16"><a xlink:href="classsrc_1_1eralchemy_1_1parser_1_1_e_r_alchemy_line_parse_error.html" target="_top" xlink:title=" ">
<polygon fill="white" stroke="black" points="279.5,-98.5 279.5,-128.5 442.5,-128.5 442.5,-98.5 279.5,-98.5"/>
<text text-anchor="start" x="287.5" y="-116.5" font-family="Helvetica,sans-Serif" font-size="10.00">src.eralchemy.parser.ERAlchemy</text>
<text text-anchor="middle" x="361" y="-105.5" font-family="Helvetica,sans-Serif" font-size="10.00">LineParseError</text>
</a>
</g>
</g>
<!-- Node26&#45;&gt;Node29 -->
<g id="edge15" class="edge">
<title>Node26&#45;&gt;Node29</title>
<path fill="none" stroke="midnightblue" d="M250.16,-127.88C259.87,-126.61 269.79,-125.31 279.5,-124.04"/>
<polygon fill="midnightblue" stroke="midnightblue" points="249.58,-124.42 240.12,-129.19 250.49,-131.36 249.58,-124.42"/>
</g>
<!-- Node30 -->
<g id="node17" class="node">
<title>Node30</title>
<g id="a_node17"><a xlink:href="classsrc_1_1eralchemy_1_1parser_1_1_no_current_table_exception.html" target="_top" xlink:title=" ">
<polygon fill="white" stroke="black" points="283.5,-49.5 283.5,-79.5 438.5,-79.5 438.5,-49.5 283.5,-49.5"/>
<text text-anchor="start" x="291.5" y="-67.5" font-family="Helvetica,sans-Serif" font-size="10.00">src.eralchemy.parser.NoCurrent</text>
<text text-anchor="middle" x="361" y="-56.5" font-family="Helvetica,sans-Serif" font-size="10.00">TableException</text>
</a>
</g>
</g>
<!-- Node26&#45;&gt;Node30 -->
<g id="edge16" class="edge">
<title>Node26&#45;&gt;Node30</title>
<path fill="none" stroke="midnightblue" d="M208.08,-119.01C228.1,-109.43 253.05,-98.12 276,-89.5 285.4,-85.97 295.54,-82.6 305.41,-79.54"/>
<polygon fill="midnightblue" stroke="midnightblue" points="206.44,-115.91 198.96,-123.41 209.49,-122.21 206.44,-115.91"/>
</g>
<!-- Node31 -->
<g id="node18" class="node">
<title>Node31</title>
<g id="a_node18"><a xlink:href="classsrc_1_1eralchemy_1_1parser_1_1_relation_no_col_exception.html" target="_top" xlink:title=" ">
<polygon fill="white" stroke="black" points="288,-0.5 288,-30.5 434,-30.5 434,-0.5 288,-0.5"/>
<text text-anchor="start" x="296" y="-18.5" font-family="Helvetica,sans-Serif" font-size="10.00">src.eralchemy.parser.Relation</text>
<text text-anchor="middle" x="361" y="-7.5" font-family="Helvetica,sans-Serif" font-size="10.00">NoColException</text>
</a>
</g>
</g>
<!-- Node26&#45;&gt;Node31 -->
<g id="edge17" class="edge">
<title>Node26&#45;&gt;Node31</title>
<path fill="none" stroke="midnightblue" d="M187.85,-115.68C207.61,-93.19 240.64,-59.39 276,-39.5 282.08,-36.08 288.69,-33.11 295.44,-30.55"/>
<polygon fill="midnightblue" stroke="midnightblue" points="185.07,-113.55 181.19,-123.41 190.37,-118.12 185.07,-113.55"/>
</g>
</g>
</svg>
