<?xml version="1.0" encoding="UTF-8" standalone="no"?>
<!DOCTYPE svg PUBLIC "-//W3C//DTD SVG 1.1//EN"
 "http://www.w3.org/Graphics/SVG/1.1/DTD/svg11.dtd">
<!-- Generated by graphviz version 2.47.1 (20210417.1919)
 -->
<!-- Title: Graphical Class Hierarchy Pages: 1 -->
<svg width="271pt" height="88pt"
 viewBox="0.00 0.00 271.00 88.00" xmlns="http://www.w3.org/2000/svg" xmlns:xlink="http://www.w3.org/1999/xlink">
<g id="graph0" class="graph" transform="scale(1 1) rotate(0) translate(4 84)">
<title>Graphical Class Hierarchy</title>
<polygon fill="white" stroke="transparent" points="-4,4 -4,-84 267,-84 267,4 -4,4"/>
<!-- Node32 -->
<g id="node1" class="node">
<title>Node32</title>
<g id="a_node1"><a xlink:title=" ">
<polygon fill="white" stroke="#bfbfbf" points="0,-30 0,-49 92,-49 92,-30 0,-30"/>
<text text-anchor="middle" x="46" y="-37" font-family="Helvetica,sans-Serif" font-size="10.00">logging.Formatter</text>
</a>
</g>
</g>
<!-- Node0 -->
<g id="node2" class="node">
<title>Node0</title>
<g id="a_node2"><a xlink:href="classsrc_1_1utils_1_1backup_1_1custom__logger_1_1_call_stack_formatter.html" target="_top" xlink:title=" ">
<polygon fill="white" stroke="black" points="128,-49.5 128,-79.5 263,-79.5 263,-49.5 128,-49.5"/>
<text text-anchor="start" x="136" y="-67.5" font-family="Helvetica,sans-Serif" font-size="10.00">src.utils.backup.custom</text>
<text text-anchor="middle" x="195.5" y="-56.5" font-family="Helvetica,sans-Serif" font-size="10.00">_logger.CallStackFormatter</text>
</a>
</g>
</g>
<!-- Node32&#45;&gt;Node0 -->
<g id="edge1" class="edge">
<title>Node32&#45;&gt;Node0</title>
<path fill="none" stroke="midnightblue" d="M102.14,-48.85C110.57,-50.27 119.35,-51.76 128,-53.23"/>
<polygon fill="midnightblue" stroke="midnightblue" points="102.5,-45.36 92.06,-47.14 101.33,-52.26 102.5,-45.36"/>
</g>
<!-- Node34 -->
<g id="node3" class="node">
<title>Node34</title>
<g id="a_node3"><a xlink:href="classsrc_1_1utils_1_1custom__logger_1_1_call_stack_formatter.html" target="_top" xlink:title=" ">
<polygon fill="white" stroke="black" points="135,-0.5 135,-30.5 256,-30.5 256,-0.5 135,-0.5"/>
<text text-anchor="start" x="143" y="-18.5" font-family="Helvetica,sans-Serif" font-size="10.00">src.utils.custom_logger.</text>
<text text-anchor="middle" x="195.5" y="-7.5" font-family="Helvetica,sans-Serif" font-size="10.00">CallStackFormatter</text>
</a>
</g>
</g>
<!-- Node32&#45;&gt;Node34 -->
<g id="edge2" class="edge">
<title>Node32&#45;&gt;Node34</title>
<path fill="none" stroke="midnightblue" d="M102.08,-30.54C112.74,-28.8 123.96,-26.98 134.77,-25.22"/>
<polygon fill="midnightblue" stroke="midnightblue" points="101.36,-27.11 92.06,-32.17 102.49,-34.02 101.36,-27.11"/>
</g>
</g>
</svg>
