<?xml version="1.0" encoding="UTF-8" standalone="no"?>
<!DOCTYPE svg PUBLIC "-//W3C//DTD SVG 1.1//EN"
 "http://www.w3.org/Graphics/SVG/1.1/DTD/svg11.dtd">
<!-- Generated by graphviz version 2.47.1 (20210417.1919)
 -->
<!-- Title: src.eralchemy.parser.remove_comments_from_line Pages: 1 -->
<svg width="1031pt" height="83pt"
 viewBox="0.00 0.00 1031.00 83.00" xmlns="http://www.w3.org/2000/svg" xmlns:xlink="http://www.w3.org/1999/xlink">
<g id="graph0" class="graph" transform="scale(1 1) rotate(0) translate(4 79)">
<title>src.eralchemy.parser.remove_comments_from_line</title>
<polygon fill="white" stroke="transparent" points="-4,4 -4,-79 1027,-79 1027,4 -4,4"/>
<!-- Node1 -->
<g id="node1" class="node">
<title>Node1</title>
<g id="a_node1"><a xlink:title=" ">
<polygon fill="#bfbfbf" stroke="black" points="881,-44.5 881,-74.5 1023,-74.5 1023,-44.5 881,-44.5"/>
<text text-anchor="start" x="889" y="-62.5" font-family="Helvetica,sans-Serif" font-size="10.00">src.eralchemy.parser.remove</text>
<text text-anchor="middle" x="952" y="-51.5" font-family="Helvetica,sans-Serif" font-size="10.00">_comments_from_line</text>
</a>
</g>
</g>
<!-- Node2 -->
<g id="node2" class="node">
<title>Node2</title>
<g id="a_node2"><a xlink:href="namespacesrc_1_1eralchemy_1_1parser.html#ae896c00e0ce3280fd4a5f84bb3b13da5" target="_top" xlink:title=" ">
<polygon fill="white" stroke="black" points="719,-44.5 719,-74.5 845,-74.5 845,-44.5 719,-44.5"/>
<text text-anchor="start" x="727" y="-62.5" font-family="Helvetica,sans-Serif" font-size="10.00">src.eralchemy.parser.line</text>
<text text-anchor="middle" x="782" y="-51.5" font-family="Helvetica,sans-Serif" font-size="10.00">_iterator_to_intermediary</text>
</a>
</g>
</g>
<!-- Node1&#45;&gt;Node2 -->
<g id="edge1" class="edge">
<title>Node1&#45;&gt;Node2</title>
<path fill="none" stroke="midnightblue" d="M870.72,-59.5C862.16,-59.5 853.55,-59.5 845.24,-59.5"/>
<polygon fill="midnightblue" stroke="midnightblue" points="870.73,-63 880.73,-59.5 870.73,-56 870.73,-63"/>
</g>
<!-- Node3 -->
<g id="node3" class="node">
<title>Node3</title>
<g id="a_node3"><a xlink:href="namespacesrc_1_1eralchemy_1_1main.html#a9fac164b40f74cd204823413bbc5c01d" target="_top" xlink:title=" ">
<polygon fill="white" stroke="black" points="377,-44.5 377,-74.5 492,-74.5 492,-44.5 377,-44.5"/>
<text text-anchor="start" x="385" y="-62.5" font-family="Helvetica,sans-Serif" font-size="10.00">src.eralchemy.main.all</text>
<text text-anchor="middle" x="434.5" y="-51.5" font-family="Helvetica,sans-Serif" font-size="10.00">_to_intermediary</text>
</a>
</g>
</g>
<!-- Node2&#45;&gt;Node3 -->
<g id="edge2" class="edge">
<title>Node2&#45;&gt;Node3</title>
<path fill="none" stroke="midnightblue" d="M708.69,-61.96C700.03,-62.18 691.32,-62.37 683,-62.5 614.12,-63.55 596.88,-63.62 528,-62.5 516.43,-62.31 504.06,-61.99 492.24,-61.63"/>
<polygon fill="midnightblue" stroke="midnightblue" points="708.89,-65.46 718.8,-61.69 708.7,-58.46 708.89,-65.46"/>
</g>
<!-- Node7 -->
<g id="node7" class="node">
<title>Node7</title>
<g id="a_node7"><a xlink:href="namespacesrc_1_1eralchemy_1_1parser.html#a4ae9323517c46eeb4ed9d87588832be2" target="_top" xlink:title=" ">
<polygon fill="white" stroke="black" points="528,-22.5 528,-52.5 683,-52.5 683,-22.5 528,-22.5"/>
<text text-anchor="start" x="536" y="-40.5" font-family="Helvetica,sans-Serif" font-size="10.00">src.eralchemy.parser.markdown</text>
<text text-anchor="middle" x="605.5" y="-29.5" font-family="Helvetica,sans-Serif" font-size="10.00">_file_to_intermediary</text>
</a>
</g>
</g>
<!-- Node2&#45;&gt;Node7 -->
<g id="edge7" class="edge">
<title>Node2&#45;&gt;Node7</title>
<path fill="none" stroke="midnightblue" d="M708.82,-50.4C700.39,-49.34 691.77,-48.25 683.28,-47.18"/>
<polygon fill="midnightblue" stroke="midnightblue" points="708.63,-53.9 718.99,-51.68 709.5,-46.96 708.63,-53.9"/>
</g>
<!-- Node4 -->
<g id="node4" class="node">
<title>Node4</title>
<g id="a_node4"><a xlink:href="namespacesrc_1_1eralchemy_1_1main.html#a5387e0a7c14b44fd86de8ede390bed04" target="_top" xlink:title=" ">
<polygon fill="white" stroke="black" points="195,-50 195,-69 341,-69 341,-50 195,-50"/>
<text text-anchor="middle" x="268" y="-57" font-family="Helvetica,sans-Serif" font-size="10.00">src.eralchemy.main.render_er</text>
</a>
</g>
</g>
<!-- Node3&#45;&gt;Node4 -->
<g id="edge3" class="edge">
<title>Node3&#45;&gt;Node4</title>
<path fill="none" stroke="midnightblue" d="M366.73,-59.5C358.29,-59.5 349.63,-59.5 341.11,-59.5"/>
<polygon fill="midnightblue" stroke="midnightblue" points="366.89,-63 376.89,-59.5 366.89,-56 366.89,-63"/>
</g>
<!-- Node5 -->
<g id="node5" class="node">
<title>Node5</title>
<g id="a_node5"><a xlink:href="namespacesrc_1_1eralchemy_1_1main.html#afd606a75c08edb3181030c5b1ce3b5aa" target="_top" xlink:title=" ">
<polygon fill="white" stroke="black" points="22,-50 22,-69 137,-69 137,-50 22,-50"/>
<text text-anchor="middle" x="79.5" y="-57" font-family="Helvetica,sans-Serif" font-size="10.00">src.eralchemy.main.cli</text>
</a>
</g>
</g>
<!-- Node4&#45;&gt;Node5 -->
<g id="edge4" class="edge">
<title>Node4&#45;&gt;Node5</title>
<path fill="none" stroke="midnightblue" d="M184.46,-52.79C168.46,-52.67 152.03,-52.82 137.09,-53.24"/>
<polygon fill="midnightblue" stroke="midnightblue" points="184.86,-56.29 194.89,-52.91 184.93,-49.29 184.86,-56.29"/>
</g>
<!-- Node6 -->
<g id="node6" class="node">
<title>Node6</title>
<g id="a_node6"><a xlink:href="namespacesrc_1_1db__tools_1_1database__consolidation.html#a7057f33c203cc4abd04492f89c632aa9" target="_top" xlink:title=" ">
<polygon fill="white" stroke="black" points="0,-0.5 0,-30.5 159,-30.5 159,-0.5 0,-0.5"/>
<text text-anchor="start" x="8" y="-18.5" font-family="Helvetica,sans-Serif" font-size="10.00">src.db_tools.database</text>
<text text-anchor="middle" x="79.5" y="-7.5" font-family="Helvetica,sans-Serif" font-size="10.00">_consolidation.doit_generate_erd</text>
</a>
</g>
</g>
<!-- Node4&#45;&gt;Node6 -->
<g id="edge6" class="edge">
<title>Node4&#45;&gt;Node6</title>
<path fill="none" stroke="midnightblue" d="M216.63,-47.62C194.38,-42.37 167.97,-36.14 144.36,-30.57"/>
<polygon fill="midnightblue" stroke="midnightblue" points="216,-51.06 226.53,-49.95 217.6,-44.25 216,-51.06"/>
</g>
<!-- Node5&#45;&gt;Node4 -->
<g id="edge5" class="edge">
<title>Node5&#45;&gt;Node4</title>
<path fill="none" stroke="midnightblue" d="M147.1,-66C162.6,-66.3 179.17,-66.33 194.89,-66.09"/>
<polygon fill="midnightblue" stroke="midnightblue" points="147.17,-62.5 137.09,-65.76 147.01,-69.5 147.17,-62.5"/>
</g>
<!-- Node7&#45;&gt;Node3 -->
<g id="edge8" class="edge">
<title>Node7&#45;&gt;Node3</title>
<path fill="none" stroke="midnightblue" d="M517.71,-48.8C509.02,-49.93 500.36,-51.06 492.1,-52.13"/>
<polygon fill="midnightblue" stroke="midnightblue" points="518.45,-52.23 527.91,-47.47 517.54,-45.29 518.45,-52.23"/>
</g>
</g>
</svg>
