<?xml version="1.0" encoding="UTF-8" standalone="no"?>
<!DOCTYPE svg PUBLIC "-//W3C//DTD SVG 1.1//EN"
 "http://www.w3.org/Graphics/SVG/1.1/DTD/svg11.dtd">
<!-- Generated by graphviz version 2.47.1 (20210417.1919)
 -->
<!-- Title: src.body_extraction.cli_entry.cli Pages: 1 -->
<!--zoomable 121 -->
<svg id="main" version="1.1" xmlns="http://www.w3.org/2000/svg" xmlns:xlink="http://www.w3.org/1999/xlink" xml:space="preserve" onload="init(evt)">
<style type="text/css"><![CDATA[
.edge:hover path { stroke: red; }
.edge:hover polygon { stroke: red; fill: red; }
]]></style>
<script type="text/javascript"><![CDATA[
var edges = document.getElementsByTagName('g');
if (edges && edges.length) {
  for (var i=0;i<edges.length;i++) {
    if (edges[i].id.substr(0,4)=='edge') {
      edges[i].setAttribute('class','edge');
    }
  }
}
]]></script>
        <defs>
                <circle id="rim" cx="0" cy="0" r="7"/>
                <circle id="rim2" cx="0" cy="0" r="3.5"/>
                <g id="zoomPlus">
                        <use xlink:href="#rim" fill="#404040">
                                <set attributeName="fill" to="#808080" begin="zoomplus.mouseover" end="zoomplus.mouseout"/>
                        </use>
                        <path d="M-4,0h8M0,-4v8" fill="none" stroke="white" stroke-width="1.5" pointer-events="none"/>
                </g>
                <g id="zoomMin">
                        <use xlink:href="#rim" fill="#404040">
                                <set attributeName="fill" to="#808080" begin="zoomminus.mouseover" end="zoomminus.mouseout"/>
                        </use>
                        <path d="M-4,0h8" fill="none" stroke="white" stroke-width="1.5" pointer-events="none"/>
                </g>
                <g id="dirArrow">
                        <path fill="none" stroke="white" stroke-width="1.5" d="M0,-3.0v7 M-2.5,-0.5L0,-3.0L2.5,-0.5"/>
                </g>
               <g id="resetDef">
                       <use xlink:href="#rim2" fill="#404040">
                               <set attributeName="fill" to="#808080" begin="reset.mouseover" end="reset.mouseout"/>
                       </use>
               </g>
        </defs>

<script type="text/javascript">
var viewWidth = 582;
var viewHeight = 121;
var sectionId = 'dynsection-5';
</script>
<script xlink:href="svgpan.js"/>
<svg id="graph" class="graph">
<g id="viewport">
<title>src.body_extraction.cli_entry.cli</title>
<polygon fill="white" stroke="transparent" points="-4,4 -4,-116.5 578,-116.5 578,4 -4,4"/>
<!-- Node1 -->
<g id="node1" class="node">
<title>Node1</title>
<g id="a_node1"><a xlink:title=" ">
<polygon fill="#bfbfbf" stroke="black" points="0,-24.5 0,-54.5 115,-54.5 115,-24.5 0,-24.5"/>
<text text-anchor="start" x="8" y="-42.5" font-family="Helvetica,sans-Serif" font-size="10.00">src.body_extraction.cli</text>
<text text-anchor="middle" x="57.5" y="-31.5" font-family="Helvetica,sans-Serif" font-size="10.00">_entry.cli</text>
</a>
</g>
</g>
<!-- Node2 -->
<g id="node2" class="node">
<title>Node2</title>
<g id="a_node2"><a xlink:href="namespacesrc_1_1body__extraction_1_1cli__entry.html#aecd587b23033196155b2e453464a7293" target="_top" xlink:title=" ">
<polygon fill="white" stroke="black" points="151,-49.5 151,-79.5 266,-79.5 266,-49.5 151,-49.5"/>
<text text-anchor="start" x="159" y="-67.5" font-family="Helvetica,sans-Serif" font-size="10.00">src.body_extraction.cli</text>
<text text-anchor="middle" x="208.5" y="-56.5" font-family="Helvetica,sans-Serif" font-size="10.00">_entry.check_args</text>
</a>
</g>
</g>
<!-- Node1&#45;&gt;Node2 -->
<g id="edge1" class="edge">
<title>Node1&#45;&gt;Node2</title>
<path fill="none" stroke="midnightblue" d="M115.26,-49.02C123.65,-50.43 132.36,-51.89 140.93,-53.33"/>
<polygon fill="midnightblue" stroke="midnightblue" points="140.46,-56.8 150.9,-55 141.62,-49.9 140.46,-56.8"/>
</g>
<!-- Node6 -->
<g id="node6" class="node">
<title>Node6</title>
<g id="a_node6"><a xlink:href="namespacesrc_1_1body__extraction_1_1cli__entry.html#a12494b5d194308c49680c27a340d5cd8" target="_top" xlink:title=" ">
<polygon fill="white" stroke="black" points="151,-0.5 151,-30.5 266,-30.5 266,-0.5 151,-0.5"/>
<text text-anchor="start" x="159" y="-18.5" font-family="Helvetica,sans-Serif" font-size="10.00">src.body_extraction.cli</text>
<text text-anchor="middle" x="208.5" y="-7.5" font-family="Helvetica,sans-Serif" font-size="10.00">_entry.get_argparser</text>
</a>
</g>
</g>
<!-- Node1&#45;&gt;Node6 -->
<g id="edge5" class="edge">
<title>Node1&#45;&gt;Node6</title>
<path fill="none" stroke="midnightblue" d="M115.26,-30.36C123.65,-29.01 132.36,-27.6 140.93,-26.22"/>
<polygon fill="midnightblue" stroke="midnightblue" points="141.59,-29.66 150.9,-24.62 140.47,-22.75 141.59,-29.66"/>
</g>
<!-- Node3 -->
<g id="node3" class="node">
<title>Node3</title>
<g id="a_node3"><a xlink:href="namespacesrc_1_1body__extraction_1_1cli__entry.html#a74f24adbe2969f94f9d747c25a387dc9" target="_top" xlink:title=" ">
<polygon fill="white" stroke="black" points="302,-71 302,-112 420,-112 420,-71 302,-71"/>
<text text-anchor="start" x="310" y="-100" font-family="Helvetica,sans-Serif" font-size="10.00">src.body_extraction.cli</text>
<text text-anchor="start" x="310" y="-89" font-family="Helvetica,sans-Serif" font-size="10.00">_entry.check_args_has</text>
<text text-anchor="middle" x="361" y="-78" font-family="Helvetica,sans-Serif" font-size="10.00">_attributes</text>
</a>
</g>
</g>
<!-- Node2&#45;&gt;Node3 -->
<g id="edge2" class="edge">
<title>Node2&#45;&gt;Node3</title>
<path fill="none" stroke="midnightblue" d="M266.4,-74.71C274.71,-76.2 283.35,-77.75 291.86,-79.28"/>
<polygon fill="midnightblue" stroke="midnightblue" points="291.31,-82.73 301.77,-81.05 292.55,-75.84 291.31,-82.73"/>
</g>
<!-- Node5 -->
<g id="node5" class="node">
<title>Node5</title>
<g id="a_node5"><a xlink:href="namespacesrc_1_1body__extraction_1_1cli__entry.html#aa7b20ee466231a9108c67f1056536884" target="_top" xlink:title=" ">
<polygon fill="white" stroke="black" points="303.5,-21.5 303.5,-51.5 418.5,-51.5 418.5,-21.5 303.5,-21.5"/>
<text text-anchor="start" x="311.5" y="-39.5" font-family="Helvetica,sans-Serif" font-size="10.00">src.body_extraction.cli</text>
<text text-anchor="middle" x="361" y="-28.5" font-family="Helvetica,sans-Serif" font-size="10.00">_entry.fail</text>
</a>
</g>
</g>
<!-- Node2&#45;&gt;Node5 -->
<g id="edge4" class="edge">
<title>Node2&#45;&gt;Node5</title>
<path fill="none" stroke="midnightblue" d="M266.4,-53.91C275.11,-52.29 284.16,-50.61 293.07,-48.95"/>
<polygon fill="midnightblue" stroke="midnightblue" points="293.83,-52.37 303.02,-47.1 292.55,-45.49 293.83,-52.37"/>
</g>
<!-- Node4 -->
<g id="node4" class="node">
<title>Node4</title>
<g id="a_node4"><a xlink:href="namespacesrc_1_1body__extraction_1_1cli__entry.html#ac54ec360f3fdef09b455b7f140ca435b" target="_top" xlink:title=" ">
<polygon fill="white" stroke="black" points="456,-71 456,-112 574,-112 574,-71 456,-71"/>
<text text-anchor="start" x="464" y="-100" font-family="Helvetica,sans-Serif" font-size="10.00">src.body_extraction.cli</text>
<text text-anchor="start" x="464" y="-89" font-family="Helvetica,sans-Serif" font-size="10.00">_entry.check_args_has</text>
<text text-anchor="middle" x="515" y="-78" font-family="Helvetica,sans-Serif" font-size="10.00">_attribute</text>
</a>
</g>
</g>
<!-- Node3&#45;&gt;Node4 -->
<g id="edge3" class="edge">
<title>Node3&#45;&gt;Node4</title>
<path fill="none" stroke="midnightblue" d="M420.33,-91.5C428.61,-91.5 437.17,-91.5 445.62,-91.5"/>
<polygon fill="midnightblue" stroke="midnightblue" points="445.82,-95 455.82,-91.5 445.82,-88 445.82,-95"/>
</g>
</g>
</svg>
        <g id="navigator" transform="translate(0 0)" fill="#404254">
                <rect fill="#f2f5e9" fill-opacity="0.5" stroke="#606060" stroke-width=".5" x="0" y="0" width="60" height="60"/>
                <use id="zoomplus" xlink:href="#zoomPlus" x="17" y="9" onmousedown="handleZoom(evt,'in')"/>
                <use id="zoomminus" xlink:href="#zoomMin" x="42" y="9" onmousedown="handleZoom(evt,'out')"/>
                <use id="reset" xlink:href="#resetDef" x="30" y="36" onmousedown="handleReset()"/>
                <g id="arrowUp" xlink:href="#dirArrow" transform="translate(30 24)" onmousedown="handlePan(0,-1)">
                  <use xlink:href="#rim" fill="#404040">
                        <set attributeName="fill" to="#808080" begin="arrowUp.mouseover" end="arrowUp.mouseout"/>
                  </use>
                  <path fill="none" stroke="white" stroke-width="1.5" d="M0,-3.0v7 M-2.5,-0.5L0,-3.0L2.5,-0.5"/>
                </g>
                <g id="arrowRight" xlink:href="#dirArrow" transform="rotate(90) translate(36 -43)" onmousedown="handlePan(1,0)">
                  <use xlink:href="#rim" fill="#404040">
                        <set attributeName="fill" to="#808080" begin="arrowRight.mouseover" end="arrowRight.mouseout"/>
                  </use>
                  <path fill="none" stroke="white" stroke-width="1.5" d="M0,-3.0v7 M-2.5,-0.5L0,-3.0L2.5,-0.5"/>
                </g>
                <g id="arrowDown" xlink:href="#dirArrow" transform="rotate(180) translate(-30 -48)" onmousedown="handlePan(0,1)">
                  <use xlink:href="#rim" fill="#404040">
                        <set attributeName="fill" to="#808080" begin="arrowDown.mouseover" end="arrowDown.mouseout"/>
                  </use>
                  <path fill="none" stroke="white" stroke-width="1.5" d="M0,-3.0v7 M-2.5,-0.5L0,-3.0L2.5,-0.5"/>
                </g>
                <g id="arrowLeft" xlink:href="#dirArrow" transform="rotate(270) translate(-36 17)" onmousedown="handlePan(-1,0)">
                  <use xlink:href="#rim" fill="#404040">
                        <set attributeName="fill" to="#808080" begin="arrowLeft.mouseover" end="arrowLeft.mouseout"/>
                  </use>
                  <path fill="none" stroke="white" stroke-width="1.5" d="M0,-3.0v7 M-2.5,-0.5L0,-3.0L2.5,-0.5"/>
                </g>
        </g>
        <svg viewBox="0 0 15 15" width="100%" height="30px" preserveAspectRatio="xMaxYMin meet">
         <g id="arrow_out" transform="scale(0.3 0.3)">
          <a xlink:href="namespacesrc_1_1body__extraction_1_1cli__entry_ad275b8b868d4ad51c08f79e9ec68f241_cgraph_org.svg" target="_base">
           <rect id="button" ry="5" rx="5" y="6" x="6" height="38" width="38"
                fill="#f2f5e9" fill-opacity="0.5" stroke="#606060" stroke-width="1.0"/>
           <path id="arrow"
             d="M 11.500037,31.436501 C 11.940474,20.09759 22.043105,11.32322 32.158766,21.979434 L 37.068811,17.246167 C 37.068811,17.246167 37.088388,32 37.088388,32 L 22.160133,31.978069 C 22.160133,31.978069 26.997745,27.140456 26.997745,27.140456 C 18.528582,18.264221 13.291696,25.230495 11.500037,31.436501 z"
             style="fill:#404040;"/>
          </a>
         </g>
        </svg>
</svg>
