<?xml version="1.0" encoding="UTF-8" standalone="no"?>
<!DOCTYPE svg PUBLIC "-//W3C//DTD SVG 1.1//EN"
 "http://www.w3.org/Graphics/SVG/1.1/DTD/svg11.dtd">
<!-- Generated by graphviz version 2.47.1 (20210417.1919)
 -->
<!-- Title: src.utils.custom_logger._configure_handler Pages: 1 -->
<svg width="622pt" height="94pt"
 viewBox="0.00 0.00 622.00 93.50" xmlns="http://www.w3.org/2000/svg" xmlns:xlink="http://www.w3.org/1999/xlink">
<g id="graph0" class="graph" transform="scale(1 1) rotate(0) translate(4 89.5)">
<title>src.utils.custom_logger._configure_handler</title>
<polygon fill="white" stroke="transparent" points="-4,4 -4,-89.5 618,-89.5 618,4 -4,4"/>
<!-- Node1 -->
<g id="node1" class="node">
<title>Node1</title>
<g id="a_node1"><a xlink:title=" ">
<polygon fill="#bfbfbf" stroke="black" points="493,-30 493,-60 614,-60 614,-30 493,-30"/>
<text text-anchor="start" x="501" y="-48" font-family="Helvetica,sans-Serif" font-size="10.00">src.utils.custom_logger.</text>
<text text-anchor="middle" x="553.5" y="-37" font-family="Helvetica,sans-Serif" font-size="10.00">_configure_handler</text>
</a>
</g>
</g>
<!-- Node2 -->
<g id="node2" class="node">
<title>Node2</title>
<g id="a_node2"><a xlink:href="namespacesrc_1_1utils_1_1custom__logger.html#a3d6e469e20f9ff5a211a36302eaab713" target="_top" xlink:title=" ">
<polygon fill="white" stroke="black" points="336,-30 336,-60 457,-60 457,-30 336,-30"/>
<text text-anchor="start" x="344" y="-48" font-family="Helvetica,sans-Serif" font-size="10.00">src.utils.custom_logger.</text>
<text text-anchor="middle" x="396.5" y="-37" font-family="Helvetica,sans-Serif" font-size="10.00">_logger_setup</text>
</a>
</g>
</g>
<!-- Node1&#45;&gt;Node2 -->
<g id="edge1" class="edge">
<title>Node1&#45;&gt;Node2</title>
<path fill="none" stroke="midnightblue" d="M482.34,-45C473.88,-45 465.3,-45 457.01,-45"/>
<polygon fill="midnightblue" stroke="midnightblue" points="482.57,-48.5 492.57,-45 482.57,-41.5 482.57,-48.5"/>
</g>
<!-- Node3 -->
<g id="node3" class="node">
<title>Node3</title>
<g id="a_node3"><a xlink:href="classsrc_1_1utils_1_1custom__logger_1_1_log_manager.html#a6e75a24618d1dfa3609780bf6bd6f0bb" target="_top" xlink:title=" ">
<polygon fill="white" stroke="black" points="157,-55 157,-85 300,-85 300,-55 157,-55"/>
<text text-anchor="start" x="165" y="-73" font-family="Helvetica,sans-Serif" font-size="10.00">src.utils.custom_logger.</text>
<text text-anchor="middle" x="228.5" y="-62" font-family="Helvetica,sans-Serif" font-size="10.00">LogManager.__getattribute__</text>
</a>
</g>
</g>
<!-- Node2&#45;&gt;Node3 -->
<g id="edge2" class="edge">
<title>Node2&#45;&gt;Node3</title>
<path fill="none" stroke="midnightblue" d="M325.45,-55.55C317.05,-56.81 308.48,-58.11 300.08,-59.37"/>
<polygon fill="midnightblue" stroke="midnightblue" points="326.2,-58.98 335.57,-54.03 325.16,-52.05 326.2,-58.98"/>
</g>
<!-- Node4 -->
<g id="node4" class="node">
<title>Node4</title>
<g id="a_node4"><a xlink:href="namespacesrc_1_1utils_1_1custom__logger.html#ab4919b815252b80aa3ae333b09c3db1d" target="_top" xlink:title=" ">
<polygon fill="white" stroke="black" points="161.5,-6 161.5,-36 295.5,-36 295.5,-6 161.5,-6"/>
<text text-anchor="start" x="169.5" y="-24" font-family="Helvetica,sans-Serif" font-size="10.00">src.utils.custom_logger.get</text>
<text text-anchor="middle" x="228.5" y="-13" font-family="Helvetica,sans-Serif" font-size="10.00">_logger</text>
</a>
</g>
</g>
<!-- Node2&#45;&gt;Node4 -->
<g id="edge3" class="edge">
<title>Node2&#45;&gt;Node4</title>
<path fill="none" stroke="midnightblue" d="M325.38,-34.86C315.48,-33.43 305.34,-31.96 295.52,-30.55"/>
<polygon fill="midnightblue" stroke="midnightblue" points="325.17,-38.37 335.57,-36.34 326.17,-31.44 325.17,-38.37"/>
</g>
<!-- Node5 -->
<g id="node5" class="node">
<title>Node5</title>
<g id="a_node5"><a xlink:href="classsrc_1_1utils_1_1custom__logger_1_1_log_manager.html#a7b0e44977a63a22e4d2befa503dcce17" target="_top" xlink:title=" ">
<polygon fill="white" stroke="black" points="0,-0.5 0,-41.5 121,-41.5 121,-0.5 0,-0.5"/>
<text text-anchor="start" x="8" y="-29.5" font-family="Helvetica,sans-Serif" font-size="10.00">src.utils.custom_logger.</text>
<text text-anchor="start" x="8" y="-18.5" font-family="Helvetica,sans-Serif" font-size="10.00">LogManager.add_logger</text>
<text text-anchor="middle" x="60.5" y="-7.5" font-family="Helvetica,sans-Serif" font-size="10.00">_as_field</text>
</a>
</g>
</g>
<!-- Node4&#45;&gt;Node5 -->
<g id="edge4" class="edge">
<title>Node4&#45;&gt;Node5</title>
<path fill="none" stroke="midnightblue" d="M151.36,-21C141.23,-21 130.97,-21 121.17,-21"/>
<polygon fill="midnightblue" stroke="midnightblue" points="151.42,-24.5 161.42,-21 151.42,-17.5 151.42,-24.5"/>
</g>
</g>
</svg>
