<?xml version="1.0" encoding="UTF-8" standalone="no"?>
<!DOCTYPE svg PUBLIC "-//W3C//DTD SVG 1.1//EN"
 "http://www.w3.org/Graphics/SVG/1.1/DTD/svg11.dtd">
<!-- Generated by graphviz version 2.47.1 (20210417.1919)
 -->
<!-- Title: src.eralchemy.main.render_er Pages: 1 -->
<svg width="1253pt" height="334pt"
 viewBox="0.00 0.00 1253.00 334.00" xmlns="http://www.w3.org/2000/svg" xmlns:xlink="http://www.w3.org/1999/xlink">
<g id="graph0" class="graph" transform="scale(1 1) rotate(0) translate(4 330)">
<title>src.eralchemy.main.render_er</title>
<polygon fill="white" stroke="transparent" points="-4,4 -4,-330 1249,-330 1249,4 -4,4"/>
<!-- Node1 -->
<g id="node1" class="node">
<title>Node1</title>
<g id="a_node1"><a xlink:title=" ">
<polygon fill="#bfbfbf" stroke="black" points="0,-99 0,-118 146,-118 146,-99 0,-99"/>
<text text-anchor="middle" x="73" y="-106" font-family="Helvetica,sans-Serif" font-size="10.00">src.eralchemy.main.render_er</text>
</a>
</g>
</g>
<!-- Node2 -->
<g id="node2" class="node">
<title>Node2</title>
<g id="a_node2"><a xlink:href="namespacesrc_1_1eralchemy_1_1main.html#a9fac164b40f74cd204823413bbc5c01d" target="_top" xlink:title=" ">
<polygon fill="white" stroke="black" points="186,-167.5 186,-197.5 301,-197.5 301,-167.5 186,-167.5"/>
<text text-anchor="start" x="194" y="-185.5" font-family="Helvetica,sans-Serif" font-size="10.00">src.eralchemy.main.all</text>
<text text-anchor="middle" x="243.5" y="-174.5" font-family="Helvetica,sans-Serif" font-size="10.00">_to_intermediary</text>
</a>
</g>
</g>
<!-- Node1&#45;&gt;Node2 -->
<g id="edge1" class="edge">
<title>Node1&#45;&gt;Node2</title>
<path fill="none" stroke="midnightblue" d="M95.68,-118.02C121.57,-129.39 165.51,-148.69 198.59,-163.22"/>
<polygon fill="midnightblue" stroke="midnightblue" points="197.48,-166.55 208.05,-167.37 200.3,-160.14 197.48,-166.55"/>
</g>
<!-- Node18 -->
<g id="node18" class="node">
<title>Node18</title>
<g id="a_node18"><a xlink:href="namespacesrc_1_1eralchemy_1_1main.html#afd606a75c08edb3181030c5b1ce3b5aa" target="_top" xlink:title=" ">
<polygon fill="white" stroke="black" points="186,-99 186,-118 301,-118 301,-99 186,-99"/>
<text text-anchor="middle" x="243.5" y="-106" font-family="Helvetica,sans-Serif" font-size="10.00">src.eralchemy.main.cli</text>
</a>
</g>
</g>
<!-- Node1&#45;&gt;Node18 -->
<g id="edge18" class="edge">
<title>Node1&#45;&gt;Node18</title>
<path fill="none" stroke="midnightblue" d="M146.44,-101.81C156.13,-101.71 166.04,-101.73 175.63,-101.88"/>
<polygon fill="midnightblue" stroke="midnightblue" points="175.83,-105.38 185.89,-102.08 175.97,-98.39 175.83,-105.38"/>
</g>
<!-- Node24 -->
<g id="node24" class="node">
<title>Node24</title>
<g id="a_node24"><a xlink:href="namespacesrc_1_1eralchemy_1_1main.html#a6718b3d4e1e90e2f41ba8ca2cf54393e" target="_top" xlink:title=" ">
<polygon fill="white" stroke="black" points="182,-49.5 182,-79.5 305,-79.5 305,-49.5 182,-49.5"/>
<text text-anchor="start" x="190" y="-67.5" font-family="Helvetica,sans-Serif" font-size="10.00">src.eralchemy.main.filter</text>
<text text-anchor="middle" x="243.5" y="-56.5" font-family="Helvetica,sans-Serif" font-size="10.00">_resources</text>
</a>
</g>
</g>
<!-- Node1&#45;&gt;Node24 -->
<g id="edge25" class="edge">
<title>Node1&#45;&gt;Node24</title>
<path fill="none" stroke="midnightblue" d="M110.56,-98.95C129.36,-94.04 152.89,-87.9 174.85,-82.17"/>
<polygon fill="midnightblue" stroke="midnightblue" points="176.02,-85.48 184.81,-79.57 174.25,-78.71 176.02,-85.48"/>
</g>
<!-- Node25 -->
<g id="node25" class="node">
<title>Node25</title>
<g id="a_node25"><a xlink:href="namespacesrc_1_1eralchemy_1_1main.html#ac3f7087a073800cd04d6ceb584721e06" target="_top" xlink:title=" ">
<polygon fill="white" stroke="black" points="184,-0.5 184,-30.5 303,-30.5 303,-0.5 184,-0.5"/>
<text text-anchor="start" x="192" y="-18.5" font-family="Helvetica,sans-Serif" font-size="10.00">src.eralchemy.main.get</text>
<text text-anchor="middle" x="243.5" y="-7.5" font-family="Helvetica,sans-Serif" font-size="10.00">_output_mode</text>
</a>
</g>
</g>
<!-- Node1&#45;&gt;Node25 -->
<g id="edge26" class="edge">
<title>Node1&#45;&gt;Node25</title>
<path fill="none" stroke="midnightblue" d="M87.15,-98.93C107.01,-84.74 146.15,-57.85 182,-39.5 185.26,-37.83 188.66,-36.2 192.12,-34.63"/>
<polygon fill="midnightblue" stroke="midnightblue" points="193.59,-37.81 201.35,-30.59 190.78,-31.39 193.59,-37.81"/>
</g>
<!-- Node3 -->
<g id="node3" class="node">
<title>Node3</title>
<g id="a_node3"><a xlink:href="namespacesrc_1_1eralchemy_1_1sqla.html#a45674eee4c7ce1d82b7f99a285958c1d" target="_top" xlink:title=" ">
<polygon fill="white" stroke="black" points="347.5,-239.5 347.5,-269.5 489.5,-269.5 489.5,-239.5 347.5,-239.5"/>
<text text-anchor="start" x="355.5" y="-257.5" font-family="Helvetica,sans-Serif" font-size="10.00">src.eralchemy.sqla.database</text>
<text text-anchor="middle" x="418.5" y="-246.5" font-family="Helvetica,sans-Serif" font-size="10.00">_to_intermediary</text>
</a>
</g>
</g>
<!-- Node2&#45;&gt;Node3 -->
<g id="edge2" class="edge">
<title>Node2&#45;&gt;Node3</title>
<path fill="none" stroke="midnightblue" d="M280.77,-197.59C307.29,-208.63 343.47,-223.69 371.94,-235.54"/>
<polygon fill="midnightblue" stroke="midnightblue" points="370.7,-238.82 381.28,-239.43 373.39,-232.35 370.7,-238.82"/>
</g>
<!-- Node10 -->
<g id="node10" class="node">
<title>Node10</title>
<g id="a_node10"><a xlink:href="namespacesrc_1_1eralchemy_1_1parser.html#ae896c00e0ce3280fd4a5f84bb3b13da5" target="_top" xlink:title=" ">
<polygon fill="white" stroke="black" points="543,-168.5 543,-198.5 669,-198.5 669,-168.5 543,-168.5"/>
<text text-anchor="start" x="551" y="-186.5" font-family="Helvetica,sans-Serif" font-size="10.00">src.eralchemy.parser.line</text>
<text text-anchor="middle" x="606" y="-175.5" font-family="Helvetica,sans-Serif" font-size="10.00">_iterator_to_intermediary</text>
</a>
</g>
</g>
<!-- Node2&#45;&gt;Node10 -->
<g id="edge9" class="edge">
<title>Node2&#45;&gt;Node10</title>
<path fill="none" stroke="midnightblue" d="M301.13,-184.55C314.22,-184.95 328.1,-185.3 341,-185.5 409.88,-186.57 427.11,-186.13 496,-185.5 507.83,-185.39 520.38,-185.22 532.59,-185.01"/>
<polygon fill="midnightblue" stroke="midnightblue" points="532.81,-188.51 542.75,-184.84 532.69,-181.51 532.81,-188.51"/>
</g>
<!-- Node17 -->
<g id="node17" class="node">
<title>Node17</title>
<g id="a_node17"><a xlink:href="namespacesrc_1_1eralchemy_1_1parser.html#a4ae9323517c46eeb4ed9d87588832be2" target="_top" xlink:title=" ">
<polygon fill="white" stroke="black" points="341,-145.5 341,-175.5 496,-175.5 496,-145.5 341,-145.5"/>
<text text-anchor="start" x="349" y="-163.5" font-family="Helvetica,sans-Serif" font-size="10.00">src.eralchemy.parser.markdown</text>
<text text-anchor="middle" x="418.5" y="-152.5" font-family="Helvetica,sans-Serif" font-size="10.00">_file_to_intermediary</text>
</a>
</g>
</g>
<!-- Node2&#45;&gt;Node17 -->
<g id="edge16" class="edge">
<title>Node2&#45;&gt;Node17</title>
<path fill="none" stroke="midnightblue" d="M301.15,-175.3C310.68,-174.08 320.77,-172.8 330.85,-171.52"/>
<polygon fill="midnightblue" stroke="midnightblue" points="331.44,-174.97 340.92,-170.24 330.56,-168.03 331.44,-174.97"/>
</g>
<!-- Node4 -->
<g id="node4" class="node">
<title>Node4</title>
<g id="a_node4"><a xlink:href="namespacesrc_1_1eralchemy_1_1sqla.html#a08828ed118d96f46452d9c55a5080c78" target="_top" xlink:title=" ">
<polygon fill="white" stroke="black" points="532,-242.5 532,-272.5 680,-272.5 680,-242.5 532,-242.5"/>
<text text-anchor="start" x="540" y="-260.5" font-family="Helvetica,sans-Serif" font-size="10.00">src.eralchemy.sqla.declarative</text>
<text text-anchor="middle" x="606" y="-249.5" font-family="Helvetica,sans-Serif" font-size="10.00">_to_intermediary</text>
</a>
</g>
</g>
<!-- Node3&#45;&gt;Node4 -->
<g id="edge3" class="edge">
<title>Node3&#45;&gt;Node4</title>
<path fill="none" stroke="midnightblue" d="M489.63,-255.63C500.13,-255.8 511.03,-255.98 521.77,-256.15"/>
<polygon fill="midnightblue" stroke="midnightblue" points="521.94,-259.66 531.99,-256.32 522.05,-252.66 521.94,-259.66"/>
</g>
<!-- Node5 -->
<g id="node5" class="node">
<title>Node5</title>
<g id="a_node5"><a xlink:href="namespacesrc_1_1eralchemy_1_1sqla.html#a8c80e60516d371d4404a1040516f88ea" target="_top" xlink:title=" ">
<polygon fill="white" stroke="black" points="716,-246.5 716,-276.5 859,-276.5 859,-246.5 716,-246.5"/>
<text text-anchor="start" x="724" y="-264.5" font-family="Helvetica,sans-Serif" font-size="10.00">src.eralchemy.sqla.metadata</text>
<text text-anchor="middle" x="787.5" y="-253.5" font-family="Helvetica,sans-Serif" font-size="10.00">_to_intermediary</text>
</a>
</g>
</g>
<!-- Node4&#45;&gt;Node5 -->
<g id="edge4" class="edge">
<title>Node4&#45;&gt;Node5</title>
<path fill="none" stroke="midnightblue" d="M680.01,-259.13C688.52,-259.32 697.24,-259.51 705.85,-259.7"/>
<polygon fill="midnightblue" stroke="midnightblue" points="705.8,-263.2 715.88,-259.93 705.96,-256.2 705.8,-263.2"/>
</g>
<!-- Node6 -->
<g id="node6" class="node">
<title>Node6</title>
<g id="a_node6"><a xlink:href="namespacesrc_1_1eralchemy_1_1sqla.html#aecf50970e801a99f0a0373b9bd5c2988" target="_top" xlink:title=" ">
<polygon fill="white" stroke="black" points="906,-295.5 906,-325.5 1040,-325.5 1040,-295.5 906,-295.5"/>
<text text-anchor="start" x="914" y="-313.5" font-family="Helvetica,sans-Serif" font-size="10.00">src.eralchemy.sqla.relation</text>
<text text-anchor="middle" x="973" y="-302.5" font-family="Helvetica,sans-Serif" font-size="10.00">_to_intermediary</text>
</a>
</g>
</g>
<!-- Node5&#45;&gt;Node6 -->
<g id="edge5" class="edge">
<title>Node5&#45;&gt;Node6</title>
<path fill="none" stroke="midnightblue" d="M844.8,-276.53C864.18,-281.71 886.05,-287.55 906.11,-292.91"/>
<polygon fill="midnightblue" stroke="midnightblue" points="905.24,-296.3 915.8,-295.49 907.04,-289.53 905.24,-296.3"/>
</g>
<!-- Node8 -->
<g id="node8" class="node">
<title>Node8</title>
<g id="a_node8"><a xlink:href="namespacesrc_1_1eralchemy_1_1sqla.html#ac1b6d81b9b494b0b3b9775947dbae11f" target="_top" xlink:title=" ">
<polygon fill="white" stroke="black" points="911.5,-246.5 911.5,-276.5 1034.5,-276.5 1034.5,-246.5 911.5,-246.5"/>
<text text-anchor="start" x="919.5" y="-264.5" font-family="Helvetica,sans-Serif" font-size="10.00">src.eralchemy.sqla.table</text>
<text text-anchor="middle" x="973" y="-253.5" font-family="Helvetica,sans-Serif" font-size="10.00">_to_intermediary</text>
</a>
</g>
</g>
<!-- Node5&#45;&gt;Node8 -->
<g id="edge7" class="edge">
<title>Node5&#45;&gt;Node8</title>
<path fill="none" stroke="midnightblue" d="M859.18,-261.5C872.86,-261.5 887.2,-261.5 900.89,-261.5"/>
<polygon fill="midnightblue" stroke="midnightblue" points="901.21,-265 911.21,-261.5 901.21,-258 901.21,-265"/>
</g>
<!-- Node7 -->
<g id="node7" class="node">
<title>Node7</title>
<g id="a_node7"><a xlink:href="namespacesrc_1_1eralchemy_1_1sqla.html#a74f56fbe681e9a1b0d0c0b0832b91509" target="_top" xlink:title=" ">
<polygon fill="white" stroke="black" points="1087,-301 1087,-320 1245,-320 1245,-301 1087,-301"/>
<text text-anchor="middle" x="1166" y="-308" font-family="Helvetica,sans-Serif" font-size="10.00">src.eralchemy.sqla.format_name</text>
</a>
</g>
</g>
<!-- Node6&#45;&gt;Node7 -->
<g id="edge6" class="edge">
<title>Node6&#45;&gt;Node7</title>
<path fill="none" stroke="midnightblue" d="M1040.27,-310.5C1051.97,-310.5 1064.32,-310.5 1076.51,-310.5"/>
<polygon fill="midnightblue" stroke="midnightblue" points="1076.7,-314 1086.7,-310.5 1076.7,-307 1076.7,-314"/>
</g>
<!-- Node9 -->
<g id="node9" class="node">
<title>Node9</title>
<g id="a_node9"><a xlink:href="namespacesrc_1_1eralchemy_1_1sqla.html#a4ccd81ff2afbcbd286013a8e85f016fe" target="_top" xlink:title=" ">
<polygon fill="white" stroke="black" points="1099,-246.5 1099,-276.5 1233,-276.5 1233,-246.5 1099,-246.5"/>
<text text-anchor="start" x="1107" y="-264.5" font-family="Helvetica,sans-Serif" font-size="10.00">src.eralchemy.sqla.column</text>
<text text-anchor="middle" x="1166" y="-253.5" font-family="Helvetica,sans-Serif" font-size="10.00">_to_intermediary</text>
</a>
</g>
</g>
<!-- Node8&#45;&gt;Node9 -->
<g id="edge8" class="edge">
<title>Node8&#45;&gt;Node9</title>
<path fill="none" stroke="midnightblue" d="M1034.7,-261.5C1051.85,-261.5 1070.74,-261.5 1088.69,-261.5"/>
<polygon fill="midnightblue" stroke="midnightblue" points="1088.84,-265 1098.84,-261.5 1088.84,-258 1088.84,-265"/>
</g>
<!-- Node11 -->
<g id="node11" class="node">
<title>Node11</title>
<g id="a_node11"><a xlink:href="namespacesrc_1_1eralchemy_1_1parser.html#af2c09125da4fddcf62bd70475bd1c156" target="_top" xlink:title=" ">
<polygon fill="white" stroke="black" points="716.5,-197.5 716.5,-227.5 858.5,-227.5 858.5,-197.5 716.5,-197.5"/>
<text text-anchor="start" x="724.5" y="-215.5" font-family="Helvetica,sans-Serif" font-size="10.00">src.eralchemy.parser.remove</text>
<text text-anchor="middle" x="787.5" y="-204.5" font-family="Helvetica,sans-Serif" font-size="10.00">_comments_from_line</text>
</a>
</g>
</g>
<!-- Node10&#45;&gt;Node11 -->
<g id="edge10" class="edge">
<title>Node10&#45;&gt;Node11</title>
<path fill="none" stroke="midnightblue" d="M669.03,-193.52C681.1,-195.47 693.92,-197.54 706.47,-199.57"/>
<polygon fill="midnightblue" stroke="midnightblue" points="706.04,-203.05 716.47,-201.19 707.16,-196.14 706.04,-203.05"/>
</g>
<!-- Node12 -->
<g id="node12" class="node">
<title>Node12</title>
<g id="a_node12"><a xlink:href="namespacesrc_1_1eralchemy_1_1parser.html#aaa8d12965e24d3a437fe9605475f9ec1" target="_top" xlink:title=" ">
<polygon fill="white" stroke="black" points="717.5,-148.5 717.5,-178.5 857.5,-178.5 857.5,-148.5 717.5,-148.5"/>
<text text-anchor="start" x="725.5" y="-166.5" font-family="Helvetica,sans-Serif" font-size="10.00">src.eralchemy.parser.update</text>
<text text-anchor="middle" x="787.5" y="-155.5" font-family="Helvetica,sans-Serif" font-size="10.00">_models</text>
</a>
</g>
</g>
<!-- Node10&#45;&gt;Node12 -->
<g id="edge11" class="edge">
<title>Node10&#45;&gt;Node12</title>
<path fill="none" stroke="midnightblue" d="M669.03,-176.59C681.34,-175.22 694.42,-173.76 707.22,-172.33"/>
<polygon fill="midnightblue" stroke="midnightblue" points="707.85,-175.78 717.4,-171.2 707.08,-168.83 707.85,-175.78"/>
</g>
<!-- Node13 -->
<g id="node13" class="node">
<title>Node13</title>
<g id="a_node13"><a xlink:href="namespacesrc_1_1eralchemy_1_1parser.html#a4074827fe7dbe79bd52ab7fce3fec3ff" target="_top" xlink:title=" ">
<polygon fill="white" stroke="black" points="913.5,-197.5 913.5,-227.5 1032.5,-227.5 1032.5,-197.5 913.5,-197.5"/>
<text text-anchor="start" x="921.5" y="-215.5" font-family="Helvetica,sans-Serif" font-size="10.00">src.eralchemy.parser.</text>
<text text-anchor="middle" x="973" y="-204.5" font-family="Helvetica,sans-Serif" font-size="10.00">_check_colname_in_lst</text>
</a>
</g>
</g>
<!-- Node12&#45;&gt;Node13 -->
<g id="edge12" class="edge">
<title>Node12&#45;&gt;Node13</title>
<path fill="none" stroke="midnightblue" d="M844.8,-178.53C864.18,-183.71 886.05,-189.55 906.11,-194.91"/>
<polygon fill="midnightblue" stroke="midnightblue" points="905.24,-198.3 915.8,-197.49 907.04,-191.53 905.24,-198.3"/>
</g>
<!-- Node14 -->
<g id="node14" class="node">
<title>Node14</title>
<g id="a_node14"><a xlink:href="namespacesrc_1_1eralchemy_1_1parser.html#aa39338fd82cbc77e7aa9d11241375d3f" target="_top" xlink:title=" ">
<polygon fill="white" stroke="black" points="910.5,-148.5 910.5,-178.5 1035.5,-178.5 1035.5,-148.5 910.5,-148.5"/>
<text text-anchor="start" x="918.5" y="-166.5" font-family="Helvetica,sans-Serif" font-size="10.00">src.eralchemy.parser.</text>
<text text-anchor="middle" x="973" y="-155.5" font-family="Helvetica,sans-Serif" font-size="10.00">_check_no_current_table</text>
</a>
</g>
</g>
<!-- Node12&#45;&gt;Node14 -->
<g id="edge13" class="edge">
<title>Node12&#45;&gt;Node14</title>
<path fill="none" stroke="midnightblue" d="M857.61,-163.5C871.59,-163.5 886.32,-163.5 900.38,-163.5"/>
<polygon fill="midnightblue" stroke="midnightblue" points="900.49,-167 910.49,-163.5 900.49,-160 900.49,-167"/>
</g>
<!-- Node15 -->
<g id="node15" class="node">
<title>Node15</title>
<g id="a_node15"><a xlink:href="namespacesrc_1_1eralchemy_1_1parser.html#a6ee33be1040bdc3f9d17e30a8667a6bf" target="_top" xlink:title=" ">
<polygon fill="white" stroke="black" points="895,-99.5 895,-129.5 1051,-129.5 1051,-99.5 895,-99.5"/>
<text text-anchor="start" x="903" y="-117.5" font-family="Helvetica,sans-Serif" font-size="10.00">src.eralchemy.parser.</text>
<text text-anchor="middle" x="973" y="-106.5" font-family="Helvetica,sans-Serif" font-size="10.00">_check_not_creating_duplicates</text>
</a>
</g>
</g>
<!-- Node12&#45;&gt;Node15 -->
<g id="edge14" class="edge">
<title>Node12&#45;&gt;Node15</title>
<path fill="none" stroke="midnightblue" d="M844.8,-148.47C864.18,-143.29 886.05,-137.45 906.11,-132.09"/>
<polygon fill="midnightblue" stroke="midnightblue" points="907.04,-135.47 915.8,-129.51 905.24,-128.7 907.04,-135.47"/>
</g>
<!-- Node16 -->
<g id="node16" class="node">
<title>Node16</title>
<g id="a_node16"><a xlink:href="namespacesrc_1_1eralchemy_1_1parser.html#a865f8f738e78ee150ed201fe3f13f066" target="_top" xlink:title=" ">
<polygon fill="white" stroke="black" points="916,-50.5 916,-80.5 1030,-80.5 1030,-50.5 916,-50.5"/>
<text text-anchor="start" x="924" y="-68.5" font-family="Helvetica,sans-Serif" font-size="10.00">src.eralchemy.parser.</text>
<text text-anchor="middle" x="973" y="-57.5" font-family="Helvetica,sans-Serif" font-size="10.00">_update_check_inputs</text>
</a>
</g>
</g>
<!-- Node12&#45;&gt;Node16 -->
<g id="edge15" class="edge">
<title>Node12&#45;&gt;Node16</title>
<path fill="none" stroke="midnightblue" d="M841.82,-148.46C847.89,-145.64 853.77,-142.35 859,-138.5 880.48,-122.7 873.31,-106.01 895,-90.5 898.64,-87.9 902.56,-85.56 906.63,-83.46"/>
<polygon fill="midnightblue" stroke="midnightblue" points="908.17,-86.61 915.77,-79.22 905.22,-80.26 908.17,-86.61"/>
</g>
<!-- Node17&#45;&gt;Node10 -->
<g id="edge17" class="edge">
<title>Node17&#45;&gt;Node10</title>
<path fill="none" stroke="midnightblue" d="M496.02,-169.99C508.18,-171.5 520.73,-173.05 532.79,-174.55"/>
<polygon fill="midnightblue" stroke="midnightblue" points="532.43,-178.03 542.79,-175.79 533.29,-171.08 532.43,-178.03"/>
</g>
<!-- Node18&#45;&gt;Node1 -->
<g id="edge24" class="edge">
<title>Node18&#45;&gt;Node1</title>
<path fill="none" stroke="midnightblue" d="M185.89,-114.92C176.5,-115.15 166.59,-115.26 156.7,-115.25"/>
<polygon fill="midnightblue" stroke="midnightblue" points="156.46,-111.75 146.44,-115.19 156.42,-118.75 156.46,-111.75"/>
</g>
<!-- Node19 -->
<g id="node19" class="node">
<title>Node19</title>
<g id="a_node19"><a xlink:href="namespacesrc_1_1body__extraction_1_1cli__entry.html#aecd587b23033196155b2e453464a7293" target="_top" xlink:title=" ">
<polygon fill="white" stroke="black" points="361,-93.5 361,-123.5 476,-123.5 476,-93.5 361,-93.5"/>
<text text-anchor="start" x="369" y="-111.5" font-family="Helvetica,sans-Serif" font-size="10.00">src.body_extraction.cli</text>
<text text-anchor="middle" x="418.5" y="-100.5" font-family="Helvetica,sans-Serif" font-size="10.00">_entry.check_args</text>
</a>
</g>
</g>
<!-- Node18&#45;&gt;Node19 -->
<g id="edge19" class="edge">
<title>Node18&#45;&gt;Node19</title>
<path fill="none" stroke="midnightblue" d="M301.15,-108.5C316.98,-108.5 334.33,-108.5 350.69,-108.5"/>
<polygon fill="midnightblue" stroke="midnightblue" points="350.73,-112 360.73,-108.5 350.73,-105 350.73,-112"/>
</g>
<!-- Node23 -->
<g id="node23" class="node">
<title>Node23</title>
<g id="a_node23"><a xlink:href="namespacesrc_1_1eralchemy_1_1main.html#a921a1f50101a96f712c68b47137e85f3" target="_top" xlink:title=" ">
<polygon fill="white" stroke="black" points="359,-44.5 359,-74.5 478,-74.5 478,-44.5 359,-44.5"/>
<text text-anchor="start" x="367" y="-62.5" font-family="Helvetica,sans-Serif" font-size="10.00">src.eralchemy.main.get</text>
<text text-anchor="middle" x="418.5" y="-51.5" font-family="Helvetica,sans-Serif" font-size="10.00">_argparser</text>
</a>
</g>
</g>
<!-- Node18&#45;&gt;Node23 -->
<g id="edge23" class="edge">
<title>Node18&#45;&gt;Node23</title>
<path fill="none" stroke="midnightblue" d="M278.27,-98.94C299.98,-92.79 328.86,-84.61 354.68,-77.29"/>
<polygon fill="midnightblue" stroke="midnightblue" points="355.74,-80.63 364.41,-74.54 353.83,-73.89 355.74,-80.63"/>
</g>
<!-- Node20 -->
<g id="node20" class="node">
<title>Node20</title>
<g id="a_node20"><a xlink:href="namespacesrc_1_1body__extraction_1_1cli__entry.html#a74f24adbe2969f94f9d747c25a387dc9" target="_top" xlink:title=" ">
<polygon fill="white" stroke="black" points="547,-88 547,-129 665,-129 665,-88 547,-88"/>
<text text-anchor="start" x="555" y="-117" font-family="Helvetica,sans-Serif" font-size="10.00">src.body_extraction.cli</text>
<text text-anchor="start" x="555" y="-106" font-family="Helvetica,sans-Serif" font-size="10.00">_entry.check_args_has</text>
<text text-anchor="middle" x="606" y="-95" font-family="Helvetica,sans-Serif" font-size="10.00">_attributes</text>
</a>
</g>
</g>
<!-- Node19&#45;&gt;Node20 -->
<g id="edge20" class="edge">
<title>Node19&#45;&gt;Node20</title>
<path fill="none" stroke="midnightblue" d="M476.16,-108.5C495.22,-108.5 516.68,-108.5 536.54,-108.5"/>
<polygon fill="midnightblue" stroke="midnightblue" points="536.76,-112 546.76,-108.5 536.76,-105 536.76,-112"/>
</g>
<!-- Node22 -->
<g id="node22" class="node">
<title>Node22</title>
<g id="a_node22"><a xlink:href="namespacesrc_1_1body__extraction_1_1cli__entry.html#aa7b20ee466231a9108c67f1056536884" target="_top" xlink:title=" ">
<polygon fill="white" stroke="black" points="548.5,-38.5 548.5,-68.5 663.5,-68.5 663.5,-38.5 548.5,-38.5"/>
<text text-anchor="start" x="556.5" y="-56.5" font-family="Helvetica,sans-Serif" font-size="10.00">src.body_extraction.cli</text>
<text text-anchor="middle" x="606" y="-45.5" font-family="Helvetica,sans-Serif" font-size="10.00">_entry.fail</text>
</a>
</g>
</g>
<!-- Node19&#45;&gt;Node22 -->
<g id="edge22" class="edge">
<title>Node19&#45;&gt;Node22</title>
<path fill="none" stroke="midnightblue" d="M470.19,-93.47C493.19,-86.65 520.58,-78.53 544.64,-71.4"/>
<polygon fill="midnightblue" stroke="midnightblue" points="545.78,-74.71 554.37,-68.51 543.79,-68 545.78,-74.71"/>
</g>
<!-- Node21 -->
<g id="node21" class="node">
<title>Node21</title>
<g id="a_node21"><a xlink:href="namespacesrc_1_1body__extraction_1_1cli__entry.html#ac54ec360f3fdef09b455b7f140ca435b" target="_top" xlink:title=" ">
<polygon fill="white" stroke="black" points="728.5,-88 728.5,-129 846.5,-129 846.5,-88 728.5,-88"/>
<text text-anchor="start" x="736.5" y="-117" font-family="Helvetica,sans-Serif" font-size="10.00">src.body_extraction.cli</text>
<text text-anchor="start" x="736.5" y="-106" font-family="Helvetica,sans-Serif" font-size="10.00">_entry.check_args_has</text>
<text text-anchor="middle" x="787.5" y="-95" font-family="Helvetica,sans-Serif" font-size="10.00">_attribute</text>
</a>
</g>
</g>
<!-- Node20&#45;&gt;Node21 -->
<g id="edge21" class="edge">
<title>Node20&#45;&gt;Node21</title>
<path fill="none" stroke="midnightblue" d="M665.28,-108.5C682.14,-108.5 700.69,-108.5 718.11,-108.5"/>
<polygon fill="midnightblue" stroke="midnightblue" points="718.21,-112 728.21,-108.5 718.21,-105 718.21,-112"/>
</g>
</g>
</svg>
