<?xml version="1.0" encoding="UTF-8" standalone="no"?>
<!DOCTYPE svg PUBLIC "-//W3C//DTD SVG 1.1//EN"
 "http://www.w3.org/Graphics/SVG/1.1/DTD/svg11.dtd">
<!-- Generated by graphviz version 2.47.1 (20210417.1919)
 -->
<!-- Title: src.lemma_extraction.cli_entry.cli Pages: 1 -->
<svg width="684pt" height="112pt"
 viewBox="0.00 0.00 684.00 112.00" xmlns="http://www.w3.org/2000/svg" xmlns:xlink="http://www.w3.org/1999/xlink">
<g id="graph0" class="graph" transform="scale(1 1) rotate(0) translate(4 108)">
<title>src.lemma_extraction.cli_entry.cli</title>
<polygon fill="white" stroke="transparent" points="-4,4 -4,-108 680,-108 680,4 -4,4"/>
<!-- Node1 -->
<g id="node1" class="node">
<title>Node1</title>
<g id="a_node1"><a xlink:title=" ">
<polygon fill="#bfbfbf" stroke="black" points="0,-24.5 0,-54.5 123,-54.5 123,-24.5 0,-24.5"/>
<text text-anchor="start" x="8" y="-42.5" font-family="Helvetica,sans-Serif" font-size="10.00">src.lemma_extraction.cli</text>
<text text-anchor="middle" x="61.5" y="-31.5" font-family="Helvetica,sans-Serif" font-size="10.00">_entry.cli</text>
</a>
</g>
</g>
<!-- Node2 -->
<g id="node2" class="node">
<title>Node2</title>
<g id="a_node2"><a xlink:href="namespacesrc_1_1lemma__extraction_1_1cli__entry.html#ad723475a45a213a43d36d89997b75287" target="_top" xlink:title=" ">
<polygon fill="white" stroke="black" points="159,-49.5 159,-79.5 282,-79.5 282,-49.5 159,-49.5"/>
<text text-anchor="start" x="167" y="-67.5" font-family="Helvetica,sans-Serif" font-size="10.00">src.lemma_extraction.cli</text>
<text text-anchor="middle" x="220.5" y="-56.5" font-family="Helvetica,sans-Serif" font-size="10.00">_entry.check_args</text>
</a>
</g>
</g>
<!-- Node1&#45;&gt;Node2 -->
<g id="edge1" class="edge">
<title>Node1&#45;&gt;Node2</title>
<path fill="none" stroke="midnightblue" d="M123.2,-49.17C131.64,-50.51 140.36,-51.9 148.95,-53.27"/>
<polygon fill="midnightblue" stroke="midnightblue" points="148.54,-56.74 158.96,-54.86 149.64,-49.83 148.54,-56.74"/>
</g>
<!-- Node6 -->
<g id="node6" class="node">
<title>Node6</title>
<g id="a_node6"><a xlink:href="namespacesrc_1_1lemma__extraction_1_1cli__entry.html#afc1ead06b9d070e9ee452a0ffe6bbce9" target="_top" xlink:title=" ">
<polygon fill="white" stroke="black" points="159,-0.5 159,-30.5 282,-30.5 282,-0.5 159,-0.5"/>
<text text-anchor="start" x="167" y="-18.5" font-family="Helvetica,sans-Serif" font-size="10.00">src.lemma_extraction.cli</text>
<text text-anchor="middle" x="220.5" y="-7.5" font-family="Helvetica,sans-Serif" font-size="10.00">_entry.get_argparser</text>
</a>
</g>
</g>
<!-- Node1&#45;&gt;Node6 -->
<g id="edge5" class="edge">
<title>Node1&#45;&gt;Node6</title>
<path fill="none" stroke="midnightblue" d="M123.2,-30.22C131.64,-28.93 140.36,-27.6 148.95,-26.28"/>
<polygon fill="midnightblue" stroke="midnightblue" points="149.6,-29.73 158.96,-24.75 148.55,-22.81 149.6,-29.73"/>
</g>
<!-- Node3 -->
<g id="node3" class="node">
<title>Node3</title>
<g id="a_node3"><a xlink:href="namespacesrc_1_1lemma__extraction_1_1cli__entry.html#a3dc4421cb1e81195ce6763980f0bb0ac" target="_top" xlink:title=" ">
<polygon fill="white" stroke="black" points="318,-73.5 318,-103.5 482,-103.5 482,-73.5 318,-73.5"/>
<text text-anchor="start" x="326" y="-91.5" font-family="Helvetica,sans-Serif" font-size="10.00">src.lemma_extraction.cli</text>
<text text-anchor="middle" x="400" y="-80.5" font-family="Helvetica,sans-Serif" font-size="10.00">_entry.check_args_has_attributes</text>
</a>
</g>
</g>
<!-- Node2&#45;&gt;Node3 -->
<g id="edge2" class="edge">
<title>Node2&#45;&gt;Node3</title>
<path fill="none" stroke="midnightblue" d="M282.09,-72.69C290.48,-73.83 299.25,-75.01 308.04,-76.2"/>
<polygon fill="midnightblue" stroke="midnightblue" points="307.59,-79.67 317.97,-77.54 308.52,-72.73 307.59,-79.67"/>
</g>
<!-- Node5 -->
<g id="node5" class="node">
<title>Node5</title>
<g id="a_node5"><a xlink:href="namespacesrc_1_1lemma__extraction_1_1cli__entry.html#a8060e982f53b727d2ff64e099a71803b" target="_top" xlink:title=" ">
<polygon fill="white" stroke="black" points="338.5,-24.5 338.5,-54.5 461.5,-54.5 461.5,-24.5 338.5,-24.5"/>
<text text-anchor="start" x="346.5" y="-42.5" font-family="Helvetica,sans-Serif" font-size="10.00">src.lemma_extraction.cli</text>
<text text-anchor="middle" x="400" y="-31.5" font-family="Helvetica,sans-Serif" font-size="10.00">_entry.fail</text>
</a>
</g>
</g>
<!-- Node2&#45;&gt;Node5 -->
<g id="edge4" class="edge">
<title>Node2&#45;&gt;Node5</title>
<path fill="none" stroke="midnightblue" d="M282.09,-55.97C297,-53.87 313.1,-51.6 328.43,-49.44"/>
<polygon fill="midnightblue" stroke="midnightblue" points="328.97,-52.9 338.38,-48.04 327.99,-45.97 328.97,-52.9"/>
</g>
<!-- Node4 -->
<g id="node4" class="node">
<title>Node4</title>
<g id="a_node4"><a xlink:href="namespacesrc_1_1lemma__extraction_1_1cli__entry.html#adfc9f4bf2a4fc8177875b024fad48106" target="_top" xlink:title=" ">
<polygon fill="white" stroke="black" points="518,-73.5 518,-103.5 676,-103.5 676,-73.5 518,-73.5"/>
<text text-anchor="start" x="526" y="-91.5" font-family="Helvetica,sans-Serif" font-size="10.00">src.lemma_extraction.cli</text>
<text text-anchor="middle" x="597" y="-80.5" font-family="Helvetica,sans-Serif" font-size="10.00">_entry.check_args_has_attribute</text>
</a>
</g>
</g>
<!-- Node3&#45;&gt;Node4 -->
<g id="edge3" class="edge">
<title>Node3&#45;&gt;Node4</title>
<path fill="none" stroke="midnightblue" d="M482,-88.5C490.5,-88.5 499.17,-88.5 507.75,-88.5"/>
<polygon fill="midnightblue" stroke="midnightblue" points="507.75,-92 517.75,-88.5 507.75,-85 507.75,-92"/>
</g>
</g>
</svg>
