<?xml version="1.0" encoding="UTF-8" standalone="no"?>
<!DOCTYPE svg PUBLIC "-//W3C//DTD SVG 1.1//EN"
 "http://www.w3.org/Graphics/SVG/1.1/DTD/svg11.dtd">
<!-- Generated by graphviz version 2.47.1 (20210417.1919)
 -->
<!-- Title: src.db_tools.database_consolidation.doit_generate_erd Pages: 1 -->
<svg width="1448pt" height="334pt"
 viewBox="0.00 0.00 1448.00 334.00" xmlns="http://www.w3.org/2000/svg" xmlns:xlink="http://www.w3.org/1999/xlink">
<g id="graph0" class="graph" transform="scale(1 1) rotate(0) translate(4 330)">
<title>src.db_tools.database_consolidation.doit_generate_erd</title>
<polygon fill="white" stroke="transparent" points="-4,4 -4,-330 1444,-330 1444,4 -4,4"/>
<!-- Node1 -->
<g id="node1" class="node">
<title>Node1</title>
<g id="a_node1"><a xlink:title=" ">
<polygon fill="#bfbfbf" stroke="black" points="0,-93.5 0,-123.5 159,-123.5 159,-93.5 0,-93.5"/>
<text text-anchor="start" x="8" y="-111.5" font-family="Helvetica,sans-Serif" font-size="10.00">src.db_tools.database</text>
<text text-anchor="middle" x="79.5" y="-100.5" font-family="Helvetica,sans-Serif" font-size="10.00">_consolidation.doit_generate_erd</text>
</a>
</g>
</g>
<!-- Node2 -->
<g id="node2" class="node">
<title>Node2</title>
<g id="a_node2"><a xlink:href="namespacesrc_1_1eralchemy_1_1main.html#a5387e0a7c14b44fd86de8ede390bed04" target="_top" xlink:title=" ">
<polygon fill="white" stroke="black" points="195,-99 195,-118 341,-118 341,-99 195,-99"/>
<text text-anchor="middle" x="268" y="-106" font-family="Helvetica,sans-Serif" font-size="10.00">src.eralchemy.main.render_er</text>
</a>
</g>
</g>
<!-- Node1&#45;&gt;Node2 -->
<g id="edge1" class="edge">
<title>Node1&#45;&gt;Node2</title>
<path fill="none" stroke="midnightblue" d="M159.05,-108.5C167.47,-108.5 176.06,-108.5 184.53,-108.5"/>
<polygon fill="midnightblue" stroke="midnightblue" points="184.77,-112 194.77,-108.5 184.77,-105 184.77,-112"/>
</g>
<!-- Node3 -->
<g id="node3" class="node">
<title>Node3</title>
<g id="a_node3"><a xlink:href="namespacesrc_1_1eralchemy_1_1main.html#a9fac164b40f74cd204823413bbc5c01d" target="_top" xlink:title=" ">
<polygon fill="white" stroke="black" points="381,-167.5 381,-197.5 496,-197.5 496,-167.5 381,-167.5"/>
<text text-anchor="start" x="389" y="-185.5" font-family="Helvetica,sans-Serif" font-size="10.00">src.eralchemy.main.all</text>
<text text-anchor="middle" x="438.5" y="-174.5" font-family="Helvetica,sans-Serif" font-size="10.00">_to_intermediary</text>
</a>
</g>
</g>
<!-- Node2&#45;&gt;Node3 -->
<g id="edge2" class="edge">
<title>Node2&#45;&gt;Node3</title>
<path fill="none" stroke="midnightblue" d="M290.68,-118.02C316.57,-129.39 360.51,-148.69 393.59,-163.22"/>
<polygon fill="midnightblue" stroke="midnightblue" points="392.48,-166.55 403.05,-167.37 395.3,-160.14 392.48,-166.55"/>
</g>
<!-- Node19 -->
<g id="node19" class="node">
<title>Node19</title>
<g id="a_node19"><a xlink:href="namespacesrc_1_1eralchemy_1_1main.html#afd606a75c08edb3181030c5b1ce3b5aa" target="_top" xlink:title=" ">
<polygon fill="white" stroke="black" points="381,-99 381,-118 496,-118 496,-99 381,-99"/>
<text text-anchor="middle" x="438.5" y="-106" font-family="Helvetica,sans-Serif" font-size="10.00">src.eralchemy.main.cli</text>
</a>
</g>
</g>
<!-- Node2&#45;&gt;Node19 -->
<g id="edge19" class="edge">
<title>Node2&#45;&gt;Node19</title>
<path fill="none" stroke="midnightblue" d="M341.44,-101.81C351.13,-101.71 361.04,-101.73 370.63,-101.88"/>
<polygon fill="midnightblue" stroke="midnightblue" points="370.83,-105.38 380.89,-102.08 370.97,-98.39 370.83,-105.38"/>
</g>
<!-- Node25 -->
<g id="node25" class="node">
<title>Node25</title>
<g id="a_node25"><a xlink:href="namespacesrc_1_1eralchemy_1_1main.html#a6718b3d4e1e90e2f41ba8ca2cf54393e" target="_top" xlink:title=" ">
<polygon fill="white" stroke="black" points="377,-49.5 377,-79.5 500,-79.5 500,-49.5 377,-49.5"/>
<text text-anchor="start" x="385" y="-67.5" font-family="Helvetica,sans-Serif" font-size="10.00">src.eralchemy.main.filter</text>
<text text-anchor="middle" x="438.5" y="-56.5" font-family="Helvetica,sans-Serif" font-size="10.00">_resources</text>
</a>
</g>
</g>
<!-- Node2&#45;&gt;Node25 -->
<g id="edge26" class="edge">
<title>Node2&#45;&gt;Node25</title>
<path fill="none" stroke="midnightblue" d="M305.56,-98.95C324.36,-94.04 347.89,-87.9 369.85,-82.17"/>
<polygon fill="midnightblue" stroke="midnightblue" points="371.02,-85.48 379.81,-79.57 369.25,-78.71 371.02,-85.48"/>
</g>
<!-- Node26 -->
<g id="node26" class="node">
<title>Node26</title>
<g id="a_node26"><a xlink:href="namespacesrc_1_1eralchemy_1_1main.html#ac3f7087a073800cd04d6ceb584721e06" target="_top" xlink:title=" ">
<polygon fill="white" stroke="black" points="379,-0.5 379,-30.5 498,-30.5 498,-0.5 379,-0.5"/>
<text text-anchor="start" x="387" y="-18.5" font-family="Helvetica,sans-Serif" font-size="10.00">src.eralchemy.main.get</text>
<text text-anchor="middle" x="438.5" y="-7.5" font-family="Helvetica,sans-Serif" font-size="10.00">_output_mode</text>
</a>
</g>
</g>
<!-- Node2&#45;&gt;Node26 -->
<g id="edge27" class="edge">
<title>Node2&#45;&gt;Node26</title>
<path fill="none" stroke="midnightblue" d="M282.15,-98.93C302.01,-84.74 341.15,-57.85 377,-39.5 380.26,-37.83 383.66,-36.2 387.12,-34.63"/>
<polygon fill="midnightblue" stroke="midnightblue" points="388.59,-37.81 396.35,-30.59 385.78,-31.39 388.59,-37.81"/>
</g>
<!-- Node4 -->
<g id="node4" class="node">
<title>Node4</title>
<g id="a_node4"><a xlink:href="namespacesrc_1_1eralchemy_1_1sqla.html#a45674eee4c7ce1d82b7f99a285958c1d" target="_top" xlink:title=" ">
<polygon fill="white" stroke="black" points="542.5,-239.5 542.5,-269.5 684.5,-269.5 684.5,-239.5 542.5,-239.5"/>
<text text-anchor="start" x="550.5" y="-257.5" font-family="Helvetica,sans-Serif" font-size="10.00">src.eralchemy.sqla.database</text>
<text text-anchor="middle" x="613.5" y="-246.5" font-family="Helvetica,sans-Serif" font-size="10.00">_to_intermediary</text>
</a>
</g>
</g>
<!-- Node3&#45;&gt;Node4 -->
<g id="edge3" class="edge">
<title>Node3&#45;&gt;Node4</title>
<path fill="none" stroke="midnightblue" d="M475.77,-197.59C502.29,-208.63 538.47,-223.69 566.94,-235.54"/>
<polygon fill="midnightblue" stroke="midnightblue" points="565.7,-238.82 576.28,-239.43 568.39,-232.35 565.7,-238.82"/>
</g>
<!-- Node11 -->
<g id="node11" class="node">
<title>Node11</title>
<g id="a_node11"><a xlink:href="namespacesrc_1_1eralchemy_1_1parser.html#ae896c00e0ce3280fd4a5f84bb3b13da5" target="_top" xlink:title=" ">
<polygon fill="white" stroke="black" points="738,-168.5 738,-198.5 864,-198.5 864,-168.5 738,-168.5"/>
<text text-anchor="start" x="746" y="-186.5" font-family="Helvetica,sans-Serif" font-size="10.00">src.eralchemy.parser.line</text>
<text text-anchor="middle" x="801" y="-175.5" font-family="Helvetica,sans-Serif" font-size="10.00">_iterator_to_intermediary</text>
</a>
</g>
</g>
<!-- Node3&#45;&gt;Node11 -->
<g id="edge10" class="edge">
<title>Node3&#45;&gt;Node11</title>
<path fill="none" stroke="midnightblue" d="M496.13,-184.55C509.22,-184.95 523.1,-185.3 536,-185.5 604.88,-186.57 622.11,-186.13 691,-185.5 702.83,-185.39 715.38,-185.22 727.59,-185.01"/>
<polygon fill="midnightblue" stroke="midnightblue" points="727.81,-188.51 737.75,-184.84 727.69,-181.51 727.81,-188.51"/>
</g>
<!-- Node18 -->
<g id="node18" class="node">
<title>Node18</title>
<g id="a_node18"><a xlink:href="namespacesrc_1_1eralchemy_1_1parser.html#a4ae9323517c46eeb4ed9d87588832be2" target="_top" xlink:title=" ">
<polygon fill="white" stroke="black" points="536,-145.5 536,-175.5 691,-175.5 691,-145.5 536,-145.5"/>
<text text-anchor="start" x="544" y="-163.5" font-family="Helvetica,sans-Serif" font-size="10.00">src.eralchemy.parser.markdown</text>
<text text-anchor="middle" x="613.5" y="-152.5" font-family="Helvetica,sans-Serif" font-size="10.00">_file_to_intermediary</text>
</a>
</g>
</g>
<!-- Node3&#45;&gt;Node18 -->
<g id="edge17" class="edge">
<title>Node3&#45;&gt;Node18</title>
<path fill="none" stroke="midnightblue" d="M496.15,-175.3C505.68,-174.08 515.77,-172.8 525.85,-171.52"/>
<polygon fill="midnightblue" stroke="midnightblue" points="526.44,-174.97 535.92,-170.24 525.56,-168.03 526.44,-174.97"/>
</g>
<!-- Node5 -->
<g id="node5" class="node">
<title>Node5</title>
<g id="a_node5"><a xlink:href="namespacesrc_1_1eralchemy_1_1sqla.html#a08828ed118d96f46452d9c55a5080c78" target="_top" xlink:title=" ">
<polygon fill="white" stroke="black" points="727,-242.5 727,-272.5 875,-272.5 875,-242.5 727,-242.5"/>
<text text-anchor="start" x="735" y="-260.5" font-family="Helvetica,sans-Serif" font-size="10.00">src.eralchemy.sqla.declarative</text>
<text text-anchor="middle" x="801" y="-249.5" font-family="Helvetica,sans-Serif" font-size="10.00">_to_intermediary</text>
</a>
</g>
</g>
<!-- Node4&#45;&gt;Node5 -->
<g id="edge4" class="edge">
<title>Node4&#45;&gt;Node5</title>
<path fill="none" stroke="midnightblue" d="M684.63,-255.63C695.13,-255.8 706.03,-255.98 716.77,-256.15"/>
<polygon fill="midnightblue" stroke="midnightblue" points="716.94,-259.66 726.99,-256.32 717.05,-252.66 716.94,-259.66"/>
</g>
<!-- Node6 -->
<g id="node6" class="node">
<title>Node6</title>
<g id="a_node6"><a xlink:href="namespacesrc_1_1eralchemy_1_1sqla.html#a8c80e60516d371d4404a1040516f88ea" target="_top" xlink:title=" ">
<polygon fill="white" stroke="black" points="911,-246.5 911,-276.5 1054,-276.5 1054,-246.5 911,-246.5"/>
<text text-anchor="start" x="919" y="-264.5" font-family="Helvetica,sans-Serif" font-size="10.00">src.eralchemy.sqla.metadata</text>
<text text-anchor="middle" x="982.5" y="-253.5" font-family="Helvetica,sans-Serif" font-size="10.00">_to_intermediary</text>
</a>
</g>
</g>
<!-- Node5&#45;&gt;Node6 -->
<g id="edge5" class="edge">
<title>Node5&#45;&gt;Node6</title>
<path fill="none" stroke="midnightblue" d="M875.01,-259.13C883.52,-259.32 892.24,-259.51 900.85,-259.7"/>
<polygon fill="midnightblue" stroke="midnightblue" points="900.8,-263.2 910.88,-259.93 900.96,-256.2 900.8,-263.2"/>
</g>
<!-- Node7 -->
<g id="node7" class="node">
<title>Node7</title>
<g id="a_node7"><a xlink:href="namespacesrc_1_1eralchemy_1_1sqla.html#aecf50970e801a99f0a0373b9bd5c2988" target="_top" xlink:title=" ">
<polygon fill="white" stroke="black" points="1101,-295.5 1101,-325.5 1235,-325.5 1235,-295.5 1101,-295.5"/>
<text text-anchor="start" x="1109" y="-313.5" font-family="Helvetica,sans-Serif" font-size="10.00">src.eralchemy.sqla.relation</text>
<text text-anchor="middle" x="1168" y="-302.5" font-family="Helvetica,sans-Serif" font-size="10.00">_to_intermediary</text>
</a>
</g>
</g>
<!-- Node6&#45;&gt;Node7 -->
<g id="edge6" class="edge">
<title>Node6&#45;&gt;Node7</title>
<path fill="none" stroke="midnightblue" d="M1039.8,-276.53C1059.18,-281.71 1081.05,-287.55 1101.11,-292.91"/>
<polygon fill="midnightblue" stroke="midnightblue" points="1100.24,-296.3 1110.8,-295.49 1102.04,-289.53 1100.24,-296.3"/>
</g>
<!-- Node9 -->
<g id="node9" class="node">
<title>Node9</title>
<g id="a_node9"><a xlink:href="namespacesrc_1_1eralchemy_1_1sqla.html#ac1b6d81b9b494b0b3b9775947dbae11f" target="_top" xlink:title=" ">
<polygon fill="white" stroke="black" points="1106.5,-246.5 1106.5,-276.5 1229.5,-276.5 1229.5,-246.5 1106.5,-246.5"/>
<text text-anchor="start" x="1114.5" y="-264.5" font-family="Helvetica,sans-Serif" font-size="10.00">src.eralchemy.sqla.table</text>
<text text-anchor="middle" x="1168" y="-253.5" font-family="Helvetica,sans-Serif" font-size="10.00">_to_intermediary</text>
</a>
</g>
</g>
<!-- Node6&#45;&gt;Node9 -->
<g id="edge8" class="edge">
<title>Node6&#45;&gt;Node9</title>
<path fill="none" stroke="midnightblue" d="M1054.18,-261.5C1067.86,-261.5 1082.2,-261.5 1095.89,-261.5"/>
<polygon fill="midnightblue" stroke="midnightblue" points="1096.21,-265 1106.21,-261.5 1096.21,-258 1096.21,-265"/>
</g>
<!-- Node8 -->
<g id="node8" class="node">
<title>Node8</title>
<g id="a_node8"><a xlink:href="namespacesrc_1_1eralchemy_1_1sqla.html#a74f56fbe681e9a1b0d0c0b0832b91509" target="_top" xlink:title=" ">
<polygon fill="white" stroke="black" points="1282,-301 1282,-320 1440,-320 1440,-301 1282,-301"/>
<text text-anchor="middle" x="1361" y="-308" font-family="Helvetica,sans-Serif" font-size="10.00">src.eralchemy.sqla.format_name</text>
</a>
</g>
</g>
<!-- Node7&#45;&gt;Node8 -->
<g id="edge7" class="edge">
<title>Node7&#45;&gt;Node8</title>
<path fill="none" stroke="midnightblue" d="M1235.27,-310.5C1246.97,-310.5 1259.32,-310.5 1271.51,-310.5"/>
<polygon fill="midnightblue" stroke="midnightblue" points="1271.7,-314 1281.7,-310.5 1271.7,-307 1271.7,-314"/>
</g>
<!-- Node10 -->
<g id="node10" class="node">
<title>Node10</title>
<g id="a_node10"><a xlink:href="namespacesrc_1_1eralchemy_1_1sqla.html#a4ccd81ff2afbcbd286013a8e85f016fe" target="_top" xlink:title=" ">
<polygon fill="white" stroke="black" points="1294,-246.5 1294,-276.5 1428,-276.5 1428,-246.5 1294,-246.5"/>
<text text-anchor="start" x="1302" y="-264.5" font-family="Helvetica,sans-Serif" font-size="10.00">src.eralchemy.sqla.column</text>
<text text-anchor="middle" x="1361" y="-253.5" font-family="Helvetica,sans-Serif" font-size="10.00">_to_intermediary</text>
</a>
</g>
</g>
<!-- Node9&#45;&gt;Node10 -->
<g id="edge9" class="edge">
<title>Node9&#45;&gt;Node10</title>
<path fill="none" stroke="midnightblue" d="M1229.7,-261.5C1246.85,-261.5 1265.74,-261.5 1283.69,-261.5"/>
<polygon fill="midnightblue" stroke="midnightblue" points="1283.84,-265 1293.84,-261.5 1283.84,-258 1283.84,-265"/>
</g>
<!-- Node12 -->
<g id="node12" class="node">
<title>Node12</title>
<g id="a_node12"><a xlink:href="namespacesrc_1_1eralchemy_1_1parser.html#af2c09125da4fddcf62bd70475bd1c156" target="_top" xlink:title=" ">
<polygon fill="white" stroke="black" points="911.5,-197.5 911.5,-227.5 1053.5,-227.5 1053.5,-197.5 911.5,-197.5"/>
<text text-anchor="start" x="919.5" y="-215.5" font-family="Helvetica,sans-Serif" font-size="10.00">src.eralchemy.parser.remove</text>
<text text-anchor="middle" x="982.5" y="-204.5" font-family="Helvetica,sans-Serif" font-size="10.00">_comments_from_line</text>
</a>
</g>
</g>
<!-- Node11&#45;&gt;Node12 -->
<g id="edge11" class="edge">
<title>Node11&#45;&gt;Node12</title>
<path fill="none" stroke="midnightblue" d="M864.03,-193.52C876.1,-195.47 888.92,-197.54 901.47,-199.57"/>
<polygon fill="midnightblue" stroke="midnightblue" points="901.04,-203.05 911.47,-201.19 902.16,-196.14 901.04,-203.05"/>
</g>
<!-- Node13 -->
<g id="node13" class="node">
<title>Node13</title>
<g id="a_node13"><a xlink:href="namespacesrc_1_1eralchemy_1_1parser.html#aaa8d12965e24d3a437fe9605475f9ec1" target="_top" xlink:title=" ">
<polygon fill="white" stroke="black" points="912.5,-148.5 912.5,-178.5 1052.5,-178.5 1052.5,-148.5 912.5,-148.5"/>
<text text-anchor="start" x="920.5" y="-166.5" font-family="Helvetica,sans-Serif" font-size="10.00">src.eralchemy.parser.update</text>
<text text-anchor="middle" x="982.5" y="-155.5" font-family="Helvetica,sans-Serif" font-size="10.00">_models</text>
</a>
</g>
</g>
<!-- Node11&#45;&gt;Node13 -->
<g id="edge12" class="edge">
<title>Node11&#45;&gt;Node13</title>
<path fill="none" stroke="midnightblue" d="M864.03,-176.59C876.34,-175.22 889.42,-173.76 902.22,-172.33"/>
<polygon fill="midnightblue" stroke="midnightblue" points="902.85,-175.78 912.4,-171.2 902.08,-168.83 902.85,-175.78"/>
</g>
<!-- Node14 -->
<g id="node14" class="node">
<title>Node14</title>
<g id="a_node14"><a xlink:href="namespacesrc_1_1eralchemy_1_1parser.html#a4074827fe7dbe79bd52ab7fce3fec3ff" target="_top" xlink:title=" ">
<polygon fill="white" stroke="black" points="1108.5,-197.5 1108.5,-227.5 1227.5,-227.5 1227.5,-197.5 1108.5,-197.5"/>
<text text-anchor="start" x="1116.5" y="-215.5" font-family="Helvetica,sans-Serif" font-size="10.00">src.eralchemy.parser.</text>
<text text-anchor="middle" x="1168" y="-204.5" font-family="Helvetica,sans-Serif" font-size="10.00">_check_colname_in_lst</text>
</a>
</g>
</g>
<!-- Node13&#45;&gt;Node14 -->
<g id="edge13" class="edge">
<title>Node13&#45;&gt;Node14</title>
<path fill="none" stroke="midnightblue" d="M1039.8,-178.53C1059.18,-183.71 1081.05,-189.55 1101.11,-194.91"/>
<polygon fill="midnightblue" stroke="midnightblue" points="1100.24,-198.3 1110.8,-197.49 1102.04,-191.53 1100.24,-198.3"/>
</g>
<!-- Node15 -->
<g id="node15" class="node">
<title>Node15</title>
<g id="a_node15"><a xlink:href="namespacesrc_1_1eralchemy_1_1parser.html#aa39338fd82cbc77e7aa9d11241375d3f" target="_top" xlink:title=" ">
<polygon fill="white" stroke="black" points="1105.5,-148.5 1105.5,-178.5 1230.5,-178.5 1230.5,-148.5 1105.5,-148.5"/>
<text text-anchor="start" x="1113.5" y="-166.5" font-family="Helvetica,sans-Serif" font-size="10.00">src.eralchemy.parser.</text>
<text text-anchor="middle" x="1168" y="-155.5" font-family="Helvetica,sans-Serif" font-size="10.00">_check_no_current_table</text>
</a>
</g>
</g>
<!-- Node13&#45;&gt;Node15 -->
<g id="edge14" class="edge">
<title>Node13&#45;&gt;Node15</title>
<path fill="none" stroke="midnightblue" d="M1052.61,-163.5C1066.59,-163.5 1081.32,-163.5 1095.38,-163.5"/>
<polygon fill="midnightblue" stroke="midnightblue" points="1095.49,-167 1105.49,-163.5 1095.49,-160 1095.49,-167"/>
</g>
<!-- Node16 -->
<g id="node16" class="node">
<title>Node16</title>
<g id="a_node16"><a xlink:href="namespacesrc_1_1eralchemy_1_1parser.html#a6ee33be1040bdc3f9d17e30a8667a6bf" target="_top" xlink:title=" ">
<polygon fill="white" stroke="black" points="1090,-99.5 1090,-129.5 1246,-129.5 1246,-99.5 1090,-99.5"/>
<text text-anchor="start" x="1098" y="-117.5" font-family="Helvetica,sans-Serif" font-size="10.00">src.eralchemy.parser.</text>
<text text-anchor="middle" x="1168" y="-106.5" font-family="Helvetica,sans-Serif" font-size="10.00">_check_not_creating_duplicates</text>
</a>
</g>
</g>
<!-- Node13&#45;&gt;Node16 -->
<g id="edge15" class="edge">
<title>Node13&#45;&gt;Node16</title>
<path fill="none" stroke="midnightblue" d="M1039.8,-148.47C1059.18,-143.29 1081.05,-137.45 1101.11,-132.09"/>
<polygon fill="midnightblue" stroke="midnightblue" points="1102.04,-135.47 1110.8,-129.51 1100.24,-128.7 1102.04,-135.47"/>
</g>
<!-- Node17 -->
<g id="node17" class="node">
<title>Node17</title>
<g id="a_node17"><a xlink:href="namespacesrc_1_1eralchemy_1_1parser.html#a865f8f738e78ee150ed201fe3f13f066" target="_top" xlink:title=" ">
<polygon fill="white" stroke="black" points="1111,-50.5 1111,-80.5 1225,-80.5 1225,-50.5 1111,-50.5"/>
<text text-anchor="start" x="1119" y="-68.5" font-family="Helvetica,sans-Serif" font-size="10.00">src.eralchemy.parser.</text>
<text text-anchor="middle" x="1168" y="-57.5" font-family="Helvetica,sans-Serif" font-size="10.00">_update_check_inputs</text>
</a>
</g>
</g>
<!-- Node13&#45;&gt;Node17 -->
<g id="edge16" class="edge">
<title>Node13&#45;&gt;Node17</title>
<path fill="none" stroke="midnightblue" d="M1036.82,-148.46C1042.89,-145.64 1048.77,-142.35 1054,-138.5 1075.48,-122.7 1068.31,-106.01 1090,-90.5 1093.64,-87.9 1097.56,-85.56 1101.63,-83.46"/>
<polygon fill="midnightblue" stroke="midnightblue" points="1103.17,-86.61 1110.77,-79.22 1100.22,-80.26 1103.17,-86.61"/>
</g>
<!-- Node18&#45;&gt;Node11 -->
<g id="edge18" class="edge">
<title>Node18&#45;&gt;Node11</title>
<path fill="none" stroke="midnightblue" d="M691.02,-169.99C703.18,-171.5 715.73,-173.05 727.79,-174.55"/>
<polygon fill="midnightblue" stroke="midnightblue" points="727.43,-178.03 737.79,-175.79 728.29,-171.08 727.43,-178.03"/>
</g>
<!-- Node19&#45;&gt;Node2 -->
<g id="edge25" class="edge">
<title>Node19&#45;&gt;Node2</title>
<path fill="none" stroke="midnightblue" d="M380.89,-114.92C371.5,-115.15 361.59,-115.26 351.7,-115.25"/>
<polygon fill="midnightblue" stroke="midnightblue" points="351.46,-111.75 341.44,-115.19 351.42,-118.75 351.46,-111.75"/>
</g>
<!-- Node20 -->
<g id="node20" class="node">
<title>Node20</title>
<g id="a_node20"><a xlink:href="namespacesrc_1_1body__extraction_1_1cli__entry.html#aecd587b23033196155b2e453464a7293" target="_top" xlink:title=" ">
<polygon fill="white" stroke="black" points="556,-93.5 556,-123.5 671,-123.5 671,-93.5 556,-93.5"/>
<text text-anchor="start" x="564" y="-111.5" font-family="Helvetica,sans-Serif" font-size="10.00">src.body_extraction.cli</text>
<text text-anchor="middle" x="613.5" y="-100.5" font-family="Helvetica,sans-Serif" font-size="10.00">_entry.check_args</text>
</a>
</g>
</g>
<!-- Node19&#45;&gt;Node20 -->
<g id="edge20" class="edge">
<title>Node19&#45;&gt;Node20</title>
<path fill="none" stroke="midnightblue" d="M496.15,-108.5C511.98,-108.5 529.33,-108.5 545.69,-108.5"/>
<polygon fill="midnightblue" stroke="midnightblue" points="545.73,-112 555.73,-108.5 545.73,-105 545.73,-112"/>
</g>
<!-- Node24 -->
<g id="node24" class="node">
<title>Node24</title>
<g id="a_node24"><a xlink:href="namespacesrc_1_1eralchemy_1_1main.html#a921a1f50101a96f712c68b47137e85f3" target="_top" xlink:title=" ">
<polygon fill="white" stroke="black" points="554,-44.5 554,-74.5 673,-74.5 673,-44.5 554,-44.5"/>
<text text-anchor="start" x="562" y="-62.5" font-family="Helvetica,sans-Serif" font-size="10.00">src.eralchemy.main.get</text>
<text text-anchor="middle" x="613.5" y="-51.5" font-family="Helvetica,sans-Serif" font-size="10.00">_argparser</text>
</a>
</g>
</g>
<!-- Node19&#45;&gt;Node24 -->
<g id="edge24" class="edge">
<title>Node19&#45;&gt;Node24</title>
<path fill="none" stroke="midnightblue" d="M473.27,-98.94C494.98,-92.79 523.86,-84.61 549.68,-77.29"/>
<polygon fill="midnightblue" stroke="midnightblue" points="550.74,-80.63 559.41,-74.54 548.83,-73.89 550.74,-80.63"/>
</g>
<!-- Node21 -->
<g id="node21" class="node">
<title>Node21</title>
<g id="a_node21"><a xlink:href="namespacesrc_1_1body__extraction_1_1cli__entry.html#a74f24adbe2969f94f9d747c25a387dc9" target="_top" xlink:title=" ">
<polygon fill="white" stroke="black" points="742,-88 742,-129 860,-129 860,-88 742,-88"/>
<text text-anchor="start" x="750" y="-117" font-family="Helvetica,sans-Serif" font-size="10.00">src.body_extraction.cli</text>
<text text-anchor="start" x="750" y="-106" font-family="Helvetica,sans-Serif" font-size="10.00">_entry.check_args_has</text>
<text text-anchor="middle" x="801" y="-95" font-family="Helvetica,sans-Serif" font-size="10.00">_attributes</text>
</a>
</g>
</g>
<!-- Node20&#45;&gt;Node21 -->
<g id="edge21" class="edge">
<title>Node20&#45;&gt;Node21</title>
<path fill="none" stroke="midnightblue" d="M671.16,-108.5C690.22,-108.5 711.68,-108.5 731.54,-108.5"/>
<polygon fill="midnightblue" stroke="midnightblue" points="731.76,-112 741.76,-108.5 731.76,-105 731.76,-112"/>
</g>
<!-- Node23 -->
<g id="node23" class="node">
<title>Node23</title>
<g id="a_node23"><a xlink:href="namespacesrc_1_1body__extraction_1_1cli__entry.html#aa7b20ee466231a9108c67f1056536884" target="_top" xlink:title=" ">
<polygon fill="white" stroke="black" points="743.5,-38.5 743.5,-68.5 858.5,-68.5 858.5,-38.5 743.5,-38.5"/>
<text text-anchor="start" x="751.5" y="-56.5" font-family="Helvetica,sans-Serif" font-size="10.00">src.body_extraction.cli</text>
<text text-anchor="middle" x="801" y="-45.5" font-family="Helvetica,sans-Serif" font-size="10.00">_entry.fail</text>
</a>
</g>
</g>
<!-- Node20&#45;&gt;Node23 -->
<g id="edge23" class="edge">
<title>Node20&#45;&gt;Node23</title>
<path fill="none" stroke="midnightblue" d="M665.19,-93.47C688.19,-86.65 715.58,-78.53 739.64,-71.4"/>
<polygon fill="midnightblue" stroke="midnightblue" points="740.78,-74.71 749.37,-68.51 738.79,-68 740.78,-74.71"/>
</g>
<!-- Node22 -->
<g id="node22" class="node">
<title>Node22</title>
<g id="a_node22"><a xlink:href="namespacesrc_1_1body__extraction_1_1cli__entry.html#ac54ec360f3fdef09b455b7f140ca435b" target="_top" xlink:title=" ">
<polygon fill="white" stroke="black" points="923.5,-88 923.5,-129 1041.5,-129 1041.5,-88 923.5,-88"/>
<text text-anchor="start" x="931.5" y="-117" font-family="Helvetica,sans-Serif" font-size="10.00">src.body_extraction.cli</text>
<text text-anchor="start" x="931.5" y="-106" font-family="Helvetica,sans-Serif" font-size="10.00">_entry.check_args_has</text>
<text text-anchor="middle" x="982.5" y="-95" font-family="Helvetica,sans-Serif" font-size="10.00">_attribute</text>
</a>
</g>
</g>
<!-- Node21&#45;&gt;Node22 -->
<g id="edge22" class="edge">
<title>Node21&#45;&gt;Node22</title>
<path fill="none" stroke="midnightblue" d="M860.28,-108.5C877.14,-108.5 895.69,-108.5 913.11,-108.5"/>
<polygon fill="midnightblue" stroke="midnightblue" points="913.21,-112 923.21,-108.5 913.21,-105 913.21,-112"/>
</g>
</g>
</svg>
