<?xml version="1.0" encoding="UTF-8" standalone="no"?>
<!DOCTYPE svg PUBLIC "-//W3C//DTD SVG 1.1//EN"
 "http://www.w3.org/Graphics/SVG/1.1/DTD/svg11.dtd">
<!-- Generated by graphviz version 2.47.1 (20210417.1919)
 -->
<!-- Title: src.eralchemy.main.all_to_intermediary Pages: 1 -->
<!--zoomable 289 -->
<svg id="main" version="1.1" xmlns="http://www.w3.org/2000/svg" xmlns:xlink="http://www.w3.org/1999/xlink" xml:space="preserve" onload="init(evt)">
<style type="text/css"><![CDATA[
.edge:hover path { stroke: red; }
.edge:hover polygon { stroke: red; fill: red; }
]]></style>
<script type="text/javascript"><![CDATA[
var edges = document.getElementsByTagName('g');
if (edges && edges.length) {
  for (var i=0;i<edges.length;i++) {
    if (edges[i].id.substr(0,4)=='edge') {
      edges[i].setAttribute('class','edge');
    }
  }
}
]]></script>
        <defs>
                <circle id="rim" cx="0" cy="0" r="7"/>
                <circle id="rim2" cx="0" cy="0" r="3.5"/>
                <g id="zoomPlus">
                        <use xlink:href="#rim" fill="#404040">
                                <set attributeName="fill" to="#808080" begin="zoomplus.mouseover" end="zoomplus.mouseout"/>
                        </use>
                        <path d="M-4,0h8M0,-4v8" fill="none" stroke="white" stroke-width="1.5" pointer-events="none"/>
                </g>
                <g id="zoomMin">
                        <use xlink:href="#rim" fill="#404040">
                                <set attributeName="fill" to="#808080" begin="zoomminus.mouseover" end="zoomminus.mouseout"/>
                        </use>
                        <path d="M-4,0h8" fill="none" stroke="white" stroke-width="1.5" pointer-events="none"/>
                </g>
                <g id="dirArrow">
                        <path fill="none" stroke="white" stroke-width="1.5" d="M0,-3.0v7 M-2.5,-0.5L0,-3.0L2.5,-0.5"/>
                </g>
               <g id="resetDef">
                       <use xlink:href="#rim2" fill="#404040">
                               <set attributeName="fill" to="#808080" begin="reset.mouseover" end="reset.mouseout"/>
                       </use>
               </g>
        </defs>

<script type="text/javascript">
var viewWidth = 1063;
var viewHeight = 289;
var sectionId = 'dynsection-2';
</script>
<script xlink:href="svgpan.js"/>
<svg id="graph" class="graph">
<g id="viewport">
<title>src.eralchemy.main.all_to_intermediary</title>
<polygon fill="white" stroke="transparent" points="-4,4 -4,-285 1059,-285 1059,4 -4,4"/>
<!-- Node1 -->
<g id="node1" class="node">
<title>Node1</title>
<g id="a_node1"><a xlink:title=" ">
<polygon fill="#bfbfbf" stroke="black" points="0,-159.5 0,-189.5 115,-189.5 115,-159.5 0,-159.5"/>
<text text-anchor="start" x="8" y="-177.5" font-family="Helvetica,sans-Serif" font-size="10.00">src.eralchemy.main.all</text>
<text text-anchor="middle" x="57.5" y="-166.5" font-family="Helvetica,sans-Serif" font-size="10.00">_to_intermediary</text>
</a>
</g>
</g>
<!-- Node2 -->
<g id="node2" class="node">
<title>Node2</title>
<g id="a_node2"><a xlink:href="namespacesrc_1_1eralchemy_1_1sqla.html#a45674eee4c7ce1d82b7f99a285958c1d" target="_top" xlink:title=" ">
<polygon fill="white" stroke="black" points="157.5,-203.5 157.5,-233.5 299.5,-233.5 299.5,-203.5 157.5,-203.5"/>
<text text-anchor="start" x="165.5" y="-221.5" font-family="Helvetica,sans-Serif" font-size="10.00">src.eralchemy.sqla.database</text>
<text text-anchor="middle" x="228.5" y="-210.5" font-family="Helvetica,sans-Serif" font-size="10.00">_to_intermediary</text>
</a>
</g>
</g>
<!-- Node1&#45;&gt;Node2 -->
<g id="edge1" class="edge">
<title>Node1&#45;&gt;Node2</title>
<path fill="none" stroke="midnightblue" d="M115.24,-189.27C129.5,-192.99 144.95,-197.01 159.68,-200.84"/>
<polygon fill="midnightblue" stroke="midnightblue" points="159.19,-204.33 169.75,-203.47 160.96,-197.56 159.19,-204.33"/>
</g>
<!-- Node9 -->
<g id="node9" class="node">
<title>Node9</title>
<g id="a_node9"><a xlink:href="namespacesrc_1_1eralchemy_1_1parser.html#ae896c00e0ce3280fd4a5f84bb3b13da5" target="_top" xlink:title=" ">
<polygon fill="white" stroke="black" points="353,-134.5 353,-164.5 479,-164.5 479,-134.5 353,-134.5"/>
<text text-anchor="start" x="361" y="-152.5" font-family="Helvetica,sans-Serif" font-size="10.00">src.eralchemy.parser.line</text>
<text text-anchor="middle" x="416" y="-141.5" font-family="Helvetica,sans-Serif" font-size="10.00">_iterator_to_intermediary</text>
</a>
</g>
</g>
<!-- Node1&#45;&gt;Node9 -->
<g id="edge8" class="edge">
<title>Node1&#45;&gt;Node9</title>
<path fill="none" stroke="midnightblue" d="M115.38,-170.51C177.09,-166.18 275.74,-159.27 342.85,-154.56"/>
<polygon fill="midnightblue" stroke="midnightblue" points="343.2,-158.04 352.93,-153.85 342.71,-151.06 343.2,-158.04"/>
</g>
<!-- Node16 -->
<g id="node16" class="node">
<title>Node16</title>
<g id="a_node16"><a xlink:href="namespacesrc_1_1eralchemy_1_1parser.html#a4ae9323517c46eeb4ed9d87588832be2" target="_top" xlink:title=" ">
<polygon fill="white" stroke="black" points="151,-115.5 151,-145.5 306,-145.5 306,-115.5 151,-115.5"/>
<text text-anchor="start" x="159" y="-133.5" font-family="Helvetica,sans-Serif" font-size="10.00">src.eralchemy.parser.markdown</text>
<text text-anchor="middle" x="228.5" y="-122.5" font-family="Helvetica,sans-Serif" font-size="10.00">_file_to_intermediary</text>
</a>
</g>
</g>
<!-- Node1&#45;&gt;Node16 -->
<g id="edge15" class="edge">
<title>Node1&#45;&gt;Node16</title>
<path fill="none" stroke="midnightblue" d="M115.24,-159.73C129.5,-156.01 144.95,-151.99 159.68,-148.16"/>
<polygon fill="midnightblue" stroke="midnightblue" points="160.96,-151.44 169.75,-145.53 159.19,-144.67 160.96,-151.44"/>
</g>
<!-- Node3 -->
<g id="node3" class="node">
<title>Node3</title>
<g id="a_node3"><a xlink:href="namespacesrc_1_1eralchemy_1_1sqla.html#a08828ed118d96f46452d9c55a5080c78" target="_top" xlink:title=" ">
<polygon fill="white" stroke="black" points="342,-203.5 342,-233.5 490,-233.5 490,-203.5 342,-203.5"/>
<text text-anchor="start" x="350" y="-221.5" font-family="Helvetica,sans-Serif" font-size="10.00">src.eralchemy.sqla.declarative</text>
<text text-anchor="middle" x="416" y="-210.5" font-family="Helvetica,sans-Serif" font-size="10.00">_to_intermediary</text>
</a>
</g>
</g>
<!-- Node2&#45;&gt;Node3 -->
<g id="edge2" class="edge">
<title>Node2&#45;&gt;Node3</title>
<path fill="none" stroke="midnightblue" d="M299.63,-218.5C310.13,-218.5 321.03,-218.5 331.77,-218.5"/>
<polygon fill="midnightblue" stroke="midnightblue" points="331.99,-222 341.99,-218.5 331.99,-215 331.99,-222"/>
</g>
<!-- Node4 -->
<g id="node4" class="node">
<title>Node4</title>
<g id="a_node4"><a xlink:href="namespacesrc_1_1eralchemy_1_1sqla.html#a8c80e60516d371d4404a1040516f88ea" target="_top" xlink:title=" ">
<polygon fill="white" stroke="black" points="526,-203.5 526,-233.5 669,-233.5 669,-203.5 526,-203.5"/>
<text text-anchor="start" x="534" y="-221.5" font-family="Helvetica,sans-Serif" font-size="10.00">src.eralchemy.sqla.metadata</text>
<text text-anchor="middle" x="597.5" y="-210.5" font-family="Helvetica,sans-Serif" font-size="10.00">_to_intermediary</text>
</a>
</g>
</g>
<!-- Node3&#45;&gt;Node4 -->
<g id="edge3" class="edge">
<title>Node3&#45;&gt;Node4</title>
<path fill="none" stroke="midnightblue" d="M490.01,-218.5C498.52,-218.5 507.24,-218.5 515.85,-218.5"/>
<polygon fill="midnightblue" stroke="midnightblue" points="515.88,-222 525.88,-218.5 515.88,-215 515.88,-222"/>
</g>
<!-- Node5 -->
<g id="node5" class="node">
<title>Node5</title>
<g id="a_node5"><a xlink:href="namespacesrc_1_1eralchemy_1_1sqla.html#aecf50970e801a99f0a0373b9bd5c2988" target="_top" xlink:title=" ">
<polygon fill="white" stroke="black" points="716,-250.5 716,-280.5 850,-280.5 850,-250.5 716,-250.5"/>
<text text-anchor="start" x="724" y="-268.5" font-family="Helvetica,sans-Serif" font-size="10.00">src.eralchemy.sqla.relation</text>
<text text-anchor="middle" x="783" y="-257.5" font-family="Helvetica,sans-Serif" font-size="10.00">_to_intermediary</text>
</a>
</g>
</g>
<!-- Node4&#45;&gt;Node5 -->
<g id="edge4" class="edge">
<title>Node4&#45;&gt;Node5</title>
<path fill="none" stroke="midnightblue" d="M657.07,-233.5C675.02,-238.1 694.94,-243.2 713.51,-247.96"/>
<polygon fill="midnightblue" stroke="midnightblue" points="712.81,-251.39 723.36,-250.48 714.54,-244.61 712.81,-251.39"/>
</g>
<!-- Node7 -->
<g id="node7" class="node">
<title>Node7</title>
<g id="a_node7"><a xlink:href="namespacesrc_1_1eralchemy_1_1sqla.html#ac1b6d81b9b494b0b3b9775947dbae11f" target="_top" xlink:title=" ">
<polygon fill="white" stroke="black" points="721.5,-201.5 721.5,-231.5 844.5,-231.5 844.5,-201.5 721.5,-201.5"/>
<text text-anchor="start" x="729.5" y="-219.5" font-family="Helvetica,sans-Serif" font-size="10.00">src.eralchemy.sqla.table</text>
<text text-anchor="middle" x="783" y="-208.5" font-family="Helvetica,sans-Serif" font-size="10.00">_to_intermediary</text>
</a>
</g>
</g>
<!-- Node4&#45;&gt;Node7 -->
<g id="edge6" class="edge">
<title>Node4&#45;&gt;Node7</title>
<path fill="none" stroke="midnightblue" d="M669.18,-217.73C682.86,-217.58 697.2,-217.42 710.89,-217.28"/>
<polygon fill="midnightblue" stroke="midnightblue" points="711.25,-220.77 721.21,-217.16 711.17,-213.77 711.25,-220.77"/>
</g>
<!-- Node6 -->
<g id="node6" class="node">
<title>Node6</title>
<g id="a_node6"><a xlink:href="namespacesrc_1_1eralchemy_1_1sqla.html#a74f56fbe681e9a1b0d0c0b0832b91509" target="_top" xlink:title=" ">
<polygon fill="white" stroke="black" points="897,-256 897,-275 1055,-275 1055,-256 897,-256"/>
<text text-anchor="middle" x="976" y="-263" font-family="Helvetica,sans-Serif" font-size="10.00">src.eralchemy.sqla.format_name</text>
</a>
</g>
</g>
<!-- Node5&#45;&gt;Node6 -->
<g id="edge5" class="edge">
<title>Node5&#45;&gt;Node6</title>
<path fill="none" stroke="midnightblue" d="M850.27,-265.5C861.97,-265.5 874.32,-265.5 886.51,-265.5"/>
<polygon fill="midnightblue" stroke="midnightblue" points="886.7,-269 896.7,-265.5 886.7,-262 886.7,-269"/>
</g>
<!-- Node8 -->
<g id="node8" class="node">
<title>Node8</title>
<g id="a_node8"><a xlink:href="namespacesrc_1_1eralchemy_1_1sqla.html#a4ccd81ff2afbcbd286013a8e85f016fe" target="_top" xlink:title=" ">
<polygon fill="white" stroke="black" points="909,-201.5 909,-231.5 1043,-231.5 1043,-201.5 909,-201.5"/>
<text text-anchor="start" x="917" y="-219.5" font-family="Helvetica,sans-Serif" font-size="10.00">src.eralchemy.sqla.column</text>
<text text-anchor="middle" x="976" y="-208.5" font-family="Helvetica,sans-Serif" font-size="10.00">_to_intermediary</text>
</a>
</g>
</g>
<!-- Node7&#45;&gt;Node8 -->
<g id="edge7" class="edge">
<title>Node7&#45;&gt;Node8</title>
<path fill="none" stroke="midnightblue" d="M844.7,-216.5C861.85,-216.5 880.74,-216.5 898.69,-216.5"/>
<polygon fill="midnightblue" stroke="midnightblue" points="898.84,-220 908.84,-216.5 898.84,-213 898.84,-220"/>
</g>
<!-- Node10 -->
<g id="node10" class="node">
<title>Node10</title>
<g id="a_node10"><a xlink:href="namespacesrc_1_1eralchemy_1_1parser.html#af2c09125da4fddcf62bd70475bd1c156" target="_top" xlink:title=" ">
<polygon fill="white" stroke="black" points="526.5,-137.5 526.5,-167.5 668.5,-167.5 668.5,-137.5 526.5,-137.5"/>
<text text-anchor="start" x="534.5" y="-155.5" font-family="Helvetica,sans-Serif" font-size="10.00">src.eralchemy.parser.remove</text>
<text text-anchor="middle" x="597.5" y="-144.5" font-family="Helvetica,sans-Serif" font-size="10.00">_comments_from_line</text>
</a>
</g>
</g>
<!-- Node9&#45;&gt;Node10 -->
<g id="edge9" class="edge">
<title>Node9&#45;&gt;Node10</title>
<path fill="none" stroke="midnightblue" d="M479.03,-150.54C490.98,-150.74 503.66,-150.95 516.1,-151.16"/>
<polygon fill="midnightblue" stroke="midnightblue" points="516.42,-154.66 526.47,-151.33 516.53,-147.66 516.42,-154.66"/>
</g>
<!-- Node11 -->
<g id="node11" class="node">
<title>Node11</title>
<g id="a_node11"><a xlink:href="namespacesrc_1_1eralchemy_1_1parser.html#aaa8d12965e24d3a437fe9605475f9ec1" target="_top" xlink:title=" ">
<polygon fill="white" stroke="black" points="527.5,-88.5 527.5,-118.5 667.5,-118.5 667.5,-88.5 527.5,-88.5"/>
<text text-anchor="start" x="535.5" y="-106.5" font-family="Helvetica,sans-Serif" font-size="10.00">src.eralchemy.parser.update</text>
<text text-anchor="middle" x="597.5" y="-95.5" font-family="Helvetica,sans-Serif" font-size="10.00">_models</text>
</a>
</g>
</g>
<!-- Node9&#45;&gt;Node11 -->
<g id="edge10" class="edge">
<title>Node9&#45;&gt;Node11</title>
<path fill="none" stroke="midnightblue" d="M475.78,-134.44C492.44,-130.17 510.73,-125.48 527.92,-121.07"/>
<polygon fill="midnightblue" stroke="midnightblue" points="529.08,-124.39 537.9,-118.52 527.34,-117.61 529.08,-124.39"/>
</g>
<!-- Node12 -->
<g id="node12" class="node">
<title>Node12</title>
<g id="a_node12"><a xlink:href="namespacesrc_1_1eralchemy_1_1parser.html#a4074827fe7dbe79bd52ab7fce3fec3ff" target="_top" xlink:title=" ">
<polygon fill="white" stroke="black" points="723.5,-147.5 723.5,-177.5 842.5,-177.5 842.5,-147.5 723.5,-147.5"/>
<text text-anchor="start" x="731.5" y="-165.5" font-family="Helvetica,sans-Serif" font-size="10.00">src.eralchemy.parser.</text>
<text text-anchor="middle" x="783" y="-154.5" font-family="Helvetica,sans-Serif" font-size="10.00">_check_colname_in_lst</text>
</a>
</g>
</g>
<!-- Node11&#45;&gt;Node12 -->
<g id="edge11" class="edge">
<title>Node11&#45;&gt;Node12</title>
<path fill="none" stroke="midnightblue" d="M645.28,-118.54C669.76,-126.41 699.92,-136.11 725.67,-144.39"/>
<polygon fill="midnightblue" stroke="midnightblue" points="724.71,-147.76 735.31,-147.49 726.86,-141.09 724.71,-147.76"/>
</g>
<!-- Node13 -->
<g id="node13" class="node">
<title>Node13</title>
<g id="a_node13"><a xlink:href="namespacesrc_1_1eralchemy_1_1parser.html#aa39338fd82cbc77e7aa9d11241375d3f" target="_top" xlink:title=" ">
<polygon fill="white" stroke="black" points="720.5,-98.5 720.5,-128.5 845.5,-128.5 845.5,-98.5 720.5,-98.5"/>
<text text-anchor="start" x="728.5" y="-116.5" font-family="Helvetica,sans-Serif" font-size="10.00">src.eralchemy.parser.</text>
<text text-anchor="middle" x="783" y="-105.5" font-family="Helvetica,sans-Serif" font-size="10.00">_check_no_current_table</text>
</a>
</g>
</g>
<!-- Node11&#45;&gt;Node13 -->
<g id="edge12" class="edge">
<title>Node11&#45;&gt;Node13</title>
<path fill="none" stroke="midnightblue" d="M667.61,-107.27C681.59,-108.03 696.32,-108.83 710.38,-109.6"/>
<polygon fill="midnightblue" stroke="midnightblue" points="710.31,-113.1 720.49,-110.15 710.69,-106.11 710.31,-113.1"/>
</g>
<!-- Node14 -->
<g id="node14" class="node">
<title>Node14</title>
<g id="a_node14"><a xlink:href="namespacesrc_1_1eralchemy_1_1parser.html#a6ee33be1040bdc3f9d17e30a8667a6bf" target="_top" xlink:title=" ">
<polygon fill="white" stroke="black" points="705,-49.5 705,-79.5 861,-79.5 861,-49.5 705,-49.5"/>
<text text-anchor="start" x="713" y="-67.5" font-family="Helvetica,sans-Serif" font-size="10.00">src.eralchemy.parser.</text>
<text text-anchor="middle" x="783" y="-56.5" font-family="Helvetica,sans-Serif" font-size="10.00">_check_not_creating_duplicates</text>
</a>
</g>
</g>
<!-- Node11&#45;&gt;Node14 -->
<g id="edge13" class="edge">
<title>Node11&#45;&gt;Node14</title>
<path fill="none" stroke="midnightblue" d="M667.61,-88.81C678.61,-86.47 690.08,-84.04 701.32,-81.65"/>
<polygon fill="midnightblue" stroke="midnightblue" points="702.06,-85.07 711.12,-79.56 700.61,-78.22 702.06,-85.07"/>
</g>
<!-- Node15 -->
<g id="node15" class="node">
<title>Node15</title>
<g id="a_node15"><a xlink:href="namespacesrc_1_1eralchemy_1_1parser.html#a865f8f738e78ee150ed201fe3f13f066" target="_top" xlink:title=" ">
<polygon fill="white" stroke="black" points="726,-0.5 726,-30.5 840,-30.5 840,-0.5 726,-0.5"/>
<text text-anchor="start" x="734" y="-18.5" font-family="Helvetica,sans-Serif" font-size="10.00">src.eralchemy.parser.</text>
<text text-anchor="middle" x="783" y="-7.5" font-family="Helvetica,sans-Serif" font-size="10.00">_update_check_inputs</text>
</a>
</g>
</g>
<!-- Node11&#45;&gt;Node15 -->
<g id="edge14" class="edge">
<title>Node11&#45;&gt;Node15</title>
<path fill="none" stroke="midnightblue" d="M620.1,-88.41C641.04,-74.29 674.1,-53.36 705,-39.5 709.32,-37.56 713.85,-35.71 718.45,-33.97"/>
<polygon fill="midnightblue" stroke="midnightblue" points="719.74,-37.23 727.95,-30.54 717.36,-30.64 719.74,-37.23"/>
</g>
<!-- Node16&#45;&gt;Node9 -->
<g id="edge16" class="edge">
<title>Node16&#45;&gt;Node9</title>
<path fill="none" stroke="midnightblue" d="M306.02,-138.34C318.18,-139.58 330.73,-140.87 342.79,-142.1"/>
<polygon fill="midnightblue" stroke="midnightblue" points="342.48,-145.59 352.79,-143.13 343.2,-138.63 342.48,-145.59"/>
</g>
</g>
</svg>
        <g id="navigator" transform="translate(0 0)" fill="#404254">
                <rect fill="#f2f5e9" fill-opacity="0.5" stroke="#606060" stroke-width=".5" x="0" y="0" width="60" height="60"/>
                <use id="zoomplus" xlink:href="#zoomPlus" x="17" y="9" onmousedown="handleZoom(evt,'in')"/>
                <use id="zoomminus" xlink:href="#zoomMin" x="42" y="9" onmousedown="handleZoom(evt,'out')"/>
                <use id="reset" xlink:href="#resetDef" x="30" y="36" onmousedown="handleReset()"/>
                <g id="arrowUp" xlink:href="#dirArrow" transform="translate(30 24)" onmousedown="handlePan(0,-1)">
                  <use xlink:href="#rim" fill="#404040">
                        <set attributeName="fill" to="#808080" begin="arrowUp.mouseover" end="arrowUp.mouseout"/>
                  </use>
                  <path fill="none" stroke="white" stroke-width="1.5" d="M0,-3.0v7 M-2.5,-0.5L0,-3.0L2.5,-0.5"/>
                </g>
                <g id="arrowRight" xlink:href="#dirArrow" transform="rotate(90) translate(36 -43)" onmousedown="handlePan(1,0)">
                  <use xlink:href="#rim" fill="#404040">
                        <set attributeName="fill" to="#808080" begin="arrowRight.mouseover" end="arrowRight.mouseout"/>
                  </use>
                  <path fill="none" stroke="white" stroke-width="1.5" d="M0,-3.0v7 M-2.5,-0.5L0,-3.0L2.5,-0.5"/>
                </g>
                <g id="arrowDown" xlink:href="#dirArrow" transform="rotate(180) translate(-30 -48)" onmousedown="handlePan(0,1)">
                  <use xlink:href="#rim" fill="#404040">
                        <set attributeName="fill" to="#808080" begin="arrowDown.mouseover" end="arrowDown.mouseout"/>
                  </use>
                  <path fill="none" stroke="white" stroke-width="1.5" d="M0,-3.0v7 M-2.5,-0.5L0,-3.0L2.5,-0.5"/>
                </g>
                <g id="arrowLeft" xlink:href="#dirArrow" transform="rotate(270) translate(-36 17)" onmousedown="handlePan(-1,0)">
                  <use xlink:href="#rim" fill="#404040">
                        <set attributeName="fill" to="#808080" begin="arrowLeft.mouseover" end="arrowLeft.mouseout"/>
                  </use>
                  <path fill="none" stroke="white" stroke-width="1.5" d="M0,-3.0v7 M-2.5,-0.5L0,-3.0L2.5,-0.5"/>
                </g>
        </g>
        <svg viewBox="0 0 15 15" width="100%" height="30px" preserveAspectRatio="xMaxYMin meet">
         <g id="arrow_out" transform="scale(0.3 0.3)">
          <a xlink:href="namespacesrc_1_1eralchemy_1_1main_a9fac164b40f74cd204823413bbc5c01d_cgraph_org.svg" target="_base">
           <rect id="button" ry="5" rx="5" y="6" x="6" height="38" width="38"
                fill="#f2f5e9" fill-opacity="0.5" stroke="#606060" stroke-width="1.0"/>
           <path id="arrow"
             d="M 11.500037,31.436501 C 11.940474,20.09759 22.043105,11.32322 32.158766,21.979434 L 37.068811,17.246167 C 37.068811,17.246167 37.088388,32 37.088388,32 L 22.160133,31.978069 C 22.160133,31.978069 26.997745,27.140456 26.997745,27.140456 C 18.528582,18.264221 13.291696,25.230495 11.500037,31.436501 z"
             style="fill:#404040;"/>
          </a>
         </g>
        </svg>
</svg>
