<?xml version="1.0" encoding="UTF-8" standalone="no"?>
<!DOCTYPE svg PUBLIC "-//W3C//DTD SVG 1.1//EN"
 "http://www.w3.org/Graphics/SVG/1.1/DTD/svg11.dtd">
<!-- Generated by graphviz version 2.47.1 (20210417.1919)
 -->
<!-- Title: src.utils.backup.custom_logger._logger_setup Pages: 1 -->
<svg width="297pt" height="100pt"
 viewBox="0.00 0.00 297.00 99.50" xmlns="http://www.w3.org/2000/svg" xmlns:xlink="http://www.w3.org/1999/xlink">
<g id="graph0" class="graph" transform="scale(1 1) rotate(0) translate(4 95.5)">
<title>src.utils.backup.custom_logger._logger_setup</title>
<polygon fill="white" stroke="transparent" points="-4,4 -4,-95.5 293,-95.5 293,4 -4,4"/>
<!-- Node1 -->
<g id="node1" class="node">
<title>Node1</title>
<g id="a_node1"><a xlink:title=" ">
<polygon fill="#bfbfbf" stroke="black" points="0,-27.5 0,-57.5 121,-57.5 121,-27.5 0,-27.5"/>
<text text-anchor="start" x="8" y="-45.5" font-family="Helvetica,sans-Serif" font-size="10.00">src.utils.backup.custom</text>
<text text-anchor="middle" x="60.5" y="-34.5" font-family="Helvetica,sans-Serif" font-size="10.00">_logger._logger_setup</text>
</a>
</g>
</g>
<!-- Node2 -->
<g id="node2" class="node">
<title>Node2</title>
<g id="a_node2"><a xlink:href="namespacesrc_1_1utils_1_1backup_1_1custom__logger.html#a27daf7da0c7a0813a099e35e53e8d853" target="_top" xlink:title=" ">
<polygon fill="white" stroke="black" points="162.5,-50 162.5,-91 283.5,-91 283.5,-50 162.5,-50"/>
<text text-anchor="start" x="170.5" y="-79" font-family="Helvetica,sans-Serif" font-size="10.00">src.utils.backup.custom</text>
<text text-anchor="start" x="170.5" y="-68" font-family="Helvetica,sans-Serif" font-size="10.00">_logger._build_default</text>
<text text-anchor="middle" x="223" y="-57" font-family="Helvetica,sans-Serif" font-size="10.00">_formatter</text>
</a>
</g>
</g>
<!-- Node1&#45;&gt;Node2 -->
<g id="edge1" class="edge">
<title>Node1&#45;&gt;Node2</title>
<path fill="none" stroke="midnightblue" d="M121.26,-52.93C131.46,-54.71 142.13,-56.57 152.56,-58.39"/>
<polygon fill="midnightblue" stroke="midnightblue" points="152,-61.84 162.45,-60.11 153.2,-54.95 152,-61.84"/>
</g>
<!-- Node3 -->
<g id="node3" class="node">
<title>Node3</title>
<g id="a_node3"><a xlink:href="namespacesrc_1_1utils_1_1backup_1_1custom__logger.html#ad0bdcdf6528dc06e310f218ce95930d4" target="_top" xlink:title=" ">
<polygon fill="white" stroke="black" points="157,-0.5 157,-30.5 289,-30.5 289,-0.5 157,-0.5"/>
<text text-anchor="start" x="165" y="-18.5" font-family="Helvetica,sans-Serif" font-size="10.00">src.utils.backup.custom</text>
<text text-anchor="middle" x="223" y="-7.5" font-family="Helvetica,sans-Serif" font-size="10.00">_logger._configure_handler</text>
</a>
</g>
</g>
<!-- Node1&#45;&gt;Node3 -->
<g id="edge2" class="edge">
<title>Node1&#45;&gt;Node3</title>
<path fill="none" stroke="midnightblue" d="M121.26,-32.45C129.59,-31.05 138.24,-29.59 146.8,-28.15"/>
<polygon fill="midnightblue" stroke="midnightblue" points="147.52,-31.58 156.8,-26.47 146.36,-24.68 147.52,-31.58"/>
</g>
</g>
</svg>
