<?xml version="1.0" encoding="UTF-8" standalone="no"?>
<!DOCTYPE svg PUBLIC "-//W3C//DTD SVG 1.1//EN"
 "http://www.w3.org/Graphics/SVG/1.1/DTD/svg11.dtd">
<!-- Generated by graphviz version 2.47.1 (20210417.1919)
 -->
<!-- Title: src.body_extraction.cli_entry.check_args_has_attribute Pages: 1 -->
<svg width="959pt" height="83pt"
 viewBox="0.00 0.00 959.00 83.00" xmlns="http://www.w3.org/2000/svg" xmlns:xlink="http://www.w3.org/1999/xlink">
<g id="graph0" class="graph" transform="scale(1 1) rotate(0) translate(4 79)">
<title>src.body_extraction.cli_entry.check_args_has_attribute</title>
<polygon fill="white" stroke="transparent" points="-4,4 -4,-79 955,-79 955,4 -4,4"/>
<!-- Node1 -->
<g id="node1" class="node">
<title>Node1</title>
<g id="a_node1"><a xlink:title=" ">
<polygon fill="#bfbfbf" stroke="black" points="833,-17 833,-58 951,-58 951,-17 833,-17"/>
<text text-anchor="start" x="841" y="-46" font-family="Helvetica,sans-Serif" font-size="10.00">src.body_extraction.cli</text>
<text text-anchor="start" x="841" y="-35" font-family="Helvetica,sans-Serif" font-size="10.00">_entry.check_args_has</text>
<text text-anchor="middle" x="892" y="-24" font-family="Helvetica,sans-Serif" font-size="10.00">_attribute</text>
</a>
</g>
</g>
<!-- Node2 -->
<g id="node2" class="node">
<title>Node2</title>
<g id="a_node2"><a xlink:href="namespacesrc_1_1body__extraction_1_1cli__entry.html#a74f24adbe2969f94f9d747c25a387dc9" target="_top" xlink:title=" ">
<polygon fill="white" stroke="black" points="679,-17 679,-58 797,-58 797,-17 679,-17"/>
<text text-anchor="start" x="687" y="-46" font-family="Helvetica,sans-Serif" font-size="10.00">src.body_extraction.cli</text>
<text text-anchor="start" x="687" y="-35" font-family="Helvetica,sans-Serif" font-size="10.00">_entry.check_args_has</text>
<text text-anchor="middle" x="738" y="-24" font-family="Helvetica,sans-Serif" font-size="10.00">_attributes</text>
</a>
</g>
</g>
<!-- Node1&#45;&gt;Node2 -->
<g id="edge1" class="edge">
<title>Node1&#45;&gt;Node2</title>
<path fill="none" stroke="midnightblue" d="M822.46,-37.5C814.01,-37.5 805.45,-37.5 797.18,-37.5"/>
<polygon fill="midnightblue" stroke="midnightblue" points="822.67,-41 832.67,-37.5 822.67,-34 822.67,-41"/>
</g>
<!-- Node3 -->
<g id="node3" class="node">
<title>Node3</title>
<g id="a_node3"><a xlink:href="namespacesrc_1_1body__extraction_1_1cli__entry.html#aecd587b23033196155b2e453464a7293" target="_top" xlink:title=" ">
<polygon fill="white" stroke="black" points="528,-22.5 528,-52.5 643,-52.5 643,-22.5 528,-22.5"/>
<text text-anchor="start" x="536" y="-40.5" font-family="Helvetica,sans-Serif" font-size="10.00">src.body_extraction.cli</text>
<text text-anchor="middle" x="585.5" y="-29.5" font-family="Helvetica,sans-Serif" font-size="10.00">_entry.check_args</text>
</a>
</g>
</g>
<!-- Node2&#45;&gt;Node3 -->
<g id="edge2" class="edge">
<title>Node2&#45;&gt;Node3</title>
<path fill="none" stroke="midnightblue" d="M668.79,-37.5C660.18,-37.5 651.45,-37.5 643.05,-37.5"/>
<polygon fill="midnightblue" stroke="midnightblue" points="668.81,-41 678.81,-37.5 668.81,-34 668.81,-41"/>
</g>
<!-- Node4 -->
<g id="node4" class="node">
<title>Node4</title>
<g id="a_node4"><a xlink:href="namespacesrc_1_1body__extraction_1_1cli__entry.html#ad275b8b868d4ad51c08f79e9ec68f241" target="_top" xlink:title=" ">
<polygon fill="white" stroke="black" points="377,-44.5 377,-74.5 492,-74.5 492,-44.5 377,-44.5"/>
<text text-anchor="start" x="385" y="-62.5" font-family="Helvetica,sans-Serif" font-size="10.00">src.body_extraction.cli</text>
<text text-anchor="middle" x="434.5" y="-51.5" font-family="Helvetica,sans-Serif" font-size="10.00">_entry.cli</text>
</a>
</g>
</g>
<!-- Node3&#45;&gt;Node4 -->
<g id="edge3" class="edge">
<title>Node3&#45;&gt;Node4</title>
<path fill="none" stroke="midnightblue" d="M517.77,-47.35C509.2,-48.62 500.49,-49.9 492.1,-51.14"/>
<polygon fill="midnightblue" stroke="midnightblue" points="518.36,-50.8 527.74,-45.88 517.34,-43.88 518.36,-50.8"/>
</g>
<!-- Node5 -->
<g id="node5" class="node">
<title>Node5</title>
<g id="a_node5"><a xlink:href="namespacesrc_1_1eralchemy_1_1main.html#afd606a75c08edb3181030c5b1ce3b5aa" target="_top" xlink:title=" ">
<polygon fill="white" stroke="black" points="377,-6 377,-25 492,-25 492,-6 377,-6"/>
<text text-anchor="middle" x="434.5" y="-13" font-family="Helvetica,sans-Serif" font-size="10.00">src.eralchemy.main.cli</text>
</a>
</g>
</g>
<!-- Node3&#45;&gt;Node5 -->
<g id="edge4" class="edge">
<title>Node3&#45;&gt;Node5</title>
<path fill="none" stroke="midnightblue" d="M517.77,-27.65C509.2,-26.38 500.49,-25.1 492.1,-23.86"/>
<polygon fill="midnightblue" stroke="midnightblue" points="517.34,-31.12 527.74,-29.12 518.36,-24.2 517.34,-31.12"/>
</g>
<!-- Node6 -->
<g id="node6" class="node">
<title>Node6</title>
<g id="a_node6"><a xlink:href="namespacesrc_1_1eralchemy_1_1main.html#a5387e0a7c14b44fd86de8ede390bed04" target="_top" xlink:title=" ">
<polygon fill="white" stroke="black" points="195,-6 195,-25 341,-25 341,-6 195,-6"/>
<text text-anchor="middle" x="268" y="-13" font-family="Helvetica,sans-Serif" font-size="10.00">src.eralchemy.main.render_er</text>
</a>
</g>
</g>
<!-- Node5&#45;&gt;Node6 -->
<g id="edge5" class="edge">
<title>Node5&#45;&gt;Node6</title>
<path fill="none" stroke="midnightblue" d="M366.73,-8.86C358.29,-8.74 349.63,-8.72 341.11,-8.8"/>
<polygon fill="midnightblue" stroke="midnightblue" points="366.82,-12.36 376.89,-9.05 366.96,-5.36 366.82,-12.36"/>
</g>
<!-- Node6&#45;&gt;Node5 -->
<g id="edge6" class="edge">
<title>Node6&#45;&gt;Node5</title>
<path fill="none" stroke="midnightblue" d="M351.27,-22.25C359.94,-22.25 368.61,-22.15 376.89,-21.95"/>
<polygon fill="midnightblue" stroke="midnightblue" points="351.13,-18.75 341.11,-22.2 351.1,-25.75 351.13,-18.75"/>
</g>
<!-- Node7 -->
<g id="node7" class="node">
<title>Node7</title>
<g id="a_node7"><a xlink:href="namespacesrc_1_1db__tools_1_1database__consolidation.html#a7057f33c203cc4abd04492f89c632aa9" target="_top" xlink:title=" ">
<polygon fill="white" stroke="black" points="0,-0.5 0,-30.5 159,-30.5 159,-0.5 0,-0.5"/>
<text text-anchor="start" x="8" y="-18.5" font-family="Helvetica,sans-Serif" font-size="10.00">src.db_tools.database</text>
<text text-anchor="middle" x="79.5" y="-7.5" font-family="Helvetica,sans-Serif" font-size="10.00">_consolidation.doit_generate_erd</text>
</a>
</g>
</g>
<!-- Node6&#45;&gt;Node7 -->
<g id="edge7" class="edge">
<title>Node6&#45;&gt;Node7</title>
<path fill="none" stroke="midnightblue" d="M184.66,-15.5C176.21,-15.5 167.64,-15.5 159.22,-15.5"/>
<polygon fill="midnightblue" stroke="midnightblue" points="184.89,-19 194.89,-15.5 184.89,-12 184.89,-19"/>
</g>
</g>
</svg>
