<?xml version="1.0" encoding="UTF-8" standalone="no"?>
<!DOCTYPE svg PUBLIC "-//W3C//DTD SVG 1.1//EN"
 "http://www.w3.org/Graphics/SVG/1.1/DTD/svg11.dtd">
<!-- Generated by graphviz version 2.47.1 (20210417.1919)
 -->
<!-- Title: src.utils.backup.undo_pickle Pages: 1 -->
<svg width="294pt" height="50pt"
 viewBox="0.00 0.00 294.00 50.00" xmlns="http://www.w3.org/2000/svg" xmlns:xlink="http://www.w3.org/1999/xlink">
<g id="graph0" class="graph" transform="scale(1 1) rotate(0) translate(4 46)">
<title>src.utils.backup.undo_pickle</title>
<polygon fill="white" stroke="transparent" points="-4,4 -4,-46 290,-46 290,4 -4,4"/>
<!-- Node1 -->
<g id="node1" class="node">
<title>Node1</title>
<g id="a_node1"><a xlink:title=" ">
<polygon fill="#bfbfbf" stroke="black" points="0,-6 0,-36 110,-36 110,-6 0,-6"/>
<text text-anchor="start" x="8" y="-24" font-family="Helvetica,sans-Serif" font-size="10.00">src.utils.backup.undo</text>
<text text-anchor="middle" x="55" y="-13" font-family="Helvetica,sans-Serif" font-size="10.00">_pickle</text>
</a>
</g>
</g>
<!-- Node2 -->
<g id="node2" class="node">
<title>Node2</title>
<g id="a_node2"><a xlink:href="namespacesrc_1_1utils_1_1backup.html#aa045a2d6cad328800b403a900e66d195" target="_top" xlink:title=" ">
<polygon fill="white" stroke="black" points="146,-0.5 146,-41.5 286,-41.5 286,-0.5 146,-0.5"/>
<text text-anchor="start" x="154" y="-29.5" font-family="Helvetica,sans-Serif" font-size="10.00">src.utils.backup.handle</text>
<text text-anchor="start" x="154" y="-18.5" font-family="Helvetica,sans-Serif" font-size="10.00">_warning_about_unexpected</text>
<text text-anchor="middle" x="216" y="-7.5" font-family="Helvetica,sans-Serif" font-size="10.00">_exceptions</text>
</a>
</g>
</g>
<!-- Node1&#45;&gt;Node2 -->
<g id="edge1" class="edge">
<title>Node1&#45;&gt;Node2</title>
<path fill="none" stroke="midnightblue" d="M110.27,-21C118.49,-21 127.1,-21 135.71,-21"/>
<polygon fill="midnightblue" stroke="midnightblue" points="135.79,-24.5 145.79,-21 135.79,-17.5 135.79,-24.5"/>
</g>
</g>
</svg>
