<?xml version="1.0" encoding="UTF-8" standalone="no"?>
<!DOCTYPE svg PUBLIC "-//W3C//DTD SVG 1.1//EN"
 "http://www.w3.org/Graphics/SVG/1.1/DTD/svg11.dtd">
<!-- Generated by graphviz version 2.47.1 (20210417.1919)
 -->
<!-- Title: src.email_caching.cli_entry.check_args_has_attribute Pages: 1 -->
<svg width="568pt" height="50pt"
 viewBox="0.00 0.00 568.00 50.00" xmlns="http://www.w3.org/2000/svg" xmlns:xlink="http://www.w3.org/1999/xlink">
<g id="graph0" class="graph" transform="scale(1 1) rotate(0) translate(4 46)">
<title>src.email_caching.cli_entry.check_args_has_attribute</title>
<polygon fill="white" stroke="transparent" points="-4,4 -4,-46 564,-46 564,4 -4,4"/>
<!-- Node1 -->
<g id="node1" class="node">
<title>Node1</title>
<g id="a_node1"><a xlink:title=" ">
<polygon fill="#bfbfbf" stroke="black" points="442,-0.5 442,-41.5 560,-41.5 560,-0.5 442,-0.5"/>
<text text-anchor="start" x="450" y="-29.5" font-family="Helvetica,sans-Serif" font-size="10.00">src.email_caching.cli</text>
<text text-anchor="start" x="450" y="-18.5" font-family="Helvetica,sans-Serif" font-size="10.00">_entry.check_args_has</text>
<text text-anchor="middle" x="501" y="-7.5" font-family="Helvetica,sans-Serif" font-size="10.00">_attribute</text>
</a>
</g>
</g>
<!-- Node2 -->
<g id="node2" class="node">
<title>Node2</title>
<g id="a_node2"><a xlink:href="namespacesrc_1_1email__caching_1_1cli__entry.html#a43f28b8dff21c2c2bde334e404ce7316" target="_top" xlink:title=" ">
<polygon fill="white" stroke="black" points="288,-0.5 288,-41.5 406,-41.5 406,-0.5 288,-0.5"/>
<text text-anchor="start" x="296" y="-29.5" font-family="Helvetica,sans-Serif" font-size="10.00">src.email_caching.cli</text>
<text text-anchor="start" x="296" y="-18.5" font-family="Helvetica,sans-Serif" font-size="10.00">_entry.check_args_has</text>
<text text-anchor="middle" x="347" y="-7.5" font-family="Helvetica,sans-Serif" font-size="10.00">_attributes</text>
</a>
</g>
</g>
<!-- Node1&#45;&gt;Node2 -->
<g id="edge1" class="edge">
<title>Node1&#45;&gt;Node2</title>
<path fill="none" stroke="midnightblue" d="M431.46,-21C423.01,-21 414.45,-21 406.18,-21"/>
<polygon fill="midnightblue" stroke="midnightblue" points="431.67,-24.5 441.67,-21 431.67,-17.5 431.67,-24.5"/>
</g>
<!-- Node3 -->
<g id="node3" class="node">
<title>Node3</title>
<g id="a_node3"><a xlink:href="namespacesrc_1_1email__caching_1_1cli__entry.html#aee1be9faebd5761582a49b8aff7ed4ec" target="_top" xlink:title=" ">
<polygon fill="white" stroke="black" points="144,-6 144,-36 252,-36 252,-6 144,-6"/>
<text text-anchor="start" x="152" y="-24" font-family="Helvetica,sans-Serif" font-size="10.00">src.email_caching.cli</text>
<text text-anchor="middle" x="198" y="-13" font-family="Helvetica,sans-Serif" font-size="10.00">_entry.check_args</text>
</a>
</g>
</g>
<!-- Node2&#45;&gt;Node3 -->
<g id="edge2" class="edge">
<title>Node2&#45;&gt;Node3</title>
<path fill="none" stroke="midnightblue" d="M277.63,-21C269.16,-21 260.58,-21 252.38,-21"/>
<polygon fill="midnightblue" stroke="midnightblue" points="277.9,-24.5 287.9,-21 277.9,-17.5 277.9,-24.5"/>
</g>
<!-- Node4 -->
<g id="node4" class="node">
<title>Node4</title>
<g id="a_node4"><a xlink:href="namespacesrc_1_1email__caching_1_1cli__entry.html#a1f4ed2b7cbee18002a18b892b728914f" target="_top" xlink:title=" ">
<polygon fill="white" stroke="black" points="0,-6 0,-36 108,-36 108,-6 0,-6"/>
<text text-anchor="start" x="8" y="-24" font-family="Helvetica,sans-Serif" font-size="10.00">src.email_caching.cli</text>
<text text-anchor="middle" x="54" y="-13" font-family="Helvetica,sans-Serif" font-size="10.00">_entry.cli</text>
</a>
</g>
</g>
<!-- Node3&#45;&gt;Node4 -->
<g id="edge3" class="edge">
<title>Node3&#45;&gt;Node4</title>
<path fill="none" stroke="midnightblue" d="M133.48,-21C125,-21 116.38,-21 108.11,-21"/>
<polygon fill="midnightblue" stroke="midnightblue" points="133.72,-24.5 143.72,-21 133.72,-17.5 133.72,-24.5"/>
</g>
</g>
</svg>
