<?xml version="1.0" encoding="UTF-8" standalone="no"?>
<!DOCTYPE svg PUBLIC "-//W3C//DTD SVG 1.1//EN"
 "http://www.w3.org/Graphics/SVG/1.1/DTD/svg11.dtd">
<!-- Generated by graphviz version 2.47.1 (20210417.1919)
 -->
<!-- Title: src.db_tools.cli_entry.check_args Pages: 1 -->
<svg width="521pt" height="78pt"
 viewBox="0.00 0.00 521.00 77.50" xmlns="http://www.w3.org/2000/svg" xmlns:xlink="http://www.w3.org/1999/xlink">
<g id="graph0" class="graph" transform="scale(1 1) rotate(0) translate(4 73.5)">
<title>src.db_tools.cli_entry.check_args</title>
<polygon fill="white" stroke="transparent" points="-4,4 -4,-73.5 517,-73.5 517,4 -4,4"/>
<!-- Node1 -->
<g id="node1" class="node">
<title>Node1</title>
<g id="a_node1"><a xlink:title=" ">
<polygon fill="#bfbfbf" stroke="black" points="0,-22.5 0,-41.5 163,-41.5 163,-22.5 0,-22.5"/>
<text text-anchor="middle" x="81.5" y="-29.5" font-family="Helvetica,sans-Serif" font-size="10.00">src.db_tools.cli_entry.check_args</text>
</a>
</g>
</g>
<!-- Node2 -->
<g id="node2" class="node">
<title>Node2</title>
<g id="a_node2"><a xlink:href="namespacesrc_1_1db__tools_1_1cli__entry.html#a956099ca2065e63e782b89709f769805" target="_top" xlink:title=" ">
<polygon fill="white" stroke="black" points="199,-39 199,-69 338,-69 338,-39 199,-39"/>
<text text-anchor="start" x="207" y="-57" font-family="Helvetica,sans-Serif" font-size="10.00">src.db_tools.cli_entry.check</text>
<text text-anchor="middle" x="268.5" y="-46" font-family="Helvetica,sans-Serif" font-size="10.00">_args_has_attributes</text>
</a>
</g>
</g>
<!-- Node1&#45;&gt;Node2 -->
<g id="edge1" class="edge">
<title>Node1&#45;&gt;Node2</title>
<path fill="none" stroke="midnightblue" d="M162.57,-41.52C171.27,-42.56 180.12,-43.61 188.81,-44.64"/>
<polygon fill="midnightblue" stroke="midnightblue" points="188.57,-48.14 198.91,-45.84 189.4,-41.19 188.57,-48.14"/>
</g>
<!-- Node4 -->
<g id="node4" class="node">
<title>Node4</title>
<g id="a_node4"><a xlink:href="namespacesrc_1_1db__tools_1_1cli__entry.html#a2a7b8c0844174713273df60bc3eff45a" target="_top" xlink:title=" ">
<polygon fill="white" stroke="black" points="206,-0.5 206,-19.5 331,-19.5 331,-0.5 206,-0.5"/>
<text text-anchor="middle" x="268.5" y="-7.5" font-family="Helvetica,sans-Serif" font-size="10.00">src.db_tools.cli_entry.fail</text>
</a>
</g>
</g>
<!-- Node1&#45;&gt;Node4 -->
<g id="edge3" class="edge">
<title>Node1&#45;&gt;Node4</title>
<path fill="none" stroke="midnightblue" d="M162.57,-22.48C173.71,-21.15 185.09,-19.8 196.06,-18.5"/>
<polygon fill="midnightblue" stroke="midnightblue" points="196.48,-21.97 206,-17.31 195.65,-15.02 196.48,-21.97"/>
</g>
<!-- Node3 -->
<g id="node3" class="node">
<title>Node3</title>
<g id="a_node3"><a xlink:href="namespacesrc_1_1db__tools_1_1cli__entry.html#a7916c456f53088abf46d7d1ee18457c2" target="_top" xlink:title=" ">
<polygon fill="white" stroke="black" points="374,-39 374,-69 513,-69 513,-39 374,-39"/>
<text text-anchor="start" x="382" y="-57" font-family="Helvetica,sans-Serif" font-size="10.00">src.db_tools.cli_entry.check</text>
<text text-anchor="middle" x="443.5" y="-46" font-family="Helvetica,sans-Serif" font-size="10.00">_args_has_attribute</text>
</a>
</g>
</g>
<!-- Node2&#45;&gt;Node3 -->
<g id="edge2" class="edge">
<title>Node2&#45;&gt;Node3</title>
<path fill="none" stroke="midnightblue" d="M338.37,-54C346.68,-54 355.21,-54 363.65,-54"/>
<polygon fill="midnightblue" stroke="midnightblue" points="363.87,-57.5 373.87,-54 363.87,-50.5 363.87,-57.5"/>
</g>
</g>
</svg>
