<?xml version="1.0" encoding="UTF-8" standalone="no"?>
<!DOCTYPE svg PUBLIC "-//W3C//DTD SVG 1.1//EN"
 "http://www.w3.org/Graphics/SVG/1.1/DTD/svg11.dtd">
<!-- Generated by graphviz version 2.47.1 (20210417.1919)
 -->
<!-- Title: src.utils.backup.custom_logger.get_logger Pages: 1 -->
<svg width="454pt" height="100pt"
 viewBox="0.00 0.00 454.00 99.50" xmlns="http://www.w3.org/2000/svg" xmlns:xlink="http://www.w3.org/1999/xlink">
<g id="graph0" class="graph" transform="scale(1 1) rotate(0) translate(4 95.5)">
<title>src.utils.backup.custom_logger.get_logger</title>
<polygon fill="white" stroke="transparent" points="-4,4 -4,-95.5 450,-95.5 450,4 -4,4"/>
<!-- Node1 -->
<g id="node1" class="node">
<title>Node1</title>
<g id="a_node1"><a xlink:title=" ">
<polygon fill="#bfbfbf" stroke="black" points="0,-27.5 0,-57.5 121,-57.5 121,-27.5 0,-27.5"/>
<text text-anchor="start" x="8" y="-45.5" font-family="Helvetica,sans-Serif" font-size="10.00">src.utils.backup.custom</text>
<text text-anchor="middle" x="60.5" y="-34.5" font-family="Helvetica,sans-Serif" font-size="10.00">_logger.get_logger</text>
</a>
</g>
</g>
<!-- Node2 -->
<g id="node2" class="node">
<title>Node2</title>
<g id="a_node2"><a xlink:href="namespacesrc_1_1utils_1_1backup_1_1custom__logger.html#ac6928a8a1836987261bc3742fb4816d9" target="_top" xlink:title=" ">
<polygon fill="white" stroke="black" points="157,-27.5 157,-57.5 278,-57.5 278,-27.5 157,-27.5"/>
<text text-anchor="start" x="165" y="-45.5" font-family="Helvetica,sans-Serif" font-size="10.00">src.utils.backup.custom</text>
<text text-anchor="middle" x="217.5" y="-34.5" font-family="Helvetica,sans-Serif" font-size="10.00">_logger._logger_setup</text>
</a>
</g>
</g>
<!-- Node1&#45;&gt;Node2 -->
<g id="edge1" class="edge">
<title>Node1&#45;&gt;Node2</title>
<path fill="none" stroke="midnightblue" d="M121.43,-42.5C129.72,-42.5 138.31,-42.5 146.76,-42.5"/>
<polygon fill="midnightblue" stroke="midnightblue" points="146.99,-46 156.99,-42.5 146.99,-39 146.99,-46"/>
</g>
<!-- Node3 -->
<g id="node3" class="node">
<title>Node3</title>
<g id="a_node3"><a xlink:href="namespacesrc_1_1utils_1_1backup_1_1custom__logger.html#a27daf7da0c7a0813a099e35e53e8d853" target="_top" xlink:title=" ">
<polygon fill="white" stroke="black" points="319.5,-50 319.5,-91 440.5,-91 440.5,-50 319.5,-50"/>
<text text-anchor="start" x="327.5" y="-79" font-family="Helvetica,sans-Serif" font-size="10.00">src.utils.backup.custom</text>
<text text-anchor="start" x="327.5" y="-68" font-family="Helvetica,sans-Serif" font-size="10.00">_logger._build_default</text>
<text text-anchor="middle" x="380" y="-57" font-family="Helvetica,sans-Serif" font-size="10.00">_formatter</text>
</a>
</g>
</g>
<!-- Node2&#45;&gt;Node3 -->
<g id="edge2" class="edge">
<title>Node2&#45;&gt;Node3</title>
<path fill="none" stroke="midnightblue" d="M278.26,-52.93C288.46,-54.71 299.13,-56.57 309.56,-58.39"/>
<polygon fill="midnightblue" stroke="midnightblue" points="309,-61.84 319.45,-60.11 310.2,-54.95 309,-61.84"/>
</g>
<!-- Node4 -->
<g id="node4" class="node">
<title>Node4</title>
<g id="a_node4"><a xlink:href="namespacesrc_1_1utils_1_1backup_1_1custom__logger.html#ad0bdcdf6528dc06e310f218ce95930d4" target="_top" xlink:title=" ">
<polygon fill="white" stroke="black" points="314,-0.5 314,-30.5 446,-30.5 446,-0.5 314,-0.5"/>
<text text-anchor="start" x="322" y="-18.5" font-family="Helvetica,sans-Serif" font-size="10.00">src.utils.backup.custom</text>
<text text-anchor="middle" x="380" y="-7.5" font-family="Helvetica,sans-Serif" font-size="10.00">_logger._configure_handler</text>
</a>
</g>
</g>
<!-- Node2&#45;&gt;Node4 -->
<g id="edge3" class="edge">
<title>Node2&#45;&gt;Node4</title>
<path fill="none" stroke="midnightblue" d="M278.26,-32.45C286.59,-31.05 295.24,-29.59 303.8,-28.15"/>
<polygon fill="midnightblue" stroke="midnightblue" points="304.52,-31.58 313.8,-26.47 303.36,-24.68 304.52,-31.58"/>
</g>
</g>
</svg>
