<?xml version="1.0" encoding="UTF-8" standalone="no"?>
<!DOCTYPE svg PUBLIC "-//W3C//DTD SVG 1.1//EN"
 "http://www.w3.org/Graphics/SVG/1.1/DTD/svg11.dtd">
<!-- Generated by graphviz version 2.47.1 (20210417.1919)
 -->
<!-- Title: src.email_caching.downloader.doit_email_downloader Pages: 1 -->
<svg width="383pt" height="39pt"
 viewBox="0.00 0.00 383.00 39.00" xmlns="http://www.w3.org/2000/svg" xmlns:xlink="http://www.w3.org/1999/xlink">
<g id="graph0" class="graph" transform="scale(1 1) rotate(0) translate(4 35)">
<title>src.email_caching.downloader.doit_email_downloader</title>
<polygon fill="white" stroke="transparent" points="-4,4 -4,-35 379,-35 379,4 -4,4"/>
<!-- Node1 -->
<g id="node1" class="node">
<title>Node1</title>
<g id="a_node1"><a xlink:title=" ">
<polygon fill="#bfbfbf" stroke="black" points="0,-0.5 0,-30.5 166,-30.5 166,-0.5 0,-0.5"/>
<text text-anchor="start" x="8" y="-18.5" font-family="Helvetica,sans-Serif" font-size="10.00">src.email_caching.downloader.doit</text>
<text text-anchor="middle" x="83" y="-7.5" font-family="Helvetica,sans-Serif" font-size="10.00">_email_downloader</text>
</a>
</g>
</g>
<!-- Node2 -->
<g id="node2" class="node">
<title>Node2</title>
<g id="a_node2"><a xlink:href="namespacesrc_1_1email__caching_1_1downloader.html#a8b164f0cb9ed6262f8085fcc65bef4ae" target="_top" xlink:title=" ">
<polygon fill="white" stroke="black" points="202,-0.5 202,-30.5 375,-30.5 375,-0.5 202,-0.5"/>
<text text-anchor="start" x="210" y="-18.5" font-family="Helvetica,sans-Serif" font-size="10.00">src.email_caching.downloader.email</text>
<text text-anchor="middle" x="288.5" y="-7.5" font-family="Helvetica,sans-Serif" font-size="10.00">_downloader</text>
</a>
</g>
</g>
<!-- Node1&#45;&gt;Node2 -->
<g id="edge1" class="edge">
<title>Node1&#45;&gt;Node2</title>
<path fill="none" stroke="midnightblue" d="M166.18,-15.5C174.5,-15.5 182.99,-15.5 191.43,-15.5"/>
<polygon fill="midnightblue" stroke="midnightblue" points="191.69,-19 201.69,-15.5 191.69,-12 191.69,-19"/>
</g>
</g>
</svg>
