<?xml version="1.0" encoding="UTF-8" standalone="no"?>
<!DOCTYPE svg PUBLIC "-//W3C//DTD SVG 1.1//EN"
 "http://www.w3.org/Graphics/SVG/1.1/DTD/svg11.dtd">
<!-- Generated by graphviz version 2.47.1 (20210417.1919)
 -->
<!-- Title: src.db_tools.db_class_defs.ThreadedDBBase.enqueue_add_row Pages: 1 -->
<svg width="1140pt" height="161pt"
 viewBox="0.00 0.00 1140.00 161.00" xmlns="http://www.w3.org/2000/svg" xmlns:xlink="http://www.w3.org/1999/xlink">
<g id="graph0" class="graph" transform="scale(1 1) rotate(0) translate(4 157)">
<title>src.db_tools.db_class_defs.ThreadedDBBase.enqueue_add_row</title>
<polygon fill="white" stroke="transparent" points="-4,4 -4,-157 1136,-157 1136,4 -4,4"/>
<!-- Node1 -->
<g id="node1" class="node">
<title>Node1</title>
<g id="a_node1"><a xlink:title=" ">
<polygon fill="#bfbfbf" stroke="black" points="0,-76.5 0,-95.5 295,-95.5 295,-76.5 0,-76.5"/>
<text text-anchor="middle" x="147.5" y="-83.5" font-family="Helvetica,sans-Serif" font-size="10.00">src.db_tools.db_class_defs.ThreadedDBBase.enqueue_add_row</text>
</a>
</g>
</g>
<!-- Node2 -->
<g id="node2" class="node">
<title>Node2</title>
<g id="a_node2"><a xlink:href="classsrc_1_1body__extraction_1_1cache__class__defs_1_1_message_body_d_b.html#a1068fb482d68c7436bd5db942dcfafd5" target="_top" xlink:title=" ">
<polygon fill="white" stroke="black" points="331,-133.5 331,-152.5 632,-152.5 632,-133.5 331,-133.5"/>
<text text-anchor="middle" x="481.5" y="-140.5" font-family="Helvetica,sans-Serif" font-size="10.00">src.body_extraction.cache_class_defs.MessageBodyDB.add_row</text>
</a>
</g>
</g>
<!-- Node1&#45;&gt;Node2 -->
<g id="edge1" class="edge">
<title>Node1&#45;&gt;Node2</title>
<path fill="none" stroke="midnightblue" d="M189.64,-95.53C226.51,-103.85 282.16,-115.83 331,-124 348.74,-126.97 367.74,-129.72 386.04,-132.14"/>
<polygon fill="midnightblue" stroke="midnightblue" points="385.76,-135.63 396.12,-133.46 386.66,-128.69 385.76,-135.63"/>
</g>
<!-- Node3 -->
<g id="node3" class="node">
<title>Node3</title>
<g id="a_node3"><a xlink:href="classsrc_1_1lemma__extraction_1_1cache__class__defs_1_1_lemma_d_b.html#a72fb9592002b684c5920f5856ecfe7b2" target="_top" xlink:title=" ">
<polygon fill="white" stroke="black" points="342,-95.5 342,-114.5 621,-114.5 621,-95.5 342,-95.5"/>
<text text-anchor="middle" x="481.5" y="-102.5" font-family="Helvetica,sans-Serif" font-size="10.00">src.lemma_extraction.cache_class_defs.LemmaDB.add_row</text>
</a>
</g>
</g>
<!-- Node1&#45;&gt;Node3 -->
<g id="edge2" class="edge">
<title>Node1&#45;&gt;Node3</title>
<path fill="none" stroke="midnightblue" d="M295.09,-94.39C307.23,-95.08 319.52,-95.79 331.68,-96.48"/>
<polygon fill="midnightblue" stroke="midnightblue" points="331.68,-99.99 341.86,-97.07 332.08,-93 331.68,-99.99"/>
</g>
<!-- Node4 -->
<g id="node4" class="node">
<title>Node4</title>
<g id="a_node4"><a xlink:href="classsrc_1_1email__caching_1_1cache__class__defs_1_1_email_d_b.html#a4077c5ee789b4791502fab4fa901d6d5" target="_top" xlink:title=" ">
<polygon fill="white" stroke="black" points="353,-57.5 353,-76.5 610,-76.5 610,-57.5 353,-57.5"/>
<text text-anchor="middle" x="481.5" y="-64.5" font-family="Helvetica,sans-Serif" font-size="10.00">src.email_caching.cache_class_defs.EmailDB.add_row</text>
</a>
</g>
</g>
<!-- Node1&#45;&gt;Node4 -->
<g id="edge3" class="edge">
<title>Node1&#45;&gt;Node4</title>
<path fill="none" stroke="midnightblue" d="M295.09,-77.61C310.9,-76.71 326.96,-75.79 342.67,-74.89"/>
<polygon fill="midnightblue" stroke="midnightblue" points="343.15,-78.37 352.93,-74.3 342.75,-71.38 343.15,-78.37"/>
</g>
<!-- Node5 -->
<g id="node5" class="node">
<title>Node5</title>
<g id="a_node5"><a xlink:href="classsrc_1_1db__tools_1_1db__class__defs_1_1_d_b_base.html#a9cecfb49b2da2b1f574adc0d810fb5c2" target="_top" xlink:title=" ">
<polygon fill="white" stroke="black" points="375,-19.5 375,-38.5 588,-38.5 588,-19.5 375,-19.5"/>
<text text-anchor="middle" x="481.5" y="-26.5" font-family="Helvetica,sans-Serif" font-size="10.00">src.db_tools.db_class_defs.DBBase.add_row</text>
</a>
</g>
</g>
<!-- Node1&#45;&gt;Node5 -->
<g id="edge4" class="edge">
<title>Node1&#45;&gt;Node5</title>
<path fill="none" stroke="midnightblue" d="M189.64,-76.47C226.51,-68.15 282.16,-56.17 331,-48 348.74,-45.03 367.74,-42.28 386.04,-39.86"/>
<polygon fill="midnightblue" stroke="midnightblue" points="386.66,-43.31 396.12,-38.54 385.76,-36.37 386.66,-43.31"/>
</g>
<!-- Node6 -->
<g id="node6" class="node">
<title>Node6</title>
<g id="a_node6"><a xlink:href="classsrc_1_1db__tools_1_1db__class__defs_1_1_d_b_base.html#a429bfd28d78ab3be7bfc8b3f24509fa1" target="_top" xlink:title="Calling this property requires that we have made a previous call to self.__call__() in order to prope...">
<polygon fill="white" stroke="black" points="908,-19.5 908,-38.5 1132,-38.5 1132,-19.5 908,-19.5"/>
<text text-anchor="middle" x="1020" y="-26.5" font-family="Helvetica,sans-Serif" font-size="10.00">src.db_tools.db_class_defs.DBBase.connection</text>
</a>
</g>
</g>
<!-- Node5&#45;&gt;Node6 -->
<g id="edge5" class="edge">
<title>Node5&#45;&gt;Node6</title>
<path fill="none" stroke="midnightblue" d="M588.17,-29C677.13,-29 804.37,-29 897.51,-29"/>
<polygon fill="midnightblue" stroke="midnightblue" points="897.55,-32.5 907.55,-29 897.55,-25.5 897.55,-32.5"/>
</g>
<!-- Node7 -->
<g id="node7" class="node">
<title>Node7</title>
<g id="a_node7"><a xlink:href="classsrc_1_1db__tools_1_1db__class__defs_1_1_d_b_base.html#afab76d33daab3aa5e5c9263f284ee9d6" target="_top" xlink:title=" ">
<polygon fill="white" stroke="black" points="668,-0.5 668,-19.5 872,-19.5 872,-0.5 668,-0.5"/>
<text text-anchor="middle" x="770" y="-7.5" font-family="Helvetica,sans-Serif" font-size="10.00">src.db_tools.db_class_defs.DBBase.cursor</text>
</a>
</g>
</g>
<!-- Node5&#45;&gt;Node7 -->
<g id="edge6" class="edge">
<title>Node5&#45;&gt;Node7</title>
<path fill="none" stroke="midnightblue" d="M588.37,-21.98C611,-20.48 634.97,-18.89 657.8,-17.37"/>
<polygon fill="midnightblue" stroke="midnightblue" points="658.1,-20.86 667.85,-16.71 657.64,-13.88 658.1,-20.86"/>
</g>
<!-- Node7&#45;&gt;Node6 -->
<g id="edge7" class="edge">
<title>Node7&#45;&gt;Node6</title>
<path fill="none" stroke="midnightblue" d="M872.23,-17.76C880.7,-18.4 889.32,-19.06 897.92,-19.72"/>
<polygon fill="midnightblue" stroke="midnightblue" points="897.76,-23.22 907.99,-20.5 898.29,-16.24 897.76,-23.22"/>
</g>
</g>
</svg>
