<?xml version="1.0" encoding="UTF-8" standalone="no"?>
<!DOCTYPE svg PUBLIC "-//W3C//DTD SVG 1.1//EN"
 "http://www.w3.org/Graphics/SVG/1.1/DTD/svg11.dtd">
<!-- Generated by graphviz version 2.47.1 (20210417.1919)
 -->
<!-- Title: src.eralchemy.models.Drawable Pages: 1 -->
<svg width="350pt" height="104pt"
 viewBox="0.00 0.00 350.00 104.00" xmlns="http://www.w3.org/2000/svg" xmlns:xlink="http://www.w3.org/1999/xlink">
<g id="graph0" class="graph" transform="scale(1 1) rotate(0) translate(4 100)">
<title>src.eralchemy.models.Drawable</title>
<polygon fill="white" stroke="transparent" points="-4,4 -4,-100 346,-100 346,4 -4,4"/>
<!-- Node1 -->
<g id="node1" class="node">
<title>Node1</title>
<g id="a_node1"><a xlink:title=" ">
<polygon fill="#bfbfbf" stroke="black" points="0,-38.5 0,-57.5 155,-57.5 155,-38.5 0,-38.5"/>
<text text-anchor="middle" x="77.5" y="-45.5" font-family="Helvetica,sans-Serif" font-size="10.00">src.eralchemy.models.Drawable</text>
</a>
</g>
</g>
<!-- Node2 -->
<g id="node2" class="node">
<title>Node2</title>
<g id="a_node2"><a xlink:href="classsrc_1_1eralchemy_1_1models_1_1_column.html" target="_top" xlink:title=" ">
<polygon fill="white" stroke="black" points="192,-76.5 192,-95.5 341,-95.5 341,-76.5 192,-76.5"/>
<text text-anchor="middle" x="266.5" y="-83.5" font-family="Helvetica,sans-Serif" font-size="10.00">src.eralchemy.models.Column</text>
</a>
</g>
</g>
<!-- Node1&#45;&gt;Node2 -->
<g id="edge1" class="edge">
<title>Node1&#45;&gt;Node2</title>
<path fill="none" stroke="midnightblue" d="M135.63,-59.61C162.23,-65.01 193.47,-71.36 218.65,-76.48"/>
<polygon fill="midnightblue" stroke="midnightblue" points="136.18,-56.15 125.69,-57.59 134.79,-63.01 136.18,-56.15"/>
</g>
<!-- Node3 -->
<g id="node3" class="node">
<title>Node3</title>
<g id="a_node3"><a xlink:href="classsrc_1_1eralchemy_1_1models_1_1_relation.html" target="_top" xlink:title=" ">
<polygon fill="white" stroke="black" points="191,-38.5 191,-57.5 342,-57.5 342,-38.5 191,-38.5"/>
<text text-anchor="middle" x="266.5" y="-45.5" font-family="Helvetica,sans-Serif" font-size="10.00">src.eralchemy.models.Relation</text>
</a>
</g>
</g>
<!-- Node1&#45;&gt;Node3 -->
<g id="edge2" class="edge">
<title>Node1&#45;&gt;Node3</title>
<path fill="none" stroke="midnightblue" d="M165.13,-48C173.72,-48 182.38,-48 190.83,-48"/>
<polygon fill="midnightblue" stroke="midnightblue" points="165.1,-44.5 155.1,-48 165.1,-51.5 165.1,-44.5"/>
</g>
<!-- Node4 -->
<g id="node4" class="node">
<title>Node4</title>
<g id="a_node4"><a xlink:href="classsrc_1_1eralchemy_1_1models_1_1_table.html" target="_top" xlink:title=" ">
<polygon fill="white" stroke="black" points="197,-0.5 197,-19.5 336,-19.5 336,-0.5 197,-0.5"/>
<text text-anchor="middle" x="266.5" y="-7.5" font-family="Helvetica,sans-Serif" font-size="10.00">src.eralchemy.models.Table</text>
</a>
</g>
</g>
<!-- Node1&#45;&gt;Node4 -->
<g id="edge3" class="edge">
<title>Node1&#45;&gt;Node4</title>
<path fill="none" stroke="midnightblue" d="M135.63,-36.39C162.23,-30.99 193.47,-24.64 218.65,-19.52"/>
<polygon fill="midnightblue" stroke="midnightblue" points="134.79,-32.99 125.69,-38.41 136.18,-39.85 134.79,-32.99"/>
</g>
</g>
</svg>
