<?xml version="1.0" encoding="UTF-8" standalone="no"?>
<!DOCTYPE svg PUBLIC "-//W3C//DTD SVG 1.1//EN"
 "http://www.w3.org/Graphics/SVG/1.1/DTD/svg11.dtd">
<!-- Generated by graphviz version 2.47.1 (20210417.1919)
 -->
<!-- Title: src.utils.JPickleSerializable.__conform__ Pages: 1 -->
<svg width="353pt" height="78pt"
 viewBox="0.00 0.00 353.00 77.50" xmlns="http://www.w3.org/2000/svg" xmlns:xlink="http://www.w3.org/1999/xlink">
<g id="graph0" class="graph" transform="scale(1 1) rotate(0) translate(4 73.5)">
<title>src.utils.JPickleSerializable.__conform__</title>
<polygon fill="white" stroke="transparent" points="-4,4 -4,-73.5 349,-73.5 349,4 -4,4"/>
<!-- Node1 -->
<g id="node1" class="node">
<title>Node1</title>
<g id="a_node1"><a xlink:title=" ">
<polygon fill="#bfbfbf" stroke="black" points="0,-22.5 0,-52.5 139,-52.5 139,-22.5 0,-22.5"/>
<text text-anchor="start" x="8" y="-40.5" font-family="Helvetica,sans-Serif" font-size="10.00">src.utils.JPickleSerializable.</text>
<text text-anchor="middle" x="69.5" y="-29.5" font-family="Helvetica,sans-Serif" font-size="10.00">__conform__</text>
</a>
</g>
</g>
<!-- Node2 -->
<g id="node2" class="node">
<title>Node2</title>
<g id="a_node2"><a xlink:href="classsrc_1_1utils_1_1_j_pickle_serializable.html#addd7dc2224b1ff399f41c6c344dad59b" target="_top" xlink:title=" ">
<polygon fill="white" stroke="black" points="175,-50 175,-69 345,-69 345,-50 175,-50"/>
<text text-anchor="middle" x="260" y="-57" font-family="Helvetica,sans-Serif" font-size="10.00">src.utils.JPickleSerializable.to_json</text>
</a>
</g>
</g>
<!-- Node1&#45;&gt;Node2 -->
<g id="edge1" class="edge">
<title>Node1&#45;&gt;Node2</title>
<path fill="none" stroke="midnightblue" d="M139.09,-45.5C148.21,-46.57 157.68,-47.67 167.11,-48.78"/>
<polygon fill="midnightblue" stroke="midnightblue" points="166.99,-52.28 177.33,-49.97 167.8,-45.33 166.99,-52.28"/>
</g>
<!-- Node3 -->
<g id="node3" class="node">
<title>Node3</title>
<g id="a_node3"><a xlink:href="classsrc_1_1utils_1_1backup_1_1_j_pickle_serializable.html#a1b9a3fb302c111258e64dda3fb31878e" target="_top" xlink:title=" ">
<polygon fill="white" stroke="black" points="200,-0.5 200,-30.5 320,-30.5 320,-0.5 200,-0.5"/>
<text text-anchor="start" x="208" y="-18.5" font-family="Helvetica,sans-Serif" font-size="10.00">src.utils.backup.JPickle</text>
<text text-anchor="middle" x="260" y="-7.5" font-family="Helvetica,sans-Serif" font-size="10.00">Serializable.to_json</text>
</a>
</g>
</g>
<!-- Node1&#45;&gt;Node3 -->
<g id="edge2" class="edge">
<title>Node1&#45;&gt;Node3</title>
<path fill="none" stroke="midnightblue" d="M139.09,-29.5C155.56,-27.57 173.17,-25.52 189.68,-23.59"/>
<polygon fill="midnightblue" stroke="midnightblue" points="190.27,-27.05 199.8,-22.41 189.46,-20.09 190.27,-27.05"/>
</g>
</g>
</svg>
