<?xml version="1.0" encoding="UTF-8" standalone="no"?>
<!DOCTYPE svg PUBLIC "-//W3C//DTD SVG 1.1//EN"
 "http://www.w3.org/Graphics/SVG/1.1/DTD/svg11.dtd">
<!-- Generated by graphviz version 2.47.1 (20210417.1919)
 -->
<!-- Title: src.eralchemy.parser.ParsingException Pages: 1 -->
<svg width="556pt" height="180pt"
 viewBox="0.00 0.00 556.00 180.00" xmlns="http://www.w3.org/2000/svg" xmlns:xlink="http://www.w3.org/1999/xlink">
<g id="graph0" class="graph" transform="scale(1 1) rotate(0) translate(4 176)">
<title>src.eralchemy.parser.ParsingException</title>
<polygon fill="white" stroke="transparent" points="-4,4 -4,-176 552,-176 552,4 -4,4"/>
<!-- Node1 -->
<g id="node1" class="node">
<title>Node1</title>
<g id="a_node1"><a xlink:title=" ">
<polygon fill="#bfbfbf" stroke="black" points="96,-76.5 96,-95.5 284,-95.5 284,-76.5 96,-76.5"/>
<text text-anchor="middle" x="190" y="-83.5" font-family="Helvetica,sans-Serif" font-size="10.00">src.eralchemy.parser.ParsingException</text>
</a>
</g>
</g>
<!-- Node3 -->
<g id="node3" class="node">
<title>Node3</title>
<g id="a_node3"><a xlink:href="classsrc_1_1eralchemy_1_1parser_1_1_duplicate_column_exception.html" target="_top" xlink:title=" ">
<polygon fill="white" stroke="black" points="320,-152.5 320,-171.5 548,-171.5 548,-152.5 320,-152.5"/>
<text text-anchor="middle" x="434" y="-159.5" font-family="Helvetica,sans-Serif" font-size="10.00">src.eralchemy.parser.DuplicateColumnException</text>
</a>
</g>
</g>
<!-- Node1&#45;&gt;Node3 -->
<g id="edge2" class="edge">
<title>Node1&#45;&gt;Node3</title>
<path fill="none" stroke="midnightblue" d="M217.89,-100.26C243.48,-113.25 283.4,-132.02 320,-143 332.77,-146.83 346.59,-149.95 360.05,-152.48"/>
<polygon fill="midnightblue" stroke="midnightblue" points="219.32,-97.06 208.83,-95.59 216.12,-103.28 219.32,-97.06"/>
</g>
<!-- Node4 -->
<g id="node4" class="node">
<title>Node4</title>
<g id="a_node4"><a xlink:href="classsrc_1_1eralchemy_1_1parser_1_1_duplicate_table_exception.html" target="_top" xlink:title=" ">
<polygon fill="white" stroke="black" points="325,-114.5 325,-133.5 543,-133.5 543,-114.5 325,-114.5"/>
<text text-anchor="middle" x="434" y="-121.5" font-family="Helvetica,sans-Serif" font-size="10.00">src.eralchemy.parser.DuplicateTableException</text>
</a>
</g>
</g>
<!-- Node1&#45;&gt;Node4 -->
<g id="edge3" class="edge">
<title>Node1&#45;&gt;Node4</title>
<path fill="none" stroke="midnightblue" d="M261.91,-97.13C296.91,-102.63 338.7,-109.19 372.22,-114.46"/>
<polygon fill="midnightblue" stroke="midnightblue" points="262.18,-93.63 251.75,-95.54 261.09,-100.55 262.18,-93.63"/>
</g>
<!-- Node5 -->
<g id="node5" class="node">
<title>Node5</title>
<g id="a_node5"><a xlink:href="classsrc_1_1eralchemy_1_1parser_1_1_e_r_alchemy_line_parse_error.html" target="_top" xlink:title=" ">
<polygon fill="white" stroke="black" points="320.5,-76.5 320.5,-95.5 547.5,-95.5 547.5,-76.5 320.5,-76.5"/>
<text text-anchor="middle" x="434" y="-83.5" font-family="Helvetica,sans-Serif" font-size="10.00">src.eralchemy.parser.ERAlchemyLineParseError</text>
</a>
</g>
</g>
<!-- Node1&#45;&gt;Node5 -->
<g id="edge4" class="edge">
<title>Node1&#45;&gt;Node5</title>
<path fill="none" stroke="midnightblue" d="M294.29,-86C302.94,-86 311.7,-86 320.41,-86"/>
<polygon fill="midnightblue" stroke="midnightblue" points="294.22,-82.5 284.22,-86 294.22,-89.5 294.22,-82.5"/>
</g>
<!-- Node6 -->
<g id="node6" class="node">
<title>Node6</title>
<g id="a_node6"><a xlink:href="classsrc_1_1eralchemy_1_1parser_1_1_no_current_table_exception.html" target="_top" xlink:title=" ">
<polygon fill="white" stroke="black" points="323.5,-38.5 323.5,-57.5 544.5,-57.5 544.5,-38.5 323.5,-38.5"/>
<text text-anchor="middle" x="434" y="-45.5" font-family="Helvetica,sans-Serif" font-size="10.00">src.eralchemy.parser.NoCurrentTableException</text>
</a>
</g>
</g>
<!-- Node1&#45;&gt;Node6 -->
<g id="edge5" class="edge">
<title>Node1&#45;&gt;Node6</title>
<path fill="none" stroke="midnightblue" d="M261.91,-74.87C296.91,-69.37 338.7,-62.81 372.22,-57.54"/>
<polygon fill="midnightblue" stroke="midnightblue" points="261.09,-71.45 251.75,-76.46 262.18,-78.37 261.09,-71.45"/>
</g>
<!-- Node7 -->
<g id="node7" class="node">
<title>Node7</title>
<g id="a_node7"><a xlink:href="classsrc_1_1eralchemy_1_1parser_1_1_relation_no_col_exception.html" target="_top" xlink:title=" ">
<polygon fill="white" stroke="black" points="326,-0.5 326,-19.5 542,-19.5 542,-0.5 326,-0.5"/>
<text text-anchor="middle" x="434" y="-7.5" font-family="Helvetica,sans-Serif" font-size="10.00">src.eralchemy.parser.RelationNoColException</text>
</a>
</g>
</g>
<!-- Node1&#45;&gt;Node7 -->
<g id="edge6" class="edge">
<title>Node1&#45;&gt;Node7</title>
<path fill="none" stroke="midnightblue" d="M217.89,-71.74C243.48,-58.75 283.4,-39.98 320,-29 332.77,-25.17 346.59,-22.05 360.05,-19.52"/>
<polygon fill="midnightblue" stroke="midnightblue" points="216.12,-68.72 208.83,-76.41 219.32,-74.94 216.12,-68.72"/>
</g>
<!-- Node2 -->
<g id="node2" class="node">
<title>Node2</title>
<g id="a_node2"><a xlink:title=" ">
<polygon fill="white" stroke="#bfbfbf" points="0,-76.5 0,-95.5 60,-95.5 60,-76.5 0,-76.5"/>
<text text-anchor="middle" x="30" y="-83.5" font-family="Helvetica,sans-Serif" font-size="10.00">Exception</text>
</a>
</g>
</g>
<!-- Node2&#45;&gt;Node1 -->
<g id="edge1" class="edge">
<title>Node2&#45;&gt;Node1</title>
<path fill="none" stroke="midnightblue" d="M70.57,-86C78.42,-86 86.96,-86 95.75,-86"/>
<polygon fill="midnightblue" stroke="midnightblue" points="70.35,-82.5 60.35,-86 70.35,-89.5 70.35,-82.5"/>
</g>
</g>
</svg>
