<?xml version="1.0" encoding="UTF-8" standalone="no"?>
<!DOCTYPE svg PUBLIC "-//W3C//DTD SVG 1.1//EN"
 "http://www.w3.org/Graphics/SVG/1.1/DTD/svg11.dtd">
<!-- Generated by graphviz version 2.47.1 (20210417.1919)
 -->
<!-- Title: src.lemma_extraction.word_extraction_classes.LemmaExtractor.to_table_row_dict Pages: 1 -->
<svg width="733pt" height="318pt"
 viewBox="0.00 0.00 733.00 317.50" xmlns="http://www.w3.org/2000/svg" xmlns:xlink="http://www.w3.org/1999/xlink">
<g id="graph0" class="graph" transform="scale(1 1) rotate(0) translate(4 313.5)">
<title>src.lemma_extraction.word_extraction_classes.LemmaExtractor.to_table_row_dict</title>
<polygon fill="white" stroke="transparent" points="-4,4 -4,-313.5 729,-313.5 729,4 -4,4"/>
<!-- Node1 -->
<g id="node1" class="node">
<title>Node1</title>
<g id="a_node1"><a xlink:title=" ">
<polygon fill="#bfbfbf" stroke="black" points="0,-120 0,-161 190,-161 190,-120 0,-120"/>
<text text-anchor="start" x="8" y="-149" font-family="Helvetica,sans-Serif" font-size="10.00">src.lemma_extraction.word</text>
<text text-anchor="start" x="8" y="-138" font-family="Helvetica,sans-Serif" font-size="10.00">_extraction_classes.LemmaExtractor.to</text>
<text text-anchor="middle" x="95" y="-127" font-family="Helvetica,sans-Serif" font-size="10.00">_table_row_dict</text>
</a>
</g>
</g>
<!-- Node2 -->
<g id="node2" class="node">
<title>Node2</title>
<g id="a_node2"><a xlink:href="classsrc_1_1lemma__extraction_1_1word__extraction__classes_1_1_lemma_extractor.html#ac4da7ea849dc0a5eafa7b41256035537" target="_top" xlink:title=" ">
<polygon fill="white" stroke="black" points="260.5,-268 260.5,-309 442.5,-309 442.5,-268 260.5,-268"/>
<text text-anchor="start" x="268.5" y="-297" font-family="Helvetica,sans-Serif" font-size="10.00">src.lemma_extraction.word</text>
<text text-anchor="start" x="268.5" y="-286" font-family="Helvetica,sans-Serif" font-size="10.00">_extraction_classes.LemmaExtractor.</text>
<text text-anchor="middle" x="351.5" y="-275" font-family="Helvetica,sans-Serif" font-size="10.00">_count_vectorization</text>
</a>
</g>
</g>
<!-- Node1&#45;&gt;Node2 -->
<g id="edge1" class="edge">
<title>Node1&#45;&gt;Node2</title>
<path fill="none" stroke="midnightblue" d="M113.04,-161.43C135.91,-188.09 179.12,-233.69 226,-258.5 233.78,-262.62 242.13,-266.18 250.7,-269.26"/>
<polygon fill="midnightblue" stroke="midnightblue" points="249.84,-272.66 260.43,-272.53 252.07,-266.03 249.84,-272.66"/>
</g>
<!-- Node3 -->
<g id="node3" class="node">
<title>Node3</title>
<g id="a_node3"><a xlink:href="classsrc_1_1lemma__extraction_1_1word__extraction__classes_1_1_lemma_extractor.html#a8edd0fe27eced07828ec901a7cd28ed5" target="_top" xlink:title=" ">
<polygon fill="white" stroke="black" points="255.5,-208 255.5,-249 447.5,-249 447.5,-208 255.5,-208"/>
<text text-anchor="start" x="263.5" y="-237" font-family="Helvetica,sans-Serif" font-size="10.00">src.lemma_extraction.word</text>
<text text-anchor="start" x="263.5" y="-226" font-family="Helvetica,sans-Serif" font-size="10.00">_extraction_classes.LemmaExtractor.do</text>
<text text-anchor="middle" x="351.5" y="-215" font-family="Helvetica,sans-Serif" font-size="10.00">_all_lemma_join</text>
</a>
</g>
</g>
<!-- Node1&#45;&gt;Node3 -->
<g id="edge2" class="edge">
<title>Node1&#45;&gt;Node3</title>
<path fill="none" stroke="midnightblue" d="M136.79,-161.02C162.03,-173.13 195.35,-188.07 226,-198.5 232.87,-200.84 240.02,-203.07 247.26,-205.18"/>
<polygon fill="midnightblue" stroke="midnightblue" points="246.59,-208.63 257.16,-207.99 248.49,-201.89 246.59,-208.63"/>
</g>
<!-- Node5 -->
<g id="node5" class="node">
<title>Node5</title>
<g id="a_node5"><a xlink:href="classsrc_1_1lemma__extraction_1_1word__extraction__classes_1_1_lemma_extractor.html#a7244548bc27ffaaf0b429c0bf02527a0" target="_top" xlink:title=" ">
<polygon fill="white" stroke="black" points="255.5,-148 255.5,-189 447.5,-189 447.5,-148 255.5,-148"/>
<text text-anchor="start" x="263.5" y="-177" font-family="Helvetica,sans-Serif" font-size="10.00">src.lemma_extraction.word</text>
<text text-anchor="start" x="263.5" y="-166" font-family="Helvetica,sans-Serif" font-size="10.00">_extraction_classes.LemmaExtractor.do</text>
<text text-anchor="middle" x="351.5" y="-155" font-family="Helvetica,sans-Serif" font-size="10.00">_no_stops_lemma_join</text>
</a>
</g>
</g>
<!-- Node1&#45;&gt;Node5 -->
<g id="edge4" class="edge">
<title>Node1&#45;&gt;Node5</title>
<path fill="none" stroke="midnightblue" d="M190.04,-150.85C207.96,-152.82 226.83,-154.89 245.08,-156.9"/>
<polygon fill="midnightblue" stroke="midnightblue" points="244.82,-160.39 255.14,-158.01 245.59,-153.44 244.82,-160.39"/>
</g>
<!-- Node6 -->
<g id="node6" class="node">
<title>Node6</title>
<g id="a_node6"><a xlink:href="classsrc_1_1lemma__extraction_1_1word__extraction__classes_1_1_lemma_extractor.html#a566976cb79c727c05089d250a813b0e7" target="_top" xlink:title=" ">
<polygon fill="white" stroke="black" points="246.5,-98.5 246.5,-128.5 456.5,-128.5 456.5,-98.5 246.5,-98.5"/>
<text text-anchor="start" x="254.5" y="-116.5" font-family="Helvetica,sans-Serif" font-size="10.00">src.lemma_extraction.word</text>
<text text-anchor="middle" x="351.5" y="-105.5" font-family="Helvetica,sans-Serif" font-size="10.00">_extraction_classes.LemmaExtractor.doc_id</text>
</a>
</g>
</g>
<!-- Node1&#45;&gt;Node6 -->
<g id="edge6" class="edge">
<title>Node1&#45;&gt;Node6</title>
<path fill="none" stroke="midnightblue" d="M190.04,-130.52C205.03,-128.93 220.67,-127.27 236.06,-125.64"/>
<polygon fill="midnightblue" stroke="midnightblue" points="236.56,-129.11 246.13,-124.57 235.82,-122.15 236.56,-129.11"/>
</g>
<!-- Node7 -->
<g id="node7" class="node">
<title>Node7</title>
<g id="a_node7"><a xlink:href="classsrc_1_1lemma__extraction_1_1word__extraction__classes_1_1_lemma_extractor.html#ac017b01087cf5579d0ee020cf97d6b87" target="_top" xlink:title=" ">
<polygon fill="white" stroke="black" points="246,-49.5 246,-79.5 457,-79.5 457,-49.5 246,-49.5"/>
<text text-anchor="start" x="254" y="-67.5" font-family="Helvetica,sans-Serif" font-size="10.00">src.lemma_extraction.word</text>
<text text-anchor="middle" x="351.5" y="-56.5" font-family="Helvetica,sans-Serif" font-size="10.00">_extraction_classes.LemmaExtractor.lemma</text>
</a>
</g>
</g>
<!-- Node1&#45;&gt;Node7 -->
<g id="edge7" class="edge">
<title>Node1&#45;&gt;Node7</title>
<path fill="none" stroke="midnightblue" d="M142.54,-119.94C167.02,-109.72 197.74,-97.81 226,-89.5 235.44,-86.72 245.37,-84.16 255.33,-81.81"/>
<polygon fill="midnightblue" stroke="midnightblue" points="256.32,-85.17 265.29,-79.54 254.77,-78.35 256.32,-85.17"/>
</g>
<!-- Node8 -->
<g id="node8" class="node">
<title>Node8</title>
<g id="a_node8"><a xlink:href="classsrc_1_1lemma__extraction_1_1word__extraction__classes_1_1_lemma_extractor.html#a3f128ef6e4f92848f6ab0841103ff3e8" target="_top" xlink:title=" ">
<polygon fill="white" stroke="black" points="226,-0.5 226,-30.5 477,-30.5 477,-0.5 226,-0.5"/>
<text text-anchor="start" x="234" y="-18.5" font-family="Helvetica,sans-Serif" font-size="10.00">src.lemma_extraction.word</text>
<text text-anchor="middle" x="351.5" y="-7.5" font-family="Helvetica,sans-Serif" font-size="10.00">_extraction_classes.LemmaExtractor.stopped_lemma</text>
</a>
</g>
</g>
<!-- Node1&#45;&gt;Node8 -->
<g id="edge8" class="edge">
<title>Node1&#45;&gt;Node8</title>
<path fill="none" stroke="midnightblue" d="M116.52,-119.78C140.58,-96.75 182.72,-60.19 226,-40.5 231.46,-38.01 237.17,-35.77 243.01,-33.76"/>
<polygon fill="midnightblue" stroke="midnightblue" points="244.5,-36.96 252.95,-30.57 242.36,-30.29 244.5,-36.96"/>
</g>
<!-- Node4 -->
<g id="node4" class="node">
<title>Node4</title>
<g id="a_node4"><a xlink:href="classsrc_1_1lemma__extraction_1_1word__extraction__classes_1_1_lemma_extractor.html#a6d02130e23d944bbdcfba767428b317b" target="_top" xlink:title=" ">
<polygon fill="white" stroke="black" points="513,-183.5 513,-213.5 725,-213.5 725,-183.5 513,-183.5"/>
<text text-anchor="start" x="521" y="-201.5" font-family="Helvetica,sans-Serif" font-size="10.00">src.lemma_extraction.word</text>
<text text-anchor="middle" x="619" y="-190.5" font-family="Helvetica,sans-Serif" font-size="10.00">_extraction_classes.LemmaExtractor.do_join</text>
</a>
</g>
</g>
<!-- Node3&#45;&gt;Node4 -->
<g id="edge3" class="edge">
<title>Node3&#45;&gt;Node4</title>
<path fill="none" stroke="midnightblue" d="M447.6,-217.75C465.43,-215.74 484.24,-213.61 502.61,-211.54"/>
<polygon fill="midnightblue" stroke="midnightblue" points="503.21,-214.99 512.75,-210.39 502.42,-208.04 503.21,-214.99"/>
</g>
<!-- Node5&#45;&gt;Node4 -->
<g id="edge5" class="edge">
<title>Node5&#45;&gt;Node4</title>
<path fill="none" stroke="midnightblue" d="M447.6,-179.25C465.43,-181.26 484.24,-183.39 502.61,-185.46"/>
<polygon fill="midnightblue" stroke="midnightblue" points="502.42,-188.96 512.75,-186.61 503.21,-182.01 502.42,-188.96"/>
</g>
</g>
</svg>
