<?xml version="1.0" encoding="UTF-8" standalone="no"?>
<!DOCTYPE svg PUBLIC "-//W3C//DTD SVG 1.1//EN"
 "http://www.w3.org/Graphics/SVG/1.1/DTD/svg11.dtd">
<!-- Generated by graphviz version 2.47.1 (20210417.1919)
 -->
<!-- Title: src.utils.backup.custom_logger.LogManager.__getattribute__ Pages: 1 -->
<svg width="510pt" height="100pt"
 viewBox="0.00 0.00 510.00 99.50" xmlns="http://www.w3.org/2000/svg" xmlns:xlink="http://www.w3.org/1999/xlink">
<g id="graph0" class="graph" transform="scale(1 1) rotate(0) translate(4 95.5)">
<title>src.utils.backup.custom_logger.LogManager.__getattribute__</title>
<polygon fill="white" stroke="transparent" points="-4,4 -4,-95.5 506,-95.5 506,4 -4,4"/>
<!-- Node1 -->
<g id="node1" class="node">
<title>Node1</title>
<g id="a_node1"><a xlink:title=" ">
<polygon fill="#bfbfbf" stroke="black" points="0,-27.5 0,-57.5 177,-57.5 177,-27.5 0,-27.5"/>
<text text-anchor="start" x="8" y="-45.5" font-family="Helvetica,sans-Serif" font-size="10.00">src.utils.backup.custom</text>
<text text-anchor="middle" x="88.5" y="-34.5" font-family="Helvetica,sans-Serif" font-size="10.00">_logger.LogManager.__getattribute__</text>
</a>
</g>
</g>
<!-- Node2 -->
<g id="node2" class="node">
<title>Node2</title>
<g id="a_node2"><a xlink:href="namespacesrc_1_1utils_1_1backup_1_1custom__logger.html#ac6928a8a1836987261bc3742fb4816d9" target="_top" xlink:title=" ">
<polygon fill="white" stroke="black" points="213,-27.5 213,-57.5 334,-57.5 334,-27.5 213,-27.5"/>
<text text-anchor="start" x="221" y="-45.5" font-family="Helvetica,sans-Serif" font-size="10.00">src.utils.backup.custom</text>
<text text-anchor="middle" x="273.5" y="-34.5" font-family="Helvetica,sans-Serif" font-size="10.00">_logger._logger_setup</text>
</a>
</g>
</g>
<!-- Node1&#45;&gt;Node2 -->
<g id="edge1" class="edge">
<title>Node1&#45;&gt;Node2</title>
<path fill="none" stroke="midnightblue" d="M177.25,-42.5C185.86,-42.5 194.51,-42.5 202.9,-42.5"/>
<polygon fill="midnightblue" stroke="midnightblue" points="202.99,-46 212.99,-42.5 202.99,-39 202.99,-46"/>
</g>
<!-- Node3 -->
<g id="node3" class="node">
<title>Node3</title>
<g id="a_node3"><a xlink:href="namespacesrc_1_1utils_1_1backup_1_1custom__logger.html#a27daf7da0c7a0813a099e35e53e8d853" target="_top" xlink:title=" ">
<polygon fill="white" stroke="black" points="375.5,-50 375.5,-91 496.5,-91 496.5,-50 375.5,-50"/>
<text text-anchor="start" x="383.5" y="-79" font-family="Helvetica,sans-Serif" font-size="10.00">src.utils.backup.custom</text>
<text text-anchor="start" x="383.5" y="-68" font-family="Helvetica,sans-Serif" font-size="10.00">_logger._build_default</text>
<text text-anchor="middle" x="436" y="-57" font-family="Helvetica,sans-Serif" font-size="10.00">_formatter</text>
</a>
</g>
</g>
<!-- Node2&#45;&gt;Node3 -->
<g id="edge2" class="edge">
<title>Node2&#45;&gt;Node3</title>
<path fill="none" stroke="midnightblue" d="M334.26,-52.93C344.46,-54.71 355.13,-56.57 365.56,-58.39"/>
<polygon fill="midnightblue" stroke="midnightblue" points="365,-61.84 375.45,-60.11 366.2,-54.95 365,-61.84"/>
</g>
<!-- Node4 -->
<g id="node4" class="node">
<title>Node4</title>
<g id="a_node4"><a xlink:href="namespacesrc_1_1utils_1_1backup_1_1custom__logger.html#ad0bdcdf6528dc06e310f218ce95930d4" target="_top" xlink:title=" ">
<polygon fill="white" stroke="black" points="370,-0.5 370,-30.5 502,-30.5 502,-0.5 370,-0.5"/>
<text text-anchor="start" x="378" y="-18.5" font-family="Helvetica,sans-Serif" font-size="10.00">src.utils.backup.custom</text>
<text text-anchor="middle" x="436" y="-7.5" font-family="Helvetica,sans-Serif" font-size="10.00">_logger._configure_handler</text>
</a>
</g>
</g>
<!-- Node2&#45;&gt;Node4 -->
<g id="edge3" class="edge">
<title>Node2&#45;&gt;Node4</title>
<path fill="none" stroke="midnightblue" d="M334.26,-32.45C342.59,-31.05 351.24,-29.59 359.8,-28.15"/>
<polygon fill="midnightblue" stroke="midnightblue" points="360.52,-31.58 369.8,-26.47 359.36,-24.68 360.52,-31.58"/>
</g>
</g>
</svg>
