<?xml version="1.0" encoding="UTF-8" standalone="no"?>
<!DOCTYPE svg PUBLIC "-//W3C//DTD SVG 1.1//EN"
 "http://www.w3.org/Graphics/SVG/1.1/DTD/svg11.dtd">
<!-- Generated by graphviz version 2.47.1 (20210417.1919)
 -->
<!-- Title: src.eralchemy.parser.NoCurrentTableException Pages: 1 -->
<svg width="212pt" height="174pt"
 viewBox="0.00 0.00 211.50 174.00" xmlns="http://www.w3.org/2000/svg" xmlns:xlink="http://www.w3.org/1999/xlink">
<g id="graph0" class="graph" transform="scale(1 1) rotate(0) translate(4 170)">
<title>src.eralchemy.parser.NoCurrentTableException</title>
<polygon fill="white" stroke="transparent" points="-4,4 -4,-170 207.5,-170 207.5,4 -4,4"/>
<!-- Node1 -->
<g id="node1" class="node">
<title>Node1</title>
<g id="a_node1"><a xlink:title=" ">
<polygon fill="#bfbfbf" stroke="black" points="48.5,-0.5 48.5,-30.5 203.5,-30.5 203.5,-0.5 48.5,-0.5"/>
<text text-anchor="start" x="56.5" y="-18.5" font-family="Helvetica,sans-Serif" font-size="10.00">src.eralchemy.parser.NoCurrent</text>
<text text-anchor="middle" x="126" y="-7.5" font-family="Helvetica,sans-Serif" font-size="10.00">TableException</text>
</a>
</g>
</g>
<!-- Node2 -->
<g id="node2" class="node">
<title>Node2</title>
<g id="a_node2"><a xlink:href="classsrc_1_1eralchemy_1_1parser_1_1_parsing_exception.html" target="_top" xlink:title=" ">
<polygon fill="white" stroke="black" points="0,-68.5 0,-98.5 144,-98.5 144,-68.5 0,-68.5"/>
<text text-anchor="start" x="8" y="-86.5" font-family="Helvetica,sans-Serif" font-size="10.00">src.eralchemy.parser.Parsing</text>
<text text-anchor="middle" x="72" y="-75.5" font-family="Helvetica,sans-Serif" font-size="10.00">Exception</text>
</a>
</g>
</g>
<!-- Node2&#45;&gt;Node1 -->
<g id="edge1" class="edge">
<title>Node2&#45;&gt;Node1</title>
<path fill="none" stroke="midnightblue" d="M90.08,-60.4C98.07,-50.64 107.23,-39.44 114.31,-30.79"/>
<polygon fill="midnightblue" stroke="midnightblue" points="87.34,-58.22 83.72,-68.18 92.76,-62.66 87.34,-58.22"/>
</g>
<!-- Node3 -->
<g id="node3" class="node">
<title>Node3</title>
<g id="a_node3"><a xlink:title=" ">
<polygon fill="white" stroke="#bfbfbf" points="29,-146.5 29,-165.5 89,-165.5 89,-146.5 29,-146.5"/>
<text text-anchor="middle" x="59" y="-153.5" font-family="Helvetica,sans-Serif" font-size="10.00">Exception</text>
</a>
</g>
</g>
<!-- Node3&#45;&gt;Node2 -->
<g id="edge2" class="edge">
<title>Node3&#45;&gt;Node2</title>
<path fill="none" stroke="midnightblue" d="M62.46,-136.24C64.64,-124.41 67.41,-109.38 69.4,-98.58"/>
<polygon fill="midnightblue" stroke="midnightblue" points="58.97,-135.89 60.59,-146.36 65.85,-137.16 58.97,-135.89"/>
</g>
<!-- Node4 -->
<g id="node4" class="node">
<title>Node4</title>
<g id="a_node4"><a xlink:title=" ">
<polygon fill="white" stroke="#bfbfbf" points="133.5,-146.5 133.5,-165.5 174.5,-165.5 174.5,-146.5 133.5,-146.5"/>
<text text-anchor="middle" x="154" y="-153.5" font-family="Helvetica,sans-Serif" font-size="10.00">string</text>
</a>
</g>
</g>
<!-- Node4&#45;&gt;Node1 -->
<g id="edge4" class="edge">
<title>Node4&#45;&gt;Node1</title>
<path fill="none" stroke="#9a32cd" stroke-dasharray="5,2" d="M163.21,-137.05C164.36,-134.09 165.36,-131.01 166,-128 167.01,-123.22 166.63,-121.85 166,-117 163.09,-94.66 161.17,-89 153,-68 147.87,-54.83 140.28,-40.66 134.45,-30.53"/>
<polygon fill="#9a32cd" stroke="#9a32cd" points="159.95,-135.77 158.98,-146.32 166.31,-138.67 159.95,-135.77"/>
<text text-anchor="middle" x="172.5" y="-81" font-family="Helvetica,sans-Serif" font-size="10.00"> hint</text>
</g>
<!-- Node4&#45;&gt;Node2 -->
<g id="edge3" class="edge">
<title>Node4&#45;&gt;Node2</title>
<path fill="none" stroke="#9a32cd" stroke-dasharray="5,2" d="M123.74,-146.43C113.03,-142.24 101.54,-136.26 93,-128 84.68,-119.95 79.23,-107.94 75.97,-98.58"/>
<polygon fill="#9a32cd" stroke="#9a32cd" points="122.65,-149.76 133.24,-149.8 124.98,-143.16 122.65,-149.76"/>
<text text-anchor="middle" x="129.5" y="-120" font-family="Helvetica,sans-Serif" font-size="10.00"> base_traceback</text>
</g>
</g>
</svg>
