<?xml version="1.0" encoding="UTF-8" standalone="no"?>
<!DOCTYPE svg PUBLIC "-//W3C//DTD SVG 1.1//EN"
 "http://www.w3.org/Graphics/SVG/1.1/DTD/svg11.dtd">
<!-- Generated by graphviz version 2.47.1 (20210417.1919)
 -->
<!-- Title: src.utils.JPickleSerializable.__conform__ Pages: 1 -->
<svg width="443pt" height="66pt"
 viewBox="0.00 0.00 443.00 66.00" xmlns="http://www.w3.org/2000/svg" xmlns:xlink="http://www.w3.org/1999/xlink">
<g id="graph0" class="graph" transform="scale(1 1) rotate(0) translate(4 62)">
<title>src.utils.JPickleSerializable.__conform__</title>
<polygon fill="white" stroke="transparent" points="-4,4 -4,-62 439,-62 439,4 -4,4"/>
<!-- Node1 -->
<g id="node1" class="node">
<title>Node1</title>
<g id="a_node1"><a xlink:title=" ">
<polygon fill="#bfbfbf" stroke="black" points="0,-19.5 0,-38.5 194,-38.5 194,-19.5 0,-19.5"/>
<text text-anchor="middle" x="97" y="-26.5" font-family="Helvetica,sans-Serif" font-size="10.00">src.utils.JPickleSerializable.__conform__</text>
</a>
</g>
</g>
<!-- Node2 -->
<g id="node2" class="node">
<title>Node2</title>
<g id="a_node2"><a xlink:href="classsrc_1_1utils_1_1_j_pickle_serializable.html#addd7dc2224b1ff399f41c6c344dad59b" target="_top" xlink:title=" ">
<polygon fill="white" stroke="black" points="247.5,-38.5 247.5,-57.5 417.5,-57.5 417.5,-38.5 247.5,-38.5"/>
<text text-anchor="middle" x="332.5" y="-45.5" font-family="Helvetica,sans-Serif" font-size="10.00">src.utils.JPickleSerializable.to_json</text>
</a>
</g>
</g>
<!-- Node1&#45;&gt;Node2 -->
<g id="edge1" class="edge">
<title>Node1&#45;&gt;Node2</title>
<path fill="none" stroke="midnightblue" d="M194.32,-36.84C208.47,-37.99 223.04,-39.17 237.15,-40.32"/>
<polygon fill="midnightblue" stroke="midnightblue" points="237.08,-43.83 247.34,-41.15 237.65,-36.85 237.08,-43.83"/>
</g>
<!-- Node3 -->
<g id="node3" class="node">
<title>Node3</title>
<g id="a_node3"><a xlink:href="classsrc_1_1utils_1_1backup_1_1_j_pickle_serializable.html#a1b9a3fb302c111258e64dda3fb31878e" target="_top" xlink:title=" ">
<polygon fill="white" stroke="black" points="230,-0.5 230,-19.5 435,-19.5 435,-0.5 230,-0.5"/>
<text text-anchor="middle" x="332.5" y="-7.5" font-family="Helvetica,sans-Serif" font-size="10.00">src.utils.backup.JPickleSerializable.to_json</text>
</a>
</g>
</g>
<!-- Node1&#45;&gt;Node3 -->
<g id="edge2" class="edge">
<title>Node1&#45;&gt;Node3</title>
<path fill="none" stroke="midnightblue" d="M194.32,-21.16C202.63,-20.49 211.08,-19.8 219.49,-19.11"/>
<polygon fill="midnightblue" stroke="midnightblue" points="220.05,-22.58 229.73,-18.28 219.48,-15.6 220.05,-22.58"/>
</g>
</g>
</svg>
