<?xml version="1.0" encoding="UTF-8" standalone="no"?>
<!DOCTYPE svg PUBLIC "-//W3C//DTD SVG 1.1//EN"
 "http://www.w3.org/Graphics/SVG/1.1/DTD/svg11.dtd">
<!-- Generated by graphviz version 2.47.1 (20210417.1919)
 -->
<!-- Title: src.eralchemy.models.Drawable.__str__ Pages: 1 -->
<svg width="576pt" height="186pt"
 viewBox="0.00 0.00 576.00 186.00" xmlns="http://www.w3.org/2000/svg" xmlns:xlink="http://www.w3.org/1999/xlink">
<g id="graph0" class="graph" transform="scale(1 1) rotate(0) translate(4 182)">
<title>src.eralchemy.models.Drawable.__str__</title>
<polygon fill="white" stroke="transparent" points="-4,4 -4,-182 572,-182 572,4 -4,4"/>
<!-- Node1 -->
<g id="node1" class="node">
<title>Node1</title>
<g id="a_node1"><a xlink:title=" ">
<polygon fill="#bfbfbf" stroke="black" points="0,-73.5 0,-103.5 158,-103.5 158,-73.5 0,-73.5"/>
<text text-anchor="start" x="8" y="-91.5" font-family="Helvetica,sans-Serif" font-size="10.00">src.eralchemy.models.Drawable.</text>
<text text-anchor="middle" x="79" y="-80.5" font-family="Helvetica,sans-Serif" font-size="10.00">__str__</text>
</a>
</g>
</g>
<!-- Node2 -->
<g id="node2" class="node">
<title>Node2</title>
<g id="a_node2"><a xlink:href="classsrc_1_1eralchemy_1_1models_1_1_drawable.html#ad32f1e32cd5199f562d92d841c887c72" target="_top" xlink:title=" ">
<polygon fill="white" stroke="black" points="194,-147.5 194,-177.5 361,-177.5 361,-147.5 194,-147.5"/>
<text text-anchor="start" x="202" y="-165.5" font-family="Helvetica,sans-Serif" font-size="10.00">src.eralchemy.models.Drawable.to</text>
<text text-anchor="middle" x="277.5" y="-154.5" font-family="Helvetica,sans-Serif" font-size="10.00">_markdown</text>
</a>
</g>
</g>
<!-- Node1&#45;&gt;Node2 -->
<g id="edge1" class="edge">
<title>Node1&#45;&gt;Node2</title>
<path fill="none" stroke="midnightblue" d="M111.49,-103.64C134.13,-114.19 165.56,-128.18 194,-138.5 199.57,-140.52 205.4,-142.49 211.27,-144.38"/>
<polygon fill="midnightblue" stroke="midnightblue" points="210.56,-147.83 221.15,-147.48 212.65,-141.15 210.56,-147.83"/>
</g>
<!-- Node3 -->
<g id="node3" class="node">
<title>Node3</title>
<g id="a_node3"><a xlink:href="classsrc_1_1eralchemy_1_1models_1_1_column.html#ad8a279e00c1b4247692592cc2169a0ba" target="_top" xlink:title=" ">
<polygon fill="white" stroke="black" points="197.5,-98.5 197.5,-128.5 357.5,-128.5 357.5,-98.5 197.5,-98.5"/>
<text text-anchor="start" x="205.5" y="-116.5" font-family="Helvetica,sans-Serif" font-size="10.00">src.eralchemy.models.Column.to</text>
<text text-anchor="middle" x="277.5" y="-105.5" font-family="Helvetica,sans-Serif" font-size="10.00">_markdown</text>
</a>
</g>
</g>
<!-- Node1&#45;&gt;Node3 -->
<g id="edge2" class="edge">
<title>Node1&#45;&gt;Node3</title>
<path fill="none" stroke="midnightblue" d="M158.23,-98.45C167.76,-99.67 177.55,-100.91 187.23,-102.14"/>
<polygon fill="midnightblue" stroke="midnightblue" points="186.9,-105.63 197.26,-103.42 187.78,-98.68 186.9,-105.63"/>
</g>
<!-- Node5 -->
<g id="node5" class="node">
<title>Node5</title>
<g id="a_node5"><a xlink:href="classsrc_1_1eralchemy_1_1models_1_1_relation.html#aa68859ab8c1019e02adc98c973599169" target="_top" xlink:title=" ">
<polygon fill="white" stroke="black" points="196.5,-49.5 196.5,-79.5 358.5,-79.5 358.5,-49.5 196.5,-49.5"/>
<text text-anchor="start" x="204.5" y="-67.5" font-family="Helvetica,sans-Serif" font-size="10.00">src.eralchemy.models.Relation.to</text>
<text text-anchor="middle" x="277.5" y="-56.5" font-family="Helvetica,sans-Serif" font-size="10.00">_markdown</text>
</a>
</g>
</g>
<!-- Node1&#45;&gt;Node5 -->
<g id="edge4" class="edge">
<title>Node1&#45;&gt;Node5</title>
<path fill="none" stroke="midnightblue" d="M158.23,-78.95C167.42,-77.82 176.86,-76.67 186.21,-75.53"/>
<polygon fill="midnightblue" stroke="midnightblue" points="186.79,-78.98 196.29,-74.3 185.94,-72.03 186.79,-78.98"/>
</g>
<!-- Node6 -->
<g id="node6" class="node">
<title>Node6</title>
<g id="a_node6"><a xlink:href="classsrc_1_1eralchemy_1_1models_1_1_table.html#a91f27923b4763f0d928cb7ceb7e3f936" target="_top" xlink:title=" ">
<polygon fill="white" stroke="black" points="202.5,-0.5 202.5,-30.5 352.5,-30.5 352.5,-0.5 202.5,-0.5"/>
<text text-anchor="start" x="210.5" y="-18.5" font-family="Helvetica,sans-Serif" font-size="10.00">src.eralchemy.models.Table.to</text>
<text text-anchor="middle" x="277.5" y="-7.5" font-family="Helvetica,sans-Serif" font-size="10.00">_markdown</text>
</a>
</g>
</g>
<!-- Node1&#45;&gt;Node6 -->
<g id="edge5" class="edge">
<title>Node1&#45;&gt;Node6</title>
<path fill="none" stroke="midnightblue" d="M113.56,-73.28C136.07,-63.34 166.53,-50.42 194,-40.5 200.43,-38.18 207.2,-35.89 213.97,-33.7"/>
<polygon fill="midnightblue" stroke="midnightblue" points="215.39,-36.92 223.86,-30.56 213.27,-30.25 215.39,-36.92"/>
</g>
<!-- Node4 -->
<g id="node4" class="node">
<title>Node4</title>
<g id="a_node4"><a xlink:href="classsrc_1_1eralchemy_1_1models_1_1_column.html#a286bb8f3f89a3d1294f772c8b50988a1" target="_top" xlink:title=" ">
<polygon fill="white" stroke="black" points="399,-98.5 399,-128.5 566,-128.5 566,-98.5 399,-98.5"/>
<text text-anchor="start" x="407" y="-116.5" font-family="Helvetica,sans-Serif" font-size="10.00">src.eralchemy.models.Column.key</text>
<text text-anchor="middle" x="482.5" y="-105.5" font-family="Helvetica,sans-Serif" font-size="10.00">_symbol</text>
</a>
</g>
</g>
<!-- Node3&#45;&gt;Node4 -->
<g id="edge3" class="edge">
<title>Node3&#45;&gt;Node4</title>
<path fill="none" stroke="midnightblue" d="M357.57,-113.5C367.86,-113.5 378.48,-113.5 388.96,-113.5"/>
<polygon fill="midnightblue" stroke="midnightblue" points="388.96,-117 398.96,-113.5 388.96,-110 388.96,-117"/>
</g>
<!-- Node7 -->
<g id="node7" class="node">
<title>Node7</title>
<g id="a_node7"><a xlink:href="classsrc_1_1eralchemy_1_1models_1_1_table.html#a3ef0821c86fe4aaa685ae1843e4461ce" target="_top" xlink:title=" ">
<polygon fill="white" stroke="black" points="397,-0.5 397,-30.5 568,-30.5 568,-0.5 397,-0.5"/>
<text text-anchor="start" x="405" y="-18.5" font-family="Helvetica,sans-Serif" font-size="10.00">src.eralchemy.models.Table.header</text>
<text text-anchor="middle" x="482.5" y="-7.5" font-family="Helvetica,sans-Serif" font-size="10.00">_markdown</text>
</a>
</g>
</g>
<!-- Node6&#45;&gt;Node7 -->
<g id="edge6" class="edge">
<title>Node6&#45;&gt;Node7</title>
<path fill="none" stroke="midnightblue" d="M352.65,-15.5C363.77,-15.5 375.37,-15.5 386.86,-15.5"/>
<polygon fill="midnightblue" stroke="midnightblue" points="386.9,-19 396.9,-15.5 386.9,-12 386.9,-19"/>
</g>
</g>
</svg>
