<?xml version="1.0" encoding="UTF-8" standalone="no"?>
<!DOCTYPE svg PUBLIC "-//W3C//DTD SVG 1.1//EN"
 "http://www.w3.org/Graphics/SVG/1.1/DTD/svg11.dtd">
<!-- Generated by graphviz version 2.47.1 (20210417.1919)
 -->
<!-- Title: src.db_tools.db_class_defs.DBBase.table_names Pages: 1 -->
<!--zoomable 154 -->
<svg id="main" version="1.1" xmlns="http://www.w3.org/2000/svg" xmlns:xlink="http://www.w3.org/1999/xlink" xml:space="preserve" onload="init(evt)">
<style type="text/css"><![CDATA[
.edge:hover path { stroke: red; }
.edge:hover polygon { stroke: red; fill: red; }
]]></style>
<script type="text/javascript"><![CDATA[
var edges = document.getElementsByTagName('g');
if (edges && edges.length) {
  for (var i=0;i<edges.length;i++) {
    if (edges[i].id.substr(0,4)=='edge') {
      edges[i].setAttribute('class','edge');
    }
  }
}
]]></script>
        <defs>
                <circle id="rim" cx="0" cy="0" r="7"/>
                <circle id="rim2" cx="0" cy="0" r="3.5"/>
                <g id="zoomPlus">
                        <use xlink:href="#rim" fill="#404040">
                                <set attributeName="fill" to="#808080" begin="zoomplus.mouseover" end="zoomplus.mouseout"/>
                        </use>
                        <path d="M-4,0h8M0,-4v8" fill="none" stroke="white" stroke-width="1.5" pointer-events="none"/>
                </g>
                <g id="zoomMin">
                        <use xlink:href="#rim" fill="#404040">
                                <set attributeName="fill" to="#808080" begin="zoomminus.mouseover" end="zoomminus.mouseout"/>
                        </use>
                        <path d="M-4,0h8" fill="none" stroke="white" stroke-width="1.5" pointer-events="none"/>
                </g>
                <g id="dirArrow">
                        <path fill="none" stroke="white" stroke-width="1.5" d="M0,-3.0v7 M-2.5,-0.5L0,-3.0L2.5,-0.5"/>
                </g>
               <g id="resetDef">
                       <use xlink:href="#rim2" fill="#404040">
                               <set attributeName="fill" to="#808080" begin="reset.mouseover" end="reset.mouseout"/>
                       </use>
               </g>
        </defs>

<script type="text/javascript">
var viewWidth = 817;
var viewHeight = 154;
var sectionId = 'dynsection-19';
</script>
<script xlink:href="svgpan.js"/>
<svg id="graph" class="graph">
<g id="viewport">
<title>src.db_tools.db_class_defs.DBBase.table_names</title>
<polygon fill="white" stroke="transparent" points="-4,4 -4,-149.5 813,-149.5 813,4 -4,4"/>
<!-- Node1 -->
<g id="node1" class="node">
<title>Node1</title>
<g id="a_node1"><a xlink:title="A list of strings, where each element in the list is the name of a table in the main DB.">
<polygon fill="#bfbfbf" stroke="black" points="576,-57.5 576,-76.5 809,-76.5 809,-57.5 576,-57.5"/>
<text text-anchor="middle" x="692.5" y="-64.5" font-family="Helvetica,sans-Serif" font-size="10.00">src.db_tools.db_class_defs.DBBase.table_names</text>
</a>
</g>
</g>
<!-- Node2 -->
<g id="node2" class="node">
<title>Node2</title>
<g id="a_node2"><a xlink:href="classsrc_1_1db__tools_1_1db__class__defs_1_1_d_b_base.html#a7d81ecdc59e01a8449b98a2050672b24" target="_top" xlink:title=" ">
<polygon fill="white" stroke="black" points="284,-115 284,-145 505,-145 505,-115 284,-115"/>
<text text-anchor="start" x="292" y="-133" font-family="Helvetica,sans-Serif" font-size="10.00">src.db_tools.db_class_defs.DBBase._establish</text>
<text text-anchor="middle" x="394.5" y="-122" font-family="Helvetica,sans-Serif" font-size="10.00">_new_connection</text>
</a>
</g>
</g>
<!-- Node1&#45;&gt;Node2 -->
<g id="edge1" class="edge">
<title>Node1&#45;&gt;Node2</title>
<path fill="none" stroke="midnightblue" d="M646.7,-79.17C616.65,-87.1 576.11,-97.36 540,-105 523.44,-108.51 505.73,-111.88 488.59,-114.95"/>
<polygon fill="midnightblue" stroke="midnightblue" points="647.7,-82.52 656.47,-76.57 645.9,-75.76 647.7,-82.52"/>
</g>
<!-- Node4 -->
<g id="node4" class="node">
<title>Node4</title>
<g id="a_node4"><a xlink:href="classsrc_1_1body__extraction_1_1cache__class__defs_1_1_message_body_d_b.html#aaef439b6cdcbd1685f6d90b2aaf3f8c2" target="_top" xlink:title=" ">
<polygon fill="white" stroke="black" points="249,-76.5 249,-95.5 540,-95.5 540,-76.5 249,-76.5"/>
<text text-anchor="middle" x="394.5" y="-83.5" font-family="Helvetica,sans-Serif" font-size="10.00">src.body_extraction.cache_class_defs.MessageBodyDB.select</text>
</a>
</g>
</g>
<!-- Node1&#45;&gt;Node4 -->
<g id="edge3" class="edge">
<title>Node1&#45;&gt;Node4</title>
<path fill="none" stroke="midnightblue" d="M565.6,-75.08C557.2,-75.62 548.71,-76.17 540.23,-76.71"/>
<polygon fill="midnightblue" stroke="midnightblue" points="566.03,-78.56 575.79,-74.43 565.58,-71.58 566.03,-78.56"/>
</g>
<!-- Node5 -->
<g id="node5" class="node">
<title>Node5</title>
<g id="a_node5"><a xlink:href="classsrc_1_1email__caching_1_1cache__class__defs_1_1_email_d_b.html#af124178446e4474011f762557af2e422" target="_top" xlink:title=" ">
<polygon fill="white" stroke="black" points="271,-38.5 271,-57.5 518,-57.5 518,-38.5 271,-38.5"/>
<text text-anchor="middle" x="394.5" y="-45.5" font-family="Helvetica,sans-Serif" font-size="10.00">src.email_caching.cache_class_defs.EmailDB.select</text>
</a>
</g>
</g>
<!-- Node1&#45;&gt;Node5 -->
<g id="edge4" class="edge">
<title>Node1&#45;&gt;Node5</title>
<path fill="none" stroke="midnightblue" d="M565.58,-58.92C549.97,-57.92 534.03,-56.89 518.46,-55.89"/>
<polygon fill="midnightblue" stroke="midnightblue" points="565.58,-62.42 575.79,-59.57 566.03,-55.44 565.58,-62.42"/>
</g>
<!-- Node6 -->
<g id="node6" class="node">
<title>Node6</title>
<g id="a_node6"><a xlink:href="classsrc_1_1lemma__extraction_1_1cache__class__defs_1_1_lemma_d_b.html#aca6da04d3a7e3bc28890f056fe442096" target="_top" xlink:title=" ">
<polygon fill="white" stroke="black" points="260,-0.5 260,-19.5 529,-19.5 529,-0.5 260,-0.5"/>
<text text-anchor="middle" x="394.5" y="-7.5" font-family="Helvetica,sans-Serif" font-size="10.00">src.lemma_extraction.cache_class_defs.LemmaDB.select</text>
</a>
</g>
</g>
<!-- Node1&#45;&gt;Node6 -->
<g id="edge5" class="edge">
<title>Node1&#45;&gt;Node6</title>
<path fill="none" stroke="midnightblue" d="M648.27,-54.75C618.13,-46.55 576.86,-36.02 540,-29 520.86,-25.35 500.16,-22.18 480.57,-19.53"/>
<polygon fill="midnightblue" stroke="midnightblue" points="647.48,-58.16 658.05,-57.43 649.33,-51.41 647.48,-58.16"/>
</g>
<!-- Node3 -->
<g id="node3" class="node">
<title>Node3</title>
<g id="a_node3"><a xlink:href="classsrc_1_1db__tools_1_1db__class__defs_1_1_d_b_base.html#a970d3d8297eb67288f50f6e28e1883fa" target="_top" xlink:title=" ">
<polygon fill="white" stroke="black" points="0,-120.5 0,-139.5 213,-139.5 213,-120.5 0,-120.5"/>
<text text-anchor="middle" x="106.5" y="-127.5" font-family="Helvetica,sans-Serif" font-size="10.00">src.db_tools.db_class_defs.DBBase.__call__</text>
</a>
</g>
</g>
<!-- Node2&#45;&gt;Node3 -->
<g id="edge2" class="edge">
<title>Node2&#45;&gt;Node3</title>
<path fill="none" stroke="midnightblue" d="M273.63,-130C253.57,-130 232.87,-130 213.2,-130"/>
<polygon fill="midnightblue" stroke="midnightblue" points="273.74,-133.5 283.74,-130 273.74,-126.5 273.74,-133.5"/>
</g>
</g>
</svg>
        <g id="navigator" transform="translate(0 0)" fill="#404254">
                <rect fill="#f2f5e9" fill-opacity="0.5" stroke="#606060" stroke-width=".5" x="0" y="0" width="60" height="60"/>
                <use id="zoomplus" xlink:href="#zoomPlus" x="17" y="9" onmousedown="handleZoom(evt,'in')"/>
                <use id="zoomminus" xlink:href="#zoomMin" x="42" y="9" onmousedown="handleZoom(evt,'out')"/>
                <use id="reset" xlink:href="#resetDef" x="30" y="36" onmousedown="handleReset()"/>
                <g id="arrowUp" xlink:href="#dirArrow" transform="translate(30 24)" onmousedown="handlePan(0,-1)">
                  <use xlink:href="#rim" fill="#404040">
                        <set attributeName="fill" to="#808080" begin="arrowUp.mouseover" end="arrowUp.mouseout"/>
                  </use>
                  <path fill="none" stroke="white" stroke-width="1.5" d="M0,-3.0v7 M-2.5,-0.5L0,-3.0L2.5,-0.5"/>
                </g>
                <g id="arrowRight" xlink:href="#dirArrow" transform="rotate(90) translate(36 -43)" onmousedown="handlePan(1,0)">
                  <use xlink:href="#rim" fill="#404040">
                        <set attributeName="fill" to="#808080" begin="arrowRight.mouseover" end="arrowRight.mouseout"/>
                  </use>
                  <path fill="none" stroke="white" stroke-width="1.5" d="M0,-3.0v7 M-2.5,-0.5L0,-3.0L2.5,-0.5"/>
                </g>
                <g id="arrowDown" xlink:href="#dirArrow" transform="rotate(180) translate(-30 -48)" onmousedown="handlePan(0,1)">
                  <use xlink:href="#rim" fill="#404040">
                        <set attributeName="fill" to="#808080" begin="arrowDown.mouseover" end="arrowDown.mouseout"/>
                  </use>
                  <path fill="none" stroke="white" stroke-width="1.5" d="M0,-3.0v7 M-2.5,-0.5L0,-3.0L2.5,-0.5"/>
                </g>
                <g id="arrowLeft" xlink:href="#dirArrow" transform="rotate(270) translate(-36 17)" onmousedown="handlePan(-1,0)">
                  <use xlink:href="#rim" fill="#404040">
                        <set attributeName="fill" to="#808080" begin="arrowLeft.mouseover" end="arrowLeft.mouseout"/>
                  </use>
                  <path fill="none" stroke="white" stroke-width="1.5" d="M0,-3.0v7 M-2.5,-0.5L0,-3.0L2.5,-0.5"/>
                </g>
        </g>
        <svg viewBox="0 0 15 15" width="100%" height="30px" preserveAspectRatio="xMaxYMin meet">
         <g id="arrow_out" transform="scale(0.3 0.3)">
          <a xlink:href="classsrc_1_1db__tools_1_1db__class__defs_1_1_d_b_base_ade81609e37ef5b096b7d351a7d116b83_icgraph_org.svg" target="_base">
           <rect id="button" ry="5" rx="5" y="6" x="6" height="38" width="38"
                fill="#f2f5e9" fill-opacity="0.5" stroke="#606060" stroke-width="1.0"/>
           <path id="arrow"
             d="M 11.500037,31.436501 C 11.940474,20.09759 22.043105,11.32322 32.158766,21.979434 L 37.068811,17.246167 C 37.068811,17.246167 37.088388,32 37.088388,32 L 22.160133,31.978069 C 22.160133,31.978069 26.997745,27.140456 26.997745,27.140456 C 18.528582,18.264221 13.291696,25.230495 11.500037,31.436501 z"
             style="fill:#404040;"/>
          </a>
         </g>
        </svg>
</svg>
