<?xml version="1.0" encoding="UTF-8" standalone="no"?>
<!DOCTYPE svg PUBLIC "-//W3C//DTD SVG 1.1//EN"
 "http://www.w3.org/Graphics/SVG/1.1/DTD/svg11.dtd">
<!-- Generated by graphviz version 2.47.1 (20210417.1919)
 -->
<!-- Title: src.db_tools.db_class_defs.AttachFailedException Pages: 1 -->
<svg width="149pt" height="162pt"
 viewBox="0.00 0.00 149.00 162.00" xmlns="http://www.w3.org/2000/svg" xmlns:xlink="http://www.w3.org/1999/xlink">
<g id="graph0" class="graph" transform="scale(1 1) rotate(0) translate(4 158)">
<title>src.db_tools.db_class_defs.AttachFailedException</title>
<polygon fill="white" stroke="transparent" points="-4,4 -4,-158 145,-158 145,4 -4,4"/>
<!-- Node1 -->
<g id="node1" class="node">
<title>Node1</title>
<g id="a_node1"><a xlink:title="A custom exception class that we raise should something fishy occur while attaching a secondary DB to...">
<polygon fill="#bfbfbf" stroke="black" points="0,-0.5 0,-30.5 141,-30.5 141,-0.5 0,-0.5"/>
<text text-anchor="start" x="8" y="-18.5" font-family="Helvetica,sans-Serif" font-size="10.00">src.db_tools.db_class</text>
<text text-anchor="middle" x="70.5" y="-7.5" font-family="Helvetica,sans-Serif" font-size="10.00">_defs.AttachFailedException</text>
</a>
</g>
</g>
<!-- Node2 -->
<g id="node2" class="node">
<title>Node2</title>
<g id="a_node2"><a xlink:href="classsrc_1_1db__tools_1_1db__class__defs_1_1_d_b_base_exception.html" target="_top" xlink:title="The custom database exception base class.">
<polygon fill="white" stroke="black" points="9.5,-67.5 9.5,-97.5 131.5,-97.5 131.5,-67.5 9.5,-67.5"/>
<text text-anchor="start" x="17.5" y="-85.5" font-family="Helvetica,sans-Serif" font-size="10.00">src.db_tools.db_class</text>
<text text-anchor="middle" x="70.5" y="-74.5" font-family="Helvetica,sans-Serif" font-size="10.00">_defs.DBBaseException</text>
</a>
</g>
</g>
<!-- Node2&#45;&gt;Node1 -->
<g id="edge1" class="edge">
<title>Node2&#45;&gt;Node1</title>
<path fill="none" stroke="midnightblue" d="M70.5,-57.11C70.5,-48.15 70.5,-38.32 70.5,-30.58"/>
<polygon fill="midnightblue" stroke="midnightblue" points="67,-57.4 70.5,-67.4 74,-57.4 67,-57.4"/>
</g>
<!-- Node3 -->
<g id="node3" class="node">
<title>Node3</title>
<g id="a_node3"><a xlink:title=" ">
<polygon fill="white" stroke="#bfbfbf" points="40.5,-134.5 40.5,-153.5 100.5,-153.5 100.5,-134.5 40.5,-134.5"/>
<text text-anchor="middle" x="70.5" y="-141.5" font-family="Helvetica,sans-Serif" font-size="10.00">Exception</text>
</a>
</g>
</g>
<!-- Node3&#45;&gt;Node2 -->
<g id="edge2" class="edge">
<title>Node3&#45;&gt;Node2</title>
<path fill="none" stroke="midnightblue" d="M70.5,-124.23C70.5,-115.59 70.5,-105.5 70.5,-97.52"/>
<polygon fill="midnightblue" stroke="midnightblue" points="67,-124.48 70.5,-134.48 74,-124.48 67,-124.48"/>
</g>
</g>
</svg>
