<?xml version="1.0" encoding="UTF-8" standalone="no"?>
<!DOCTYPE svg PUBLIC "-//W3C//DTD SVG 1.1//EN"
 "http://www.w3.org/Graphics/SVG/1.1/DTD/svg11.dtd">
<!-- Generated by graphviz version 2.47.1 (20210417.1919)
 -->
<!-- Title: src.utils.custom_logger.CallStackFormatter.formatStack Pages: 1 -->
<svg width="573pt" height="66pt"
 viewBox="0.00 0.00 573.00 66.00" xmlns="http://www.w3.org/2000/svg" xmlns:xlink="http://www.w3.org/1999/xlink">
<g id="graph0" class="graph" transform="scale(1 1) rotate(0) translate(4 62)">
<title>src.utils.custom_logger.CallStackFormatter.formatStack</title>
<polygon fill="white" stroke="transparent" points="-4,4 -4,-62 569,-62 569,4 -4,4"/>
<!-- Node1 -->
<g id="node1" class="node">
<title>Node1</title>
<g id="a_node1"><a xlink:title=" ">
<polygon fill="#bfbfbf" stroke="black" points="305,-19.5 305,-38.5 565,-38.5 565,-19.5 305,-19.5"/>
<text text-anchor="middle" x="435" y="-26.5" font-family="Helvetica,sans-Serif" font-size="10.00">src.utils.custom_logger.CallStackFormatter.formatStack</text>
</a>
</g>
</g>
<!-- Node2 -->
<g id="node2" class="node">
<title>Node2</title>
<g id="a_node2"><a xlink:href="classsrc_1_1utils_1_1backup_1_1custom__logger_1_1_call_stack_formatter.html#ada8edadc3a502f9f4965b14b57d9c8b3" target="_top" xlink:title=" ">
<polygon fill="white" stroke="black" points="0,-38.5 0,-57.5 269,-57.5 269,-38.5 0,-38.5"/>
<text text-anchor="middle" x="134.5" y="-45.5" font-family="Helvetica,sans-Serif" font-size="10.00">src.utils.backup.custom_logger.CallStackFormatter.format</text>
</a>
</g>
</g>
<!-- Node1&#45;&gt;Node2 -->
<g id="edge1" class="edge">
<title>Node1&#45;&gt;Node2</title>
<path fill="none" stroke="midnightblue" d="M294.8,-37.86C286.26,-38.4 277.67,-38.95 269.15,-39.49"/>
<polygon fill="midnightblue" stroke="midnightblue" points="295.05,-41.35 304.81,-37.22 294.61,-34.37 295.05,-41.35"/>
</g>
<!-- Node3 -->
<g id="node3" class="node">
<title>Node3</title>
<g id="a_node3"><a xlink:href="classsrc_1_1utils_1_1custom__logger_1_1_call_stack_formatter.html#a857c64c44956a7731f4157a4fce34f54" target="_top" xlink:title=" ">
<polygon fill="white" stroke="black" points="17,-0.5 17,-19.5 252,-19.5 252,-0.5 17,-0.5"/>
<text text-anchor="middle" x="134.5" y="-7.5" font-family="Helvetica,sans-Serif" font-size="10.00">src.utils.custom_logger.CallStackFormatter.format</text>
</a>
</g>
</g>
<!-- Node1&#45;&gt;Node3 -->
<g id="edge2" class="edge">
<title>Node1&#45;&gt;Node3</title>
<path fill="none" stroke="midnightblue" d="M294.53,-20.12C280.37,-19.22 266.09,-18.31 252.2,-17.43"/>
<polygon fill="midnightblue" stroke="midnightblue" points="294.61,-23.63 304.81,-20.78 295.05,-16.65 294.61,-23.63"/>
</g>
</g>
</svg>
