<?xml version="1.0" encoding="UTF-8" standalone="no"?>
<!DOCTYPE svg PUBLIC "-//W3C//DTD SVG 1.1//EN"
 "http://www.w3.org/Graphics/SVG/1.1/DTD/svg11.dtd">
<!-- Generated by graphviz version 2.47.1 (20210417.1919)
 -->
<!-- Title: src.eralchemy.parser.ParsingException Pages: 1 -->
<svg width="447pt" height="235pt"
 viewBox="0.00 0.00 447.00 235.00" xmlns="http://www.w3.org/2000/svg" xmlns:xlink="http://www.w3.org/1999/xlink">
<g id="graph0" class="graph" transform="scale(1 1) rotate(0) translate(4 231)">
<title>src.eralchemy.parser.ParsingException</title>
<polygon fill="white" stroke="transparent" points="-4,4 -4,-231 443,-231 443,4 -4,4"/>
<!-- Node1 -->
<g id="node1" class="node">
<title>Node1</title>
<g id="a_node1"><a xlink:title=" ">
<polygon fill="#bfbfbf" stroke="black" points="96,-98.5 96,-128.5 240,-128.5 240,-98.5 96,-98.5"/>
<text text-anchor="start" x="104" y="-116.5" font-family="Helvetica,sans-Serif" font-size="10.00">src.eralchemy.parser.Parsing</text>
<text text-anchor="middle" x="168" y="-105.5" font-family="Helvetica,sans-Serif" font-size="10.00">Exception</text>
</a>
</g>
</g>
<!-- Node3 -->
<g id="node3" class="node">
<title>Node3</title>
<g id="a_node3"><a xlink:href="classsrc_1_1eralchemy_1_1parser_1_1_duplicate_column_exception.html" target="_top" xlink:title=" ">
<polygon fill="white" stroke="black" points="281.5,-196.5 281.5,-226.5 433.5,-226.5 433.5,-196.5 281.5,-196.5"/>
<text text-anchor="start" x="289.5" y="-214.5" font-family="Helvetica,sans-Serif" font-size="10.00">src.eralchemy.parser.Duplicate</text>
<text text-anchor="middle" x="357.5" y="-203.5" font-family="Helvetica,sans-Serif" font-size="10.00">ColumnException</text>
</a>
</g>
</g>
<!-- Node1&#45;&gt;Node3 -->
<g id="edge2" class="edge">
<title>Node1&#45;&gt;Node3</title>
<path fill="none" stroke="midnightblue" d="M195.24,-135.17C216.06,-151.47 246.47,-173.33 276,-187.5 282.97,-190.84 290.5,-193.83 298.07,-196.47"/>
<polygon fill="midnightblue" stroke="midnightblue" points="197.22,-132.27 187.21,-128.79 192.86,-137.75 197.22,-132.27"/>
</g>
<!-- Node4 -->
<g id="node4" class="node">
<title>Node4</title>
<g id="a_node4"><a xlink:href="classsrc_1_1eralchemy_1_1parser_1_1_duplicate_table_exception.html" target="_top" xlink:title=" ">
<polygon fill="white" stroke="black" points="281.5,-147.5 281.5,-177.5 433.5,-177.5 433.5,-147.5 281.5,-147.5"/>
<text text-anchor="start" x="289.5" y="-165.5" font-family="Helvetica,sans-Serif" font-size="10.00">src.eralchemy.parser.Duplicate</text>
<text text-anchor="middle" x="357.5" y="-154.5" font-family="Helvetica,sans-Serif" font-size="10.00">TableException</text>
</a>
</g>
</g>
<!-- Node1&#45;&gt;Node4 -->
<g id="edge3" class="edge">
<title>Node1&#45;&gt;Node4</title>
<path fill="none" stroke="midnightblue" d="M236.43,-131.12C256.95,-136.48 279.29,-142.32 299.08,-147.49"/>
<polygon fill="midnightblue" stroke="midnightblue" points="237.09,-127.68 226.53,-128.53 235.32,-134.45 237.09,-127.68"/>
</g>
<!-- Node5 -->
<g id="node5" class="node">
<title>Node5</title>
<g id="a_node5"><a xlink:href="classsrc_1_1eralchemy_1_1parser_1_1_e_r_alchemy_line_parse_error.html" target="_top" xlink:title=" ">
<polygon fill="white" stroke="black" points="276,-98.5 276,-128.5 439,-128.5 439,-98.5 276,-98.5"/>
<text text-anchor="start" x="284" y="-116.5" font-family="Helvetica,sans-Serif" font-size="10.00">src.eralchemy.parser.ERAlchemy</text>
<text text-anchor="middle" x="357.5" y="-105.5" font-family="Helvetica,sans-Serif" font-size="10.00">LineParseError</text>
</a>
</g>
</g>
<!-- Node1&#45;&gt;Node5 -->
<g id="edge4" class="edge">
<title>Node1&#45;&gt;Node5</title>
<path fill="none" stroke="midnightblue" d="M250.41,-113.5C258.89,-113.5 267.51,-113.5 275.98,-113.5"/>
<polygon fill="midnightblue" stroke="midnightblue" points="250.15,-110 240.15,-113.5 250.15,-117 250.15,-110"/>
</g>
<!-- Node6 -->
<g id="node6" class="node">
<title>Node6</title>
<g id="a_node6"><a xlink:href="classsrc_1_1eralchemy_1_1parser_1_1_no_current_table_exception.html" target="_top" xlink:title=" ">
<polygon fill="white" stroke="black" points="280,-49.5 280,-79.5 435,-79.5 435,-49.5 280,-49.5"/>
<text text-anchor="start" x="288" y="-67.5" font-family="Helvetica,sans-Serif" font-size="10.00">src.eralchemy.parser.NoCurrent</text>
<text text-anchor="middle" x="357.5" y="-56.5" font-family="Helvetica,sans-Serif" font-size="10.00">TableException</text>
</a>
</g>
</g>
<!-- Node1&#45;&gt;Node6 -->
<g id="edge5" class="edge">
<title>Node1&#45;&gt;Node6</title>
<path fill="none" stroke="midnightblue" d="M236.43,-95.88C256.95,-90.52 279.29,-84.68 299.08,-79.51"/>
<polygon fill="midnightblue" stroke="midnightblue" points="235.32,-92.55 226.53,-98.47 237.09,-99.32 235.32,-92.55"/>
</g>
<!-- Node7 -->
<g id="node7" class="node">
<title>Node7</title>
<g id="a_node7"><a xlink:href="classsrc_1_1eralchemy_1_1parser_1_1_relation_no_col_exception.html" target="_top" xlink:title=" ">
<polygon fill="white" stroke="black" points="284.5,-0.5 284.5,-30.5 430.5,-30.5 430.5,-0.5 284.5,-0.5"/>
<text text-anchor="start" x="292.5" y="-18.5" font-family="Helvetica,sans-Serif" font-size="10.00">src.eralchemy.parser.Relation</text>
<text text-anchor="middle" x="357.5" y="-7.5" font-family="Helvetica,sans-Serif" font-size="10.00">NoColException</text>
</a>
</g>
</g>
<!-- Node1&#45;&gt;Node7 -->
<g id="edge6" class="edge">
<title>Node1&#45;&gt;Node7</title>
<path fill="none" stroke="midnightblue" d="M195.24,-91.83C216.06,-75.53 246.47,-53.67 276,-39.5 282.97,-36.16 290.5,-33.17 298.07,-30.53"/>
<polygon fill="midnightblue" stroke="midnightblue" points="192.86,-89.25 187.21,-98.21 197.22,-94.73 192.86,-89.25"/>
</g>
<!-- Node2 -->
<g id="node2" class="node">
<title>Node2</title>
<g id="a_node2"><a xlink:title=" ">
<polygon fill="white" stroke="#bfbfbf" points="0,-104 0,-123 60,-123 60,-104 0,-104"/>
<text text-anchor="middle" x="30" y="-111" font-family="Helvetica,sans-Serif" font-size="10.00">Exception</text>
</a>
</g>
</g>
<!-- Node2&#45;&gt;Node1 -->
<g id="edge1" class="edge">
<title>Node2&#45;&gt;Node1</title>
<path fill="none" stroke="midnightblue" d="M70.36,-113.5C78.43,-113.5 87.16,-113.5 95.96,-113.5"/>
<polygon fill="midnightblue" stroke="midnightblue" points="70.18,-110 60.18,-113.5 70.18,-117 70.18,-110"/>
</g>
</g>
</svg>
