<?xml version="1.0" encoding="UTF-8" standalone="no"?>
<!DOCTYPE svg PUBLIC "-//W3C//DTD SVG 1.1//EN"
 "http://www.w3.org/Graphics/SVG/1.1/DTD/svg11.dtd">
<!-- Generated by graphviz version 2.47.1 (20210417.1919)
 -->
<!-- Title: src.eralchemy.parser.DuplicateTableException Pages: 1 -->
<svg width="226pt" height="152pt"
 viewBox="0.00 0.00 226.00 152.00" xmlns="http://www.w3.org/2000/svg" xmlns:xlink="http://www.w3.org/1999/xlink">
<g id="graph0" class="graph" transform="scale(1 1) rotate(0) translate(4 148)">
<title>src.eralchemy.parser.DuplicateTableException</title>
<polygon fill="white" stroke="transparent" points="-4,4 -4,-148 222,-148 222,4 -4,4"/>
<!-- Node1 -->
<g id="node1" class="node">
<title>Node1</title>
<g id="a_node1"><a xlink:title=" ">
<polygon fill="#bfbfbf" stroke="black" points="0,-0.5 0,-19.5 218,-19.5 218,-0.5 0,-0.5"/>
<text text-anchor="middle" x="109" y="-7.5" font-family="Helvetica,sans-Serif" font-size="10.00">src.eralchemy.parser.DuplicateTableException</text>
</a>
</g>
</g>
<!-- Node2 -->
<g id="node2" class="node">
<title>Node2</title>
<g id="a_node2"><a xlink:href="classsrc_1_1eralchemy_1_1parser_1_1_parsing_exception.html" target="_top" xlink:title=" ">
<polygon fill="white" stroke="black" points="15,-57.5 15,-76.5 203,-76.5 203,-57.5 15,-57.5"/>
<text text-anchor="middle" x="109" y="-64.5" font-family="Helvetica,sans-Serif" font-size="10.00">src.eralchemy.parser.ParsingException</text>
</a>
</g>
</g>
<!-- Node2&#45;&gt;Node1 -->
<g id="edge1" class="edge">
<title>Node2&#45;&gt;Node1</title>
<path fill="none" stroke="midnightblue" d="M109,-47.12C109,-37.82 109,-27.06 109,-19.71"/>
<polygon fill="midnightblue" stroke="midnightblue" points="105.5,-47.41 109,-57.41 112.5,-47.41 105.5,-47.41"/>
</g>
<!-- Node3 -->
<g id="node3" class="node">
<title>Node3</title>
<g id="a_node3"><a xlink:title=" ">
<polygon fill="white" stroke="#bfbfbf" points="45,-124.5 45,-143.5 105,-143.5 105,-124.5 45,-124.5"/>
<text text-anchor="middle" x="75" y="-131.5" font-family="Helvetica,sans-Serif" font-size="10.00">Exception</text>
</a>
</g>
</g>
<!-- Node3&#45;&gt;Node2 -->
<g id="edge2" class="edge">
<title>Node3&#45;&gt;Node2</title>
<path fill="none" stroke="midnightblue" d="M84.33,-115.16C90.89,-102.63 99.37,-86.41 104.49,-76.63"/>
<polygon fill="midnightblue" stroke="midnightblue" points="81.12,-113.75 79.59,-124.23 87.32,-117 81.12,-113.75"/>
</g>
<!-- Node4 -->
<g id="node4" class="node">
<title>Node4</title>
<g id="a_node4"><a xlink:title=" ">
<polygon fill="white" stroke="#bfbfbf" points="123.5,-124.5 123.5,-143.5 164.5,-143.5 164.5,-124.5 123.5,-124.5"/>
<text text-anchor="middle" x="144" y="-131.5" font-family="Helvetica,sans-Serif" font-size="10.00">string</text>
</a>
</g>
</g>
<!-- Node4&#45;&gt;Node2 -->
<g id="edge3" class="edge">
<title>Node4&#45;&gt;Node2</title>
<path fill="none" stroke="#9a32cd" stroke-dasharray="5,2" d="M134.4,-115.16C127.65,-102.63 118.91,-86.41 113.65,-76.63"/>
<polygon fill="#9a32cd" stroke="#9a32cd" points="131.46,-117.09 139.28,-124.23 137.62,-113.77 131.46,-117.09"/>
<text text-anchor="middle" x="164.5" y="-98" font-family="Helvetica,sans-Serif" font-size="10.00"> base_traceback</text>
</g>
</g>
</svg>
