<?xml version="1.0" encoding="UTF-8" standalone="no"?>
<!DOCTYPE svg PUBLIC "-//W3C//DTD SVG 1.1//EN"
 "http://www.w3.org/Graphics/SVG/1.1/DTD/svg11.dtd">
<!-- Generated by graphviz version 2.47.1 (20210417.1919)
 -->
<!-- Title: src.lemma_extraction.word_extraction_classes.SentenceWordTagger Pages: 1 -->
<svg width="179pt" height="173pt"
 viewBox="0.00 0.00 179.00 173.00" xmlns="http://www.w3.org/2000/svg" xmlns:xlink="http://www.w3.org/1999/xlink">
<g id="graph0" class="graph" transform="scale(1 1) rotate(0) translate(4 169)">
<title>src.lemma_extraction.word_extraction_classes.SentenceWordTagger</title>
<polygon fill="white" stroke="transparent" points="-4,4 -4,-169 175,-169 175,4 -4,4"/>
<!-- Node1 -->
<g id="node1" class="node">
<title>Node1</title>
<g id="a_node1"><a xlink:title=" ">
<polygon fill="#bfbfbf" stroke="black" points="0,-0.5 0,-41.5 171,-41.5 171,-0.5 0,-0.5"/>
<text text-anchor="start" x="8" y="-29.5" font-family="Helvetica,sans-Serif" font-size="10.00">src.lemma_extraction.word</text>
<text text-anchor="start" x="8" y="-18.5" font-family="Helvetica,sans-Serif" font-size="10.00">_extraction_classes.SentenceWord</text>
<text text-anchor="middle" x="85.5" y="-7.5" font-family="Helvetica,sans-Serif" font-size="10.00">Tagger</text>
</a>
</g>
</g>
<!-- Node2 -->
<g id="node2" class="node">
<title>Node2</title>
<g id="a_node2"><a xlink:href="classsrc_1_1lemma__extraction_1_1word__extraction__classes_1_1_tagger_base.html" target="_top" xlink:title=" ">
<polygon fill="white" stroke="black" points="6.5,-78.5 6.5,-108.5 164.5,-108.5 164.5,-78.5 6.5,-78.5"/>
<text text-anchor="start" x="14.5" y="-96.5" font-family="Helvetica,sans-Serif" font-size="10.00">src.lemma_extraction.word</text>
<text text-anchor="middle" x="85.5" y="-85.5" font-family="Helvetica,sans-Serif" font-size="10.00">_extraction_classes.TaggerBase</text>
</a>
</g>
</g>
<!-- Node2&#45;&gt;Node1 -->
<g id="edge1" class="edge">
<title>Node2&#45;&gt;Node1</title>
<path fill="none" stroke="midnightblue" d="M85.5,-67.98C85.5,-59.35 85.5,-49.76 85.5,-41.59"/>
<polygon fill="midnightblue" stroke="midnightblue" points="82,-68.23 85.5,-78.23 89,-68.23 82,-68.23"/>
</g>
<!-- Node3 -->
<g id="node3" class="node">
<title>Node3</title>
<g id="a_node3"><a xlink:href="classsrc_1_1utils_1_1_j_pickle_serializable.html" target="_top" xlink:title="An abstract base class that represents a generic interface for custom class objects that will end up ...">
<polygon fill="white" stroke="black" points="17.5,-145.5 17.5,-164.5 153.5,-164.5 153.5,-145.5 17.5,-145.5"/>
<text text-anchor="middle" x="85.5" y="-152.5" font-family="Helvetica,sans-Serif" font-size="10.00">src.utils.JPickleSerializable</text>
</a>
</g>
</g>
<!-- Node3&#45;&gt;Node2 -->
<g id="edge2" class="edge">
<title>Node3&#45;&gt;Node2</title>
<path fill="none" stroke="midnightblue" d="M85.5,-135.23C85.5,-126.59 85.5,-116.5 85.5,-108.52"/>
<polygon fill="midnightblue" stroke="midnightblue" points="82,-135.48 85.5,-145.48 89,-135.48 82,-135.48"/>
</g>
</g>
</svg>
