<?xml version="1.0" encoding="UTF-8" standalone="no"?>
<!DOCTYPE svg PUBLIC "-//W3C//DTD SVG 1.1//EN"
 "http://www.w3.org/Graphics/SVG/1.1/DTD/svg11.dtd">
<!-- Generated by graphviz version 2.47.1 (20210417.1919)
 -->
<!-- Title: src.db_tools.db_class_defs.ThreadedDBBase Pages: 1 -->
<svg width="153pt" height="174pt"
 viewBox="0.00 0.00 152.50 174.00" xmlns="http://www.w3.org/2000/svg" xmlns:xlink="http://www.w3.org/1999/xlink">
<g id="graph0" class="graph" transform="scale(1 1) rotate(0) translate(4 170)">
<title>src.db_tools.db_class_defs.ThreadedDBBase</title>
<polygon fill="white" stroke="transparent" points="-4,4 -4,-170 148.5,-170 148.5,4 -4,4"/>
<!-- Node1 -->
<g id="node1" class="node">
<title>Node1</title>
<g id="a_node1"><a xlink:title="This is an experimental class that is not yet finished!! An experimental subclass of DBBase attemptin...">
<polygon fill="#bfbfbf" stroke="black" points="0,-0.5 0,-30.5 119,-30.5 119,-0.5 0,-0.5"/>
<text text-anchor="start" x="8" y="-18.5" font-family="Helvetica,sans-Serif" font-size="10.00">src.db_tools.db_class</text>
<text text-anchor="middle" x="59.5" y="-7.5" font-family="Helvetica,sans-Serif" font-size="10.00">_defs.ThreadedDBBase</text>
</a>
</g>
</g>
<!-- Node2 -->
<g id="node2" class="node">
<title>Node2</title>
<g id="a_node2"><a xlink:href="classsrc_1_1db__tools_1_1db__class__defs_1_1_d_b_base.html" target="_top" xlink:title="The base class for our various custom database management classes.">
<polygon fill="white" stroke="black" points="3.5,-68.5 3.5,-98.5 115.5,-98.5 115.5,-68.5 3.5,-68.5"/>
<text text-anchor="start" x="11.5" y="-86.5" font-family="Helvetica,sans-Serif" font-size="10.00">src.db_tools.db_class</text>
<text text-anchor="middle" x="59.5" y="-75.5" font-family="Helvetica,sans-Serif" font-size="10.00">_defs.DBBase</text>
</a>
</g>
</g>
<!-- Node2&#45;&gt;Node1 -->
<g id="edge1" class="edge">
<title>Node2&#45;&gt;Node1</title>
<path fill="none" stroke="midnightblue" d="M59.5,-58.03C59.5,-48.86 59.5,-38.74 59.5,-30.79"/>
<polygon fill="midnightblue" stroke="midnightblue" points="56,-58.18 59.5,-68.18 63,-58.18 56,-58.18"/>
</g>
<!-- Node3 -->
<g id="node3" class="node">
<title>Node3</title>
<g id="a_node3"><a xlink:title=" ">
<polygon fill="white" stroke="#bfbfbf" points="39,-146.5 39,-165.5 80,-165.5 80,-146.5 39,-146.5"/>
<text text-anchor="middle" x="59.5" y="-153.5" font-family="Helvetica,sans-Serif" font-size="10.00">string</text>
</a>
</g>
</g>
<!-- Node3&#45;&gt;Node2 -->
<g id="edge2" class="edge">
<title>Node3&#45;&gt;Node2</title>
<path fill="none" stroke="#9a32cd" stroke-dasharray="5,2" d="M59.5,-136.24C59.5,-124.41 59.5,-109.38 59.5,-98.58"/>
<polygon fill="#9a32cd" stroke="#9a32cd" points="56,-136.36 59.5,-146.36 63,-136.36 56,-136.36"/>
<text text-anchor="middle" x="102" y="-120" font-family="Helvetica,sans-Serif" font-size="10.00"> _table_registry_sql</text>
</g>
</g>
</svg>
