<?xml version="1.0" encoding="UTF-8" standalone="no"?>
<!DOCTYPE svg PUBLIC "-//W3C//DTD SVG 1.1//EN"
 "http://www.w3.org/Graphics/SVG/1.1/DTD/svg11.dtd">
<!-- Generated by graphviz version 2.47.1 (20210417.1919)
 -->
<!-- Title: src.eralchemy.parser.NoCurrentTableException Pages: 1 -->
<svg width="278pt" height="152pt"
 viewBox="0.00 0.00 277.50 152.00" xmlns="http://www.w3.org/2000/svg" xmlns:xlink="http://www.w3.org/1999/xlink">
<g id="graph0" class="graph" transform="scale(1 1) rotate(0) translate(4 148)">
<title>src.eralchemy.parser.NoCurrentTableException</title>
<polygon fill="white" stroke="transparent" points="-4,4 -4,-148 273.5,-148 273.5,4 -4,4"/>
<!-- Node1 -->
<g id="node1" class="node">
<title>Node1</title>
<g id="a_node1"><a xlink:title=" ">
<polygon fill="#bfbfbf" stroke="black" points="48.5,-0.5 48.5,-19.5 269.5,-19.5 269.5,-0.5 48.5,-0.5"/>
<text text-anchor="middle" x="159" y="-7.5" font-family="Helvetica,sans-Serif" font-size="10.00">src.eralchemy.parser.NoCurrentTableException</text>
</a>
</g>
</g>
<!-- Node2 -->
<g id="node2" class="node">
<title>Node2</title>
<g id="a_node2"><a xlink:href="classsrc_1_1eralchemy_1_1parser_1_1_parsing_exception.html" target="_top" xlink:title=" ">
<polygon fill="white" stroke="black" points="0,-57.5 0,-76.5 188,-76.5 188,-57.5 0,-57.5"/>
<text text-anchor="middle" x="94" y="-64.5" font-family="Helvetica,sans-Serif" font-size="10.00">src.eralchemy.parser.ParsingException</text>
</a>
</g>
</g>
<!-- Node2&#45;&gt;Node1 -->
<g id="edge1" class="edge">
<title>Node2&#45;&gt;Node1</title>
<path fill="none" stroke="midnightblue" d="M112.07,-50.71C123.88,-40.72 138.88,-28.02 148.7,-19.71"/>
<polygon fill="midnightblue" stroke="midnightblue" points="109.53,-48.27 104.16,-57.41 114.05,-53.62 109.53,-48.27"/>
</g>
<!-- Node3 -->
<g id="node3" class="node">
<title>Node3</title>
<g id="a_node3"><a xlink:title=" ">
<polygon fill="white" stroke="#bfbfbf" points="64,-124.5 64,-143.5 124,-143.5 124,-124.5 64,-124.5"/>
<text text-anchor="middle" x="94" y="-131.5" font-family="Helvetica,sans-Serif" font-size="10.00">Exception</text>
</a>
</g>
</g>
<!-- Node3&#45;&gt;Node2 -->
<g id="edge2" class="edge">
<title>Node3&#45;&gt;Node2</title>
<path fill="none" stroke="midnightblue" d="M94,-114.04C94,-101.67 94,-86.12 94,-76.63"/>
<polygon fill="midnightblue" stroke="midnightblue" points="90.5,-114.23 94,-124.23 97.5,-114.23 90.5,-114.23"/>
</g>
<!-- Node4 -->
<g id="node4" class="node">
<title>Node4</title>
<g id="a_node4"><a xlink:title=" ">
<polygon fill="white" stroke="#bfbfbf" points="172.5,-124.5 172.5,-143.5 213.5,-143.5 213.5,-124.5 172.5,-124.5"/>
<text text-anchor="middle" x="193" y="-131.5" font-family="Helvetica,sans-Serif" font-size="10.00">string</text>
</a>
</g>
</g>
<!-- Node4&#45;&gt;Node1 -->
<g id="edge4" class="edge">
<title>Node4&#45;&gt;Node1</title>
<path fill="none" stroke="#9a32cd" stroke-dasharray="5,2" d="M205.85,-115.67C207.56,-112.58 209.05,-109.3 210,-106 211.36,-101.3 210.8,-99.82 210,-95 207.07,-77.39 205.71,-72.58 197,-57 189.01,-42.72 176.41,-28.54 167.93,-19.78"/>
<polygon fill="#9a32cd" stroke="#9a32cd" points="202.87,-113.83 200.38,-124.13 208.75,-117.63 202.87,-113.83"/>
<text text-anchor="middle" x="215.5" y="-64.5" font-family="Helvetica,sans-Serif" font-size="10.00"> hint</text>
</g>
<!-- Node4&#45;&gt;Node2 -->
<g id="edge3" class="edge">
<title>Node4&#45;&gt;Node2</title>
<path fill="none" stroke="#9a32cd" stroke-dasharray="5,2" d="M163.2,-120.49C154.48,-116.35 145.12,-111.4 137,-106 123.89,-97.29 110.58,-84.86 102.32,-76.61"/>
<polygon fill="#9a32cd" stroke="#9a32cd" points="161.76,-123.68 172.31,-124.66 164.67,-117.32 161.76,-123.68"/>
<text text-anchor="middle" x="173.5" y="-98" font-family="Helvetica,sans-Serif" font-size="10.00"> base_traceback</text>
</g>
</g>
</svg>
