<?xml version="1.0" encoding="UTF-8" standalone="no"?>
<!DOCTYPE svg PUBLIC "-//W3C//DTD SVG 1.1//EN"
 "http://www.w3.org/Graphics/SVG/1.1/DTD/svg11.dtd">
<!-- Generated by graphviz version 2.47.1 (20210417.1919)
 -->
<!-- Title: src.db_tools.db_class_defs.DBBase.consolidate_mem_to_disk Pages: 1 -->
<svg width="289pt" height="50pt"
 viewBox="0.00 0.00 289.00 50.00" xmlns="http://www.w3.org/2000/svg" xmlns:xlink="http://www.w3.org/1999/xlink">
<g id="graph0" class="graph" transform="scale(1 1) rotate(0) translate(4 46)">
<title>src.db_tools.db_class_defs.DBBase.consolidate_mem_to_disk</title>
<polygon fill="white" stroke="transparent" points="-4,4 -4,-46 285,-46 285,4 -4,4"/>
<!-- Node1 -->
<g id="node1" class="node">
<title>Node1</title>
<g id="a_node1"><a xlink:title="This function allows for multiple nested context blocks that can inspect existing contents of primary...">
<polygon fill="#bfbfbf" stroke="black" points="0,-0.5 0,-41.5 131,-41.5 131,-0.5 0,-0.5"/>
<text text-anchor="start" x="8" y="-29.5" font-family="Helvetica,sans-Serif" font-size="10.00">src.db_tools.db_class</text>
<text text-anchor="start" x="8" y="-18.5" font-family="Helvetica,sans-Serif" font-size="10.00">_defs.DBBase.consolidate</text>
<text text-anchor="middle" x="65.5" y="-7.5" font-family="Helvetica,sans-Serif" font-size="10.00">_mem_to_disk</text>
</a>
</g>
</g>
<!-- Node2 -->
<g id="node2" class="node">
<title>Node2</title>
<g id="a_node2"><a xlink:href="classsrc_1_1db__tools_1_1db__class__defs_1_1_d_b_base.html#ab958b56da34f2ee3455c2e50a860c022" target="_top" xlink:title=" ">
<polygon fill="white" stroke="black" points="167,-6 167,-36 281,-36 281,-6 167,-6"/>
<text text-anchor="start" x="175" y="-24" font-family="Helvetica,sans-Serif" font-size="10.00">src.db_tools.db_class</text>
<text text-anchor="middle" x="224" y="-13" font-family="Helvetica,sans-Serif" font-size="10.00">_defs.DBBase.commit</text>
</a>
</g>
</g>
<!-- Node1&#45;&gt;Node2 -->
<g id="edge1" class="edge">
<title>Node1&#45;&gt;Node2</title>
<path fill="none" stroke="midnightblue" d="M131.06,-21C139.44,-21 148.04,-21 156.45,-21"/>
<polygon fill="midnightblue" stroke="midnightblue" points="156.59,-24.5 166.59,-21 156.59,-17.5 156.59,-24.5"/>
</g>
</g>
</svg>
