<?xml version="1.0" encoding="UTF-8" standalone="no"?>
<!DOCTYPE svg PUBLIC "-//W3C//DTD SVG 1.1//EN"
 "http://www.w3.org/Graphics/SVG/1.1/DTD/svg11.dtd">
<!-- Generated by graphviz version 2.47.1 (20210417.1919)
 -->
<!-- Title: src.db_tools.db_class_defs.DBBase.commit Pages: 1 -->
<svg width="543pt" height="66pt"
 viewBox="0.00 0.00 543.00 66.00" xmlns="http://www.w3.org/2000/svg" xmlns:xlink="http://www.w3.org/1999/xlink">
<g id="graph0" class="graph" transform="scale(1 1) rotate(0) translate(4 62)">
<title>src.db_tools.db_class_defs.DBBase.commit</title>
<polygon fill="white" stroke="transparent" points="-4,4 -4,-62 539,-62 539,4 -4,4"/>
<!-- Node1 -->
<g id="node1" class="node">
<title>Node1</title>
<g id="a_node1"><a xlink:title=" ">
<polygon fill="#bfbfbf" stroke="black" points="326,-19.5 326,-38.5 535,-38.5 535,-19.5 326,-19.5"/>
<text text-anchor="middle" x="430.5" y="-26.5" font-family="Helvetica,sans-Serif" font-size="10.00">src.db_tools.db_class_defs.DBBase.commit</text>
</a>
</g>
</g>
<!-- Node2 -->
<g id="node2" class="node">
<title>Node2</title>
<g id="a_node2"><a xlink:href="classsrc_1_1db__tools_1_1db__class__defs_1_1_d_b_base.html#a970d3d8297eb67288f50f6e28e1883fa" target="_top" xlink:title=" ">
<polygon fill="white" stroke="black" points="38.5,-38.5 38.5,-57.5 251.5,-57.5 251.5,-38.5 38.5,-38.5"/>
<text text-anchor="middle" x="145" y="-45.5" font-family="Helvetica,sans-Serif" font-size="10.00">src.db_tools.db_class_defs.DBBase.__call__</text>
</a>
</g>
</g>
<!-- Node1&#45;&gt;Node2 -->
<g id="edge1" class="edge">
<title>Node1&#45;&gt;Node2</title>
<path fill="none" stroke="midnightblue" d="M315.94,-36.61C294.72,-38.03 272.62,-39.51 251.65,-40.92"/>
<polygon fill="midnightblue" stroke="midnightblue" points="316.2,-40.1 325.95,-35.94 315.73,-33.12 316.2,-40.1"/>
</g>
<!-- Node3 -->
<g id="node3" class="node">
<title>Node3</title>
<g id="a_node3"><a xlink:href="classsrc_1_1db__tools_1_1db__class__defs_1_1_d_b_base.html#a08376f1c7b197c5175b44e452116ae65" target="_top" xlink:title="This function allows for multiple nested context blocks that can inspect existing contents of primary...">
<polygon fill="white" stroke="black" points="0,-0.5 0,-19.5 290,-19.5 290,-0.5 0,-0.5"/>
<text text-anchor="middle" x="145" y="-7.5" font-family="Helvetica,sans-Serif" font-size="10.00">src.db_tools.db_class_defs.DBBase.consolidate_mem_to_disk</text>
</a>
</g>
</g>
<!-- Node1&#45;&gt;Node3 -->
<g id="edge2" class="edge">
<title>Node1&#45;&gt;Node3</title>
<path fill="none" stroke="midnightblue" d="M315.74,-21.38C306.63,-20.77 297.37,-20.14 288.1,-19.52"/>
<polygon fill="midnightblue" stroke="midnightblue" points="315.73,-24.88 325.95,-22.06 316.2,-17.9 315.73,-24.88"/>
</g>
</g>
</svg>
