<?xml version="1.0" encoding="UTF-8" standalone="no"?>
<!DOCTYPE svg PUBLIC "-//W3C//DTD SVG 1.1//EN"
 "http://www.w3.org/Graphics/SVG/1.1/DTD/svg11.dtd">
<!-- Generated by graphviz version 2.47.1 (20210417.1919)
 -->
<!-- Title: src.eralchemy.parser.ERAlchemyLineParseError Pages: 1 -->
<svg width="235pt" height="152pt"
 viewBox="0.00 0.00 235.00 152.00" xmlns="http://www.w3.org/2000/svg" xmlns:xlink="http://www.w3.org/1999/xlink">
<g id="graph0" class="graph" transform="scale(1 1) rotate(0) translate(4 148)">
<title>src.eralchemy.parser.ERAlchemyLineParseError</title>
<polygon fill="white" stroke="transparent" points="-4,4 -4,-148 231,-148 231,4 -4,4"/>
<!-- Node1 -->
<g id="node1" class="node">
<title>Node1</title>
<g id="a_node1"><a xlink:title=" ">
<polygon fill="#bfbfbf" stroke="black" points="0,-0.5 0,-19.5 227,-19.5 227,-0.5 0,-0.5"/>
<text text-anchor="middle" x="113.5" y="-7.5" font-family="Helvetica,sans-Serif" font-size="10.00">src.eralchemy.parser.ERAlchemyLineParseError</text>
</a>
</g>
</g>
<!-- Node2 -->
<g id="node2" class="node">
<title>Node2</title>
<g id="a_node2"><a xlink:href="classsrc_1_1eralchemy_1_1parser_1_1_parsing_exception.html" target="_top" xlink:title=" ">
<polygon fill="white" stroke="black" points="19.5,-57.5 19.5,-76.5 207.5,-76.5 207.5,-57.5 19.5,-57.5"/>
<text text-anchor="middle" x="113.5" y="-64.5" font-family="Helvetica,sans-Serif" font-size="10.00">src.eralchemy.parser.ParsingException</text>
</a>
</g>
</g>
<!-- Node2&#45;&gt;Node1 -->
<g id="edge1" class="edge">
<title>Node2&#45;&gt;Node1</title>
<path fill="none" stroke="midnightblue" d="M113.5,-47.12C113.5,-37.82 113.5,-27.06 113.5,-19.71"/>
<polygon fill="midnightblue" stroke="midnightblue" points="110,-47.41 113.5,-57.41 117,-47.41 110,-47.41"/>
</g>
<!-- Node3 -->
<g id="node3" class="node">
<title>Node3</title>
<g id="a_node3"><a xlink:title=" ">
<polygon fill="white" stroke="#bfbfbf" points="49.5,-124.5 49.5,-143.5 109.5,-143.5 109.5,-124.5 49.5,-124.5"/>
<text text-anchor="middle" x="79.5" y="-131.5" font-family="Helvetica,sans-Serif" font-size="10.00">Exception</text>
</a>
</g>
</g>
<!-- Node3&#45;&gt;Node2 -->
<g id="edge2" class="edge">
<title>Node3&#45;&gt;Node2</title>
<path fill="none" stroke="midnightblue" d="M88.83,-115.16C95.39,-102.63 103.87,-86.41 108.99,-76.63"/>
<polygon fill="midnightblue" stroke="midnightblue" points="85.62,-113.75 84.09,-124.23 91.82,-117 85.62,-113.75"/>
</g>
<!-- Node4 -->
<g id="node4" class="node">
<title>Node4</title>
<g id="a_node4"><a xlink:title=" ">
<polygon fill="white" stroke="#bfbfbf" points="128,-124.5 128,-143.5 169,-143.5 169,-124.5 128,-124.5"/>
<text text-anchor="middle" x="148.5" y="-131.5" font-family="Helvetica,sans-Serif" font-size="10.00">string</text>
</a>
</g>
</g>
<!-- Node4&#45;&gt;Node2 -->
<g id="edge3" class="edge">
<title>Node4&#45;&gt;Node2</title>
<path fill="none" stroke="#9a32cd" stroke-dasharray="5,2" d="M138.9,-115.16C132.15,-102.63 123.41,-86.41 118.15,-76.63"/>
<polygon fill="#9a32cd" stroke="#9a32cd" points="135.96,-117.09 143.78,-124.23 142.12,-113.77 135.96,-117.09"/>
<text text-anchor="middle" x="169" y="-98" font-family="Helvetica,sans-Serif" font-size="10.00"> base_traceback</text>
</g>
</g>
</svg>
