<?xml version="1.0" encoding="UTF-8" standalone="no"?>
<!DOCTYPE svg PUBLIC "-//W3C//DTD SVG 1.1//EN"
 "http://www.w3.org/Graphics/SVG/1.1/DTD/svg11.dtd">
<!-- Generated by graphviz version 2.47.1 (20210417.1919)
 -->
<!-- Title: src.eralchemy.parser.ERAlchemyLineParseError Pages: 1 -->
<svg width="183pt" height="174pt"
 viewBox="0.00 0.00 182.50 174.00" xmlns="http://www.w3.org/2000/svg" xmlns:xlink="http://www.w3.org/1999/xlink">
<g id="graph0" class="graph" transform="scale(1 1) rotate(0) translate(4 170)">
<title>src.eralchemy.parser.ERAlchemyLineParseError</title>
<polygon fill="white" stroke="transparent" points="-4,4 -4,-170 178.5,-170 178.5,4 -4,4"/>
<!-- Node1 -->
<g id="node1" class="node">
<title>Node1</title>
<g id="a_node1"><a xlink:title=" ">
<polygon fill="#bfbfbf" stroke="black" points="0,-0.5 0,-30.5 163,-30.5 163,-0.5 0,-0.5"/>
<text text-anchor="start" x="8" y="-18.5" font-family="Helvetica,sans-Serif" font-size="10.00">src.eralchemy.parser.ERAlchemy</text>
<text text-anchor="middle" x="81.5" y="-7.5" font-family="Helvetica,sans-Serif" font-size="10.00">LineParseError</text>
</a>
</g>
</g>
<!-- Node2 -->
<g id="node2" class="node">
<title>Node2</title>
<g id="a_node2"><a xlink:href="classsrc_1_1eralchemy_1_1parser_1_1_parsing_exception.html" target="_top" xlink:title=" ">
<polygon fill="white" stroke="black" points="9.5,-68.5 9.5,-98.5 153.5,-98.5 153.5,-68.5 9.5,-68.5"/>
<text text-anchor="start" x="17.5" y="-86.5" font-family="Helvetica,sans-Serif" font-size="10.00">src.eralchemy.parser.Parsing</text>
<text text-anchor="middle" x="81.5" y="-75.5" font-family="Helvetica,sans-Serif" font-size="10.00">Exception</text>
</a>
</g>
</g>
<!-- Node2&#45;&gt;Node1 -->
<g id="edge1" class="edge">
<title>Node2&#45;&gt;Node1</title>
<path fill="none" stroke="midnightblue" d="M81.5,-58.03C81.5,-48.86 81.5,-38.74 81.5,-30.79"/>
<polygon fill="midnightblue" stroke="midnightblue" points="78,-58.18 81.5,-68.18 85,-58.18 78,-58.18"/>
</g>
<!-- Node3 -->
<g id="node3" class="node">
<title>Node3</title>
<g id="a_node3"><a xlink:title=" ">
<polygon fill="white" stroke="#bfbfbf" points="17.5,-146.5 17.5,-165.5 77.5,-165.5 77.5,-146.5 17.5,-146.5"/>
<text text-anchor="middle" x="47.5" y="-153.5" font-family="Helvetica,sans-Serif" font-size="10.00">Exception</text>
</a>
</g>
</g>
<!-- Node3&#45;&gt;Node2 -->
<g id="edge2" class="edge">
<title>Node3&#45;&gt;Node2</title>
<path fill="none" stroke="midnightblue" d="M56.02,-137.32C61.8,-125.34 69.34,-109.72 74.71,-98.58"/>
<polygon fill="midnightblue" stroke="midnightblue" points="52.86,-135.83 51.67,-146.36 59.17,-138.87 52.86,-135.83"/>
</g>
<!-- Node4 -->
<g id="node4" class="node">
<title>Node4</title>
<g id="a_node4"><a xlink:title=" ">
<polygon fill="white" stroke="#bfbfbf" points="96,-146.5 96,-165.5 137,-165.5 137,-146.5 96,-146.5"/>
<text text-anchor="middle" x="116.5" y="-153.5" font-family="Helvetica,sans-Serif" font-size="10.00">string</text>
</a>
</g>
</g>
<!-- Node4&#45;&gt;Node2 -->
<g id="edge3" class="edge">
<title>Node4&#45;&gt;Node2</title>
<path fill="none" stroke="#9a32cd" stroke-dasharray="5,2" d="M107.72,-137.32C101.78,-125.34 94.02,-109.72 88.49,-98.58"/>
<polygon fill="#9a32cd" stroke="#9a32cd" points="104.63,-138.95 112.21,-146.36 110.9,-135.84 104.63,-138.95"/>
<text text-anchor="middle" x="138" y="-120" font-family="Helvetica,sans-Serif" font-size="10.00"> base_traceback</text>
</g>
</g>
</svg>
