<?xml version="1.0" encoding="UTF-8" standalone="no"?>
<!DOCTYPE svg PUBLIC "-//W3C//DTD SVG 1.1//EN"
 "http://www.w3.org/Graphics/SVG/1.1/DTD/svg11.dtd">
<!-- Generated by graphviz version 2.47.1 (20210417.1919)
 -->
<!-- Title: src.utils.backup.custom_logger.LogManager.add_logger_as_field Pages: 1 -->
<svg width="1017pt" height="66pt"
 viewBox="0.00 0.00 1017.00 66.00" xmlns="http://www.w3.org/2000/svg" xmlns:xlink="http://www.w3.org/1999/xlink">
<g id="graph0" class="graph" transform="scale(1 1) rotate(0) translate(4 62)">
<title>src.utils.backup.custom_logger.LogManager.add_logger_as_field</title>
<polygon fill="white" stroke="transparent" points="-4,4 -4,-62 1013,-62 1013,4 -4,4"/>
<!-- Node1 -->
<g id="node1" class="node">
<title>Node1</title>
<g id="a_node1"><a xlink:title=" ">
<polygon fill="#bfbfbf" stroke="black" points="0,-14 0,-44 227,-44 227,-14 0,-14"/>
<text text-anchor="start" x="8" y="-32" font-family="Helvetica,sans-Serif" font-size="10.00">src.utils.backup.custom_logger.LogManager.add</text>
<text text-anchor="middle" x="113.5" y="-21" font-family="Helvetica,sans-Serif" font-size="10.00">_logger_as_field</text>
</a>
</g>
</g>
<!-- Node2 -->
<g id="node2" class="node">
<title>Node2</title>
<g id="a_node2"><a xlink:href="namespacesrc_1_1utils_1_1backup_1_1custom__logger.html#ae2dfd7172766d01197bea623a3e9ea9f" target="_top" xlink:title=" ">
<polygon fill="white" stroke="black" points="263,-19.5 263,-38.5 463,-38.5 463,-19.5 263,-19.5"/>
<text text-anchor="middle" x="363" y="-26.5" font-family="Helvetica,sans-Serif" font-size="10.00">src.utils.backup.custom_logger.get_logger</text>
</a>
</g>
</g>
<!-- Node1&#45;&gt;Node2 -->
<g id="edge1" class="edge">
<title>Node1&#45;&gt;Node2</title>
<path fill="none" stroke="midnightblue" d="M227.02,-29C235.47,-29 243.98,-29 252.41,-29"/>
<polygon fill="midnightblue" stroke="midnightblue" points="252.63,-32.5 262.63,-29 252.63,-25.5 252.63,-32.5"/>
</g>
<!-- Node3 -->
<g id="node3" class="node">
<title>Node3</title>
<g id="a_node3"><a xlink:href="namespacesrc_1_1utils_1_1backup_1_1custom__logger.html#ac6928a8a1836987261bc3742fb4816d9" target="_top" xlink:title=" ">
<polygon fill="white" stroke="black" points="499,-19.5 499,-38.5 715,-38.5 715,-19.5 499,-19.5"/>
<text text-anchor="middle" x="607" y="-26.5" font-family="Helvetica,sans-Serif" font-size="10.00">src.utils.backup.custom_logger._logger_setup</text>
</a>
</g>
</g>
<!-- Node2&#45;&gt;Node3 -->
<g id="edge2" class="edge">
<title>Node2&#45;&gt;Node3</title>
<path fill="none" stroke="midnightblue" d="M463.13,-29C471.57,-29 480.16,-29 488.73,-29"/>
<polygon fill="midnightblue" stroke="midnightblue" points="488.76,-32.5 498.76,-29 488.76,-25.5 488.76,-32.5"/>
</g>
<!-- Node4 -->
<g id="node4" class="node">
<title>Node4</title>
<g id="a_node4"><a xlink:href="namespacesrc_1_1utils_1_1backup_1_1custom__logger.html#a27daf7da0c7a0813a099e35e53e8d853" target="_top" xlink:title=" ">
<polygon fill="white" stroke="black" points="751,-38.5 751,-57.5 1009,-57.5 1009,-38.5 751,-38.5"/>
<text text-anchor="middle" x="880" y="-45.5" font-family="Helvetica,sans-Serif" font-size="10.00">src.utils.backup.custom_logger._build_default_formatter</text>
</a>
</g>
</g>
<!-- Node3&#45;&gt;Node4 -->
<g id="edge3" class="edge">
<title>Node3&#45;&gt;Node4</title>
<path fill="none" stroke="midnightblue" d="M715.11,-36.51C723.51,-37.1 732.06,-37.7 740.63,-38.3"/>
<polygon fill="midnightblue" stroke="midnightblue" points="740.47,-41.8 750.69,-39 740.96,-34.81 740.47,-41.8"/>
</g>
<!-- Node5 -->
<g id="node5" class="node">
<title>Node5</title>
<g id="a_node5"><a xlink:href="namespacesrc_1_1utils_1_1backup_1_1custom__logger.html#ad0bdcdf6528dc06e310f218ce95930d4" target="_top" xlink:title=" ">
<polygon fill="white" stroke="black" points="762,-0.5 762,-19.5 998,-19.5 998,-0.5 762,-0.5"/>
<text text-anchor="middle" x="880" y="-7.5" font-family="Helvetica,sans-Serif" font-size="10.00">src.utils.backup.custom_logger._configure_handler</text>
</a>
</g>
</g>
<!-- Node3&#45;&gt;Node5 -->
<g id="edge4" class="edge">
<title>Node3&#45;&gt;Node5</title>
<path fill="none" stroke="midnightblue" d="M715.11,-21.49C727.13,-20.65 739.46,-19.78 751.7,-18.92"/>
<polygon fill="midnightblue" stroke="midnightblue" points="752.23,-22.4 761.96,-18.21 751.74,-15.41 752.23,-22.4"/>
</g>
</g>
</svg>
