<?xml version="1.0" encoding="UTF-8" standalone="no"?>
<!DOCTYPE svg PUBLIC "-//W3C//DTD SVG 1.1//EN"
 "http://www.w3.org/Graphics/SVG/1.1/DTD/svg11.dtd">
<!-- Generated by graphviz version 2.47.1 (20210417.1919)
 -->
<!-- Title: src.lemma_extraction.word_extraction_classes.TaggerBase Pages: 1 -->
<svg width="811pt" height="104pt"
 viewBox="0.00 0.00 811.00 104.00" xmlns="http://www.w3.org/2000/svg" xmlns:xlink="http://www.w3.org/1999/xlink">
<g id="graph0" class="graph" transform="scale(1 1) rotate(0) translate(4 100)">
<title>src.lemma_extraction.word_extraction_classes.TaggerBase</title>
<polygon fill="white" stroke="transparent" points="-4,4 -4,-100 807,-100 807,4 -4,4"/>
<!-- Node1 -->
<g id="node1" class="node">
<title>Node1</title>
<g id="a_node1"><a xlink:title=" ">
<polygon fill="#bfbfbf" stroke="black" points="172,-38.5 172,-57.5 447,-57.5 447,-38.5 172,-38.5"/>
<text text-anchor="middle" x="309.5" y="-45.5" font-family="Helvetica,sans-Serif" font-size="10.00">src.lemma_extraction.word_extraction_classes.TaggerBase</text>
</a>
</g>
</g>
<!-- Node3 -->
<g id="node3" class="node">
<title>Node3</title>
<g id="a_node3"><a xlink:href="classsrc_1_1lemma__extraction_1_1word__extraction__classes_1_1_lemma_extractor.html" target="_top" xlink:title=" ">
<polygon fill="white" stroke="black" points="495,-76.5 495,-95.5 791,-95.5 791,-76.5 495,-76.5"/>
<text text-anchor="middle" x="643" y="-83.5" font-family="Helvetica,sans-Serif" font-size="10.00">src.lemma_extraction.word_extraction_classes.LemmaExtractor</text>
</a>
</g>
</g>
<!-- Node1&#45;&gt;Node3 -->
<g id="edge2" class="edge">
<title>Node1&#45;&gt;Node3</title>
<path fill="none" stroke="midnightblue" d="M403.66,-58.68C452.49,-64.28 511.79,-71.07 559.03,-76.49"/>
<polygon fill="midnightblue" stroke="midnightblue" points="404.06,-55.2 393.72,-57.54 403.26,-62.16 404.06,-55.2"/>
</g>
<!-- Node4 -->
<g id="node4" class="node">
<title>Node4</title>
<g id="a_node4"><a xlink:href="classsrc_1_1lemma__extraction_1_1word__extraction__classes_1_1_message_body_tagging.html" target="_top" xlink:title=" ">
<polygon fill="white" stroke="black" points="483,-38.5 483,-57.5 803,-57.5 803,-38.5 483,-38.5"/>
<text text-anchor="middle" x="643" y="-45.5" font-family="Helvetica,sans-Serif" font-size="10.00">src.lemma_extraction.word_extraction_classes.MessageBodyTagging</text>
</a>
</g>
</g>
<!-- Node1&#45;&gt;Node4 -->
<g id="edge3" class="edge">
<title>Node1&#45;&gt;Node4</title>
<path fill="none" stroke="midnightblue" d="M457.5,-48C465.94,-48 474.44,-48 482.92,-48"/>
<polygon fill="midnightblue" stroke="midnightblue" points="457.25,-44.5 447.25,-48 457.25,-51.5 457.25,-44.5"/>
</g>
<!-- Node5 -->
<g id="node5" class="node">
<title>Node5</title>
<g id="a_node5"><a xlink:href="classsrc_1_1lemma__extraction_1_1word__extraction__classes_1_1_sentence_word_tagger.html" target="_top" xlink:title=" ">
<polygon fill="white" stroke="black" points="484.5,-0.5 484.5,-19.5 801.5,-19.5 801.5,-0.5 484.5,-0.5"/>
<text text-anchor="middle" x="643" y="-7.5" font-family="Helvetica,sans-Serif" font-size="10.00">src.lemma_extraction.word_extraction_classes.SentenceWordTagger</text>
</a>
</g>
</g>
<!-- Node1&#45;&gt;Node5 -->
<g id="edge4" class="edge">
<title>Node1&#45;&gt;Node5</title>
<path fill="none" stroke="midnightblue" d="M403.66,-37.32C452.49,-31.72 511.79,-24.93 559.03,-19.51"/>
<polygon fill="midnightblue" stroke="midnightblue" points="403.26,-33.84 393.72,-38.46 404.06,-40.8 403.26,-33.84"/>
</g>
<!-- Node2 -->
<g id="node2" class="node">
<title>Node2</title>
<g id="a_node2"><a xlink:href="classsrc_1_1utils_1_1_j_pickle_serializable.html" target="_top" xlink:title="An abstract base class that represents a generic interface for custom class objects that will end up ...">
<polygon fill="white" stroke="black" points="0,-38.5 0,-57.5 136,-57.5 136,-38.5 0,-38.5"/>
<text text-anchor="middle" x="68" y="-45.5" font-family="Helvetica,sans-Serif" font-size="10.00">src.utils.JPickleSerializable</text>
</a>
</g>
</g>
<!-- Node2&#45;&gt;Node1 -->
<g id="edge1" class="edge">
<title>Node2&#45;&gt;Node1</title>
<path fill="none" stroke="midnightblue" d="M146.06,-48C154.42,-48 163.1,-48 171.9,-48"/>
<polygon fill="midnightblue" stroke="midnightblue" points="146.03,-44.5 136.03,-48 146.03,-51.5 146.03,-44.5"/>
</g>
</g>
</svg>
