<?xml version="1.0" encoding="UTF-8" standalone="no"?>
<!DOCTYPE svg PUBLIC "-//W3C//DTD SVG 1.1//EN"
 "http://www.w3.org/Graphics/SVG/1.1/DTD/svg11.dtd">
<!-- Generated by graphviz version 2.47.1 (20210417.1919)
 -->
<!-- Title: src.lemma_extraction.word_extraction_classes.LemmaExtractor.do_all_lemma_join Pages: 1 -->
<svg width="448pt" height="50pt"
 viewBox="0.00 0.00 448.00 50.00" xmlns="http://www.w3.org/2000/svg" xmlns:xlink="http://www.w3.org/1999/xlink">
<g id="graph0" class="graph" transform="scale(1 1) rotate(0) translate(4 46)">
<title>src.lemma_extraction.word_extraction_classes.LemmaExtractor.do_all_lemma_join</title>
<polygon fill="white" stroke="transparent" points="-4,4 -4,-46 444,-46 444,4 -4,4"/>
<!-- Node1 -->
<g id="node1" class="node">
<title>Node1</title>
<g id="a_node1"><a xlink:title=" ">
<polygon fill="#bfbfbf" stroke="black" points="0,-0.5 0,-41.5 192,-41.5 192,-0.5 0,-0.5"/>
<text text-anchor="start" x="8" y="-29.5" font-family="Helvetica,sans-Serif" font-size="10.00">src.lemma_extraction.word</text>
<text text-anchor="start" x="8" y="-18.5" font-family="Helvetica,sans-Serif" font-size="10.00">_extraction_classes.LemmaExtractor.do</text>
<text text-anchor="middle" x="96" y="-7.5" font-family="Helvetica,sans-Serif" font-size="10.00">_all_lemma_join</text>
</a>
</g>
</g>
<!-- Node2 -->
<g id="node2" class="node">
<title>Node2</title>
<g id="a_node2"><a xlink:href="classsrc_1_1lemma__extraction_1_1word__extraction__classes_1_1_lemma_extractor.html#a6d02130e23d944bbdcfba767428b317b" target="_top" xlink:title=" ">
<polygon fill="white" stroke="black" points="228,-6 228,-36 440,-36 440,-6 228,-6"/>
<text text-anchor="start" x="236" y="-24" font-family="Helvetica,sans-Serif" font-size="10.00">src.lemma_extraction.word</text>
<text text-anchor="middle" x="334" y="-13" font-family="Helvetica,sans-Serif" font-size="10.00">_extraction_classes.LemmaExtractor.do_join</text>
</a>
</g>
</g>
<!-- Node1&#45;&gt;Node2 -->
<g id="edge1" class="edge">
<title>Node1&#45;&gt;Node2</title>
<path fill="none" stroke="midnightblue" d="M192.31,-21C200.59,-21 209.02,-21 217.43,-21"/>
<polygon fill="midnightblue" stroke="midnightblue" points="217.68,-24.5 227.68,-21 217.68,-17.5 217.68,-24.5"/>
</g>
</g>
</svg>
