<?xml version="1.0" encoding="UTF-8" standalone="no"?>
<!DOCTYPE svg PUBLIC "-//W3C//DTD SVG 1.1//EN"
 "http://www.w3.org/Graphics/SVG/1.1/DTD/svg11.dtd">
<!-- Generated by graphviz version 2.47.1 (20210417.1919)
 -->
<!-- Title: src.db_tools.db_class_defs.DBBase.database Pages: 1 -->
<svg width="284pt" height="88pt"
 viewBox="0.00 0.00 284.00 88.00" xmlns="http://www.w3.org/2000/svg" xmlns:xlink="http://www.w3.org/1999/xlink">
<g id="graph0" class="graph" transform="scale(1 1) rotate(0) translate(4 84)">
<title>src.db_tools.db_class_defs.DBBase.database</title>
<polygon fill="white" stroke="transparent" points="-4,4 -4,-84 280,-84 280,4 -4,4"/>
<!-- Node1 -->
<g id="node1" class="node">
<title>Node1</title>
<g id="a_node1"><a xlink:title="Returns a pathlib.Path object pointing to our primary db connection for this instance.">
<polygon fill="#bfbfbf" stroke="black" points="154,-24.5 154,-54.5 276,-54.5 276,-24.5 154,-24.5"/>
<text text-anchor="start" x="162" y="-42.5" font-family="Helvetica,sans-Serif" font-size="10.00">src.db_tools.db_class</text>
<text text-anchor="middle" x="215" y="-31.5" font-family="Helvetica,sans-Serif" font-size="10.00">_defs.DBBase.database</text>
</a>
</g>
</g>
<!-- Node2 -->
<g id="node2" class="node">
<title>Node2</title>
<g id="a_node2"><a xlink:href="classsrc_1_1db__tools_1_1db__class__defs_1_1_d_b_base.html#a970d3d8297eb67288f50f6e28e1883fa" target="_top" xlink:title=" ">
<polygon fill="white" stroke="black" points="0,-49.5 0,-79.5 118,-79.5 118,-49.5 0,-49.5"/>
<text text-anchor="start" x="8" y="-67.5" font-family="Helvetica,sans-Serif" font-size="10.00">src.db_tools.db_class</text>
<text text-anchor="middle" x="59" y="-56.5" font-family="Helvetica,sans-Serif" font-size="10.00">_defs.DBBase.__call__</text>
</a>
</g>
</g>
<!-- Node1&#45;&gt;Node2 -->
<g id="edge1" class="edge">
<title>Node1&#45;&gt;Node2</title>
<path fill="none" stroke="midnightblue" d="M143.66,-50.92C135.16,-52.3 126.54,-53.7 118.23,-55.05"/>
<polygon fill="midnightblue" stroke="midnightblue" points="144.27,-54.37 153.58,-49.31 143.15,-47.46 144.27,-54.37"/>
</g>
<!-- Node3 -->
<g id="node3" class="node">
<title>Node3</title>
<g id="a_node3"><a xlink:href="classsrc_1_1db__tools_1_1db__class__defs_1_1_d_b_base.html#a6659869a9f8ae3a071aa7c653a8f7ea7" target="_top" xlink:title=" ">
<polygon fill="white" stroke="black" points="1,-0.5 1,-30.5 117,-30.5 117,-0.5 1,-0.5"/>
<text text-anchor="start" x="9" y="-18.5" font-family="Helvetica,sans-Serif" font-size="10.00">src.db_tools.db_class</text>
<text text-anchor="middle" x="59" y="-7.5" font-family="Helvetica,sans-Serif" font-size="10.00">_defs.DBBase.__del__</text>
</a>
</g>
</g>
<!-- Node1&#45;&gt;Node3 -->
<g id="edge2" class="edge">
<title>Node1&#45;&gt;Node3</title>
<path fill="none" stroke="midnightblue" d="M143.66,-28.54C134.81,-27.16 125.84,-25.76 117.23,-24.42"/>
<polygon fill="midnightblue" stroke="midnightblue" points="143.16,-32 153.58,-30.08 144.24,-25.09 143.16,-32"/>
</g>
</g>
</svg>
