<?xml version="1.0" encoding="UTF-8" standalone="no"?>
<!DOCTYPE svg PUBLIC "-//W3C//DTD SVG 1.1//EN"
 "http://www.w3.org/Graphics/SVG/1.1/DTD/svg11.dtd">
<!-- Generated by graphviz version 2.47.1 (20210417.1919)
 -->
<!-- Title: src.eralchemy.models.Drawable.__str__ Pages: 1 -->
<svg width="708pt" height="142pt"
 viewBox="0.00 0.00 708.00 142.00" xmlns="http://www.w3.org/2000/svg" xmlns:xlink="http://www.w3.org/1999/xlink">
<g id="graph0" class="graph" transform="scale(1 1) rotate(0) translate(4 138)">
<title>src.eralchemy.models.Drawable.__str__</title>
<polygon fill="white" stroke="transparent" points="-4,4 -4,-138 704,-138 704,4 -4,4"/>
<!-- Node1 -->
<g id="node1" class="node">
<title>Node1</title>
<g id="a_node1"><a xlink:title=" ">
<polygon fill="#bfbfbf" stroke="black" points="0,-57.5 0,-76.5 191,-76.5 191,-57.5 0,-57.5"/>
<text text-anchor="middle" x="95.5" y="-64.5" font-family="Helvetica,sans-Serif" font-size="10.00">src.eralchemy.models.Drawable.__str__</text>
</a>
</g>
</g>
<!-- Node2 -->
<g id="node2" class="node">
<title>Node2</title>
<g id="a_node2"><a xlink:href="classsrc_1_1eralchemy_1_1models_1_1_drawable.html#ad32f1e32cd5199f562d92d841c887c72" target="_top" xlink:title=" ">
<polygon fill="white" stroke="black" points="227,-114.5 227,-133.5 443,-133.5 443,-114.5 227,-114.5"/>
<text text-anchor="middle" x="335" y="-121.5" font-family="Helvetica,sans-Serif" font-size="10.00">src.eralchemy.models.Drawable.to_markdown</text>
</a>
</g>
</g>
<!-- Node1&#45;&gt;Node2 -->
<g id="edge1" class="edge">
<title>Node1&#45;&gt;Node2</title>
<path fill="none" stroke="midnightblue" d="M125.8,-76.51C152.1,-84.82 191.84,-96.79 227,-105 238.77,-107.75 251.35,-110.31 263.6,-112.61"/>
<polygon fill="midnightblue" stroke="midnightblue" points="263.31,-116.12 273.78,-114.48 264.58,-109.23 263.31,-116.12"/>
</g>
<!-- Node3 -->
<g id="node3" class="node">
<title>Node3</title>
<g id="a_node3"><a xlink:href="classsrc_1_1eralchemy_1_1models_1_1_column.html#ad8a279e00c1b4247692592cc2169a0ba" target="_top" xlink:title=" ">
<polygon fill="white" stroke="black" points="230.5,-76.5 230.5,-95.5 439.5,-95.5 439.5,-76.5 230.5,-76.5"/>
<text text-anchor="middle" x="335" y="-83.5" font-family="Helvetica,sans-Serif" font-size="10.00">src.eralchemy.models.Column.to_markdown</text>
</a>
</g>
</g>
<!-- Node1&#45;&gt;Node3 -->
<g id="edge2" class="edge">
<title>Node1&#45;&gt;Node3</title>
<path fill="none" stroke="midnightblue" d="M191.05,-74.56C200.65,-75.33 210.47,-76.12 220.25,-76.9"/>
<polygon fill="midnightblue" stroke="midnightblue" points="220.16,-80.4 230.41,-77.71 220.72,-73.43 220.16,-80.4"/>
</g>
<!-- Node5 -->
<g id="node5" class="node">
<title>Node5</title>
<g id="a_node5"><a xlink:href="classsrc_1_1eralchemy_1_1models_1_1_relation.html#aa68859ab8c1019e02adc98c973599169" target="_top" xlink:title=" ">
<polygon fill="white" stroke="black" points="229,-38.5 229,-57.5 441,-57.5 441,-38.5 229,-38.5"/>
<text text-anchor="middle" x="335" y="-45.5" font-family="Helvetica,sans-Serif" font-size="10.00">src.eralchemy.models.Relation.to_markdown</text>
</a>
</g>
</g>
<!-- Node1&#45;&gt;Node5 -->
<g id="edge4" class="edge">
<title>Node1&#45;&gt;Node5</title>
<path fill="none" stroke="midnightblue" d="M191.05,-59.44C200.17,-58.71 209.49,-57.96 218.78,-57.22"/>
<polygon fill="midnightblue" stroke="midnightblue" points="219.15,-60.7 228.84,-56.41 218.59,-53.72 219.15,-60.7"/>
</g>
<!-- Node6 -->
<g id="node6" class="node">
<title>Node6</title>
<g id="a_node6"><a xlink:href="classsrc_1_1eralchemy_1_1models_1_1_table.html#a91f27923b4763f0d928cb7ceb7e3f936" target="_top" xlink:title=" ">
<polygon fill="white" stroke="black" points="235,-0.5 235,-19.5 435,-19.5 435,-0.5 235,-0.5"/>
<text text-anchor="middle" x="335" y="-7.5" font-family="Helvetica,sans-Serif" font-size="10.00">src.eralchemy.models.Table.to_markdown</text>
</a>
</g>
</g>
<!-- Node1&#45;&gt;Node6 -->
<g id="edge5" class="edge">
<title>Node1&#45;&gt;Node6</title>
<path fill="none" stroke="midnightblue" d="M125.8,-57.49C152.1,-49.18 191.84,-37.21 227,-29 238.77,-26.25 251.35,-23.69 263.6,-21.39"/>
<polygon fill="midnightblue" stroke="midnightblue" points="264.58,-24.77 273.78,-19.52 263.31,-17.88 264.58,-24.77"/>
</g>
<!-- Node4 -->
<g id="node4" class="node">
<title>Node4</title>
<g id="a_node4"><a xlink:href="classsrc_1_1eralchemy_1_1models_1_1_column.html#a286bb8f3f89a3d1294f772c8b50988a1" target="_top" xlink:title=" ">
<polygon fill="white" stroke="black" points="487.5,-76.5 487.5,-95.5 691.5,-95.5 691.5,-76.5 487.5,-76.5"/>
<text text-anchor="middle" x="589.5" y="-83.5" font-family="Helvetica,sans-Serif" font-size="10.00">src.eralchemy.models.Column.key_symbol</text>
</a>
</g>
</g>
<!-- Node3&#45;&gt;Node4 -->
<g id="edge3" class="edge">
<title>Node3&#45;&gt;Node4</title>
<path fill="none" stroke="midnightblue" d="M439.79,-86C452.02,-86 464.53,-86 476.85,-86"/>
<polygon fill="midnightblue" stroke="midnightblue" points="477.14,-89.5 487.14,-86 477.14,-82.5 477.14,-89.5"/>
</g>
<!-- Node7 -->
<g id="node7" class="node">
<title>Node7</title>
<g id="a_node7"><a xlink:href="classsrc_1_1eralchemy_1_1models_1_1_table.html#a3ef0821c86fe4aaa685ae1843e4461ce" target="_top" xlink:title=" ">
<polygon fill="white" stroke="black" points="479,-0.5 479,-19.5 700,-19.5 700,-0.5 479,-0.5"/>
<text text-anchor="middle" x="589.5" y="-7.5" font-family="Helvetica,sans-Serif" font-size="10.00">src.eralchemy.models.Table.header_markdown</text>
</a>
</g>
</g>
<!-- Node6&#45;&gt;Node7 -->
<g id="edge6" class="edge">
<title>Node6&#45;&gt;Node7</title>
<path fill="none" stroke="midnightblue" d="M435.07,-10C446.07,-10 457.36,-10 468.58,-10"/>
<polygon fill="midnightblue" stroke="midnightblue" points="468.86,-13.5 478.86,-10 468.86,-6.5 468.86,-13.5"/>
</g>
</g>
</svg>
