<?xml version="1.0" encoding="UTF-8" standalone="no"?>
<!DOCTYPE svg PUBLIC "-//W3C//DTD SVG 1.1//EN"
 "http://www.w3.org/Graphics/SVG/1.1/DTD/svg11.dtd">
<!-- Generated by graphviz version 2.47.1 (20210417.1919)
 -->
<!-- Title: src.db_tools.db_class_defs.DBBase.__call__ Pages: 1 -->
<!--zoomable 178 -->
<svg id="main" version="1.1" xmlns="http://www.w3.org/2000/svg" xmlns:xlink="http://www.w3.org/1999/xlink" xml:space="preserve" onload="init(evt)">
<style type="text/css"><![CDATA[
.edge:hover path { stroke: red; }
.edge:hover polygon { stroke: red; fill: red; }
]]></style>
<script type="text/javascript"><![CDATA[
var edges = document.getElementsByTagName('g');
if (edges && edges.length) {
  for (var i=0;i<edges.length;i++) {
    if (edges[i].id.substr(0,4)=='edge') {
      edges[i].setAttribute('class','edge');
    }
  }
}
]]></script>
        <defs>
                <circle id="rim" cx="0" cy="0" r="7"/>
                <circle id="rim2" cx="0" cy="0" r="3.5"/>
                <g id="zoomPlus">
                        <use xlink:href="#rim" fill="#404040">
                                <set attributeName="fill" to="#808080" begin="zoomplus.mouseover" end="zoomplus.mouseout"/>
                        </use>
                        <path d="M-4,0h8M0,-4v8" fill="none" stroke="white" stroke-width="1.5" pointer-events="none"/>
                </g>
                <g id="zoomMin">
                        <use xlink:href="#rim" fill="#404040">
                                <set attributeName="fill" to="#808080" begin="zoomminus.mouseover" end="zoomminus.mouseout"/>
                        </use>
                        <path d="M-4,0h8" fill="none" stroke="white" stroke-width="1.5" pointer-events="none"/>
                </g>
                <g id="dirArrow">
                        <path fill="none" stroke="white" stroke-width="1.5" d="M0,-3.0v7 M-2.5,-0.5L0,-3.0L2.5,-0.5"/>
                </g>
               <g id="resetDef">
                       <use xlink:href="#rim2" fill="#404040">
                               <set attributeName="fill" to="#808080" begin="reset.mouseover" end="reset.mouseout"/>
                       </use>
               </g>
        </defs>

<script type="text/javascript">
var viewWidth = 1032;
var viewHeight = 178;
var sectionId = 'dynsection-2';
</script>
<script xlink:href="svgpan.js"/>
<svg id="graph" class="graph">
<g id="viewport">
<title>src.db_tools.db_class_defs.DBBase.__call__</title>
<polygon fill="white" stroke="transparent" points="-4,4 -4,-174.04 1028,-174.04 1028,4 -4,4"/>
<!-- Node1 -->
<g id="node1" class="node">
<title>Node1</title>
<g id="a_node1"><a xlink:title=" ">
<polygon fill="#bfbfbf" stroke="black" points="0,-62.54 0,-81.54 213,-81.54 213,-62.54 0,-62.54"/>
<text text-anchor="middle" x="106.5" y="-69.54" font-family="Helvetica,sans-Serif" font-size="10.00">src.db_tools.db_class_defs.DBBase.__call__</text>
</a>
</g>
</g>
<!-- Node2 -->
<g id="node2" class="node">
<title>Node2</title>
<g id="a_node2"><a xlink:href="classsrc_1_1db__tools_1_1db__class__defs_1_1_d_b_base.html#a1dc699a71be35e805020d2c3f92b66c3" target="_top" xlink:title=" ">
<polygon fill="white" stroke="black" points="249,-150.54 249,-169.54 487,-169.54 487,-150.54 249,-150.54"/>
<text text-anchor="middle" x="368" y="-157.54" font-family="Helvetica,sans-Serif" font-size="10.00">src.db_tools.db_class_defs.DBBase._add_to_keys</text>
</a>
</g>
</g>
<!-- Node1&#45;&gt;Node2 -->
<g id="edge1" class="edge">
<title>Node1&#45;&gt;Node2</title>
<path fill="none" stroke="midnightblue" d="M123.41,-81.74C148.93,-96.86 201.06,-125.86 249,-141.04 258.1,-143.92 267.75,-146.38 277.44,-148.48"/>
<polygon fill="midnightblue" stroke="midnightblue" points="277.04,-151.97 287.54,-150.54 278.44,-145.11 277.04,-151.97"/>
</g>
<!-- Node3 -->
<g id="node3" class="node">
<title>Node3</title>
<g id="a_node3"><a xlink:href="classsrc_1_1db__tools_1_1db__class__defs_1_1_d_b_base.html#a7d81ecdc59e01a8449b98a2050672b24" target="_top" xlink:title=" ">
<polygon fill="white" stroke="black" points="257.5,-101.04 257.5,-131.04 478.5,-131.04 478.5,-101.04 257.5,-101.04"/>
<text text-anchor="start" x="265.5" y="-119.04" font-family="Helvetica,sans-Serif" font-size="10.00">src.db_tools.db_class_defs.DBBase._establish</text>
<text text-anchor="middle" x="368" y="-108.04" font-family="Helvetica,sans-Serif" font-size="10.00">_new_connection</text>
</a>
</g>
</g>
<!-- Node1&#45;&gt;Node3 -->
<g id="edge2" class="edge">
<title>Node1&#45;&gt;Node3</title>
<path fill="none" stroke="midnightblue" d="M163.81,-81.59C194.4,-86.78 233.11,-93.34 268.51,-99.34"/>
<polygon fill="midnightblue" stroke="midnightblue" points="267.96,-102.8 278.4,-101.02 269.13,-95.9 267.96,-102.8"/>
</g>
<!-- Node5 -->
<g id="node5" class="node">
<title>Node5</title>
<g id="a_node5"><a xlink:href="classsrc_1_1db__tools_1_1db__class__defs_1_1_d_b_base.html#a429bfd28d78ab3be7bfc8b3f24509fa1" target="_top" xlink:title="Calling this property requires that we have made a previous call to self.__call__() in order to prope...">
<polygon fill="white" stroke="black" points="800,-62.54 800,-81.54 1024,-81.54 1024,-62.54 800,-62.54"/>
<text text-anchor="middle" x="912" y="-69.54" font-family="Helvetica,sans-Serif" font-size="10.00">src.db_tools.db_class_defs.DBBase.connection</text>
</a>
</g>
</g>
<!-- Node1&#45;&gt;Node5 -->
<g id="edge7" class="edge">
<title>Node1&#45;&gt;Node5</title>
<path fill="none" stroke="midnightblue" d="M213.37,-72.04C362.23,-72.04 632.72,-72.04 789.57,-72.04"/>
<polygon fill="midnightblue" stroke="midnightblue" points="789.73,-75.54 799.73,-72.04 789.73,-68.54 789.73,-75.54"/>
</g>
<!-- Node7 -->
<g id="node7" class="node">
<title>Node7</title>
<g id="a_node7"><a xlink:href="classsrc_1_1db__tools_1_1db__class__defs_1_1_d_b_base.html#ab958b56da34f2ee3455c2e50a860c022" target="_top" xlink:title=" ">
<polygon fill="white" stroke="black" points="263.5,-24.54 263.5,-43.54 472.5,-43.54 472.5,-24.54 263.5,-24.54"/>
<text text-anchor="middle" x="368" y="-31.54" font-family="Helvetica,sans-Serif" font-size="10.00">src.db_tools.db_class_defs.DBBase.commit</text>
</a>
</g>
</g>
<!-- Node1&#45;&gt;Node7 -->
<g id="edge6" class="edge">
<title>Node1&#45;&gt;Node7</title>
<path fill="none" stroke="midnightblue" d="M172.65,-62.5C208.89,-57.19 254.17,-50.56 291.9,-45.04"/>
<polygon fill="midnightblue" stroke="midnightblue" points="292.44,-48.5 301.83,-43.59 291.42,-41.57 292.44,-48.5"/>
</g>
<!-- Node8 -->
<g id="node8" class="node">
<title>Node8</title>
<g id="a_node8"><a xlink:href="classsrc_1_1db__tools_1_1db__class__defs_1_1_d_b_base.html#afab76d33daab3aa5e5c9263f284ee9d6" target="_top" xlink:title=" ">
<polygon fill="white" stroke="black" points="541.5,-5.54 541.5,-24.54 745.5,-24.54 745.5,-5.54 541.5,-5.54"/>
<text text-anchor="middle" x="643.5" y="-12.54" font-family="Helvetica,sans-Serif" font-size="10.00">src.db_tools.db_class_defs.DBBase.cursor</text>
</a>
</g>
</g>
<!-- Node1&#45;&gt;Node8 -->
<g id="edge8" class="edge">
<title>Node1&#45;&gt;Node8</title>
<path fill="none" stroke="midnightblue" d="M125.13,-62.35C151.26,-48.61 202.2,-24.11 249,-15.04 348.21,4.19 464.15,1.2 544.36,-4.76"/>
<polygon fill="midnightblue" stroke="midnightblue" points="544.21,-8.26 554.45,-5.54 544.75,-1.28 544.21,-8.26"/>
</g>
<!-- Node4 -->
<g id="node4" class="node">
<title>Node4</title>
<g id="a_node4"><a xlink:href="classsrc_1_1db__tools_1_1db__class__defs_1_1_d_b_base.html#a47894228f63f488c5212dd846621da72" target="_top" xlink:title=" ">
<polygon fill="white" stroke="black" points="523,-138.54 523,-157.54 764,-157.54 764,-138.54 523,-138.54"/>
<text text-anchor="middle" x="643.5" y="-145.54" font-family="Helvetica,sans-Serif" font-size="10.00">src.db_tools.db_class_defs.DBBase._register_table</text>
</a>
</g>
</g>
<!-- Node3&#45;&gt;Node4 -->
<g id="edge3" class="edge">
<title>Node3&#45;&gt;Node4</title>
<path fill="none" stroke="midnightblue" d="M478.67,-128.87C502.62,-131.68 527.72,-134.61 550.88,-137.32"/>
<polygon fill="midnightblue" stroke="midnightblue" points="550.68,-140.82 561.02,-138.51 551.5,-133.87 550.68,-140.82"/>
</g>
<!-- Node6 -->
<g id="node6" class="node">
<title>Node6</title>
<g id="a_node6"><a xlink:href="classsrc_1_1db__tools_1_1db__class__defs_1_1_d_b_base.html#ade81609e37ef5b096b7d351a7d116b83" target="_top" xlink:title="A list of strings, where each element in the list is the name of a table in the main DB.">
<polygon fill="white" stroke="black" points="527,-100.54 527,-119.54 760,-119.54 760,-100.54 527,-100.54"/>
<text text-anchor="middle" x="643.5" y="-107.54" font-family="Helvetica,sans-Serif" font-size="10.00">src.db_tools.db_class_defs.DBBase.table_names</text>
</a>
</g>
</g>
<!-- Node3&#45;&gt;Node6 -->
<g id="edge5" class="edge">
<title>Node3&#45;&gt;Node6</title>
<path fill="none" stroke="midnightblue" d="M478.67,-113.64C491.21,-113.36 504.08,-113.08 516.81,-112.8"/>
<polygon fill="midnightblue" stroke="midnightblue" points="517.07,-116.29 526.99,-112.58 516.92,-109.3 517.07,-116.29"/>
</g>
<!-- Node4&#45;&gt;Node5 -->
<g id="edge4" class="edge">
<title>Node4&#45;&gt;Node5</title>
<path fill="none" stroke="midnightblue" d="M720.24,-138.49C734.88,-135.94 750.01,-132.82 764,-129.04 805.79,-117.76 852.03,-98.67 881.29,-85.72"/>
<polygon fill="midnightblue" stroke="midnightblue" points="882.83,-88.86 890.53,-81.58 879.97,-82.47 882.83,-88.86"/>
</g>
<!-- Node8&#45;&gt;Node5 -->
<g id="edge9" class="edge">
<title>Node8&#45;&gt;Node5</title>
<path fill="none" stroke="midnightblue" d="M689.11,-24.58C735.13,-34.43 806.97,-49.79 856.37,-60.36"/>
<polygon fill="midnightblue" stroke="midnightblue" points="855.74,-63.8 866.25,-62.47 857.2,-56.96 855.74,-63.8"/>
</g>
</g>
</svg>
        <g id="navigator" transform="translate(0 0)" fill="#404254">
                <rect fill="#f2f5e9" fill-opacity="0.5" stroke="#606060" stroke-width=".5" x="0" y="0" width="60" height="60"/>
                <use id="zoomplus" xlink:href="#zoomPlus" x="17" y="9" onmousedown="handleZoom(evt,'in')"/>
                <use id="zoomminus" xlink:href="#zoomMin" x="42" y="9" onmousedown="handleZoom(evt,'out')"/>
                <use id="reset" xlink:href="#resetDef" x="30" y="36" onmousedown="handleReset()"/>
                <g id="arrowUp" xlink:href="#dirArrow" transform="translate(30 24)" onmousedown="handlePan(0,-1)">
                  <use xlink:href="#rim" fill="#404040">
                        <set attributeName="fill" to="#808080" begin="arrowUp.mouseover" end="arrowUp.mouseout"/>
                  </use>
                  <path fill="none" stroke="white" stroke-width="1.5" d="M0,-3.0v7 M-2.5,-0.5L0,-3.0L2.5,-0.5"/>
                </g>
                <g id="arrowRight" xlink:href="#dirArrow" transform="rotate(90) translate(36 -43)" onmousedown="handlePan(1,0)">
                  <use xlink:href="#rim" fill="#404040">
                        <set attributeName="fill" to="#808080" begin="arrowRight.mouseover" end="arrowRight.mouseout"/>
                  </use>
                  <path fill="none" stroke="white" stroke-width="1.5" d="M0,-3.0v7 M-2.5,-0.5L0,-3.0L2.5,-0.5"/>
                </g>
                <g id="arrowDown" xlink:href="#dirArrow" transform="rotate(180) translate(-30 -48)" onmousedown="handlePan(0,1)">
                  <use xlink:href="#rim" fill="#404040">
                        <set attributeName="fill" to="#808080" begin="arrowDown.mouseover" end="arrowDown.mouseout"/>
                  </use>
                  <path fill="none" stroke="white" stroke-width="1.5" d="M0,-3.0v7 M-2.5,-0.5L0,-3.0L2.5,-0.5"/>
                </g>
                <g id="arrowLeft" xlink:href="#dirArrow" transform="rotate(270) translate(-36 17)" onmousedown="handlePan(-1,0)">
                  <use xlink:href="#rim" fill="#404040">
                        <set attributeName="fill" to="#808080" begin="arrowLeft.mouseover" end="arrowLeft.mouseout"/>
                  </use>
                  <path fill="none" stroke="white" stroke-width="1.5" d="M0,-3.0v7 M-2.5,-0.5L0,-3.0L2.5,-0.5"/>
                </g>
        </g>
        <svg viewBox="0 0 15 15" width="100%" height="30px" preserveAspectRatio="xMaxYMin meet">
         <g id="arrow_out" transform="scale(0.3 0.3)">
          <a xlink:href="classsrc_1_1db__tools_1_1db__class__defs_1_1_d_b_base_a970d3d8297eb67288f50f6e28e1883fa_cgraph_org.svg" target="_base">
           <rect id="button" ry="5" rx="5" y="6" x="6" height="38" width="38"
                fill="#f2f5e9" fill-opacity="0.5" stroke="#606060" stroke-width="1.0"/>
           <path id="arrow"
             d="M 11.500037,31.436501 C 11.940474,20.09759 22.043105,11.32322 32.158766,21.979434 L 37.068811,17.246167 C 37.068811,17.246167 37.088388,32 37.088388,32 L 22.160133,31.978069 C 22.160133,31.978069 26.997745,27.140456 26.997745,27.140456 C 18.528582,18.264221 13.291696,25.230495 11.500037,31.436501 z"
             style="fill:#404040;"/>
          </a>
         </g>
        </svg>
</svg>
