<?xml version="1.0" encoding="UTF-8" standalone="no"?>
<!DOCTYPE svg PUBLIC "-//W3C//DTD SVG 1.1//EN"
 "http://www.w3.org/Graphics/SVG/1.1/DTD/svg11.dtd">
<!-- Generated by graphviz version 2.47.1 (20210417.1919)
 -->
<!-- Title: src.eralchemy.models.Table.header_markdown Pages: 1 -->
<svg width="692pt" height="66pt"
 viewBox="0.00 0.00 692.00 66.00" xmlns="http://www.w3.org/2000/svg" xmlns:xlink="http://www.w3.org/1999/xlink">
<g id="graph0" class="graph" transform="scale(1 1) rotate(0) translate(4 62)">
<title>src.eralchemy.models.Table.header_markdown</title>
<polygon fill="white" stroke="transparent" points="-4,4 -4,-62 688,-62 688,4 -4,4"/>
<!-- Node1 -->
<g id="node1" class="node">
<title>Node1</title>
<g id="a_node1"><a xlink:title=" ">
<polygon fill="#bfbfbf" stroke="black" points="463,-19.5 463,-38.5 684,-38.5 684,-19.5 463,-19.5"/>
<text text-anchor="middle" x="573.5" y="-26.5" font-family="Helvetica,sans-Serif" font-size="10.00">src.eralchemy.models.Table.header_markdown</text>
</a>
</g>
</g>
<!-- Node2 -->
<g id="node2" class="node">
<title>Node2</title>
<g id="a_node2"><a xlink:href="classsrc_1_1eralchemy_1_1models_1_1_table.html#a707e989f5f9c0ef4c94776d44b36d57c" target="_top" xlink:title=" ">
<polygon fill="white" stroke="black" points="240,-38.5 240,-57.5 414,-57.5 414,-38.5 240,-38.5"/>
<text text-anchor="middle" x="327" y="-45.5" font-family="Helvetica,sans-Serif" font-size="10.00">src.eralchemy.models.Table.__str__</text>
</a>
</g>
</g>
<!-- Node1&#45;&gt;Node2 -->
<g id="edge1" class="edge">
<title>Node1&#45;&gt;Node2</title>
<path fill="none" stroke="midnightblue" d="M452.45,-38.33C439.57,-39.33 426.66,-40.33 414.29,-41.29"/>
<polygon fill="midnightblue" stroke="midnightblue" points="453.07,-41.79 462.77,-37.53 452.52,-34.81 453.07,-41.79"/>
</g>
<!-- Node3 -->
<g id="node3" class="node">
<title>Node3</title>
<g id="a_node3"><a xlink:href="classsrc_1_1eralchemy_1_1models_1_1_table.html#a91f27923b4763f0d928cb7ceb7e3f936" target="_top" xlink:title=" ">
<polygon fill="white" stroke="black" points="227,-0.5 227,-19.5 427,-19.5 427,-0.5 227,-0.5"/>
<text text-anchor="middle" x="327" y="-7.5" font-family="Helvetica,sans-Serif" font-size="10.00">src.eralchemy.models.Table.to_markdown</text>
</a>
</g>
</g>
<!-- Node1&#45;&gt;Node3 -->
<g id="edge2" class="edge">
<title>Node1&#45;&gt;Node3</title>
<path fill="none" stroke="midnightblue" d="M452.78,-19.7C444.25,-19.03 435.71,-18.37 427.32,-17.72"/>
<polygon fill="midnightblue" stroke="midnightblue" points="452.52,-23.19 462.77,-20.47 453.07,-16.21 452.52,-23.19"/>
</g>
<!-- Node4 -->
<g id="node4" class="node">
<title>Node4</title>
<g id="a_node4"><a xlink:href="classsrc_1_1eralchemy_1_1models_1_1_drawable.html#a53a06af46175e7e32258645f4e9d0b17" target="_top" xlink:title=" ">
<polygon fill="white" stroke="black" points="0,-0.5 0,-19.5 191,-19.5 191,-0.5 0,-0.5"/>
<text text-anchor="middle" x="95.5" y="-7.5" font-family="Helvetica,sans-Serif" font-size="10.00">src.eralchemy.models.Drawable.__str__</text>
</a>
</g>
</g>
<!-- Node3&#45;&gt;Node4 -->
<g id="edge3" class="edge">
<title>Node3&#45;&gt;Node4</title>
<path fill="none" stroke="midnightblue" d="M216.44,-10C208.03,-10 199.57,-10 191.27,-10"/>
<polygon fill="midnightblue" stroke="midnightblue" points="216.67,-13.5 226.67,-10 216.67,-6.5 216.67,-13.5"/>
</g>
</g>
</svg>
