<?xml version="1.0" encoding="UTF-8" standalone="no"?>
<!DOCTYPE svg PUBLIC "-//W3C//DTD SVG 1.1//EN"
 "http://www.w3.org/Graphics/SVG/1.1/DTD/svg11.dtd">
<!-- Generated by graphviz version 2.47.1 (20210417.1919)
 -->
<!-- Title: src.lemma_extraction.cache_class_defs.LemmaDB Pages: 1 -->
<svg width="248pt" height="152pt"
 viewBox="0.00 0.00 248.00 152.00" xmlns="http://www.w3.org/2000/svg" xmlns:xlink="http://www.w3.org/1999/xlink">
<g id="graph0" class="graph" transform="scale(1 1) rotate(0) translate(4 148)">
<title>src.lemma_extraction.cache_class_defs.LemmaDB</title>
<polygon fill="white" stroke="transparent" points="-4,4 -4,-148 244,-148 244,4 -4,4"/>
<!-- Node1 -->
<g id="node1" class="node">
<title>Node1</title>
<g id="a_node1"><a xlink:title=" ">
<polygon fill="#bfbfbf" stroke="black" points="0,-0.5 0,-19.5 240,-19.5 240,-0.5 0,-0.5"/>
<text text-anchor="middle" x="120" y="-7.5" font-family="Helvetica,sans-Serif" font-size="10.00">src.lemma_extraction.cache_class_defs.LemmaDB</text>
</a>
</g>
</g>
<!-- Node2 -->
<g id="node2" class="node">
<title>Node2</title>
<g id="a_node2"><a xlink:href="classsrc_1_1db__tools_1_1db__class__defs_1_1_d_b_base.html" target="_top" xlink:title="The base class for our various custom database management classes.">
<polygon fill="white" stroke="black" points="33,-57.5 33,-76.5 207,-76.5 207,-57.5 33,-57.5"/>
<text text-anchor="middle" x="120" y="-64.5" font-family="Helvetica,sans-Serif" font-size="10.00">src.db_tools.db_class_defs.DBBase</text>
</a>
</g>
</g>
<!-- Node2&#45;&gt;Node1 -->
<g id="edge1" class="edge">
<title>Node2&#45;&gt;Node1</title>
<path fill="none" stroke="midnightblue" d="M120,-47.12C120,-37.82 120,-27.06 120,-19.71"/>
<polygon fill="midnightblue" stroke="midnightblue" points="116.5,-47.41 120,-57.41 123.5,-47.41 116.5,-47.41"/>
</g>
<!-- Node3 -->
<g id="node3" class="node">
<title>Node3</title>
<g id="a_node3"><a xlink:title=" ">
<polygon fill="white" stroke="#bfbfbf" points="99.5,-124.5 99.5,-143.5 140.5,-143.5 140.5,-124.5 99.5,-124.5"/>
<text text-anchor="middle" x="120" y="-131.5" font-family="Helvetica,sans-Serif" font-size="10.00">string</text>
</a>
</g>
</g>
<!-- Node3&#45;&gt;Node2 -->
<g id="edge2" class="edge">
<title>Node3&#45;&gt;Node2</title>
<path fill="none" stroke="#9a32cd" stroke-dasharray="5,2" d="M120,-114.04C120,-101.67 120,-86.12 120,-76.63"/>
<polygon fill="#9a32cd" stroke="#9a32cd" points="116.5,-114.23 120,-124.23 123.5,-114.23 116.5,-114.23"/>
<text text-anchor="middle" x="162.5" y="-98" font-family="Helvetica,sans-Serif" font-size="10.00"> _table_registry_sql</text>
</g>
</g>
</svg>
