<?xml version="1.0" encoding="UTF-8" standalone="no"?>
<!DOCTYPE svg PUBLIC "-//W3C//DTD SVG 1.1//EN"
 "http://www.w3.org/Graphics/SVG/1.1/DTD/svg11.dtd">
<!-- Generated by graphviz version 2.47.1 (20210417.1919)
 -->
<!-- Title: src.lemma_extraction.word_extraction_classes.LemmaExtractor Pages: 1 -->
<svg width="304pt" height="140pt"
 viewBox="0.00 0.00 304.00 140.00" xmlns="http://www.w3.org/2000/svg" xmlns:xlink="http://www.w3.org/1999/xlink">
<g id="graph0" class="graph" transform="scale(1 1) rotate(0) translate(4 136)">
<title>src.lemma_extraction.word_extraction_classes.LemmaExtractor</title>
<polygon fill="white" stroke="transparent" points="-4,4 -4,-136 300,-136 300,4 -4,4"/>
<!-- Node1 -->
<g id="node1" class="node">
<title>Node1</title>
<g id="a_node1"><a xlink:title=" ">
<polygon fill="#bfbfbf" stroke="black" points="0,-0.5 0,-19.5 296,-19.5 296,-0.5 0,-0.5"/>
<text text-anchor="middle" x="148" y="-7.5" font-family="Helvetica,sans-Serif" font-size="10.00">src.lemma_extraction.word_extraction_classes.LemmaExtractor</text>
</a>
</g>
</g>
<!-- Node2 -->
<g id="node2" class="node">
<title>Node2</title>
<g id="a_node2"><a xlink:href="classsrc_1_1lemma__extraction_1_1word__extraction__classes_1_1_tagger_base.html" target="_top" xlink:title=" ">
<polygon fill="white" stroke="black" points="10.5,-56.5 10.5,-75.5 285.5,-75.5 285.5,-56.5 10.5,-56.5"/>
<text text-anchor="middle" x="148" y="-63.5" font-family="Helvetica,sans-Serif" font-size="10.00">src.lemma_extraction.word_extraction_classes.TaggerBase</text>
</a>
</g>
</g>
<!-- Node2&#45;&gt;Node1 -->
<g id="edge1" class="edge">
<title>Node2&#45;&gt;Node1</title>
<path fill="none" stroke="midnightblue" d="M148,-45.8C148,-36.91 148,-26.78 148,-19.75"/>
<polygon fill="midnightblue" stroke="midnightblue" points="144.5,-46.08 148,-56.08 151.5,-46.08 144.5,-46.08"/>
</g>
<!-- Node3 -->
<g id="node3" class="node">
<title>Node3</title>
<g id="a_node3"><a xlink:href="classsrc_1_1utils_1_1_j_pickle_serializable.html" target="_top" xlink:title="An abstract base class that represents a generic interface for custom class objects that will end up ...">
<polygon fill="white" stroke="black" points="80,-112.5 80,-131.5 216,-131.5 216,-112.5 80,-112.5"/>
<text text-anchor="middle" x="148" y="-119.5" font-family="Helvetica,sans-Serif" font-size="10.00">src.utils.JPickleSerializable</text>
</a>
</g>
</g>
<!-- Node3&#45;&gt;Node2 -->
<g id="edge2" class="edge">
<title>Node3&#45;&gt;Node2</title>
<path fill="none" stroke="midnightblue" d="M148,-101.8C148,-92.91 148,-82.78 148,-75.75"/>
<polygon fill="midnightblue" stroke="midnightblue" points="144.5,-102.08 148,-112.08 151.5,-102.08 144.5,-102.08"/>
</g>
</g>
</svg>
