<?xml version="1.0" encoding="UTF-8" standalone="no"?>
<!DOCTYPE svg PUBLIC "-//W3C//DTD SVG 1.1//EN"
 "http://www.w3.org/Graphics/SVG/1.1/DTD/svg11.dtd">
<!-- Generated by graphviz version 2.47.1 (20210417.1919)
 -->
<!-- Title: src.utils.JPickleSerializable.to_json Pages: 1 -->
<svg width="443pt" height="66pt"
 viewBox="0.00 0.00 443.00 66.00" xmlns="http://www.w3.org/2000/svg" xmlns:xlink="http://www.w3.org/1999/xlink">
<g id="graph0" class="graph" transform="scale(1 1) rotate(0) translate(4 62)">
<title>src.utils.JPickleSerializable.to_json</title>
<polygon fill="white" stroke="transparent" points="-4,4 -4,-62 439,-62 439,4 -4,4"/>
<!-- Node1 -->
<g id="node1" class="node">
<title>Node1</title>
<g id="a_node1"><a xlink:title=" ">
<polygon fill="#bfbfbf" stroke="black" points="265,-19.5 265,-38.5 435,-38.5 435,-19.5 265,-19.5"/>
<text text-anchor="middle" x="350" y="-26.5" font-family="Helvetica,sans-Serif" font-size="10.00">src.utils.JPickleSerializable.to_json</text>
</a>
</g>
</g>
<!-- Node2 -->
<g id="node2" class="node">
<title>Node2</title>
<g id="a_node2"><a xlink:href="classsrc_1_1utils_1_1_j_pickle_serializable.html#aa18b7d4e76d7667d50924fbc3f97509b" target="_top" xlink:title=" ">
<polygon fill="white" stroke="black" points="17.5,-38.5 17.5,-57.5 211.5,-57.5 211.5,-38.5 17.5,-38.5"/>
<text text-anchor="middle" x="114.5" y="-45.5" font-family="Helvetica,sans-Serif" font-size="10.00">src.utils.JPickleSerializable.__conform__</text>
</a>
</g>
</g>
<!-- Node1&#45;&gt;Node2 -->
<g id="edge1" class="edge">
<title>Node1&#45;&gt;Node2</title>
<path fill="none" stroke="midnightblue" d="M254.49,-36.69C240.35,-37.84 225.75,-39.03 211.57,-40.18"/>
<polygon fill="midnightblue" stroke="midnightblue" points="255.02,-40.16 264.7,-35.86 254.45,-33.18 255.02,-40.16"/>
</g>
<!-- Node3 -->
<g id="node3" class="node">
<title>Node3</title>
<g id="a_node3"><a xlink:href="classsrc_1_1utils_1_1backup_1_1_j_pickle_serializable.html#a233068f34aa035acbc4e1118f4ed1e51" target="_top" xlink:title=" ">
<polygon fill="white" stroke="black" points="0,-0.5 0,-19.5 229,-19.5 229,-0.5 0,-0.5"/>
<text text-anchor="middle" x="114.5" y="-7.5" font-family="Helvetica,sans-Serif" font-size="10.00">src.utils.backup.JPickleSerializable.__conform__</text>
</a>
</g>
</g>
<!-- Node1&#45;&gt;Node3 -->
<g id="edge2" class="edge">
<title>Node1&#45;&gt;Node3</title>
<path fill="none" stroke="midnightblue" d="M254.63,-21.32C246.3,-20.64 237.81,-19.95 229.34,-19.26"/>
<polygon fill="midnightblue" stroke="midnightblue" points="254.45,-24.82 264.7,-22.14 255.02,-17.84 254.45,-24.82"/>
</g>
</g>
</svg>
