<?xml version="1.0" encoding="UTF-8" standalone="no"?>
<!DOCTYPE svg PUBLIC "-//W3C//DTD SVG 1.1//EN"
 "http://www.w3.org/Graphics/SVG/1.1/DTD/svg11.dtd">
<!-- Generated by graphviz version 2.47.1 (20210417.1919)
 -->
<!-- Title: src.utils.backup.PoliteDownloader Pages: 1 -->
<svg width="245pt" height="150pt"
 viewBox="0.00 0.00 244.50 150.00" xmlns="http://www.w3.org/2000/svg" xmlns:xlink="http://www.w3.org/1999/xlink">
<g id="graph0" class="graph" transform="scale(1 1) rotate(0) translate(4 146)">
<title>src.utils.backup.PoliteDownloader</title>
<polygon fill="white" stroke="transparent" points="-4,4 -4,-146 240.5,-146 240.5,4 -4,4"/>
<!-- Node1 -->
<g id="node1" class="node">
<title>Node1</title>
<g id="a_node1"><a xlink:title=" ">
<polygon fill="#bfbfbf" stroke="black" points="39.5,-0.5 39.5,-19.5 203.5,-19.5 203.5,-0.5 39.5,-0.5"/>
<text text-anchor="middle" x="121.5" y="-7.5" font-family="Helvetica,sans-Serif" font-size="10.00">src.utils.backup.PoliteDownloader</text>
</a>
</g>
</g>
<!-- Node2 -->
<g id="node2" class="node">
<title>Node2</title>
<g id="a_node2"><a xlink:title=" ">
<polygon fill="white" stroke="#bfbfbf" points="0,-122.5 0,-141.5 137,-141.5 137,-122.5 0,-122.5"/>
<text text-anchor="middle" x="68.5" y="-129.5" font-family="Helvetica,sans-Serif" font-size="10.00">nltk.downloader.Downloader</text>
</a>
</g>
</g>
<!-- Node2&#45;&gt;Node1 -->
<g id="edge1" class="edge">
<title>Node2&#45;&gt;Node1</title>
<path fill="none" stroke="midnightblue" d="M76.36,-113.2C87.94,-86.99 109.12,-39.02 117.72,-19.55"/>
<polygon fill="midnightblue" stroke="midnightblue" points="73.15,-111.81 72.31,-122.37 79.55,-114.64 73.15,-111.81"/>
</g>
<!-- Node3 -->
<g id="node3" class="node">
<title>Node3</title>
<g id="a_node3"><a xlink:title=" ">
<polygon fill="white" stroke="#bfbfbf" points="155,-122.5 155,-141.5 196,-141.5 196,-122.5 155,-122.5"/>
<text text-anchor="middle" x="175.5" y="-129.5" font-family="Helvetica,sans-Serif" font-size="10.00">string</text>
</a>
</g>
</g>
<!-- Node3&#45;&gt;Node1 -->
<g id="edge2" class="edge">
<title>Node3&#45;&gt;Node1</title>
<path fill="none" stroke="#9a32cd" stroke-dasharray="5,2" d="M167.49,-113.2C155.7,-86.99 134.11,-39.02 125.35,-19.55"/>
<polygon fill="#9a32cd" stroke="#9a32cd" points="164.32,-114.69 171.62,-122.37 170.7,-111.81 164.32,-114.69"/>
<text text-anchor="middle" x="199" y="-96" font-family="Helvetica,sans-Serif" font-size="10.00"> COLOR_RESET</text>
<text text-anchor="middle" x="199" y="-85" font-family="Helvetica,sans-Serif" font-size="10.00">ESC_SEQ</text>
<text text-anchor="middle" x="199" y="-74" font-family="Helvetica,sans-Serif" font-size="10.00">formatted_charc</text>
<text text-anchor="middle" x="199" y="-63" font-family="Helvetica,sans-Serif" font-size="10.00">formatted_cyan</text>
<text text-anchor="middle" x="199" y="-52" font-family="Helvetica,sans-Serif" font-size="10.00">formatted_green</text>
<text text-anchor="middle" x="199" y="-41" font-family="Helvetica,sans-Serif" font-size="10.00">formatted_red</text>
</g>
</g>
</svg>
