<?xml version="1.0" encoding="UTF-8" standalone="no"?>
<!DOCTYPE svg PUBLIC "-//W3C//DTD SVG 1.1//EN"
 "http://www.w3.org/Graphics/SVG/1.1/DTD/svg11.dtd">
<!-- Generated by graphviz version 2.47.1 (20210417.1919)
 -->
<!-- Title: src.utils.JPickleSerializable Pages: 1 -->
<!--zoomable 104 -->
<svg id="main" version="1.1" xmlns="http://www.w3.org/2000/svg" xmlns:xlink="http://www.w3.org/1999/xlink" xml:space="preserve" onload="init(evt)">
<style type="text/css"><![CDATA[
.edge:hover path { stroke: red; }
.edge:hover polygon { stroke: red; fill: red; }
]]></style>
<script type="text/javascript"><![CDATA[
var edges = document.getElementsByTagName('g');
if (edges && edges.length) {
  for (var i=0;i<edges.length;i++) {
    if (edges[i].id.substr(0,4)=='edge') {
      edges[i].setAttribute('class','edge');
    }
  }
}
]]></script>
        <defs>
                <circle id="rim" cx="0" cy="0" r="7"/>
                <circle id="rim2" cx="0" cy="0" r="3.5"/>
                <g id="zoomPlus">
                        <use xlink:href="#rim" fill="#404040">
                                <set attributeName="fill" to="#808080" begin="zoomplus.mouseover" end="zoomplus.mouseout"/>
                        </use>
                        <path d="M-4,0h8M0,-4v8" fill="none" stroke="white" stroke-width="1.5" pointer-events="none"/>
                </g>
                <g id="zoomMin">
                        <use xlink:href="#rim" fill="#404040">
                                <set attributeName="fill" to="#808080" begin="zoomminus.mouseover" end="zoomminus.mouseout"/>
                        </use>
                        <path d="M-4,0h8" fill="none" stroke="white" stroke-width="1.5" pointer-events="none"/>
                </g>
                <g id="dirArrow">
                        <path fill="none" stroke="white" stroke-width="1.5" d="M0,-3.0v7 M-2.5,-0.5L0,-3.0L2.5,-0.5"/>
                </g>
               <g id="resetDef">
                       <use xlink:href="#rim2" fill="#404040">
                               <set attributeName="fill" to="#808080" begin="reset.mouseover" end="reset.mouseout"/>
                       </use>
               </g>
        </defs>

<script type="text/javascript">
var viewWidth = 811;
var viewHeight = 104;
var sectionId = 'dynsection-0';
</script>
<script xlink:href="svgpan.js"/>
<svg id="graph" class="graph">
<g id="viewport">
<title>src.utils.JPickleSerializable</title>
<polygon fill="white" stroke="transparent" points="-4,4 -4,-100 807,-100 807,4 -4,4"/>
<!-- Node1 -->
<g id="node1" class="node">
<title>Node1</title>
<g id="a_node1"><a xlink:title="An abstract base class that represents a generic interface for custom class objects that will end up ...">
<polygon fill="#bfbfbf" stroke="black" points="0,-38.5 0,-57.5 136,-57.5 136,-38.5 0,-38.5"/>
<text text-anchor="middle" x="68" y="-45.5" font-family="Helvetica,sans-Serif" font-size="10.00">src.utils.JPickleSerializable</text>
</a>
</g>
</g>
<!-- Node2 -->
<g id="node2" class="node">
<title>Node2</title>
<g id="a_node2"><a xlink:href="classsrc_1_1email__caching_1_1cache__class__defs_1_1_email_item.html" target="_top" xlink:title=" ">
<polygon fill="white" stroke="black" points="198,-76.5 198,-95.5 421,-95.5 421,-76.5 198,-76.5"/>
<text text-anchor="middle" x="309.5" y="-83.5" font-family="Helvetica,sans-Serif" font-size="10.00">src.email_caching.cache_class_defs.EmailItem</text>
</a>
</g>
</g>
<!-- Node1&#45;&gt;Node2 -->
<g id="edge1" class="edge">
<title>Node1&#45;&gt;Node2</title>
<path fill="none" stroke="midnightblue" d="M128.37,-59.41C142.64,-62.03 157.84,-64.71 172,-67 192.67,-70.34 215.15,-73.62 235.8,-76.49"/>
<polygon fill="midnightblue" stroke="midnightblue" points="128.64,-55.9 118.17,-57.53 127.37,-62.79 128.64,-55.9"/>
</g>
<!-- Node3 -->
<g id="node3" class="node">
<title>Node3</title>
<g id="a_node3"><a xlink:href="classsrc_1_1lemma__extraction_1_1word__extraction__classes_1_1_tagger_base.html" target="_top" xlink:title=" ">
<polygon fill="white" stroke="black" points="172,-38.5 172,-57.5 447,-57.5 447,-38.5 172,-38.5"/>
<text text-anchor="middle" x="309.5" y="-45.5" font-family="Helvetica,sans-Serif" font-size="10.00">src.lemma_extraction.word_extraction_classes.TaggerBase</text>
</a>
</g>
</g>
<!-- Node1&#45;&gt;Node3 -->
<g id="edge2" class="edge">
<title>Node1&#45;&gt;Node3</title>
<path fill="none" stroke="midnightblue" d="M146.06,-48C154.42,-48 163.1,-48 171.9,-48"/>
<polygon fill="midnightblue" stroke="midnightblue" points="146.03,-44.5 136.03,-48 146.03,-51.5 146.03,-44.5"/>
</g>
<!-- Node7 -->
<g id="node7" class="node">
<title>Node7</title>
<g id="a_node7"><a xlink:href="classsrc_1_1utils_1_1_tagger_base.html" target="_top" xlink:title="An extension of the JPickleSerializable interface that ensures our custom classes can properly handle...">
<polygon fill="white" stroke="black" points="256.5,-0.5 256.5,-19.5 362.5,-19.5 362.5,-0.5 256.5,-0.5"/>
<text text-anchor="middle" x="309.5" y="-7.5" font-family="Helvetica,sans-Serif" font-size="10.00">src.utils.TaggerBase</text>
</a>
</g>
</g>
<!-- Node1&#45;&gt;Node7 -->
<g id="edge6" class="edge">
<title>Node1&#45;&gt;Node7</title>
<path fill="none" stroke="midnightblue" d="M128.37,-36.59C142.64,-33.97 157.84,-31.29 172,-29 199.75,-24.51 230.79,-20.14 256.24,-16.72"/>
<polygon fill="midnightblue" stroke="midnightblue" points="127.37,-33.21 118.17,-38.47 128.64,-40.1 127.37,-33.21"/>
</g>
<!-- Node4 -->
<g id="node4" class="node">
<title>Node4</title>
<g id="a_node4"><a xlink:href="classsrc_1_1lemma__extraction_1_1word__extraction__classes_1_1_lemma_extractor.html" target="_top" xlink:title=" ">
<polygon fill="white" stroke="black" points="495,-76.5 495,-95.5 791,-95.5 791,-76.5 495,-76.5"/>
<text text-anchor="middle" x="643" y="-83.5" font-family="Helvetica,sans-Serif" font-size="10.00">src.lemma_extraction.word_extraction_classes.LemmaExtractor</text>
</a>
</g>
</g>
<!-- Node3&#45;&gt;Node4 -->
<g id="edge3" class="edge">
<title>Node3&#45;&gt;Node4</title>
<path fill="none" stroke="midnightblue" d="M403.66,-58.68C452.49,-64.28 511.79,-71.07 559.03,-76.49"/>
<polygon fill="midnightblue" stroke="midnightblue" points="404.06,-55.2 393.72,-57.54 403.26,-62.16 404.06,-55.2"/>
</g>
<!-- Node5 -->
<g id="node5" class="node">
<title>Node5</title>
<g id="a_node5"><a xlink:href="classsrc_1_1lemma__extraction_1_1word__extraction__classes_1_1_message_body_tagging.html" target="_top" xlink:title=" ">
<polygon fill="white" stroke="black" points="483,-38.5 483,-57.5 803,-57.5 803,-38.5 483,-38.5"/>
<text text-anchor="middle" x="643" y="-45.5" font-family="Helvetica,sans-Serif" font-size="10.00">src.lemma_extraction.word_extraction_classes.MessageBodyTagging</text>
</a>
</g>
</g>
<!-- Node3&#45;&gt;Node5 -->
<g id="edge4" class="edge">
<title>Node3&#45;&gt;Node5</title>
<path fill="none" stroke="midnightblue" d="M457.5,-48C465.94,-48 474.44,-48 482.92,-48"/>
<polygon fill="midnightblue" stroke="midnightblue" points="457.25,-44.5 447.25,-48 457.25,-51.5 457.25,-44.5"/>
</g>
<!-- Node6 -->
<g id="node6" class="node">
<title>Node6</title>
<g id="a_node6"><a xlink:href="classsrc_1_1lemma__extraction_1_1word__extraction__classes_1_1_sentence_word_tagger.html" target="_top" xlink:title=" ">
<polygon fill="white" stroke="black" points="484.5,-0.5 484.5,-19.5 801.5,-19.5 801.5,-0.5 484.5,-0.5"/>
<text text-anchor="middle" x="643" y="-7.5" font-family="Helvetica,sans-Serif" font-size="10.00">src.lemma_extraction.word_extraction_classes.SentenceWordTagger</text>
</a>
</g>
</g>
<!-- Node3&#45;&gt;Node6 -->
<g id="edge5" class="edge">
<title>Node3&#45;&gt;Node6</title>
<path fill="none" stroke="midnightblue" d="M403.66,-37.32C452.49,-31.72 511.79,-24.93 559.03,-19.51"/>
<polygon fill="midnightblue" stroke="midnightblue" points="403.26,-33.84 393.72,-38.46 404.06,-40.8 403.26,-33.84"/>
</g>
</g>
</svg>
        <g id="navigator" transform="translate(0 0)" fill="#404254">
                <rect fill="#f2f5e9" fill-opacity="0.5" stroke="#606060" stroke-width=".5" x="0" y="0" width="60" height="60"/>
                <use id="zoomplus" xlink:href="#zoomPlus" x="17" y="9" onmousedown="handleZoom(evt,'in')"/>
                <use id="zoomminus" xlink:href="#zoomMin" x="42" y="9" onmousedown="handleZoom(evt,'out')"/>
                <use id="reset" xlink:href="#resetDef" x="30" y="36" onmousedown="handleReset()"/>
                <g id="arrowUp" xlink:href="#dirArrow" transform="translate(30 24)" onmousedown="handlePan(0,-1)">
                  <use xlink:href="#rim" fill="#404040">
                        <set attributeName="fill" to="#808080" begin="arrowUp.mouseover" end="arrowUp.mouseout"/>
                  </use>
                  <path fill="none" stroke="white" stroke-width="1.5" d="M0,-3.0v7 M-2.5,-0.5L0,-3.0L2.5,-0.5"/>
                </g>
                <g id="arrowRight" xlink:href="#dirArrow" transform="rotate(90) translate(36 -43)" onmousedown="handlePan(1,0)">
                  <use xlink:href="#rim" fill="#404040">
                        <set attributeName="fill" to="#808080" begin="arrowRight.mouseover" end="arrowRight.mouseout"/>
                  </use>
                  <path fill="none" stroke="white" stroke-width="1.5" d="M0,-3.0v7 M-2.5,-0.5L0,-3.0L2.5,-0.5"/>
                </g>
                <g id="arrowDown" xlink:href="#dirArrow" transform="rotate(180) translate(-30 -48)" onmousedown="handlePan(0,1)">
                  <use xlink:href="#rim" fill="#404040">
                        <set attributeName="fill" to="#808080" begin="arrowDown.mouseover" end="arrowDown.mouseout"/>
                  </use>
                  <path fill="none" stroke="white" stroke-width="1.5" d="M0,-3.0v7 M-2.5,-0.5L0,-3.0L2.5,-0.5"/>
                </g>
                <g id="arrowLeft" xlink:href="#dirArrow" transform="rotate(270) translate(-36 17)" onmousedown="handlePan(-1,0)">
                  <use xlink:href="#rim" fill="#404040">
                        <set attributeName="fill" to="#808080" begin="arrowLeft.mouseover" end="arrowLeft.mouseout"/>
                  </use>
                  <path fill="none" stroke="white" stroke-width="1.5" d="M0,-3.0v7 M-2.5,-0.5L0,-3.0L2.5,-0.5"/>
                </g>
        </g>
        <svg viewBox="0 0 15 15" width="100%" height="30px" preserveAspectRatio="xMaxYMin meet">
         <g id="arrow_out" transform="scale(0.3 0.3)">
          <a xlink:href="classsrc_1_1utils_1_1_j_pickle_serializable__inherit__graph_org.svg" target="_base">
           <rect id="button" ry="5" rx="5" y="6" x="6" height="38" width="38"
                fill="#f2f5e9" fill-opacity="0.5" stroke="#606060" stroke-width="1.0"/>
           <path id="arrow"
             d="M 11.500037,31.436501 C 11.940474,20.09759 22.043105,11.32322 32.158766,21.979434 L 37.068811,17.246167 C 37.068811,17.246167 37.088388,32 37.088388,32 L 22.160133,31.978069 C 22.160133,31.978069 26.997745,27.140456 26.997745,27.140456 C 18.528582,18.264221 13.291696,25.230495 11.500037,31.436501 z"
             style="fill:#404040;"/>
          </a>
         </g>
        </svg>
</svg>
