<?xml version="1.0" encoding="UTF-8" standalone="no"?>
<!DOCTYPE svg PUBLIC "-//W3C//DTD SVG 1.1//EN"
 "http://www.w3.org/Graphics/SVG/1.1/DTD/svg11.dtd">
<!-- Generated by graphviz version 2.47.1 (20210417.1919)
 -->
<!-- Title: src.lemma_extraction.word_extraction_classes.LemmaExtractor.to_table_row_dict Pages: 1 -->
<svg width="1084pt" height="252pt"
 viewBox="0.00 0.00 1084.00 251.50" xmlns="http://www.w3.org/2000/svg" xmlns:xlink="http://www.w3.org/1999/xlink">
<g id="graph0" class="graph" transform="scale(1 1) rotate(0) translate(4 247.5)">
<title>src.lemma_extraction.word_extraction_classes.LemmaExtractor.to_table_row_dict</title>
<polygon fill="white" stroke="transparent" points="-4,4 -4,-247.5 1080,-247.5 1080,4 -4,4"/>
<!-- Node1 -->
<g id="node1" class="node">
<title>Node1</title>
<g id="a_node1"><a xlink:title=" ">
<polygon fill="#bfbfbf" stroke="black" points="0,-93 0,-123 307,-123 307,-93 0,-93"/>
<text text-anchor="start" x="8" y="-111" font-family="Helvetica,sans-Serif" font-size="10.00">src.lemma_extraction.word_extraction_classes.LemmaExtractor.to</text>
<text text-anchor="middle" x="153.5" y="-100" font-family="Helvetica,sans-Serif" font-size="10.00">_table_row_dict</text>
</a>
</g>
</g>
<!-- Node2 -->
<g id="node2" class="node">
<title>Node2</title>
<g id="a_node2"><a xlink:href="classsrc_1_1lemma__extraction_1_1word__extraction__classes_1_1_lemma_extractor.html#ac4da7ea849dc0a5eafa7b41256035537" target="_top" xlink:title=" ">
<polygon fill="white" stroke="black" points="377.5,-213 377.5,-243 676.5,-243 676.5,-213 377.5,-213"/>
<text text-anchor="start" x="385.5" y="-231" font-family="Helvetica,sans-Serif" font-size="10.00">src.lemma_extraction.word_extraction_classes.LemmaExtractor.</text>
<text text-anchor="middle" x="527" y="-220" font-family="Helvetica,sans-Serif" font-size="10.00">_count_vectorization</text>
</a>
</g>
</g>
<!-- Node1&#45;&gt;Node2 -->
<g id="edge1" class="edge">
<title>Node1&#45;&gt;Node2</title>
<path fill="none" stroke="midnightblue" d="M177.49,-123C211.94,-144.69 279.69,-184.36 343,-204 351.03,-206.49 359.33,-208.72 367.77,-210.72"/>
<polygon fill="midnightblue" stroke="midnightblue" points="367.21,-214.18 377.74,-212.97 368.75,-207.35 367.21,-214.18"/>
</g>
<!-- Node3 -->
<g id="node3" class="node">
<title>Node3</title>
<g id="a_node3"><a xlink:href="classsrc_1_1lemma__extraction_1_1word__extraction__classes_1_1_lemma_extractor.html#a8edd0fe27eced07828ec901a7cd28ed5" target="_top" xlink:title=" ">
<polygon fill="white" stroke="black" points="372.5,-164 372.5,-194 681.5,-194 681.5,-164 372.5,-164"/>
<text text-anchor="start" x="380.5" y="-182" font-family="Helvetica,sans-Serif" font-size="10.00">src.lemma_extraction.word_extraction_classes.LemmaExtractor.do</text>
<text text-anchor="middle" x="527" y="-171" font-family="Helvetica,sans-Serif" font-size="10.00">_all_lemma_join</text>
</a>
</g>
</g>
<!-- Node1&#45;&gt;Node3 -->
<g id="edge2" class="edge">
<title>Node1&#45;&gt;Node3</title>
<path fill="none" stroke="midnightblue" d="M207.77,-123.01C245.32,-133.16 296.94,-146.27 343,-155 357.2,-157.69 372.07,-160.18 386.94,-162.45"/>
<polygon fill="midnightblue" stroke="midnightblue" points="386.82,-165.97 397.23,-163.99 387.86,-159.05 386.82,-165.97"/>
</g>
<!-- Node5 -->
<g id="node5" class="node">
<title>Node5</title>
<g id="a_node5"><a xlink:href="classsrc_1_1lemma__extraction_1_1word__extraction__classes_1_1_lemma_extractor.html#a7244548bc27ffaaf0b429c0bf02527a0" target="_top" xlink:title=" ">
<polygon fill="white" stroke="black" points="372.5,-115 372.5,-145 681.5,-145 681.5,-115 372.5,-115"/>
<text text-anchor="start" x="380.5" y="-133" font-family="Helvetica,sans-Serif" font-size="10.00">src.lemma_extraction.word_extraction_classes.LemmaExtractor.do</text>
<text text-anchor="middle" x="527" y="-122" font-family="Helvetica,sans-Serif" font-size="10.00">_no_stops_lemma_join</text>
</a>
</g>
</g>
<!-- Node1&#45;&gt;Node5 -->
<g id="edge4" class="edge">
<title>Node1&#45;&gt;Node5</title>
<path fill="none" stroke="midnightblue" d="M307.21,-117.04C325.36,-118.12 343.95,-119.22 362.25,-120.3"/>
<polygon fill="midnightblue" stroke="midnightblue" points="362.19,-123.81 372.38,-120.9 362.6,-116.82 362.19,-123.81"/>
</g>
<!-- Node6 -->
<g id="node6" class="node">
<title>Node6</title>
<g id="a_node6"><a xlink:href="classsrc_1_1lemma__extraction_1_1word__extraction__classes_1_1_lemma_extractor.html#a566976cb79c727c05089d250a813b0e7" target="_top" xlink:title=" ">
<polygon fill="white" stroke="black" points="363.5,-76.5 363.5,-95.5 690.5,-95.5 690.5,-76.5 363.5,-76.5"/>
<text text-anchor="middle" x="527" y="-83.5" font-family="Helvetica,sans-Serif" font-size="10.00">src.lemma_extraction.word_extraction_classes.LemmaExtractor.doc_id</text>
</a>
</g>
</g>
<!-- Node1&#45;&gt;Node6 -->
<g id="edge6" class="edge">
<title>Node1&#45;&gt;Node6</title>
<path fill="none" stroke="midnightblue" d="M307.21,-98.96C323.12,-98.01 339.37,-97.05 355.46,-96.1"/>
<polygon fill="midnightblue" stroke="midnightblue" points="355.68,-99.59 365.45,-95.51 355.26,-92.6 355.68,-99.59"/>
</g>
<!-- Node7 -->
<g id="node7" class="node">
<title>Node7</title>
<g id="a_node7"><a xlink:href="classsrc_1_1lemma__extraction_1_1word__extraction__classes_1_1_lemma_extractor.html#ac017b01087cf5579d0ee020cf97d6b87" target="_top" xlink:title=" ">
<polygon fill="white" stroke="black" points="363,-38.5 363,-57.5 691,-57.5 691,-38.5 363,-38.5"/>
<text text-anchor="middle" x="527" y="-45.5" font-family="Helvetica,sans-Serif" font-size="10.00">src.lemma_extraction.word_extraction_classes.LemmaExtractor.lemma</text>
</a>
</g>
</g>
<!-- Node1&#45;&gt;Node7 -->
<g id="edge7" class="edge">
<title>Node1&#45;&gt;Node7</title>
<path fill="none" stroke="midnightblue" d="M215.3,-92.98C252.07,-84.35 300.01,-73.89 343,-67 362.92,-63.81 384.15,-61.04 404.84,-58.67"/>
<polygon fill="midnightblue" stroke="midnightblue" points="405.39,-62.13 414.94,-57.54 404.61,-55.17 405.39,-62.13"/>
</g>
<!-- Node8 -->
<g id="node8" class="node">
<title>Node8</title>
<g id="a_node8"><a xlink:href="classsrc_1_1lemma__extraction_1_1word__extraction__classes_1_1_lemma_extractor.html#a3f128ef6e4f92848f6ab0841103ff3e8" target="_top" xlink:title=" ">
<polygon fill="white" stroke="black" points="343,-0.5 343,-19.5 711,-19.5 711,-0.5 343,-0.5"/>
<text text-anchor="middle" x="527" y="-7.5" font-family="Helvetica,sans-Serif" font-size="10.00">src.lemma_extraction.word_extraction_classes.LemmaExtractor.stopped_lemma</text>
</a>
</g>
</g>
<!-- Node1&#45;&gt;Node8 -->
<g id="edge8" class="edge">
<title>Node1&#45;&gt;Node8</title>
<path fill="none" stroke="midnightblue" d="M182.97,-92.95C219.1,-74.58 283.87,-44.11 343,-29 355.21,-25.88 368,-23.27 380.9,-21.09"/>
<polygon fill="midnightblue" stroke="midnightblue" points="381.46,-24.54 390.78,-19.5 380.35,-17.63 381.46,-24.54"/>
</g>
<!-- Node4 -->
<g id="node4" class="node">
<title>Node4</title>
<g id="a_node4"><a xlink:href="classsrc_1_1lemma__extraction_1_1word__extraction__classes_1_1_lemma_extractor.html#a6d02130e23d944bbdcfba767428b317b" target="_top" xlink:title=" ">
<polygon fill="white" stroke="black" points="747,-144.5 747,-163.5 1076,-163.5 1076,-144.5 747,-144.5"/>
<text text-anchor="middle" x="911.5" y="-151.5" font-family="Helvetica,sans-Serif" font-size="10.00">src.lemma_extraction.word_extraction_classes.LemmaExtractor.do_join</text>
</a>
</g>
</g>
<!-- Node3&#45;&gt;Node4 -->
<g id="edge3" class="edge">
<title>Node3&#45;&gt;Node4</title>
<path fill="none" stroke="midnightblue" d="M681.65,-168.96C705.73,-167.38 730.64,-165.76 754.77,-164.18"/>
<polygon fill="midnightblue" stroke="midnightblue" points="755.31,-167.65 765.06,-163.51 754.85,-160.67 755.31,-167.65"/>
</g>
<!-- Node5&#45;&gt;Node4 -->
<g id="edge5" class="edge">
<title>Node5&#45;&gt;Node4</title>
<path fill="none" stroke="midnightblue" d="M681.65,-139.64C703.71,-141.03 726.48,-142.45 748.69,-143.85"/>
<polygon fill="midnightblue" stroke="midnightblue" points="748.66,-147.35 758.86,-144.49 749.1,-140.37 748.66,-147.35"/>
</g>
</g>
</svg>
