<?xml version="1.0" encoding="UTF-8" standalone="no"?>
<!DOCTYPE svg PUBLIC "-//W3C//DTD SVG 1.1//EN"
 "http://www.w3.org/Graphics/SVG/1.1/DTD/svg11.dtd">
<!-- Generated by graphviz version 2.47.1 (20210417.1919)
 -->
<!-- Title: src.db_tools.db_class_defs.DBBase Pages: 1 -->
<svg width="480pt" height="142pt"
 viewBox="0.00 0.00 480.00 142.00" xmlns="http://www.w3.org/2000/svg" xmlns:xlink="http://www.w3.org/1999/xlink">
<g id="graph0" class="graph" transform="scale(1 1) rotate(0) translate(4 138)">
<title>src.db_tools.db_class_defs.DBBase</title>
<polygon fill="white" stroke="transparent" points="-4,4 -4,-138 476,-138 476,4 -4,4"/>
<!-- Node1 -->
<g id="node1" class="node">
<title>Node1</title>
<g id="a_node1"><a xlink:title="The base class for our various custom database management classes.">
<polygon fill="#bfbfbf" stroke="black" points="0,-57.5 0,-76.5 174,-76.5 174,-57.5 0,-57.5"/>
<text text-anchor="middle" x="87" y="-64.5" font-family="Helvetica,sans-Serif" font-size="10.00">src.db_tools.db_class_defs.DBBase</text>
</a>
</g>
</g>
<!-- Node2 -->
<g id="node2" class="node">
<title>Node2</title>
<g id="a_node2"><a xlink:href="classsrc_1_1body__extraction_1_1cache__class__defs_1_1_message_body_d_b.html" target="_top" xlink:title=" ">
<polygon fill="white" stroke="black" points="210,-114.5 210,-133.5 472,-133.5 472,-114.5 210,-114.5"/>
<text text-anchor="middle" x="341" y="-121.5" font-family="Helvetica,sans-Serif" font-size="10.00">src.body_extraction.cache_class_defs.MessageBodyDB</text>
</a>
</g>
</g>
<!-- Node1&#45;&gt;Node2 -->
<g id="edge1" class="edge">
<title>Node1&#45;&gt;Node2</title>
<path fill="none" stroke="midnightblue" d="M124.1,-79.88C148.17,-88.06 180.66,-98.33 210,-105 226.35,-108.72 244.02,-111.87 260.92,-114.47"/>
<polygon fill="midnightblue" stroke="midnightblue" points="124.92,-76.46 114.33,-76.52 122.64,-83.08 124.92,-76.46"/>
</g>
<!-- Node3 -->
<g id="node3" class="node">
<title>Node3</title>
<g id="a_node3"><a xlink:href="classsrc_1_1db__tools_1_1db__class__defs_1_1_threaded_d_b_base.html" target="_top" xlink:title="This is an experimental class that is not yet finished!! An experimental subclass of DBBase attemptin...">
<polygon fill="white" stroke="black" points="234,-76.5 234,-95.5 448,-95.5 448,-76.5 234,-76.5"/>
<text text-anchor="middle" x="341" y="-83.5" font-family="Helvetica,sans-Serif" font-size="10.00">src.db_tools.db_class_defs.ThreadedDBBase</text>
</a>
</g>
</g>
<!-- Node1&#45;&gt;Node3 -->
<g id="edge2" class="edge">
<title>Node1&#45;&gt;Node3</title>
<path fill="none" stroke="midnightblue" d="M184.06,-74.24C200.34,-75.47 217.34,-76.75 233.86,-78"/>
<polygon fill="midnightblue" stroke="midnightblue" points="184.25,-70.75 174.02,-73.49 183.73,-77.73 184.25,-70.75"/>
</g>
<!-- Node4 -->
<g id="node4" class="node">
<title>Node4</title>
<g id="a_node4"><a xlink:href="classsrc_1_1email__caching_1_1cache__class__defs_1_1_email_d_b.html" target="_top" xlink:title=" ">
<polygon fill="white" stroke="black" points="232,-38.5 232,-57.5 450,-57.5 450,-38.5 232,-38.5"/>
<text text-anchor="middle" x="341" y="-45.5" font-family="Helvetica,sans-Serif" font-size="10.00">src.email_caching.cache_class_defs.EmailDB</text>
</a>
</g>
</g>
<!-- Node1&#45;&gt;Node4 -->
<g id="edge3" class="edge">
<title>Node1&#45;&gt;Node4</title>
<path fill="none" stroke="midnightblue" d="M184.13,-59.75C199.66,-58.58 215.84,-57.36 231.64,-56.17"/>
<polygon fill="midnightblue" stroke="midnightblue" points="183.73,-56.27 174.02,-60.51 184.25,-63.25 183.73,-56.27"/>
</g>
<!-- Node5 -->
<g id="node5" class="node">
<title>Node5</title>
<g id="a_node5"><a xlink:href="classsrc_1_1lemma__extraction_1_1cache__class__defs_1_1_lemma_d_b.html" target="_top" xlink:title=" ">
<polygon fill="white" stroke="black" points="221,-0.5 221,-19.5 461,-19.5 461,-0.5 221,-0.5"/>
<text text-anchor="middle" x="341" y="-7.5" font-family="Helvetica,sans-Serif" font-size="10.00">src.lemma_extraction.cache_class_defs.LemmaDB</text>
</a>
</g>
</g>
<!-- Node1&#45;&gt;Node5 -->
<g id="edge4" class="edge">
<title>Node1&#45;&gt;Node5</title>
<path fill="none" stroke="midnightblue" d="M124.1,-54.12C148.17,-45.94 180.66,-35.67 210,-29 226.35,-25.28 244.02,-22.13 260.92,-19.53"/>
<polygon fill="midnightblue" stroke="midnightblue" points="122.64,-50.92 114.33,-57.48 124.92,-57.54 122.64,-50.92"/>
</g>
</g>
</svg>
