<?xml version="1.0" encoding="UTF-8" standalone="no"?>
<!DOCTYPE svg PUBLIC "-//W3C//DTD SVG 1.1//EN"
 "http://www.w3.org/Graphics/SVG/1.1/DTD/svg11.dtd">
<!-- Generated by graphviz version 2.47.1 (20210417.1919)
 -->
<!-- Title: src.db_tools.db_class_defs.ThreadedDBBase.enqueue_add_row Pages: 1 -->
<svg width="701pt" height="208pt"
 viewBox="0.00 0.00 701.00 208.00" xmlns="http://www.w3.org/2000/svg" xmlns:xlink="http://www.w3.org/1999/xlink">
<g id="graph0" class="graph" transform="scale(1 1) rotate(0) translate(4 204)">
<title>src.db_tools.db_class_defs.ThreadedDBBase.enqueue_add_row</title>
<polygon fill="white" stroke="transparent" points="-4,4 -4,-204 697,-204 697,4 -4,4"/>
<!-- Node1 -->
<g id="node1" class="node">
<title>Node1</title>
<g id="a_node1"><a xlink:title=" ">
<polygon fill="#bfbfbf" stroke="black" points="0,-90 0,-131 158,-131 158,-90 0,-90"/>
<text text-anchor="start" x="8" y="-119" font-family="Helvetica,sans-Serif" font-size="10.00">src.db_tools.db_class</text>
<text text-anchor="start" x="8" y="-108" font-family="Helvetica,sans-Serif" font-size="10.00">_defs.ThreadedDBBase.enqueue</text>
<text text-anchor="middle" x="79" y="-97" font-family="Helvetica,sans-Serif" font-size="10.00">_add_row</text>
</a>
</g>
</g>
<!-- Node2 -->
<g id="node2" class="node">
<title>Node2</title>
<g id="a_node2"><a xlink:href="classsrc_1_1body__extraction_1_1cache__class__defs_1_1_message_body_d_b.html#a1068fb482d68c7436bd5db942dcfafd5" target="_top" xlink:title=" ">
<polygon fill="white" stroke="black" points="194,-169.5 194,-199.5 380,-199.5 380,-169.5 194,-169.5"/>
<text text-anchor="start" x="202" y="-187.5" font-family="Helvetica,sans-Serif" font-size="10.00">src.body_extraction.cache</text>
<text text-anchor="middle" x="287" y="-176.5" font-family="Helvetica,sans-Serif" font-size="10.00">_class_defs.MessageBodyDB.add_row</text>
</a>
</g>
</g>
<!-- Node1&#45;&gt;Node2 -->
<g id="edge1" class="edge">
<title>Node1&#45;&gt;Node2</title>
<path fill="none" stroke="midnightblue" d="M122.4,-131.01C143.59,-140.76 169.81,-152.1 194,-160.5 200.04,-162.6 206.35,-164.61 212.72,-166.51"/>
<polygon fill="midnightblue" stroke="midnightblue" points="212.17,-170 222.75,-169.41 214.12,-163.27 212.17,-170"/>
</g>
<!-- Node3 -->
<g id="node3" class="node">
<title>Node3</title>
<g id="a_node3"><a xlink:href="classsrc_1_1lemma__extraction_1_1cache__class__defs_1_1_lemma_d_b.html#a72fb9592002b684c5920f5856ecfe7b2" target="_top" xlink:title=" ">
<polygon fill="white" stroke="black" points="209,-120.5 209,-150.5 365,-150.5 365,-120.5 209,-120.5"/>
<text text-anchor="start" x="217" y="-138.5" font-family="Helvetica,sans-Serif" font-size="10.00">src.lemma_extraction.cache</text>
<text text-anchor="middle" x="287" y="-127.5" font-family="Helvetica,sans-Serif" font-size="10.00">_class_defs.LemmaDB.add_row</text>
</a>
</g>
</g>
<!-- Node1&#45;&gt;Node3 -->
<g id="edge2" class="edge">
<title>Node1&#45;&gt;Node3</title>
<path fill="none" stroke="midnightblue" d="M158.17,-119.99C171.42,-121.59 185.24,-123.27 198.7,-124.91"/>
<polygon fill="midnightblue" stroke="midnightblue" points="198.55,-128.41 208.9,-126.14 199.4,-121.46 198.55,-128.41"/>
</g>
<!-- Node4 -->
<g id="node4" class="node">
<title>Node4</title>
<g id="a_node4"><a xlink:href="classsrc_1_1email__caching_1_1cache__class__defs_1_1_email_d_b.html#a4077c5ee789b4791502fab4fa901d6d5" target="_top" xlink:title=" ">
<polygon fill="white" stroke="black" points="212.5,-71.5 212.5,-101.5 361.5,-101.5 361.5,-71.5 212.5,-71.5"/>
<text text-anchor="start" x="220.5" y="-89.5" font-family="Helvetica,sans-Serif" font-size="10.00">src.email_caching.cache</text>
<text text-anchor="middle" x="287" y="-78.5" font-family="Helvetica,sans-Serif" font-size="10.00">_class_defs.EmailDB.add_row</text>
</a>
</g>
</g>
<!-- Node1&#45;&gt;Node4 -->
<g id="edge3" class="edge">
<title>Node1&#45;&gt;Node4</title>
<path fill="none" stroke="midnightblue" d="M158.17,-101.39C172.6,-99.71 187.72,-97.95 202.3,-96.25"/>
<polygon fill="midnightblue" stroke="midnightblue" points="202.77,-99.72 212.3,-95.09 201.96,-92.77 202.77,-99.72"/>
</g>
<!-- Node5 -->
<g id="node5" class="node">
<title>Node5</title>
<g id="a_node5"><a xlink:href="classsrc_1_1db__tools_1_1db__class__defs_1_1_d_b_base.html#a9cecfb49b2da2b1f574adc0d810fb5c2" target="_top" xlink:title=" ">
<polygon fill="white" stroke="black" points="228,-22.5 228,-52.5 346,-52.5 346,-22.5 228,-22.5"/>
<text text-anchor="start" x="236" y="-40.5" font-family="Helvetica,sans-Serif" font-size="10.00">src.db_tools.db_class</text>
<text text-anchor="middle" x="287" y="-29.5" font-family="Helvetica,sans-Serif" font-size="10.00">_defs.DBBase.add_row</text>
</a>
</g>
</g>
<!-- Node1&#45;&gt;Node5 -->
<g id="edge4" class="edge">
<title>Node1&#45;&gt;Node5</title>
<path fill="none" stroke="midnightblue" d="M124.95,-89.94C145.72,-80.87 170.86,-70.48 194,-62.5 201.68,-59.85 209.79,-57.3 217.89,-54.91"/>
<polygon fill="midnightblue" stroke="midnightblue" points="219.09,-58.21 227.73,-52.07 217.15,-51.48 219.09,-58.21"/>
</g>
<!-- Node6 -->
<g id="node6" class="node">
<title>Node6</title>
<g id="a_node6"><a xlink:href="classsrc_1_1db__tools_1_1db__class__defs_1_1_d_b_base.html#a429bfd28d78ab3be7bfc8b3f24509fa1" target="_top" xlink:title="Calling this property requires that we have made a previous call to self.__call__() in order to prope...">
<polygon fill="white" stroke="black" points="564,-22.5 564,-52.5 693,-52.5 693,-22.5 564,-22.5"/>
<text text-anchor="start" x="572" y="-40.5" font-family="Helvetica,sans-Serif" font-size="10.00">src.db_tools.db_class</text>
<text text-anchor="middle" x="628.5" y="-29.5" font-family="Helvetica,sans-Serif" font-size="10.00">_defs.DBBase.connection</text>
</a>
</g>
</g>
<!-- Node5&#45;&gt;Node6 -->
<g id="edge5" class="edge">
<title>Node5&#45;&gt;Node6</title>
<path fill="none" stroke="midnightblue" d="M346.3,-39.15C368.16,-39.7 393.22,-40.23 416,-40.5 465.77,-41.08 478.23,-41.25 528,-40.5 536.32,-40.37 545.03,-40.19 553.69,-39.97"/>
<polygon fill="midnightblue" stroke="midnightblue" points="553.91,-43.47 563.81,-39.71 553.72,-36.47 553.91,-43.47"/>
</g>
<!-- Node7 -->
<g id="node7" class="node">
<title>Node7</title>
<g id="a_node7"><a xlink:href="classsrc_1_1db__tools_1_1db__class__defs_1_1_d_b_base.html#afab76d33daab3aa5e5c9263f284ee9d6" target="_top" xlink:title=" ">
<polygon fill="white" stroke="black" points="416,-0.5 416,-30.5 528,-30.5 528,-0.5 416,-0.5"/>
<text text-anchor="start" x="424" y="-18.5" font-family="Helvetica,sans-Serif" font-size="10.00">src.db_tools.db_class</text>
<text text-anchor="middle" x="472" y="-7.5" font-family="Helvetica,sans-Serif" font-size="10.00">_defs.DBBase.cursor</text>
</a>
</g>
</g>
<!-- Node5&#45;&gt;Node7 -->
<g id="edge6" class="edge">
<title>Node5&#45;&gt;Node7</title>
<path fill="none" stroke="midnightblue" d="M346.15,-30.51C365.14,-28.23 386.34,-25.68 405.8,-23.34"/>
<polygon fill="midnightblue" stroke="midnightblue" points="406.29,-26.8 415.8,-22.14 405.46,-19.85 406.29,-26.8"/>
</g>
<!-- Node7&#45;&gt;Node6 -->
<g id="edge7" class="edge">
<title>Node7&#45;&gt;Node6</title>
<path fill="none" stroke="midnightblue" d="M528.34,-23.38C536.62,-24.56 545.26,-25.79 553.85,-27.01"/>
<polygon fill="midnightblue" stroke="midnightblue" points="553.48,-30.49 563.87,-28.44 554.46,-23.56 553.48,-30.49"/>
</g>
</g>
</svg>
