<?xml version="1.0" encoding="UTF-8" standalone="no"?>
<!DOCTYPE svg PUBLIC "-//W3C//DTD SVG 1.1//EN"
 "http://www.w3.org/Graphics/SVG/1.1/DTD/svg11.dtd">
<!-- Generated by graphviz version 2.47.1 (20210417.1919)
 -->
<!-- Title: src.utils.custom_logger.LogManager.__getattribute__ Pages: 1 -->
<svg width="733pt" height="66pt"
 viewBox="0.00 0.00 733.00 66.00" xmlns="http://www.w3.org/2000/svg" xmlns:xlink="http://www.w3.org/1999/xlink">
<g id="graph0" class="graph" transform="scale(1 1) rotate(0) translate(4 62)">
<title>src.utils.custom_logger.LogManager.__getattribute__</title>
<polygon fill="white" stroke="transparent" points="-4,4 -4,-62 729,-62 729,4 -4,4"/>
<!-- Node1 -->
<g id="node1" class="node">
<title>Node1</title>
<g id="a_node1"><a xlink:title=" ">
<polygon fill="#bfbfbf" stroke="black" points="0,-19.5 0,-38.5 247,-38.5 247,-19.5 0,-19.5"/>
<text text-anchor="middle" x="123.5" y="-26.5" font-family="Helvetica,sans-Serif" font-size="10.00">src.utils.custom_logger.LogManager.__getattribute__</text>
</a>
</g>
</g>
<!-- Node2 -->
<g id="node2" class="node">
<title>Node2</title>
<g id="a_node2"><a xlink:href="namespacesrc_1_1utils_1_1custom__logger.html#a3d6e469e20f9ff5a211a36302eaab713" target="_top" xlink:title=" ">
<polygon fill="white" stroke="black" points="283,-19.5 283,-38.5 465,-38.5 465,-19.5 283,-19.5"/>
<text text-anchor="middle" x="374" y="-26.5" font-family="Helvetica,sans-Serif" font-size="10.00">src.utils.custom_logger._logger_setup</text>
</a>
</g>
</g>
<!-- Node1&#45;&gt;Node2 -->
<g id="edge1" class="edge">
<title>Node1&#45;&gt;Node2</title>
<path fill="none" stroke="midnightblue" d="M247.29,-29C255.81,-29 264.34,-29 272.72,-29"/>
<polygon fill="midnightblue" stroke="midnightblue" points="272.85,-32.5 282.85,-29 272.85,-25.5 272.85,-32.5"/>
</g>
<!-- Node3 -->
<g id="node3" class="node">
<title>Node3</title>
<g id="a_node3"><a xlink:href="namespacesrc_1_1utils_1_1custom__logger.html#a097cd6227a495453a6bfbc25cb90cb55" target="_top" xlink:title=" ">
<polygon fill="white" stroke="black" points="501,-38.5 501,-57.5 725,-57.5 725,-38.5 501,-38.5"/>
<text text-anchor="middle" x="613" y="-45.5" font-family="Helvetica,sans-Serif" font-size="10.00">src.utils.custom_logger._build_default_formatter</text>
</a>
</g>
</g>
<!-- Node2&#45;&gt;Node3 -->
<g id="edge2" class="edge">
<title>Node2&#45;&gt;Node3</title>
<path fill="none" stroke="midnightblue" d="M465.28,-36.24C473.64,-36.91 482.21,-37.59 490.8,-38.28"/>
<polygon fill="midnightblue" stroke="midnightblue" points="490.63,-41.78 500.87,-39.09 491.19,-34.8 490.63,-41.78"/>
</g>
<!-- Node4 -->
<g id="node4" class="node">
<title>Node4</title>
<g id="a_node4"><a xlink:href="namespacesrc_1_1utils_1_1custom__logger.html#a6b8188ba0f7b5c0387eb4d5211c77f34" target="_top" xlink:title=" ">
<polygon fill="white" stroke="black" points="512,-0.5 512,-19.5 714,-19.5 714,-0.5 512,-0.5"/>
<text text-anchor="middle" x="613" y="-7.5" font-family="Helvetica,sans-Serif" font-size="10.00">src.utils.custom_logger._configure_handler</text>
</a>
</g>
</g>
<!-- Node2&#45;&gt;Node4 -->
<g id="edge3" class="edge">
<title>Node2&#45;&gt;Node4</title>
<path fill="none" stroke="midnightblue" d="M465.28,-21.76C477.13,-20.81 489.39,-19.83 501.53,-18.86"/>
<polygon fill="midnightblue" stroke="midnightblue" points="502,-22.33 511.69,-18.04 501.44,-15.35 502,-22.33"/>
</g>
</g>
</svg>
