<?xml version="1.0" encoding="UTF-8" standalone="no"?>
<!DOCTYPE svg PUBLIC "-//W3C//DTD SVG 1.1//EN"
 "http://www.w3.org/Graphics/SVG/1.1/DTD/svg11.dtd">
<!-- Generated by graphviz version 2.47.1 (20210417.1919)
 -->
<!-- Title: src.db_tools.db_class_defs.DBBase.connection Pages: 1 -->
<svg width="1097pt" height="138pt"
 viewBox="0.00 0.00 1097.00 138.05" xmlns="http://www.w3.org/2000/svg" xmlns:xlink="http://www.w3.org/1999/xlink">
<g id="graph0" class="graph" transform="scale(1 1) rotate(0) translate(4 134.05)">
<title>src.db_tools.db_class_defs.DBBase.connection</title>
<polygon fill="white" stroke="transparent" points="-4,4 -4,-134.05 1093,-134.05 1093,4 -4,4"/>
<!-- Node1 -->
<g id="node1" class="node">
<title>Node1</title>
<g id="a_node1"><a xlink:title="Calling this property requires that we have made a previous call to self.__call__() in order to prope...">
<polygon fill="#bfbfbf" stroke="black" points="865,-60.5 865,-79.5 1089,-79.5 1089,-60.5 865,-60.5"/>
<text text-anchor="middle" x="977" y="-67.5" font-family="Helvetica,sans-Serif" font-size="10.00">src.db_tools.db_class_defs.DBBase.connection</text>
</a>
</g>
</g>
<!-- Node2 -->
<g id="node2" class="node">
<title>Node2</title>
<g id="a_node2"><a xlink:href="classsrc_1_1db__tools_1_1db__class__defs_1_1_d_b_base.html#a970d3d8297eb67288f50f6e28e1883fa" target="_top" xlink:title=" ">
<polygon fill="white" stroke="black" points="41,-82.5 41,-101.5 254,-101.5 254,-82.5 41,-82.5"/>
<text text-anchor="middle" x="147.5" y="-89.5" font-family="Helvetica,sans-Serif" font-size="10.00">src.db_tools.db_class_defs.DBBase.__call__</text>
</a>
</g>
</g>
<!-- Node1&#45;&gt;Node2 -->
<g id="edge1" class="edge">
<title>Node1&#45;&gt;Node2</title>
<path fill="none" stroke="midnightblue" d="M936.97,-82.6C907.62,-91.46 866.23,-102.65 829,-108 609.88,-139.49 551.86,-132.06 331,-117 287.93,-114.06 239.53,-107.27 203.4,-101.51"/>
<polygon fill="midnightblue" stroke="midnightblue" points="938.29,-85.86 946.82,-79.58 936.24,-79.17 938.29,-85.86"/>
</g>
<!-- Node3 -->
<g id="node3" class="node">
<title>Node3</title>
<g id="a_node3"><a xlink:href="classsrc_1_1db__tools_1_1db__class__defs_1_1_d_b_base.html#a47894228f63f488c5212dd846621da72" target="_top" xlink:title=" ">
<polygon fill="white" stroke="black" points="588,-79.5 588,-98.5 829,-98.5 829,-79.5 588,-79.5"/>
<text text-anchor="middle" x="708.5" y="-86.5" font-family="Helvetica,sans-Serif" font-size="10.00">src.db_tools.db_class_defs.DBBase._register_table</text>
</a>
</g>
</g>
<!-- Node1&#45;&gt;Node3 -->
<g id="edge2" class="edge">
<title>Node1&#45;&gt;Node3</title>
<path fill="none" stroke="midnightblue" d="M854.86,-78.64C846.26,-79.25 837.6,-79.87 829.01,-80.48"/>
<polygon fill="midnightblue" stroke="midnightblue" points="855.18,-82.12 864.91,-77.92 854.69,-75.14 855.18,-82.12"/>
</g>
<!-- Node5 -->
<g id="node5" class="node">
<title>Node5</title>
<g id="a_node5"><a xlink:href="classsrc_1_1db__tools_1_1db__class__defs_1_1_d_b_base.html#a9cecfb49b2da2b1f574adc0d810fb5c2" target="_top" xlink:title=" ">
<polygon fill="white" stroke="black" points="335,-0.5 335,-19.5 548,-19.5 548,-0.5 335,-0.5"/>
<text text-anchor="middle" x="441.5" y="-7.5" font-family="Helvetica,sans-Serif" font-size="10.00">src.db_tools.db_class_defs.DBBase.add_row</text>
</a>
</g>
</g>
<!-- Node1&#45;&gt;Node5 -->
<g id="edge5" class="edge">
<title>Node1&#45;&gt;Node5</title>
<path fill="none" stroke="midnightblue" d="M938.94,-57.18C909.52,-47.62 867.13,-35.18 829,-29 734.83,-13.75 626.21,-9.57 548.15,-8.87"/>
<polygon fill="midnightblue" stroke="midnightblue" points="938.18,-60.62 948.77,-60.43 940.38,-53.97 938.18,-60.62"/>
</g>
<!-- Node7 -->
<g id="node7" class="node">
<title>Node7</title>
<g id="a_node7"><a xlink:href="classsrc_1_1db__tools_1_1db__class__defs_1_1_d_b_base.html#afab76d33daab3aa5e5c9263f284ee9d6" target="_top" xlink:title=" ">
<polygon fill="white" stroke="black" points="606.5,-38.5 606.5,-57.5 810.5,-57.5 810.5,-38.5 606.5,-38.5"/>
<text text-anchor="middle" x="708.5" y="-45.5" font-family="Helvetica,sans-Serif" font-size="10.00">src.db_tools.db_class_defs.DBBase.cursor</text>
</a>
</g>
</g>
<!-- Node1&#45;&gt;Node7 -->
<g id="edge7" class="edge">
<title>Node1&#45;&gt;Node7</title>
<path fill="none" stroke="midnightblue" d="M854.74,-59.99C839.99,-58.77 825.04,-57.54 810.62,-56.35"/>
<polygon fill="midnightblue" stroke="midnightblue" points="854.66,-63.49 864.91,-60.83 855.23,-56.52 854.66,-63.49"/>
</g>
<!-- Node4 -->
<g id="node4" class="node">
<title>Node4</title>
<g id="a_node4"><a xlink:href="classsrc_1_1db__tools_1_1db__class__defs_1_1_d_b_base.html#a7d81ecdc59e01a8449b98a2050672b24" target="_top" xlink:title=" ">
<polygon fill="white" stroke="black" points="331,-77 331,-107 552,-107 552,-77 331,-77"/>
<text text-anchor="start" x="339" y="-95" font-family="Helvetica,sans-Serif" font-size="10.00">src.db_tools.db_class_defs.DBBase._establish</text>
<text text-anchor="middle" x="441.5" y="-84" font-family="Helvetica,sans-Serif" font-size="10.00">_new_connection</text>
</a>
</g>
</g>
<!-- Node3&#45;&gt;Node4 -->
<g id="edge3" class="edge">
<title>Node3&#45;&gt;Node4</title>
<path fill="none" stroke="midnightblue" d="M577.54,-90.47C569.12,-90.57 560.68,-90.66 552.37,-90.76"/>
<polygon fill="midnightblue" stroke="midnightblue" points="577.83,-93.97 587.79,-90.36 577.75,-86.97 577.83,-93.97"/>
</g>
<!-- Node4&#45;&gt;Node2 -->
<g id="edge4" class="edge">
<title>Node4&#45;&gt;Node2</title>
<path fill="none" stroke="midnightblue" d="M320.87,-92C298.82,-92 275.93,-92 254.32,-92"/>
<polygon fill="midnightblue" stroke="midnightblue" points="320.94,-95.5 330.94,-92 320.94,-88.5 320.94,-95.5"/>
</g>
<!-- Node6 -->
<g id="node6" class="node">
<title>Node6</title>
<g id="a_node6"><a xlink:href="classsrc_1_1db__tools_1_1db__class__defs_1_1_threaded_d_b_base.html#a48e555303526711e03e9406703a1622c" target="_top" xlink:title=" ">
<polygon fill="white" stroke="black" points="0,-0.5 0,-19.5 295,-19.5 295,-0.5 0,-0.5"/>
<text text-anchor="middle" x="147.5" y="-7.5" font-family="Helvetica,sans-Serif" font-size="10.00">src.db_tools.db_class_defs.ThreadedDBBase.enqueue_add_row</text>
</a>
</g>
</g>
<!-- Node5&#45;&gt;Node6 -->
<g id="edge6" class="edge">
<title>Node5&#45;&gt;Node6</title>
<path fill="none" stroke="midnightblue" d="M324.61,-10C314.89,-10 304.98,-10 295.07,-10"/>
<polygon fill="midnightblue" stroke="midnightblue" points="324.67,-13.5 334.67,-10 324.67,-6.5 324.67,-13.5"/>
</g>
<!-- Node7&#45;&gt;Node2 -->
<g id="edge8" class="edge">
<title>Node7&#45;&gt;Node2</title>
<path fill="none" stroke="midnightblue" d="M595.87,-51.66C520.86,-54.67 419.87,-59.81 331,-68 291.22,-71.67 246.78,-77.47 211.71,-82.46"/>
<polygon fill="midnightblue" stroke="midnightblue" points="596.42,-55.14 606.27,-51.24 596.14,-48.14 596.42,-55.14"/>
</g>
<!-- Node7&#45;&gt;Node5 -->
<g id="edge9" class="edge">
<title>Node7&#45;&gt;Node5</title>
<path fill="none" stroke="midnightblue" d="M630.84,-37.01C592.31,-31.48 546.08,-24.85 509.06,-19.54"/>
<polygon fill="midnightblue" stroke="midnightblue" points="630.58,-40.51 640.97,-38.46 631.57,-33.58 630.58,-40.51"/>
</g>
</g>
</svg>
