<?xml version="1.0" encoding="UTF-8" standalone="no"?>
<!DOCTYPE svg PUBLIC "-//W3C//DTD SVG 1.1//EN"
 "http://www.w3.org/Graphics/SVG/1.1/DTD/svg11.dtd">
<!-- Generated by graphviz version 2.47.1 (20210417.1919)
 -->
<!-- Title: src.eralchemy.parser.NoCurrentTableException Pages: 1 -->
<svg width="229pt" height="140pt"
 viewBox="0.00 0.00 229.00 140.00" xmlns="http://www.w3.org/2000/svg" xmlns:xlink="http://www.w3.org/1999/xlink">
<g id="graph0" class="graph" transform="scale(1 1) rotate(0) translate(4 136)">
<title>src.eralchemy.parser.NoCurrentTableException</title>
<polygon fill="white" stroke="transparent" points="-4,4 -4,-136 225,-136 225,4 -4,4"/>
<!-- Node1 -->
<g id="node1" class="node">
<title>Node1</title>
<g id="a_node1"><a xlink:title=" ">
<polygon fill="#bfbfbf" stroke="black" points="0,-0.5 0,-19.5 221,-19.5 221,-0.5 0,-0.5"/>
<text text-anchor="middle" x="110.5" y="-7.5" font-family="Helvetica,sans-Serif" font-size="10.00">src.eralchemy.parser.NoCurrentTableException</text>
</a>
</g>
</g>
<!-- Node2 -->
<g id="node2" class="node">
<title>Node2</title>
<g id="a_node2"><a xlink:href="classsrc_1_1eralchemy_1_1parser_1_1_parsing_exception.html" target="_top" xlink:title=" ">
<polygon fill="white" stroke="black" points="16.5,-56.5 16.5,-75.5 204.5,-75.5 204.5,-56.5 16.5,-56.5"/>
<text text-anchor="middle" x="110.5" y="-63.5" font-family="Helvetica,sans-Serif" font-size="10.00">src.eralchemy.parser.ParsingException</text>
</a>
</g>
</g>
<!-- Node2&#45;&gt;Node1 -->
<g id="edge1" class="edge">
<title>Node2&#45;&gt;Node1</title>
<path fill="none" stroke="midnightblue" d="M110.5,-45.8C110.5,-36.91 110.5,-26.78 110.5,-19.75"/>
<polygon fill="midnightblue" stroke="midnightblue" points="107,-46.08 110.5,-56.08 114,-46.08 107,-46.08"/>
</g>
<!-- Node3 -->
<g id="node3" class="node">
<title>Node3</title>
<g id="a_node3"><a xlink:title=" ">
<polygon fill="white" stroke="#bfbfbf" points="80.5,-112.5 80.5,-131.5 140.5,-131.5 140.5,-112.5 80.5,-112.5"/>
<text text-anchor="middle" x="110.5" y="-119.5" font-family="Helvetica,sans-Serif" font-size="10.00">Exception</text>
</a>
</g>
</g>
<!-- Node3&#45;&gt;Node2 -->
<g id="edge2" class="edge">
<title>Node3&#45;&gt;Node2</title>
<path fill="none" stroke="midnightblue" d="M110.5,-101.8C110.5,-92.91 110.5,-82.78 110.5,-75.75"/>
<polygon fill="midnightblue" stroke="midnightblue" points="107,-102.08 110.5,-112.08 114,-102.08 107,-102.08"/>
</g>
</g>
</svg>
