<?xml version="1.0" encoding="UTF-8" standalone="no"?>
<!DOCTYPE svg PUBLIC "-//W3C//DTD SVG 1.1//EN"
 "http://www.w3.org/Graphics/SVG/1.1/DTD/svg11.dtd">
<!-- Generated by graphviz version 2.47.1 (20210417.1919)
 -->
<!-- Title: src.db_tools.db_class_defs.UninitializedConnectionException Pages: 1 -->
<svg width="291pt" height="140pt"
 viewBox="0.00 0.00 291.00 140.00" xmlns="http://www.w3.org/2000/svg" xmlns:xlink="http://www.w3.org/1999/xlink">
<g id="graph0" class="graph" transform="scale(1 1) rotate(0) translate(4 136)">
<title>src.db_tools.db_class_defs.UninitializedConnectionException</title>
<polygon fill="white" stroke="transparent" points="-4,4 -4,-136 287,-136 287,4 -4,4"/>
<!-- Node1 -->
<g id="node1" class="node">
<title>Node1</title>
<g id="a_node1"><a xlink:title="A custom exception class that we raise should we create a new DBBase context before initializing the ...">
<polygon fill="#bfbfbf" stroke="black" points="0,-0.5 0,-19.5 283,-19.5 283,-0.5 0,-0.5"/>
<text text-anchor="middle" x="141.5" y="-7.5" font-family="Helvetica,sans-Serif" font-size="10.00">src.db_tools.db_class_defs.UninitializedConnectionException</text>
</a>
</g>
</g>
<!-- Node2 -->
<g id="node2" class="node">
<title>Node2</title>
<g id="a_node2"><a xlink:href="classsrc_1_1db__tools_1_1db__class__defs_1_1_d_b_base_exception.html" target="_top" xlink:title="The custom database exception base class.">
<polygon fill="white" stroke="black" points="32.5,-56.5 32.5,-75.5 250.5,-75.5 250.5,-56.5 32.5,-56.5"/>
<text text-anchor="middle" x="141.5" y="-63.5" font-family="Helvetica,sans-Serif" font-size="10.00">src.db_tools.db_class_defs.DBBaseException</text>
</a>
</g>
</g>
<!-- Node2&#45;&gt;Node1 -->
<g id="edge1" class="edge">
<title>Node2&#45;&gt;Node1</title>
<path fill="none" stroke="midnightblue" d="M141.5,-45.8C141.5,-36.91 141.5,-26.78 141.5,-19.75"/>
<polygon fill="midnightblue" stroke="midnightblue" points="138,-46.08 141.5,-56.08 145,-46.08 138,-46.08"/>
</g>
<!-- Node3 -->
<g id="node3" class="node">
<title>Node3</title>
<g id="a_node3"><a xlink:title=" ">
<polygon fill="white" stroke="#bfbfbf" points="111.5,-112.5 111.5,-131.5 171.5,-131.5 171.5,-112.5 111.5,-112.5"/>
<text text-anchor="middle" x="141.5" y="-119.5" font-family="Helvetica,sans-Serif" font-size="10.00">Exception</text>
</a>
</g>
</g>
<!-- Node3&#45;&gt;Node2 -->
<g id="edge2" class="edge">
<title>Node3&#45;&gt;Node2</title>
<path fill="none" stroke="midnightblue" d="M141.5,-101.8C141.5,-92.91 141.5,-82.78 141.5,-75.75"/>
<polygon fill="midnightblue" stroke="midnightblue" points="138,-102.08 141.5,-112.08 145,-102.08 138,-102.08"/>
</g>
</g>
</svg>
