<?xml version="1.0" encoding="UTF-8" standalone="no"?>
<!DOCTYPE svg PUBLIC "-//W3C//DTD SVG 1.1//EN"
 "http://www.w3.org/Graphics/SVG/1.1/DTD/svg11.dtd">
<!-- Generated by graphviz version 2.47.1 (20210417.1919)
 -->
<!-- Title: src.lemma_extraction.word_extraction_classes.LemmaExtractor.do_join Pages: 1 -->
<svg width="1025pt" height="88pt"
 viewBox="0.00 0.00 1025.00 88.00" xmlns="http://www.w3.org/2000/svg" xmlns:xlink="http://www.w3.org/1999/xlink">
<g id="graph0" class="graph" transform="scale(1 1) rotate(0) translate(4 84)">
<title>src.lemma_extraction.word_extraction_classes.LemmaExtractor.do_join</title>
<polygon fill="white" stroke="transparent" points="-4,4 -4,-84 1021,-84 1021,4 -4,4"/>
<!-- Node1 -->
<g id="node1" class="node">
<title>Node1</title>
<g id="a_node1"><a xlink:title=" ">
<polygon fill="#bfbfbf" stroke="black" points="688,-30 688,-49 1017,-49 1017,-30 688,-30"/>
<text text-anchor="middle" x="852.5" y="-37" font-family="Helvetica,sans-Serif" font-size="10.00">src.lemma_extraction.word_extraction_classes.LemmaExtractor.do_join</text>
</a>
</g>
</g>
<!-- Node2 -->
<g id="node2" class="node">
<title>Node2</title>
<g id="a_node2"><a xlink:href="classsrc_1_1lemma__extraction_1_1word__extraction__classes_1_1_lemma_extractor.html#a8edd0fe27eced07828ec901a7cd28ed5" target="_top" xlink:title=" ">
<polygon fill="white" stroke="black" points="343,-49.5 343,-79.5 652,-79.5 652,-49.5 343,-49.5"/>
<text text-anchor="start" x="351" y="-67.5" font-family="Helvetica,sans-Serif" font-size="10.00">src.lemma_extraction.word_extraction_classes.LemmaExtractor.do</text>
<text text-anchor="middle" x="497.5" y="-56.5" font-family="Helvetica,sans-Serif" font-size="10.00">_all_lemma_join</text>
</a>
</g>
</g>
<!-- Node1&#45;&gt;Node2 -->
<g id="edge1" class="edge">
<title>Node1&#45;&gt;Node2</title>
<path fill="none" stroke="midnightblue" d="M707.27,-49.71C689.14,-51 670.54,-52.32 652.27,-53.61"/>
<polygon fill="midnightblue" stroke="midnightblue" points="707.56,-53.2 717.29,-49 707.07,-46.22 707.56,-53.2"/>
</g>
<!-- Node4 -->
<g id="node4" class="node">
<title>Node4</title>
<g id="a_node4"><a xlink:href="classsrc_1_1lemma__extraction_1_1word__extraction__classes_1_1_lemma_extractor.html#a7244548bc27ffaaf0b429c0bf02527a0" target="_top" xlink:title=" ">
<polygon fill="white" stroke="black" points="343,-0.5 343,-30.5 652,-30.5 652,-0.5 343,-0.5"/>
<text text-anchor="start" x="351" y="-18.5" font-family="Helvetica,sans-Serif" font-size="10.00">src.lemma_extraction.word_extraction_classes.LemmaExtractor.do</text>
<text text-anchor="middle" x="497.5" y="-7.5" font-family="Helvetica,sans-Serif" font-size="10.00">_no_stops_lemma_join</text>
</a>
</g>
</g>
<!-- Node1&#45;&gt;Node4 -->
<g id="edge3" class="edge">
<title>Node1&#45;&gt;Node4</title>
<path fill="none" stroke="midnightblue" d="M701.6,-29.31C685.26,-28.2 668.6,-27.07 652.21,-25.95"/>
<polygon fill="midnightblue" stroke="midnightblue" points="701.52,-32.81 711.73,-30 701.99,-25.83 701.52,-32.81"/>
</g>
<!-- Node3 -->
<g id="node3" class="node">
<title>Node3</title>
<g id="a_node3"><a xlink:href="classsrc_1_1lemma__extraction_1_1word__extraction__classes_1_1_lemma_extractor.html#a94fdd1216e8de74d01fc04a990281d13" target="_top" xlink:title=" ">
<polygon fill="white" stroke="black" points="0,-24.5 0,-54.5 307,-54.5 307,-24.5 0,-24.5"/>
<text text-anchor="start" x="8" y="-42.5" font-family="Helvetica,sans-Serif" font-size="10.00">src.lemma_extraction.word_extraction_classes.LemmaExtractor.to</text>
<text text-anchor="middle" x="153.5" y="-31.5" font-family="Helvetica,sans-Serif" font-size="10.00">_table_row_dict</text>
</a>
</g>
</g>
<!-- Node2&#45;&gt;Node3 -->
<g id="edge2" class="edge">
<title>Node2&#45;&gt;Node3</title>
<path fill="none" stroke="midnightblue" d="M332.26,-52.49C323.85,-51.88 315.41,-51.26 307.04,-50.65"/>
<polygon fill="midnightblue" stroke="midnightblue" points="332.28,-56 342.51,-53.24 332.79,-49.02 332.28,-56"/>
</g>
<!-- Node4&#45;&gt;Node3 -->
<g id="edge4" class="edge">
<title>Node4&#45;&gt;Node3</title>
<path fill="none" stroke="midnightblue" d="M332.26,-27.03C323.85,-27.62 315.41,-28.21 307.04,-28.8"/>
<polygon fill="midnightblue" stroke="midnightblue" points="332.78,-30.5 342.51,-26.31 332.29,-23.52 332.78,-30.5"/>
</g>
</g>
</svg>
