<?xml version="1.0" encoding="UTF-8" standalone="no"?>
<!DOCTYPE svg PUBLIC "-//W3C//DTD SVG 1.1//EN"
 "http://www.w3.org/Graphics/SVG/1.1/DTD/svg11.dtd">
<!-- Generated by graphviz version 2.47.1 (20210417.1919)
 -->
<!-- Title: src.utils.backup.custom_logger.CallStackFormatter.format Pages: 1 -->
<svg width="608pt" height="66pt"
 viewBox="0.00 0.00 608.00 66.00" xmlns="http://www.w3.org/2000/svg" xmlns:xlink="http://www.w3.org/1999/xlink">
<g id="graph0" class="graph" transform="scale(1 1) rotate(0) translate(4 62)">
<title>src.utils.backup.custom_logger.CallStackFormatter.format</title>
<polygon fill="white" stroke="transparent" points="-4,4 -4,-62 604,-62 604,4 -4,4"/>
<!-- Node1 -->
<g id="node1" class="node">
<title>Node1</title>
<g id="a_node1"><a xlink:title=" ">
<polygon fill="#bfbfbf" stroke="black" points="0,-19.5 0,-38.5 269,-38.5 269,-19.5 0,-19.5"/>
<text text-anchor="middle" x="134.5" y="-26.5" font-family="Helvetica,sans-Serif" font-size="10.00">src.utils.backup.custom_logger.CallStackFormatter.format</text>
</a>
</g>
</g>
<!-- Node2 -->
<g id="node2" class="node">
<title>Node2</title>
<g id="a_node2"><a xlink:href="classsrc_1_1utils_1_1backup_1_1custom__logger_1_1_call_stack_formatter.html#ad0c2c746ea7de923696fce50f0937faa" target="_top" xlink:title=" ">
<polygon fill="white" stroke="black" points="305,-38.5 305,-57.5 600,-57.5 600,-38.5 305,-38.5"/>
<text text-anchor="middle" x="452.5" y="-45.5" font-family="Helvetica,sans-Serif" font-size="10.00">src.utils.backup.custom_logger.CallStackFormatter.formatStack</text>
</a>
</g>
</g>
<!-- Node1&#45;&gt;Node2 -->
<g id="edge1" class="edge">
<title>Node1&#45;&gt;Node2</title>
<path fill="none" stroke="midnightblue" d="M269.05,-37.03C277.59,-37.54 286.22,-38.06 294.85,-38.58"/>
<polygon fill="midnightblue" stroke="midnightblue" points="294.78,-42.08 304.97,-39.19 295.2,-35.1 294.78,-42.08"/>
</g>
<!-- Node3 -->
<g id="node3" class="node">
<title>Node3</title>
<g id="a_node3"><a xlink:href="classsrc_1_1utils_1_1custom__logger_1_1_call_stack_formatter.html#ac6d09fd97903e01d9029a107c5797635" target="_top" xlink:title=" ">
<polygon fill="white" stroke="black" points="322.5,-0.5 322.5,-19.5 582.5,-19.5 582.5,-0.5 322.5,-0.5"/>
<text text-anchor="middle" x="452.5" y="-7.5" font-family="Helvetica,sans-Serif" font-size="10.00">src.utils.custom_logger.CallStackFormatter.formatStack</text>
</a>
</g>
</g>
<!-- Node1&#45;&gt;Node3 -->
<g id="edge2" class="edge">
<title>Node1&#45;&gt;Node3</title>
<path fill="none" stroke="midnightblue" d="M269.05,-20.97C283.29,-20.11 297.79,-19.24 312.09,-18.38"/>
<polygon fill="midnightblue" stroke="midnightblue" points="312.68,-21.85 322.46,-17.76 312.26,-14.87 312.68,-21.85"/>
</g>
</g>
</svg>
