<?xml version="1.0" encoding="UTF-8" standalone="no"?>
<!DOCTYPE svg PUBLIC "-//W3C//DTD SVG 1.1//EN"
 "http://www.w3.org/Graphics/SVG/1.1/DTD/svg11.dtd">
<!-- Generated by graphviz version 2.47.1 (20210417.1919)
 -->
<!-- Title: src.email_caching.cache_class_defs.EmailDB.select Pages: 1 -->
<svg width="320pt" height="39pt"
 viewBox="0.00 0.00 320.00 39.00" xmlns="http://www.w3.org/2000/svg" xmlns:xlink="http://www.w3.org/1999/xlink">
<g id="graph0" class="graph" transform="scale(1 1) rotate(0) translate(4 35)">
<title>src.email_caching.cache_class_defs.EmailDB.select</title>
<polygon fill="white" stroke="transparent" points="-4,4 -4,-35 316,-35 316,4 -4,4"/>
<!-- Node1 -->
<g id="node1" class="node">
<title>Node1</title>
<g id="a_node1"><a xlink:title=" ">
<polygon fill="#bfbfbf" stroke="black" points="0,-0.5 0,-30.5 139,-30.5 139,-0.5 0,-0.5"/>
<text text-anchor="start" x="8" y="-18.5" font-family="Helvetica,sans-Serif" font-size="10.00">src.email_caching.cache</text>
<text text-anchor="middle" x="69.5" y="-7.5" font-family="Helvetica,sans-Serif" font-size="10.00">_class_defs.EmailDB.select</text>
</a>
</g>
</g>
<!-- Node2 -->
<g id="node2" class="node">
<title>Node2</title>
<g id="a_node2"><a xlink:href="classsrc_1_1db__tools_1_1db__class__defs_1_1_d_b_base.html#ade81609e37ef5b096b7d351a7d116b83" target="_top" xlink:title="A list of strings, where each element in the list is the name of a table in the main DB.">
<polygon fill="white" stroke="black" points="175,-0.5 175,-30.5 312,-30.5 312,-0.5 175,-0.5"/>
<text text-anchor="start" x="183" y="-18.5" font-family="Helvetica,sans-Serif" font-size="10.00">src.db_tools.db_class</text>
<text text-anchor="middle" x="243.5" y="-7.5" font-family="Helvetica,sans-Serif" font-size="10.00">_defs.DBBase.table_names</text>
</a>
</g>
</g>
<!-- Node1&#45;&gt;Node2 -->
<g id="edge1" class="edge">
<title>Node1&#45;&gt;Node2</title>
<path fill="none" stroke="midnightblue" d="M139.47,-15.5C147.77,-15.5 156.3,-15.5 164.72,-15.5"/>
<polygon fill="midnightblue" stroke="midnightblue" points="164.92,-19 174.92,-15.5 164.92,-12 164.92,-19"/>
</g>
</g>
</svg>
