<?xml version="1.0" encoding="UTF-8" standalone="no"?>
<!DOCTYPE svg PUBLIC "-//W3C//DTD SVG 1.1//EN"
 "http://www.w3.org/Graphics/SVG/1.1/DTD/svg11.dtd">
<!-- Generated by graphviz version 2.47.1 (20210417.1919)
 -->
<!-- Title: src.db_tools.db_class_defs.DBBase.database Pages: 1 -->
<svg width="474pt" height="66pt"
 viewBox="0.00 0.00 474.00 66.00" xmlns="http://www.w3.org/2000/svg" xmlns:xlink="http://www.w3.org/1999/xlink">
<g id="graph0" class="graph" transform="scale(1 1) rotate(0) translate(4 62)">
<title>src.db_tools.db_class_defs.DBBase.database</title>
<polygon fill="white" stroke="transparent" points="-4,4 -4,-62 470,-62 470,4 -4,4"/>
<!-- Node1 -->
<g id="node1" class="node">
<title>Node1</title>
<g id="a_node1"><a xlink:title=" ">
<polygon fill="#bfbfbf" stroke="black" points="249,-19.5 249,-38.5 466,-38.5 466,-19.5 249,-19.5"/>
<text text-anchor="middle" x="357.5" y="-26.5" font-family="Helvetica,sans-Serif" font-size="10.00">src.db_tools.db_class_defs.DBBase.database</text>
</a>
</g>
</g>
<!-- Node2 -->
<g id="node2" class="node">
<title>Node2</title>
<g id="a_node2"><a xlink:href="classsrc_1_1db__tools_1_1db__class__defs_1_1_d_b_base.html#a970d3d8297eb67288f50f6e28e1883fa" target="_top" xlink:title=" ">
<polygon fill="white" stroke="black" points="0,-38.5 0,-57.5 213,-57.5 213,-38.5 0,-38.5"/>
<text text-anchor="middle" x="106.5" y="-45.5" font-family="Helvetica,sans-Serif" font-size="10.00">src.db_tools.db_class_defs.DBBase.__call__</text>
</a>
</g>
</g>
<!-- Node1&#45;&gt;Node2 -->
<g id="edge1" class="edge">
<title>Node1&#45;&gt;Node2</title>
<path fill="none" stroke="midnightblue" d="M238.71,-37.99C230.15,-38.64 221.55,-39.3 213.07,-39.94"/>
<polygon fill="midnightblue" stroke="midnightblue" points="239.03,-41.47 248.73,-37.22 238.5,-34.49 239.03,-41.47"/>
</g>
<!-- Node3 -->
<g id="node3" class="node">
<title>Node3</title>
<g id="a_node3"><a xlink:href="classsrc_1_1db__tools_1_1db__class__defs_1_1_d_b_base.html#a6659869a9f8ae3a071aa7c653a8f7ea7" target="_top" xlink:title=" ">
<polygon fill="white" stroke="black" points="1,-0.5 1,-19.5 212,-19.5 212,-0.5 1,-0.5"/>
<text text-anchor="middle" x="106.5" y="-7.5" font-family="Helvetica,sans-Serif" font-size="10.00">src.db_tools.db_class_defs.DBBase.__del__</text>
</a>
</g>
</g>
<!-- Node1&#45;&gt;Node3 -->
<g id="edge2" class="edge">
<title>Node1&#45;&gt;Node3</title>
<path fill="none" stroke="midnightblue" d="M238.49,-20C229.74,-19.33 220.94,-18.66 212.28,-18"/>
<polygon fill="midnightblue" stroke="midnightblue" points="238.5,-23.51 248.73,-20.78 239.03,-16.53 238.5,-23.51"/>
</g>
</g>
</svg>
