<?xml version="1.0" encoding="UTF-8" standalone="no"?>
<!DOCTYPE svg PUBLIC "-//W3C//DTD SVG 1.1//EN"
 "http://www.w3.org/Graphics/SVG/1.1/DTD/svg11.dtd">
<!-- Generated by graphviz version 2.47.1 (20210417.1919)
 -->
<!-- Title: src.body_extraction.cache_class_defs.MessageBodyDB Pages: 1 -->
<svg width="155pt" height="106pt"
 viewBox="0.00 0.00 155.00 106.00" xmlns="http://www.w3.org/2000/svg" xmlns:xlink="http://www.w3.org/1999/xlink">
<g id="graph0" class="graph" transform="scale(1 1) rotate(0) translate(4 102)">
<title>src.body_extraction.cache_class_defs.MessageBodyDB</title>
<polygon fill="white" stroke="transparent" points="-4,4 -4,-102 151,-102 151,4 -4,4"/>
<!-- Node1 -->
<g id="node1" class="node">
<title>Node1</title>
<g id="a_node1"><a xlink:title=" ">
<polygon fill="#bfbfbf" stroke="black" points="0,-0.5 0,-30.5 147,-30.5 147,-0.5 0,-0.5"/>
<text text-anchor="start" x="8" y="-18.5" font-family="Helvetica,sans-Serif" font-size="10.00">src.body_extraction.cache</text>
<text text-anchor="middle" x="73.5" y="-7.5" font-family="Helvetica,sans-Serif" font-size="10.00">_class_defs.MessageBodyDB</text>
</a>
</g>
</g>
<!-- Node2 -->
<g id="node2" class="node">
<title>Node2</title>
<g id="a_node2"><a xlink:href="classsrc_1_1db__tools_1_1db__class__defs_1_1_d_b_base.html" target="_top" xlink:title="The base class for our various custom database management classes.">
<polygon fill="white" stroke="black" points="17.5,-67.5 17.5,-97.5 129.5,-97.5 129.5,-67.5 17.5,-67.5"/>
<text text-anchor="start" x="25.5" y="-85.5" font-family="Helvetica,sans-Serif" font-size="10.00">src.db_tools.db_class</text>
<text text-anchor="middle" x="73.5" y="-74.5" font-family="Helvetica,sans-Serif" font-size="10.00">_defs.DBBase</text>
</a>
</g>
</g>
<!-- Node2&#45;&gt;Node1 -->
<g id="edge1" class="edge">
<title>Node2&#45;&gt;Node1</title>
<path fill="none" stroke="midnightblue" d="M73.5,-57.11C73.5,-48.15 73.5,-38.32 73.5,-30.58"/>
<polygon fill="midnightblue" stroke="midnightblue" points="70,-57.4 73.5,-67.4 77,-57.4 70,-57.4"/>
</g>
</g>
</svg>
