<?xml version="1.0" encoding="UTF-8" standalone="no"?>
<!DOCTYPE svg PUBLIC "-//W3C//DTD SVG 1.1//EN"
 "http://www.w3.org/Graphics/SVG/1.1/DTD/svg11.dtd">
<!-- Generated by graphviz version 2.47.1 (20210417.1919)
 -->
<!-- Title: src.utils.backup.custom_logger.LogManager.__getattribute__ Pages: 1 -->
<svg width="766pt" height="66pt"
 viewBox="0.00 0.00 766.00 66.00" xmlns="http://www.w3.org/2000/svg" xmlns:xlink="http://www.w3.org/1999/xlink">
<g id="graph0" class="graph" transform="scale(1 1) rotate(0) translate(4 62)">
<title>src.utils.backup.custom_logger.LogManager.__getattribute__</title>
<polygon fill="white" stroke="transparent" points="-4,4 -4,-62 762,-62 762,4 -4,4"/>
<!-- Node1 -->
<g id="node1" class="node">
<title>Node1</title>
<g id="a_node1"><a xlink:title=" ">
<polygon fill="#bfbfbf" stroke="black" points="0,-14 0,-44 212,-44 212,-14 0,-14"/>
<text text-anchor="start" x="8" y="-32" font-family="Helvetica,sans-Serif" font-size="10.00">src.utils.backup.custom_logger.LogManager.</text>
<text text-anchor="middle" x="106" y="-21" font-family="Helvetica,sans-Serif" font-size="10.00">__getattribute__</text>
</a>
</g>
</g>
<!-- Node2 -->
<g id="node2" class="node">
<title>Node2</title>
<g id="a_node2"><a xlink:href="namespacesrc_1_1utils_1_1backup_1_1custom__logger.html#ac6928a8a1836987261bc3742fb4816d9" target="_top" xlink:title=" ">
<polygon fill="white" stroke="black" points="248,-19.5 248,-38.5 464,-38.5 464,-19.5 248,-19.5"/>
<text text-anchor="middle" x="356" y="-26.5" font-family="Helvetica,sans-Serif" font-size="10.00">src.utils.backup.custom_logger._logger_setup</text>
</a>
</g>
</g>
<!-- Node1&#45;&gt;Node2 -->
<g id="edge1" class="edge">
<title>Node1&#45;&gt;Node2</title>
<path fill="none" stroke="midnightblue" d="M212.17,-29C220.53,-29 229,-29 237.43,-29"/>
<polygon fill="midnightblue" stroke="midnightblue" points="237.68,-32.5 247.68,-29 237.68,-25.5 237.68,-32.5"/>
</g>
<!-- Node3 -->
<g id="node3" class="node">
<title>Node3</title>
<g id="a_node3"><a xlink:href="namespacesrc_1_1utils_1_1backup_1_1custom__logger.html#a27daf7da0c7a0813a099e35e53e8d853" target="_top" xlink:title=" ">
<polygon fill="white" stroke="black" points="500,-38.5 500,-57.5 758,-57.5 758,-38.5 500,-38.5"/>
<text text-anchor="middle" x="629" y="-45.5" font-family="Helvetica,sans-Serif" font-size="10.00">src.utils.backup.custom_logger._build_default_formatter</text>
</a>
</g>
</g>
<!-- Node2&#45;&gt;Node3 -->
<g id="edge2" class="edge">
<title>Node2&#45;&gt;Node3</title>
<path fill="none" stroke="midnightblue" d="M464.11,-36.51C472.51,-37.1 481.06,-37.7 489.63,-38.3"/>
<polygon fill="midnightblue" stroke="midnightblue" points="489.47,-41.8 499.69,-39 489.96,-34.81 489.47,-41.8"/>
</g>
<!-- Node4 -->
<g id="node4" class="node">
<title>Node4</title>
<g id="a_node4"><a xlink:href="namespacesrc_1_1utils_1_1backup_1_1custom__logger.html#ad0bdcdf6528dc06e310f218ce95930d4" target="_top" xlink:title=" ">
<polygon fill="white" stroke="black" points="511,-0.5 511,-19.5 747,-19.5 747,-0.5 511,-0.5"/>
<text text-anchor="middle" x="629" y="-7.5" font-family="Helvetica,sans-Serif" font-size="10.00">src.utils.backup.custom_logger._configure_handler</text>
</a>
</g>
</g>
<!-- Node2&#45;&gt;Node4 -->
<g id="edge3" class="edge">
<title>Node2&#45;&gt;Node4</title>
<path fill="none" stroke="midnightblue" d="M464.11,-21.49C476.13,-20.65 488.46,-19.78 500.7,-18.92"/>
<polygon fill="midnightblue" stroke="midnightblue" points="501.23,-22.4 510.96,-18.21 500.74,-15.41 501.23,-22.4"/>
</g>
</g>
</svg>
