<?xml version="1.0" encoding="UTF-8" standalone="no"?>
<!DOCTYPE svg PUBLIC "-//W3C//DTD SVG 1.1//EN"
 "http://www.w3.org/Graphics/SVG/1.1/DTD/svg11.dtd">
<!-- Generated by graphviz version 2.47.1 (20210417.1919)
 -->
<!-- Title: src.db_tools.db_class_defs.DBBaseException Pages: 1 -->
<!--zoomable 370 -->
<svg id="main" version="1.1" xmlns="http://www.w3.org/2000/svg" xmlns:xlink="http://www.w3.org/1999/xlink" xml:space="preserve" onload="init(evt)">
<style type="text/css"><![CDATA[
.edge:hover path { stroke: red; }
.edge:hover polygon { stroke: red; fill: red; }
]]></style>
<script type="text/javascript"><![CDATA[
var edges = document.getElementsByTagName('g');
if (edges && edges.length) {
  for (var i=0;i<edges.length;i++) {
    if (edges[i].id.substr(0,4)=='edge') {
      edges[i].setAttribute('class','edge');
    }
  }
}
]]></script>
        <defs>
                <circle id="rim" cx="0" cy="0" r="7"/>
                <circle id="rim2" cx="0" cy="0" r="3.5"/>
                <g id="zoomPlus">
                        <use xlink:href="#rim" fill="#404040">
                                <set attributeName="fill" to="#808080" begin="zoomplus.mouseover" end="zoomplus.mouseout"/>
                        </use>
                        <path d="M-4,0h8M0,-4v8" fill="none" stroke="white" stroke-width="1.5" pointer-events="none"/>
                </g>
                <g id="zoomMin">
                        <use xlink:href="#rim" fill="#404040">
                                <set attributeName="fill" to="#808080" begin="zoomminus.mouseover" end="zoomminus.mouseout"/>
                        </use>
                        <path d="M-4,0h8" fill="none" stroke="white" stroke-width="1.5" pointer-events="none"/>
                </g>
                <g id="dirArrow">
                        <path fill="none" stroke="white" stroke-width="1.5" d="M0,-3.0v7 M-2.5,-0.5L0,-3.0L2.5,-0.5"/>
                </g>
               <g id="resetDef">
                       <use xlink:href="#rim2" fill="#404040">
                               <set attributeName="fill" to="#808080" begin="reset.mouseover" end="reset.mouseout"/>
                       </use>
               </g>
        </defs>

<script type="text/javascript">
var viewWidth = 642;
var viewHeight = 370;
var sectionId = 'dynsection-0';
</script>
<script xlink:href="svgpan.js"/>
<svg id="graph" class="graph">
<g id="viewport">
<title>src.db_tools.db_class_defs.DBBaseException</title>
<polygon fill="white" stroke="transparent" points="-4,4 -4,-366 638,-366 638,4 -4,4"/>
<!-- Node1 -->
<g id="node1" class="node">
<title>Node1</title>
<g id="a_node1"><a xlink:title="The custom database exception base class.">
<polygon fill="#bfbfbf" stroke="black" points="96,-171.5 96,-190.5 314,-190.5 314,-171.5 96,-171.5"/>
<text text-anchor="middle" x="205" y="-178.5" font-family="Helvetica,sans-Serif" font-size="10.00">src.db_tools.db_class_defs.DBBaseException</text>
</a>
</g>
</g>
<!-- Node3 -->
<g id="node3" class="node">
<title>Node3</title>
<g id="a_node3"><a xlink:href="classsrc_1_1body__extraction_1_1cache__class__defs_1_1_msg_body_d_b_exception.html" target="_top" xlink:title=" ">
<polygon fill="white" stroke="black" points="350,-342.5 350,-361.5 634,-361.5 634,-342.5 350,-342.5"/>
<text text-anchor="middle" x="492" y="-349.5" font-family="Helvetica,sans-Serif" font-size="10.00">src.body_extraction.cache_class_defs.MsgBodyDBException</text>
</a>
</g>
</g>
<!-- Node1&#45;&gt;Node3 -->
<g id="edge2" class="edge">
<title>Node1&#45;&gt;Node3</title>
<path fill="none" stroke="midnightblue" d="M217.14,-199.23C238.39,-232.22 288.16,-301.34 350,-333 357.37,-336.77 365.22,-339.88 373.3,-342.44"/>
<polygon fill="midnightblue" stroke="midnightblue" points="219.99,-197.19 211.7,-190.59 214.06,-200.92 219.99,-197.19"/>
</g>
<!-- Node4 -->
<g id="node4" class="node">
<title>Node4</title>
<g id="a_node4"><a xlink:href="classsrc_1_1db__tools_1_1db__class__defs_1_1_attach_failed_exception.html" target="_top" xlink:title="A custom exception class that we raise should something fishy occur while attaching a secondary DB to...">
<polygon fill="white" stroke="black" points="374,-304.5 374,-323.5 610,-323.5 610,-304.5 374,-304.5"/>
<text text-anchor="middle" x="492" y="-311.5" font-family="Helvetica,sans-Serif" font-size="10.00">src.db_tools.db_class_defs.AttachFailedException</text>
</a>
</g>
</g>
<!-- Node1&#45;&gt;Node4 -->
<g id="edge3" class="edge">
<title>Node1&#45;&gt;Node4</title>
<path fill="none" stroke="midnightblue" d="M221.64,-198.26C246.19,-224.12 296.51,-272.27 350,-295 359.09,-298.86 368.79,-301.98 378.67,-304.5"/>
<polygon fill="midnightblue" stroke="midnightblue" points="223.98,-195.64 214.61,-190.71 218.86,-200.42 223.98,-195.64"/>
</g>
<!-- Node5 -->
<g id="node5" class="node">
<title>Node5</title>
<g id="a_node5"><a xlink:href="classsrc_1_1db__tools_1_1db__class__defs_1_1_d_b_consolidation_exception.html" target="_top" xlink:title="A custom exception class that we raise should something fishy occur during the creation of a consolid...">
<polygon fill="white" stroke="black" points="365,-266.5 365,-285.5 619,-285.5 619,-266.5 365,-266.5"/>
<text text-anchor="middle" x="492" y="-273.5" font-family="Helvetica,sans-Serif" font-size="10.00">src.db_tools.db_class_defs.DBConsolidationException</text>
</a>
</g>
</g>
<!-- Node1&#45;&gt;Node5 -->
<g id="edge4" class="edge">
<title>Node1&#45;&gt;Node5</title>
<path fill="none" stroke="midnightblue" d="M228.43,-196.07C255.86,-213.71 304.28,-242.37 350,-257 362.23,-260.92 375.31,-264.02 388.39,-266.49"/>
<polygon fill="midnightblue" stroke="midnightblue" points="230.26,-193.08 219.97,-190.55 226.43,-198.94 230.26,-193.08"/>
</g>
<!-- Node6 -->
<g id="node6" class="node">
<title>Node6</title>
<g id="a_node6"><a xlink:href="classsrc_1_1db__tools_1_1db__class__defs_1_1_d_b_detach_exception.html" target="_top" xlink:title="A custom exception class that we raise if any sqlite3.OperationalError occur while detaching from a s...">
<polygon fill="white" stroke="black" points="379,-228.5 379,-247.5 605,-247.5 605,-228.5 379,-228.5"/>
<text text-anchor="middle" x="492" y="-235.5" font-family="Helvetica,sans-Serif" font-size="10.00">src.db_tools.db_class_defs.DBDetachException</text>
</a>
</g>
</g>
<!-- Node1&#45;&gt;Node6 -->
<g id="edge5" class="edge">
<title>Node1&#45;&gt;Node6</title>
<path fill="none" stroke="midnightblue" d="M247.14,-193.31C275.78,-201.52 314.95,-212.04 350,-219 368.41,-222.66 388.32,-225.81 407.21,-228.45"/>
<polygon fill="midnightblue" stroke="midnightblue" points="248.06,-189.93 237.48,-190.52 246.11,-196.66 248.06,-189.93"/>
</g>
<!-- Node7 -->
<g id="node7" class="node">
<title>Node7</title>
<g id="a_node7"><a xlink:href="classsrc_1_1db__tools_1_1db__class__defs_1_1_d_b_locked_exception.html" target="_top" xlink:title="A custom exception class that we raise when we detect a locked connection.">
<polygon fill="white" stroke="black" points="378.5,-190.5 378.5,-209.5 605.5,-209.5 605.5,-190.5 378.5,-190.5"/>
<text text-anchor="middle" x="492" y="-197.5" font-family="Helvetica,sans-Serif" font-size="10.00">src.db_tools.db_class_defs.DBLockedException</text>
</a>
</g>
</g>
<!-- Node1&#45;&gt;Node7 -->
<g id="edge6" class="edge">
<title>Node1&#45;&gt;Node7</title>
<path fill="none" stroke="midnightblue" d="M324.54,-188.9C342.29,-190.09 360.55,-191.3 378.18,-192.48"/>
<polygon fill="midnightblue" stroke="midnightblue" points="324.36,-185.38 314.15,-188.21 323.9,-192.37 324.36,-185.38"/>
</g>
<!-- Node8 -->
<g id="node8" class="node">
<title>Node8</title>
<g id="a_node8"><a xlink:href="classsrc_1_1db__tools_1_1db__class__defs_1_1_exit_exception.html" target="_top" xlink:title="A custom exception class that we raise should something fishy occur while exiting a DBBase context.">
<polygon fill="white" stroke="black" points="392.5,-152.5 392.5,-171.5 591.5,-171.5 591.5,-152.5 392.5,-152.5"/>
<text text-anchor="middle" x="492" y="-159.5" font-family="Helvetica,sans-Serif" font-size="10.00">src.db_tools.db_class_defs.ExitException</text>
</a>
</g>
</g>
<!-- Node1&#45;&gt;Node8 -->
<g id="edge7" class="edge">
<title>Node1&#45;&gt;Node8</title>
<path fill="none" stroke="midnightblue" d="M324.15,-173.12C346.81,-171.61 370.32,-170.05 392.29,-168.58"/>
<polygon fill="midnightblue" stroke="midnightblue" points="323.9,-169.63 314.15,-173.79 324.36,-176.62 323.9,-169.63"/>
</g>
<!-- Node9 -->
<g id="node9" class="node">
<title>Node9</title>
<g id="a_node9"><a xlink:href="classsrc_1_1db__tools_1_1db__class__defs_1_1_illegal_d_b_access_exception.html" target="_top" xlink:title=" ">
<polygon fill="white" stroke="black" points="365.5,-114.5 365.5,-133.5 618.5,-133.5 618.5,-114.5 365.5,-114.5"/>
<text text-anchor="middle" x="492" y="-121.5" font-family="Helvetica,sans-Serif" font-size="10.00">src.db_tools.db_class_defs.IllegalDBAccessException</text>
</a>
</g>
</g>
<!-- Node1&#45;&gt;Node9 -->
<g id="edge8" class="edge">
<title>Node1&#45;&gt;Node9</title>
<path fill="none" stroke="midnightblue" d="M247.14,-168.69C275.78,-160.48 314.95,-149.96 350,-143 368.41,-139.34 388.32,-136.19 407.21,-133.55"/>
<polygon fill="midnightblue" stroke="midnightblue" points="246.11,-165.34 237.48,-171.48 248.06,-172.07 246.11,-165.34"/>
</g>
<!-- Node10 -->
<g id="node10" class="node">
<title>Node10</title>
<g id="a_node10"><a xlink:href="classsrc_1_1db__tools_1_1db__class__defs_1_1_uninitialized_connection_exception.html" target="_top" xlink:title="A custom exception class that we raise should we create a new DBBase context before initializing the ...">
<polygon fill="white" stroke="black" points="350.5,-76.5 350.5,-95.5 633.5,-95.5 633.5,-76.5 350.5,-76.5"/>
<text text-anchor="middle" x="492" y="-83.5" font-family="Helvetica,sans-Serif" font-size="10.00">src.db_tools.db_class_defs.UninitializedConnectionException</text>
</a>
</g>
</g>
<!-- Node1&#45;&gt;Node10 -->
<g id="edge9" class="edge">
<title>Node1&#45;&gt;Node10</title>
<path fill="none" stroke="midnightblue" d="M228.43,-165.93C255.86,-148.29 304.28,-119.63 350,-105 362.23,-101.08 375.31,-97.98 388.39,-95.51"/>
<polygon fill="midnightblue" stroke="midnightblue" points="226.43,-163.06 219.97,-171.45 230.26,-168.92 226.43,-163.06"/>
</g>
<!-- Node11 -->
<g id="node11" class="node">
<title>Node11</title>
<g id="a_node11"><a xlink:href="classsrc_1_1email__caching_1_1cache__class__defs_1_1_email_d_b_exception.html" target="_top" xlink:title=" ">
<polygon fill="white" stroke="black" points="361.5,-38.5 361.5,-57.5 622.5,-57.5 622.5,-38.5 361.5,-38.5"/>
<text text-anchor="middle" x="492" y="-45.5" font-family="Helvetica,sans-Serif" font-size="10.00">src.email_caching.cache_class_defs.EmailDBException</text>
</a>
</g>
</g>
<!-- Node1&#45;&gt;Node11 -->
<g id="edge10" class="edge">
<title>Node1&#45;&gt;Node11</title>
<path fill="none" stroke="midnightblue" d="M221.64,-163.74C246.19,-137.88 296.51,-89.73 350,-67 359.09,-63.14 368.79,-60.02 378.67,-57.5"/>
<polygon fill="midnightblue" stroke="midnightblue" points="218.86,-161.58 214.61,-171.29 223.98,-166.36 218.86,-161.58"/>
</g>
<!-- Node12 -->
<g id="node12" class="node">
<title>Node12</title>
<g id="a_node12"><a xlink:href="classsrc_1_1lemma__extraction_1_1cache__class__defs_1_1_lemma_d_b_exception.html" target="_top" xlink:title=" ">
<polygon fill="white" stroke="black" points="350,-0.5 350,-19.5 634,-19.5 634,-0.5 350,-0.5"/>
<text text-anchor="middle" x="492" y="-7.5" font-family="Helvetica,sans-Serif" font-size="10.00">src.lemma_extraction.cache_class_defs.LemmaDBException</text>
</a>
</g>
</g>
<!-- Node1&#45;&gt;Node12 -->
<g id="edge11" class="edge">
<title>Node1&#45;&gt;Node12</title>
<path fill="none" stroke="midnightblue" d="M217.14,-162.77C238.39,-129.78 288.16,-60.66 350,-29 357.37,-25.23 365.22,-22.12 373.3,-19.56"/>
<polygon fill="midnightblue" stroke="midnightblue" points="214.06,-161.08 211.7,-171.41 219.99,-164.81 214.06,-161.08"/>
</g>
<!-- Node2 -->
<g id="node2" class="node">
<title>Node2</title>
<g id="a_node2"><a xlink:title=" ">
<polygon fill="white" stroke="#bfbfbf" points="0,-171.5 0,-190.5 60,-190.5 60,-171.5 0,-171.5"/>
<text text-anchor="middle" x="30" y="-178.5" font-family="Helvetica,sans-Serif" font-size="10.00">Exception</text>
</a>
</g>
</g>
<!-- Node2&#45;&gt;Node1 -->
<g id="edge1" class="edge">
<title>Node2&#45;&gt;Node1</title>
<path fill="none" stroke="midnightblue" d="M70.55,-181C78.4,-181 86.99,-181 95.91,-181"/>
<polygon fill="midnightblue" stroke="midnightblue" points="70.35,-177.5 60.35,-181 70.35,-184.5 70.35,-177.5"/>
</g>
</g>
</svg>
        <g id="navigator" transform="translate(0 0)" fill="#404254">
                <rect fill="#f2f5e9" fill-opacity="0.5" stroke="#606060" stroke-width=".5" x="0" y="0" width="60" height="60"/>
                <use id="zoomplus" xlink:href="#zoomPlus" x="17" y="9" onmousedown="handleZoom(evt,'in')"/>
                <use id="zoomminus" xlink:href="#zoomMin" x="42" y="9" onmousedown="handleZoom(evt,'out')"/>
                <use id="reset" xlink:href="#resetDef" x="30" y="36" onmousedown="handleReset()"/>
                <g id="arrowUp" xlink:href="#dirArrow" transform="translate(30 24)" onmousedown="handlePan(0,-1)">
                  <use xlink:href="#rim" fill="#404040">
                        <set attributeName="fill" to="#808080" begin="arrowUp.mouseover" end="arrowUp.mouseout"/>
                  </use>
                  <path fill="none" stroke="white" stroke-width="1.5" d="M0,-3.0v7 M-2.5,-0.5L0,-3.0L2.5,-0.5"/>
                </g>
                <g id="arrowRight" xlink:href="#dirArrow" transform="rotate(90) translate(36 -43)" onmousedown="handlePan(1,0)">
                  <use xlink:href="#rim" fill="#404040">
                        <set attributeName="fill" to="#808080" begin="arrowRight.mouseover" end="arrowRight.mouseout"/>
                  </use>
                  <path fill="none" stroke="white" stroke-width="1.5" d="M0,-3.0v7 M-2.5,-0.5L0,-3.0L2.5,-0.5"/>
                </g>
                <g id="arrowDown" xlink:href="#dirArrow" transform="rotate(180) translate(-30 -48)" onmousedown="handlePan(0,1)">
                  <use xlink:href="#rim" fill="#404040">
                        <set attributeName="fill" to="#808080" begin="arrowDown.mouseover" end="arrowDown.mouseout"/>
                  </use>
                  <path fill="none" stroke="white" stroke-width="1.5" d="M0,-3.0v7 M-2.5,-0.5L0,-3.0L2.5,-0.5"/>
                </g>
                <g id="arrowLeft" xlink:href="#dirArrow" transform="rotate(270) translate(-36 17)" onmousedown="handlePan(-1,0)">
                  <use xlink:href="#rim" fill="#404040">
                        <set attributeName="fill" to="#808080" begin="arrowLeft.mouseover" end="arrowLeft.mouseout"/>
                  </use>
                  <path fill="none" stroke="white" stroke-width="1.5" d="M0,-3.0v7 M-2.5,-0.5L0,-3.0L2.5,-0.5"/>
                </g>
        </g>
        <svg viewBox="0 0 15 15" width="100%" height="30px" preserveAspectRatio="xMaxYMin meet">
         <g id="arrow_out" transform="scale(0.3 0.3)">
          <a xlink:href="classsrc_1_1db__tools_1_1db__class__defs_1_1_d_b_base_exception__inherit__graph_org.svg" target="_base">
           <rect id="button" ry="5" rx="5" y="6" x="6" height="38" width="38"
                fill="#f2f5e9" fill-opacity="0.5" stroke="#606060" stroke-width="1.0"/>
           <path id="arrow"
             d="M 11.500037,31.436501 C 11.940474,20.09759 22.043105,11.32322 32.158766,21.979434 L 37.068811,17.246167 C 37.068811,17.246167 37.088388,32 37.088388,32 L 22.160133,31.978069 C 22.160133,31.978069 26.997745,27.140456 26.997745,27.140456 C 18.528582,18.264221 13.291696,25.230495 11.500037,31.436501 z"
             style="fill:#404040;"/>
          </a>
         </g>
        </svg>
</svg>
