<?xml version="1.0" encoding="UTF-8" standalone="no"?>
<!DOCTYPE svg PUBLIC "-//W3C//DTD SVG 1.1//EN"
 "http://www.w3.org/Graphics/SVG/1.1/DTD/svg11.dtd">
<!-- Generated by graphviz version 2.47.1 (20210417.1919)
 -->
<!-- Title: Graphical Class Hierarchy Pages: 1 -->
<svg width="553pt" height="160pt"
 viewBox="0.00 0.00 553.00 159.50" xmlns="http://www.w3.org/2000/svg" xmlns:xlink="http://www.w3.org/1999/xlink">
<g id="graph0" class="graph" transform="scale(1 1) rotate(0) translate(4 155.5)">
<title>Graphical Class Hierarchy</title>
<polygon fill="white" stroke="transparent" points="-4,4 -4,-155.5 549,-155.5 549,4 -4,4"/>
<!-- Node0 -->
<g id="node1" class="node">
<title>Node0</title>
<g id="a_node1"><a xlink:href="classsrc_1_1utils_1_1_j_pickle_serializable.html" target="_top" xlink:title="An abstract base class that represents a generic interface for custom class objects that will end up ...">
<polygon fill="white" stroke="black" points="0,-71.5 0,-90.5 136,-90.5 136,-71.5 0,-71.5"/>
<text text-anchor="middle" x="68" y="-78.5" font-family="Helvetica,sans-Serif" font-size="10.00">src.utils.JPickleSerializable</text>
</a>
</g>
</g>
<!-- Node1 -->
<g id="node2" class="node">
<title>Node1</title>
<g id="a_node2"><a xlink:href="classsrc_1_1email__caching_1_1cache__class__defs_1_1_email_item.html" target="_top" xlink:title=" ">
<polygon fill="white" stroke="black" points="188.5,-115 188.5,-145 313.5,-145 313.5,-115 188.5,-115"/>
<text text-anchor="start" x="196.5" y="-133" font-family="Helvetica,sans-Serif" font-size="10.00">src.email_caching.cache</text>
<text text-anchor="middle" x="251" y="-122" font-family="Helvetica,sans-Serif" font-size="10.00">_class_defs.EmailItem</text>
</a>
</g>
</g>
<!-- Node0&#45;&gt;Node1 -->
<g id="edge1" class="edge">
<title>Node0&#45;&gt;Node1</title>
<path fill="none" stroke="midnightblue" d="M114.03,-93.19C138.37,-99.78 168.65,-107.98 194.46,-114.96"/>
<polygon fill="midnightblue" stroke="midnightblue" points="114.9,-89.8 104.33,-90.56 113.07,-96.56 114.9,-89.8"/>
</g>
<!-- Node2 -->
<g id="node3" class="node">
<title>Node2</title>
<g id="a_node3"><a xlink:href="classsrc_1_1lemma__extraction_1_1word__extraction__classes_1_1_tagger_base.html" target="_top" xlink:title=" ">
<polygon fill="white" stroke="black" points="172,-66 172,-96 330,-96 330,-66 172,-66"/>
<text text-anchor="start" x="180" y="-84" font-family="Helvetica,sans-Serif" font-size="10.00">src.lemma_extraction.word</text>
<text text-anchor="middle" x="251" y="-73" font-family="Helvetica,sans-Serif" font-size="10.00">_extraction_classes.TaggerBase</text>
</a>
</g>
</g>
<!-- Node0&#45;&gt;Node2 -->
<g id="edge2" class="edge">
<title>Node0&#45;&gt;Node2</title>
<path fill="none" stroke="midnightblue" d="M146.38,-81C154.85,-81 163.49,-81 171.97,-81"/>
<polygon fill="midnightblue" stroke="midnightblue" points="146.14,-77.5 136.14,-81 146.14,-84.5 146.14,-77.5"/>
</g>
<!-- Node6 -->
<g id="node7" class="node">
<title>Node6</title>
<g id="a_node7"><a xlink:href="classsrc_1_1utils_1_1_tagger_base.html" target="_top" xlink:title="An extension of the JPickleSerializable interface that ensures our custom classes can properly handle...">
<polygon fill="white" stroke="black" points="198,-27.5 198,-46.5 304,-46.5 304,-27.5 198,-27.5"/>
<text text-anchor="middle" x="251" y="-34.5" font-family="Helvetica,sans-Serif" font-size="10.00">src.utils.TaggerBase</text>
</a>
</g>
</g>
<!-- Node0&#45;&gt;Node6 -->
<g id="edge6" class="edge">
<title>Node0&#45;&gt;Node6</title>
<path fill="none" stroke="midnightblue" d="M118.24,-69.03C147.33,-61.96 183.66,-53.13 210.8,-46.53"/>
<polygon fill="midnightblue" stroke="midnightblue" points="117.16,-65.69 108.27,-71.45 118.82,-72.49 117.16,-65.69"/>
</g>
<!-- Node3 -->
<g id="node4" class="node">
<title>Node3</title>
<g id="a_node4"><a xlink:href="classsrc_1_1lemma__extraction_1_1word__extraction__classes_1_1_lemma_extractor.html" target="_top" xlink:title=" ">
<polygon fill="white" stroke="black" points="366,-121 366,-151 545,-151 545,-121 366,-121"/>
<text text-anchor="start" x="374" y="-139" font-family="Helvetica,sans-Serif" font-size="10.00">src.lemma_extraction.word</text>
<text text-anchor="middle" x="455.5" y="-128" font-family="Helvetica,sans-Serif" font-size="10.00">_extraction_classes.LemmaExtractor</text>
</a>
</g>
</g>
<!-- Node2&#45;&gt;Node3 -->
<g id="edge3" class="edge">
<title>Node2&#45;&gt;Node3</title>
<path fill="none" stroke="midnightblue" d="M317.26,-98.73C343.7,-105.91 373.91,-114.11 399.23,-120.99"/>
<polygon fill="midnightblue" stroke="midnightblue" points="317.9,-95.27 307.33,-96.03 316.07,-102.03 317.9,-95.27"/>
</g>
<!-- Node4 -->
<g id="node5" class="node">
<title>Node4</title>
<g id="a_node5"><a xlink:href="classsrc_1_1lemma__extraction_1_1word__extraction__classes_1_1_message_body_tagging.html" target="_top" xlink:title=" ">
<polygon fill="white" stroke="black" points="371,-60.5 371,-101.5 540,-101.5 540,-60.5 371,-60.5"/>
<text text-anchor="start" x="379" y="-89.5" font-family="Helvetica,sans-Serif" font-size="10.00">src.lemma_extraction.word</text>
<text text-anchor="start" x="379" y="-78.5" font-family="Helvetica,sans-Serif" font-size="10.00">_extraction_classes.MessageBody</text>
<text text-anchor="middle" x="455.5" y="-67.5" font-family="Helvetica,sans-Serif" font-size="10.00">Tagging</text>
</a>
</g>
</g>
<!-- Node2&#45;&gt;Node4 -->
<g id="edge4" class="edge">
<title>Node2&#45;&gt;Node4</title>
<path fill="none" stroke="midnightblue" d="M340.12,-81C350.32,-81 360.69,-81 370.82,-81"/>
<polygon fill="midnightblue" stroke="midnightblue" points="340,-77.5 330,-81 340,-84.5 340,-77.5"/>
</g>
<!-- Node5 -->
<g id="node6" class="node">
<title>Node5</title>
<g id="a_node6"><a xlink:href="classsrc_1_1lemma__extraction_1_1word__extraction__classes_1_1_sentence_word_tagger.html" target="_top" xlink:title=" ">
<polygon fill="white" stroke="black" points="370,-0.5 370,-41.5 541,-41.5 541,-0.5 370,-0.5"/>
<text text-anchor="start" x="378" y="-29.5" font-family="Helvetica,sans-Serif" font-size="10.00">src.lemma_extraction.word</text>
<text text-anchor="start" x="378" y="-18.5" font-family="Helvetica,sans-Serif" font-size="10.00">_extraction_classes.SentenceWord</text>
<text text-anchor="middle" x="455.5" y="-7.5" font-family="Helvetica,sans-Serif" font-size="10.00">Tagger</text>
</a>
</g>
</g>
<!-- Node2&#45;&gt;Node5 -->
<g id="edge5" class="edge">
<title>Node2&#45;&gt;Node5</title>
<path fill="none" stroke="midnightblue" d="M312.44,-63.09C335.35,-56.3 361.61,-48.52 385.27,-41.51"/>
<polygon fill="midnightblue" stroke="midnightblue" points="311.43,-59.74 302.84,-65.94 313.42,-66.45 311.43,-59.74"/>
</g>
</g>
</svg>
