<?xml version="1.0" encoding="UTF-8" standalone="no"?>
<!DOCTYPE svg PUBLIC "-//W3C//DTD SVG 1.1//EN"
 "http://www.w3.org/Graphics/SVG/1.1/DTD/svg11.dtd">
<!-- Generated by graphviz version 2.47.1 (20210417.1919)
 -->
<!-- Title: Graphical Class Hierarchy Pages: 1 -->
<svg width="642pt" height="560pt"
 viewBox="0.00 0.00 642.00 560.00" xmlns="http://www.w3.org/2000/svg" xmlns:xlink="http://www.w3.org/1999/xlink">
<g id="graph0" class="graph" transform="scale(1 1) rotate(0) translate(4 556)">
<title>Graphical Class Hierarchy</title>
<polygon fill="white" stroke="transparent" points="-4,4 -4,-556 638,-556 638,4 -4,4"/>
<!-- Node14 -->
<g id="node1" class="node">
<title>Node14</title>
<g id="a_node1"><a xlink:title=" ">
<polygon fill="white" stroke="#bfbfbf" points="0,-209.5 0,-228.5 60,-228.5 60,-209.5 0,-209.5"/>
<text text-anchor="middle" x="30" y="-216.5" font-family="Helvetica,sans-Serif" font-size="10.00">Exception</text>
</a>
</g>
</g>
<!-- Node0 -->
<g id="node2" class="node">
<title>Node0</title>
<g id="a_node2"><a xlink:href="classsrc_1_1db__tools_1_1db__class__defs_1_1_d_b_base_exception.html" target="_top" xlink:title="The custom database exception base class.">
<polygon fill="white" stroke="black" points="96,-342.5 96,-361.5 314,-361.5 314,-342.5 96,-342.5"/>
<text text-anchor="middle" x="205" y="-349.5" font-family="Helvetica,sans-Serif" font-size="10.00">src.db_tools.db_class_defs.DBBaseException</text>
</a>
</g>
</g>
<!-- Node14&#45;&gt;Node0 -->
<g id="edge1" class="edge">
<title>Node14&#45;&gt;Node0</title>
<path fill="none" stroke="midnightblue" d="M51.79,-234.98C87.99,-262.82 161.57,-319.38 191.2,-342.16"/>
<polygon fill="midnightblue" stroke="midnightblue" points="53.5,-231.89 43.44,-228.57 49.24,-237.43 53.5,-231.89"/>
</g>
<!-- Node26 -->
<g id="node13" class="node">
<title>Node26</title>
<g id="a_node13"><a xlink:href="classsrc_1_1eralchemy_1_1parser_1_1_parsing_exception.html" target="_top" xlink:title=" ">
<polygon fill="white" stroke="black" points="111,-95.5 111,-114.5 299,-114.5 299,-95.5 111,-95.5"/>
<text text-anchor="middle" x="205" y="-102.5" font-family="Helvetica,sans-Serif" font-size="10.00">src.eralchemy.parser.ParsingException</text>
</a>
</g>
</g>
<!-- Node14&#45;&gt;Node26 -->
<g id="edge12" class="edge">
<title>Node14&#45;&gt;Node26</title>
<path fill="none" stroke="midnightblue" d="M53.86,-203.93C89.92,-180.17 159,-134.66 189.22,-114.74"/>
<polygon fill="midnightblue" stroke="midnightblue" points="51.88,-201.05 45.45,-209.48 55.73,-206.9 51.88,-201.05"/>
</g>
<!-- Node1 -->
<g id="node3" class="node">
<title>Node1</title>
<g id="a_node3"><a xlink:href="classsrc_1_1body__extraction_1_1cache__class__defs_1_1_msg_body_d_b_exception.html" target="_top" xlink:title=" ">
<polygon fill="white" stroke="black" points="350,-532.5 350,-551.5 634,-551.5 634,-532.5 350,-532.5"/>
<text text-anchor="middle" x="492" y="-539.5" font-family="Helvetica,sans-Serif" font-size="10.00">src.body_extraction.cache_class_defs.MsgBodyDBException</text>
</a>
</g>
</g>
<!-- Node0&#45;&gt;Node1 -->
<g id="edge2" class="edge">
<title>Node0&#45;&gt;Node1</title>
<path fill="none" stroke="midnightblue" d="M215.7,-370.97C235.45,-407.41 284.08,-486.78 350,-523 356.82,-526.75 364.09,-529.86 371.61,-532.44"/>
<polygon fill="midnightblue" stroke="midnightblue" points="218.68,-369.11 210.91,-361.91 212.49,-372.38 218.68,-369.11"/>
</g>
<!-- Node2 -->
<g id="node4" class="node">
<title>Node2</title>
<g id="a_node4"><a xlink:href="classsrc_1_1db__tools_1_1db__class__defs_1_1_attach_failed_exception.html" target="_top" xlink:title="A custom exception class that we raise should something fishy occur while attaching a secondary DB to...">
<polygon fill="white" stroke="black" points="374,-494.5 374,-513.5 610,-513.5 610,-494.5 374,-494.5"/>
<text text-anchor="middle" x="492" y="-501.5" font-family="Helvetica,sans-Serif" font-size="10.00">src.db_tools.db_class_defs.AttachFailedException</text>
</a>
</g>
</g>
<!-- Node0&#45;&gt;Node2 -->
<g id="edge3" class="edge">
<title>Node0&#45;&gt;Node2</title>
<path fill="none" stroke="midnightblue" d="M219.31,-370.02C242.29,-399.62 292.51,-457.95 350,-485 358.05,-488.79 366.62,-491.88 375.41,-494.41"/>
<polygon fill="midnightblue" stroke="midnightblue" points="221.91,-367.66 213.07,-361.82 216.34,-371.9 221.91,-367.66"/>
</g>
<!-- Node3 -->
<g id="node5" class="node">
<title>Node3</title>
<g id="a_node5"><a xlink:href="classsrc_1_1db__tools_1_1db__class__defs_1_1_d_b_consolidation_exception.html" target="_top" xlink:title="A custom exception class that we raise should something fishy occur during the creation of a consolid...">
<polygon fill="white" stroke="black" points="365,-456.5 365,-475.5 619,-475.5 619,-456.5 365,-456.5"/>
<text text-anchor="middle" x="492" y="-463.5" font-family="Helvetica,sans-Serif" font-size="10.00">src.db_tools.db_class_defs.DBConsolidationException</text>
</a>
</g>
</g>
<!-- Node0&#45;&gt;Node3 -->
<g id="edge4" class="edge">
<title>Node0&#45;&gt;Node3</title>
<path fill="none" stroke="midnightblue" d="M224.5,-368.25C250.53,-390.11 300.36,-428.4 350,-447 360.29,-450.86 371.27,-453.95 382.38,-456.42"/>
<polygon fill="midnightblue" stroke="midnightblue" points="226.49,-365.35 216.62,-361.51 221.95,-370.67 226.49,-365.35"/>
</g>
<!-- Node4 -->
<g id="node6" class="node">
<title>Node4</title>
<g id="a_node6"><a xlink:href="classsrc_1_1db__tools_1_1db__class__defs_1_1_d_b_detach_exception.html" target="_top" xlink:title="A custom exception class that we raise if any sqlite3.OperationalError occur while detaching from a s...">
<polygon fill="white" stroke="black" points="379,-418.5 379,-437.5 605,-437.5 605,-418.5 379,-418.5"/>
<text text-anchor="middle" x="492" y="-425.5" font-family="Helvetica,sans-Serif" font-size="10.00">src.db_tools.db_class_defs.DBDetachException</text>
</a>
</g>
</g>
<!-- Node0&#45;&gt;Node4 -->
<g id="edge5" class="edge">
<title>Node0&#45;&gt;Node4</title>
<path fill="none" stroke="midnightblue" d="M235.39,-366.09C264,-379.21 309.04,-398.3 350,-409 364.82,-412.87 380.73,-415.98 396.33,-418.47"/>
<polygon fill="midnightblue" stroke="midnightblue" points="236.53,-362.76 225.98,-361.72 233.58,-369.11 236.53,-362.76"/>
</g>
<!-- Node5 -->
<g id="node7" class="node">
<title>Node5</title>
<g id="a_node7"><a xlink:href="classsrc_1_1db__tools_1_1db__class__defs_1_1_d_b_locked_exception.html" target="_top" xlink:title="A custom exception class that we raise when we detect a locked connection.">
<polygon fill="white" stroke="black" points="378.5,-380.5 378.5,-399.5 605.5,-399.5 605.5,-380.5 378.5,-380.5"/>
<text text-anchor="middle" x="492" y="-387.5" font-family="Helvetica,sans-Serif" font-size="10.00">src.db_tools.db_class_defs.DBLockedException</text>
</a>
</g>
</g>
<!-- Node0&#45;&gt;Node5 -->
<g id="edge6" class="edge">
<title>Node0&#45;&gt;Node5</title>
<path fill="none" stroke="midnightblue" d="M287.65,-362.89C329.25,-368.43 379.35,-375.11 419.42,-380.46"/>
<polygon fill="midnightblue" stroke="midnightblue" points="287.92,-359.39 277.55,-361.54 287,-366.33 287.92,-359.39"/>
</g>
<!-- Node6 -->
<g id="node8" class="node">
<title>Node6</title>
<g id="a_node8"><a xlink:href="classsrc_1_1db__tools_1_1db__class__defs_1_1_exit_exception.html" target="_top" xlink:title="A custom exception class that we raise should something fishy occur while exiting a DBBase context.">
<polygon fill="white" stroke="black" points="392.5,-342.5 392.5,-361.5 591.5,-361.5 591.5,-342.5 392.5,-342.5"/>
<text text-anchor="middle" x="492" y="-349.5" font-family="Helvetica,sans-Serif" font-size="10.00">src.db_tools.db_class_defs.ExitException</text>
</a>
</g>
</g>
<!-- Node0&#45;&gt;Node6 -->
<g id="edge7" class="edge">
<title>Node0&#45;&gt;Node6</title>
<path fill="none" stroke="midnightblue" d="M324.45,-352C347.02,-352 370.42,-352 392.29,-352"/>
<polygon fill="midnightblue" stroke="midnightblue" points="324.15,-348.5 314.15,-352 324.15,-355.5 324.15,-348.5"/>
</g>
<!-- Node7 -->
<g id="node9" class="node">
<title>Node7</title>
<g id="a_node9"><a xlink:href="classsrc_1_1db__tools_1_1db__class__defs_1_1_illegal_d_b_access_exception.html" target="_top" xlink:title=" ">
<polygon fill="white" stroke="black" points="365.5,-304.5 365.5,-323.5 618.5,-323.5 618.5,-304.5 365.5,-304.5"/>
<text text-anchor="middle" x="492" y="-311.5" font-family="Helvetica,sans-Serif" font-size="10.00">src.db_tools.db_class_defs.IllegalDBAccessException</text>
</a>
</g>
</g>
<!-- Node0&#45;&gt;Node7 -->
<g id="edge8" class="edge">
<title>Node0&#45;&gt;Node7</title>
<path fill="none" stroke="midnightblue" d="M287.65,-341.11C329.25,-335.57 379.35,-328.89 419.42,-323.54"/>
<polygon fill="midnightblue" stroke="midnightblue" points="287,-337.67 277.55,-342.46 287.92,-344.61 287,-337.67"/>
</g>
<!-- Node8 -->
<g id="node10" class="node">
<title>Node8</title>
<g id="a_node10"><a xlink:href="classsrc_1_1db__tools_1_1db__class__defs_1_1_uninitialized_connection_exception.html" target="_top" xlink:title="A custom exception class that we raise should we create a new DBBase context before initializing the ...">
<polygon fill="white" stroke="black" points="350.5,-266.5 350.5,-285.5 633.5,-285.5 633.5,-266.5 350.5,-266.5"/>
<text text-anchor="middle" x="492" y="-273.5" font-family="Helvetica,sans-Serif" font-size="10.00">src.db_tools.db_class_defs.UninitializedConnectionException</text>
</a>
</g>
</g>
<!-- Node0&#45;&gt;Node8 -->
<g id="edge9" class="edge">
<title>Node0&#45;&gt;Node8</title>
<path fill="none" stroke="midnightblue" d="M235.39,-337.91C264,-324.79 309.04,-305.7 350,-295 364.82,-291.13 380.73,-288.02 396.33,-285.53"/>
<polygon fill="midnightblue" stroke="midnightblue" points="233.58,-334.89 225.98,-342.28 236.53,-341.24 233.58,-334.89"/>
</g>
<!-- Node9 -->
<g id="node11" class="node">
<title>Node9</title>
<g id="a_node11"><a xlink:href="classsrc_1_1email__caching_1_1cache__class__defs_1_1_email_d_b_exception.html" target="_top" xlink:title=" ">
<polygon fill="white" stroke="black" points="361.5,-228.5 361.5,-247.5 622.5,-247.5 622.5,-228.5 361.5,-228.5"/>
<text text-anchor="middle" x="492" y="-235.5" font-family="Helvetica,sans-Serif" font-size="10.00">src.email_caching.cache_class_defs.EmailDBException</text>
</a>
</g>
</g>
<!-- Node0&#45;&gt;Node9 -->
<g id="edge10" class="edge">
<title>Node0&#45;&gt;Node9</title>
<path fill="none" stroke="midnightblue" d="M224.5,-335.75C250.53,-313.89 300.36,-275.6 350,-257 360.29,-253.14 371.27,-250.05 382.38,-247.58"/>
<polygon fill="midnightblue" stroke="midnightblue" points="221.95,-333.33 216.62,-342.49 226.49,-338.65 221.95,-333.33"/>
</g>
<!-- Node10 -->
<g id="node12" class="node">
<title>Node10</title>
<g id="a_node12"><a xlink:href="classsrc_1_1lemma__extraction_1_1cache__class__defs_1_1_lemma_d_b_exception.html" target="_top" xlink:title=" ">
<polygon fill="white" stroke="black" points="350,-190.5 350,-209.5 634,-209.5 634,-190.5 350,-190.5"/>
<text text-anchor="middle" x="492" y="-197.5" font-family="Helvetica,sans-Serif" font-size="10.00">src.lemma_extraction.cache_class_defs.LemmaDBException</text>
</a>
</g>
</g>
<!-- Node0&#45;&gt;Node10 -->
<g id="edge11" class="edge">
<title>Node0&#45;&gt;Node10</title>
<path fill="none" stroke="midnightblue" d="M219.31,-333.98C242.29,-304.38 292.51,-246.05 350,-219 358.05,-215.21 366.62,-212.12 375.41,-209.59"/>
<polygon fill="midnightblue" stroke="midnightblue" points="216.34,-332.1 213.07,-342.18 221.91,-336.34 216.34,-332.1"/>
</g>
<!-- Node27 -->
<g id="node14" class="node">
<title>Node27</title>
<g id="a_node14"><a xlink:href="classsrc_1_1eralchemy_1_1parser_1_1_duplicate_column_exception.html" target="_top" xlink:title=" ">
<polygon fill="white" stroke="black" points="378,-152.5 378,-171.5 606,-171.5 606,-152.5 378,-152.5"/>
<text text-anchor="middle" x="492" y="-159.5" font-family="Helvetica,sans-Serif" font-size="10.00">src.eralchemy.parser.DuplicateColumnException</text>
</a>
</g>
</g>
<!-- Node26&#45;&gt;Node27 -->
<g id="edge13" class="edge">
<title>Node26&#45;&gt;Node27</title>
<path fill="none" stroke="midnightblue" d="M247.14,-117.31C275.78,-125.52 314.95,-136.04 350,-143 368.41,-146.66 388.32,-149.81 407.21,-152.45"/>
<polygon fill="midnightblue" stroke="midnightblue" points="248.06,-113.93 237.48,-114.52 246.11,-120.66 248.06,-113.93"/>
</g>
<!-- Node28 -->
<g id="node15" class="node">
<title>Node28</title>
<g id="a_node15"><a xlink:href="classsrc_1_1eralchemy_1_1parser_1_1_duplicate_table_exception.html" target="_top" xlink:title=" ">
<polygon fill="white" stroke="black" points="383,-114.5 383,-133.5 601,-133.5 601,-114.5 383,-114.5"/>
<text text-anchor="middle" x="492" y="-121.5" font-family="Helvetica,sans-Serif" font-size="10.00">src.eralchemy.parser.DuplicateTableException</text>
</a>
</g>
</g>
<!-- Node26&#45;&gt;Node28 -->
<g id="edge14" class="edge">
<title>Node26&#45;&gt;Node28</title>
<path fill="none" stroke="midnightblue" d="M309.45,-111.9C333.33,-113.49 358.8,-115.19 382.87,-116.79"/>
<polygon fill="midnightblue" stroke="midnightblue" points="309.53,-108.39 299.32,-111.22 309.06,-115.38 309.53,-108.39"/>
</g>
<!-- Node29 -->
<g id="node16" class="node">
<title>Node29</title>
<g id="a_node16"><a xlink:href="classsrc_1_1eralchemy_1_1parser_1_1_e_r_alchemy_line_parse_error.html" target="_top" xlink:title=" ">
<polygon fill="white" stroke="black" points="378.5,-76.5 378.5,-95.5 605.5,-95.5 605.5,-76.5 378.5,-76.5"/>
<text text-anchor="middle" x="492" y="-83.5" font-family="Helvetica,sans-Serif" font-size="10.00">src.eralchemy.parser.ERAlchemyLineParseError</text>
</a>
</g>
</g>
<!-- Node26&#45;&gt;Node29 -->
<g id="edge15" class="edge">
<title>Node26&#45;&gt;Node29</title>
<path fill="none" stroke="midnightblue" d="M309.49,-98.1C331.87,-96.61 355.63,-95.02 378.34,-93.51"/>
<polygon fill="midnightblue" stroke="midnightblue" points="309.06,-94.62 299.32,-98.78 309.53,-101.61 309.06,-94.62"/>
</g>
<!-- Node30 -->
<g id="node17" class="node">
<title>Node30</title>
<g id="a_node17"><a xlink:href="classsrc_1_1eralchemy_1_1parser_1_1_no_current_table_exception.html" target="_top" xlink:title=" ">
<polygon fill="white" stroke="black" points="381.5,-38.5 381.5,-57.5 602.5,-57.5 602.5,-38.5 381.5,-38.5"/>
<text text-anchor="middle" x="492" y="-45.5" font-family="Helvetica,sans-Serif" font-size="10.00">src.eralchemy.parser.NoCurrentTableException</text>
</a>
</g>
</g>
<!-- Node26&#45;&gt;Node30 -->
<g id="edge16" class="edge">
<title>Node26&#45;&gt;Node30</title>
<path fill="none" stroke="midnightblue" d="M247.14,-92.69C275.78,-84.48 314.95,-73.96 350,-67 368.41,-63.34 388.32,-60.19 407.21,-57.55"/>
<polygon fill="midnightblue" stroke="midnightblue" points="246.11,-89.34 237.48,-95.48 248.06,-96.07 246.11,-89.34"/>
</g>
<!-- Node31 -->
<g id="node18" class="node">
<title>Node31</title>
<g id="a_node18"><a xlink:href="classsrc_1_1eralchemy_1_1parser_1_1_relation_no_col_exception.html" target="_top" xlink:title=" ">
<polygon fill="white" stroke="black" points="384,-0.5 384,-19.5 600,-19.5 600,-0.5 384,-0.5"/>
<text text-anchor="middle" x="492" y="-7.5" font-family="Helvetica,sans-Serif" font-size="10.00">src.eralchemy.parser.RelationNoColException</text>
</a>
</g>
</g>
<!-- Node26&#45;&gt;Node31 -->
<g id="edge17" class="edge">
<title>Node26&#45;&gt;Node31</title>
<path fill="none" stroke="midnightblue" d="M228.43,-89.93C255.86,-72.29 304.28,-43.63 350,-29 362.23,-25.08 375.31,-21.98 388.39,-19.51"/>
<polygon fill="midnightblue" stroke="midnightblue" points="226.43,-87.06 219.97,-95.45 230.26,-92.92 226.43,-87.06"/>
</g>
</g>
</svg>
