<?xml version="1.0" encoding="UTF-8" standalone="no"?>
<!DOCTYPE svg PUBLIC "-//W3C//DTD SVG 1.1//EN"
 "http://www.w3.org/Graphics/SVG/1.1/DTD/svg11.dtd">
<!-- Generated by graphviz version 2.47.1 (20210417.1919)
 -->
<!-- Title: src.eralchemy.main.cli Pages: 1 -->
<!--zoomable 225 -->
<svg id="main" version="1.1" xmlns="http://www.w3.org/2000/svg" xmlns:xlink="http://www.w3.org/1999/xlink" xml:space="preserve" onload="init(evt)">
<style type="text/css"><![CDATA[
.edge:hover path { stroke: red; }
.edge:hover polygon { stroke: red; fill: red; }
]]></style>
<script type="text/javascript"><![CDATA[
var edges = document.getElementsByTagName('g');
if (edges && edges.length) {
  for (var i=0;i<edges.length;i++) {
    if (edges[i].id.substr(0,4)=='edge') {
      edges[i].setAttribute('class','edge');
    }
  }
}
]]></script>
        <defs>
                <circle id="rim" cx="0" cy="0" r="7"/>
                <circle id="rim2" cx="0" cy="0" r="3.5"/>
                <g id="zoomPlus">
                        <use xlink:href="#rim" fill="#404040">
                                <set attributeName="fill" to="#808080" begin="zoomplus.mouseover" end="zoomplus.mouseout"/>
                        </use>
                        <path d="M-4,0h8M0,-4v8" fill="none" stroke="white" stroke-width="1.5" pointer-events="none"/>
                </g>
                <g id="zoomMin">
                        <use xlink:href="#rim" fill="#404040">
                                <set attributeName="fill" to="#808080" begin="zoomminus.mouseover" end="zoomminus.mouseout"/>
                        </use>
                        <path d="M-4,0h8" fill="none" stroke="white" stroke-width="1.5" pointer-events="none"/>
                </g>
                <g id="dirArrow">
                        <path fill="none" stroke="white" stroke-width="1.5" d="M0,-3.0v7 M-2.5,-0.5L0,-3.0L2.5,-0.5"/>
                </g>
               <g id="resetDef">
                       <use xlink:href="#rim2" fill="#404040">
                               <set attributeName="fill" to="#808080" begin="reset.mouseover" end="reset.mouseout"/>
                       </use>
               </g>
        </defs>

<script type="text/javascript">
var viewWidth = 2016;
var viewHeight = 225;
var sectionId = 'dynsection-4';
</script>
<script xlink:href="svgpan.js"/>
<svg id="graph" class="graph">
<g id="viewport">
<title>src.eralchemy.main.cli</title>
<polygon fill="white" stroke="transparent" points="-4,4 -4,-221 2012,-221 2012,4 -4,4"/>
<!-- Node1 -->
<g id="node1" class="node">
<title>Node1</title>
<g id="a_node1"><a xlink:title=" ">
<polygon fill="#bfbfbf" stroke="black" points="0,-102.5 0,-121.5 115,-121.5 115,-102.5 0,-102.5"/>
<text text-anchor="middle" x="57.5" y="-109.5" font-family="Helvetica,sans-Serif" font-size="10.00">src.eralchemy.main.cli</text>
</a>
</g>
</g>
<!-- Node2 -->
<g id="node2" class="node">
<title>Node2</title>
<g id="a_node2"><a xlink:href="namespacesrc_1_1body__extraction_1_1cli__entry.html#aecd587b23033196155b2e453464a7293" target="_top" xlink:title=" ">
<polygon fill="white" stroke="black" points="151,-159.5 151,-178.5 346,-178.5 346,-159.5 151,-159.5"/>
<text text-anchor="middle" x="248.5" y="-166.5" font-family="Helvetica,sans-Serif" font-size="10.00">src.body_extraction.cli_entry.check_args</text>
</a>
</g>
</g>
<!-- Node1&#45;&gt;Node2 -->
<g id="edge1" class="edge">
<title>Node1&#45;&gt;Node2</title>
<path fill="none" stroke="midnightblue" d="M78.66,-121.62C97.12,-130.11 125.4,-142.3 151,-150 160.1,-152.74 169.81,-155.18 179.43,-157.33"/>
<polygon fill="midnightblue" stroke="midnightblue" points="178.88,-160.79 189.39,-159.47 180.34,-153.95 178.88,-160.79"/>
</g>
<!-- Node6 -->
<g id="node6" class="node">
<title>Node6</title>
<g id="a_node6"><a xlink:href="namespacesrc_1_1eralchemy_1_1main.html#a921a1f50101a96f712c68b47137e85f3" target="_top" xlink:title=" ">
<polygon fill="white" stroke="black" points="166.5,-121.5 166.5,-140.5 330.5,-140.5 330.5,-121.5 166.5,-121.5"/>
<text text-anchor="middle" x="248.5" y="-128.5" font-family="Helvetica,sans-Serif" font-size="10.00">src.eralchemy.main.get_argparser</text>
</a>
</g>
</g>
<!-- Node1&#45;&gt;Node6 -->
<g id="edge5" class="edge">
<title>Node1&#45;&gt;Node6</title>
<path fill="none" stroke="midnightblue" d="M115.21,-117.7C128.16,-119 142.24,-120.42 156.23,-121.82"/>
<polygon fill="midnightblue" stroke="midnightblue" points="156.08,-125.33 166.38,-122.84 156.78,-118.36 156.08,-125.33"/>
</g>
<!-- Node7 -->
<g id="node7" class="node">
<title>Node7</title>
<g id="a_node7"><a xlink:href="namespacesrc_1_1eralchemy_1_1main.html#a5387e0a7c14b44fd86de8ede390bed04" target="_top" xlink:title=" ">
<polygon fill="white" stroke="black" points="175.5,-83.5 175.5,-102.5 321.5,-102.5 321.5,-83.5 175.5,-83.5"/>
<text text-anchor="middle" x="248.5" y="-90.5" font-family="Helvetica,sans-Serif" font-size="10.00">src.eralchemy.main.render_er</text>
</a>
</g>
</g>
<!-- Node1&#45;&gt;Node7 -->
<g id="edge6" class="edge">
<title>Node1&#45;&gt;Node7</title>
<path fill="none" stroke="midnightblue" d="M97.66,-102.47C117.24,-99.57 141.72,-96.74 165.19,-94.58"/>
<polygon fill="midnightblue" stroke="midnightblue" points="165.51,-98.06 175.16,-93.69 164.89,-91.09 165.51,-98.06"/>
</g>
<!-- Node3 -->
<g id="node3" class="node">
<title>Node3</title>
<g id="a_node3"><a xlink:href="namespacesrc_1_1body__extraction_1_1cli__entry.html#a74f24adbe2969f94f9d747c25a387dc9" target="_top" xlink:title=" ">
<polygon fill="white" stroke="black" points="382,-197.5 382,-216.5 644,-216.5 644,-197.5 382,-197.5"/>
<text text-anchor="middle" x="513" y="-204.5" font-family="Helvetica,sans-Serif" font-size="10.00">src.body_extraction.cli_entry.check_args_has_attributes</text>
</a>
</g>
</g>
<!-- Node2&#45;&gt;Node3 -->
<g id="edge2" class="edge">
<title>Node2&#45;&gt;Node3</title>
<path fill="none" stroke="midnightblue" d="M315.4,-178.54C352.07,-183.85 397.87,-190.48 436.03,-196"/>
<polygon fill="midnightblue" stroke="midnightblue" points="435.67,-199.49 446.07,-197.46 436.68,-192.56 435.67,-199.49"/>
</g>
<!-- Node5 -->
<g id="node5" class="node">
<title>Node5</title>
<g id="a_node5"><a xlink:href="namespacesrc_1_1body__extraction_1_1cli__entry.html#aa7b20ee466231a9108c67f1056536884" target="_top" xlink:title=" ">
<polygon fill="white" stroke="black" points="434.5,-159.5 434.5,-178.5 591.5,-178.5 591.5,-159.5 434.5,-159.5"/>
<text text-anchor="middle" x="513" y="-166.5" font-family="Helvetica,sans-Serif" font-size="10.00">src.body_extraction.cli_entry.fail</text>
</a>
</g>
</g>
<!-- Node2&#45;&gt;Node5 -->
<g id="edge4" class="edge">
<title>Node2&#45;&gt;Node5</title>
<path fill="none" stroke="midnightblue" d="M346.13,-169C371.7,-169 399.15,-169 424.22,-169"/>
<polygon fill="midnightblue" stroke="midnightblue" points="424.44,-172.5 434.44,-169 424.44,-165.5 424.44,-172.5"/>
</g>
<!-- Node4 -->
<g id="node4" class="node">
<title>Node4</title>
<g id="a_node4"><a xlink:href="namespacesrc_1_1body__extraction_1_1cli__entry.html#ac54ec360f3fdef09b455b7f140ca435b" target="_top" xlink:title=" ">
<polygon fill="white" stroke="black" points="680,-197.5 680,-216.5 937,-216.5 937,-197.5 680,-197.5"/>
<text text-anchor="middle" x="808.5" y="-204.5" font-family="Helvetica,sans-Serif" font-size="10.00">src.body_extraction.cli_entry.check_args_has_attribute</text>
</a>
</g>
</g>
<!-- Node3&#45;&gt;Node4 -->
<g id="edge3" class="edge">
<title>Node3&#45;&gt;Node4</title>
<path fill="none" stroke="midnightblue" d="M644.02,-207C652.41,-207 660.88,-207 669.31,-207"/>
<polygon fill="midnightblue" stroke="midnightblue" points="669.56,-210.5 679.56,-207 669.56,-203.5 669.56,-210.5"/>
</g>
<!-- Node7&#45;&gt;Node1 -->
<g id="edge24" class="edge">
<title>Node7&#45;&gt;Node1</title>
<path fill="none" stroke="midnightblue" d="M208.51,-102.5C184.52,-106.06 153.14,-109.52 125.29,-111.77"/>
<polygon fill="midnightblue" stroke="midnightblue" points="124.91,-108.29 115.21,-112.54 125.44,-115.27 124.91,-108.29"/>
</g>
<!-- Node8 -->
<g id="node8" class="node">
<title>Node8</title>
<g id="a_node8"><a xlink:href="namespacesrc_1_1eralchemy_1_1main.html#a9fac164b40f74cd204823413bbc5c01d" target="_top" xlink:title=" ">
<polygon fill="white" stroke="black" points="419.5,-121.5 419.5,-140.5 606.5,-140.5 606.5,-121.5 419.5,-121.5"/>
<text text-anchor="middle" x="513" y="-128.5" font-family="Helvetica,sans-Serif" font-size="10.00">src.eralchemy.main.all_to_intermediary</text>
</a>
</g>
</g>
<!-- Node7&#45;&gt;Node8 -->
<g id="edge7" class="edge">
<title>Node7&#45;&gt;Node8</title>
<path fill="none" stroke="midnightblue" d="M315.4,-102.54C352.07,-107.85 397.87,-114.48 436.03,-120"/>
<polygon fill="midnightblue" stroke="midnightblue" points="435.67,-123.49 446.07,-121.46 436.68,-116.56 435.67,-123.49"/>
</g>
<!-- Node24 -->
<g id="node24" class="node">
<title>Node24</title>
<g id="a_node24"><a xlink:href="namespacesrc_1_1eralchemy_1_1main.html#a6718b3d4e1e90e2f41ba8ca2cf54393e" target="_top" xlink:title=" ">
<polygon fill="white" stroke="black" points="427.5,-83.5 427.5,-102.5 598.5,-102.5 598.5,-83.5 427.5,-83.5"/>
<text text-anchor="middle" x="513" y="-90.5" font-family="Helvetica,sans-Serif" font-size="10.00">src.eralchemy.main.filter_resources</text>
</a>
</g>
</g>
<!-- Node7&#45;&gt;Node24 -->
<g id="edge25" class="edge">
<title>Node7&#45;&gt;Node24</title>
<path fill="none" stroke="midnightblue" d="M321.58,-93C351.02,-93 385.49,-93 416.95,-93"/>
<polygon fill="midnightblue" stroke="midnightblue" points="417.05,-96.5 427.05,-93 417.05,-89.5 417.05,-96.5"/>
</g>
<!-- Node25 -->
<g id="node25" class="node">
<title>Node25</title>
<g id="a_node25"><a xlink:href="namespacesrc_1_1eralchemy_1_1main.html#ac3f7087a073800cd04d6ceb584721e06" target="_top" xlink:title=" ">
<polygon fill="white" stroke="black" points="423,-45.5 423,-64.5 603,-64.5 603,-45.5 423,-45.5"/>
<text text-anchor="middle" x="513" y="-52.5" font-family="Helvetica,sans-Serif" font-size="10.00">src.eralchemy.main.get_output_mode</text>
</a>
</g>
</g>
<!-- Node7&#45;&gt;Node25 -->
<g id="edge26" class="edge">
<title>Node7&#45;&gt;Node25</title>
<path fill="none" stroke="midnightblue" d="M315.4,-83.46C352.07,-78.15 397.87,-71.52 436.03,-66"/>
<polygon fill="midnightblue" stroke="midnightblue" points="436.68,-69.44 446.07,-64.54 435.67,-62.51 436.68,-69.44"/>
</g>
<!-- Node9 -->
<g id="node9" class="node">
<title>Node9</title>
<g id="a_node9"><a xlink:href="namespacesrc_1_1eralchemy_1_1sqla.html#a45674eee4c7ce1d82b7f99a285958c1d" target="_top" xlink:title=" ">
<polygon fill="white" stroke="black" points="701.5,-159.5 701.5,-178.5 915.5,-178.5 915.5,-159.5 701.5,-159.5"/>
<text text-anchor="middle" x="808.5" y="-166.5" font-family="Helvetica,sans-Serif" font-size="10.00">src.eralchemy.sqla.database_to_intermediary</text>
</a>
</g>
</g>
<!-- Node8&#45;&gt;Node9 -->
<g id="edge8" class="edge">
<title>Node8&#45;&gt;Node9</title>
<path fill="none" stroke="midnightblue" d="M587.68,-140.54C629.11,-145.9 680.96,-152.62 723.9,-158.18"/>
<polygon fill="midnightblue" stroke="midnightblue" points="723.67,-161.68 734.04,-159.49 724.57,-154.73 723.67,-161.68"/>
</g>
<!-- Node16 -->
<g id="node16" class="node">
<title>Node16</title>
<g id="a_node16"><a xlink:href="namespacesrc_1_1eralchemy_1_1parser.html#ae896c00e0ce3280fd4a5f84bb3b13da5" target="_top" xlink:title=" ">
<polygon fill="white" stroke="black" points="973,-102.5 973,-121.5 1206,-121.5 1206,-102.5 973,-102.5"/>
<text text-anchor="middle" x="1089.5" y="-109.5" font-family="Helvetica,sans-Serif" font-size="10.00">src.eralchemy.parser.line_iterator_to_intermediary</text>
</a>
</g>
</g>
<!-- Node8&#45;&gt;Node16 -->
<g id="edge15" class="edge">
<title>Node8&#45;&gt;Node16</title>
<path fill="none" stroke="midnightblue" d="M606.62,-127.94C703.16,-124.74 855.08,-119.72 962.5,-116.17"/>
<polygon fill="midnightblue" stroke="midnightblue" points="962.87,-119.66 972.75,-115.83 962.64,-112.66 962.87,-119.66"/>
</g>
<!-- Node23 -->
<g id="node23" class="node">
<title>Node23</title>
<g id="a_node23"><a xlink:href="namespacesrc_1_1eralchemy_1_1parser.html#a4ae9323517c46eeb4ed9d87588832be2" target="_top" xlink:title=" ">
<polygon fill="white" stroke="black" points="686,-83.5 686,-102.5 931,-102.5 931,-83.5 686,-83.5"/>
<text text-anchor="middle" x="808.5" y="-90.5" font-family="Helvetica,sans-Serif" font-size="10.00">src.eralchemy.parser.markdown_file_to_intermediary</text>
</a>
</g>
</g>
<!-- Node8&#45;&gt;Node23 -->
<g id="edge22" class="edge">
<title>Node8&#45;&gt;Node23</title>
<path fill="none" stroke="midnightblue" d="M587.68,-121.46C629.11,-116.1 680.96,-109.38 723.9,-103.82"/>
<polygon fill="midnightblue" stroke="midnightblue" points="724.57,-107.27 734.04,-102.51 723.67,-100.32 724.57,-107.27"/>
</g>
<!-- Node10 -->
<g id="node10" class="node">
<title>Node10</title>
<g id="a_node10"><a xlink:href="namespacesrc_1_1eralchemy_1_1sqla.html#a08828ed118d96f46452d9c55a5080c78" target="_top" xlink:title=" ">
<polygon fill="white" stroke="black" points="979.5,-159.5 979.5,-178.5 1199.5,-178.5 1199.5,-159.5 979.5,-159.5"/>
<text text-anchor="middle" x="1089.5" y="-166.5" font-family="Helvetica,sans-Serif" font-size="10.00">src.eralchemy.sqla.declarative_to_intermediary</text>
</a>
</g>
</g>
<!-- Node9&#45;&gt;Node10 -->
<g id="edge9" class="edge">
<title>Node9&#45;&gt;Node10</title>
<path fill="none" stroke="midnightblue" d="M915.77,-169C933.15,-169 951.26,-169 968.93,-169"/>
<polygon fill="midnightblue" stroke="midnightblue" points="969.28,-172.5 979.28,-169 969.28,-165.5 969.28,-172.5"/>
</g>
<!-- Node11 -->
<g id="node11" class="node">
<title>Node11</title>
<g id="a_node11"><a xlink:href="namespacesrc_1_1eralchemy_1_1sqla.html#a8c80e60516d371d4404a1040516f88ea" target="_top" xlink:title=" ">
<polygon fill="white" stroke="black" points="1253,-159.5 1253,-178.5 1468,-178.5 1468,-159.5 1253,-159.5"/>
<text text-anchor="middle" x="1360.5" y="-166.5" font-family="Helvetica,sans-Serif" font-size="10.00">src.eralchemy.sqla.metadata_to_intermediary</text>
</a>
</g>
</g>
<!-- Node10&#45;&gt;Node11 -->
<g id="edge10" class="edge">
<title>Node10&#45;&gt;Node11</title>
<path fill="none" stroke="midnightblue" d="M1199.52,-169C1213.71,-169 1228.28,-169 1242.58,-169"/>
<polygon fill="midnightblue" stroke="midnightblue" points="1242.94,-172.5 1252.94,-169 1242.94,-165.5 1242.94,-172.5"/>
</g>
<!-- Node12 -->
<g id="node12" class="node">
<title>Node12</title>
<g id="a_node12"><a xlink:href="namespacesrc_1_1eralchemy_1_1sqla.html#aecf50970e801a99f0a0373b9bd5c2988" target="_top" xlink:title=" ">
<polygon fill="white" stroke="black" points="1537.5,-195.5 1537.5,-214.5 1743.5,-214.5 1743.5,-195.5 1537.5,-195.5"/>
<text text-anchor="middle" x="1640.5" y="-202.5" font-family="Helvetica,sans-Serif" font-size="10.00">src.eralchemy.sqla.relation_to_intermediary</text>
</a>
</g>
</g>
<!-- Node11&#45;&gt;Node12 -->
<g id="edge11" class="edge">
<title>Node11&#45;&gt;Node12</title>
<path fill="none" stroke="midnightblue" d="M1434.9,-178.51C1471.97,-183.31 1517.11,-189.15 1555.55,-194.13"/>
<polygon fill="midnightblue" stroke="midnightblue" points="1555.32,-197.63 1565.68,-195.44 1556.22,-190.69 1555.32,-197.63"/>
</g>
<!-- Node14 -->
<g id="node14" class="node">
<title>Node14</title>
<g id="a_node14"><a xlink:href="namespacesrc_1_1eralchemy_1_1sqla.html#ac1b6d81b9b494b0b3b9775947dbae11f" target="_top" xlink:title=" ">
<polygon fill="white" stroke="black" points="1543,-157.5 1543,-176.5 1738,-176.5 1738,-157.5 1543,-157.5"/>
<text text-anchor="middle" x="1640.5" y="-164.5" font-family="Helvetica,sans-Serif" font-size="10.00">src.eralchemy.sqla.table_to_intermediary</text>
</a>
</g>
</g>
<!-- Node11&#45;&gt;Node14 -->
<g id="edge13" class="edge">
<title>Node11&#45;&gt;Node14</title>
<path fill="none" stroke="midnightblue" d="M1468.19,-168.23C1489.24,-168.08 1511.34,-167.92 1532.41,-167.77"/>
<polygon fill="midnightblue" stroke="midnightblue" points="1532.68,-171.27 1542.66,-167.7 1532.63,-164.27 1532.68,-171.27"/>
</g>
<!-- Node13 -->
<g id="node13" class="node">
<title>Node13</title>
<g id="a_node13"><a xlink:href="namespacesrc_1_1eralchemy_1_1sqla.html#a74f56fbe681e9a1b0d0c0b0832b91509" target="_top" xlink:title=" ">
<polygon fill="white" stroke="black" points="1826,-195.5 1826,-214.5 1984,-214.5 1984,-195.5 1826,-195.5"/>
<text text-anchor="middle" x="1905" y="-202.5" font-family="Helvetica,sans-Serif" font-size="10.00">src.eralchemy.sqla.format_name</text>
</a>
</g>
</g>
<!-- Node12&#45;&gt;Node13 -->
<g id="edge12" class="edge">
<title>Node12&#45;&gt;Node13</title>
<path fill="none" stroke="midnightblue" d="M1743.74,-205C1767.44,-205 1792.47,-205 1815.52,-205"/>
<polygon fill="midnightblue" stroke="midnightblue" points="1815.62,-208.5 1825.62,-205 1815.62,-201.5 1815.62,-208.5"/>
</g>
<!-- Node15 -->
<g id="node15" class="node">
<title>Node15</title>
<g id="a_node15"><a xlink:href="namespacesrc_1_1eralchemy_1_1sqla.html#a4ccd81ff2afbcbd286013a8e85f016fe" target="_top" xlink:title=" ">
<polygon fill="white" stroke="black" points="1802,-157.5 1802,-176.5 2008,-176.5 2008,-157.5 1802,-157.5"/>
<text text-anchor="middle" x="1905" y="-164.5" font-family="Helvetica,sans-Serif" font-size="10.00">src.eralchemy.sqla.column_to_intermediary</text>
</a>
</g>
</g>
<!-- Node14&#45;&gt;Node15 -->
<g id="edge14" class="edge">
<title>Node14&#45;&gt;Node15</title>
<path fill="none" stroke="midnightblue" d="M1738.13,-167C1755.48,-167 1773.7,-167 1791.46,-167"/>
<polygon fill="midnightblue" stroke="midnightblue" points="1791.85,-170.5 1801.85,-167 1791.85,-163.5 1791.85,-170.5"/>
</g>
<!-- Node17 -->
<g id="node17" class="node">
<title>Node17</title>
<g id="a_node17"><a xlink:href="namespacesrc_1_1eralchemy_1_1parser.html#af2c09125da4fddcf62bd70475bd1c156" target="_top" xlink:title=" ">
<polygon fill="white" stroke="black" points="1242,-105.5 1242,-124.5 1479,-124.5 1479,-105.5 1242,-105.5"/>
<text text-anchor="middle" x="1360.5" y="-112.5" font-family="Helvetica,sans-Serif" font-size="10.00">src.eralchemy.parser.remove_comments_from_line</text>
</a>
</g>
</g>
<!-- Node16&#45;&gt;Node17 -->
<g id="edge16" class="edge">
<title>Node16&#45;&gt;Node17</title>
<path fill="none" stroke="midnightblue" d="M1206.14,-113.29C1214.64,-113.38 1223.23,-113.48 1231.79,-113.58"/>
<polygon fill="midnightblue" stroke="midnightblue" points="1231.78,-117.08 1241.82,-113.69 1231.86,-110.08 1231.78,-117.08"/>
</g>
<!-- Node18 -->
<g id="node18" class="node">
<title>Node18</title>
<g id="a_node18"><a xlink:href="namespacesrc_1_1eralchemy_1_1parser.html#aaa8d12965e24d3a437fe9605475f9ec1" target="_top" xlink:title=" ">
<polygon fill="white" stroke="black" points="1272,-67.5 1272,-86.5 1449,-86.5 1449,-67.5 1272,-67.5"/>
<text text-anchor="middle" x="1360.5" y="-74.5" font-family="Helvetica,sans-Serif" font-size="10.00">src.eralchemy.parser.update_models</text>
</a>
</g>
</g>
<!-- Node16&#45;&gt;Node18 -->
<g id="edge17" class="edge">
<title>Node16&#45;&gt;Node18</title>
<path fill="none" stroke="midnightblue" d="M1163.65,-102.48C1198.49,-97.95 1240.32,-92.51 1276.36,-87.82"/>
<polygon fill="midnightblue" stroke="midnightblue" points="1276.9,-91.28 1286.36,-86.52 1276,-84.34 1276.9,-91.28"/>
</g>
<!-- Node19 -->
<g id="node19" class="node">
<title>Node19</title>
<g id="a_node19"><a xlink:href="namespacesrc_1_1eralchemy_1_1parser.html#a4074827fe7dbe79bd52ab7fce3fec3ff" target="_top" xlink:title=" ">
<polygon fill="white" stroke="black" points="1534,-114.5 1534,-133.5 1747,-133.5 1747,-114.5 1534,-114.5"/>
<text text-anchor="middle" x="1640.5" y="-121.5" font-family="Helvetica,sans-Serif" font-size="10.00">src.eralchemy.parser._check_colname_in_lst</text>
</a>
</g>
</g>
<!-- Node18&#45;&gt;Node19 -->
<g id="edge18" class="edge">
<title>Node18&#45;&gt;Node19</title>
<path fill="none" stroke="midnightblue" d="M1426.63,-86.52C1443.72,-89.3 1462.1,-92.53 1479,-96 1495.15,-99.32 1498.83,-101.75 1515,-105 1529.28,-107.87 1544.56,-110.53 1559.36,-112.9"/>
<polygon fill="midnightblue" stroke="midnightblue" points="1559.08,-116.4 1569.5,-114.49 1560.16,-109.48 1559.08,-116.4"/>
</g>
<!-- Node20 -->
<g id="node20" class="node">
<title>Node20</title>
<g id="a_node20"><a xlink:href="namespacesrc_1_1eralchemy_1_1parser.html#aa39338fd82cbc77e7aa9d11241375d3f" target="_top" xlink:title=" ">
<polygon fill="white" stroke="black" points="1530.5,-76.5 1530.5,-95.5 1750.5,-95.5 1750.5,-76.5 1530.5,-76.5"/>
<text text-anchor="middle" x="1640.5" y="-83.5" font-family="Helvetica,sans-Serif" font-size="10.00">src.eralchemy.parser._check_no_current_table</text>
</a>
</g>
</g>
<!-- Node18&#45;&gt;Node20 -->
<g id="edge19" class="edge">
<title>Node18&#45;&gt;Node20</title>
<path fill="none" stroke="midnightblue" d="M1449.08,-79.84C1471.64,-80.57 1496.3,-81.36 1520.18,-82.14"/>
<polygon fill="midnightblue" stroke="midnightblue" points="1520.24,-85.64 1530.35,-82.47 1520.47,-78.64 1520.24,-85.64"/>
</g>
<!-- Node21 -->
<g id="node21" class="node">
<title>Node21</title>
<g id="a_node21"><a xlink:href="namespacesrc_1_1eralchemy_1_1parser.html#a6ee33be1040bdc3f9d17e30a8667a6bf" target="_top" xlink:title=" ">
<polygon fill="white" stroke="black" points="1515,-38.5 1515,-57.5 1766,-57.5 1766,-38.5 1515,-38.5"/>
<text text-anchor="middle" x="1640.5" y="-45.5" font-family="Helvetica,sans-Serif" font-size="10.00">src.eralchemy.parser._check_not_creating_duplicates</text>
</a>
</g>
</g>
<!-- Node18&#45;&gt;Node21 -->
<g id="edge20" class="edge">
<title>Node18&#45;&gt;Node21</title>
<path fill="none" stroke="midnightblue" d="M1449.08,-67.86C1477.27,-64.92 1508.74,-61.64 1537.85,-58.6"/>
<polygon fill="midnightblue" stroke="midnightblue" points="1538.46,-62.06 1548.04,-57.54 1537.73,-55.1 1538.46,-62.06"/>
</g>
<!-- Node22 -->
<g id="node22" class="node">
<title>Node22</title>
<g id="a_node22"><a xlink:href="namespacesrc_1_1eralchemy_1_1parser.html#a865f8f738e78ee150ed201fe3f13f066" target="_top" xlink:title=" ">
<polygon fill="white" stroke="black" points="1536,-0.5 1536,-19.5 1745,-19.5 1745,-0.5 1536,-0.5"/>
<text text-anchor="middle" x="1640.5" y="-7.5" font-family="Helvetica,sans-Serif" font-size="10.00">src.eralchemy.parser._update_check_inputs</text>
</a>
</g>
</g>
<!-- Node18&#45;&gt;Node22 -->
<g id="edge21" class="edge">
<title>Node18&#45;&gt;Node22</title>
<path fill="none" stroke="midnightblue" d="M1387.79,-67.44C1418.09,-56.73 1469.57,-39.51 1515,-29 1527.73,-26.06 1541.3,-23.45 1554.63,-21.19"/>
<polygon fill="midnightblue" stroke="midnightblue" points="1555.46,-24.6 1564.76,-19.52 1554.32,-17.69 1555.46,-24.6"/>
</g>
<!-- Node23&#45;&gt;Node16 -->
<g id="edge23" class="edge">
<title>Node23&#45;&gt;Node16</title>
<path fill="none" stroke="midnightblue" d="M931.06,-101.28C941.52,-101.99 952.12,-102.71 962.61,-103.43"/>
<polygon fill="midnightblue" stroke="midnightblue" points="962.42,-106.92 972.63,-104.11 962.9,-99.94 962.42,-106.92"/>
</g>
</g>
</svg>
        <g id="navigator" transform="translate(0 0)" fill="#404254">
                <rect fill="#f2f5e9" fill-opacity="0.5" stroke="#606060" stroke-width=".5" x="0" y="0" width="60" height="60"/>
                <use id="zoomplus" xlink:href="#zoomPlus" x="17" y="9" onmousedown="handleZoom(evt,'in')"/>
                <use id="zoomminus" xlink:href="#zoomMin" x="42" y="9" onmousedown="handleZoom(evt,'out')"/>
                <use id="reset" xlink:href="#resetDef" x="30" y="36" onmousedown="handleReset()"/>
                <g id="arrowUp" xlink:href="#dirArrow" transform="translate(30 24)" onmousedown="handlePan(0,-1)">
                  <use xlink:href="#rim" fill="#404040">
                        <set attributeName="fill" to="#808080" begin="arrowUp.mouseover" end="arrowUp.mouseout"/>
                  </use>
                  <path fill="none" stroke="white" stroke-width="1.5" d="M0,-3.0v7 M-2.5,-0.5L0,-3.0L2.5,-0.5"/>
                </g>
                <g id="arrowRight" xlink:href="#dirArrow" transform="rotate(90) translate(36 -43)" onmousedown="handlePan(1,0)">
                  <use xlink:href="#rim" fill="#404040">
                        <set attributeName="fill" to="#808080" begin="arrowRight.mouseover" end="arrowRight.mouseout"/>
                  </use>
                  <path fill="none" stroke="white" stroke-width="1.5" d="M0,-3.0v7 M-2.5,-0.5L0,-3.0L2.5,-0.5"/>
                </g>
                <g id="arrowDown" xlink:href="#dirArrow" transform="rotate(180) translate(-30 -48)" onmousedown="handlePan(0,1)">
                  <use xlink:href="#rim" fill="#404040">
                        <set attributeName="fill" to="#808080" begin="arrowDown.mouseover" end="arrowDown.mouseout"/>
                  </use>
                  <path fill="none" stroke="white" stroke-width="1.5" d="M0,-3.0v7 M-2.5,-0.5L0,-3.0L2.5,-0.5"/>
                </g>
                <g id="arrowLeft" xlink:href="#dirArrow" transform="rotate(270) translate(-36 17)" onmousedown="handlePan(-1,0)">
                  <use xlink:href="#rim" fill="#404040">
                        <set attributeName="fill" to="#808080" begin="arrowLeft.mouseover" end="arrowLeft.mouseout"/>
                  </use>
                  <path fill="none" stroke="white" stroke-width="1.5" d="M0,-3.0v7 M-2.5,-0.5L0,-3.0L2.5,-0.5"/>
                </g>
        </g>
        <svg viewBox="0 0 15 15" width="100%" height="30px" preserveAspectRatio="xMaxYMin meet">
         <g id="arrow_out" transform="scale(0.3 0.3)">
          <a xlink:href="namespacesrc_1_1eralchemy_1_1main_afd606a75c08edb3181030c5b1ce3b5aa_cgraph_org.svg" target="_base">
           <rect id="button" ry="5" rx="5" y="6" x="6" height="38" width="38"
                fill="#f2f5e9" fill-opacity="0.5" stroke="#606060" stroke-width="1.0"/>
           <path id="arrow"
             d="M 11.500037,31.436501 C 11.940474,20.09759 22.043105,11.32322 32.158766,21.979434 L 37.068811,17.246167 C 37.068811,17.246167 37.088388,32 37.088388,32 L 22.160133,31.978069 C 22.160133,31.978069 26.997745,27.140456 26.997745,27.140456 C 18.528582,18.264221 13.291696,25.230495 11.500037,31.436501 z"
             style="fill:#404040;"/>
          </a>
         </g>
        </svg>
</svg>
