<?xml version="1.0" encoding="UTF-8" standalone="no"?>
<!DOCTYPE svg PUBLIC "-//W3C//DTD SVG 1.1//EN"
 "http://www.w3.org/Graphics/SVG/1.1/DTD/svg11.dtd">
<!-- Generated by graphviz version 2.47.1 (20210417.1919)
 -->
<!-- Title: src.utils.custom_logger._build_default_formatter Pages: 1 -->
<svg width="1032pt" height="66pt"
 viewBox="0.00 0.00 1032.00 66.00" xmlns="http://www.w3.org/2000/svg" xmlns:xlink="http://www.w3.org/1999/xlink">
<g id="graph0" class="graph" transform="scale(1 1) rotate(0) translate(4 62)">
<title>src.utils.custom_logger._build_default_formatter</title>
<polygon fill="white" stroke="transparent" points="-4,4 -4,-62 1028,-62 1028,4 -4,4"/>
<!-- Node1 -->
<g id="node1" class="node">
<title>Node1</title>
<g id="a_node1"><a xlink:title=" ">
<polygon fill="#bfbfbf" stroke="black" points="800,-19.5 800,-38.5 1024,-38.5 1024,-19.5 800,-19.5"/>
<text text-anchor="middle" x="912" y="-26.5" font-family="Helvetica,sans-Serif" font-size="10.00">src.utils.custom_logger._build_default_formatter</text>
</a>
</g>
</g>
<!-- Node2 -->
<g id="node2" class="node">
<title>Node2</title>
<g id="a_node2"><a xlink:href="namespacesrc_1_1utils_1_1custom__logger.html#a3d6e469e20f9ff5a211a36302eaab713" target="_top" xlink:title=" ">
<polygon fill="white" stroke="black" points="582,-19.5 582,-38.5 764,-38.5 764,-19.5 582,-19.5"/>
<text text-anchor="middle" x="673" y="-26.5" font-family="Helvetica,sans-Serif" font-size="10.00">src.utils.custom_logger._logger_setup</text>
</a>
</g>
</g>
<!-- Node1&#45;&gt;Node2 -->
<g id="edge1" class="edge">
<title>Node1&#45;&gt;Node2</title>
<path fill="none" stroke="midnightblue" d="M789.73,-29C781.16,-29 772.61,-29 764.26,-29"/>
<polygon fill="midnightblue" stroke="midnightblue" points="789.79,-32.5 799.79,-29 789.79,-25.5 789.79,-32.5"/>
</g>
<!-- Node3 -->
<g id="node3" class="node">
<title>Node3</title>
<g id="a_node3"><a xlink:href="classsrc_1_1utils_1_1custom__logger_1_1_log_manager.html#a6e75a24618d1dfa3609780bf6bd6f0bb" target="_top" xlink:title=" ">
<polygon fill="white" stroke="black" points="299,-38.5 299,-57.5 546,-57.5 546,-38.5 299,-38.5"/>
<text text-anchor="middle" x="422.5" y="-45.5" font-family="Helvetica,sans-Serif" font-size="10.00">src.utils.custom_logger.LogManager.__getattribute__</text>
</a>
</g>
</g>
<!-- Node2&#45;&gt;Node3 -->
<g id="edge2" class="edge">
<title>Node2&#45;&gt;Node3</title>
<path fill="none" stroke="midnightblue" d="M571.72,-36.67C563.27,-37.31 554.67,-37.97 546.08,-38.63"/>
<polygon fill="midnightblue" stroke="midnightblue" points="572.23,-40.14 581.93,-35.89 571.7,-33.16 572.23,-40.14"/>
</g>
<!-- Node4 -->
<g id="node4" class="node">
<title>Node4</title>
<g id="a_node4"><a xlink:href="namespacesrc_1_1utils_1_1custom__logger.html#ab4919b815252b80aa3ae333b09c3db1d" target="_top" xlink:title=" ">
<polygon fill="white" stroke="black" points="339.5,-0.5 339.5,-19.5 505.5,-19.5 505.5,-0.5 339.5,-0.5"/>
<text text-anchor="middle" x="422.5" y="-7.5" font-family="Helvetica,sans-Serif" font-size="10.00">src.utils.custom_logger.get_logger</text>
</a>
</g>
</g>
<!-- Node2&#45;&gt;Node4 -->
<g id="edge3" class="edge">
<title>Node2&#45;&gt;Node4</title>
<path fill="none" stroke="midnightblue" d="M571.93,-21.35C549.98,-19.67 526.99,-17.91 505.83,-16.29"/>
<polygon fill="midnightblue" stroke="midnightblue" points="571.7,-24.84 581.93,-22.11 572.23,-17.86 571.7,-24.84"/>
</g>
<!-- Node5 -->
<g id="node5" class="node">
<title>Node5</title>
<g id="a_node5"><a xlink:href="classsrc_1_1utils_1_1custom__logger_1_1_log_manager.html#a7b0e44977a63a22e4d2befa503dcce17" target="_top" xlink:title=" ">
<polygon fill="white" stroke="black" points="0,-0.5 0,-19.5 263,-19.5 263,-0.5 0,-0.5"/>
<text text-anchor="middle" x="131.5" y="-7.5" font-family="Helvetica,sans-Serif" font-size="10.00">src.utils.custom_logger.LogManager.add_logger_as_field</text>
</a>
</g>
</g>
<!-- Node4&#45;&gt;Node5 -->
<g id="edge4" class="edge">
<title>Node4&#45;&gt;Node5</title>
<path fill="none" stroke="midnightblue" d="M329.27,-10C308.22,-10 285.45,-10 263.13,-10"/>
<polygon fill="midnightblue" stroke="midnightblue" points="329.46,-13.5 339.46,-10 329.46,-6.5 329.46,-13.5"/>
</g>
</g>
</svg>
