<?xml version="1.0" encoding="UTF-8" standalone="no"?>
<!DOCTYPE svg PUBLIC "-//W3C//DTD SVG 1.1//EN"
 "http://www.w3.org/Graphics/SVG/1.1/DTD/svg11.dtd">
<!-- Generated by graphviz version 2.47.1 (20210417.1919)
 -->
<!-- Title: src.eralchemy.main.get_output_mode Pages: 1 -->
<svg width="504pt" height="83pt"
 viewBox="0.00 0.00 504.00 83.00" xmlns="http://www.w3.org/2000/svg" xmlns:xlink="http://www.w3.org/1999/xlink">
<g id="graph0" class="graph" transform="scale(1 1) rotate(0) translate(4 79)">
<title>src.eralchemy.main.get_output_mode</title>
<polygon fill="white" stroke="transparent" points="-4,4 -4,-79 500,-79 500,4 -4,4"/>
<!-- Node1 -->
<g id="node1" class="node">
<title>Node1</title>
<g id="a_node1"><a xlink:title=" ">
<polygon fill="#bfbfbf" stroke="black" points="377,-44.5 377,-74.5 496,-74.5 496,-44.5 377,-44.5"/>
<text text-anchor="start" x="385" y="-62.5" font-family="Helvetica,sans-Serif" font-size="10.00">src.eralchemy.main.get</text>
<text text-anchor="middle" x="436.5" y="-51.5" font-family="Helvetica,sans-Serif" font-size="10.00">_output_mode</text>
</a>
</g>
</g>
<!-- Node2 -->
<g id="node2" class="node">
<title>Node2</title>
<g id="a_node2"><a xlink:href="namespacesrc_1_1eralchemy_1_1main.html#a5387e0a7c14b44fd86de8ede390bed04" target="_top" xlink:title=" ">
<polygon fill="white" stroke="black" points="195,-50 195,-69 341,-69 341,-50 195,-50"/>
<text text-anchor="middle" x="268" y="-57" font-family="Helvetica,sans-Serif" font-size="10.00">src.eralchemy.main.render_er</text>
</a>
</g>
</g>
<!-- Node1&#45;&gt;Node2 -->
<g id="edge1" class="edge">
<title>Node1&#45;&gt;Node2</title>
<path fill="none" stroke="midnightblue" d="M366.66,-59.5C358.25,-59.5 349.64,-59.5 341.18,-59.5"/>
<polygon fill="midnightblue" stroke="midnightblue" points="366.8,-63 376.8,-59.5 366.8,-56 366.8,-63"/>
</g>
<!-- Node3 -->
<g id="node3" class="node">
<title>Node3</title>
<g id="a_node3"><a xlink:href="namespacesrc_1_1eralchemy_1_1main.html#afd606a75c08edb3181030c5b1ce3b5aa" target="_top" xlink:title=" ">
<polygon fill="white" stroke="black" points="22,-50 22,-69 137,-69 137,-50 22,-50"/>
<text text-anchor="middle" x="79.5" y="-57" font-family="Helvetica,sans-Serif" font-size="10.00">src.eralchemy.main.cli</text>
</a>
</g>
</g>
<!-- Node2&#45;&gt;Node3 -->
<g id="edge2" class="edge">
<title>Node2&#45;&gt;Node3</title>
<path fill="none" stroke="midnightblue" d="M184.46,-52.79C168.46,-52.67 152.03,-52.82 137.09,-53.24"/>
<polygon fill="midnightblue" stroke="midnightblue" points="184.86,-56.29 194.89,-52.91 184.93,-49.29 184.86,-56.29"/>
</g>
<!-- Node4 -->
<g id="node4" class="node">
<title>Node4</title>
<g id="a_node4"><a xlink:href="namespacesrc_1_1db__tools_1_1database__consolidation.html#a7057f33c203cc4abd04492f89c632aa9" target="_top" xlink:title=" ">
<polygon fill="white" stroke="black" points="0,-0.5 0,-30.5 159,-30.5 159,-0.5 0,-0.5"/>
<text text-anchor="start" x="8" y="-18.5" font-family="Helvetica,sans-Serif" font-size="10.00">src.db_tools.database</text>
<text text-anchor="middle" x="79.5" y="-7.5" font-family="Helvetica,sans-Serif" font-size="10.00">_consolidation.doit_generate_erd</text>
</a>
</g>
</g>
<!-- Node2&#45;&gt;Node4 -->
<g id="edge4" class="edge">
<title>Node2&#45;&gt;Node4</title>
<path fill="none" stroke="midnightblue" d="M216.63,-47.62C194.38,-42.37 167.97,-36.14 144.36,-30.57"/>
<polygon fill="midnightblue" stroke="midnightblue" points="216,-51.06 226.53,-49.95 217.6,-44.25 216,-51.06"/>
</g>
<!-- Node3&#45;&gt;Node2 -->
<g id="edge3" class="edge">
<title>Node3&#45;&gt;Node2</title>
<path fill="none" stroke="midnightblue" d="M147.1,-66C162.6,-66.3 179.17,-66.33 194.89,-66.09"/>
<polygon fill="midnightblue" stroke="midnightblue" points="147.17,-62.5 137.09,-65.76 147.01,-69.5 147.17,-62.5"/>
</g>
</g>
</svg>
