<?xml version="1.0" encoding="UTF-8" standalone="no"?>
<!DOCTYPE svg PUBLIC "-//W3C//DTD SVG 1.1//EN"
 "http://www.w3.org/Graphics/SVG/1.1/DTD/svg11.dtd">
<!-- Generated by graphviz version 2.47.1 (20210417.1919)
 -->
<!-- Title: src.db_tools.cli_entry.cli Pages: 1 -->
<svg width="864pt" height="85pt"
 viewBox="0.00 0.00 864.00 85.00" xmlns="http://www.w3.org/2000/svg" xmlns:xlink="http://www.w3.org/1999/xlink">
<g id="graph0" class="graph" transform="scale(1 1) rotate(0) translate(4 81)">
<title>src.db_tools.cli_entry.cli</title>
<polygon fill="white" stroke="transparent" points="-4,4 -4,-81 860,-81 860,4 -4,4"/>
<!-- Node1 -->
<g id="node1" class="node">
<title>Node1</title>
<g id="a_node1"><a xlink:title=" ">
<polygon fill="#bfbfbf" stroke="black" points="0,-19.5 0,-38.5 122,-38.5 122,-19.5 0,-19.5"/>
<text text-anchor="middle" x="61" y="-26.5" font-family="Helvetica,sans-Serif" font-size="10.00">src.db_tools.cli_entry.cli</text>
</a>
</g>
</g>
<!-- Node2 -->
<g id="node2" class="node">
<title>Node2</title>
<g id="a_node2"><a xlink:href="namespacesrc_1_1db__tools_1_1cli__entry.html#ad255ecd1c1643b1e657b5c9abcf1e6e9" target="_top" xlink:title=" ">
<polygon fill="white" stroke="black" points="162.5,-38.5 162.5,-57.5 325.5,-57.5 325.5,-38.5 162.5,-38.5"/>
<text text-anchor="middle" x="244" y="-45.5" font-family="Helvetica,sans-Serif" font-size="10.00">src.db_tools.cli_entry.check_args</text>
</a>
</g>
</g>
<!-- Node1&#45;&gt;Node2 -->
<g id="edge1" class="edge">
<title>Node1&#45;&gt;Node2</title>
<path fill="none" stroke="midnightblue" d="M122.02,-35.3C131.67,-36.31 141.84,-37.38 152.02,-38.45"/>
<polygon fill="midnightblue" stroke="midnightblue" points="151.87,-41.95 162.18,-39.52 152.6,-34.99 151.87,-41.95"/>
</g>
<!-- Node6 -->
<g id="node6" class="node">
<title>Node6</title>
<g id="a_node6"><a xlink:href="namespacesrc_1_1db__tools_1_1cli__entry.html#a9fb12f57dc9564c5a836ac90a346d6b9" target="_top" xlink:title=" ">
<polygon fill="white" stroke="black" points="158,-0.5 158,-19.5 330,-19.5 330,-0.5 158,-0.5"/>
<text text-anchor="middle" x="244" y="-7.5" font-family="Helvetica,sans-Serif" font-size="10.00">src.db_tools.cli_entry.get_argparser</text>
</a>
</g>
</g>
<!-- Node1&#45;&gt;Node6 -->
<g id="edge5" class="edge">
<title>Node1&#45;&gt;Node6</title>
<path fill="none" stroke="midnightblue" d="M122.02,-22.7C130.39,-21.82 139.16,-20.9 147.99,-19.97"/>
<polygon fill="midnightblue" stroke="midnightblue" points="148.38,-23.45 157.96,-18.93 147.65,-16.49 148.38,-23.45"/>
</g>
<!-- Node3 -->
<g id="node3" class="node">
<title>Node3</title>
<g id="a_node3"><a xlink:href="namespacesrc_1_1db__tools_1_1cli__entry.html#a956099ca2065e63e782b89709f769805" target="_top" xlink:title=" ">
<polygon fill="white" stroke="black" points="366,-57.5 366,-76.5 596,-76.5 596,-57.5 366,-57.5"/>
<text text-anchor="middle" x="481" y="-64.5" font-family="Helvetica,sans-Serif" font-size="10.00">src.db_tools.cli_entry.check_args_has_attributes</text>
</a>
</g>
</g>
<!-- Node2&#45;&gt;Node3 -->
<g id="edge2" class="edge">
<title>Node2&#45;&gt;Node3</title>
<path fill="none" stroke="midnightblue" d="M325.54,-54.51C335.31,-55.3 345.46,-56.12 355.67,-56.95"/>
<polygon fill="midnightblue" stroke="midnightblue" points="355.65,-60.46 365.89,-57.77 356.21,-53.48 355.65,-60.46"/>
</g>
<!-- Node5 -->
<g id="node5" class="node">
<title>Node5</title>
<g id="a_node5"><a xlink:href="namespacesrc_1_1db__tools_1_1cli__entry.html#a2a7b8c0844174713273df60bc3eff45a" target="_top" xlink:title=" ">
<polygon fill="white" stroke="black" points="418.5,-19.5 418.5,-38.5 543.5,-38.5 543.5,-19.5 418.5,-19.5"/>
<text text-anchor="middle" x="481" y="-26.5" font-family="Helvetica,sans-Serif" font-size="10.00">src.db_tools.cli_entry.fail</text>
</a>
</g>
</g>
<!-- Node2&#45;&gt;Node5 -->
<g id="edge4" class="edge">
<title>Node2&#45;&gt;Node5</title>
<path fill="none" stroke="midnightblue" d="M325.54,-41.49C352.41,-39.32 382.14,-36.91 408.28,-34.8"/>
<polygon fill="midnightblue" stroke="midnightblue" points="408.8,-38.27 418.49,-33.97 408.24,-31.29 408.8,-38.27"/>
</g>
<!-- Node4 -->
<g id="node4" class="node">
<title>Node4</title>
<g id="a_node4"><a xlink:href="namespacesrc_1_1db__tools_1_1cli__entry.html#a7916c456f53088abf46d7d1ee18457c2" target="_top" xlink:title=" ">
<polygon fill="white" stroke="black" points="632,-57.5 632,-76.5 856,-76.5 856,-57.5 632,-57.5"/>
<text text-anchor="middle" x="744" y="-64.5" font-family="Helvetica,sans-Serif" font-size="10.00">src.db_tools.cli_entry.check_args_has_attribute</text>
</a>
</g>
</g>
<!-- Node3&#45;&gt;Node4 -->
<g id="edge3" class="edge">
<title>Node3&#45;&gt;Node4</title>
<path fill="none" stroke="midnightblue" d="M596.1,-67C604.49,-67 612.96,-67 621.39,-67"/>
<polygon fill="midnightblue" stroke="midnightblue" points="621.64,-70.5 631.64,-67 621.64,-63.5 621.64,-70.5"/>
</g>
</g>
</svg>
