<?xml version="1.0" encoding="UTF-8" standalone="no"?>
<!DOCTYPE svg PUBLIC "-//W3C//DTD SVG 1.1//EN"
 "http://www.w3.org/Graphics/SVG/1.1/DTD/svg11.dtd">
<!-- Generated by graphviz version 2.47.1 (20210417.1919)
 -->
<!-- Title: src.eralchemy.main.render_er Pages: 1 -->
<!--zoomable 256 -->
<svg id="main" version="1.1" xmlns="http://www.w3.org/2000/svg" xmlns:xlink="http://www.w3.org/1999/xlink" xml:space="preserve" onload="init(evt)">
<style type="text/css"><![CDATA[
.edge:hover path { stroke: red; }
.edge:hover polygon { stroke: red; fill: red; }
]]></style>
<script type="text/javascript"><![CDATA[
var edges = document.getElementsByTagName('g');
if (edges && edges.length) {
  for (var i=0;i<edges.length;i++) {
    if (edges[i].id.substr(0,4)=='edge') {
      edges[i].setAttribute('class','edge');
    }
  }
}
]]></script>
        <defs>
                <circle id="rim" cx="0" cy="0" r="7"/>
                <circle id="rim2" cx="0" cy="0" r="3.5"/>
                <g id="zoomPlus">
                        <use xlink:href="#rim" fill="#404040">
                                <set attributeName="fill" to="#808080" begin="zoomplus.mouseover" end="zoomplus.mouseout"/>
                        </use>
                        <path d="M-4,0h8M0,-4v8" fill="none" stroke="white" stroke-width="1.5" pointer-events="none"/>
                </g>
                <g id="zoomMin">
                        <use xlink:href="#rim" fill="#404040">
                                <set attributeName="fill" to="#808080" begin="zoomminus.mouseover" end="zoomminus.mouseout"/>
                        </use>
                        <path d="M-4,0h8" fill="none" stroke="white" stroke-width="1.5" pointer-events="none"/>
                </g>
                <g id="dirArrow">
                        <path fill="none" stroke="white" stroke-width="1.5" d="M0,-3.0v7 M-2.5,-0.5L0,-3.0L2.5,-0.5"/>
                </g>
               <g id="resetDef">
                       <use xlink:href="#rim2" fill="#404040">
                               <set attributeName="fill" to="#808080" begin="reset.mouseover" end="reset.mouseout"/>
                       </use>
               </g>
        </defs>

<script type="text/javascript">
var viewWidth = 1778;
var viewHeight = 256;
var sectionId = 'dynsection-12';
</script>
<script xlink:href="svgpan.js"/>
<svg id="graph" class="graph">
<g id="viewport">
<title>src.eralchemy.main.render_er</title>
<polygon fill="white" stroke="transparent" points="-4,4 -4,-252 1774,-252 1774,4 -4,4"/>
<!-- Node1 -->
<g id="node1" class="node">
<title>Node1</title>
<g id="a_node1"><a xlink:title=" ">
<polygon fill="#bfbfbf" stroke="black" points="0,-76.5 0,-95.5 146,-95.5 146,-76.5 0,-76.5"/>
<text text-anchor="middle" x="73" y="-83.5" font-family="Helvetica,sans-Serif" font-size="10.00">src.eralchemy.main.render_er</text>
</a>
</g>
</g>
<!-- Node2 -->
<g id="node2" class="node">
<title>Node2</title>
<g id="a_node2"><a xlink:href="namespacesrc_1_1eralchemy_1_1main.html#a9fac164b40f74cd204823413bbc5c01d" target="_top" xlink:title=" ">
<polygon fill="white" stroke="black" points="182,-133.5 182,-152.5 369,-152.5 369,-133.5 182,-133.5"/>
<text text-anchor="middle" x="275.5" y="-140.5" font-family="Helvetica,sans-Serif" font-size="10.00">src.eralchemy.main.all_to_intermediary</text>
</a>
</g>
</g>
<!-- Node1&#45;&gt;Node2 -->
<g id="edge1" class="edge">
<title>Node1&#45;&gt;Node2</title>
<path fill="none" stroke="midnightblue" d="M107.56,-95.54C141.39,-105.16 193.76,-120.05 230.82,-130.58"/>
<polygon fill="midnightblue" stroke="midnightblue" points="230.26,-134.06 240.83,-133.43 232.17,-127.33 230.26,-134.06"/>
</g>
<!-- Node18 -->
<g id="node18" class="node">
<title>Node18</title>
<g id="a_node18"><a xlink:href="namespacesrc_1_1eralchemy_1_1main.html#afd606a75c08edb3181030c5b1ce3b5aa" target="_top" xlink:title=" ">
<polygon fill="white" stroke="black" points="218,-76.5 218,-95.5 333,-95.5 333,-76.5 218,-76.5"/>
<text text-anchor="middle" x="275.5" y="-83.5" font-family="Helvetica,sans-Serif" font-size="10.00">src.eralchemy.main.cli</text>
</a>
</g>
</g>
<!-- Node1&#45;&gt;Node18 -->
<g id="edge18" class="edge">
<title>Node1&#45;&gt;Node18</title>
<path fill="none" stroke="midnightblue" d="M146.1,-79.49C166.18,-79.14 187.89,-79.17 207.65,-79.59"/>
<polygon fill="midnightblue" stroke="midnightblue" points="207.71,-83.1 217.79,-79.85 207.88,-76.1 207.71,-83.1"/>
</g>
<!-- Node24 -->
<g id="node24" class="node">
<title>Node24</title>
<g id="a_node24"><a xlink:href="namespacesrc_1_1eralchemy_1_1main.html#a6718b3d4e1e90e2f41ba8ca2cf54393e" target="_top" xlink:title=" ">
<polygon fill="white" stroke="black" points="190,-38.5 190,-57.5 361,-57.5 361,-38.5 190,-38.5"/>
<text text-anchor="middle" x="275.5" y="-45.5" font-family="Helvetica,sans-Serif" font-size="10.00">src.eralchemy.main.filter_resources</text>
</a>
</g>
</g>
<!-- Node1&#45;&gt;Node24 -->
<g id="edge25" class="edge">
<title>Node1&#45;&gt;Node24</title>
<path fill="none" stroke="midnightblue" d="M124.34,-76.46C151.63,-71.29 185.54,-64.86 214.23,-59.42"/>
<polygon fill="midnightblue" stroke="midnightblue" points="214.97,-62.84 224.14,-57.54 213.67,-55.97 214.97,-62.84"/>
</g>
<!-- Node25 -->
<g id="node25" class="node">
<title>Node25</title>
<g id="a_node25"><a xlink:href="namespacesrc_1_1eralchemy_1_1main.html#ac3f7087a073800cd04d6ceb584721e06" target="_top" xlink:title=" ">
<polygon fill="white" stroke="black" points="185.5,-0.5 185.5,-19.5 365.5,-19.5 365.5,-0.5 185.5,-0.5"/>
<text text-anchor="middle" x="275.5" y="-7.5" font-family="Helvetica,sans-Serif" font-size="10.00">src.eralchemy.main.get_output_mode</text>
</a>
</g>
</g>
<!-- Node1&#45;&gt;Node25 -->
<g id="edge26" class="edge">
<title>Node1&#45;&gt;Node25</title>
<path fill="none" stroke="midnightblue" d="M88.76,-76.47C109,-63.81 146.87,-41.59 182,-29 189.38,-26.36 197.23,-24.04 205.11,-22.01"/>
<polygon fill="midnightblue" stroke="midnightblue" points="206.19,-25.35 215.09,-19.61 204.55,-18.55 206.19,-25.35"/>
</g>
<!-- Node3 -->
<g id="node3" class="node">
<title>Node3</title>
<g id="a_node3"><a xlink:href="namespacesrc_1_1eralchemy_1_1sqla.html#a45674eee4c7ce1d82b7f99a285958c1d" target="_top" xlink:title=" ">
<polygon fill="white" stroke="black" points="420.5,-190.5 420.5,-209.5 634.5,-209.5 634.5,-190.5 420.5,-190.5"/>
<text text-anchor="middle" x="527.5" y="-197.5" font-family="Helvetica,sans-Serif" font-size="10.00">src.eralchemy.sqla.database_to_intermediary</text>
</a>
</g>
</g>
<!-- Node2&#45;&gt;Node3 -->
<g id="edge2" class="edge">
<title>Node2&#45;&gt;Node3</title>
<path fill="none" stroke="midnightblue" d="M311.55,-152.57C337.31,-159.46 373.22,-168.79 405,-176 424.46,-180.42 445.78,-184.79 465.06,-188.56"/>
<polygon fill="midnightblue" stroke="midnightblue" points="464.45,-192.01 474.93,-190.48 465.78,-185.14 464.45,-192.01"/>
</g>
<!-- Node10 -->
<g id="node10" class="node">
<title>Node10</title>
<g id="a_node10"><a xlink:href="namespacesrc_1_1eralchemy_1_1parser.html#ae896c00e0ce3280fd4a5f84bb3b13da5" target="_top" xlink:title=" ">
<polygon fill="white" stroke="black" points="700.5,-133.5 700.5,-152.5 933.5,-152.5 933.5,-133.5 700.5,-133.5"/>
<text text-anchor="middle" x="817" y="-140.5" font-family="Helvetica,sans-Serif" font-size="10.00">src.eralchemy.parser.line_iterator_to_intermediary</text>
</a>
</g>
</g>
<!-- Node2&#45;&gt;Node10 -->
<g id="edge9" class="edge">
<title>Node2&#45;&gt;Node10</title>
<path fill="none" stroke="midnightblue" d="M369.24,-143C457.7,-143 591.62,-143 689.77,-143"/>
<polygon fill="midnightblue" stroke="midnightblue" points="690.06,-146.5 700.06,-143 690.06,-139.5 690.06,-146.5"/>
</g>
<!-- Node17 -->
<g id="node17" class="node">
<title>Node17</title>
<g id="a_node17"><a xlink:href="namespacesrc_1_1eralchemy_1_1parser.html#a4ae9323517c46eeb4ed9d87588832be2" target="_top" xlink:title=" ">
<polygon fill="white" stroke="black" points="405,-114.5 405,-133.5 650,-133.5 650,-114.5 405,-114.5"/>
<text text-anchor="middle" x="527.5" y="-121.5" font-family="Helvetica,sans-Serif" font-size="10.00">src.eralchemy.parser.markdown_file_to_intermediary</text>
</a>
</g>
</g>
<!-- Node2&#45;&gt;Node17 -->
<g id="edge16" class="edge">
<title>Node2&#45;&gt;Node17</title>
<path fill="none" stroke="midnightblue" d="M369.24,-135.95C377.53,-135.32 386.02,-134.68 394.55,-134.03"/>
<polygon fill="midnightblue" stroke="midnightblue" points="394.88,-137.51 404.59,-133.27 394.35,-130.53 394.88,-137.51"/>
</g>
<!-- Node4 -->
<g id="node4" class="node">
<title>Node4</title>
<g id="a_node4"><a xlink:href="namespacesrc_1_1eralchemy_1_1sqla.html#a08828ed118d96f46452d9c55a5080c78" target="_top" xlink:title=" ">
<polygon fill="white" stroke="black" points="707,-190.5 707,-209.5 927,-209.5 927,-190.5 707,-190.5"/>
<text text-anchor="middle" x="817" y="-197.5" font-family="Helvetica,sans-Serif" font-size="10.00">src.eralchemy.sqla.declarative_to_intermediary</text>
</a>
</g>
</g>
<!-- Node3&#45;&gt;Node4 -->
<g id="edge3" class="edge">
<title>Node3&#45;&gt;Node4</title>
<path fill="none" stroke="midnightblue" d="M634.74,-200C654.94,-200 676.22,-200 696.79,-200"/>
<polygon fill="midnightblue" stroke="midnightblue" points="696.83,-203.5 706.83,-200 696.83,-196.5 696.83,-203.5"/>
</g>
<!-- Node5 -->
<g id="node5" class="node">
<title>Node5</title>
<g id="a_node5"><a xlink:href="namespacesrc_1_1eralchemy_1_1sqla.html#a8c80e60516d371d4404a1040516f88ea" target="_top" xlink:title=" ">
<polygon fill="white" stroke="black" points="1005,-190.5 1005,-209.5 1220,-209.5 1220,-190.5 1005,-190.5"/>
<text text-anchor="middle" x="1112.5" y="-197.5" font-family="Helvetica,sans-Serif" font-size="10.00">src.eralchemy.sqla.metadata_to_intermediary</text>
</a>
</g>
</g>
<!-- Node4&#45;&gt;Node5 -->
<g id="edge4" class="edge">
<title>Node4&#45;&gt;Node5</title>
<path fill="none" stroke="midnightblue" d="M927.29,-200C949.2,-200 972.3,-200 994.45,-200"/>
<polygon fill="midnightblue" stroke="midnightblue" points="994.56,-203.5 1004.56,-200 994.56,-196.5 994.56,-203.5"/>
</g>
<!-- Node6 -->
<g id="node6" class="node">
<title>Node6</title>
<g id="a_node6"><a xlink:href="namespacesrc_1_1eralchemy_1_1sqla.html#aecf50970e801a99f0a0373b9bd5c2988" target="_top" xlink:title=" ">
<polygon fill="white" stroke="black" points="1299.5,-228.5 1299.5,-247.5 1505.5,-247.5 1505.5,-228.5 1299.5,-228.5"/>
<text text-anchor="middle" x="1402.5" y="-235.5" font-family="Helvetica,sans-Serif" font-size="10.00">src.eralchemy.sqla.relation_to_intermediary</text>
</a>
</g>
</g>
<!-- Node5&#45;&gt;Node6 -->
<g id="edge5" class="edge">
<title>Node5&#45;&gt;Node6</title>
<path fill="none" stroke="midnightblue" d="M1185.8,-209.54C1226.45,-214.9 1277.33,-221.62 1319.46,-227.18"/>
<polygon fill="midnightblue" stroke="midnightblue" points="1319.05,-230.65 1329.42,-228.49 1319.96,-223.71 1319.05,-230.65"/>
</g>
<!-- Node8 -->
<g id="node8" class="node">
<title>Node8</title>
<g id="a_node8"><a xlink:href="namespacesrc_1_1eralchemy_1_1sqla.html#ac1b6d81b9b494b0b3b9775947dbae11f" target="_top" xlink:title=" ">
<polygon fill="white" stroke="black" points="1305,-190.5 1305,-209.5 1500,-209.5 1500,-190.5 1305,-190.5"/>
<text text-anchor="middle" x="1402.5" y="-197.5" font-family="Helvetica,sans-Serif" font-size="10.00">src.eralchemy.sqla.table_to_intermediary</text>
</a>
</g>
</g>
<!-- Node5&#45;&gt;Node8 -->
<g id="edge7" class="edge">
<title>Node5&#45;&gt;Node8</title>
<path fill="none" stroke="midnightblue" d="M1220.33,-200C1244.56,-200 1270.3,-200 1294.54,-200"/>
<polygon fill="midnightblue" stroke="midnightblue" points="1294.83,-203.5 1304.83,-200 1294.83,-196.5 1294.83,-203.5"/>
</g>
<!-- Node7 -->
<g id="node7" class="node">
<title>Node7</title>
<g id="a_node7"><a xlink:href="namespacesrc_1_1eralchemy_1_1sqla.html#a74f56fbe681e9a1b0d0c0b0832b91509" target="_top" xlink:title=" ">
<polygon fill="white" stroke="black" points="1588,-228.5 1588,-247.5 1746,-247.5 1746,-228.5 1588,-228.5"/>
<text text-anchor="middle" x="1667" y="-235.5" font-family="Helvetica,sans-Serif" font-size="10.00">src.eralchemy.sqla.format_name</text>
</a>
</g>
</g>
<!-- Node6&#45;&gt;Node7 -->
<g id="edge6" class="edge">
<title>Node6&#45;&gt;Node7</title>
<path fill="none" stroke="midnightblue" d="M1505.74,-238C1529.44,-238 1554.47,-238 1577.52,-238"/>
<polygon fill="midnightblue" stroke="midnightblue" points="1577.62,-241.5 1587.62,-238 1577.62,-234.5 1577.62,-241.5"/>
</g>
<!-- Node9 -->
<g id="node9" class="node">
<title>Node9</title>
<g id="a_node9"><a xlink:href="namespacesrc_1_1eralchemy_1_1sqla.html#a4ccd81ff2afbcbd286013a8e85f016fe" target="_top" xlink:title=" ">
<polygon fill="white" stroke="black" points="1564,-190.5 1564,-209.5 1770,-209.5 1770,-190.5 1564,-190.5"/>
<text text-anchor="middle" x="1667" y="-197.5" font-family="Helvetica,sans-Serif" font-size="10.00">src.eralchemy.sqla.column_to_intermediary</text>
</a>
</g>
</g>
<!-- Node8&#45;&gt;Node9 -->
<g id="edge8" class="edge">
<title>Node8&#45;&gt;Node9</title>
<path fill="none" stroke="midnightblue" d="M1500.13,-200C1517.48,-200 1535.7,-200 1553.46,-200"/>
<polygon fill="midnightblue" stroke="midnightblue" points="1553.85,-203.5 1563.85,-200 1553.85,-196.5 1553.85,-203.5"/>
</g>
<!-- Node11 -->
<g id="node11" class="node">
<title>Node11</title>
<g id="a_node11"><a xlink:href="namespacesrc_1_1eralchemy_1_1parser.html#af2c09125da4fddcf62bd70475bd1c156" target="_top" xlink:title=" ">
<polygon fill="white" stroke="black" points="994,-152.5 994,-171.5 1231,-171.5 1231,-152.5 994,-152.5"/>
<text text-anchor="middle" x="1112.5" y="-159.5" font-family="Helvetica,sans-Serif" font-size="10.00">src.eralchemy.parser.remove_comments_from_line</text>
</a>
</g>
</g>
<!-- Node10&#45;&gt;Node11 -->
<g id="edge10" class="edge">
<title>Node10&#45;&gt;Node11</title>
<path fill="none" stroke="midnightblue" d="M933.58,-150.48C949.92,-151.54 966.8,-152.63 983.36,-153.7"/>
<polygon fill="midnightblue" stroke="midnightblue" points="983.41,-157.22 993.62,-154.37 983.86,-150.23 983.41,-157.22"/>
</g>
<!-- Node12 -->
<g id="node12" class="node">
<title>Node12</title>
<g id="a_node12"><a xlink:href="namespacesrc_1_1eralchemy_1_1parser.html#aaa8d12965e24d3a437fe9605475f9ec1" target="_top" xlink:title=" ">
<polygon fill="white" stroke="black" points="1024,-114.5 1024,-133.5 1201,-133.5 1201,-114.5 1024,-114.5"/>
<text text-anchor="middle" x="1112.5" y="-121.5" font-family="Helvetica,sans-Serif" font-size="10.00">src.eralchemy.parser.update_models</text>
</a>
</g>
</g>
<!-- Node10&#45;&gt;Node12 -->
<g id="edge11" class="edge">
<title>Node10&#45;&gt;Node12</title>
<path fill="none" stroke="midnightblue" d="M933.58,-135.52C960.06,-133.8 987.96,-132 1013.62,-130.34"/>
<polygon fill="midnightblue" stroke="midnightblue" points="1013.95,-133.82 1023.7,-129.68 1013.5,-126.84 1013.95,-133.82"/>
</g>
<!-- Node13 -->
<g id="node13" class="node">
<title>Node13</title>
<g id="a_node13"><a xlink:href="namespacesrc_1_1eralchemy_1_1parser.html#a4074827fe7dbe79bd52ab7fce3fec3ff" target="_top" xlink:title=" ">
<polygon fill="white" stroke="black" points="1296,-152.5 1296,-171.5 1509,-171.5 1509,-152.5 1296,-152.5"/>
<text text-anchor="middle" x="1402.5" y="-159.5" font-family="Helvetica,sans-Serif" font-size="10.00">src.eralchemy.parser._check_colname_in_lst</text>
</a>
</g>
</g>
<!-- Node12&#45;&gt;Node13 -->
<g id="edge12" class="edge">
<title>Node12&#45;&gt;Node13</title>
<path fill="none" stroke="midnightblue" d="M1185.8,-133.54C1226.45,-138.9 1277.33,-145.62 1319.46,-151.18"/>
<polygon fill="midnightblue" stroke="midnightblue" points="1319.05,-154.65 1329.42,-152.49 1319.96,-147.71 1319.05,-154.65"/>
</g>
<!-- Node14 -->
<g id="node14" class="node">
<title>Node14</title>
<g id="a_node14"><a xlink:href="namespacesrc_1_1eralchemy_1_1parser.html#aa39338fd82cbc77e7aa9d11241375d3f" target="_top" xlink:title=" ">
<polygon fill="white" stroke="black" points="1292.5,-114.5 1292.5,-133.5 1512.5,-133.5 1512.5,-114.5 1292.5,-114.5"/>
<text text-anchor="middle" x="1402.5" y="-121.5" font-family="Helvetica,sans-Serif" font-size="10.00">src.eralchemy.parser._check_no_current_table</text>
</a>
</g>
</g>
<!-- Node12&#45;&gt;Node14 -->
<g id="edge13" class="edge">
<title>Node12&#45;&gt;Node14</title>
<path fill="none" stroke="midnightblue" d="M1201.08,-124C1226.62,-124 1254.96,-124 1282.1,-124"/>
<polygon fill="midnightblue" stroke="midnightblue" points="1282.44,-127.5 1292.44,-124 1282.44,-120.5 1282.44,-127.5"/>
</g>
<!-- Node15 -->
<g id="node15" class="node">
<title>Node15</title>
<g id="a_node15"><a xlink:href="namespacesrc_1_1eralchemy_1_1parser.html#a6ee33be1040bdc3f9d17e30a8667a6bf" target="_top" xlink:title=" ">
<polygon fill="white" stroke="black" points="1277,-76.5 1277,-95.5 1528,-95.5 1528,-76.5 1277,-76.5"/>
<text text-anchor="middle" x="1402.5" y="-83.5" font-family="Helvetica,sans-Serif" font-size="10.00">src.eralchemy.parser._check_not_creating_duplicates</text>
</a>
</g>
</g>
<!-- Node12&#45;&gt;Node15 -->
<g id="edge14" class="edge">
<title>Node12&#45;&gt;Node15</title>
<path fill="none" stroke="midnightblue" d="M1185.8,-114.46C1226.45,-109.1 1277.33,-102.38 1319.46,-96.82"/>
<polygon fill="midnightblue" stroke="midnightblue" points="1319.96,-100.29 1329.42,-95.51 1319.05,-93.35 1319.96,-100.29"/>
</g>
<!-- Node16 -->
<g id="node16" class="node">
<title>Node16</title>
<g id="a_node16"><a xlink:href="namespacesrc_1_1eralchemy_1_1parser.html#a865f8f738e78ee150ed201fe3f13f066" target="_top" xlink:title=" ">
<polygon fill="white" stroke="black" points="1298,-38.5 1298,-57.5 1507,-57.5 1507,-38.5 1298,-38.5"/>
<text text-anchor="middle" x="1402.5" y="-45.5" font-family="Helvetica,sans-Serif" font-size="10.00">src.eralchemy.parser._update_check_inputs</text>
</a>
</g>
</g>
<!-- Node12&#45;&gt;Node16 -->
<g id="edge15" class="edge">
<title>Node12&#45;&gt;Node16</title>
<path fill="none" stroke="midnightblue" d="M1201.32,-118.77C1215.09,-115.76 1228.79,-111.36 1241,-105 1261.63,-94.25 1256.39,-77.78 1277,-67 1281.31,-64.74 1285.82,-62.74 1290.45,-60.95"/>
<polygon fill="midnightblue" stroke="midnightblue" points="1291.81,-64.18 1300.11,-57.59 1289.52,-57.57 1291.81,-64.18"/>
</g>
<!-- Node17&#45;&gt;Node10 -->
<g id="edge17" class="edge">
<title>Node17&#45;&gt;Node10</title>
<path fill="none" stroke="midnightblue" d="M650.01,-132.03C663.32,-132.91 676.89,-133.81 690.25,-134.69"/>
<polygon fill="midnightblue" stroke="midnightblue" points="690.21,-138.19 700.42,-135.36 690.68,-131.21 690.21,-138.19"/>
</g>
<!-- Node18&#45;&gt;Node1 -->
<g id="edge24" class="edge">
<title>Node18&#45;&gt;Node1</title>
<path fill="none" stroke="midnightblue" d="M217.79,-92.15C198.65,-92.71 176.87,-92.88 156.17,-92.65"/>
<polygon fill="midnightblue" stroke="midnightblue" points="156.15,-89.15 146.1,-92.51 156.05,-96.15 156.15,-89.15"/>
</g>
<!-- Node19 -->
<g id="node19" class="node">
<title>Node19</title>
<g id="a_node19"><a xlink:href="namespacesrc_1_1body__extraction_1_1cli__entry.html#aecd587b23033196155b2e453464a7293" target="_top" xlink:title=" ">
<polygon fill="white" stroke="black" points="430,-76.5 430,-95.5 625,-95.5 625,-76.5 430,-76.5"/>
<text text-anchor="middle" x="527.5" y="-83.5" font-family="Helvetica,sans-Serif" font-size="10.00">src.body_extraction.cli_entry.check_args</text>
</a>
</g>
</g>
<!-- Node18&#45;&gt;Node19 -->
<g id="edge19" class="edge">
<title>Node18&#45;&gt;Node19</title>
<path fill="none" stroke="midnightblue" d="M333.23,-86C358.86,-86 390.01,-86 419.75,-86"/>
<polygon fill="midnightblue" stroke="midnightblue" points="419.77,-89.5 429.77,-86 419.77,-82.5 419.77,-89.5"/>
</g>
<!-- Node23 -->
<g id="node23" class="node">
<title>Node23</title>
<g id="a_node23"><a xlink:href="namespacesrc_1_1eralchemy_1_1main.html#a921a1f50101a96f712c68b47137e85f3" target="_top" xlink:title=" ">
<polygon fill="white" stroke="black" points="445.5,-38.5 445.5,-57.5 609.5,-57.5 609.5,-38.5 445.5,-38.5"/>
<text text-anchor="middle" x="527.5" y="-45.5" font-family="Helvetica,sans-Serif" font-size="10.00">src.eralchemy.main.get_argparser</text>
</a>
</g>
</g>
<!-- Node18&#45;&gt;Node23 -->
<g id="edge23" class="edge">
<title>Node18&#45;&gt;Node23</title>
<path fill="none" stroke="midnightblue" d="M333.23,-77.38C368.94,-71.95 415.36,-64.89 453.76,-59.06"/>
<polygon fill="midnightblue" stroke="midnightblue" points="454.49,-62.49 463.85,-57.52 453.44,-55.56 454.49,-62.49"/>
</g>
<!-- Node20 -->
<g id="node20" class="node">
<title>Node20</title>
<g id="a_node20"><a xlink:href="namespacesrc_1_1body__extraction_1_1cli__entry.html#a74f24adbe2969f94f9d747c25a387dc9" target="_top" xlink:title=" ">
<polygon fill="white" stroke="black" points="686,-76.5 686,-95.5 948,-95.5 948,-76.5 686,-76.5"/>
<text text-anchor="middle" x="817" y="-83.5" font-family="Helvetica,sans-Serif" font-size="10.00">src.body_extraction.cli_entry.check_args_has_attributes</text>
</a>
</g>
</g>
<!-- Node19&#45;&gt;Node20 -->
<g id="edge20" class="edge">
<title>Node19&#45;&gt;Node20</title>
<path fill="none" stroke="midnightblue" d="M625.03,-86C641.33,-86 658.54,-86 675.68,-86"/>
<polygon fill="midnightblue" stroke="midnightblue" points="675.75,-89.5 685.75,-86 675.75,-82.5 675.75,-89.5"/>
</g>
<!-- Node22 -->
<g id="node22" class="node">
<title>Node22</title>
<g id="a_node22"><a xlink:href="namespacesrc_1_1body__extraction_1_1cli__entry.html#aa7b20ee466231a9108c67f1056536884" target="_top" xlink:title=" ">
<polygon fill="white" stroke="black" points="738.5,-38.5 738.5,-57.5 895.5,-57.5 895.5,-38.5 738.5,-38.5"/>
<text text-anchor="middle" x="817" y="-45.5" font-family="Helvetica,sans-Serif" font-size="10.00">src.body_extraction.cli_entry.fail</text>
</a>
</g>
</g>
<!-- Node19&#45;&gt;Node22 -->
<g id="edge22" class="edge">
<title>Node19&#45;&gt;Node22</title>
<path fill="none" stroke="midnightblue" d="M600.68,-76.46C641.18,-71.11 691.85,-64.41 733.87,-58.86"/>
<polygon fill="midnightblue" stroke="midnightblue" points="734.34,-62.32 743.79,-57.54 733.42,-55.38 734.34,-62.32"/>
</g>
<!-- Node21 -->
<g id="node21" class="node">
<title>Node21</title>
<g id="a_node21"><a xlink:href="namespacesrc_1_1body__extraction_1_1cli__entry.html#ac54ec360f3fdef09b455b7f140ca435b" target="_top" xlink:title=" ">
<polygon fill="white" stroke="black" points="984,-76.5 984,-95.5 1241,-95.5 1241,-76.5 984,-76.5"/>
<text text-anchor="middle" x="1112.5" y="-83.5" font-family="Helvetica,sans-Serif" font-size="10.00">src.body_extraction.cli_entry.check_args_has_attribute</text>
</a>
</g>
</g>
<!-- Node20&#45;&gt;Node21 -->
<g id="edge21" class="edge">
<title>Node20&#45;&gt;Node21</title>
<path fill="none" stroke="midnightblue" d="M948.02,-86C956.41,-86 964.88,-86 973.31,-86"/>
<polygon fill="midnightblue" stroke="midnightblue" points="973.56,-89.5 983.56,-86 973.56,-82.5 973.56,-89.5"/>
</g>
</g>
</svg>
        <g id="navigator" transform="translate(0 0)" fill="#404254">
                <rect fill="#f2f5e9" fill-opacity="0.5" stroke="#606060" stroke-width=".5" x="0" y="0" width="60" height="60"/>
                <use id="zoomplus" xlink:href="#zoomPlus" x="17" y="9" onmousedown="handleZoom(evt,'in')"/>
                <use id="zoomminus" xlink:href="#zoomMin" x="42" y="9" onmousedown="handleZoom(evt,'out')"/>
                <use id="reset" xlink:href="#resetDef" x="30" y="36" onmousedown="handleReset()"/>
                <g id="arrowUp" xlink:href="#dirArrow" transform="translate(30 24)" onmousedown="handlePan(0,-1)">
                  <use xlink:href="#rim" fill="#404040">
                        <set attributeName="fill" to="#808080" begin="arrowUp.mouseover" end="arrowUp.mouseout"/>
                  </use>
                  <path fill="none" stroke="white" stroke-width="1.5" d="M0,-3.0v7 M-2.5,-0.5L0,-3.0L2.5,-0.5"/>
                </g>
                <g id="arrowRight" xlink:href="#dirArrow" transform="rotate(90) translate(36 -43)" onmousedown="handlePan(1,0)">
                  <use xlink:href="#rim" fill="#404040">
                        <set attributeName="fill" to="#808080" begin="arrowRight.mouseover" end="arrowRight.mouseout"/>
                  </use>
                  <path fill="none" stroke="white" stroke-width="1.5" d="M0,-3.0v7 M-2.5,-0.5L0,-3.0L2.5,-0.5"/>
                </g>
                <g id="arrowDown" xlink:href="#dirArrow" transform="rotate(180) translate(-30 -48)" onmousedown="handlePan(0,1)">
                  <use xlink:href="#rim" fill="#404040">
                        <set attributeName="fill" to="#808080" begin="arrowDown.mouseover" end="arrowDown.mouseout"/>
                  </use>
                  <path fill="none" stroke="white" stroke-width="1.5" d="M0,-3.0v7 M-2.5,-0.5L0,-3.0L2.5,-0.5"/>
                </g>
                <g id="arrowLeft" xlink:href="#dirArrow" transform="rotate(270) translate(-36 17)" onmousedown="handlePan(-1,0)">
                  <use xlink:href="#rim" fill="#404040">
                        <set attributeName="fill" to="#808080" begin="arrowLeft.mouseover" end="arrowLeft.mouseout"/>
                  </use>
                  <path fill="none" stroke="white" stroke-width="1.5" d="M0,-3.0v7 M-2.5,-0.5L0,-3.0L2.5,-0.5"/>
                </g>
        </g>
        <svg viewBox="0 0 15 15" width="100%" height="30px" preserveAspectRatio="xMaxYMin meet">
         <g id="arrow_out" transform="scale(0.3 0.3)">
          <a xlink:href="namespacesrc_1_1eralchemy_1_1main_a5387e0a7c14b44fd86de8ede390bed04_cgraph_org.svg" target="_base">
           <rect id="button" ry="5" rx="5" y="6" x="6" height="38" width="38"
                fill="#f2f5e9" fill-opacity="0.5" stroke="#606060" stroke-width="1.0"/>
           <path id="arrow"
             d="M 11.500037,31.436501 C 11.940474,20.09759 22.043105,11.32322 32.158766,21.979434 L 37.068811,17.246167 C 37.068811,17.246167 37.088388,32 37.088388,32 L 22.160133,31.978069 C 22.160133,31.978069 26.997745,27.140456 26.997745,27.140456 C 18.528582,18.264221 13.291696,25.230495 11.500037,31.436501 z"
             style="fill:#404040;"/>
          </a>
         </g>
        </svg>
</svg>
