<?xml version="1.0" encoding="UTF-8" standalone="no"?>
<!DOCTYPE svg PUBLIC "-//W3C//DTD SVG 1.1//EN"
 "http://www.w3.org/Graphics/SVG/1.1/DTD/svg11.dtd">
<!-- Generated by graphviz version 2.47.1 (20210417.1919)
 -->
<!-- Title: src.eralchemy.helpers.check_args Pages: 1 -->
<svg width="530pt" height="78pt"
 viewBox="0.00 0.00 530.00 77.50" xmlns="http://www.w3.org/2000/svg" xmlns:xlink="http://www.w3.org/1999/xlink">
<g id="graph0" class="graph" transform="scale(1 1) rotate(0) translate(4 73.5)">
<title>src.eralchemy.helpers.check_args</title>
<polygon fill="white" stroke="transparent" points="-4,4 -4,-73.5 526,-73.5 526,4 -4,4"/>
<!-- Node1 -->
<g id="node1" class="node">
<title>Node1</title>
<g id="a_node1"><a xlink:title=" ">
<polygon fill="#bfbfbf" stroke="black" points="0,-22.5 0,-41.5 166,-41.5 166,-22.5 0,-22.5"/>
<text text-anchor="middle" x="83" y="-29.5" font-family="Helvetica,sans-Serif" font-size="10.00">src.eralchemy.helpers.check_args</text>
</a>
</g>
</g>
<!-- Node2 -->
<g id="node2" class="node">
<title>Node2</title>
<g id="a_node2"><a xlink:href="namespacesrc_1_1eralchemy_1_1helpers.html#aace21dff405f17a28ef35acfaf2c0a8b" target="_top" xlink:title=" ">
<polygon fill="white" stroke="black" points="202,-39 202,-69 344,-69 344,-39 202,-39"/>
<text text-anchor="start" x="210" y="-57" font-family="Helvetica,sans-Serif" font-size="10.00">src.eralchemy.helpers.check</text>
<text text-anchor="middle" x="273" y="-46" font-family="Helvetica,sans-Serif" font-size="10.00">_args_has_attributes</text>
</a>
</g>
</g>
<!-- Node1&#45;&gt;Node2 -->
<g id="edge1" class="edge">
<title>Node1&#45;&gt;Node2</title>
<path fill="none" stroke="midnightblue" d="M165.37,-41.52C174.07,-42.54 182.92,-43.58 191.61,-44.59"/>
<polygon fill="midnightblue" stroke="midnightblue" points="191.38,-48.09 201.72,-45.78 192.19,-41.14 191.38,-48.09"/>
</g>
<!-- Node4 -->
<g id="node4" class="node">
<title>Node4</title>
<g id="a_node4"><a xlink:href="namespacesrc_1_1eralchemy_1_1helpers.html#a605be40092b15a052d4579f8c9770d14" target="_top" xlink:title=" ">
<polygon fill="white" stroke="black" points="209,-0.5 209,-19.5 337,-19.5 337,-0.5 209,-0.5"/>
<text text-anchor="middle" x="273" y="-7.5" font-family="Helvetica,sans-Serif" font-size="10.00">src.eralchemy.helpers.fail</text>
</a>
</g>
</g>
<!-- Node1&#45;&gt;Node4 -->
<g id="edge3" class="edge">
<title>Node1&#45;&gt;Node4</title>
<path fill="none" stroke="midnightblue" d="M165.37,-22.48C176.53,-21.17 187.95,-19.84 198.95,-18.55"/>
<polygon fill="midnightblue" stroke="midnightblue" points="199.4,-22.02 208.93,-17.38 198.59,-15.07 199.4,-22.02"/>
</g>
<!-- Node3 -->
<g id="node3" class="node">
<title>Node3</title>
<g id="a_node3"><a xlink:href="namespacesrc_1_1eralchemy_1_1helpers.html#a4bd162419e5cfe3008d5315c582d05fb" target="_top" xlink:title=" ">
<polygon fill="white" stroke="black" points="380,-39 380,-69 522,-69 522,-39 380,-39"/>
<text text-anchor="start" x="388" y="-57" font-family="Helvetica,sans-Serif" font-size="10.00">src.eralchemy.helpers.check</text>
<text text-anchor="middle" x="451" y="-46" font-family="Helvetica,sans-Serif" font-size="10.00">_args_has_attribute</text>
</a>
</g>
</g>
<!-- Node2&#45;&gt;Node3 -->
<g id="edge2" class="edge">
<title>Node2&#45;&gt;Node3</title>
<path fill="none" stroke="midnightblue" d="M344.07,-54C352.54,-54 361.25,-54 369.85,-54"/>
<polygon fill="midnightblue" stroke="midnightblue" points="369.89,-57.5 379.89,-54 369.89,-50.5 369.89,-57.5"/>
</g>
</g>
</svg>
