<?xml version="1.0" encoding="UTF-8" standalone="no"?>
<!DOCTYPE svg PUBLIC "-//W3C//DTD SVG 1.1//EN"
 "http://www.w3.org/Graphics/SVG/1.1/DTD/svg11.dtd">
<!-- Generated by graphviz version 2.47.1 (20210417.1919)
 -->
<!-- Title: src.db_tools.database_consolidation.doit_generate_erd Pages: 1 -->
<!--zoomable 256 -->
<svg id="main" version="1.1" xmlns="http://www.w3.org/2000/svg" xmlns:xlink="http://www.w3.org/1999/xlink" xml:space="preserve" onload="init(evt)">
<style type="text/css"><![CDATA[
.edge:hover path { stroke: red; }
.edge:hover polygon { stroke: red; fill: red; }
]]></style>
<script type="text/javascript"><![CDATA[
var edges = document.getElementsByTagName('g');
if (edges && edges.length) {
  for (var i=0;i<edges.length;i++) {
    if (edges[i].id.substr(0,4)=='edge') {
      edges[i].setAttribute('class','edge');
    }
  }
}
]]></script>
        <defs>
                <circle id="rim" cx="0" cy="0" r="7"/>
                <circle id="rim2" cx="0" cy="0" r="3.5"/>
                <g id="zoomPlus">
                        <use xlink:href="#rim" fill="#404040">
                                <set attributeName="fill" to="#808080" begin="zoomplus.mouseover" end="zoomplus.mouseout"/>
                        </use>
                        <path d="M-4,0h8M0,-4v8" fill="none" stroke="white" stroke-width="1.5" pointer-events="none"/>
                </g>
                <g id="zoomMin">
                        <use xlink:href="#rim" fill="#404040">
                                <set attributeName="fill" to="#808080" begin="zoomminus.mouseover" end="zoomminus.mouseout"/>
                        </use>
                        <path d="M-4,0h8" fill="none" stroke="white" stroke-width="1.5" pointer-events="none"/>
                </g>
                <g id="dirArrow">
                        <path fill="none" stroke="white" stroke-width="1.5" d="M0,-3.0v7 M-2.5,-0.5L0,-3.0L2.5,-0.5"/>
                </g>
               <g id="resetDef">
                       <use xlink:href="#rim2" fill="#404040">
                               <set attributeName="fill" to="#808080" begin="reset.mouseover" end="reset.mouseout"/>
                       </use>
               </g>
        </defs>

<script type="text/javascript">
var viewWidth = 2069;
var viewHeight = 256;
var sectionId = 'dynsection-2';
</script>
<script xlink:href="svgpan.js"/>
<svg id="graph" class="graph">
<g id="viewport">
<title>src.db_tools.database_consolidation.doit_generate_erd</title>
<polygon fill="white" stroke="transparent" points="-4,4 -4,-252 2065,-252 2065,4 -4,4"/>
<!-- Node1 -->
<g id="node1" class="node">
<title>Node1</title>
<g id="a_node1"><a xlink:title=" ">
<polygon fill="#bfbfbf" stroke="black" points="0,-76.5 0,-95.5 255,-95.5 255,-76.5 0,-76.5"/>
<text text-anchor="middle" x="127.5" y="-83.5" font-family="Helvetica,sans-Serif" font-size="10.00">src.db_tools.database_consolidation.doit_generate_erd</text>
</a>
</g>
</g>
<!-- Node2 -->
<g id="node2" class="node">
<title>Node2</title>
<g id="a_node2"><a xlink:href="namespacesrc_1_1eralchemy_1_1main.html#a5387e0a7c14b44fd86de8ede390bed04" target="_top" xlink:title=" ">
<polygon fill="white" stroke="black" points="291,-76.5 291,-95.5 437,-95.5 437,-76.5 291,-76.5"/>
<text text-anchor="middle" x="364" y="-83.5" font-family="Helvetica,sans-Serif" font-size="10.00">src.eralchemy.main.render_er</text>
</a>
</g>
</g>
<!-- Node1&#45;&gt;Node2 -->
<g id="edge1" class="edge">
<title>Node1&#45;&gt;Node2</title>
<path fill="none" stroke="midnightblue" d="M255.02,-86C263.71,-86 272.33,-86 280.69,-86"/>
<polygon fill="midnightblue" stroke="midnightblue" points="280.74,-89.5 290.74,-86 280.74,-82.5 280.74,-89.5"/>
</g>
<!-- Node3 -->
<g id="node3" class="node">
<title>Node3</title>
<g id="a_node3"><a xlink:href="namespacesrc_1_1eralchemy_1_1main.html#a9fac164b40f74cd204823413bbc5c01d" target="_top" xlink:title=" ">
<polygon fill="white" stroke="black" points="473,-133.5 473,-152.5 660,-152.5 660,-133.5 473,-133.5"/>
<text text-anchor="middle" x="566.5" y="-140.5" font-family="Helvetica,sans-Serif" font-size="10.00">src.eralchemy.main.all_to_intermediary</text>
</a>
</g>
</g>
<!-- Node2&#45;&gt;Node3 -->
<g id="edge2" class="edge">
<title>Node2&#45;&gt;Node3</title>
<path fill="none" stroke="midnightblue" d="M398.56,-95.54C432.39,-105.16 484.76,-120.05 521.82,-130.58"/>
<polygon fill="midnightblue" stroke="midnightblue" points="521.26,-134.06 531.83,-133.43 523.17,-127.33 521.26,-134.06"/>
</g>
<!-- Node19 -->
<g id="node19" class="node">
<title>Node19</title>
<g id="a_node19"><a xlink:href="namespacesrc_1_1eralchemy_1_1main.html#afd606a75c08edb3181030c5b1ce3b5aa" target="_top" xlink:title=" ">
<polygon fill="white" stroke="black" points="509,-76.5 509,-95.5 624,-95.5 624,-76.5 509,-76.5"/>
<text text-anchor="middle" x="566.5" y="-83.5" font-family="Helvetica,sans-Serif" font-size="10.00">src.eralchemy.main.cli</text>
</a>
</g>
</g>
<!-- Node2&#45;&gt;Node19 -->
<g id="edge19" class="edge">
<title>Node2&#45;&gt;Node19</title>
<path fill="none" stroke="midnightblue" d="M437.1,-79.49C457.18,-79.14 478.89,-79.17 498.65,-79.59"/>
<polygon fill="midnightblue" stroke="midnightblue" points="498.71,-83.1 508.79,-79.85 498.88,-76.1 498.71,-83.1"/>
</g>
<!-- Node25 -->
<g id="node25" class="node">
<title>Node25</title>
<g id="a_node25"><a xlink:href="namespacesrc_1_1eralchemy_1_1main.html#a6718b3d4e1e90e2f41ba8ca2cf54393e" target="_top" xlink:title=" ">
<polygon fill="white" stroke="black" points="481,-38.5 481,-57.5 652,-57.5 652,-38.5 481,-38.5"/>
<text text-anchor="middle" x="566.5" y="-45.5" font-family="Helvetica,sans-Serif" font-size="10.00">src.eralchemy.main.filter_resources</text>
</a>
</g>
</g>
<!-- Node2&#45;&gt;Node25 -->
<g id="edge26" class="edge">
<title>Node2&#45;&gt;Node25</title>
<path fill="none" stroke="midnightblue" d="M415.34,-76.46C442.63,-71.29 476.54,-64.86 505.23,-59.42"/>
<polygon fill="midnightblue" stroke="midnightblue" points="505.97,-62.84 515.14,-57.54 504.67,-55.97 505.97,-62.84"/>
</g>
<!-- Node26 -->
<g id="node26" class="node">
<title>Node26</title>
<g id="a_node26"><a xlink:href="namespacesrc_1_1eralchemy_1_1main.html#ac3f7087a073800cd04d6ceb584721e06" target="_top" xlink:title=" ">
<polygon fill="white" stroke="black" points="476.5,-0.5 476.5,-19.5 656.5,-19.5 656.5,-0.5 476.5,-0.5"/>
<text text-anchor="middle" x="566.5" y="-7.5" font-family="Helvetica,sans-Serif" font-size="10.00">src.eralchemy.main.get_output_mode</text>
</a>
</g>
</g>
<!-- Node2&#45;&gt;Node26 -->
<g id="edge27" class="edge">
<title>Node2&#45;&gt;Node26</title>
<path fill="none" stroke="midnightblue" d="M379.76,-76.47C400,-63.81 437.87,-41.59 473,-29 480.38,-26.36 488.23,-24.04 496.11,-22.01"/>
<polygon fill="midnightblue" stroke="midnightblue" points="497.19,-25.35 506.09,-19.61 495.55,-18.55 497.19,-25.35"/>
</g>
<!-- Node4 -->
<g id="node4" class="node">
<title>Node4</title>
<g id="a_node4"><a xlink:href="namespacesrc_1_1eralchemy_1_1sqla.html#a45674eee4c7ce1d82b7f99a285958c1d" target="_top" xlink:title=" ">
<polygon fill="white" stroke="black" points="711.5,-190.5 711.5,-209.5 925.5,-209.5 925.5,-190.5 711.5,-190.5"/>
<text text-anchor="middle" x="818.5" y="-197.5" font-family="Helvetica,sans-Serif" font-size="10.00">src.eralchemy.sqla.database_to_intermediary</text>
</a>
</g>
</g>
<!-- Node3&#45;&gt;Node4 -->
<g id="edge3" class="edge">
<title>Node3&#45;&gt;Node4</title>
<path fill="none" stroke="midnightblue" d="M602.55,-152.57C628.31,-159.46 664.22,-168.79 696,-176 715.46,-180.42 736.78,-184.79 756.06,-188.56"/>
<polygon fill="midnightblue" stroke="midnightblue" points="755.45,-192.01 765.93,-190.48 756.78,-185.14 755.45,-192.01"/>
</g>
<!-- Node11 -->
<g id="node11" class="node">
<title>Node11</title>
<g id="a_node11"><a xlink:href="namespacesrc_1_1eralchemy_1_1parser.html#ae896c00e0ce3280fd4a5f84bb3b13da5" target="_top" xlink:title=" ">
<polygon fill="white" stroke="black" points="991.5,-133.5 991.5,-152.5 1224.5,-152.5 1224.5,-133.5 991.5,-133.5"/>
<text text-anchor="middle" x="1108" y="-140.5" font-family="Helvetica,sans-Serif" font-size="10.00">src.eralchemy.parser.line_iterator_to_intermediary</text>
</a>
</g>
</g>
<!-- Node3&#45;&gt;Node11 -->
<g id="edge10" class="edge">
<title>Node3&#45;&gt;Node11</title>
<path fill="none" stroke="midnightblue" d="M660.24,-143C748.7,-143 882.62,-143 980.77,-143"/>
<polygon fill="midnightblue" stroke="midnightblue" points="981.06,-146.5 991.06,-143 981.06,-139.5 981.06,-146.5"/>
</g>
<!-- Node18 -->
<g id="node18" class="node">
<title>Node18</title>
<g id="a_node18"><a xlink:href="namespacesrc_1_1eralchemy_1_1parser.html#a4ae9323517c46eeb4ed9d87588832be2" target="_top" xlink:title=" ">
<polygon fill="white" stroke="black" points="696,-114.5 696,-133.5 941,-133.5 941,-114.5 696,-114.5"/>
<text text-anchor="middle" x="818.5" y="-121.5" font-family="Helvetica,sans-Serif" font-size="10.00">src.eralchemy.parser.markdown_file_to_intermediary</text>
</a>
</g>
</g>
<!-- Node3&#45;&gt;Node18 -->
<g id="edge17" class="edge">
<title>Node3&#45;&gt;Node18</title>
<path fill="none" stroke="midnightblue" d="M660.24,-135.95C668.53,-135.32 677.02,-134.68 685.55,-134.03"/>
<polygon fill="midnightblue" stroke="midnightblue" points="685.88,-137.51 695.59,-133.27 685.35,-130.53 685.88,-137.51"/>
</g>
<!-- Node5 -->
<g id="node5" class="node">
<title>Node5</title>
<g id="a_node5"><a xlink:href="namespacesrc_1_1eralchemy_1_1sqla.html#a08828ed118d96f46452d9c55a5080c78" target="_top" xlink:title=" ">
<polygon fill="white" stroke="black" points="998,-190.5 998,-209.5 1218,-209.5 1218,-190.5 998,-190.5"/>
<text text-anchor="middle" x="1108" y="-197.5" font-family="Helvetica,sans-Serif" font-size="10.00">src.eralchemy.sqla.declarative_to_intermediary</text>
</a>
</g>
</g>
<!-- Node4&#45;&gt;Node5 -->
<g id="edge4" class="edge">
<title>Node4&#45;&gt;Node5</title>
<path fill="none" stroke="midnightblue" d="M925.74,-200C945.94,-200 967.22,-200 987.79,-200"/>
<polygon fill="midnightblue" stroke="midnightblue" points="987.83,-203.5 997.83,-200 987.83,-196.5 987.83,-203.5"/>
</g>
<!-- Node6 -->
<g id="node6" class="node">
<title>Node6</title>
<g id="a_node6"><a xlink:href="namespacesrc_1_1eralchemy_1_1sqla.html#a8c80e60516d371d4404a1040516f88ea" target="_top" xlink:title=" ">
<polygon fill="white" stroke="black" points="1296,-190.5 1296,-209.5 1511,-209.5 1511,-190.5 1296,-190.5"/>
<text text-anchor="middle" x="1403.5" y="-197.5" font-family="Helvetica,sans-Serif" font-size="10.00">src.eralchemy.sqla.metadata_to_intermediary</text>
</a>
</g>
</g>
<!-- Node5&#45;&gt;Node6 -->
<g id="edge5" class="edge">
<title>Node5&#45;&gt;Node6</title>
<path fill="none" stroke="midnightblue" d="M1218.29,-200C1240.2,-200 1263.3,-200 1285.45,-200"/>
<polygon fill="midnightblue" stroke="midnightblue" points="1285.56,-203.5 1295.56,-200 1285.56,-196.5 1285.56,-203.5"/>
</g>
<!-- Node7 -->
<g id="node7" class="node">
<title>Node7</title>
<g id="a_node7"><a xlink:href="namespacesrc_1_1eralchemy_1_1sqla.html#aecf50970e801a99f0a0373b9bd5c2988" target="_top" xlink:title=" ">
<polygon fill="white" stroke="black" points="1590.5,-228.5 1590.5,-247.5 1796.5,-247.5 1796.5,-228.5 1590.5,-228.5"/>
<text text-anchor="middle" x="1693.5" y="-235.5" font-family="Helvetica,sans-Serif" font-size="10.00">src.eralchemy.sqla.relation_to_intermediary</text>
</a>
</g>
</g>
<!-- Node6&#45;&gt;Node7 -->
<g id="edge6" class="edge">
<title>Node6&#45;&gt;Node7</title>
<path fill="none" stroke="midnightblue" d="M1476.8,-209.54C1517.45,-214.9 1568.33,-221.62 1610.46,-227.18"/>
<polygon fill="midnightblue" stroke="midnightblue" points="1610.05,-230.65 1620.42,-228.49 1610.96,-223.71 1610.05,-230.65"/>
</g>
<!-- Node9 -->
<g id="node9" class="node">
<title>Node9</title>
<g id="a_node9"><a xlink:href="namespacesrc_1_1eralchemy_1_1sqla.html#ac1b6d81b9b494b0b3b9775947dbae11f" target="_top" xlink:title=" ">
<polygon fill="white" stroke="black" points="1596,-190.5 1596,-209.5 1791,-209.5 1791,-190.5 1596,-190.5"/>
<text text-anchor="middle" x="1693.5" y="-197.5" font-family="Helvetica,sans-Serif" font-size="10.00">src.eralchemy.sqla.table_to_intermediary</text>
</a>
</g>
</g>
<!-- Node6&#45;&gt;Node9 -->
<g id="edge8" class="edge">
<title>Node6&#45;&gt;Node9</title>
<path fill="none" stroke="midnightblue" d="M1511.33,-200C1535.56,-200 1561.3,-200 1585.54,-200"/>
<polygon fill="midnightblue" stroke="midnightblue" points="1585.83,-203.5 1595.83,-200 1585.83,-196.5 1585.83,-203.5"/>
</g>
<!-- Node8 -->
<g id="node8" class="node">
<title>Node8</title>
<g id="a_node8"><a xlink:href="namespacesrc_1_1eralchemy_1_1sqla.html#a74f56fbe681e9a1b0d0c0b0832b91509" target="_top" xlink:title=" ">
<polygon fill="white" stroke="black" points="1879,-228.5 1879,-247.5 2037,-247.5 2037,-228.5 1879,-228.5"/>
<text text-anchor="middle" x="1958" y="-235.5" font-family="Helvetica,sans-Serif" font-size="10.00">src.eralchemy.sqla.format_name</text>
</a>
</g>
</g>
<!-- Node7&#45;&gt;Node8 -->
<g id="edge7" class="edge">
<title>Node7&#45;&gt;Node8</title>
<path fill="none" stroke="midnightblue" d="M1796.74,-238C1820.44,-238 1845.47,-238 1868.52,-238"/>
<polygon fill="midnightblue" stroke="midnightblue" points="1868.62,-241.5 1878.62,-238 1868.62,-234.5 1868.62,-241.5"/>
</g>
<!-- Node10 -->
<g id="node10" class="node">
<title>Node10</title>
<g id="a_node10"><a xlink:href="namespacesrc_1_1eralchemy_1_1sqla.html#a4ccd81ff2afbcbd286013a8e85f016fe" target="_top" xlink:title=" ">
<polygon fill="white" stroke="black" points="1855,-190.5 1855,-209.5 2061,-209.5 2061,-190.5 1855,-190.5"/>
<text text-anchor="middle" x="1958" y="-197.5" font-family="Helvetica,sans-Serif" font-size="10.00">src.eralchemy.sqla.column_to_intermediary</text>
</a>
</g>
</g>
<!-- Node9&#45;&gt;Node10 -->
<g id="edge9" class="edge">
<title>Node9&#45;&gt;Node10</title>
<path fill="none" stroke="midnightblue" d="M1791.13,-200C1808.48,-200 1826.7,-200 1844.46,-200"/>
<polygon fill="midnightblue" stroke="midnightblue" points="1844.85,-203.5 1854.85,-200 1844.85,-196.5 1844.85,-203.5"/>
</g>
<!-- Node12 -->
<g id="node12" class="node">
<title>Node12</title>
<g id="a_node12"><a xlink:href="namespacesrc_1_1eralchemy_1_1parser.html#af2c09125da4fddcf62bd70475bd1c156" target="_top" xlink:title=" ">
<polygon fill="white" stroke="black" points="1285,-152.5 1285,-171.5 1522,-171.5 1522,-152.5 1285,-152.5"/>
<text text-anchor="middle" x="1403.5" y="-159.5" font-family="Helvetica,sans-Serif" font-size="10.00">src.eralchemy.parser.remove_comments_from_line</text>
</a>
</g>
</g>
<!-- Node11&#45;&gt;Node12 -->
<g id="edge11" class="edge">
<title>Node11&#45;&gt;Node12</title>
<path fill="none" stroke="midnightblue" d="M1224.58,-150.48C1240.92,-151.54 1257.8,-152.63 1274.36,-153.7"/>
<polygon fill="midnightblue" stroke="midnightblue" points="1274.41,-157.22 1284.62,-154.37 1274.86,-150.23 1274.41,-157.22"/>
</g>
<!-- Node13 -->
<g id="node13" class="node">
<title>Node13</title>
<g id="a_node13"><a xlink:href="namespacesrc_1_1eralchemy_1_1parser.html#aaa8d12965e24d3a437fe9605475f9ec1" target="_top" xlink:title=" ">
<polygon fill="white" stroke="black" points="1315,-114.5 1315,-133.5 1492,-133.5 1492,-114.5 1315,-114.5"/>
<text text-anchor="middle" x="1403.5" y="-121.5" font-family="Helvetica,sans-Serif" font-size="10.00">src.eralchemy.parser.update_models</text>
</a>
</g>
</g>
<!-- Node11&#45;&gt;Node13 -->
<g id="edge12" class="edge">
<title>Node11&#45;&gt;Node13</title>
<path fill="none" stroke="midnightblue" d="M1224.58,-135.52C1251.06,-133.8 1278.96,-132 1304.62,-130.34"/>
<polygon fill="midnightblue" stroke="midnightblue" points="1304.95,-133.82 1314.7,-129.68 1304.5,-126.84 1304.95,-133.82"/>
</g>
<!-- Node14 -->
<g id="node14" class="node">
<title>Node14</title>
<g id="a_node14"><a xlink:href="namespacesrc_1_1eralchemy_1_1parser.html#a4074827fe7dbe79bd52ab7fce3fec3ff" target="_top" xlink:title=" ">
<polygon fill="white" stroke="black" points="1587,-152.5 1587,-171.5 1800,-171.5 1800,-152.5 1587,-152.5"/>
<text text-anchor="middle" x="1693.5" y="-159.5" font-family="Helvetica,sans-Serif" font-size="10.00">src.eralchemy.parser._check_colname_in_lst</text>
</a>
</g>
</g>
<!-- Node13&#45;&gt;Node14 -->
<g id="edge13" class="edge">
<title>Node13&#45;&gt;Node14</title>
<path fill="none" stroke="midnightblue" d="M1476.8,-133.54C1517.45,-138.9 1568.33,-145.62 1610.46,-151.18"/>
<polygon fill="midnightblue" stroke="midnightblue" points="1610.05,-154.65 1620.42,-152.49 1610.96,-147.71 1610.05,-154.65"/>
</g>
<!-- Node15 -->
<g id="node15" class="node">
<title>Node15</title>
<g id="a_node15"><a xlink:href="namespacesrc_1_1eralchemy_1_1parser.html#aa39338fd82cbc77e7aa9d11241375d3f" target="_top" xlink:title=" ">
<polygon fill="white" stroke="black" points="1583.5,-114.5 1583.5,-133.5 1803.5,-133.5 1803.5,-114.5 1583.5,-114.5"/>
<text text-anchor="middle" x="1693.5" y="-121.5" font-family="Helvetica,sans-Serif" font-size="10.00">src.eralchemy.parser._check_no_current_table</text>
</a>
</g>
</g>
<!-- Node13&#45;&gt;Node15 -->
<g id="edge14" class="edge">
<title>Node13&#45;&gt;Node15</title>
<path fill="none" stroke="midnightblue" d="M1492.08,-124C1517.62,-124 1545.96,-124 1573.1,-124"/>
<polygon fill="midnightblue" stroke="midnightblue" points="1573.44,-127.5 1583.44,-124 1573.44,-120.5 1573.44,-127.5"/>
</g>
<!-- Node16 -->
<g id="node16" class="node">
<title>Node16</title>
<g id="a_node16"><a xlink:href="namespacesrc_1_1eralchemy_1_1parser.html#a6ee33be1040bdc3f9d17e30a8667a6bf" target="_top" xlink:title=" ">
<polygon fill="white" stroke="black" points="1568,-76.5 1568,-95.5 1819,-95.5 1819,-76.5 1568,-76.5"/>
<text text-anchor="middle" x="1693.5" y="-83.5" font-family="Helvetica,sans-Serif" font-size="10.00">src.eralchemy.parser._check_not_creating_duplicates</text>
</a>
</g>
</g>
<!-- Node13&#45;&gt;Node16 -->
<g id="edge15" class="edge">
<title>Node13&#45;&gt;Node16</title>
<path fill="none" stroke="midnightblue" d="M1476.8,-114.46C1517.45,-109.1 1568.33,-102.38 1610.46,-96.82"/>
<polygon fill="midnightblue" stroke="midnightblue" points="1610.96,-100.29 1620.42,-95.51 1610.05,-93.35 1610.96,-100.29"/>
</g>
<!-- Node17 -->
<g id="node17" class="node">
<title>Node17</title>
<g id="a_node17"><a xlink:href="namespacesrc_1_1eralchemy_1_1parser.html#a865f8f738e78ee150ed201fe3f13f066" target="_top" xlink:title=" ">
<polygon fill="white" stroke="black" points="1589,-38.5 1589,-57.5 1798,-57.5 1798,-38.5 1589,-38.5"/>
<text text-anchor="middle" x="1693.5" y="-45.5" font-family="Helvetica,sans-Serif" font-size="10.00">src.eralchemy.parser._update_check_inputs</text>
</a>
</g>
</g>
<!-- Node13&#45;&gt;Node17 -->
<g id="edge16" class="edge">
<title>Node13&#45;&gt;Node17</title>
<path fill="none" stroke="midnightblue" d="M1492.32,-118.77C1506.09,-115.76 1519.79,-111.36 1532,-105 1552.63,-94.25 1547.39,-77.78 1568,-67 1572.31,-64.74 1576.82,-62.74 1581.45,-60.95"/>
<polygon fill="midnightblue" stroke="midnightblue" points="1582.81,-64.18 1591.11,-57.59 1580.52,-57.57 1582.81,-64.18"/>
</g>
<!-- Node18&#45;&gt;Node11 -->
<g id="edge18" class="edge">
<title>Node18&#45;&gt;Node11</title>
<path fill="none" stroke="midnightblue" d="M941.01,-132.03C954.32,-132.91 967.89,-133.81 981.25,-134.69"/>
<polygon fill="midnightblue" stroke="midnightblue" points="981.21,-138.19 991.42,-135.36 981.68,-131.21 981.21,-138.19"/>
</g>
<!-- Node19&#45;&gt;Node2 -->
<g id="edge25" class="edge">
<title>Node19&#45;&gt;Node2</title>
<path fill="none" stroke="midnightblue" d="M508.79,-92.15C489.65,-92.71 467.87,-92.88 447.17,-92.65"/>
<polygon fill="midnightblue" stroke="midnightblue" points="447.15,-89.15 437.1,-92.51 447.05,-96.15 447.15,-89.15"/>
</g>
<!-- Node20 -->
<g id="node20" class="node">
<title>Node20</title>
<g id="a_node20"><a xlink:href="namespacesrc_1_1body__extraction_1_1cli__entry.html#aecd587b23033196155b2e453464a7293" target="_top" xlink:title=" ">
<polygon fill="white" stroke="black" points="721,-76.5 721,-95.5 916,-95.5 916,-76.5 721,-76.5"/>
<text text-anchor="middle" x="818.5" y="-83.5" font-family="Helvetica,sans-Serif" font-size="10.00">src.body_extraction.cli_entry.check_args</text>
</a>
</g>
</g>
<!-- Node19&#45;&gt;Node20 -->
<g id="edge20" class="edge">
<title>Node19&#45;&gt;Node20</title>
<path fill="none" stroke="midnightblue" d="M624.23,-86C649.86,-86 681.01,-86 710.75,-86"/>
<polygon fill="midnightblue" stroke="midnightblue" points="710.77,-89.5 720.77,-86 710.77,-82.5 710.77,-89.5"/>
</g>
<!-- Node24 -->
<g id="node24" class="node">
<title>Node24</title>
<g id="a_node24"><a xlink:href="namespacesrc_1_1eralchemy_1_1main.html#a921a1f50101a96f712c68b47137e85f3" target="_top" xlink:title=" ">
<polygon fill="white" stroke="black" points="736.5,-38.5 736.5,-57.5 900.5,-57.5 900.5,-38.5 736.5,-38.5"/>
<text text-anchor="middle" x="818.5" y="-45.5" font-family="Helvetica,sans-Serif" font-size="10.00">src.eralchemy.main.get_argparser</text>
</a>
</g>
</g>
<!-- Node19&#45;&gt;Node24 -->
<g id="edge24" class="edge">
<title>Node19&#45;&gt;Node24</title>
<path fill="none" stroke="midnightblue" d="M624.23,-77.38C659.94,-71.95 706.36,-64.89 744.76,-59.06"/>
<polygon fill="midnightblue" stroke="midnightblue" points="745.49,-62.49 754.85,-57.52 744.44,-55.56 745.49,-62.49"/>
</g>
<!-- Node21 -->
<g id="node21" class="node">
<title>Node21</title>
<g id="a_node21"><a xlink:href="namespacesrc_1_1body__extraction_1_1cli__entry.html#a74f24adbe2969f94f9d747c25a387dc9" target="_top" xlink:title=" ">
<polygon fill="white" stroke="black" points="977,-76.5 977,-95.5 1239,-95.5 1239,-76.5 977,-76.5"/>
<text text-anchor="middle" x="1108" y="-83.5" font-family="Helvetica,sans-Serif" font-size="10.00">src.body_extraction.cli_entry.check_args_has_attributes</text>
</a>
</g>
</g>
<!-- Node20&#45;&gt;Node21 -->
<g id="edge21" class="edge">
<title>Node20&#45;&gt;Node21</title>
<path fill="none" stroke="midnightblue" d="M916.03,-86C932.33,-86 949.54,-86 966.68,-86"/>
<polygon fill="midnightblue" stroke="midnightblue" points="966.75,-89.5 976.75,-86 966.75,-82.5 966.75,-89.5"/>
</g>
<!-- Node23 -->
<g id="node23" class="node">
<title>Node23</title>
<g id="a_node23"><a xlink:href="namespacesrc_1_1body__extraction_1_1cli__entry.html#aa7b20ee466231a9108c67f1056536884" target="_top" xlink:title=" ">
<polygon fill="white" stroke="black" points="1029.5,-38.5 1029.5,-57.5 1186.5,-57.5 1186.5,-38.5 1029.5,-38.5"/>
<text text-anchor="middle" x="1108" y="-45.5" font-family="Helvetica,sans-Serif" font-size="10.00">src.body_extraction.cli_entry.fail</text>
</a>
</g>
</g>
<!-- Node20&#45;&gt;Node23 -->
<g id="edge23" class="edge">
<title>Node20&#45;&gt;Node23</title>
<path fill="none" stroke="midnightblue" d="M891.68,-76.46C932.18,-71.11 982.85,-64.41 1024.87,-58.86"/>
<polygon fill="midnightblue" stroke="midnightblue" points="1025.34,-62.32 1034.79,-57.54 1024.42,-55.38 1025.34,-62.32"/>
</g>
<!-- Node22 -->
<g id="node22" class="node">
<title>Node22</title>
<g id="a_node22"><a xlink:href="namespacesrc_1_1body__extraction_1_1cli__entry.html#ac54ec360f3fdef09b455b7f140ca435b" target="_top" xlink:title=" ">
<polygon fill="white" stroke="black" points="1275,-76.5 1275,-95.5 1532,-95.5 1532,-76.5 1275,-76.5"/>
<text text-anchor="middle" x="1403.5" y="-83.5" font-family="Helvetica,sans-Serif" font-size="10.00">src.body_extraction.cli_entry.check_args_has_attribute</text>
</a>
</g>
</g>
<!-- Node21&#45;&gt;Node22 -->
<g id="edge22" class="edge">
<title>Node21&#45;&gt;Node22</title>
<path fill="none" stroke="midnightblue" d="M1239.02,-86C1247.41,-86 1255.88,-86 1264.31,-86"/>
<polygon fill="midnightblue" stroke="midnightblue" points="1264.56,-89.5 1274.56,-86 1264.56,-82.5 1264.56,-89.5"/>
</g>
</g>
</svg>
        <g id="navigator" transform="translate(0 0)" fill="#404254">
                <rect fill="#f2f5e9" fill-opacity="0.5" stroke="#606060" stroke-width=".5" x="0" y="0" width="60" height="60"/>
                <use id="zoomplus" xlink:href="#zoomPlus" x="17" y="9" onmousedown="handleZoom(evt,'in')"/>
                <use id="zoomminus" xlink:href="#zoomMin" x="42" y="9" onmousedown="handleZoom(evt,'out')"/>
                <use id="reset" xlink:href="#resetDef" x="30" y="36" onmousedown="handleReset()"/>
                <g id="arrowUp" xlink:href="#dirArrow" transform="translate(30 24)" onmousedown="handlePan(0,-1)">
                  <use xlink:href="#rim" fill="#404040">
                        <set attributeName="fill" to="#808080" begin="arrowUp.mouseover" end="arrowUp.mouseout"/>
                  </use>
                  <path fill="none" stroke="white" stroke-width="1.5" d="M0,-3.0v7 M-2.5,-0.5L0,-3.0L2.5,-0.5"/>
                </g>
                <g id="arrowRight" xlink:href="#dirArrow" transform="rotate(90) translate(36 -43)" onmousedown="handlePan(1,0)">
                  <use xlink:href="#rim" fill="#404040">
                        <set attributeName="fill" to="#808080" begin="arrowRight.mouseover" end="arrowRight.mouseout"/>
                  </use>
                  <path fill="none" stroke="white" stroke-width="1.5" d="M0,-3.0v7 M-2.5,-0.5L0,-3.0L2.5,-0.5"/>
                </g>
                <g id="arrowDown" xlink:href="#dirArrow" transform="rotate(180) translate(-30 -48)" onmousedown="handlePan(0,1)">
                  <use xlink:href="#rim" fill="#404040">
                        <set attributeName="fill" to="#808080" begin="arrowDown.mouseover" end="arrowDown.mouseout"/>
                  </use>
                  <path fill="none" stroke="white" stroke-width="1.5" d="M0,-3.0v7 M-2.5,-0.5L0,-3.0L2.5,-0.5"/>
                </g>
                <g id="arrowLeft" xlink:href="#dirArrow" transform="rotate(270) translate(-36 17)" onmousedown="handlePan(-1,0)">
                  <use xlink:href="#rim" fill="#404040">
                        <set attributeName="fill" to="#808080" begin="arrowLeft.mouseover" end="arrowLeft.mouseout"/>
                  </use>
                  <path fill="none" stroke="white" stroke-width="1.5" d="M0,-3.0v7 M-2.5,-0.5L0,-3.0L2.5,-0.5"/>
                </g>
        </g>
        <svg viewBox="0 0 15 15" width="100%" height="30px" preserveAspectRatio="xMaxYMin meet">
         <g id="arrow_out" transform="scale(0.3 0.3)">
          <a xlink:href="namespacesrc_1_1db__tools_1_1database__consolidation_a7057f33c203cc4abd04492f89c632aa9_cgraph_org.svg" target="_base">
           <rect id="button" ry="5" rx="5" y="6" x="6" height="38" width="38"
                fill="#f2f5e9" fill-opacity="0.5" stroke="#606060" stroke-width="1.0"/>
           <path id="arrow"
             d="M 11.500037,31.436501 C 11.940474,20.09759 22.043105,11.32322 32.158766,21.979434 L 37.068811,17.246167 C 37.068811,17.246167 37.088388,32 37.088388,32 L 22.160133,31.978069 C 22.160133,31.978069 26.997745,27.140456 26.997745,27.140456 C 18.528582,18.264221 13.291696,25.230495 11.500037,31.436501 z"
             style="fill:#404040;"/>
          </a>
         </g>
        </svg>
</svg>
