<?xml version="1.0" encoding="UTF-8" standalone="no"?>
<!DOCTYPE svg PUBLIC "-//W3C//DTD SVG 1.1//EN"
 "http://www.w3.org/Graphics/SVG/1.1/DTD/svg11.dtd">
<!-- Generated by graphviz version 2.47.1 (20210417.1919)
 -->
<!-- Title: src.body_extraction.cli_entry.check_args_has_attributes Pages: 1 -->
<svg width="1165pt" height="66pt"
 viewBox="0.00 0.00 1165.00 66.00" xmlns="http://www.w3.org/2000/svg" xmlns:xlink="http://www.w3.org/1999/xlink">
<g id="graph0" class="graph" transform="scale(1 1) rotate(0) translate(4 62)">
<title>src.body_extraction.cli_entry.check_args_has_attributes</title>
<polygon fill="white" stroke="transparent" points="-4,4 -4,-62 1161,-62 1161,4 -4,4"/>
<!-- Node1 -->
<g id="node1" class="node">
<title>Node1</title>
<g id="a_node1"><a xlink:title=" ">
<polygon fill="#bfbfbf" stroke="black" points="895,-19.5 895,-38.5 1157,-38.5 1157,-19.5 895,-19.5"/>
<text text-anchor="middle" x="1026" y="-26.5" font-family="Helvetica,sans-Serif" font-size="10.00">src.body_extraction.cli_entry.check_args_has_attributes</text>
</a>
</g>
</g>
<!-- Node2 -->
<g id="node2" class="node">
<title>Node2</title>
<g id="a_node2"><a xlink:href="namespacesrc_1_1body__extraction_1_1cli__entry.html#aecd587b23033196155b2e453464a7293" target="_top" xlink:title=" ">
<polygon fill="white" stroke="black" points="664,-19.5 664,-38.5 859,-38.5 859,-19.5 664,-19.5"/>
<text text-anchor="middle" x="761.5" y="-26.5" font-family="Helvetica,sans-Serif" font-size="10.00">src.body_extraction.cli_entry.check_args</text>
</a>
</g>
</g>
<!-- Node1&#45;&gt;Node2 -->
<g id="edge1" class="edge">
<title>Node1&#45;&gt;Node2</title>
<path fill="none" stroke="midnightblue" d="M884.79,-29C876.19,-29 867.64,-29 859.3,-29"/>
<polygon fill="midnightblue" stroke="midnightblue" points="884.9,-32.5 894.9,-29 884.9,-25.5 884.9,-32.5"/>
</g>
<!-- Node3 -->
<g id="node3" class="node">
<title>Node3</title>
<g id="a_node3"><a xlink:href="namespacesrc_1_1body__extraction_1_1cli__entry.html#ad275b8b868d4ad51c08f79e9ec68f241" target="_top" xlink:title=" ">
<polygon fill="white" stroke="black" points="473,-38.5 473,-57.5 628,-57.5 628,-38.5 473,-38.5"/>
<text text-anchor="middle" x="550.5" y="-45.5" font-family="Helvetica,sans-Serif" font-size="10.00">src.body_extraction.cli_entry.cli</text>
</a>
</g>
</g>
<!-- Node2&#45;&gt;Node3 -->
<g id="edge2" class="edge">
<title>Node2&#45;&gt;Node3</title>
<path fill="none" stroke="midnightblue" d="M653.83,-38.7C645.2,-39.48 636.59,-40.26 628.23,-41.02"/>
<polygon fill="midnightblue" stroke="midnightblue" points="654.31,-42.17 663.95,-37.78 653.68,-35.2 654.31,-42.17"/>
</g>
<!-- Node4 -->
<g id="node4" class="node">
<title>Node4</title>
<g id="a_node4"><a xlink:href="namespacesrc_1_1eralchemy_1_1main.html#afd606a75c08edb3181030c5b1ce3b5aa" target="_top" xlink:title=" ">
<polygon fill="white" stroke="black" points="493,-0.5 493,-19.5 608,-19.5 608,-0.5 493,-0.5"/>
<text text-anchor="middle" x="550.5" y="-7.5" font-family="Helvetica,sans-Serif" font-size="10.00">src.eralchemy.main.cli</text>
</a>
</g>
</g>
<!-- Node2&#45;&gt;Node4 -->
<g id="edge3" class="edge">
<title>Node2&#45;&gt;Node4</title>
<path fill="none" stroke="midnightblue" d="M653.61,-19.28C637.87,-17.85 622.2,-16.43 608.03,-15.14"/>
<polygon fill="midnightblue" stroke="midnightblue" points="653.68,-22.8 663.95,-20.22 654.31,-15.83 653.68,-22.8"/>
</g>
<!-- Node5 -->
<g id="node5" class="node">
<title>Node5</title>
<g id="a_node5"><a xlink:href="namespacesrc_1_1eralchemy_1_1main.html#a5387e0a7c14b44fd86de8ede390bed04" target="_top" xlink:title=" ">
<polygon fill="white" stroke="black" points="291,-0.5 291,-19.5 437,-19.5 437,-0.5 291,-0.5"/>
<text text-anchor="middle" x="364" y="-7.5" font-family="Helvetica,sans-Serif" font-size="10.00">src.eralchemy.main.render_er</text>
</a>
</g>
</g>
<!-- Node4&#45;&gt;Node5 -->
<g id="edge4" class="edge">
<title>Node4&#45;&gt;Node5</title>
<path fill="none" stroke="midnightblue" d="M482.8,-3.49C467.99,-3.21 452.21,-3.18 437.19,-3.39"/>
<polygon fill="midnightblue" stroke="midnightblue" points="482.81,-6.99 492.89,-3.72 482.97,0.01 482.81,-6.99"/>
</g>
<!-- Node5&#45;&gt;Node4 -->
<g id="edge5" class="edge">
<title>Node5&#45;&gt;Node4</title>
<path fill="none" stroke="midnightblue" d="M447.25,-16.71C462.67,-16.82 478.47,-16.68 492.89,-16.28"/>
<polygon fill="midnightblue" stroke="midnightblue" points="447.22,-13.21 437.19,-16.61 447.15,-20.21 447.22,-13.21"/>
</g>
<!-- Node6 -->
<g id="node6" class="node">
<title>Node6</title>
<g id="a_node6"><a xlink:href="namespacesrc_1_1db__tools_1_1database__consolidation.html#a7057f33c203cc4abd04492f89c632aa9" target="_top" xlink:title=" ">
<polygon fill="white" stroke="black" points="0,-0.5 0,-19.5 255,-19.5 255,-0.5 0,-0.5"/>
<text text-anchor="middle" x="127.5" y="-7.5" font-family="Helvetica,sans-Serif" font-size="10.00">src.db_tools.database_consolidation.doit_generate_erd</text>
</a>
</g>
</g>
<!-- Node5&#45;&gt;Node6 -->
<g id="edge6" class="edge">
<title>Node5&#45;&gt;Node6</title>
<path fill="none" stroke="midnightblue" d="M280.5,-10C272.31,-10 263.87,-10 255.36,-10"/>
<polygon fill="midnightblue" stroke="midnightblue" points="280.73,-13.5 290.73,-10 280.73,-6.5 280.73,-13.5"/>
</g>
</g>
</svg>
