<?xml version="1.0" encoding="UTF-8" standalone="no"?>
<!DOCTYPE svg PUBLIC "-//W3C//DTD SVG 1.1//EN"
 "http://www.w3.org/Graphics/SVG/1.1/DTD/svg11.dtd">
<!-- Generated by graphviz version 2.47.1 (20210417.1919)
 -->
<!-- Title: src.lemma_extraction.cli_entry.cli Pages: 1 -->
<svg width="897pt" height="94pt"
 viewBox="0.00 0.00 897.00 93.50" xmlns="http://www.w3.org/2000/svg" xmlns:xlink="http://www.w3.org/1999/xlink">
<g id="graph0" class="graph" transform="scale(1 1) rotate(0) translate(4 89.5)">
<title>src.lemma_extraction.cli_entry.cli</title>
<polygon fill="white" stroke="transparent" points="-4,4 -4,-89.5 893,-89.5 893,4 -4,4"/>
<!-- Node1 -->
<g id="node1" class="node">
<title>Node1</title>
<g id="a_node1"><a xlink:title=" ">
<polygon fill="#bfbfbf" stroke="black" points="0,-19.5 0,-38.5 163,-38.5 163,-19.5 0,-19.5"/>
<text text-anchor="middle" x="81.5" y="-26.5" font-family="Helvetica,sans-Serif" font-size="10.00">src.lemma_extraction.cli_entry.cli</text>
</a>
</g>
</g>
<!-- Node2 -->
<g id="node2" class="node">
<title>Node2</title>
<g id="a_node2"><a xlink:href="namespacesrc_1_1lemma__extraction_1_1cli__entry.html#ad723475a45a213a43d36d89997b75287" target="_top" xlink:title=" ">
<polygon fill="white" stroke="black" points="203.5,-38.5 203.5,-57.5 406.5,-57.5 406.5,-38.5 203.5,-38.5"/>
<text text-anchor="middle" x="305" y="-45.5" font-family="Helvetica,sans-Serif" font-size="10.00">src.lemma_extraction.cli_entry.check_args</text>
</a>
</g>
</g>
<!-- Node1&#45;&gt;Node2 -->
<g id="edge1" class="edge">
<title>Node1&#45;&gt;Node2</title>
<path fill="none" stroke="midnightblue" d="M163.09,-35.91C172.93,-36.76 183.1,-37.63 193.28,-38.5"/>
<polygon fill="midnightblue" stroke="midnightblue" points="193.18,-42.01 203.45,-39.37 193.78,-35.03 193.18,-42.01"/>
</g>
<!-- Node6 -->
<g id="node6" class="node">
<title>Node6</title>
<g id="a_node6"><a xlink:href="namespacesrc_1_1lemma__extraction_1_1cli__entry.html#afc1ead06b9d070e9ee452a0ffe6bbce9" target="_top" xlink:title=" ">
<polygon fill="white" stroke="black" points="199,-0.5 199,-19.5 411,-19.5 411,-0.5 199,-0.5"/>
<text text-anchor="middle" x="305" y="-7.5" font-family="Helvetica,sans-Serif" font-size="10.00">src.lemma_extraction.cli_entry.get_argparser</text>
</a>
</g>
</g>
<!-- Node1&#45;&gt;Node6 -->
<g id="edge5" class="edge">
<title>Node1&#45;&gt;Node6</title>
<path fill="none" stroke="midnightblue" d="M163.09,-22.09C171.45,-21.37 180.06,-20.63 188.7,-19.89"/>
<polygon fill="midnightblue" stroke="midnightblue" points="189.18,-23.36 198.85,-19.02 188.58,-16.39 189.18,-23.36"/>
</g>
<!-- Node3 -->
<g id="node3" class="node">
<title>Node3</title>
<g id="a_node3"><a xlink:href="namespacesrc_1_1lemma__extraction_1_1cli__entry.html#a3dc4421cb1e81195ce6763980f0bb0ac" target="_top" xlink:title=" ">
<polygon fill="white" stroke="black" points="447,-55 447,-85 650,-85 650,-55 447,-55"/>
<text text-anchor="start" x="455" y="-73" font-family="Helvetica,sans-Serif" font-size="10.00">src.lemma_extraction.cli_entry.check_args</text>
<text text-anchor="middle" x="548.5" y="-62" font-family="Helvetica,sans-Serif" font-size="10.00">_has_attributes</text>
</a>
</g>
</g>
<!-- Node2&#45;&gt;Node3 -->
<g id="edge2" class="edge">
<title>Node2&#45;&gt;Node3</title>
<path fill="none" stroke="midnightblue" d="M406.67,-57.17C416.67,-58.08 426.85,-59.01 436.95,-59.93"/>
<polygon fill="midnightblue" stroke="midnightblue" points="436.72,-63.42 446.99,-60.84 437.35,-56.45 436.72,-63.42"/>
</g>
<!-- Node5 -->
<g id="node5" class="node">
<title>Node5</title>
<g id="a_node5"><a xlink:href="namespacesrc_1_1lemma__extraction_1_1cli__entry.html#a8060e982f53b727d2ff64e099a71803b" target="_top" xlink:title=" ">
<polygon fill="white" stroke="black" points="466,-16.5 466,-35.5 631,-35.5 631,-16.5 466,-16.5"/>
<text text-anchor="middle" x="548.5" y="-23.5" font-family="Helvetica,sans-Serif" font-size="10.00">src.lemma_extraction.cli_entry.fail</text>
</a>
</g>
</g>
<!-- Node2&#45;&gt;Node5 -->
<g id="edge4" class="edge">
<title>Node2&#45;&gt;Node5</title>
<path fill="none" stroke="midnightblue" d="M406.67,-38.83C422.81,-37.36 439.44,-35.84 455.36,-34.39"/>
<polygon fill="midnightblue" stroke="midnightblue" points="456.07,-37.84 465.71,-33.45 455.44,-30.87 456.07,-37.84"/>
</g>
<!-- Node4 -->
<g id="node4" class="node">
<title>Node4</title>
<g id="a_node4"><a xlink:href="namespacesrc_1_1lemma__extraction_1_1cli__entry.html#adfc9f4bf2a4fc8177875b024fad48106" target="_top" xlink:title=" ">
<polygon fill="white" stroke="black" points="686,-55 686,-85 889,-85 889,-55 686,-55"/>
<text text-anchor="start" x="694" y="-73" font-family="Helvetica,sans-Serif" font-size="10.00">src.lemma_extraction.cli_entry.check_args</text>
<text text-anchor="middle" x="787.5" y="-62" font-family="Helvetica,sans-Serif" font-size="10.00">_has_attribute</text>
</a>
</g>
</g>
<!-- Node3&#45;&gt;Node4 -->
<g id="edge3" class="edge">
<title>Node3&#45;&gt;Node4</title>
<path fill="none" stroke="midnightblue" d="M650.01,-70C658.53,-70 667.18,-70 675.78,-70"/>
<polygon fill="midnightblue" stroke="midnightblue" points="675.83,-73.5 685.83,-70 675.83,-66.5 675.83,-73.5"/>
</g>
</g>
</svg>
