<?xml version="1.0" encoding="UTF-8" standalone="no"?>
<!DOCTYPE svg PUBLIC "-//W3C//DTD SVG 1.1//EN"
 "http://www.w3.org/Graphics/SVG/1.1/DTD/svg11.dtd">
<!-- Generated by graphviz version 2.47.1 (20210417.1919)
 -->
<!-- Title: src.email_caching.cli_entry.fail Pages: 1 -->
<svg width="566pt" height="28pt"
 viewBox="0.00 0.00 566.00 28.00" xmlns="http://www.w3.org/2000/svg" xmlns:xlink="http://www.w3.org/1999/xlink">
<g id="graph0" class="graph" transform="scale(1 1) rotate(0) translate(4 24)">
<title>src.email_caching.cli_entry.fail</title>
<polygon fill="white" stroke="transparent" points="-4,4 -4,-24 562,-24 562,4 -4,4"/>
<!-- Node1 -->
<g id="node1" class="node">
<title>Node1</title>
<g id="a_node1"><a xlink:title=" ">
<polygon fill="#bfbfbf" stroke="black" points="408,-0.5 408,-19.5 558,-19.5 558,-0.5 408,-0.5"/>
<text text-anchor="middle" x="483" y="-7.5" font-family="Helvetica,sans-Serif" font-size="10.00">src.email_caching.cli_entry.fail</text>
</a>
</g>
</g>
<!-- Node2 -->
<g id="node2" class="node">
<title>Node2</title>
<g id="a_node2"><a xlink:href="namespacesrc_1_1email__caching_1_1cli__entry.html#aee1be9faebd5761582a49b8aff7ed4ec" target="_top" xlink:title=" ">
<polygon fill="white" stroke="black" points="184,-0.5 184,-19.5 372,-19.5 372,-0.5 184,-0.5"/>
<text text-anchor="middle" x="278" y="-7.5" font-family="Helvetica,sans-Serif" font-size="10.00">src.email_caching.cli_entry.check_args</text>
</a>
</g>
</g>
<!-- Node1&#45;&gt;Node2 -->
<g id="edge1" class="edge">
<title>Node1&#45;&gt;Node2</title>
<path fill="none" stroke="midnightblue" d="M397.72,-10C389.34,-10 380.79,-10 372.32,-10"/>
<polygon fill="midnightblue" stroke="midnightblue" points="397.85,-13.5 407.85,-10 397.85,-6.5 397.85,-13.5"/>
</g>
<!-- Node3 -->
<g id="node3" class="node">
<title>Node3</title>
<g id="a_node3"><a xlink:href="namespacesrc_1_1email__caching_1_1cli__entry.html#a1f4ed2b7cbee18002a18b892b728914f" target="_top" xlink:title=" ">
<polygon fill="white" stroke="black" points="0,-0.5 0,-19.5 148,-19.5 148,-0.5 0,-0.5"/>
<text text-anchor="middle" x="74" y="-7.5" font-family="Helvetica,sans-Serif" font-size="10.00">src.email_caching.cli_entry.cli</text>
</a>
</g>
</g>
<!-- Node2&#45;&gt;Node3 -->
<g id="edge2" class="edge">
<title>Node2&#45;&gt;Node3</title>
<path fill="none" stroke="midnightblue" d="M173.83,-10C165.17,-10 156.54,-10 148.18,-10"/>
<polygon fill="midnightblue" stroke="midnightblue" points="173.98,-13.5 183.98,-10 173.98,-6.5 173.98,-13.5"/>
</g>
</g>
</svg>
