<?xml version="1.0" encoding="UTF-8" standalone="no"?>
<!DOCTYPE svg PUBLIC "-//W3C//DTD SVG 1.1//EN"
 "http://www.w3.org/Graphics/SVG/1.1/DTD/svg11.dtd">
<!-- Generated by graphviz version 2.47.1 (20210417.1919)
 -->
<!-- Title: src.utils.handle_warning_about_unexpected_exceptions Pages: 1 -->
<svg width="649pt" height="66pt"
 viewBox="0.00 0.00 649.00 66.00" xmlns="http://www.w3.org/2000/svg" xmlns:xlink="http://www.w3.org/1999/xlink">
<g id="graph0" class="graph" transform="scale(1 1) rotate(0) translate(4 62)">
<title>src.utils.handle_warning_about_unexpected_exceptions</title>
<polygon fill="white" stroke="transparent" points="-4,4 -4,-62 645,-62 645,4 -4,4"/>
<!-- Node1 -->
<g id="node1" class="node">
<title>Node1</title>
<g id="a_node1"><a xlink:title=" ">
<polygon fill="#bfbfbf" stroke="black" points="383,-19.5 383,-38.5 641,-38.5 641,-19.5 383,-19.5"/>
<text text-anchor="middle" x="512" y="-26.5" font-family="Helvetica,sans-Serif" font-size="10.00">src.utils.handle_warning_about_unexpected_exceptions</text>
</a>
</g>
</g>
<!-- Node2 -->
<g id="node2" class="node">
<title>Node2</title>
<g id="a_node2"><a xlink:href="namespacesrc_1_1utils.html#a5a4f3963731fcad51801f1d82fc16053" target="_top" xlink:title="A convenience function for quickly creating python pickle objects that temporarily disables garbage c...">
<polygon fill="white" stroke="black" points="246.5,-38.5 246.5,-57.5 341.5,-57.5 341.5,-38.5 246.5,-38.5"/>
<text text-anchor="middle" x="294" y="-45.5" font-family="Helvetica,sans-Serif" font-size="10.00">src.utils.do_pickle</text>
</a>
</g>
</g>
<!-- Node1&#45;&gt;Node2 -->
<g id="edge1" class="edge">
<title>Node1&#45;&gt;Node2</title>
<path fill="none" stroke="midnightblue" d="M392.63,-39.41C374.59,-41 356.93,-42.55 341.71,-43.89"/>
<polygon fill="midnightblue" stroke="midnightblue" points="393.03,-42.89 402.68,-38.53 392.42,-35.92 393.03,-42.89"/>
</g>
<!-- Node4 -->
<g id="node4" class="node">
<title>Node4</title>
<g id="a_node4"><a xlink:href="namespacesrc_1_1utils.html#a7f7d00301cc409daa527615f97c47221" target="_top" xlink:title=" ">
<polygon fill="white" stroke="black" points="241,-0.5 241,-19.5 347,-19.5 347,-0.5 241,-0.5"/>
<text text-anchor="middle" x="294" y="-7.5" font-family="Helvetica,sans-Serif" font-size="10.00">src.utils.undo_pickle</text>
</a>
</g>
</g>
<!-- Node1&#45;&gt;Node4 -->
<g id="edge3" class="edge">
<title>Node1&#45;&gt;Node4</title>
<path fill="none" stroke="midnightblue" d="M392.71,-18.59C376.74,-17.19 361.06,-15.81 347.11,-14.58"/>
<polygon fill="midnightblue" stroke="midnightblue" points="392.42,-22.08 402.68,-19.47 393.03,-15.11 392.42,-22.08"/>
</g>
<!-- Node3 -->
<g id="node3" class="node">
<title>Node3</title>
<g id="a_node3"><a xlink:href="namespacesrc_1_1email__caching_1_1downloader.html#a0b816ea8f468c12c1d1ce6c16447ad62" target="_top" xlink:title=" ">
<polygon fill="white" stroke="black" points="0,-38.5 0,-57.5 205,-57.5 205,-38.5 0,-38.5"/>
<text text-anchor="middle" x="102.5" y="-45.5" font-family="Helvetica,sans-Serif" font-size="10.00">src.email_caching.downloader.pickle_dump</text>
</a>
</g>
</g>
<!-- Node2&#45;&gt;Node3 -->
<g id="edge2" class="edge">
<title>Node2&#45;&gt;Node3</title>
<path fill="none" stroke="midnightblue" d="M236.13,-48C226.25,-48 215.71,-48 205.07,-48"/>
<polygon fill="midnightblue" stroke="midnightblue" points="236.16,-51.5 246.16,-48 236.16,-44.5 236.16,-51.5"/>
</g>
<!-- Node5 -->
<g id="node5" class="node">
<title>Node5</title>
<g id="a_node5"><a xlink:href="namespacesrc_1_1email__caching_1_1downloader.html#a5425b279fafe09f1b4ded009f2110270" target="_top" xlink:title=" ">
<polygon fill="white" stroke="black" points="3,-0.5 3,-19.5 202,-19.5 202,-0.5 3,-0.5"/>
<text text-anchor="middle" x="102.5" y="-7.5" font-family="Helvetica,sans-Serif" font-size="10.00">src.email_caching.downloader.pickle_load</text>
</a>
</g>
</g>
<!-- Node4&#45;&gt;Node5 -->
<g id="edge4" class="edge">
<title>Node4&#45;&gt;Node5</title>
<path fill="none" stroke="midnightblue" d="M230.75,-10C221.5,-10 211.78,-10 202,-10"/>
<polygon fill="midnightblue" stroke="midnightblue" points="230.97,-13.5 240.97,-10 230.97,-6.5 230.97,-13.5"/>
</g>
</g>
</svg>
