<?xml version="1.0" encoding="UTF-8" standalone="no"?>
<!DOCTYPE svg PUBLIC "-//W3C//DTD SVG 1.1//EN"
 "http://www.w3.org/Graphics/SVG/1.1/DTD/svg11.dtd">
<!-- Generated by graphviz version 2.47.1 (20210417.1919)
 -->
<!-- Title: src.body_extraction.cli_entry.check_args Pages: 1 -->
<svg width="794pt" height="66pt"
 viewBox="0.00 0.00 794.00 66.00" xmlns="http://www.w3.org/2000/svg" xmlns:xlink="http://www.w3.org/1999/xlink">
<g id="graph0" class="graph" transform="scale(1 1) rotate(0) translate(4 62)">
<title>src.body_extraction.cli_entry.check_args</title>
<polygon fill="white" stroke="transparent" points="-4,4 -4,-62 790,-62 790,4 -4,4"/>
<!-- Node1 -->
<g id="node1" class="node">
<title>Node1</title>
<g id="a_node1"><a xlink:title=" ">
<polygon fill="#bfbfbf" stroke="black" points="0,-19.5 0,-38.5 195,-38.5 195,-19.5 0,-19.5"/>
<text text-anchor="middle" x="97.5" y="-26.5" font-family="Helvetica,sans-Serif" font-size="10.00">src.body_extraction.cli_entry.check_args</text>
</a>
</g>
</g>
<!-- Node2 -->
<g id="node2" class="node">
<title>Node2</title>
<g id="a_node2"><a xlink:href="namespacesrc_1_1body__extraction_1_1cli__entry.html#a74f24adbe2969f94f9d747c25a387dc9" target="_top" xlink:title=" ">
<polygon fill="white" stroke="black" points="231,-38.5 231,-57.5 493,-57.5 493,-38.5 231,-38.5"/>
<text text-anchor="middle" x="362" y="-45.5" font-family="Helvetica,sans-Serif" font-size="10.00">src.body_extraction.cli_entry.check_args_has_attributes</text>
</a>
</g>
</g>
<!-- Node1&#45;&gt;Node2 -->
<g id="edge1" class="edge">
<title>Node1&#45;&gt;Node2</title>
<path fill="none" stroke="midnightblue" d="M195.13,-35.99C203.53,-36.6 212.14,-37.23 220.8,-37.85"/>
<polygon fill="midnightblue" stroke="midnightblue" points="220.76,-41.36 230.99,-38.59 221.27,-34.38 220.76,-41.36"/>
</g>
<!-- Node4 -->
<g id="node4" class="node">
<title>Node4</title>
<g id="a_node4"><a xlink:href="namespacesrc_1_1body__extraction_1_1cli__entry.html#aa7b20ee466231a9108c67f1056536884" target="_top" xlink:title=" ">
<polygon fill="white" stroke="black" points="283.5,-0.5 283.5,-19.5 440.5,-19.5 440.5,-0.5 283.5,-0.5"/>
<text text-anchor="middle" x="362" y="-7.5" font-family="Helvetica,sans-Serif" font-size="10.00">src.body_extraction.cli_entry.fail</text>
</a>
</g>
</g>
<!-- Node1&#45;&gt;Node4 -->
<g id="edge3" class="edge">
<title>Node1&#45;&gt;Node4</title>
<path fill="none" stroke="midnightblue" d="M195.13,-22.01C220.7,-20.16 248.15,-18.17 273.22,-16.35"/>
<polygon fill="midnightblue" stroke="midnightblue" points="273.72,-19.83 283.44,-15.61 273.21,-12.85 273.72,-19.83"/>
</g>
<!-- Node3 -->
<g id="node3" class="node">
<title>Node3</title>
<g id="a_node3"><a xlink:href="namespacesrc_1_1body__extraction_1_1cli__entry.html#ac54ec360f3fdef09b455b7f140ca435b" target="_top" xlink:title=" ">
<polygon fill="white" stroke="black" points="529,-38.5 529,-57.5 786,-57.5 786,-38.5 529,-38.5"/>
<text text-anchor="middle" x="657.5" y="-45.5" font-family="Helvetica,sans-Serif" font-size="10.00">src.body_extraction.cli_entry.check_args_has_attribute</text>
</a>
</g>
</g>
<!-- Node2&#45;&gt;Node3 -->
<g id="edge2" class="edge">
<title>Node2&#45;&gt;Node3</title>
<path fill="none" stroke="midnightblue" d="M493.02,-48C501.41,-48 509.88,-48 518.31,-48"/>
<polygon fill="midnightblue" stroke="midnightblue" points="518.56,-51.5 528.56,-48 518.56,-44.5 518.56,-51.5"/>
</g>
</g>
</svg>
