<?xml version="1.0" encoding="UTF-8" standalone="no"?>
<!DOCTYPE svg PUBLIC "-//W3C//DTD SVG 1.1//EN"
 "http://www.w3.org/Graphics/SVG/1.1/DTD/svg11.dtd">
<!-- Generated by graphviz version 2.47.1 (20210417.1919)
 -->
<!-- Title: src.lemma_extraction.cli_entry.check_args_has_attributes Pages: 1 -->
<svg width="450pt" height="39pt"
 viewBox="0.00 0.00 450.00 39.00" xmlns="http://www.w3.org/2000/svg" xmlns:xlink="http://www.w3.org/1999/xlink">
<g id="graph0" class="graph" transform="scale(1 1) rotate(0) translate(4 35)">
<title>src.lemma_extraction.cli_entry.check_args_has_attributes</title>
<polygon fill="white" stroke="transparent" points="-4,4 -4,-35 446,-35 446,4 -4,4"/>
<!-- Node1 -->
<g id="node1" class="node">
<title>Node1</title>
<g id="a_node1"><a xlink:title=" ">
<polygon fill="#bfbfbf" stroke="black" points="0,-0.5 0,-30.5 203,-30.5 203,-0.5 0,-0.5"/>
<text text-anchor="start" x="8" y="-18.5" font-family="Helvetica,sans-Serif" font-size="10.00">src.lemma_extraction.cli_entry.check_args</text>
<text text-anchor="middle" x="101.5" y="-7.5" font-family="Helvetica,sans-Serif" font-size="10.00">_has_attributes</text>
</a>
</g>
</g>
<!-- Node2 -->
<g id="node2" class="node">
<title>Node2</title>
<g id="a_node2"><a xlink:href="namespacesrc_1_1lemma__extraction_1_1cli__entry.html#adfc9f4bf2a4fc8177875b024fad48106" target="_top" xlink:title=" ">
<polygon fill="white" stroke="black" points="239,-0.5 239,-30.5 442,-30.5 442,-0.5 239,-0.5"/>
<text text-anchor="start" x="247" y="-18.5" font-family="Helvetica,sans-Serif" font-size="10.00">src.lemma_extraction.cli_entry.check_args</text>
<text text-anchor="middle" x="340.5" y="-7.5" font-family="Helvetica,sans-Serif" font-size="10.00">_has_attribute</text>
</a>
</g>
</g>
<!-- Node1&#45;&gt;Node2 -->
<g id="edge1" class="edge">
<title>Node1&#45;&gt;Node2</title>
<path fill="none" stroke="midnightblue" d="M203.01,-15.5C211.53,-15.5 220.18,-15.5 228.78,-15.5"/>
<polygon fill="midnightblue" stroke="midnightblue" points="228.83,-19 238.83,-15.5 228.83,-12 228.83,-19"/>
</g>
</g>
</svg>
