<?xml version="1.0" encoding="UTF-8" standalone="no"?>
<!DOCTYPE svg PUBLIC "-//W3C//DTD SVG 1.1//EN"
 "http://www.w3.org/Graphics/SVG/1.1/DTD/svg11.dtd">
<!-- Generated by graphviz version 2.47.1 (20210417.1919)
 -->
<!-- Title: src.email_caching.cli_entry.check_args Pages: 1 -->
<svg width="773pt" height="66pt"
 viewBox="0.00 0.00 773.00 66.00" xmlns="http://www.w3.org/2000/svg" xmlns:xlink="http://www.w3.org/1999/xlink">
<g id="graph0" class="graph" transform="scale(1 1) rotate(0) translate(4 62)">
<title>src.email_caching.cli_entry.check_args</title>
<polygon fill="white" stroke="transparent" points="-4,4 -4,-62 769,-62 769,4 -4,4"/>
<!-- Node1 -->
<g id="node1" class="node">
<title>Node1</title>
<g id="a_node1"><a xlink:title=" ">
<polygon fill="#bfbfbf" stroke="black" points="0,-19.5 0,-38.5 188,-38.5 188,-19.5 0,-19.5"/>
<text text-anchor="middle" x="94" y="-26.5" font-family="Helvetica,sans-Serif" font-size="10.00">src.email_caching.cli_entry.check_args</text>
</a>
</g>
</g>
<!-- Node2 -->
<g id="node2" class="node">
<title>Node2</title>
<g id="a_node2"><a xlink:href="namespacesrc_1_1email__caching_1_1cli__entry.html#a43f28b8dff21c2c2bde334e404ce7316" target="_top" xlink:title=" ">
<polygon fill="white" stroke="black" points="224,-38.5 224,-57.5 479,-57.5 479,-38.5 224,-38.5"/>
<text text-anchor="middle" x="351.5" y="-45.5" font-family="Helvetica,sans-Serif" font-size="10.00">src.email_caching.cli_entry.check_args_has_attributes</text>
</a>
</g>
</g>
<!-- Node1&#45;&gt;Node2 -->
<g id="edge1" class="edge">
<title>Node1&#45;&gt;Node2</title>
<path fill="none" stroke="midnightblue" d="M188.33,-35.94C196.63,-36.56 205.13,-37.19 213.7,-37.83"/>
<polygon fill="midnightblue" stroke="midnightblue" points="213.53,-41.32 223.77,-38.58 214.05,-34.34 213.53,-41.32"/>
</g>
<!-- Node4 -->
<g id="node4" class="node">
<title>Node4</title>
<g id="a_node4"><a xlink:href="namespacesrc_1_1email__caching_1_1cli__entry.html#aaaf441d759bd2ce74c21378f0a190261" target="_top" xlink:title=" ">
<polygon fill="white" stroke="black" points="276.5,-0.5 276.5,-19.5 426.5,-19.5 426.5,-0.5 276.5,-0.5"/>
<text text-anchor="middle" x="351.5" y="-7.5" font-family="Helvetica,sans-Serif" font-size="10.00">src.email_caching.cli_entry.fail</text>
</a>
</g>
</g>
<!-- Node1&#45;&gt;Node4 -->
<g id="edge3" class="edge">
<title>Node1&#45;&gt;Node4</title>
<path fill="none" stroke="midnightblue" d="M188.33,-22.06C213.76,-20.17 241.16,-18.13 266.07,-16.28"/>
<polygon fill="midnightblue" stroke="midnightblue" points="266.5,-19.76 276.21,-15.52 265.98,-12.78 266.5,-19.76"/>
</g>
<!-- Node3 -->
<g id="node3" class="node">
<title>Node3</title>
<g id="a_node3"><a xlink:href="namespacesrc_1_1email__caching_1_1cli__entry.html#aa01e794546716bf3eb144dca34be5c26" target="_top" xlink:title=" ">
<polygon fill="white" stroke="black" points="515,-38.5 515,-57.5 765,-57.5 765,-38.5 515,-38.5"/>
<text text-anchor="middle" x="640" y="-45.5" font-family="Helvetica,sans-Serif" font-size="10.00">src.email_caching.cli_entry.check_args_has_attribute</text>
</a>
</g>
</g>
<!-- Node2&#45;&gt;Node3 -->
<g id="edge2" class="edge">
<title>Node2&#45;&gt;Node3</title>
<path fill="none" stroke="midnightblue" d="M479.41,-48C487.71,-48 496.09,-48 504.42,-48"/>
<polygon fill="midnightblue" stroke="midnightblue" points="504.56,-51.5 514.56,-48 504.56,-44.5 504.56,-51.5"/>
</g>
</g>
</svg>
