<?xml version="1.0" encoding="UTF-8" standalone="no"?>
<!DOCTYPE svg PUBLIC "-//W3C//DTD SVG 1.1//EN"
 "http://www.w3.org/Graphics/SVG/1.1/DTD/svg11.dtd">
<!-- Generated by graphviz version 2.47.1 (20210417.1919)
 -->
<!-- Title: src.eralchemy.main._intermediary_to_dot Pages: 1 -->
<svg width="452pt" height="66pt"
 viewBox="0.00 0.00 452.00 66.00" xmlns="http://www.w3.org/2000/svg" xmlns:xlink="http://www.w3.org/1999/xlink">
<g id="graph0" class="graph" transform="scale(1 1) rotate(0) translate(4 62)">
<title>src.eralchemy.main._intermediary_to_dot</title>
<polygon fill="white" stroke="transparent" points="-4,4 -4,-62 448,-62 448,4 -4,4"/>
<!-- Node1 -->
<g id="node1" class="node">
<title>Node1</title>
<g id="a_node1"><a xlink:title=" ">
<polygon fill="#bfbfbf" stroke="black" points="248,-19.5 248,-38.5 444,-38.5 444,-19.5 248,-19.5"/>
<text text-anchor="middle" x="346" y="-26.5" font-family="Helvetica,sans-Serif" font-size="10.00">src.eralchemy.main._intermediary_to_dot</text>
</a>
</g>
</g>
<!-- Node2 -->
<g id="node2" class="node">
<title>Node2</title>
<g id="a_node2"><a xlink:href="namespacesrc_1_1eralchemy_1_1main.html#a20ff892b070a1082026498602504d8f1" target="_top" xlink:title=" ">
<polygon fill="white" stroke="black" points="10.5,-38.5 10.5,-57.5 201.5,-57.5 201.5,-38.5 10.5,-38.5"/>
<text text-anchor="middle" x="106" y="-45.5" font-family="Helvetica,sans-Serif" font-size="10.00">src.eralchemy.main.intermediary_to_dot</text>
</a>
</g>
</g>
<!-- Node1&#45;&gt;Node2 -->
<g id="edge1" class="edge">
<title>Node1&#45;&gt;Node2</title>
<path fill="none" stroke="midnightblue" d="M237.75,-37.56C225.67,-38.53 213.43,-39.5 201.53,-40.45"/>
<polygon fill="midnightblue" stroke="midnightblue" points="238.16,-41.04 247.85,-36.76 237.61,-34.06 238.16,-41.04"/>
</g>
<!-- Node3 -->
<g id="node3" class="node">
<title>Node3</title>
<g id="a_node3"><a xlink:href="namespacesrc_1_1eralchemy_1_1main.html#af4f040e8b442ce1812a177ed1042a8d3" target="_top" xlink:title=" ">
<polygon fill="white" stroke="black" points="0,-0.5 0,-19.5 212,-19.5 212,-0.5 0,-0.5"/>
<text text-anchor="middle" x="106" y="-7.5" font-family="Helvetica,sans-Serif" font-size="10.00">src.eralchemy.main.intermediary_to_schema</text>
</a>
</g>
</g>
<!-- Node1&#45;&gt;Node3 -->
<g id="edge2" class="edge">
<title>Node1&#45;&gt;Node3</title>
<path fill="none" stroke="midnightblue" d="M237.65,-20.43C229.24,-19.76 220.76,-19.08 212.36,-18.41"/>
<polygon fill="midnightblue" stroke="midnightblue" points="237.61,-23.94 247.85,-21.24 238.16,-16.96 237.61,-23.94"/>
</g>
</g>
</svg>
