<?xml version="1.0" encoding="UTF-8" standalone="no"?>
<!DOCTYPE svg PUBLIC "-//W3C//DTD SVG 1.1//EN"
 "http://www.w3.org/Graphics/SVG/1.1/DTD/svg11.dtd">
<!-- Generated by graphviz version 2.47.1 (20210417.1919)
 -->
<!-- Title: src.lemma_extraction.cli_entry.check_args_has_attributes Pages: 1 -->
<svg width="649pt" height="39pt"
 viewBox="0.00 0.00 649.00 39.00" xmlns="http://www.w3.org/2000/svg" xmlns:xlink="http://www.w3.org/1999/xlink">
<g id="graph0" class="graph" transform="scale(1 1) rotate(0) translate(4 35)">
<title>src.lemma_extraction.cli_entry.check_args_has_attributes</title>
<polygon fill="white" stroke="transparent" points="-4,4 -4,-35 645,-35 645,4 -4,4"/>
<!-- Node1 -->
<g id="node1" class="node">
<title>Node1</title>
<g id="a_node1"><a xlink:title=" ">
<polygon fill="#bfbfbf" stroke="black" points="438,-0.5 438,-30.5 641,-30.5 641,-0.5 438,-0.5"/>
<text text-anchor="start" x="446" y="-18.5" font-family="Helvetica,sans-Serif" font-size="10.00">src.lemma_extraction.cli_entry.check_args</text>
<text text-anchor="middle" x="539.5" y="-7.5" font-family="Helvetica,sans-Serif" font-size="10.00">_has_attributes</text>
</a>
</g>
</g>
<!-- Node2 -->
<g id="node2" class="node">
<title>Node2</title>
<g id="a_node2"><a xlink:href="namespacesrc_1_1lemma__extraction_1_1cli__entry.html#ad723475a45a213a43d36d89997b75287" target="_top" xlink:title=" ">
<polygon fill="white" stroke="black" points="199,-6 199,-25 402,-25 402,-6 199,-6"/>
<text text-anchor="middle" x="300.5" y="-13" font-family="Helvetica,sans-Serif" font-size="10.00">src.lemma_extraction.cli_entry.check_args</text>
</a>
</g>
</g>
<!-- Node1&#45;&gt;Node2 -->
<g id="edge1" class="edge">
<title>Node1&#45;&gt;Node2</title>
<path fill="none" stroke="midnightblue" d="M427.94,-15.5C419.34,-15.5 410.69,-15.5 402.17,-15.5"/>
<polygon fill="midnightblue" stroke="midnightblue" points="427.99,-19 437.99,-15.5 427.99,-12 427.99,-19"/>
</g>
<!-- Node3 -->
<g id="node3" class="node">
<title>Node3</title>
<g id="a_node3"><a xlink:href="namespacesrc_1_1lemma__extraction_1_1cli__entry.html#a9f7ba6bf0275fd67241f0bd765a9f7fe" target="_top" xlink:title=" ">
<polygon fill="white" stroke="black" points="0,-6 0,-25 163,-25 163,-6 0,-6"/>
<text text-anchor="middle" x="81.5" y="-13" font-family="Helvetica,sans-Serif" font-size="10.00">src.lemma_extraction.cli_entry.cli</text>
</a>
</g>
</g>
<!-- Node2&#45;&gt;Node3 -->
<g id="edge2" class="edge">
<title>Node2&#45;&gt;Node3</title>
<path fill="none" stroke="midnightblue" d="M188.82,-15.5C180.2,-15.5 171.59,-15.5 163.22,-15.5"/>
<polygon fill="midnightblue" stroke="midnightblue" points="188.94,-19 198.94,-15.5 188.94,-12 188.94,-19"/>
</g>
</g>
</svg>
