<?xml version="1.0" encoding="UTF-8" standalone="no"?>
<!DOCTYPE svg PUBLIC "-//W3C//DTD SVG 1.1//EN"
 "http://www.w3.org/Graphics/SVG/1.1/DTD/svg11.dtd">
<!-- Generated by graphviz version 2.47.1 (20210417.1919)
 -->
<!-- Title: src.eralchemy.parser.update_models Pages: 1 -->
<svg width="472pt" height="142pt"
 viewBox="0.00 0.00 472.00 142.00" xmlns="http://www.w3.org/2000/svg" xmlns:xlink="http://www.w3.org/1999/xlink">
<g id="graph0" class="graph" transform="scale(1 1) rotate(0) translate(4 138)">
<title>src.eralchemy.parser.update_models</title>
<polygon fill="white" stroke="transparent" points="-4,4 -4,-138 468,-138 468,4 -4,4"/>
<!-- Node1 -->
<g id="node1" class="node">
<title>Node1</title>
<g id="a_node1"><a xlink:title=" ">
<polygon fill="#bfbfbf" stroke="black" points="0,-57.5 0,-76.5 177,-76.5 177,-57.5 0,-57.5"/>
<text text-anchor="middle" x="88.5" y="-64.5" font-family="Helvetica,sans-Serif" font-size="10.00">src.eralchemy.parser.update_models</text>
</a>
</g>
</g>
<!-- Node2 -->
<g id="node2" class="node">
<title>Node2</title>
<g id="a_node2"><a xlink:href="namespacesrc_1_1eralchemy_1_1parser.html#a4074827fe7dbe79bd52ab7fce3fec3ff" target="_top" xlink:title=" ">
<polygon fill="white" stroke="black" points="232,-114.5 232,-133.5 445,-133.5 445,-114.5 232,-114.5"/>
<text text-anchor="middle" x="338.5" y="-121.5" font-family="Helvetica,sans-Serif" font-size="10.00">src.eralchemy.parser._check_colname_in_lst</text>
</a>
</g>
</g>
<!-- Node1&#45;&gt;Node2 -->
<g id="edge1" class="edge">
<title>Node1&#45;&gt;Node2</title>
<path fill="none" stroke="midnightblue" d="M116.66,-76.62C141.47,-85.11 179.32,-97.29 213,-105 225.82,-107.93 239.5,-110.54 252.91,-112.81"/>
<polygon fill="midnightblue" stroke="midnightblue" points="252.66,-116.31 263.1,-114.48 253.8,-109.41 252.66,-116.31"/>
</g>
<!-- Node3 -->
<g id="node3" class="node">
<title>Node3</title>
<g id="a_node3"><a xlink:href="namespacesrc_1_1eralchemy_1_1parser.html#aa39338fd82cbc77e7aa9d11241375d3f" target="_top" xlink:title=" ">
<polygon fill="white" stroke="black" points="228.5,-76.5 228.5,-95.5 448.5,-95.5 448.5,-76.5 228.5,-76.5"/>
<text text-anchor="middle" x="338.5" y="-83.5" font-family="Helvetica,sans-Serif" font-size="10.00">src.eralchemy.parser._check_no_current_table</text>
</a>
</g>
</g>
<!-- Node1&#45;&gt;Node3 -->
<g id="edge2" class="edge">
<title>Node1&#45;&gt;Node3</title>
<path fill="none" stroke="midnightblue" d="M177.28,-73.73C190.52,-74.74 204.35,-75.8 218.11,-76.85"/>
<polygon fill="midnightblue" stroke="midnightblue" points="217.86,-80.34 228.1,-77.62 218.4,-73.36 217.86,-80.34"/>
</g>
<!-- Node4 -->
<g id="node4" class="node">
<title>Node4</title>
<g id="a_node4"><a xlink:href="namespacesrc_1_1eralchemy_1_1parser.html#a6ee33be1040bdc3f9d17e30a8667a6bf" target="_top" xlink:title=" ">
<polygon fill="white" stroke="black" points="213,-38.5 213,-57.5 464,-57.5 464,-38.5 213,-38.5"/>
<text text-anchor="middle" x="338.5" y="-45.5" font-family="Helvetica,sans-Serif" font-size="10.00">src.eralchemy.parser._check_not_creating_duplicates</text>
</a>
</g>
</g>
<!-- Node1&#45;&gt;Node4 -->
<g id="edge3" class="edge">
<title>Node1&#45;&gt;Node4</title>
<path fill="none" stroke="midnightblue" d="M177.28,-60.27C185.79,-59.62 194.54,-58.95 203.36,-58.28"/>
<polygon fill="midnightblue" stroke="midnightblue" points="203.64,-61.77 213.34,-57.51 203.11,-54.79 203.64,-61.77"/>
</g>
<!-- Node5 -->
<g id="node5" class="node">
<title>Node5</title>
<g id="a_node5"><a xlink:href="namespacesrc_1_1eralchemy_1_1parser.html#a865f8f738e78ee150ed201fe3f13f066" target="_top" xlink:title=" ">
<polygon fill="white" stroke="black" points="234,-0.5 234,-19.5 443,-19.5 443,-0.5 234,-0.5"/>
<text text-anchor="middle" x="338.5" y="-7.5" font-family="Helvetica,sans-Serif" font-size="10.00">src.eralchemy.parser._update_check_inputs</text>
</a>
</g>
</g>
<!-- Node1&#45;&gt;Node5 -->
<g id="edge4" class="edge">
<title>Node1&#45;&gt;Node5</title>
<path fill="none" stroke="midnightblue" d="M116.66,-57.38C141.47,-48.89 179.32,-36.71 213,-29 225.82,-26.07 239.5,-23.46 252.91,-21.19"/>
<polygon fill="midnightblue" stroke="midnightblue" points="253.8,-24.59 263.1,-19.52 252.66,-17.69 253.8,-24.59"/>
</g>
</g>
</svg>
