<?xml version="1.0" encoding="UTF-8" standalone="no"?>
<!DOCTYPE svg PUBLIC "-//W3C//DTD SVG 1.1//EN"
 "http://www.w3.org/Graphics/SVG/1.1/DTD/svg11.dtd">
<!-- Generated by graphviz version 2.47.1 (20210417.1919)
 -->
<!-- Title: src.eralchemy.helpers.check_args Pages: 1 -->
<svg width="706pt" height="66pt"
 viewBox="0.00 0.00 706.00 66.00" xmlns="http://www.w3.org/2000/svg" xmlns:xlink="http://www.w3.org/1999/xlink">
<g id="graph0" class="graph" transform="scale(1 1) rotate(0) translate(4 62)">
<title>src.eralchemy.helpers.check_args</title>
<polygon fill="white" stroke="transparent" points="-4,4 -4,-62 702,-62 702,4 -4,4"/>
<!-- Node1 -->
<g id="node1" class="node">
<title>Node1</title>
<g id="a_node1"><a xlink:title=" ">
<polygon fill="#bfbfbf" stroke="black" points="0,-19.5 0,-38.5 166,-38.5 166,-19.5 0,-19.5"/>
<text text-anchor="middle" x="83" y="-26.5" font-family="Helvetica,sans-Serif" font-size="10.00">src.eralchemy.helpers.check_args</text>
</a>
</g>
</g>
<!-- Node2 -->
<g id="node2" class="node">
<title>Node2</title>
<g id="a_node2"><a xlink:href="namespacesrc_1_1eralchemy_1_1helpers.html#aace21dff405f17a28ef35acfaf2c0a8b" target="_top" xlink:title=" ">
<polygon fill="white" stroke="black" points="202,-38.5 202,-57.5 435,-57.5 435,-38.5 202,-38.5"/>
<text text-anchor="middle" x="318.5" y="-45.5" font-family="Helvetica,sans-Serif" font-size="10.00">src.eralchemy.helpers.check_args_has_attributes</text>
</a>
</g>
</g>
<!-- Node1&#45;&gt;Node2 -->
<g id="edge1" class="edge">
<title>Node1&#45;&gt;Node2</title>
<path fill="none" stroke="midnightblue" d="M166.32,-35.7C174.63,-36.37 183.19,-37.07 191.81,-37.77"/>
<polygon fill="midnightblue" stroke="midnightblue" points="191.71,-41.28 201.96,-38.6 192.27,-34.3 191.71,-41.28"/>
</g>
<!-- Node4 -->
<g id="node4" class="node">
<title>Node4</title>
<g id="a_node4"><a xlink:href="namespacesrc_1_1eralchemy_1_1helpers.html#a605be40092b15a052d4579f8c9770d14" target="_top" xlink:title=" ">
<polygon fill="white" stroke="black" points="254.5,-0.5 254.5,-19.5 382.5,-19.5 382.5,-0.5 254.5,-0.5"/>
<text text-anchor="middle" x="318.5" y="-7.5" font-family="Helvetica,sans-Serif" font-size="10.00">src.eralchemy.helpers.fail</text>
</a>
</g>
</g>
<!-- Node1&#45;&gt;Node4 -->
<g id="edge3" class="edge">
<title>Node1&#45;&gt;Node4</title>
<path fill="none" stroke="midnightblue" d="M166.32,-22.3C191.71,-20.24 219.49,-17.98 244.22,-15.96"/>
<polygon fill="midnightblue" stroke="midnightblue" points="244.58,-19.45 254.26,-15.15 244.01,-12.47 244.58,-19.45"/>
</g>
<!-- Node3 -->
<g id="node3" class="node">
<title>Node3</title>
<g id="a_node3"><a xlink:href="namespacesrc_1_1eralchemy_1_1helpers.html#a4bd162419e5cfe3008d5315c582d05fb" target="_top" xlink:title=" ">
<polygon fill="white" stroke="black" points="471,-38.5 471,-57.5 698,-57.5 698,-38.5 471,-38.5"/>
<text text-anchor="middle" x="584.5" y="-45.5" font-family="Helvetica,sans-Serif" font-size="10.00">src.eralchemy.helpers.check_args_has_attribute</text>
</a>
</g>
</g>
<!-- Node2&#45;&gt;Node3 -->
<g id="edge2" class="edge">
<title>Node2&#45;&gt;Node3</title>
<path fill="none" stroke="midnightblue" d="M435.29,-48C443.67,-48 452.13,-48 460.54,-48"/>
<polygon fill="midnightblue" stroke="midnightblue" points="460.76,-51.5 470.76,-48 460.76,-44.5 460.76,-51.5"/>
</g>
</g>
</svg>
