<?xml version="1.0" encoding="UTF-8" standalone="no"?>
<!DOCTYPE svg PUBLIC "-//W3C//DTD SVG 1.1//EN"
 "http://www.w3.org/Graphics/SVG/1.1/DTD/svg11.dtd">
<!-- Generated by graphviz version 2.47.1 (20210417.1919)
 -->
<!-- Title: src.email_caching.cli_entry.cli Pages: 1 -->
<svg width="568pt" height="121pt"
 viewBox="0.00 0.00 568.00 120.50" xmlns="http://www.w3.org/2000/svg" xmlns:xlink="http://www.w3.org/1999/xlink">
<g id="graph0" class="graph" transform="scale(1 1) rotate(0) translate(4 116.5)">
<title>src.email_caching.cli_entry.cli</title>
<polygon fill="white" stroke="transparent" points="-4,4 -4,-116.5 564,-116.5 564,4 -4,4"/>
<!-- Node1 -->
<g id="node1" class="node">
<title>Node1</title>
<g id="a_node1"><a xlink:title=" ">
<polygon fill="#bfbfbf" stroke="black" points="0,-24.5 0,-54.5 108,-54.5 108,-24.5 0,-24.5"/>
<text text-anchor="start" x="8" y="-42.5" font-family="Helvetica,sans-Serif" font-size="10.00">src.email_caching.cli</text>
<text text-anchor="middle" x="54" y="-31.5" font-family="Helvetica,sans-Serif" font-size="10.00">_entry.cli</text>
</a>
</g>
</g>
<!-- Node2 -->
<g id="node2" class="node">
<title>Node2</title>
<g id="a_node2"><a xlink:href="namespacesrc_1_1email__caching_1_1cli__entry.html#aee1be9faebd5761582a49b8aff7ed4ec" target="_top" xlink:title=" ">
<polygon fill="white" stroke="black" points="144,-49.5 144,-79.5 252,-79.5 252,-49.5 144,-49.5"/>
<text text-anchor="start" x="152" y="-67.5" font-family="Helvetica,sans-Serif" font-size="10.00">src.email_caching.cli</text>
<text text-anchor="middle" x="198" y="-56.5" font-family="Helvetica,sans-Serif" font-size="10.00">_entry.check_args</text>
</a>
</g>
</g>
<!-- Node1&#45;&gt;Node2 -->
<g id="edge1" class="edge">
<title>Node1&#45;&gt;Node2</title>
<path fill="none" stroke="midnightblue" d="M108.28,-48.88C116.65,-50.35 125.37,-51.89 133.94,-53.4"/>
<polygon fill="midnightblue" stroke="midnightblue" points="133.44,-56.86 143.89,-55.15 134.65,-49.97 133.44,-56.86"/>
</g>
<!-- Node6 -->
<g id="node6" class="node">
<title>Node6</title>
<g id="a_node6"><a xlink:href="namespacesrc_1_1email__caching_1_1cli__entry.html#a1761e7d664d10688752547edbf5a7e23" target="_top" xlink:title=" ">
<polygon fill="white" stroke="black" points="144,-0.5 144,-30.5 252,-30.5 252,-0.5 144,-0.5"/>
<text text-anchor="start" x="152" y="-18.5" font-family="Helvetica,sans-Serif" font-size="10.00">src.email_caching.cli</text>
<text text-anchor="middle" x="198" y="-7.5" font-family="Helvetica,sans-Serif" font-size="10.00">_entry.get_argparser</text>
</a>
</g>
</g>
<!-- Node1&#45;&gt;Node6 -->
<g id="edge5" class="edge">
<title>Node1&#45;&gt;Node6</title>
<path fill="none" stroke="midnightblue" d="M108.28,-30.5C116.65,-29.08 125.37,-27.61 133.94,-26.16"/>
<polygon fill="midnightblue" stroke="midnightblue" points="134.62,-29.59 143.89,-24.48 133.45,-22.69 134.62,-29.59"/>
</g>
<!-- Node3 -->
<g id="node3" class="node">
<title>Node3</title>
<g id="a_node3"><a xlink:href="namespacesrc_1_1email__caching_1_1cli__entry.html#a43f28b8dff21c2c2bde334e404ce7316" target="_top" xlink:title=" ">
<polygon fill="white" stroke="black" points="288,-71 288,-112 406,-112 406,-71 288,-71"/>
<text text-anchor="start" x="296" y="-100" font-family="Helvetica,sans-Serif" font-size="10.00">src.email_caching.cli</text>
<text text-anchor="start" x="296" y="-89" font-family="Helvetica,sans-Serif" font-size="10.00">_entry.check_args_has</text>
<text text-anchor="middle" x="347" y="-78" font-family="Helvetica,sans-Serif" font-size="10.00">_attributes</text>
</a>
</g>
</g>
<!-- Node2&#45;&gt;Node3 -->
<g id="edge2" class="edge">
<title>Node2&#45;&gt;Node3</title>
<path fill="none" stroke="midnightblue" d="M252.07,-74.25C260.4,-75.78 269.12,-77.38 277.74,-78.96"/>
<polygon fill="midnightblue" stroke="midnightblue" points="277.32,-82.44 287.78,-80.81 278.58,-75.56 277.32,-82.44"/>
</g>
<!-- Node5 -->
<g id="node5" class="node">
<title>Node5</title>
<g id="a_node5"><a xlink:href="namespacesrc_1_1email__caching_1_1cli__entry.html#aaaf441d759bd2ce74c21378f0a190261" target="_top" xlink:title=" ">
<polygon fill="white" stroke="black" points="293,-21.5 293,-51.5 401,-51.5 401,-21.5 293,-21.5"/>
<text text-anchor="start" x="301" y="-39.5" font-family="Helvetica,sans-Serif" font-size="10.00">src.email_caching.cli</text>
<text text-anchor="middle" x="347" y="-28.5" font-family="Helvetica,sans-Serif" font-size="10.00">_entry.fail</text>
</a>
</g>
</g>
<!-- Node2&#45;&gt;Node5 -->
<g id="edge4" class="edge">
<title>Node2&#45;&gt;Node5</title>
<path fill="none" stroke="midnightblue" d="M252.07,-54.39C261.94,-52.51 272.34,-50.53 282.49,-48.6"/>
<polygon fill="midnightblue" stroke="midnightblue" points="283.35,-52 292.51,-46.69 282.04,-45.12 283.35,-52"/>
</g>
<!-- Node4 -->
<g id="node4" class="node">
<title>Node4</title>
<g id="a_node4"><a xlink:href="namespacesrc_1_1email__caching_1_1cli__entry.html#aa01e794546716bf3eb144dca34be5c26" target="_top" xlink:title=" ">
<polygon fill="white" stroke="black" points="442,-71 442,-112 560,-112 560,-71 442,-71"/>
<text text-anchor="start" x="450" y="-100" font-family="Helvetica,sans-Serif" font-size="10.00">src.email_caching.cli</text>
<text text-anchor="start" x="450" y="-89" font-family="Helvetica,sans-Serif" font-size="10.00">_entry.check_args_has</text>
<text text-anchor="middle" x="501" y="-78" font-family="Helvetica,sans-Serif" font-size="10.00">_attribute</text>
</a>
</g>
</g>
<!-- Node3&#45;&gt;Node4 -->
<g id="edge3" class="edge">
<title>Node3&#45;&gt;Node4</title>
<path fill="none" stroke="midnightblue" d="M406.33,-91.5C414.61,-91.5 423.17,-91.5 431.62,-91.5"/>
<polygon fill="midnightblue" stroke="midnightblue" points="431.82,-95 441.82,-91.5 431.82,-88 431.82,-95"/>
</g>
</g>
</svg>
