<?xml version="1.0" encoding="UTF-8" standalone="no"?>
<!DOCTYPE svg PUBLIC "-//W3C//DTD SVG 1.1//EN"
 "http://www.w3.org/Graphics/SVG/1.1/DTD/svg11.dtd">
<!-- Generated by graphviz version 2.47.1 (20210417.1919)
 -->
<!-- Title: src.eralchemy.helpers.check_args_has_attribute Pages: 1 -->
<svg width="706pt" height="28pt"
 viewBox="0.00 0.00 706.00 28.00" xmlns="http://www.w3.org/2000/svg" xmlns:xlink="http://www.w3.org/1999/xlink">
<g id="graph0" class="graph" transform="scale(1 1) rotate(0) translate(4 24)">
<title>src.eralchemy.helpers.check_args_has_attribute</title>
<polygon fill="white" stroke="transparent" points="-4,4 -4,-24 702,-24 702,4 -4,4"/>
<!-- Node1 -->
<g id="node1" class="node">
<title>Node1</title>
<g id="a_node1"><a xlink:title=" ">
<polygon fill="#bfbfbf" stroke="black" points="471,-0.5 471,-19.5 698,-19.5 698,-0.5 471,-0.5"/>
<text text-anchor="middle" x="584.5" y="-7.5" font-family="Helvetica,sans-Serif" font-size="10.00">src.eralchemy.helpers.check_args_has_attribute</text>
</a>
</g>
</g>
<!-- Node2 -->
<g id="node2" class="node">
<title>Node2</title>
<g id="a_node2"><a xlink:href="namespacesrc_1_1eralchemy_1_1helpers.html#aace21dff405f17a28ef35acfaf2c0a8b" target="_top" xlink:title=" ">
<polygon fill="white" stroke="black" points="202,-0.5 202,-19.5 435,-19.5 435,-0.5 202,-0.5"/>
<text text-anchor="middle" x="318.5" y="-7.5" font-family="Helvetica,sans-Serif" font-size="10.00">src.eralchemy.helpers.check_args_has_attributes</text>
</a>
</g>
</g>
<!-- Node1&#45;&gt;Node2 -->
<g id="edge1" class="edge">
<title>Node1&#45;&gt;Node2</title>
<path fill="none" stroke="midnightblue" d="M460.52,-10C452.09,-10 443.61,-10 435.22,-10"/>
<polygon fill="midnightblue" stroke="midnightblue" points="460.77,-13.5 470.77,-10 460.77,-6.5 460.77,-13.5"/>
</g>
<!-- Node3 -->
<g id="node3" class="node">
<title>Node3</title>
<g id="a_node3"><a xlink:href="namespacesrc_1_1eralchemy_1_1helpers.html#a95668c543e9d513fce1d698eaefd7d6e" target="_top" xlink:title=" ">
<polygon fill="white" stroke="black" points="0,-0.5 0,-19.5 166,-19.5 166,-0.5 0,-0.5"/>
<text text-anchor="middle" x="83" y="-7.5" font-family="Helvetica,sans-Serif" font-size="10.00">src.eralchemy.helpers.check_args</text>
</a>
</g>
</g>
<!-- Node2&#45;&gt;Node3 -->
<g id="edge2" class="edge">
<title>Node2&#45;&gt;Node3</title>
<path fill="none" stroke="midnightblue" d="M191.62,-10C182.99,-10 174.43,-10 166.12,-10"/>
<polygon fill="midnightblue" stroke="midnightblue" points="191.78,-13.5 201.78,-10 191.78,-6.5 191.78,-13.5"/>
</g>
</g>
</svg>
