<?xml version="1.0" encoding="UTF-8" standalone="no"?>
<!DOCTYPE svg PUBLIC "-//W3C//DTD SVG 1.1//EN"
 "http://www.w3.org/Graphics/SVG/1.1/DTD/svg11.dtd">
<!-- Generated by graphviz version 2.47.1 (20210417.1919)
 -->
<!-- Title: src.eralchemy.parser.markdown_file_to_intermediary Pages: 1 -->
<svg width="1082pt" height="142pt"
 viewBox="0.00 0.00 1082.00 142.00" xmlns="http://www.w3.org/2000/svg" xmlns:xlink="http://www.w3.org/1999/xlink">
<g id="graph0" class="graph" transform="scale(1 1) rotate(0) translate(4 138)">
<title>src.eralchemy.parser.markdown_file_to_intermediary</title>
<polygon fill="white" stroke="transparent" points="-4,4 -4,-138 1078,-138 1078,4 -4,4"/>
<!-- Node1 -->
<g id="node1" class="node">
<title>Node1</title>
<g id="a_node1"><a xlink:title=" ">
<polygon fill="#bfbfbf" stroke="black" points="0,-76.5 0,-95.5 245,-95.5 245,-76.5 0,-76.5"/>
<text text-anchor="middle" x="122.5" y="-83.5" font-family="Helvetica,sans-Serif" font-size="10.00">src.eralchemy.parser.markdown_file_to_intermediary</text>
</a>
</g>
</g>
<!-- Node2 -->
<g id="node2" class="node">
<title>Node2</title>
<g id="a_node2"><a xlink:href="namespacesrc_1_1eralchemy_1_1parser.html#ae896c00e0ce3280fd4a5f84bb3b13da5" target="_top" xlink:title=" ">
<polygon fill="white" stroke="black" points="281,-76.5 281,-95.5 514,-95.5 514,-76.5 281,-76.5"/>
<text text-anchor="middle" x="397.5" y="-83.5" font-family="Helvetica,sans-Serif" font-size="10.00">src.eralchemy.parser.line_iterator_to_intermediary</text>
</a>
</g>
</g>
<!-- Node1&#45;&gt;Node2 -->
<g id="edge1" class="edge">
<title>Node1&#45;&gt;Node2</title>
<path fill="none" stroke="midnightblue" d="M245.23,-86C253.62,-86 262.09,-86 270.5,-86"/>
<polygon fill="midnightblue" stroke="midnightblue" points="270.72,-89.5 280.72,-86 270.72,-82.5 270.72,-89.5"/>
</g>
<!-- Node3 -->
<g id="node3" class="node">
<title>Node3</title>
<g id="a_node3"><a xlink:href="namespacesrc_1_1eralchemy_1_1parser.html#af2c09125da4fddcf62bd70475bd1c156" target="_top" xlink:title=" ">
<polygon fill="white" stroke="black" points="550,-95.5 550,-114.5 787,-114.5 787,-95.5 550,-95.5"/>
<text text-anchor="middle" x="668.5" y="-102.5" font-family="Helvetica,sans-Serif" font-size="10.00">src.eralchemy.parser.remove_comments_from_line</text>
</a>
</g>
</g>
<!-- Node2&#45;&gt;Node3 -->
<g id="edge2" class="edge">
<title>Node2&#45;&gt;Node3</title>
<path fill="none" stroke="midnightblue" d="M514.14,-94.17C522.64,-94.77 531.23,-95.38 539.79,-95.98"/>
<polygon fill="midnightblue" stroke="midnightblue" points="539.6,-99.47 549.82,-96.69 540.09,-92.49 539.6,-99.47"/>
</g>
<!-- Node4 -->
<g id="node4" class="node">
<title>Node4</title>
<g id="a_node4"><a xlink:href="namespacesrc_1_1eralchemy_1_1parser.html#aaa8d12965e24d3a437fe9605475f9ec1" target="_top" xlink:title=" ">
<polygon fill="white" stroke="black" points="580,-57.5 580,-76.5 757,-76.5 757,-57.5 580,-57.5"/>
<text text-anchor="middle" x="668.5" y="-64.5" font-family="Helvetica,sans-Serif" font-size="10.00">src.eralchemy.parser.update_models</text>
</a>
</g>
</g>
<!-- Node2&#45;&gt;Node4 -->
<g id="edge3" class="edge">
<title>Node2&#45;&gt;Node4</title>
<path fill="none" stroke="midnightblue" d="M514.14,-77.83C532.68,-76.52 551.7,-75.18 569.77,-73.9"/>
<polygon fill="midnightblue" stroke="midnightblue" points="570.26,-77.38 579.99,-73.18 569.77,-70.39 570.26,-77.38"/>
</g>
<!-- Node5 -->
<g id="node5" class="node">
<title>Node5</title>
<g id="a_node5"><a xlink:href="namespacesrc_1_1eralchemy_1_1parser.html#a4074827fe7dbe79bd52ab7fce3fec3ff" target="_top" xlink:title=" ">
<polygon fill="white" stroke="black" points="842,-114.5 842,-133.5 1055,-133.5 1055,-114.5 842,-114.5"/>
<text text-anchor="middle" x="948.5" y="-121.5" font-family="Helvetica,sans-Serif" font-size="10.00">src.eralchemy.parser._check_colname_in_lst</text>
</a>
</g>
</g>
<!-- Node4&#45;&gt;Node5 -->
<g id="edge4" class="edge">
<title>Node4&#45;&gt;Node5</title>
<path fill="none" stroke="midnightblue" d="M750.3,-76.5C762.75,-78.98 775.34,-82.1 787,-86 804.16,-91.74 805.82,-99.33 823,-105 831.69,-107.87 840.87,-110.3 850.14,-112.37"/>
<polygon fill="midnightblue" stroke="midnightblue" points="849.72,-115.86 860.22,-114.48 851.15,-109.01 849.72,-115.86"/>
</g>
<!-- Node6 -->
<g id="node6" class="node">
<title>Node6</title>
<g id="a_node6"><a xlink:href="namespacesrc_1_1eralchemy_1_1parser.html#aa39338fd82cbc77e7aa9d11241375d3f" target="_top" xlink:title=" ">
<polygon fill="white" stroke="black" points="838.5,-76.5 838.5,-95.5 1058.5,-95.5 1058.5,-76.5 838.5,-76.5"/>
<text text-anchor="middle" x="948.5" y="-83.5" font-family="Helvetica,sans-Serif" font-size="10.00">src.eralchemy.parser._check_no_current_table</text>
</a>
</g>
</g>
<!-- Node4&#45;&gt;Node6 -->
<g id="edge5" class="edge">
<title>Node4&#45;&gt;Node6</title>
<path fill="none" stroke="midnightblue" d="M757.08,-72.99C779.64,-74.53 804.3,-76.21 828.18,-77.84"/>
<polygon fill="midnightblue" stroke="midnightblue" points="828.14,-81.35 838.35,-78.54 828.61,-74.37 828.14,-81.35"/>
</g>
<!-- Node7 -->
<g id="node7" class="node">
<title>Node7</title>
<g id="a_node7"><a xlink:href="namespacesrc_1_1eralchemy_1_1parser.html#a6ee33be1040bdc3f9d17e30a8667a6bf" target="_top" xlink:title=" ">
<polygon fill="white" stroke="black" points="823,-38.5 823,-57.5 1074,-57.5 1074,-38.5 823,-38.5"/>
<text text-anchor="middle" x="948.5" y="-45.5" font-family="Helvetica,sans-Serif" font-size="10.00">src.eralchemy.parser._check_not_creating_duplicates</text>
</a>
</g>
</g>
<!-- Node4&#45;&gt;Node7 -->
<g id="edge6" class="edge">
<title>Node4&#45;&gt;Node7</title>
<path fill="none" stroke="midnightblue" d="M757.08,-61.01C774.82,-59.8 793.86,-58.5 812.8,-57.21"/>
<polygon fill="midnightblue" stroke="midnightblue" points="813.25,-60.68 822.99,-56.51 812.77,-53.7 813.25,-60.68"/>
</g>
<!-- Node8 -->
<g id="node8" class="node">
<title>Node8</title>
<g id="a_node8"><a xlink:href="namespacesrc_1_1eralchemy_1_1parser.html#a865f8f738e78ee150ed201fe3f13f066" target="_top" xlink:title=" ">
<polygon fill="white" stroke="black" points="844,-0.5 844,-19.5 1053,-19.5 1053,-0.5 844,-0.5"/>
<text text-anchor="middle" x="948.5" y="-7.5" font-family="Helvetica,sans-Serif" font-size="10.00">src.eralchemy.parser._update_check_inputs</text>
</a>
</g>
</g>
<!-- Node4&#45;&gt;Node8 -->
<g id="edge7" class="edge">
<title>Node4&#45;&gt;Node8</title>
<path fill="none" stroke="midnightblue" d="M704.05,-57.49C735.02,-49.19 781.81,-37.22 823,-29 837.29,-26.15 852.57,-23.49 867.36,-21.13"/>
<polygon fill="midnightblue" stroke="midnightblue" points="868.17,-24.54 877.51,-19.54 867.08,-17.63 868.17,-24.54"/>
</g>
</g>
</svg>
