<?xml version="1.0" encoding="UTF-8" standalone="no"?>
<!DOCTYPE svg PUBLIC "-//W3C//DTD SVG 1.1//EN"
 "http://www.w3.org/Graphics/SVG/1.1/DTD/svg11.dtd">
<!-- Generated by graphviz version 2.47.1 (20210417.1919)
 -->
<!-- Title: src.eralchemy.sqla.format_name Pages: 1 -->
<svg width="1861pt" height="66pt"
 viewBox="0.00 0.00 1861.00 66.00" xmlns="http://www.w3.org/2000/svg" xmlns:xlink="http://www.w3.org/1999/xlink">
<g id="graph0" class="graph" transform="scale(1 1) rotate(0) translate(4 62)">
<title>src.eralchemy.sqla.format_name</title>
<polygon fill="white" stroke="transparent" points="-4,4 -4,-62 1857,-62 1857,4 -4,4"/>
<!-- Node1 -->
<g id="node1" class="node">
<title>Node1</title>
<g id="a_node1"><a xlink:title=" ">
<polygon fill="#bfbfbf" stroke="black" points="1695,-38.5 1695,-57.5 1853,-57.5 1853,-38.5 1695,-38.5"/>
<text text-anchor="middle" x="1774" y="-45.5" font-family="Helvetica,sans-Serif" font-size="10.00">src.eralchemy.sqla.format_name</text>
</a>
</g>
</g>
<!-- Node2 -->
<g id="node2" class="node">
<title>Node2</title>
<g id="a_node2"><a xlink:href="namespacesrc_1_1eralchemy_1_1sqla.html#aecf50970e801a99f0a0373b9bd5c2988" target="_top" xlink:title=" ">
<polygon fill="white" stroke="black" points="1453,-38.5 1453,-57.5 1659,-57.5 1659,-38.5 1453,-38.5"/>
<text text-anchor="middle" x="1556" y="-45.5" font-family="Helvetica,sans-Serif" font-size="10.00">src.eralchemy.sqla.relation_to_intermediary</text>
</a>
</g>
</g>
<!-- Node1&#45;&gt;Node2 -->
<g id="edge1" class="edge">
<title>Node1&#45;&gt;Node2</title>
<path fill="none" stroke="midnightblue" d="M1684.55,-48C1676.14,-48 1667.57,-48 1659.05,-48"/>
<polygon fill="midnightblue" stroke="midnightblue" points="1684.71,-51.5 1694.71,-48 1684.71,-44.5 1684.71,-51.5"/>
</g>
<!-- Node3 -->
<g id="node3" class="node">
<title>Node3</title>
<g id="a_node3"><a xlink:href="namespacesrc_1_1eralchemy_1_1sqla.html#a8c80e60516d371d4404a1040516f88ea" target="_top" xlink:title=" ">
<polygon fill="white" stroke="black" points="1202,-38.5 1202,-57.5 1417,-57.5 1417,-38.5 1202,-38.5"/>
<text text-anchor="middle" x="1309.5" y="-45.5" font-family="Helvetica,sans-Serif" font-size="10.00">src.eralchemy.sqla.metadata_to_intermediary</text>
</a>
</g>
</g>
<!-- Node2&#45;&gt;Node3 -->
<g id="edge2" class="edge">
<title>Node2&#45;&gt;Node3</title>
<path fill="none" stroke="midnightblue" d="M1442.46,-48C1434.01,-48 1425.5,-48 1417.09,-48"/>
<polygon fill="midnightblue" stroke="midnightblue" points="1442.73,-51.5 1452.73,-48 1442.73,-44.5 1442.73,-51.5"/>
</g>
<!-- Node4 -->
<g id="node4" class="node">
<title>Node4</title>
<g id="a_node4"><a xlink:href="namespacesrc_1_1eralchemy_1_1sqla.html#a08828ed118d96f46452d9c55a5080c78" target="_top" xlink:title=" ">
<polygon fill="white" stroke="black" points="946,-38.5 946,-57.5 1166,-57.5 1166,-38.5 946,-38.5"/>
<text text-anchor="middle" x="1056" y="-45.5" font-family="Helvetica,sans-Serif" font-size="10.00">src.eralchemy.sqla.declarative_to_intermediary</text>
</a>
</g>
</g>
<!-- Node3&#45;&gt;Node4 -->
<g id="edge3" class="edge">
<title>Node3&#45;&gt;Node4</title>
<path fill="none" stroke="midnightblue" d="M1191.58,-48C1183.13,-48 1174.64,-48 1166.24,-48"/>
<polygon fill="midnightblue" stroke="midnightblue" points="1191.84,-51.5 1201.84,-48 1191.84,-44.5 1191.84,-51.5"/>
</g>
<!-- Node5 -->
<g id="node5" class="node">
<title>Node5</title>
<g id="a_node5"><a xlink:href="namespacesrc_1_1eralchemy_1_1sqla.html#a45674eee4c7ce1d82b7f99a285958c1d" target="_top" xlink:title=" ">
<polygon fill="white" stroke="black" points="696,-38.5 696,-57.5 910,-57.5 910,-38.5 696,-38.5"/>
<text text-anchor="middle" x="803" y="-45.5" font-family="Helvetica,sans-Serif" font-size="10.00">src.eralchemy.sqla.database_to_intermediary</text>
</a>
</g>
</g>
<!-- Node4&#45;&gt;Node5 -->
<g id="edge4" class="edge">
<title>Node4&#45;&gt;Node5</title>
<path fill="none" stroke="midnightblue" d="M935.4,-48C926.99,-48 918.54,-48 910.21,-48"/>
<polygon fill="midnightblue" stroke="midnightblue" points="935.64,-51.5 945.64,-48 935.64,-44.5 935.64,-51.5"/>
</g>
<!-- Node6 -->
<g id="node6" class="node">
<title>Node6</title>
<g id="a_node6"><a xlink:href="namespacesrc_1_1eralchemy_1_1main.html#a9fac164b40f74cd204823413bbc5c01d" target="_top" xlink:title=" ">
<polygon fill="white" stroke="black" points="473,-38.5 473,-57.5 660,-57.5 660,-38.5 473,-38.5"/>
<text text-anchor="middle" x="566.5" y="-45.5" font-family="Helvetica,sans-Serif" font-size="10.00">src.eralchemy.main.all_to_intermediary</text>
</a>
</g>
</g>
<!-- Node5&#45;&gt;Node6 -->
<g id="edge5" class="edge">
<title>Node5&#45;&gt;Node6</title>
<path fill="none" stroke="midnightblue" d="M685.68,-48C677.11,-48 668.54,-48 660.14,-48"/>
<polygon fill="midnightblue" stroke="midnightblue" points="685.73,-51.5 695.73,-48 685.73,-44.5 685.73,-51.5"/>
</g>
<!-- Node7 -->
<g id="node7" class="node">
<title>Node7</title>
<g id="a_node7"><a xlink:href="namespacesrc_1_1eralchemy_1_1main.html#a5387e0a7c14b44fd86de8ede390bed04" target="_top" xlink:title=" ">
<polygon fill="white" stroke="black" points="291,-38.5 291,-57.5 437,-57.5 437,-38.5 291,-38.5"/>
<text text-anchor="middle" x="364" y="-45.5" font-family="Helvetica,sans-Serif" font-size="10.00">src.eralchemy.main.render_er</text>
</a>
</g>
</g>
<!-- Node6&#45;&gt;Node7 -->
<g id="edge6" class="edge">
<title>Node6&#45;&gt;Node7</title>
<path fill="none" stroke="midnightblue" d="M462.73,-48C454.08,-48 445.46,-48 437.12,-48"/>
<polygon fill="midnightblue" stroke="midnightblue" points="462.88,-51.5 472.88,-48 462.88,-44.5 462.88,-51.5"/>
</g>
<!-- Node8 -->
<g id="node8" class="node">
<title>Node8</title>
<g id="a_node8"><a xlink:href="namespacesrc_1_1eralchemy_1_1main.html#afd606a75c08edb3181030c5b1ce3b5aa" target="_top" xlink:title=" ">
<polygon fill="white" stroke="black" points="70,-38.5 70,-57.5 185,-57.5 185,-38.5 70,-38.5"/>
<text text-anchor="middle" x="127.5" y="-45.5" font-family="Helvetica,sans-Serif" font-size="10.00">src.eralchemy.main.cli</text>
</a>
</g>
</g>
<!-- Node7&#45;&gt;Node8 -->
<g id="edge7" class="edge">
<title>Node7&#45;&gt;Node8</title>
<path fill="none" stroke="midnightblue" d="M280.64,-41.52C249.11,-41.02 213.89,-41.22 185.28,-42.12"/>
<polygon fill="midnightblue" stroke="midnightblue" points="280.66,-45.02 290.73,-41.71 280.8,-38.03 280.66,-45.02"/>
</g>
<!-- Node9 -->
<g id="node9" class="node">
<title>Node9</title>
<g id="a_node9"><a xlink:href="namespacesrc_1_1db__tools_1_1database__consolidation.html#a7057f33c203cc4abd04492f89c632aa9" target="_top" xlink:title=" ">
<polygon fill="white" stroke="black" points="0,-0.5 0,-19.5 255,-19.5 255,-0.5 0,-0.5"/>
<text text-anchor="middle" x="127.5" y="-7.5" font-family="Helvetica,sans-Serif" font-size="10.00">src.db_tools.database_consolidation.doit_generate_erd</text>
</a>
</g>
</g>
<!-- Node7&#45;&gt;Node9 -->
<g id="edge9" class="edge">
<title>Node7&#45;&gt;Node9</title>
<path fill="none" stroke="midnightblue" d="M300.23,-36.68C285.41,-34.09 269.66,-31.39 255,-29 235.16,-25.77 213.54,-22.44 193.88,-19.5"/>
<polygon fill="midnightblue" stroke="midnightblue" points="299.86,-40.17 310.31,-38.46 301.07,-33.28 299.86,-40.17"/>
</g>
<!-- Node8&#45;&gt;Node7 -->
<g id="edge8" class="edge">
<title>Node8&#45;&gt;Node7</title>
<path fill="none" stroke="midnightblue" d="M195.57,-54.17C225.32,-54.9 260.39,-54.94 290.73,-54.29"/>
<polygon fill="midnightblue" stroke="midnightblue" points="195.37,-50.66 185.28,-53.88 195.18,-57.66 195.37,-50.66"/>
</g>
</g>
</svg>
