<?xml version="1.0" encoding="UTF-8" standalone="no"?>
<!DOCTYPE svg PUBLIC "-//W3C//DTD SVG 1.1//EN"
 "http://www.w3.org/Graphics/SVG/1.1/DTD/svg11.dtd">
<!-- Generated by graphviz version 2.47.1 (20210417.1919)
 -->
<!-- Title: src.email_caching.cli_entry.check_args Pages: 1 -->
<svg width="424pt" height="100pt"
 viewBox="0.00 0.00 424.00 99.50" xmlns="http://www.w3.org/2000/svg" xmlns:xlink="http://www.w3.org/1999/xlink">
<g id="graph0" class="graph" transform="scale(1 1) rotate(0) translate(4 95.5)">
<title>src.email_caching.cli_entry.check_args</title>
<polygon fill="white" stroke="transparent" points="-4,4 -4,-95.5 420,-95.5 420,4 -4,4"/>
<!-- Node1 -->
<g id="node1" class="node">
<title>Node1</title>
<g id="a_node1"><a xlink:title=" ">
<polygon fill="#bfbfbf" stroke="black" points="0,-27.5 0,-57.5 108,-57.5 108,-27.5 0,-27.5"/>
<text text-anchor="start" x="8" y="-45.5" font-family="Helvetica,sans-Serif" font-size="10.00">src.email_caching.cli</text>
<text text-anchor="middle" x="54" y="-34.5" font-family="Helvetica,sans-Serif" font-size="10.00">_entry.check_args</text>
</a>
</g>
</g>
<!-- Node2 -->
<g id="node2" class="node">
<title>Node2</title>
<g id="a_node2"><a xlink:href="namespacesrc_1_1email__caching_1_1cli__entry.html#a43f28b8dff21c2c2bde334e404ce7316" target="_top" xlink:title=" ">
<polygon fill="white" stroke="black" points="144,-50 144,-91 262,-91 262,-50 144,-50"/>
<text text-anchor="start" x="152" y="-79" font-family="Helvetica,sans-Serif" font-size="10.00">src.email_caching.cli</text>
<text text-anchor="start" x="152" y="-68" font-family="Helvetica,sans-Serif" font-size="10.00">_entry.check_args_has</text>
<text text-anchor="middle" x="203" y="-57" font-family="Helvetica,sans-Serif" font-size="10.00">_attributes</text>
</a>
</g>
</g>
<!-- Node1&#45;&gt;Node2 -->
<g id="edge1" class="edge">
<title>Node1&#45;&gt;Node2</title>
<path fill="none" stroke="midnightblue" d="M108.07,-52.61C116.4,-54.2 125.12,-55.86 133.74,-57.5"/>
<polygon fill="midnightblue" stroke="midnightblue" points="133.3,-60.98 143.78,-59.41 134.61,-54.1 133.3,-60.98"/>
</g>
<!-- Node4 -->
<g id="node4" class="node">
<title>Node4</title>
<g id="a_node4"><a xlink:href="namespacesrc_1_1email__caching_1_1cli__entry.html#aaaf441d759bd2ce74c21378f0a190261" target="_top" xlink:title=" ">
<polygon fill="white" stroke="black" points="149,-0.5 149,-30.5 257,-30.5 257,-0.5 149,-0.5"/>
<text text-anchor="start" x="157" y="-18.5" font-family="Helvetica,sans-Serif" font-size="10.00">src.email_caching.cli</text>
<text text-anchor="middle" x="203" y="-7.5" font-family="Helvetica,sans-Serif" font-size="10.00">_entry.fail</text>
</a>
</g>
</g>
<!-- Node1&#45;&gt;Node4 -->
<g id="edge3" class="edge">
<title>Node1&#45;&gt;Node4</title>
<path fill="none" stroke="midnightblue" d="M108.07,-32.75C117.94,-30.94 128.34,-29.03 138.49,-27.17"/>
<polygon fill="midnightblue" stroke="midnightblue" points="139.31,-30.57 148.51,-25.32 138.05,-23.69 139.31,-30.57"/>
</g>
<!-- Node3 -->
<g id="node3" class="node">
<title>Node3</title>
<g id="a_node3"><a xlink:href="namespacesrc_1_1email__caching_1_1cli__entry.html#aa01e794546716bf3eb144dca34be5c26" target="_top" xlink:title=" ">
<polygon fill="white" stroke="black" points="298,-50 298,-91 416,-91 416,-50 298,-50"/>
<text text-anchor="start" x="306" y="-79" font-family="Helvetica,sans-Serif" font-size="10.00">src.email_caching.cli</text>
<text text-anchor="start" x="306" y="-68" font-family="Helvetica,sans-Serif" font-size="10.00">_entry.check_args_has</text>
<text text-anchor="middle" x="357" y="-57" font-family="Helvetica,sans-Serif" font-size="10.00">_attribute</text>
</a>
</g>
</g>
<!-- Node2&#45;&gt;Node3 -->
<g id="edge2" class="edge">
<title>Node2&#45;&gt;Node3</title>
<path fill="none" stroke="midnightblue" d="M262.33,-70.5C270.61,-70.5 279.17,-70.5 287.62,-70.5"/>
<polygon fill="midnightblue" stroke="midnightblue" points="287.82,-74 297.82,-70.5 287.82,-67 287.82,-74"/>
</g>
</g>
</svg>
