<?xml version="1.0" encoding="UTF-8" standalone="no"?>
<!DOCTYPE svg PUBLIC "-//W3C//DTD SVG 1.1//EN"
 "http://www.w3.org/Graphics/SVG/1.1/DTD/svg11.dtd">
<!-- Generated by graphviz version 2.47.1 (20210417.1919)
 -->
<!-- Title: src.email_caching.downloader.pickle_load Pages: 1 -->
<svg width="643pt" height="28pt"
 viewBox="0.00 0.00 643.00 28.00" xmlns="http://www.w3.org/2000/svg" xmlns:xlink="http://www.w3.org/1999/xlink">
<g id="graph0" class="graph" transform="scale(1 1) rotate(0) translate(4 24)">
<title>src.email_caching.downloader.pickle_load</title>
<polygon fill="white" stroke="transparent" points="-4,4 -4,-24 639,-24 639,4 -4,4"/>
<!-- Node1 -->
<g id="node1" class="node">
<title>Node1</title>
<g id="a_node1"><a xlink:title=" ">
<polygon fill="#bfbfbf" stroke="black" points="0,-0.5 0,-19.5 199,-19.5 199,-0.5 0,-0.5"/>
<text text-anchor="middle" x="99.5" y="-7.5" font-family="Helvetica,sans-Serif" font-size="10.00">src.email_caching.downloader.pickle_load</text>
</a>
</g>
</g>
<!-- Node2 -->
<g id="node2" class="node">
<title>Node2</title>
<g id="a_node2"><a xlink:href="namespacesrc_1_1utils.html#a7f7d00301cc409daa527615f97c47221" target="_top" xlink:title=" ">
<polygon fill="white" stroke="black" points="235,-0.5 235,-19.5 341,-19.5 341,-0.5 235,-0.5"/>
<text text-anchor="middle" x="288" y="-7.5" font-family="Helvetica,sans-Serif" font-size="10.00">src.utils.undo_pickle</text>
</a>
</g>
</g>
<!-- Node1&#45;&gt;Node2 -->
<g id="edge1" class="edge">
<title>Node1&#45;&gt;Node2</title>
<path fill="none" stroke="midnightblue" d="M199.21,-10C207.81,-10 216.35,-10 224.53,-10"/>
<polygon fill="midnightblue" stroke="midnightblue" points="224.69,-13.5 234.69,-10 224.68,-6.5 224.69,-13.5"/>
</g>
<!-- Node3 -->
<g id="node3" class="node">
<title>Node3</title>
<g id="a_node3"><a xlink:href="namespacesrc_1_1utils.html#a328d6ccace46735185a4416efe0f8a1b" target="_top" xlink:title=" ">
<polygon fill="white" stroke="black" points="377,-0.5 377,-19.5 635,-19.5 635,-0.5 377,-0.5"/>
<text text-anchor="middle" x="506" y="-7.5" font-family="Helvetica,sans-Serif" font-size="10.00">src.utils.handle_warning_about_unexpected_exceptions</text>
</a>
</g>
</g>
<!-- Node2&#45;&gt;Node3 -->
<g id="edge2" class="edge">
<title>Node2&#45;&gt;Node3</title>
<path fill="none" stroke="midnightblue" d="M341.01,-10C349.08,-10 357.73,-10 366.68,-10"/>
<polygon fill="midnightblue" stroke="midnightblue" points="366.9,-13.5 376.9,-10 366.9,-6.5 366.9,-13.5"/>
</g>
</g>
</svg>
