<?xml version="1.0" encoding="UTF-8" standalone="no"?>
<!DOCTYPE svg PUBLIC "-//W3C//DTD SVG 1.1//EN"
 "http://www.w3.org/Graphics/SVG/1.1/DTD/svg11.dtd">
<!-- Generated by graphviz version 2.47.1 (20210417.1919)
 -->
<!-- Title: src.email_caching.cli_entry.cli Pages: 1 -->
<svg width="966pt" height="85pt"
 viewBox="0.00 0.00 966.00 85.00" xmlns="http://www.w3.org/2000/svg" xmlns:xlink="http://www.w3.org/1999/xlink">
<g id="graph0" class="graph" transform="scale(1 1) rotate(0) translate(4 81)">
<title>src.email_caching.cli_entry.cli</title>
<polygon fill="white" stroke="transparent" points="-4,4 -4,-81 962,-81 962,4 -4,4"/>
<!-- Node1 -->
<g id="node1" class="node">
<title>Node1</title>
<g id="a_node1"><a xlink:title=" ">
<polygon fill="#bfbfbf" stroke="black" points="0,-19.5 0,-38.5 148,-38.5 148,-19.5 0,-19.5"/>
<text text-anchor="middle" x="74" y="-26.5" font-family="Helvetica,sans-Serif" font-size="10.00">src.email_caching.cli_entry.cli</text>
</a>
</g>
</g>
<!-- Node2 -->
<g id="node2" class="node">
<title>Node2</title>
<g id="a_node2"><a xlink:href="namespacesrc_1_1email__caching_1_1cli__entry.html#aee1be9faebd5761582a49b8aff7ed4ec" target="_top" xlink:title=" ">
<polygon fill="white" stroke="black" points="188.5,-38.5 188.5,-57.5 376.5,-57.5 376.5,-38.5 188.5,-38.5"/>
<text text-anchor="middle" x="282.5" y="-45.5" font-family="Helvetica,sans-Serif" font-size="10.00">src.email_caching.cli_entry.check_args</text>
</a>
</g>
</g>
<!-- Node1&#45;&gt;Node2 -->
<g id="edge1" class="edge">
<title>Node1&#45;&gt;Node2</title>
<path fill="none" stroke="midnightblue" d="M148.09,-35.73C157.84,-36.62 167.98,-37.56 178.12,-38.49"/>
<polygon fill="midnightblue" stroke="midnightblue" points="177.97,-41.99 188.25,-39.42 178.61,-35.02 177.97,-41.99"/>
</g>
<!-- Node6 -->
<g id="node6" class="node">
<title>Node6</title>
<g id="a_node6"><a xlink:href="namespacesrc_1_1email__caching_1_1cli__entry.html#a1761e7d664d10688752547edbf5a7e23" target="_top" xlink:title=" ">
<polygon fill="white" stroke="black" points="184,-0.5 184,-19.5 381,-19.5 381,-0.5 184,-0.5"/>
<text text-anchor="middle" x="282.5" y="-7.5" font-family="Helvetica,sans-Serif" font-size="10.00">src.email_caching.cli_entry.get_argparser</text>
</a>
</g>
</g>
<!-- Node1&#45;&gt;Node6 -->
<g id="edge5" class="edge">
<title>Node1&#45;&gt;Node6</title>
<path fill="none" stroke="midnightblue" d="M148.09,-22.27C156.43,-21.51 165.06,-20.71 173.73,-19.92"/>
<polygon fill="midnightblue" stroke="midnightblue" points="174.27,-23.38 183.91,-18.98 173.63,-16.41 174.27,-23.38"/>
</g>
<!-- Node3 -->
<g id="node3" class="node">
<title>Node3</title>
<g id="a_node3"><a xlink:href="namespacesrc_1_1email__caching_1_1cli__entry.html#a43f28b8dff21c2c2bde334e404ce7316" target="_top" xlink:title=" ">
<polygon fill="white" stroke="black" points="417,-57.5 417,-76.5 672,-76.5 672,-57.5 417,-57.5"/>
<text text-anchor="middle" x="544.5" y="-64.5" font-family="Helvetica,sans-Serif" font-size="10.00">src.email_caching.cli_entry.check_args_has_attributes</text>
</a>
</g>
</g>
<!-- Node2&#45;&gt;Node3 -->
<g id="edge2" class="edge">
<title>Node2&#45;&gt;Node3</title>
<path fill="none" stroke="midnightblue" d="M376.63,-54.81C386.36,-55.52 396.38,-56.25 406.47,-56.99"/>
<polygon fill="midnightblue" stroke="midnightblue" points="406.33,-60.49 416.56,-57.72 406.84,-53.5 406.33,-60.49"/>
</g>
<!-- Node5 -->
<g id="node5" class="node">
<title>Node5</title>
<g id="a_node5"><a xlink:href="namespacesrc_1_1email__caching_1_1cli__entry.html#aaaf441d759bd2ce74c21378f0a190261" target="_top" xlink:title=" ">
<polygon fill="white" stroke="black" points="469.5,-19.5 469.5,-38.5 619.5,-38.5 619.5,-19.5 469.5,-19.5"/>
<text text-anchor="middle" x="544.5" y="-26.5" font-family="Helvetica,sans-Serif" font-size="10.00">src.email_caching.cli_entry.fail</text>
</a>
</g>
</g>
<!-- Node2&#45;&gt;Node5 -->
<g id="edge4" class="edge">
<title>Node2&#45;&gt;Node5</title>
<path fill="none" stroke="midnightblue" d="M376.63,-41.19C403.52,-39.23 432.69,-37.1 459.02,-35.17"/>
<polygon fill="midnightblue" stroke="midnightblue" points="459.63,-38.64 469.34,-34.42 459.12,-31.66 459.63,-38.64"/>
</g>
<!-- Node4 -->
<g id="node4" class="node">
<title>Node4</title>
<g id="a_node4"><a xlink:href="namespacesrc_1_1email__caching_1_1cli__entry.html#aa01e794546716bf3eb144dca34be5c26" target="_top" xlink:title=" ">
<polygon fill="white" stroke="black" points="708,-57.5 708,-76.5 958,-76.5 958,-57.5 708,-57.5"/>
<text text-anchor="middle" x="833" y="-64.5" font-family="Helvetica,sans-Serif" font-size="10.00">src.email_caching.cli_entry.check_args_has_attribute</text>
</a>
</g>
</g>
<!-- Node3&#45;&gt;Node4 -->
<g id="edge3" class="edge">
<title>Node3&#45;&gt;Node4</title>
<path fill="none" stroke="midnightblue" d="M672.41,-67C680.71,-67 689.09,-67 697.42,-67"/>
<polygon fill="midnightblue" stroke="midnightblue" points="697.56,-70.5 707.56,-67 697.56,-63.5 697.56,-70.5"/>
</g>
</g>
</svg>
