<?xml version="1.0" encoding="UTF-8" standalone="no"?>
<!DOCTYPE svg PUBLIC "-//W3C//DTD SVG 1.1//EN"
 "http://www.w3.org/Graphics/SVG/1.1/DTD/svg11.dtd">
<!-- Generated by graphviz version 2.47.1 (20210417.1919)
 -->
<!-- Title: src.db_tools.cli_entry.cli Pages: 1 -->
<svg width="679pt" height="105pt"
 viewBox="0.00 0.00 679.00 105.00" xmlns="http://www.w3.org/2000/svg" xmlns:xlink="http://www.w3.org/1999/xlink">
<g id="graph0" class="graph" transform="scale(1 1) rotate(0) translate(4 101)">
<title>src.db_tools.cli_entry.cli</title>
<polygon fill="white" stroke="transparent" points="-4,4 -4,-101 675,-101 675,4 -4,4"/>
<!-- Node1 -->
<g id="node1" class="node">
<title>Node1</title>
<g id="a_node1"><a xlink:title=" ">
<polygon fill="#bfbfbf" stroke="black" points="0,-28 0,-47 122,-47 122,-28 0,-28"/>
<text text-anchor="middle" x="61" y="-35" font-family="Helvetica,sans-Serif" font-size="10.00">src.db_tools.cli_entry.cli</text>
</a>
</g>
</g>
<!-- Node2 -->
<g id="node2" class="node">
<title>Node2</title>
<g id="a_node2"><a xlink:href="namespacesrc_1_1db__tools_1_1cli__entry.html#ad255ecd1c1643b1e657b5c9abcf1e6e9" target="_top" xlink:title=" ">
<polygon fill="white" stroke="black" points="158,-50 158,-69 321,-69 321,-50 158,-50"/>
<text text-anchor="middle" x="239.5" y="-57" font-family="Helvetica,sans-Serif" font-size="10.00">src.db_tools.cli_entry.check_args</text>
</a>
</g>
</g>
<!-- Node1&#45;&gt;Node2 -->
<g id="edge1" class="edge">
<title>Node1&#45;&gt;Node2</title>
<path fill="none" stroke="midnightblue" d="M122.25,-45.01C131.83,-46.2 141.91,-47.46 151.96,-48.71"/>
<polygon fill="midnightblue" stroke="midnightblue" points="151.63,-52.2 161.98,-49.96 152.49,-45.25 151.63,-52.2"/>
</g>
<!-- Node6 -->
<g id="node6" class="node">
<title>Node6</title>
<g id="a_node6"><a xlink:href="namespacesrc_1_1db__tools_1_1cli__entry.html#a9fb12f57dc9564c5a836ac90a346d6b9" target="_top" xlink:title=" ">
<polygon fill="white" stroke="black" points="176.5,-0.5 176.5,-30.5 302.5,-30.5 302.5,-0.5 176.5,-0.5"/>
<text text-anchor="start" x="184.5" y="-18.5" font-family="Helvetica,sans-Serif" font-size="10.00">src.db_tools.cli_entry.get</text>
<text text-anchor="middle" x="239.5" y="-7.5" font-family="Helvetica,sans-Serif" font-size="10.00">_argparser</text>
</a>
</g>
</g>
<!-- Node1&#45;&gt;Node6 -->
<g id="edge5" class="edge">
<title>Node1&#45;&gt;Node6</title>
<path fill="none" stroke="midnightblue" d="M122.25,-29.99C136.45,-28.22 151.73,-26.32 166.39,-24.49"/>
<polygon fill="midnightblue" stroke="midnightblue" points="166.93,-27.95 176.42,-23.24 166.06,-21 166.93,-27.95"/>
</g>
<!-- Node3 -->
<g id="node3" class="node">
<title>Node3</title>
<g id="a_node3"><a xlink:href="namespacesrc_1_1db__tools_1_1cli__entry.html#a956099ca2065e63e782b89709f769805" target="_top" xlink:title=" ">
<polygon fill="white" stroke="black" points="357,-66.5 357,-96.5 496,-96.5 496,-66.5 357,-66.5"/>
<text text-anchor="start" x="365" y="-84.5" font-family="Helvetica,sans-Serif" font-size="10.00">src.db_tools.cli_entry.check</text>
<text text-anchor="middle" x="426.5" y="-73.5" font-family="Helvetica,sans-Serif" font-size="10.00">_args_has_attributes</text>
</a>
</g>
</g>
<!-- Node2&#45;&gt;Node3 -->
<g id="edge2" class="edge">
<title>Node2&#45;&gt;Node3</title>
<path fill="none" stroke="midnightblue" d="M320.57,-69.02C329.27,-70.06 338.12,-71.11 346.81,-72.14"/>
<polygon fill="midnightblue" stroke="midnightblue" points="346.57,-75.64 356.91,-73.34 347.4,-68.69 346.57,-75.64"/>
</g>
<!-- Node5 -->
<g id="node5" class="node">
<title>Node5</title>
<g id="a_node5"><a xlink:href="namespacesrc_1_1db__tools_1_1cli__entry.html#a2a7b8c0844174713273df60bc3eff45a" target="_top" xlink:title=" ">
<polygon fill="white" stroke="black" points="364,-28 364,-47 489,-47 489,-28 364,-28"/>
<text text-anchor="middle" x="426.5" y="-35" font-family="Helvetica,sans-Serif" font-size="10.00">src.db_tools.cli_entry.fail</text>
</a>
</g>
</g>
<!-- Node2&#45;&gt;Node5 -->
<g id="edge4" class="edge">
<title>Node2&#45;&gt;Node5</title>
<path fill="none" stroke="midnightblue" d="M320.57,-49.98C331.71,-48.65 343.09,-47.3 354.06,-46"/>
<polygon fill="midnightblue" stroke="midnightblue" points="354.48,-49.47 364,-44.81 353.65,-42.52 354.48,-49.47"/>
</g>
<!-- Node4 -->
<g id="node4" class="node">
<title>Node4</title>
<g id="a_node4"><a xlink:href="namespacesrc_1_1db__tools_1_1cli__entry.html#a7916c456f53088abf46d7d1ee18457c2" target="_top" xlink:title=" ">
<polygon fill="white" stroke="black" points="532,-66.5 532,-96.5 671,-96.5 671,-66.5 532,-66.5"/>
<text text-anchor="start" x="540" y="-84.5" font-family="Helvetica,sans-Serif" font-size="10.00">src.db_tools.cli_entry.check</text>
<text text-anchor="middle" x="601.5" y="-73.5" font-family="Helvetica,sans-Serif" font-size="10.00">_args_has_attribute</text>
</a>
</g>
</g>
<!-- Node3&#45;&gt;Node4 -->
<g id="edge3" class="edge">
<title>Node3&#45;&gt;Node4</title>
<path fill="none" stroke="midnightblue" d="M496.37,-81.5C504.68,-81.5 513.21,-81.5 521.65,-81.5"/>
<polygon fill="midnightblue" stroke="midnightblue" points="521.87,-85 531.87,-81.5 521.87,-78 521.87,-85"/>
</g>
</g>
</svg>
