<?xml version="1.0" encoding="UTF-8" standalone="no"?>
<!DOCTYPE svg PUBLIC "-//W3C//DTD SVG 1.1//EN"
 "http://www.w3.org/Graphics/SVG/1.1/DTD/svg11.dtd">
<!-- Generated by graphviz version 2.47.1 (20210417.1919)
 -->
<!-- Title: src.email_caching.downloader.pickle_load Pages: 1 -->
<svg width="539pt" height="39pt"
 viewBox="0.00 0.00 539.00 39.00" xmlns="http://www.w3.org/2000/svg" xmlns:xlink="http://www.w3.org/1999/xlink">
<g id="graph0" class="graph" transform="scale(1 1) rotate(0) translate(4 35)">
<title>src.email_caching.downloader.pickle_load</title>
<polygon fill="white" stroke="transparent" points="-4,4 -4,-35 535,-35 535,4 -4,4"/>
<!-- Node1 -->
<g id="node1" class="node">
<title>Node1</title>
<g id="a_node1"><a xlink:title=" ">
<polygon fill="#bfbfbf" stroke="black" points="0,-6 0,-25 199,-25 199,-6 0,-6"/>
<text text-anchor="middle" x="99.5" y="-13" font-family="Helvetica,sans-Serif" font-size="10.00">src.email_caching.downloader.pickle_load</text>
</a>
</g>
</g>
<!-- Node2 -->
<g id="node2" class="node">
<title>Node2</title>
<g id="a_node2"><a xlink:href="namespacesrc_1_1utils.html#a7f7d00301cc409daa527615f97c47221" target="_top" xlink:title=" ">
<polygon fill="white" stroke="black" points="235,-6 235,-25 341,-25 341,-6 235,-6"/>
<text text-anchor="middle" x="288" y="-13" font-family="Helvetica,sans-Serif" font-size="10.00">src.utils.undo_pickle</text>
</a>
</g>
</g>
<!-- Node1&#45;&gt;Node2 -->
<g id="edge1" class="edge">
<title>Node1&#45;&gt;Node2</title>
<path fill="none" stroke="midnightblue" d="M199.21,-15.5C207.81,-15.5 216.35,-15.5 224.53,-15.5"/>
<polygon fill="midnightblue" stroke="midnightblue" points="224.69,-19 234.69,-15.5 224.68,-12 224.69,-19"/>
</g>
<!-- Node3 -->
<g id="node3" class="node">
<title>Node3</title>
<g id="a_node3"><a xlink:href="namespacesrc_1_1utils.html#a328d6ccace46735185a4416efe0f8a1b" target="_top" xlink:title=" ">
<polygon fill="white" stroke="black" points="377,-0.5 377,-30.5 531,-30.5 531,-0.5 377,-0.5"/>
<text text-anchor="start" x="385" y="-18.5" font-family="Helvetica,sans-Serif" font-size="10.00">src.utils.handle_warning</text>
<text text-anchor="middle" x="454" y="-7.5" font-family="Helvetica,sans-Serif" font-size="10.00">_about_unexpected_exceptions</text>
</a>
</g>
</g>
<!-- Node2&#45;&gt;Node3 -->
<g id="edge2" class="edge">
<title>Node2&#45;&gt;Node3</title>
<path fill="none" stroke="midnightblue" d="M341.34,-15.5C349.49,-15.5 358.1,-15.5 366.77,-15.5"/>
<polygon fill="midnightblue" stroke="midnightblue" points="366.95,-19 376.95,-15.5 366.95,-12 366.95,-19"/>
</g>
</g>
</svg>
