<?xml version="1.0" encoding="UTF-8" standalone="no"?>
<!DOCTYPE svg PUBLIC "-//W3C//DTD SVG 1.1//EN"
 "http://www.w3.org/Graphics/SVG/1.1/DTD/svg11.dtd">
<!-- Generated by graphviz version 2.47.1 (20210417.1919)
 -->
<!-- Title: src.eralchemy.parser.line_iterator_to_intermediary Pages: 1 -->
<svg width="801pt" height="142pt"
 viewBox="0.00 0.00 801.00 142.00" xmlns="http://www.w3.org/2000/svg" xmlns:xlink="http://www.w3.org/1999/xlink">
<g id="graph0" class="graph" transform="scale(1 1) rotate(0) translate(4 138)">
<title>src.eralchemy.parser.line_iterator_to_intermediary</title>
<polygon fill="white" stroke="transparent" points="-4,4 -4,-138 797,-138 797,4 -4,4"/>
<!-- Node1 -->
<g id="node1" class="node">
<title>Node1</title>
<g id="a_node1"><a xlink:title=" ">
<polygon fill="#bfbfbf" stroke="black" points="0,-76.5 0,-95.5 233,-95.5 233,-76.5 0,-76.5"/>
<text text-anchor="middle" x="116.5" y="-83.5" font-family="Helvetica,sans-Serif" font-size="10.00">src.eralchemy.parser.line_iterator_to_intermediary</text>
</a>
</g>
</g>
<!-- Node2 -->
<g id="node2" class="node">
<title>Node2</title>
<g id="a_node2"><a xlink:href="namespacesrc_1_1eralchemy_1_1parser.html#af2c09125da4fddcf62bd70475bd1c156" target="_top" xlink:title=" ">
<polygon fill="white" stroke="black" points="269,-95.5 269,-114.5 506,-114.5 506,-95.5 269,-95.5"/>
<text text-anchor="middle" x="387.5" y="-102.5" font-family="Helvetica,sans-Serif" font-size="10.00">src.eralchemy.parser.remove_comments_from_line</text>
</a>
</g>
</g>
<!-- Node1&#45;&gt;Node2 -->
<g id="edge1" class="edge">
<title>Node1&#45;&gt;Node2</title>
<path fill="none" stroke="midnightblue" d="M233.14,-94.17C241.64,-94.77 250.23,-95.38 258.79,-95.98"/>
<polygon fill="midnightblue" stroke="midnightblue" points="258.6,-99.47 268.82,-96.69 259.09,-92.49 258.6,-99.47"/>
</g>
<!-- Node3 -->
<g id="node3" class="node">
<title>Node3</title>
<g id="a_node3"><a xlink:href="namespacesrc_1_1eralchemy_1_1parser.html#aaa8d12965e24d3a437fe9605475f9ec1" target="_top" xlink:title=" ">
<polygon fill="white" stroke="black" points="299,-57.5 299,-76.5 476,-76.5 476,-57.5 299,-57.5"/>
<text text-anchor="middle" x="387.5" y="-64.5" font-family="Helvetica,sans-Serif" font-size="10.00">src.eralchemy.parser.update_models</text>
</a>
</g>
</g>
<!-- Node1&#45;&gt;Node3 -->
<g id="edge2" class="edge">
<title>Node1&#45;&gt;Node3</title>
<path fill="none" stroke="midnightblue" d="M233.14,-77.83C251.68,-76.52 270.7,-75.18 288.77,-73.9"/>
<polygon fill="midnightblue" stroke="midnightblue" points="289.26,-77.38 298.99,-73.18 288.77,-70.39 289.26,-77.38"/>
</g>
<!-- Node4 -->
<g id="node4" class="node">
<title>Node4</title>
<g id="a_node4"><a xlink:href="namespacesrc_1_1eralchemy_1_1parser.html#a4074827fe7dbe79bd52ab7fce3fec3ff" target="_top" xlink:title=" ">
<polygon fill="white" stroke="black" points="561,-114.5 561,-133.5 774,-133.5 774,-114.5 561,-114.5"/>
<text text-anchor="middle" x="667.5" y="-121.5" font-family="Helvetica,sans-Serif" font-size="10.00">src.eralchemy.parser._check_colname_in_lst</text>
</a>
</g>
</g>
<!-- Node3&#45;&gt;Node4 -->
<g id="edge3" class="edge">
<title>Node3&#45;&gt;Node4</title>
<path fill="none" stroke="midnightblue" d="M469.3,-76.5C481.75,-78.98 494.34,-82.1 506,-86 523.16,-91.74 524.82,-99.33 542,-105 550.69,-107.87 559.87,-110.3 569.14,-112.37"/>
<polygon fill="midnightblue" stroke="midnightblue" points="568.72,-115.86 579.22,-114.48 570.15,-109.01 568.72,-115.86"/>
</g>
<!-- Node5 -->
<g id="node5" class="node">
<title>Node5</title>
<g id="a_node5"><a xlink:href="namespacesrc_1_1eralchemy_1_1parser.html#aa39338fd82cbc77e7aa9d11241375d3f" target="_top" xlink:title=" ">
<polygon fill="white" stroke="black" points="557.5,-76.5 557.5,-95.5 777.5,-95.5 777.5,-76.5 557.5,-76.5"/>
<text text-anchor="middle" x="667.5" y="-83.5" font-family="Helvetica,sans-Serif" font-size="10.00">src.eralchemy.parser._check_no_current_table</text>
</a>
</g>
</g>
<!-- Node3&#45;&gt;Node5 -->
<g id="edge4" class="edge">
<title>Node3&#45;&gt;Node5</title>
<path fill="none" stroke="midnightblue" d="M476.08,-72.99C498.64,-74.53 523.3,-76.21 547.18,-77.84"/>
<polygon fill="midnightblue" stroke="midnightblue" points="547.14,-81.35 557.35,-78.54 547.61,-74.37 547.14,-81.35"/>
</g>
<!-- Node6 -->
<g id="node6" class="node">
<title>Node6</title>
<g id="a_node6"><a xlink:href="namespacesrc_1_1eralchemy_1_1parser.html#a6ee33be1040bdc3f9d17e30a8667a6bf" target="_top" xlink:title=" ">
<polygon fill="white" stroke="black" points="542,-38.5 542,-57.5 793,-57.5 793,-38.5 542,-38.5"/>
<text text-anchor="middle" x="667.5" y="-45.5" font-family="Helvetica,sans-Serif" font-size="10.00">src.eralchemy.parser._check_not_creating_duplicates</text>
</a>
</g>
</g>
<!-- Node3&#45;&gt;Node6 -->
<g id="edge5" class="edge">
<title>Node3&#45;&gt;Node6</title>
<path fill="none" stroke="midnightblue" d="M476.08,-61.01C493.82,-59.8 512.86,-58.5 531.8,-57.21"/>
<polygon fill="midnightblue" stroke="midnightblue" points="532.25,-60.68 541.99,-56.51 531.77,-53.7 532.25,-60.68"/>
</g>
<!-- Node7 -->
<g id="node7" class="node">
<title>Node7</title>
<g id="a_node7"><a xlink:href="namespacesrc_1_1eralchemy_1_1parser.html#a865f8f738e78ee150ed201fe3f13f066" target="_top" xlink:title=" ">
<polygon fill="white" stroke="black" points="563,-0.5 563,-19.5 772,-19.5 772,-0.5 563,-0.5"/>
<text text-anchor="middle" x="667.5" y="-7.5" font-family="Helvetica,sans-Serif" font-size="10.00">src.eralchemy.parser._update_check_inputs</text>
</a>
</g>
</g>
<!-- Node3&#45;&gt;Node7 -->
<g id="edge6" class="edge">
<title>Node3&#45;&gt;Node7</title>
<path fill="none" stroke="midnightblue" d="M423.05,-57.49C454.02,-49.19 500.81,-37.22 542,-29 556.29,-26.15 571.57,-23.49 586.36,-21.13"/>
<polygon fill="midnightblue" stroke="midnightblue" points="587.17,-24.54 596.51,-19.54 586.08,-17.63 587.17,-24.54"/>
</g>
</g>
</svg>
