<?xml version="1.0" encoding="UTF-8" standalone="no"?>
<!DOCTYPE svg PUBLIC "-//W3C//DTD SVG 1.1//EN"
 "http://www.w3.org/Graphics/SVG/1.1/DTD/svg11.dtd">
<!-- Generated by graphviz version 2.47.1 (20210417.1919)
 -->
<!-- Title: src.eralchemy.main.render_er Pages: 1 -->
<svg width="445pt" height="66pt"
 viewBox="0.00 0.00 445.00 66.00" xmlns="http://www.w3.org/2000/svg" xmlns:xlink="http://www.w3.org/1999/xlink">
<g id="graph0" class="graph" transform="scale(1 1) rotate(0) translate(4 62)">
<title>src.eralchemy.main.render_er</title>
<polygon fill="white" stroke="transparent" points="-4,4 -4,-62 441,-62 441,4 -4,4"/>
<!-- Node1 -->
<g id="node1" class="node">
<title>Node1</title>
<g id="a_node1"><a xlink:title=" ">
<polygon fill="#bfbfbf" stroke="black" points="291,-38.5 291,-57.5 437,-57.5 437,-38.5 291,-38.5"/>
<text text-anchor="middle" x="364" y="-45.5" font-family="Helvetica,sans-Serif" font-size="10.00">src.eralchemy.main.render_er</text>
</a>
</g>
</g>
<!-- Node2 -->
<g id="node2" class="node">
<title>Node2</title>
<g id="a_node2"><a xlink:href="namespacesrc_1_1eralchemy_1_1main.html#afd606a75c08edb3181030c5b1ce3b5aa" target="_top" xlink:title=" ">
<polygon fill="white" stroke="black" points="70,-38.5 70,-57.5 185,-57.5 185,-38.5 70,-38.5"/>
<text text-anchor="middle" x="127.5" y="-45.5" font-family="Helvetica,sans-Serif" font-size="10.00">src.eralchemy.main.cli</text>
</a>
</g>
</g>
<!-- Node1&#45;&gt;Node2 -->
<g id="edge1" class="edge">
<title>Node1&#45;&gt;Node2</title>
<path fill="none" stroke="midnightblue" d="M280.64,-41.52C249.11,-41.02 213.89,-41.22 185.28,-42.12"/>
<polygon fill="midnightblue" stroke="midnightblue" points="280.66,-45.02 290.73,-41.71 280.8,-38.03 280.66,-45.02"/>
</g>
<!-- Node3 -->
<g id="node3" class="node">
<title>Node3</title>
<g id="a_node3"><a xlink:href="namespacesrc_1_1db__tools_1_1database__consolidation.html#a7057f33c203cc4abd04492f89c632aa9" target="_top" xlink:title=" ">
<polygon fill="white" stroke="black" points="0,-0.5 0,-19.5 255,-19.5 255,-0.5 0,-0.5"/>
<text text-anchor="middle" x="127.5" y="-7.5" font-family="Helvetica,sans-Serif" font-size="10.00">src.db_tools.database_consolidation.doit_generate_erd</text>
</a>
</g>
</g>
<!-- Node1&#45;&gt;Node3 -->
<g id="edge3" class="edge">
<title>Node1&#45;&gt;Node3</title>
<path fill="none" stroke="midnightblue" d="M300.23,-36.68C285.41,-34.09 269.66,-31.39 255,-29 235.16,-25.77 213.54,-22.44 193.88,-19.5"/>
<polygon fill="midnightblue" stroke="midnightblue" points="299.86,-40.17 310.31,-38.46 301.07,-33.28 299.86,-40.17"/>
</g>
<!-- Node2&#45;&gt;Node1 -->
<g id="edge2" class="edge">
<title>Node2&#45;&gt;Node1</title>
<path fill="none" stroke="midnightblue" d="M195.57,-54.17C225.32,-54.9 260.39,-54.94 290.73,-54.29"/>
<polygon fill="midnightblue" stroke="midnightblue" points="195.37,-50.66 185.28,-53.88 195.18,-57.66 195.37,-50.66"/>
</g>
</g>
</svg>
