<?xml version="1.0" encoding="UTF-8" standalone="no"?>
<!DOCTYPE svg PUBLIC "-//W3C//DTD SVG 1.1//EN"
 "http://www.w3.org/Graphics/SVG/1.1/DTD/svg11.dtd">
<!-- Generated by graphviz version 2.47.1 (20210417.1919)
 -->
<!-- Title: src.eralchemy.sqla.relation_to_intermediary Pages: 1 -->
<svg width="1211pt" height="83pt"
 viewBox="0.00 0.00 1211.00 83.00" xmlns="http://www.w3.org/2000/svg" xmlns:xlink="http://www.w3.org/1999/xlink">
<g id="graph0" class="graph" transform="scale(1 1) rotate(0) translate(4 79)">
<title>src.eralchemy.sqla.relation_to_intermediary</title>
<polygon fill="white" stroke="transparent" points="-4,4 -4,-79 1207,-79 1207,4 -4,4"/>
<!-- Node1 -->
<g id="node1" class="node">
<title>Node1</title>
<g id="a_node1"><a xlink:title=" ">
<polygon fill="#bfbfbf" stroke="black" points="1069,-44.5 1069,-74.5 1203,-74.5 1203,-44.5 1069,-44.5"/>
<text text-anchor="start" x="1077" y="-62.5" font-family="Helvetica,sans-Serif" font-size="10.00">src.eralchemy.sqla.relation</text>
<text text-anchor="middle" x="1136" y="-51.5" font-family="Helvetica,sans-Serif" font-size="10.00">_to_intermediary</text>
</a>
</g>
</g>
<!-- Node2 -->
<g id="node2" class="node">
<title>Node2</title>
<g id="a_node2"><a xlink:href="namespacesrc_1_1eralchemy_1_1sqla.html#a8c80e60516d371d4404a1040516f88ea" target="_top" xlink:title=" ">
<polygon fill="white" stroke="black" points="890,-44.5 890,-74.5 1033,-74.5 1033,-44.5 890,-44.5"/>
<text text-anchor="start" x="898" y="-62.5" font-family="Helvetica,sans-Serif" font-size="10.00">src.eralchemy.sqla.metadata</text>
<text text-anchor="middle" x="961.5" y="-51.5" font-family="Helvetica,sans-Serif" font-size="10.00">_to_intermediary</text>
</a>
</g>
</g>
<!-- Node1&#45;&gt;Node2 -->
<g id="edge1" class="edge">
<title>Node1&#45;&gt;Node2</title>
<path fill="none" stroke="midnightblue" d="M1058.56,-59.5C1050.09,-59.5 1041.5,-59.5 1033.11,-59.5"/>
<polygon fill="midnightblue" stroke="midnightblue" points="1058.8,-63 1068.8,-59.5 1058.8,-56 1058.8,-63"/>
</g>
<!-- Node3 -->
<g id="node3" class="node">
<title>Node3</title>
<g id="a_node3"><a xlink:href="namespacesrc_1_1eralchemy_1_1sqla.html#a08828ed118d96f46452d9c55a5080c78" target="_top" xlink:title=" ">
<polygon fill="white" stroke="black" points="706,-44.5 706,-74.5 854,-74.5 854,-44.5 706,-44.5"/>
<text text-anchor="start" x="714" y="-62.5" font-family="Helvetica,sans-Serif" font-size="10.00">src.eralchemy.sqla.declarative</text>
<text text-anchor="middle" x="780" y="-51.5" font-family="Helvetica,sans-Serif" font-size="10.00">_to_intermediary</text>
</a>
</g>
</g>
<!-- Node2&#45;&gt;Node3 -->
<g id="edge2" class="edge">
<title>Node2&#45;&gt;Node3</title>
<path fill="none" stroke="midnightblue" d="M879.6,-59.5C871.16,-59.5 862.62,-59.5 854.28,-59.5"/>
<polygon fill="midnightblue" stroke="midnightblue" points="879.81,-63 889.81,-59.5 879.81,-56 879.81,-63"/>
</g>
<!-- Node4 -->
<g id="node4" class="node">
<title>Node4</title>
<g id="a_node4"><a xlink:href="namespacesrc_1_1eralchemy_1_1sqla.html#a45674eee4c7ce1d82b7f99a285958c1d" target="_top" xlink:title=" ">
<polygon fill="white" stroke="black" points="528,-44.5 528,-74.5 670,-74.5 670,-44.5 528,-44.5"/>
<text text-anchor="start" x="536" y="-62.5" font-family="Helvetica,sans-Serif" font-size="10.00">src.eralchemy.sqla.database</text>
<text text-anchor="middle" x="599" y="-51.5" font-family="Helvetica,sans-Serif" font-size="10.00">_to_intermediary</text>
</a>
</g>
</g>
<!-- Node3&#45;&gt;Node4 -->
<g id="edge3" class="edge">
<title>Node3&#45;&gt;Node4</title>
<path fill="none" stroke="midnightblue" d="M695.91,-59.5C687.32,-59.5 678.66,-59.5 670.23,-59.5"/>
<polygon fill="midnightblue" stroke="midnightblue" points="695.94,-63 705.94,-59.5 695.94,-56 695.94,-63"/>
</g>
<!-- Node5 -->
<g id="node5" class="node">
<title>Node5</title>
<g id="a_node5"><a xlink:href="namespacesrc_1_1eralchemy_1_1main.html#a9fac164b40f74cd204823413bbc5c01d" target="_top" xlink:title=" ">
<polygon fill="white" stroke="black" points="377,-44.5 377,-74.5 492,-74.5 492,-44.5 377,-44.5"/>
<text text-anchor="start" x="385" y="-62.5" font-family="Helvetica,sans-Serif" font-size="10.00">src.eralchemy.main.all</text>
<text text-anchor="middle" x="434.5" y="-51.5" font-family="Helvetica,sans-Serif" font-size="10.00">_to_intermediary</text>
</a>
</g>
</g>
<!-- Node4&#45;&gt;Node5 -->
<g id="edge4" class="edge">
<title>Node4&#45;&gt;Node5</title>
<path fill="none" stroke="midnightblue" d="M517.63,-59.5C509.05,-59.5 500.46,-59.5 492.24,-59.5"/>
<polygon fill="midnightblue" stroke="midnightblue" points="517.67,-63 527.67,-59.5 517.67,-56 517.67,-63"/>
</g>
<!-- Node6 -->
<g id="node6" class="node">
<title>Node6</title>
<g id="a_node6"><a xlink:href="namespacesrc_1_1eralchemy_1_1main.html#a5387e0a7c14b44fd86de8ede390bed04" target="_top" xlink:title=" ">
<polygon fill="white" stroke="black" points="195,-50 195,-69 341,-69 341,-50 195,-50"/>
<text text-anchor="middle" x="268" y="-57" font-family="Helvetica,sans-Serif" font-size="10.00">src.eralchemy.main.render_er</text>
</a>
</g>
</g>
<!-- Node5&#45;&gt;Node6 -->
<g id="edge5" class="edge">
<title>Node5&#45;&gt;Node6</title>
<path fill="none" stroke="midnightblue" d="M366.73,-59.5C358.29,-59.5 349.63,-59.5 341.11,-59.5"/>
<polygon fill="midnightblue" stroke="midnightblue" points="366.89,-63 376.89,-59.5 366.89,-56 366.89,-63"/>
</g>
<!-- Node7 -->
<g id="node7" class="node">
<title>Node7</title>
<g id="a_node7"><a xlink:href="namespacesrc_1_1eralchemy_1_1main.html#afd606a75c08edb3181030c5b1ce3b5aa" target="_top" xlink:title=" ">
<polygon fill="white" stroke="black" points="22,-50 22,-69 137,-69 137,-50 22,-50"/>
<text text-anchor="middle" x="79.5" y="-57" font-family="Helvetica,sans-Serif" font-size="10.00">src.eralchemy.main.cli</text>
</a>
</g>
</g>
<!-- Node6&#45;&gt;Node7 -->
<g id="edge6" class="edge">
<title>Node6&#45;&gt;Node7</title>
<path fill="none" stroke="midnightblue" d="M184.46,-52.79C168.46,-52.67 152.03,-52.82 137.09,-53.24"/>
<polygon fill="midnightblue" stroke="midnightblue" points="184.86,-56.29 194.89,-52.91 184.93,-49.29 184.86,-56.29"/>
</g>
<!-- Node8 -->
<g id="node8" class="node">
<title>Node8</title>
<g id="a_node8"><a xlink:href="namespacesrc_1_1db__tools_1_1database__consolidation.html#a7057f33c203cc4abd04492f89c632aa9" target="_top" xlink:title=" ">
<polygon fill="white" stroke="black" points="0,-0.5 0,-30.5 159,-30.5 159,-0.5 0,-0.5"/>
<text text-anchor="start" x="8" y="-18.5" font-family="Helvetica,sans-Serif" font-size="10.00">src.db_tools.database</text>
<text text-anchor="middle" x="79.5" y="-7.5" font-family="Helvetica,sans-Serif" font-size="10.00">_consolidation.doit_generate_erd</text>
</a>
</g>
</g>
<!-- Node6&#45;&gt;Node8 -->
<g id="edge8" class="edge">
<title>Node6&#45;&gt;Node8</title>
<path fill="none" stroke="midnightblue" d="M216.63,-47.62C194.38,-42.37 167.97,-36.14 144.36,-30.57"/>
<polygon fill="midnightblue" stroke="midnightblue" points="216,-51.06 226.53,-49.95 217.6,-44.25 216,-51.06"/>
</g>
<!-- Node7&#45;&gt;Node6 -->
<g id="edge7" class="edge">
<title>Node7&#45;&gt;Node6</title>
<path fill="none" stroke="midnightblue" d="M147.1,-66C162.6,-66.3 179.17,-66.33 194.89,-66.09"/>
<polygon fill="midnightblue" stroke="midnightblue" points="147.17,-62.5 137.09,-65.76 147.01,-69.5 147.17,-62.5"/>
</g>
</g>
</svg>
