<?xml version="1.0" encoding="UTF-8" standalone="no"?>
<!DOCTYPE svg PUBLIC "-//W3C//DTD SVG 1.1//EN"
 "http://www.w3.org/Graphics/SVG/1.1/DTD/svg11.dtd">
<!-- Generated by graphviz version 2.47.1 (20210417.1919)
 -->
<!-- Title: src.eralchemy.main.cli Pages: 1 -->
<!--zoomable 308 -->
<svg id="main" version="1.1" xmlns="http://www.w3.org/2000/svg" xmlns:xlink="http://www.w3.org/1999/xlink" xml:space="preserve" onload="init(evt)">
<style type="text/css"><![CDATA[
.edge:hover path { stroke: red; }
.edge:hover polygon { stroke: red; fill: red; }
]]></style>
<script type="text/javascript"><![CDATA[
var edges = document.getElementsByTagName('g');
if (edges && edges.length) {
  for (var i=0;i<edges.length;i++) {
    if (edges[i].id.substr(0,4)=='edge') {
      edges[i].setAttribute('class','edge');
    }
  }
}
]]></script>
        <defs>
                <circle id="rim" cx="0" cy="0" r="7"/>
                <circle id="rim2" cx="0" cy="0" r="3.5"/>
                <g id="zoomPlus">
                        <use xlink:href="#rim" fill="#404040">
                                <set attributeName="fill" to="#808080" begin="zoomplus.mouseover" end="zoomplus.mouseout"/>
                        </use>
                        <path d="M-4,0h8M0,-4v8" fill="none" stroke="white" stroke-width="1.5" pointer-events="none"/>
                </g>
                <g id="zoomMin">
                        <use xlink:href="#rim" fill="#404040">
                                <set attributeName="fill" to="#808080" begin="zoomminus.mouseover" end="zoomminus.mouseout"/>
                        </use>
                        <path d="M-4,0h8" fill="none" stroke="white" stroke-width="1.5" pointer-events="none"/>
                </g>
                <g id="dirArrow">
                        <path fill="none" stroke="white" stroke-width="1.5" d="M0,-3.0v7 M-2.5,-0.5L0,-3.0L2.5,-0.5"/>
                </g>
               <g id="resetDef">
                       <use xlink:href="#rim2" fill="#404040">
                               <set attributeName="fill" to="#808080" begin="reset.mouseover" end="reset.mouseout"/>
                       </use>
               </g>
        </defs>

<script type="text/javascript">
var viewWidth = 1404;
var viewHeight = 308;
var sectionId = 'dynsection-4';
</script>
<script xlink:href="svgpan.js"/>
<svg id="graph" class="graph">
<g id="viewport">
<title>src.eralchemy.main.cli</title>
<polygon fill="white" stroke="transparent" points="-4,4 -4,-303.5 1400,-303.5 1400,4 -4,4"/>
<!-- Node1 -->
<g id="node1" class="node">
<title>Node1</title>
<g id="a_node1"><a xlink:title=" ">
<polygon fill="#bfbfbf" stroke="black" points="0,-141 0,-160 115,-160 115,-141 0,-141"/>
<text text-anchor="middle" x="57.5" y="-148" font-family="Helvetica,sans-Serif" font-size="10.00">src.eralchemy.main.cli</text>
</a>
</g>
</g>
<!-- Node2 -->
<g id="node2" class="node">
<title>Node2</title>
<g id="a_node2"><a xlink:href="namespacesrc_1_1body__extraction_1_1cli__entry.html#aecd587b23033196155b2e453464a7293" target="_top" xlink:title=" ">
<polygon fill="white" stroke="black" points="166.5,-208.5 166.5,-238.5 281.5,-238.5 281.5,-208.5 166.5,-208.5"/>
<text text-anchor="start" x="174.5" y="-226.5" font-family="Helvetica,sans-Serif" font-size="10.00">src.body_extraction.cli</text>
<text text-anchor="middle" x="224" y="-215.5" font-family="Helvetica,sans-Serif" font-size="10.00">_entry.check_args</text>
</a>
</g>
</g>
<!-- Node1&#45;&gt;Node2 -->
<g id="edge1" class="edge">
<title>Node1&#45;&gt;Node2</title>
<path fill="none" stroke="midnightblue" d="M76.32,-160.05C94.76,-169.76 124.52,-184.99 151,-196.5 157.33,-199.25 164.05,-202 170.73,-204.62"/>
<polygon fill="midnightblue" stroke="midnightblue" points="169.86,-208.04 180.45,-208.37 172.38,-201.51 169.86,-208.04"/>
</g>
<!-- Node6 -->
<g id="node6" class="node">
<title>Node6</title>
<g id="a_node6"><a xlink:href="namespacesrc_1_1eralchemy_1_1main.html#a921a1f50101a96f712c68b47137e85f3" target="_top" xlink:title=" ">
<polygon fill="white" stroke="black" points="164.5,-157.5 164.5,-187.5 283.5,-187.5 283.5,-157.5 164.5,-157.5"/>
<text text-anchor="start" x="172.5" y="-175.5" font-family="Helvetica,sans-Serif" font-size="10.00">src.eralchemy.main.get</text>
<text text-anchor="middle" x="224" y="-164.5" font-family="Helvetica,sans-Serif" font-size="10.00">_argparser</text>
</a>
</g>
</g>
<!-- Node1&#45;&gt;Node6 -->
<g id="edge5" class="edge">
<title>Node1&#45;&gt;Node6</title>
<path fill="none" stroke="midnightblue" d="M115.11,-158.07C127.65,-159.75 141.08,-161.54 154.05,-163.28"/>
<polygon fill="midnightblue" stroke="midnightblue" points="153.95,-166.8 164.32,-164.65 154.88,-159.86 153.95,-166.8"/>
</g>
<!-- Node7 -->
<g id="node7" class="node">
<title>Node7</title>
<g id="a_node7"><a xlink:href="namespacesrc_1_1eralchemy_1_1main.html#a5387e0a7c14b44fd86de8ede390bed04" target="_top" xlink:title=" ">
<polygon fill="white" stroke="black" points="151,-119 151,-138 297,-138 297,-119 151,-119"/>
<text text-anchor="middle" x="224" y="-126" font-family="Helvetica,sans-Serif" font-size="10.00">src.eralchemy.main.render_er</text>
</a>
</g>
</g>
<!-- Node1&#45;&gt;Node7 -->
<g id="edge6" class="edge">
<title>Node1&#45;&gt;Node7</title>
<path fill="none" stroke="midnightblue" d="M89.44,-140.95C104.13,-138.09 122.44,-135.2 140.76,-132.75"/>
<polygon fill="midnightblue" stroke="midnightblue" points="141.44,-136.19 150.91,-131.44 140.55,-129.25 141.44,-136.19"/>
</g>
<!-- Node3 -->
<g id="node3" class="node">
<title>Node3</title>
<g id="a_node3"><a xlink:href="namespacesrc_1_1body__extraction_1_1cli__entry.html#a74f24adbe2969f94f9d747c25a387dc9" target="_top" xlink:title=" ">
<polygon fill="white" stroke="black" points="335.5,-258 335.5,-299 453.5,-299 453.5,-258 335.5,-258"/>
<text text-anchor="start" x="343.5" y="-287" font-family="Helvetica,sans-Serif" font-size="10.00">src.body_extraction.cli</text>
<text text-anchor="start" x="343.5" y="-276" font-family="Helvetica,sans-Serif" font-size="10.00">_entry.check_args_has</text>
<text text-anchor="middle" x="394.5" y="-265" font-family="Helvetica,sans-Serif" font-size="10.00">_attributes</text>
</a>
</g>
</g>
<!-- Node2&#45;&gt;Node3 -->
<g id="edge2" class="edge">
<title>Node2&#45;&gt;Node3</title>
<path fill="none" stroke="midnightblue" d="M271.04,-238.53C287.97,-244.05 307.51,-250.43 325.94,-256.45"/>
<polygon fill="midnightblue" stroke="midnightblue" points="324.86,-259.78 335.45,-259.55 327.03,-253.12 324.86,-259.78"/>
</g>
<!-- Node5 -->
<g id="node5" class="node">
<title>Node5</title>
<g id="a_node5"><a xlink:href="namespacesrc_1_1body__extraction_1_1cli__entry.html#aa7b20ee466231a9108c67f1056536884" target="_top" xlink:title=" ">
<polygon fill="white" stroke="black" points="337,-208.5 337,-238.5 452,-238.5 452,-208.5 337,-208.5"/>
<text text-anchor="start" x="345" y="-226.5" font-family="Helvetica,sans-Serif" font-size="10.00">src.body_extraction.cli</text>
<text text-anchor="middle" x="394.5" y="-215.5" font-family="Helvetica,sans-Serif" font-size="10.00">_entry.fail</text>
</a>
</g>
</g>
<!-- Node2&#45;&gt;Node5 -->
<g id="edge4" class="edge">
<title>Node2&#45;&gt;Node5</title>
<path fill="none" stroke="midnightblue" d="M281.58,-223.5C296.03,-223.5 311.7,-223.5 326.61,-223.5"/>
<polygon fill="midnightblue" stroke="midnightblue" points="326.79,-227 336.79,-223.5 326.79,-220 326.79,-227"/>
</g>
<!-- Node4 -->
<g id="node4" class="node">
<title>Node4</title>
<g id="a_node4"><a xlink:href="namespacesrc_1_1body__extraction_1_1cli__entry.html#ac54ec360f3fdef09b455b7f140ca435b" target="_top" xlink:title=" ">
<polygon fill="white" stroke="black" points="510.5,-258 510.5,-299 628.5,-299 628.5,-258 510.5,-258"/>
<text text-anchor="start" x="518.5" y="-287" font-family="Helvetica,sans-Serif" font-size="10.00">src.body_extraction.cli</text>
<text text-anchor="start" x="518.5" y="-276" font-family="Helvetica,sans-Serif" font-size="10.00">_entry.check_args_has</text>
<text text-anchor="middle" x="569.5" y="-265" font-family="Helvetica,sans-Serif" font-size="10.00">_attribute</text>
</a>
</g>
</g>
<!-- Node3&#45;&gt;Node4 -->
<g id="edge3" class="edge">
<title>Node3&#45;&gt;Node4</title>
<path fill="none" stroke="midnightblue" d="M453.59,-278.5C468.56,-278.5 484.82,-278.5 500.26,-278.5"/>
<polygon fill="midnightblue" stroke="midnightblue" points="500.27,-282 510.27,-278.5 500.27,-275 500.27,-282"/>
</g>
<!-- Node7&#45;&gt;Node1 -->
<g id="edge24" class="edge">
<title>Node7&#45;&gt;Node1</title>
<path fill="none" stroke="midnightblue" d="M192.18,-138.03C173.33,-141.7 148.44,-145.44 125.26,-148.21"/>
<polygon fill="midnightblue" stroke="midnightblue" points="124.65,-144.76 115.11,-149.38 125.45,-151.72 124.65,-144.76"/>
</g>
<!-- Node8 -->
<g id="node8" class="node">
<title>Node8</title>
<g id="a_node8"><a xlink:href="namespacesrc_1_1eralchemy_1_1main.html#a9fac164b40f74cd204823413bbc5c01d" target="_top" xlink:title=" ">
<polygon fill="white" stroke="black" points="337,-159.5 337,-189.5 452,-189.5 452,-159.5 337,-159.5"/>
<text text-anchor="start" x="345" y="-177.5" font-family="Helvetica,sans-Serif" font-size="10.00">src.eralchemy.main.all</text>
<text text-anchor="middle" x="394.5" y="-166.5" font-family="Helvetica,sans-Serif" font-size="10.00">_to_intermediary</text>
</a>
</g>
</g>
<!-- Node7&#45;&gt;Node8 -->
<g id="edge7" class="edge">
<title>Node7&#45;&gt;Node8</title>
<path fill="none" stroke="midnightblue" d="M261.66,-138.06C273,-141.05 285.52,-144.38 297,-147.5 307.84,-150.45 319.35,-153.63 330.51,-156.73"/>
<polygon fill="midnightblue" stroke="midnightblue" points="329.62,-160.12 340.2,-159.43 331.5,-153.37 329.62,-160.12"/>
</g>
<!-- Node24 -->
<g id="node24" class="node">
<title>Node24</title>
<g id="a_node24"><a xlink:href="namespacesrc_1_1eralchemy_1_1main.html#a6718b3d4e1e90e2f41ba8ca2cf54393e" target="_top" xlink:title=" ">
<polygon fill="white" stroke="black" points="333,-110.5 333,-140.5 456,-140.5 456,-110.5 333,-110.5"/>
<text text-anchor="start" x="341" y="-128.5" font-family="Helvetica,sans-Serif" font-size="10.00">src.eralchemy.main.filter</text>
<text text-anchor="middle" x="394.5" y="-117.5" font-family="Helvetica,sans-Serif" font-size="10.00">_resources</text>
</a>
</g>
</g>
<!-- Node7&#45;&gt;Node24 -->
<g id="edge25" class="edge">
<title>Node7&#45;&gt;Node24</title>
<path fill="none" stroke="midnightblue" d="M297.44,-127.21C305.81,-127.06 314.34,-126.91 322.69,-126.76"/>
<polygon fill="midnightblue" stroke="midnightblue" points="322.82,-130.26 332.76,-126.58 322.7,-123.26 322.82,-130.26"/>
</g>
<!-- Node25 -->
<g id="node25" class="node">
<title>Node25</title>
<g id="a_node25"><a xlink:href="namespacesrc_1_1eralchemy_1_1main.html#ac3f7087a073800cd04d6ceb584721e06" target="_top" xlink:title=" ">
<polygon fill="white" stroke="black" points="335,-61.5 335,-91.5 454,-91.5 454,-61.5 335,-61.5"/>
<text text-anchor="start" x="343" y="-79.5" font-family="Helvetica,sans-Serif" font-size="10.00">src.eralchemy.main.get</text>
<text text-anchor="middle" x="394.5" y="-68.5" font-family="Helvetica,sans-Serif" font-size="10.00">_output_mode</text>
</a>
</g>
</g>
<!-- Node7&#45;&gt;Node25 -->
<g id="edge26" class="edge">
<title>Node7&#45;&gt;Node25</title>
<path fill="none" stroke="midnightblue" d="M255.91,-118.96C277.99,-112.15 308.38,-102.77 334.99,-94.56"/>
<polygon fill="midnightblue" stroke="midnightblue" points="336.07,-97.89 344.6,-91.59 334.01,-91.2 336.07,-97.89"/>
</g>
<!-- Node9 -->
<g id="node9" class="node">
<title>Node9</title>
<g id="a_node9"><a xlink:href="namespacesrc_1_1eralchemy_1_1sqla.html#a45674eee4c7ce1d82b7f99a285958c1d" target="_top" xlink:title=" ">
<polygon fill="white" stroke="black" points="498.5,-203.5 498.5,-233.5 640.5,-233.5 640.5,-203.5 498.5,-203.5"/>
<text text-anchor="start" x="506.5" y="-221.5" font-family="Helvetica,sans-Serif" font-size="10.00">src.eralchemy.sqla.database</text>
<text text-anchor="middle" x="569.5" y="-210.5" font-family="Helvetica,sans-Serif" font-size="10.00">_to_intermediary</text>
</a>
</g>
</g>
<!-- Node8&#45;&gt;Node9 -->
<g id="edge8" class="edge">
<title>Node8&#45;&gt;Node9</title>
<path fill="none" stroke="midnightblue" d="M452.15,-188.91C467.18,-192.73 483.59,-196.9 499.22,-200.88"/>
<polygon fill="midnightblue" stroke="midnightblue" points="498.79,-204.38 509.35,-203.46 500.52,-197.6 498.79,-204.38"/>
</g>
<!-- Node16 -->
<g id="node16" class="node">
<title>Node16</title>
<g id="a_node16"><a xlink:href="namespacesrc_1_1eralchemy_1_1parser.html#ae896c00e0ce3280fd4a5f84bb3b13da5" target="_top" xlink:title=" ">
<polygon fill="white" stroke="black" points="694,-134.5 694,-164.5 820,-164.5 820,-134.5 694,-134.5"/>
<text text-anchor="start" x="702" y="-152.5" font-family="Helvetica,sans-Serif" font-size="10.00">src.eralchemy.parser.line</text>
<text text-anchor="middle" x="757" y="-141.5" font-family="Helvetica,sans-Serif" font-size="10.00">_iterator_to_intermediary</text>
</a>
</g>
</g>
<!-- Node8&#45;&gt;Node16 -->
<g id="edge15" class="edge">
<title>Node8&#45;&gt;Node16</title>
<path fill="none" stroke="midnightblue" d="M452.22,-170.57C514.75,-166.23 615.47,-159.25 683.63,-154.52"/>
<polygon fill="midnightblue" stroke="midnightblue" points="684.13,-157.99 693.86,-153.81 683.65,-151.01 684.13,-157.99"/>
</g>
<!-- Node23 -->
<g id="node23" class="node">
<title>Node23</title>
<g id="a_node23"><a xlink:href="namespacesrc_1_1eralchemy_1_1parser.html#a4ae9323517c46eeb4ed9d87588832be2" target="_top" xlink:title=" ">
<polygon fill="white" stroke="black" points="492,-115.5 492,-145.5 647,-145.5 647,-115.5 492,-115.5"/>
<text text-anchor="start" x="500" y="-133.5" font-family="Helvetica,sans-Serif" font-size="10.00">src.eralchemy.parser.markdown</text>
<text text-anchor="middle" x="569.5" y="-122.5" font-family="Helvetica,sans-Serif" font-size="10.00">_file_to_intermediary</text>
</a>
</g>
</g>
<!-- Node8&#45;&gt;Node23 -->
<g id="edge22" class="edge">
<title>Node8&#45;&gt;Node23</title>
<path fill="none" stroke="midnightblue" d="M452.15,-160.09C467.18,-156.27 483.59,-152.1 499.22,-148.12"/>
<polygon fill="midnightblue" stroke="midnightblue" points="500.52,-151.4 509.35,-145.54 498.79,-144.62 500.52,-151.4"/>
</g>
<!-- Node10 -->
<g id="node10" class="node">
<title>Node10</title>
<g id="a_node10"><a xlink:href="namespacesrc_1_1eralchemy_1_1sqla.html#a08828ed118d96f46452d9c55a5080c78" target="_top" xlink:title=" ">
<polygon fill="white" stroke="black" points="683,-203.5 683,-233.5 831,-233.5 831,-203.5 683,-203.5"/>
<text text-anchor="start" x="691" y="-221.5" font-family="Helvetica,sans-Serif" font-size="10.00">src.eralchemy.sqla.declarative</text>
<text text-anchor="middle" x="757" y="-210.5" font-family="Helvetica,sans-Serif" font-size="10.00">_to_intermediary</text>
</a>
</g>
</g>
<!-- Node9&#45;&gt;Node10 -->
<g id="edge9" class="edge">
<title>Node9&#45;&gt;Node10</title>
<path fill="none" stroke="midnightblue" d="M640.63,-218.5C651.13,-218.5 662.03,-218.5 672.77,-218.5"/>
<polygon fill="midnightblue" stroke="midnightblue" points="672.99,-222 682.99,-218.5 672.99,-215 672.99,-222"/>
</g>
<!-- Node11 -->
<g id="node11" class="node">
<title>Node11</title>
<g id="a_node11"><a xlink:href="namespacesrc_1_1eralchemy_1_1sqla.html#a8c80e60516d371d4404a1040516f88ea" target="_top" xlink:title=" ">
<polygon fill="white" stroke="black" points="867,-203.5 867,-233.5 1010,-233.5 1010,-203.5 867,-203.5"/>
<text text-anchor="start" x="875" y="-221.5" font-family="Helvetica,sans-Serif" font-size="10.00">src.eralchemy.sqla.metadata</text>
<text text-anchor="middle" x="938.5" y="-210.5" font-family="Helvetica,sans-Serif" font-size="10.00">_to_intermediary</text>
</a>
</g>
</g>
<!-- Node10&#45;&gt;Node11 -->
<g id="edge10" class="edge">
<title>Node10&#45;&gt;Node11</title>
<path fill="none" stroke="midnightblue" d="M831.01,-218.5C839.52,-218.5 848.24,-218.5 856.85,-218.5"/>
<polygon fill="midnightblue" stroke="midnightblue" points="856.88,-222 866.88,-218.5 856.88,-215 856.88,-222"/>
</g>
<!-- Node12 -->
<g id="node12" class="node">
<title>Node12</title>
<g id="a_node12"><a xlink:href="namespacesrc_1_1eralchemy_1_1sqla.html#aecf50970e801a99f0a0373b9bd5c2988" target="_top" xlink:title=" ">
<polygon fill="white" stroke="black" points="1057,-250.5 1057,-280.5 1191,-280.5 1191,-250.5 1057,-250.5"/>
<text text-anchor="start" x="1065" y="-268.5" font-family="Helvetica,sans-Serif" font-size="10.00">src.eralchemy.sqla.relation</text>
<text text-anchor="middle" x="1124" y="-257.5" font-family="Helvetica,sans-Serif" font-size="10.00">_to_intermediary</text>
</a>
</g>
</g>
<!-- Node11&#45;&gt;Node12 -->
<g id="edge11" class="edge">
<title>Node11&#45;&gt;Node12</title>
<path fill="none" stroke="midnightblue" d="M998.07,-233.5C1016.02,-238.1 1035.94,-243.2 1054.51,-247.96"/>
<polygon fill="midnightblue" stroke="midnightblue" points="1053.81,-251.39 1064.36,-250.48 1055.54,-244.61 1053.81,-251.39"/>
</g>
<!-- Node14 -->
<g id="node14" class="node">
<title>Node14</title>
<g id="a_node14"><a xlink:href="namespacesrc_1_1eralchemy_1_1sqla.html#ac1b6d81b9b494b0b3b9775947dbae11f" target="_top" xlink:title=" ">
<polygon fill="white" stroke="black" points="1062.5,-201.5 1062.5,-231.5 1185.5,-231.5 1185.5,-201.5 1062.5,-201.5"/>
<text text-anchor="start" x="1070.5" y="-219.5" font-family="Helvetica,sans-Serif" font-size="10.00">src.eralchemy.sqla.table</text>
<text text-anchor="middle" x="1124" y="-208.5" font-family="Helvetica,sans-Serif" font-size="10.00">_to_intermediary</text>
</a>
</g>
</g>
<!-- Node11&#45;&gt;Node14 -->
<g id="edge13" class="edge">
<title>Node11&#45;&gt;Node14</title>
<path fill="none" stroke="midnightblue" d="M1010.18,-217.73C1023.86,-217.58 1038.2,-217.42 1051.89,-217.28"/>
<polygon fill="midnightblue" stroke="midnightblue" points="1052.25,-220.77 1062.21,-217.16 1052.17,-213.77 1052.25,-220.77"/>
</g>
<!-- Node13 -->
<g id="node13" class="node">
<title>Node13</title>
<g id="a_node13"><a xlink:href="namespacesrc_1_1eralchemy_1_1sqla.html#a74f56fbe681e9a1b0d0c0b0832b91509" target="_top" xlink:title=" ">
<polygon fill="white" stroke="black" points="1238,-256 1238,-275 1396,-275 1396,-256 1238,-256"/>
<text text-anchor="middle" x="1317" y="-263" font-family="Helvetica,sans-Serif" font-size="10.00">src.eralchemy.sqla.format_name</text>
</a>
</g>
</g>
<!-- Node12&#45;&gt;Node13 -->
<g id="edge12" class="edge">
<title>Node12&#45;&gt;Node13</title>
<path fill="none" stroke="midnightblue" d="M1191.27,-265.5C1202.97,-265.5 1215.32,-265.5 1227.51,-265.5"/>
<polygon fill="midnightblue" stroke="midnightblue" points="1227.7,-269 1237.7,-265.5 1227.7,-262 1227.7,-269"/>
</g>
<!-- Node15 -->
<g id="node15" class="node">
<title>Node15</title>
<g id="a_node15"><a xlink:href="namespacesrc_1_1eralchemy_1_1sqla.html#a4ccd81ff2afbcbd286013a8e85f016fe" target="_top" xlink:title=" ">
<polygon fill="white" stroke="black" points="1250,-201.5 1250,-231.5 1384,-231.5 1384,-201.5 1250,-201.5"/>
<text text-anchor="start" x="1258" y="-219.5" font-family="Helvetica,sans-Serif" font-size="10.00">src.eralchemy.sqla.column</text>
<text text-anchor="middle" x="1317" y="-208.5" font-family="Helvetica,sans-Serif" font-size="10.00">_to_intermediary</text>
</a>
</g>
</g>
<!-- Node14&#45;&gt;Node15 -->
<g id="edge14" class="edge">
<title>Node14&#45;&gt;Node15</title>
<path fill="none" stroke="midnightblue" d="M1185.7,-216.5C1202.85,-216.5 1221.74,-216.5 1239.69,-216.5"/>
<polygon fill="midnightblue" stroke="midnightblue" points="1239.84,-220 1249.84,-216.5 1239.84,-213 1239.84,-220"/>
</g>
<!-- Node17 -->
<g id="node17" class="node">
<title>Node17</title>
<g id="a_node17"><a xlink:href="namespacesrc_1_1eralchemy_1_1parser.html#af2c09125da4fddcf62bd70475bd1c156" target="_top" xlink:title=" ">
<polygon fill="white" stroke="black" points="867.5,-137.5 867.5,-167.5 1009.5,-167.5 1009.5,-137.5 867.5,-137.5"/>
<text text-anchor="start" x="875.5" y="-155.5" font-family="Helvetica,sans-Serif" font-size="10.00">src.eralchemy.parser.remove</text>
<text text-anchor="middle" x="938.5" y="-144.5" font-family="Helvetica,sans-Serif" font-size="10.00">_comments_from_line</text>
</a>
</g>
</g>
<!-- Node16&#45;&gt;Node17 -->
<g id="edge16" class="edge">
<title>Node16&#45;&gt;Node17</title>
<path fill="none" stroke="midnightblue" d="M820.03,-150.54C831.98,-150.74 844.66,-150.95 857.1,-151.16"/>
<polygon fill="midnightblue" stroke="midnightblue" points="857.42,-154.66 867.47,-151.33 857.53,-147.66 857.42,-154.66"/>
</g>
<!-- Node18 -->
<g id="node18" class="node">
<title>Node18</title>
<g id="a_node18"><a xlink:href="namespacesrc_1_1eralchemy_1_1parser.html#aaa8d12965e24d3a437fe9605475f9ec1" target="_top" xlink:title=" ">
<polygon fill="white" stroke="black" points="868.5,-88.5 868.5,-118.5 1008.5,-118.5 1008.5,-88.5 868.5,-88.5"/>
<text text-anchor="start" x="876.5" y="-106.5" font-family="Helvetica,sans-Serif" font-size="10.00">src.eralchemy.parser.update</text>
<text text-anchor="middle" x="938.5" y="-95.5" font-family="Helvetica,sans-Serif" font-size="10.00">_models</text>
</a>
</g>
</g>
<!-- Node16&#45;&gt;Node18 -->
<g id="edge17" class="edge">
<title>Node16&#45;&gt;Node18</title>
<path fill="none" stroke="midnightblue" d="M816.78,-134.44C833.44,-130.17 851.73,-125.48 868.92,-121.07"/>
<polygon fill="midnightblue" stroke="midnightblue" points="870.08,-124.39 878.9,-118.52 868.34,-117.61 870.08,-124.39"/>
</g>
<!-- Node19 -->
<g id="node19" class="node">
<title>Node19</title>
<g id="a_node19"><a xlink:href="namespacesrc_1_1eralchemy_1_1parser.html#a4074827fe7dbe79bd52ab7fce3fec3ff" target="_top" xlink:title=" ">
<polygon fill="white" stroke="black" points="1064.5,-147.5 1064.5,-177.5 1183.5,-177.5 1183.5,-147.5 1064.5,-147.5"/>
<text text-anchor="start" x="1072.5" y="-165.5" font-family="Helvetica,sans-Serif" font-size="10.00">src.eralchemy.parser.</text>
<text text-anchor="middle" x="1124" y="-154.5" font-family="Helvetica,sans-Serif" font-size="10.00">_check_colname_in_lst</text>
</a>
</g>
</g>
<!-- Node18&#45;&gt;Node19 -->
<g id="edge18" class="edge">
<title>Node18&#45;&gt;Node19</title>
<path fill="none" stroke="midnightblue" d="M986.28,-118.54C1010.76,-126.41 1040.92,-136.11 1066.67,-144.39"/>
<polygon fill="midnightblue" stroke="midnightblue" points="1065.71,-147.76 1076.31,-147.49 1067.86,-141.09 1065.71,-147.76"/>
</g>
<!-- Node20 -->
<g id="node20" class="node">
<title>Node20</title>
<g id="a_node20"><a xlink:href="namespacesrc_1_1eralchemy_1_1parser.html#aa39338fd82cbc77e7aa9d11241375d3f" target="_top" xlink:title=" ">
<polygon fill="white" stroke="black" points="1061.5,-98.5 1061.5,-128.5 1186.5,-128.5 1186.5,-98.5 1061.5,-98.5"/>
<text text-anchor="start" x="1069.5" y="-116.5" font-family="Helvetica,sans-Serif" font-size="10.00">src.eralchemy.parser.</text>
<text text-anchor="middle" x="1124" y="-105.5" font-family="Helvetica,sans-Serif" font-size="10.00">_check_no_current_table</text>
</a>
</g>
</g>
<!-- Node18&#45;&gt;Node20 -->
<g id="edge19" class="edge">
<title>Node18&#45;&gt;Node20</title>
<path fill="none" stroke="midnightblue" d="M1008.61,-107.27C1022.59,-108.03 1037.32,-108.83 1051.38,-109.6"/>
<polygon fill="midnightblue" stroke="midnightblue" points="1051.31,-113.1 1061.49,-110.15 1051.69,-106.11 1051.31,-113.1"/>
</g>
<!-- Node21 -->
<g id="node21" class="node">
<title>Node21</title>
<g id="a_node21"><a xlink:href="namespacesrc_1_1eralchemy_1_1parser.html#a6ee33be1040bdc3f9d17e30a8667a6bf" target="_top" xlink:title=" ">
<polygon fill="white" stroke="black" points="1046,-49.5 1046,-79.5 1202,-79.5 1202,-49.5 1046,-49.5"/>
<text text-anchor="start" x="1054" y="-67.5" font-family="Helvetica,sans-Serif" font-size="10.00">src.eralchemy.parser.</text>
<text text-anchor="middle" x="1124" y="-56.5" font-family="Helvetica,sans-Serif" font-size="10.00">_check_not_creating_duplicates</text>
</a>
</g>
</g>
<!-- Node18&#45;&gt;Node21 -->
<g id="edge20" class="edge">
<title>Node18&#45;&gt;Node21</title>
<path fill="none" stroke="midnightblue" d="M1008.61,-88.81C1019.61,-86.47 1031.08,-84.04 1042.32,-81.65"/>
<polygon fill="midnightblue" stroke="midnightblue" points="1043.06,-85.07 1052.12,-79.56 1041.61,-78.22 1043.06,-85.07"/>
</g>
<!-- Node22 -->
<g id="node22" class="node">
<title>Node22</title>
<g id="a_node22"><a xlink:href="namespacesrc_1_1eralchemy_1_1parser.html#a865f8f738e78ee150ed201fe3f13f066" target="_top" xlink:title=" ">
<polygon fill="white" stroke="black" points="1067,-0.5 1067,-30.5 1181,-30.5 1181,-0.5 1067,-0.5"/>
<text text-anchor="start" x="1075" y="-18.5" font-family="Helvetica,sans-Serif" font-size="10.00">src.eralchemy.parser.</text>
<text text-anchor="middle" x="1124" y="-7.5" font-family="Helvetica,sans-Serif" font-size="10.00">_update_check_inputs</text>
</a>
</g>
</g>
<!-- Node18&#45;&gt;Node22 -->
<g id="edge21" class="edge">
<title>Node18&#45;&gt;Node22</title>
<path fill="none" stroke="midnightblue" d="M961.1,-88.41C982.04,-74.29 1015.1,-53.36 1046,-39.5 1050.32,-37.56 1054.85,-35.71 1059.45,-33.97"/>
<polygon fill="midnightblue" stroke="midnightblue" points="1060.74,-37.23 1068.95,-30.54 1058.36,-30.64 1060.74,-37.23"/>
</g>
<!-- Node23&#45;&gt;Node16 -->
<g id="edge23" class="edge">
<title>Node23&#45;&gt;Node16</title>
<path fill="none" stroke="midnightblue" d="M647.02,-138.34C659.18,-139.58 671.73,-140.87 683.79,-142.1"/>
<polygon fill="midnightblue" stroke="midnightblue" points="683.48,-145.59 693.79,-143.13 684.2,-138.63 683.48,-145.59"/>
</g>
</g>
</svg>
        <g id="navigator" transform="translate(0 0)" fill="#404254">
                <rect fill="#f2f5e9" fill-opacity="0.5" stroke="#606060" stroke-width=".5" x="0" y="0" width="60" height="60"/>
                <use id="zoomplus" xlink:href="#zoomPlus" x="17" y="9" onmousedown="handleZoom(evt,'in')"/>
                <use id="zoomminus" xlink:href="#zoomMin" x="42" y="9" onmousedown="handleZoom(evt,'out')"/>
                <use id="reset" xlink:href="#resetDef" x="30" y="36" onmousedown="handleReset()"/>
                <g id="arrowUp" xlink:href="#dirArrow" transform="translate(30 24)" onmousedown="handlePan(0,-1)">
                  <use xlink:href="#rim" fill="#404040">
                        <set attributeName="fill" to="#808080" begin="arrowUp.mouseover" end="arrowUp.mouseout"/>
                  </use>
                  <path fill="none" stroke="white" stroke-width="1.5" d="M0,-3.0v7 M-2.5,-0.5L0,-3.0L2.5,-0.5"/>
                </g>
                <g id="arrowRight" xlink:href="#dirArrow" transform="rotate(90) translate(36 -43)" onmousedown="handlePan(1,0)">
                  <use xlink:href="#rim" fill="#404040">
                        <set attributeName="fill" to="#808080" begin="arrowRight.mouseover" end="arrowRight.mouseout"/>
                  </use>
                  <path fill="none" stroke="white" stroke-width="1.5" d="M0,-3.0v7 M-2.5,-0.5L0,-3.0L2.5,-0.5"/>
                </g>
                <g id="arrowDown" xlink:href="#dirArrow" transform="rotate(180) translate(-30 -48)" onmousedown="handlePan(0,1)">
                  <use xlink:href="#rim" fill="#404040">
                        <set attributeName="fill" to="#808080" begin="arrowDown.mouseover" end="arrowDown.mouseout"/>
                  </use>
                  <path fill="none" stroke="white" stroke-width="1.5" d="M0,-3.0v7 M-2.5,-0.5L0,-3.0L2.5,-0.5"/>
                </g>
                <g id="arrowLeft" xlink:href="#dirArrow" transform="rotate(270) translate(-36 17)" onmousedown="handlePan(-1,0)">
                  <use xlink:href="#rim" fill="#404040">
                        <set attributeName="fill" to="#808080" begin="arrowLeft.mouseover" end="arrowLeft.mouseout"/>
                  </use>
                  <path fill="none" stroke="white" stroke-width="1.5" d="M0,-3.0v7 M-2.5,-0.5L0,-3.0L2.5,-0.5"/>
                </g>
        </g>
        <svg viewBox="0 0 15 15" width="100%" height="30px" preserveAspectRatio="xMaxYMin meet">
         <g id="arrow_out" transform="scale(0.3 0.3)">
          <a xlink:href="namespacesrc_1_1eralchemy_1_1main_afd606a75c08edb3181030c5b1ce3b5aa_cgraph_org.svg" target="_base">
           <rect id="button" ry="5" rx="5" y="6" x="6" height="38" width="38"
                fill="#f2f5e9" fill-opacity="0.5" stroke="#606060" stroke-width="1.0"/>
           <path id="arrow"
             d="M 11.500037,31.436501 C 11.940474,20.09759 22.043105,11.32322 32.158766,21.979434 L 37.068811,17.246167 C 37.068811,17.246167 37.088388,32 37.088388,32 L 22.160133,31.978069 C 22.160133,31.978069 26.997745,27.140456 26.997745,27.140456 C 18.528582,18.264221 13.291696,25.230495 11.500037,31.436501 z"
             style="fill:#404040;"/>
          </a>
         </g>
        </svg>
</svg>
