<?xml version="1.0" encoding="UTF-8" standalone="no"?>
<!DOCTYPE svg PUBLIC "-//W3C//DTD SVG 1.1//EN"
 "http://www.w3.org/Graphics/SVG/1.1/DTD/svg11.dtd">
<!-- Generated by graphviz version 2.47.1 (20210417.1919)
 -->
<!-- Title: src.eralchemy.main.all_to_intermediary Pages: 1 -->
<!--zoomable 223 -->
<svg id="main" version="1.1" xmlns="http://www.w3.org/2000/svg" xmlns:xlink="http://www.w3.org/1999/xlink" xml:space="preserve" onload="init(evt)">
<style type="text/css"><![CDATA[
.edge:hover path { stroke: red; }
.edge:hover polygon { stroke: red; fill: red; }
]]></style>
<script type="text/javascript"><![CDATA[
var edges = document.getElementsByTagName('g');
if (edges && edges.length) {
  for (var i=0;i<edges.length;i++) {
    if (edges[i].id.substr(0,4)=='edge') {
      edges[i].setAttribute('class','edge');
    }
  }
}
]]></script>
        <defs>
                <circle id="rim" cx="0" cy="0" r="7"/>
                <circle id="rim2" cx="0" cy="0" r="3.5"/>
                <g id="zoomPlus">
                        <use xlink:href="#rim" fill="#404040">
                                <set attributeName="fill" to="#808080" begin="zoomplus.mouseover" end="zoomplus.mouseout"/>
                        </use>
                        <path d="M-4,0h8M0,-4v8" fill="none" stroke="white" stroke-width="1.5" pointer-events="none"/>
                </g>
                <g id="zoomMin">
                        <use xlink:href="#rim" fill="#404040">
                                <set attributeName="fill" to="#808080" begin="zoomminus.mouseover" end="zoomminus.mouseout"/>
                        </use>
                        <path d="M-4,0h8" fill="none" stroke="white" stroke-width="1.5" pointer-events="none"/>
                </g>
                <g id="dirArrow">
                        <path fill="none" stroke="white" stroke-width="1.5" d="M0,-3.0v7 M-2.5,-0.5L0,-3.0L2.5,-0.5"/>
                </g>
               <g id="resetDef">
                       <use xlink:href="#rim2" fill="#404040">
                               <set attributeName="fill" to="#808080" begin="reset.mouseover" end="reset.mouseout"/>
                       </use>
               </g>
        </defs>

<script type="text/javascript">
var viewWidth = 1547;
var viewHeight = 223;
var sectionId = 'dynsection-2';
</script>
<script xlink:href="svgpan.js"/>
<svg id="graph" class="graph">
<g id="viewport">
<title>src.eralchemy.main.all_to_intermediary</title>
<polygon fill="white" stroke="transparent" points="-4,4 -4,-219 1543,-219 1543,4 -4,4"/>
<!-- Node1 -->
<g id="node1" class="node">
<title>Node1</title>
<g id="a_node1"><a xlink:title=" ">
<polygon fill="#bfbfbf" stroke="black" points="0,-121.5 0,-140.5 187,-140.5 187,-121.5 0,-121.5"/>
<text text-anchor="middle" x="93.5" y="-128.5" font-family="Helvetica,sans-Serif" font-size="10.00">src.eralchemy.main.all_to_intermediary</text>
</a>
</g>
</g>
<!-- Node2 -->
<g id="node2" class="node">
<title>Node2</title>
<g id="a_node2"><a xlink:href="namespacesrc_1_1eralchemy_1_1sqla.html#a45674eee4c7ce1d82b7f99a285958c1d" target="_top" xlink:title=" ">
<polygon fill="white" stroke="black" points="238.5,-159.5 238.5,-178.5 452.5,-178.5 452.5,-159.5 238.5,-159.5"/>
<text text-anchor="middle" x="345.5" y="-166.5" font-family="Helvetica,sans-Serif" font-size="10.00">src.eralchemy.sqla.database_to_intermediary</text>
</a>
</g>
</g>
<!-- Node1&#45;&gt;Node2 -->
<g id="edge1" class="edge">
<title>Node1&#45;&gt;Node2</title>
<path fill="none" stroke="midnightblue" d="M157.26,-140.54C192.03,-145.83 235.43,-152.42 271.69,-157.93"/>
<polygon fill="midnightblue" stroke="midnightblue" points="271.3,-161.41 281.71,-159.46 272.35,-154.49 271.3,-161.41"/>
</g>
<!-- Node9 -->
<g id="node9" class="node">
<title>Node9</title>
<g id="a_node9"><a xlink:href="namespacesrc_1_1eralchemy_1_1parser.html#ae896c00e0ce3280fd4a5f84bb3b13da5" target="_top" xlink:title=" ">
<polygon fill="white" stroke="black" points="504,-102.5 504,-121.5 737,-121.5 737,-102.5 504,-102.5"/>
<text text-anchor="middle" x="620.5" y="-109.5" font-family="Helvetica,sans-Serif" font-size="10.00">src.eralchemy.parser.line_iterator_to_intermediary</text>
</a>
</g>
</g>
<!-- Node1&#45;&gt;Node9 -->
<g id="edge8" class="edge">
<title>Node1&#45;&gt;Node9</title>
<path fill="none" stroke="midnightblue" d="M187.15,-127.65C272.36,-124.56 399.4,-119.97 493.75,-116.55"/>
<polygon fill="midnightblue" stroke="midnightblue" points="494.06,-120.04 503.93,-116.18 493.81,-113.05 494.06,-120.04"/>
</g>
<!-- Node16 -->
<g id="node16" class="node">
<title>Node16</title>
<g id="a_node16"><a xlink:href="namespacesrc_1_1eralchemy_1_1parser.html#a4ae9323517c46eeb4ed9d87588832be2" target="_top" xlink:title=" ">
<polygon fill="white" stroke="black" points="223,-83.5 223,-102.5 468,-102.5 468,-83.5 223,-83.5"/>
<text text-anchor="middle" x="345.5" y="-90.5" font-family="Helvetica,sans-Serif" font-size="10.00">src.eralchemy.parser.markdown_file_to_intermediary</text>
</a>
</g>
</g>
<!-- Node1&#45;&gt;Node16 -->
<g id="edge15" class="edge">
<title>Node1&#45;&gt;Node16</title>
<path fill="none" stroke="midnightblue" d="M157.26,-121.46C192.03,-116.17 235.43,-109.58 271.69,-104.07"/>
<polygon fill="midnightblue" stroke="midnightblue" points="272.35,-107.51 281.71,-102.54 271.3,-100.59 272.35,-107.51"/>
</g>
<!-- Node3 -->
<g id="node3" class="node">
<title>Node3</title>
<g id="a_node3"><a xlink:href="namespacesrc_1_1eralchemy_1_1sqla.html#a08828ed118d96f46452d9c55a5080c78" target="_top" xlink:title=" ">
<polygon fill="white" stroke="black" points="510.5,-159.5 510.5,-178.5 730.5,-178.5 730.5,-159.5 510.5,-159.5"/>
<text text-anchor="middle" x="620.5" y="-166.5" font-family="Helvetica,sans-Serif" font-size="10.00">src.eralchemy.sqla.declarative_to_intermediary</text>
</a>
</g>
</g>
<!-- Node2&#45;&gt;Node3 -->
<g id="edge2" class="edge">
<title>Node2&#45;&gt;Node3</title>
<path fill="none" stroke="midnightblue" d="M452.83,-169C468.31,-169 484.32,-169 500.04,-169"/>
<polygon fill="midnightblue" stroke="midnightblue" points="500.31,-172.5 510.31,-169 500.31,-165.5 500.31,-172.5"/>
</g>
<!-- Node4 -->
<g id="node4" class="node">
<title>Node4</title>
<g id="a_node4"><a xlink:href="namespacesrc_1_1eralchemy_1_1sqla.html#a8c80e60516d371d4404a1040516f88ea" target="_top" xlink:title=" ">
<polygon fill="white" stroke="black" points="784,-159.5 784,-178.5 999,-178.5 999,-159.5 784,-159.5"/>
<text text-anchor="middle" x="891.5" y="-166.5" font-family="Helvetica,sans-Serif" font-size="10.00">src.eralchemy.sqla.metadata_to_intermediary</text>
</a>
</g>
</g>
<!-- Node3&#45;&gt;Node4 -->
<g id="edge3" class="edge">
<title>Node3&#45;&gt;Node4</title>
<path fill="none" stroke="midnightblue" d="M730.52,-169C744.71,-169 759.28,-169 773.58,-169"/>
<polygon fill="midnightblue" stroke="midnightblue" points="773.94,-172.5 783.94,-169 773.94,-165.5 773.94,-172.5"/>
</g>
<!-- Node5 -->
<g id="node5" class="node">
<title>Node5</title>
<g id="a_node5"><a xlink:href="namespacesrc_1_1eralchemy_1_1sqla.html#aecf50970e801a99f0a0373b9bd5c2988" target="_top" xlink:title=" ">
<polygon fill="white" stroke="black" points="1068.5,-195.5 1068.5,-214.5 1274.5,-214.5 1274.5,-195.5 1068.5,-195.5"/>
<text text-anchor="middle" x="1171.5" y="-202.5" font-family="Helvetica,sans-Serif" font-size="10.00">src.eralchemy.sqla.relation_to_intermediary</text>
</a>
</g>
</g>
<!-- Node4&#45;&gt;Node5 -->
<g id="edge4" class="edge">
<title>Node4&#45;&gt;Node5</title>
<path fill="none" stroke="midnightblue" d="M965.9,-178.51C1002.97,-183.31 1048.11,-189.15 1086.55,-194.13"/>
<polygon fill="midnightblue" stroke="midnightblue" points="1086.32,-197.63 1096.68,-195.44 1087.22,-190.69 1086.32,-197.63"/>
</g>
<!-- Node7 -->
<g id="node7" class="node">
<title>Node7</title>
<g id="a_node7"><a xlink:href="namespacesrc_1_1eralchemy_1_1sqla.html#ac1b6d81b9b494b0b3b9775947dbae11f" target="_top" xlink:title=" ">
<polygon fill="white" stroke="black" points="1074,-157.5 1074,-176.5 1269,-176.5 1269,-157.5 1074,-157.5"/>
<text text-anchor="middle" x="1171.5" y="-164.5" font-family="Helvetica,sans-Serif" font-size="10.00">src.eralchemy.sqla.table_to_intermediary</text>
</a>
</g>
</g>
<!-- Node4&#45;&gt;Node7 -->
<g id="edge6" class="edge">
<title>Node4&#45;&gt;Node7</title>
<path fill="none" stroke="midnightblue" d="M999.19,-168.23C1020.24,-168.08 1042.34,-167.92 1063.41,-167.77"/>
<polygon fill="midnightblue" stroke="midnightblue" points="1063.68,-171.27 1073.66,-167.7 1063.63,-164.27 1063.68,-171.27"/>
</g>
<!-- Node6 -->
<g id="node6" class="node">
<title>Node6</title>
<g id="a_node6"><a xlink:href="namespacesrc_1_1eralchemy_1_1sqla.html#a74f56fbe681e9a1b0d0c0b0832b91509" target="_top" xlink:title=" ">
<polygon fill="white" stroke="black" points="1357,-195.5 1357,-214.5 1515,-214.5 1515,-195.5 1357,-195.5"/>
<text text-anchor="middle" x="1436" y="-202.5" font-family="Helvetica,sans-Serif" font-size="10.00">src.eralchemy.sqla.format_name</text>
</a>
</g>
</g>
<!-- Node5&#45;&gt;Node6 -->
<g id="edge5" class="edge">
<title>Node5&#45;&gt;Node6</title>
<path fill="none" stroke="midnightblue" d="M1274.74,-205C1298.44,-205 1323.47,-205 1346.52,-205"/>
<polygon fill="midnightblue" stroke="midnightblue" points="1346.62,-208.5 1356.62,-205 1346.62,-201.5 1346.62,-208.5"/>
</g>
<!-- Node8 -->
<g id="node8" class="node">
<title>Node8</title>
<g id="a_node8"><a xlink:href="namespacesrc_1_1eralchemy_1_1sqla.html#a4ccd81ff2afbcbd286013a8e85f016fe" target="_top" xlink:title=" ">
<polygon fill="white" stroke="black" points="1333,-157.5 1333,-176.5 1539,-176.5 1539,-157.5 1333,-157.5"/>
<text text-anchor="middle" x="1436" y="-164.5" font-family="Helvetica,sans-Serif" font-size="10.00">src.eralchemy.sqla.column_to_intermediary</text>
</a>
</g>
</g>
<!-- Node7&#45;&gt;Node8 -->
<g id="edge7" class="edge">
<title>Node7&#45;&gt;Node8</title>
<path fill="none" stroke="midnightblue" d="M1269.13,-167C1286.48,-167 1304.7,-167 1322.46,-167"/>
<polygon fill="midnightblue" stroke="midnightblue" points="1322.85,-170.5 1332.85,-167 1322.85,-163.5 1322.85,-170.5"/>
</g>
<!-- Node10 -->
<g id="node10" class="node">
<title>Node10</title>
<g id="a_node10"><a xlink:href="namespacesrc_1_1eralchemy_1_1parser.html#af2c09125da4fddcf62bd70475bd1c156" target="_top" xlink:title=" ">
<polygon fill="white" stroke="black" points="773,-105.5 773,-124.5 1010,-124.5 1010,-105.5 773,-105.5"/>
<text text-anchor="middle" x="891.5" y="-112.5" font-family="Helvetica,sans-Serif" font-size="10.00">src.eralchemy.parser.remove_comments_from_line</text>
</a>
</g>
</g>
<!-- Node9&#45;&gt;Node10 -->
<g id="edge9" class="edge">
<title>Node9&#45;&gt;Node10</title>
<path fill="none" stroke="midnightblue" d="M737.14,-113.29C745.64,-113.38 754.23,-113.48 762.79,-113.58"/>
<polygon fill="midnightblue" stroke="midnightblue" points="762.78,-117.08 772.82,-113.69 762.86,-110.08 762.78,-117.08"/>
</g>
<!-- Node11 -->
<g id="node11" class="node">
<title>Node11</title>
<g id="a_node11"><a xlink:href="namespacesrc_1_1eralchemy_1_1parser.html#aaa8d12965e24d3a437fe9605475f9ec1" target="_top" xlink:title=" ">
<polygon fill="white" stroke="black" points="803,-67.5 803,-86.5 980,-86.5 980,-67.5 803,-67.5"/>
<text text-anchor="middle" x="891.5" y="-74.5" font-family="Helvetica,sans-Serif" font-size="10.00">src.eralchemy.parser.update_models</text>
</a>
</g>
</g>
<!-- Node9&#45;&gt;Node11 -->
<g id="edge10" class="edge">
<title>Node9&#45;&gt;Node11</title>
<path fill="none" stroke="midnightblue" d="M694.65,-102.48C729.49,-97.95 771.32,-92.51 807.36,-87.82"/>
<polygon fill="midnightblue" stroke="midnightblue" points="807.9,-91.28 817.36,-86.52 807,-84.34 807.9,-91.28"/>
</g>
<!-- Node12 -->
<g id="node12" class="node">
<title>Node12</title>
<g id="a_node12"><a xlink:href="namespacesrc_1_1eralchemy_1_1parser.html#a4074827fe7dbe79bd52ab7fce3fec3ff" target="_top" xlink:title=" ">
<polygon fill="white" stroke="black" points="1065,-114.5 1065,-133.5 1278,-133.5 1278,-114.5 1065,-114.5"/>
<text text-anchor="middle" x="1171.5" y="-121.5" font-family="Helvetica,sans-Serif" font-size="10.00">src.eralchemy.parser._check_colname_in_lst</text>
</a>
</g>
</g>
<!-- Node11&#45;&gt;Node12 -->
<g id="edge11" class="edge">
<title>Node11&#45;&gt;Node12</title>
<path fill="none" stroke="midnightblue" d="M957.63,-86.52C974.72,-89.3 993.1,-92.53 1010,-96 1026.15,-99.32 1029.83,-101.75 1046,-105 1060.28,-107.87 1075.56,-110.53 1090.36,-112.9"/>
<polygon fill="midnightblue" stroke="midnightblue" points="1090.08,-116.4 1100.5,-114.49 1091.16,-109.48 1090.08,-116.4"/>
</g>
<!-- Node13 -->
<g id="node13" class="node">
<title>Node13</title>
<g id="a_node13"><a xlink:href="namespacesrc_1_1eralchemy_1_1parser.html#aa39338fd82cbc77e7aa9d11241375d3f" target="_top" xlink:title=" ">
<polygon fill="white" stroke="black" points="1061.5,-76.5 1061.5,-95.5 1281.5,-95.5 1281.5,-76.5 1061.5,-76.5"/>
<text text-anchor="middle" x="1171.5" y="-83.5" font-family="Helvetica,sans-Serif" font-size="10.00">src.eralchemy.parser._check_no_current_table</text>
</a>
</g>
</g>
<!-- Node11&#45;&gt;Node13 -->
<g id="edge12" class="edge">
<title>Node11&#45;&gt;Node13</title>
<path fill="none" stroke="midnightblue" d="M980.08,-79.84C1002.64,-80.57 1027.3,-81.36 1051.18,-82.14"/>
<polygon fill="midnightblue" stroke="midnightblue" points="1051.24,-85.64 1061.35,-82.47 1051.47,-78.64 1051.24,-85.64"/>
</g>
<!-- Node14 -->
<g id="node14" class="node">
<title>Node14</title>
<g id="a_node14"><a xlink:href="namespacesrc_1_1eralchemy_1_1parser.html#a6ee33be1040bdc3f9d17e30a8667a6bf" target="_top" xlink:title=" ">
<polygon fill="white" stroke="black" points="1046,-38.5 1046,-57.5 1297,-57.5 1297,-38.5 1046,-38.5"/>
<text text-anchor="middle" x="1171.5" y="-45.5" font-family="Helvetica,sans-Serif" font-size="10.00">src.eralchemy.parser._check_not_creating_duplicates</text>
</a>
</g>
</g>
<!-- Node11&#45;&gt;Node14 -->
<g id="edge13" class="edge">
<title>Node11&#45;&gt;Node14</title>
<path fill="none" stroke="midnightblue" d="M980.08,-67.86C1008.27,-64.92 1039.74,-61.64 1068.85,-58.6"/>
<polygon fill="midnightblue" stroke="midnightblue" points="1069.46,-62.06 1079.04,-57.54 1068.73,-55.1 1069.46,-62.06"/>
</g>
<!-- Node15 -->
<g id="node15" class="node">
<title>Node15</title>
<g id="a_node15"><a xlink:href="namespacesrc_1_1eralchemy_1_1parser.html#a865f8f738e78ee150ed201fe3f13f066" target="_top" xlink:title=" ">
<polygon fill="white" stroke="black" points="1067,-0.5 1067,-19.5 1276,-19.5 1276,-0.5 1067,-0.5"/>
<text text-anchor="middle" x="1171.5" y="-7.5" font-family="Helvetica,sans-Serif" font-size="10.00">src.eralchemy.parser._update_check_inputs</text>
</a>
</g>
</g>
<!-- Node11&#45;&gt;Node15 -->
<g id="edge14" class="edge">
<title>Node11&#45;&gt;Node15</title>
<path fill="none" stroke="midnightblue" d="M918.79,-67.44C949.09,-56.73 1000.57,-39.51 1046,-29 1058.73,-26.06 1072.3,-23.45 1085.63,-21.19"/>
<polygon fill="midnightblue" stroke="midnightblue" points="1086.46,-24.6 1095.76,-19.52 1085.32,-17.69 1086.46,-24.6"/>
</g>
<!-- Node16&#45;&gt;Node9 -->
<g id="edge16" class="edge">
<title>Node16&#45;&gt;Node9</title>
<path fill="none" stroke="midnightblue" d="M468.23,-101.47C476.62,-102.06 485.09,-102.65 493.5,-103.23"/>
<polygon fill="midnightblue" stroke="midnightblue" points="493.5,-106.74 503.72,-103.94 493.99,-99.76 493.5,-106.74"/>
</g>
</g>
</svg>
        <g id="navigator" transform="translate(0 0)" fill="#404254">
                <rect fill="#f2f5e9" fill-opacity="0.5" stroke="#606060" stroke-width=".5" x="0" y="0" width="60" height="60"/>
                <use id="zoomplus" xlink:href="#zoomPlus" x="17" y="9" onmousedown="handleZoom(evt,'in')"/>
                <use id="zoomminus" xlink:href="#zoomMin" x="42" y="9" onmousedown="handleZoom(evt,'out')"/>
                <use id="reset" xlink:href="#resetDef" x="30" y="36" onmousedown="handleReset()"/>
                <g id="arrowUp" xlink:href="#dirArrow" transform="translate(30 24)" onmousedown="handlePan(0,-1)">
                  <use xlink:href="#rim" fill="#404040">
                        <set attributeName="fill" to="#808080" begin="arrowUp.mouseover" end="arrowUp.mouseout"/>
                  </use>
                  <path fill="none" stroke="white" stroke-width="1.5" d="M0,-3.0v7 M-2.5,-0.5L0,-3.0L2.5,-0.5"/>
                </g>
                <g id="arrowRight" xlink:href="#dirArrow" transform="rotate(90) translate(36 -43)" onmousedown="handlePan(1,0)">
                  <use xlink:href="#rim" fill="#404040">
                        <set attributeName="fill" to="#808080" begin="arrowRight.mouseover" end="arrowRight.mouseout"/>
                  </use>
                  <path fill="none" stroke="white" stroke-width="1.5" d="M0,-3.0v7 M-2.5,-0.5L0,-3.0L2.5,-0.5"/>
                </g>
                <g id="arrowDown" xlink:href="#dirArrow" transform="rotate(180) translate(-30 -48)" onmousedown="handlePan(0,1)">
                  <use xlink:href="#rim" fill="#404040">
                        <set attributeName="fill" to="#808080" begin="arrowDown.mouseover" end="arrowDown.mouseout"/>
                  </use>
                  <path fill="none" stroke="white" stroke-width="1.5" d="M0,-3.0v7 M-2.5,-0.5L0,-3.0L2.5,-0.5"/>
                </g>
                <g id="arrowLeft" xlink:href="#dirArrow" transform="rotate(270) translate(-36 17)" onmousedown="handlePan(-1,0)">
                  <use xlink:href="#rim" fill="#404040">
                        <set attributeName="fill" to="#808080" begin="arrowLeft.mouseover" end="arrowLeft.mouseout"/>
                  </use>
                  <path fill="none" stroke="white" stroke-width="1.5" d="M0,-3.0v7 M-2.5,-0.5L0,-3.0L2.5,-0.5"/>
                </g>
        </g>
        <svg viewBox="0 0 15 15" width="100%" height="30px" preserveAspectRatio="xMaxYMin meet">
         <g id="arrow_out" transform="scale(0.3 0.3)">
          <a xlink:href="namespacesrc_1_1eralchemy_1_1main_a9fac164b40f74cd204823413bbc5c01d_cgraph_org.svg" target="_base">
           <rect id="button" ry="5" rx="5" y="6" x="6" height="38" width="38"
                fill="#f2f5e9" fill-opacity="0.5" stroke="#606060" stroke-width="1.0"/>
           <path id="arrow"
             d="M 11.500037,31.436501 C 11.940474,20.09759 22.043105,11.32322 32.158766,21.979434 L 37.068811,17.246167 C 37.068811,17.246167 37.088388,32 37.088388,32 L 22.160133,31.978069 C 22.160133,31.978069 26.997745,27.140456 26.997745,27.140456 C 18.528582,18.264221 13.291696,25.230495 11.500037,31.436501 z"
             style="fill:#404040;"/>
          </a>
         </g>
        </svg>
</svg>
