<?xml version="1.0" encoding="UTF-8" standalone="no"?>
<!DOCTYPE svg PUBLIC "-//W3C//DTD SVG 1.1//EN"
 "http://www.w3.org/Graphics/SVG/1.1/DTD/svg11.dtd">
<!-- Generated by graphviz version 2.47.1 (20210417.1919)
 -->
<!-- Title: src.eralchemy.parser.update_models Pages: 1 -->
<svg width="340pt" height="186pt"
 viewBox="0.00 0.00 340.00 186.00" xmlns="http://www.w3.org/2000/svg" xmlns:xlink="http://www.w3.org/1999/xlink">
<g id="graph0" class="graph" transform="scale(1 1) rotate(0) translate(4 182)">
<title>src.eralchemy.parser.update_models</title>
<polygon fill="white" stroke="transparent" points="-4,4 -4,-182 336,-182 336,4 -4,4"/>
<!-- Node1 -->
<g id="node1" class="node">
<title>Node1</title>
<g id="a_node1"><a xlink:title=" ">
<polygon fill="#bfbfbf" stroke="black" points="0,-73.5 0,-103.5 140,-103.5 140,-73.5 0,-73.5"/>
<text text-anchor="start" x="8" y="-91.5" font-family="Helvetica,sans-Serif" font-size="10.00">src.eralchemy.parser.update</text>
<text text-anchor="middle" x="70" y="-80.5" font-family="Helvetica,sans-Serif" font-size="10.00">_models</text>
</a>
</g>
</g>
<!-- Node2 -->
<g id="node2" class="node">
<title>Node2</title>
<g id="a_node2"><a xlink:href="namespacesrc_1_1eralchemy_1_1parser.html#a4074827fe7dbe79bd52ab7fce3fec3ff" target="_top" xlink:title=" ">
<polygon fill="white" stroke="black" points="194.5,-147.5 194.5,-177.5 313.5,-177.5 313.5,-147.5 194.5,-147.5"/>
<text text-anchor="start" x="202.5" y="-165.5" font-family="Helvetica,sans-Serif" font-size="10.00">src.eralchemy.parser.</text>
<text text-anchor="middle" x="254" y="-154.5" font-family="Helvetica,sans-Serif" font-size="10.00">_check_colname_in_lst</text>
</a>
</g>
</g>
<!-- Node1&#45;&gt;Node2 -->
<g id="edge1" class="edge">
<title>Node1&#45;&gt;Node2</title>
<path fill="none" stroke="midnightblue" d="M99.93,-103.65C120.74,-114.2 149.68,-128.19 176,-138.5 181.05,-140.48 186.34,-142.41 191.67,-144.26"/>
<polygon fill="midnightblue" stroke="midnightblue" points="190.69,-147.62 201.29,-147.5 192.93,-140.99 190.69,-147.62"/>
</g>
<!-- Node3 -->
<g id="node3" class="node">
<title>Node3</title>
<g id="a_node3"><a xlink:href="namespacesrc_1_1eralchemy_1_1parser.html#aa39338fd82cbc77e7aa9d11241375d3f" target="_top" xlink:title=" ">
<polygon fill="white" stroke="black" points="191.5,-98.5 191.5,-128.5 316.5,-128.5 316.5,-98.5 191.5,-98.5"/>
<text text-anchor="start" x="199.5" y="-116.5" font-family="Helvetica,sans-Serif" font-size="10.00">src.eralchemy.parser.</text>
<text text-anchor="middle" x="254" y="-105.5" font-family="Helvetica,sans-Serif" font-size="10.00">_check_no_current_table</text>
</a>
</g>
</g>
<!-- Node1&#45;&gt;Node3 -->
<g id="edge2" class="edge">
<title>Node1&#45;&gt;Node3</title>
<path fill="none" stroke="midnightblue" d="M140.07,-97.99C153.53,-99.84 167.67,-101.78 181.22,-103.64"/>
<polygon fill="midnightblue" stroke="midnightblue" points="181.06,-107.15 191.44,-105.04 182.01,-100.22 181.06,-107.15"/>
</g>
<!-- Node4 -->
<g id="node4" class="node">
<title>Node4</title>
<g id="a_node4"><a xlink:href="namespacesrc_1_1eralchemy_1_1parser.html#a6ee33be1040bdc3f9d17e30a8667a6bf" target="_top" xlink:title=" ">
<polygon fill="white" stroke="black" points="176,-49.5 176,-79.5 332,-79.5 332,-49.5 176,-49.5"/>
<text text-anchor="start" x="184" y="-67.5" font-family="Helvetica,sans-Serif" font-size="10.00">src.eralchemy.parser.</text>
<text text-anchor="middle" x="254" y="-56.5" font-family="Helvetica,sans-Serif" font-size="10.00">_check_not_creating_duplicates</text>
</a>
</g>
</g>
<!-- Node1&#45;&gt;Node4 -->
<g id="edge3" class="edge">
<title>Node1&#45;&gt;Node4</title>
<path fill="none" stroke="midnightblue" d="M140.07,-79.39C148.45,-78.29 157.1,-77.15 165.7,-76.01"/>
<polygon fill="midnightblue" stroke="midnightblue" points="166.31,-79.46 175.76,-74.68 165.39,-72.52 166.31,-79.46"/>
</g>
<!-- Node5 -->
<g id="node5" class="node">
<title>Node5</title>
<g id="a_node5"><a xlink:href="namespacesrc_1_1eralchemy_1_1parser.html#a865f8f738e78ee150ed201fe3f13f066" target="_top" xlink:title=" ">
<polygon fill="white" stroke="black" points="197,-0.5 197,-30.5 311,-30.5 311,-0.5 197,-0.5"/>
<text text-anchor="start" x="205" y="-18.5" font-family="Helvetica,sans-Serif" font-size="10.00">src.eralchemy.parser.</text>
<text text-anchor="middle" x="254" y="-7.5" font-family="Helvetica,sans-Serif" font-size="10.00">_update_check_inputs</text>
</a>
</g>
</g>
<!-- Node1&#45;&gt;Node5 -->
<g id="edge4" class="edge">
<title>Node1&#45;&gt;Node5</title>
<path fill="none" stroke="midnightblue" d="M101.38,-73.49C122.14,-63.51 150.41,-50.46 176,-40.5 181.84,-38.22 187.99,-35.98 194.16,-33.83"/>
<polygon fill="midnightblue" stroke="midnightblue" points="195.49,-37.08 203.82,-30.53 193.23,-30.45 195.49,-37.08"/>
</g>
</g>
</svg>
