<?xml version="1.0" encoding="UTF-8" standalone="no"?>
<!DOCTYPE svg PUBLIC "-//W3C//DTD SVG 1.1//EN"
 "http://www.w3.org/Graphics/SVG/1.1/DTD/svg11.dtd">
<!-- Generated by graphviz version 2.47.1 (20210417.1919)
 -->
<!-- Title: src.utils.backup.handle_warning_about_unexpected_exceptions Pages: 1 -->
<svg width="294pt" height="88pt"
 viewBox="0.00 0.00 294.00 88.00" xmlns="http://www.w3.org/2000/svg" xmlns:xlink="http://www.w3.org/1999/xlink">
<g id="graph0" class="graph" transform="scale(1 1) rotate(0) translate(4 84)">
<title>src.utils.backup.handle_warning_about_unexpected_exceptions</title>
<polygon fill="white" stroke="transparent" points="-4,4 -4,-84 290,-84 290,4 -4,4"/>
<!-- Node1 -->
<g id="node1" class="node">
<title>Node1</title>
<g id="a_node1"><a xlink:title=" ">
<polygon fill="#bfbfbf" stroke="black" points="146,-19 146,-60 286,-60 286,-19 146,-19"/>
<text text-anchor="start" x="154" y="-48" font-family="Helvetica,sans-Serif" font-size="10.00">src.utils.backup.handle</text>
<text text-anchor="start" x="154" y="-37" font-family="Helvetica,sans-Serif" font-size="10.00">_warning_about_unexpected</text>
<text text-anchor="middle" x="216" y="-26" font-family="Helvetica,sans-Serif" font-size="10.00">_exceptions</text>
</a>
</g>
</g>
<!-- Node2 -->
<g id="node2" class="node">
<title>Node2</title>
<g id="a_node2"><a xlink:href="namespacesrc_1_1utils_1_1backup.html#ac246e22d31ae7500aa6032f13719e7bb" target="_top" xlink:title=" ">
<polygon fill="white" stroke="black" points="5.5,-49.5 5.5,-79.5 104.5,-79.5 104.5,-49.5 5.5,-49.5"/>
<text text-anchor="start" x="13.5" y="-67.5" font-family="Helvetica,sans-Serif" font-size="10.00">src.utils.backup.do</text>
<text text-anchor="middle" x="55" y="-56.5" font-family="Helvetica,sans-Serif" font-size="10.00">_pickle</text>
</a>
</g>
</g>
<!-- Node1&#45;&gt;Node2 -->
<g id="edge1" class="edge">
<title>Node1&#45;&gt;Node2</title>
<path fill="none" stroke="midnightblue" d="M135.58,-51.99C124.97,-53.66 114.37,-55.32 104.51,-56.87"/>
<polygon fill="midnightblue" stroke="midnightblue" points="136.39,-55.4 145.72,-50.39 135.3,-48.49 136.39,-55.4"/>
</g>
<!-- Node3 -->
<g id="node3" class="node">
<title>Node3</title>
<g id="a_node3"><a xlink:href="namespacesrc_1_1utils_1_1backup.html#aed495f3243abf7d1adb0642a9900c3d3" target="_top" xlink:title=" ">
<polygon fill="white" stroke="black" points="0,-0.5 0,-30.5 110,-30.5 110,-0.5 0,-0.5"/>
<text text-anchor="start" x="8" y="-18.5" font-family="Helvetica,sans-Serif" font-size="10.00">src.utils.backup.undo</text>
<text text-anchor="middle" x="55" y="-7.5" font-family="Helvetica,sans-Serif" font-size="10.00">_pickle</text>
</a>
</g>
</g>
<!-- Node1&#45;&gt;Node3 -->
<g id="edge2" class="edge">
<title>Node1&#45;&gt;Node3</title>
<path fill="none" stroke="midnightblue" d="M135.65,-27.52C127.04,-26.22 118.44,-24.92 110.23,-23.69"/>
<polygon fill="midnightblue" stroke="midnightblue" points="135.31,-31.01 145.72,-29.04 136.36,-24.09 135.31,-31.01"/>
</g>
</g>
</svg>
