<?xml version="1.0" encoding="UTF-8" standalone="no"?>
<!DOCTYPE svg PUBLIC "-//W3C//DTD SVG 1.1//EN"
 "http://www.w3.org/Graphics/SVG/1.1/DTD/svg11.dtd">
<!-- Generated by graphviz version 2.47.1 (20210417.1919)
 -->
<!-- Title: src.utils.backup.custom_logger._configure_handler Pages: 1 -->
<svg width="1007pt" height="83pt"
 viewBox="0.00 0.00 1007.00 83.00" xmlns="http://www.w3.org/2000/svg" xmlns:xlink="http://www.w3.org/1999/xlink">
<g id="graph0" class="graph" transform="scale(1 1) rotate(0) translate(4 79)">
<title>src.utils.backup.custom_logger._configure_handler</title>
<polygon fill="white" stroke="transparent" points="-4,4 -4,-79 1003,-79 1003,4 -4,4"/>
<!-- Node1 -->
<g id="node1" class="node">
<title>Node1</title>
<g id="a_node1"><a xlink:title=" ">
<polygon fill="#bfbfbf" stroke="black" points="763,-28 763,-47 999,-47 999,-28 763,-28"/>
<text text-anchor="middle" x="881" y="-35" font-family="Helvetica,sans-Serif" font-size="10.00">src.utils.backup.custom_logger._configure_handler</text>
</a>
</g>
</g>
<!-- Node2 -->
<g id="node2" class="node">
<title>Node2</title>
<g id="a_node2"><a xlink:href="namespacesrc_1_1utils_1_1backup_1_1custom__logger.html#ac6928a8a1836987261bc3742fb4816d9" target="_top" xlink:title=" ">
<polygon fill="white" stroke="black" points="511,-28 511,-47 727,-47 727,-28 511,-28"/>
<text text-anchor="middle" x="619" y="-35" font-family="Helvetica,sans-Serif" font-size="10.00">src.utils.backup.custom_logger._logger_setup</text>
</a>
</g>
</g>
<!-- Node1&#45;&gt;Node2 -->
<g id="edge1" class="edge">
<title>Node1&#45;&gt;Node2</title>
<path fill="none" stroke="midnightblue" d="M752.9,-37.5C744.34,-37.5 735.76,-37.5 727.31,-37.5"/>
<polygon fill="midnightblue" stroke="midnightblue" points="752.93,-41 762.93,-37.5 752.93,-34 752.93,-41"/>
</g>
<!-- Node3 -->
<g id="node3" class="node">
<title>Node3</title>
<g id="a_node3"><a xlink:href="classsrc_1_1utils_1_1backup_1_1custom__logger_1_1_log_manager.html#af6423eb9eb2045822df12212767b4fbf" target="_top" xlink:title=" ">
<polygon fill="white" stroke="black" points="263,-44.5 263,-74.5 475,-74.5 475,-44.5 263,-44.5"/>
<text text-anchor="start" x="271" y="-62.5" font-family="Helvetica,sans-Serif" font-size="10.00">src.utils.backup.custom_logger.LogManager.</text>
<text text-anchor="middle" x="369" y="-51.5" font-family="Helvetica,sans-Serif" font-size="10.00">__getattribute__</text>
</a>
</g>
</g>
<!-- Node2&#45;&gt;Node3 -->
<g id="edge2" class="edge">
<title>Node2&#45;&gt;Node3</title>
<path fill="none" stroke="midnightblue" d="M500.69,-47.91C492.16,-48.66 483.59,-49.42 475.14,-50.17"/>
<polygon fill="midnightblue" stroke="midnightblue" points="501.01,-51.39 510.67,-47.02 500.4,-44.42 501.01,-51.39"/>
</g>
<!-- Node4 -->
<g id="node4" class="node">
<title>Node4</title>
<g id="a_node4"><a xlink:href="namespacesrc_1_1utils_1_1backup_1_1custom__logger.html#ae2dfd7172766d01197bea623a3e9ea9f" target="_top" xlink:title=" ">
<polygon fill="white" stroke="black" points="269,-6 269,-25 469,-25 469,-6 269,-6"/>
<text text-anchor="middle" x="369" y="-13" font-family="Helvetica,sans-Serif" font-size="10.00">src.utils.backup.custom_logger.get_logger</text>
</a>
</g>
</g>
<!-- Node2&#45;&gt;Node4 -->
<g id="edge3" class="edge">
<title>Node2&#45;&gt;Node4</title>
<path fill="none" stroke="midnightblue" d="M500.64,-27.09C490.15,-26.16 479.6,-25.22 469.29,-24.31"/>
<polygon fill="midnightblue" stroke="midnightblue" points="500.4,-30.58 510.67,-27.98 501.01,-23.61 500.4,-30.58"/>
</g>
<!-- Node5 -->
<g id="node5" class="node">
<title>Node5</title>
<g id="a_node5"><a xlink:href="classsrc_1_1utils_1_1backup_1_1custom__logger_1_1_log_manager.html#a7fb87be8a28bf845524b938e2345172b" target="_top" xlink:title=" ">
<polygon fill="white" stroke="black" points="0,-0.5 0,-30.5 227,-30.5 227,-0.5 0,-0.5"/>
<text text-anchor="start" x="8" y="-18.5" font-family="Helvetica,sans-Serif" font-size="10.00">src.utils.backup.custom_logger.LogManager.add</text>
<text text-anchor="middle" x="113.5" y="-7.5" font-family="Helvetica,sans-Serif" font-size="10.00">_logger_as_field</text>
</a>
</g>
</g>
<!-- Node4&#45;&gt;Node5 -->
<g id="edge4" class="edge">
<title>Node4&#45;&gt;Node5</title>
<path fill="none" stroke="midnightblue" d="M258.62,-15.5C248.28,-15.5 237.78,-15.5 227.4,-15.5"/>
<polygon fill="midnightblue" stroke="midnightblue" points="258.9,-19 268.9,-15.5 258.9,-12 258.9,-19"/>
</g>
</g>
</svg>
