<?xml version="1.0" encoding="UTF-8" standalone="no"?>
<!DOCTYPE svg PUBLIC "-//W3C//DTD SVG 1.1//EN"
 "http://www.w3.org/Graphics/SVG/1.1/DTD/svg11.dtd">
<!-- Generated by graphviz version 2.47.1 (20210417.1919)
 -->
<!-- Title: src.lemma_extraction.extraction_functions.pandas_plotting_inspection Pages: 1 -->
<svg width="356pt" height="50pt"
 viewBox="0.00 0.00 356.00 50.00" xmlns="http://www.w3.org/2000/svg" xmlns:xlink="http://www.w3.org/1999/xlink">
<g id="graph0" class="graph" transform="scale(1 1) rotate(0) translate(4 46)">
<title>src.lemma_extraction.extraction_functions.pandas_plotting_inspection</title>
<polygon fill="white" stroke="transparent" points="-4,4 -4,-46 352,-46 352,4 -4,4"/>
<!-- Node1 -->
<g id="node1" class="node">
<title>Node1</title>
<g id="a_node1"><a xlink:title=" ">
<polygon fill="#bfbfbf" stroke="black" points="192,-0.5 192,-41.5 348,-41.5 348,-0.5 192,-0.5"/>
<text text-anchor="start" x="200" y="-29.5" font-family="Helvetica,sans-Serif" font-size="10.00">src.lemma_extraction.extraction</text>
<text text-anchor="start" x="200" y="-18.5" font-family="Helvetica,sans-Serif" font-size="10.00">_functions.pandas_plotting</text>
<text text-anchor="middle" x="270" y="-7.5" font-family="Helvetica,sans-Serif" font-size="10.00">_inspection</text>
</a>
</g>
</g>
<!-- Node2 -->
<g id="node2" class="node">
<title>Node2</title>
<g id="a_node2"><a xlink:href="namespacesrc_1_1lemma__extraction_1_1extraction__functions.html#ae24c215acf41c6b0793a734d3baa9067" target="_top" xlink:title="Keyword extraction functions.">
<polygon fill="white" stroke="black" points="0,-6 0,-36 156,-36 156,-6 0,-6"/>
<text text-anchor="start" x="8" y="-24" font-family="Helvetica,sans-Serif" font-size="10.00">src.lemma_extraction.extraction</text>
<text text-anchor="middle" x="78" y="-13" font-family="Helvetica,sans-Serif" font-size="10.00">_functions.extract_lemma</text>
</a>
</g>
</g>
<!-- Node1&#45;&gt;Node2 -->
<g id="edge1" class="edge">
<title>Node1&#45;&gt;Node2</title>
<path fill="none" stroke="midnightblue" d="M181.94,-21C173.32,-21 164.62,-21 156.12,-21"/>
<polygon fill="midnightblue" stroke="midnightblue" points="181.99,-24.5 191.99,-21 181.99,-17.5 181.99,-24.5"/>
</g>
</g>
</svg>
