<?xml version="1.0" encoding="UTF-8" standalone="no"?>
<!DOCTYPE svg PUBLIC "-//W3C//DTD SVG 1.1//EN"
 "http://www.w3.org/Graphics/SVG/1.1/DTD/svg11.dtd">
<!-- Generated by graphviz version 2.47.1 (20210417.1919)
 -->
<!-- Title: src.email_caching.downloader.pickle_dump Pages: 1 -->
<svg width="638pt" height="28pt"
 viewBox="0.00 0.00 638.00 28.00" xmlns="http://www.w3.org/2000/svg" xmlns:xlink="http://www.w3.org/1999/xlink">
<g id="graph0" class="graph" transform="scale(1 1) rotate(0) translate(4 24)">
<title>src.email_caching.downloader.pickle_dump</title>
<polygon fill="white" stroke="transparent" points="-4,4 -4,-24 634,-24 634,4 -4,4"/>
<!-- Node1 -->
<g id="node1" class="node">
<title>Node1</title>
<g id="a_node1"><a xlink:title=" ">
<polygon fill="#bfbfbf" stroke="black" points="0,-0.5 0,-19.5 205,-19.5 205,-0.5 0,-0.5"/>
<text text-anchor="middle" x="102.5" y="-7.5" font-family="Helvetica,sans-Serif" font-size="10.00">src.email_caching.downloader.pickle_dump</text>
</a>
</g>
</g>
<!-- Node2 -->
<g id="node2" class="node">
<title>Node2</title>
<g id="a_node2"><a xlink:href="namespacesrc_1_1utils.html#a5a4f3963731fcad51801f1d82fc16053" target="_top" xlink:title="A convenience function for quickly creating python pickle objects that temporarily disables garbage c...">
<polygon fill="white" stroke="black" points="241,-0.5 241,-19.5 336,-19.5 336,-0.5 241,-0.5"/>
<text text-anchor="middle" x="288.5" y="-7.5" font-family="Helvetica,sans-Serif" font-size="10.00">src.utils.do_pickle</text>
</a>
</g>
</g>
<!-- Node1&#45;&gt;Node2 -->
<g id="edge1" class="edge">
<title>Node1&#45;&gt;Node2</title>
<path fill="none" stroke="midnightblue" d="M205.19,-10C213.95,-10 222.6,-10 230.81,-10"/>
<polygon fill="midnightblue" stroke="midnightblue" points="230.94,-13.5 240.94,-10 230.94,-6.5 230.94,-13.5"/>
</g>
<!-- Node3 -->
<g id="node3" class="node">
<title>Node3</title>
<g id="a_node3"><a xlink:href="namespacesrc_1_1utils.html#a328d6ccace46735185a4416efe0f8a1b" target="_top" xlink:title=" ">
<polygon fill="white" stroke="black" points="372,-0.5 372,-19.5 630,-19.5 630,-0.5 372,-0.5"/>
<text text-anchor="middle" x="501" y="-7.5" font-family="Helvetica,sans-Serif" font-size="10.00">src.utils.handle_warning_about_unexpected_exceptions</text>
</a>
</g>
</g>
<!-- Node2&#45;&gt;Node3 -->
<g id="edge2" class="edge">
<title>Node2&#45;&gt;Node3</title>
<path fill="none" stroke="midnightblue" d="M336.22,-10C344.14,-10 352.71,-10 361.63,-10"/>
<polygon fill="midnightblue" stroke="midnightblue" points="361.84,-13.5 371.84,-10 361.84,-6.5 361.84,-13.5"/>
</g>
</g>
</svg>
