<?xml version="1.0" encoding="UTF-8" standalone="no"?>
<!DOCTYPE svg PUBLIC "-//W3C//DTD SVG 1.1//EN"
 "http://www.w3.org/Graphics/SVG/1.1/DTD/svg11.dtd">
<!-- Generated by graphviz version 2.47.1 (20210417.1919)
 -->
<!-- Title: src.eralchemy.parser.markdown_file_to_intermediary Pages: 1 -->
<!--zoomable 186 -->
<svg id="main" version="1.1" xmlns="http://www.w3.org/2000/svg" xmlns:xlink="http://www.w3.org/1999/xlink" xml:space="preserve" onload="init(evt)">
<style type="text/css"><![CDATA[
.edge:hover path { stroke: red; }
.edge:hover polygon { stroke: red; fill: red; }
]]></style>
<script type="text/javascript"><![CDATA[
var edges = document.getElementsByTagName('g');
if (edges && edges.length) {
  for (var i=0;i<edges.length;i++) {
    if (edges[i].id.substr(0,4)=='edge') {
      edges[i].setAttribute('class','edge');
    }
  }
}
]]></script>
        <defs>
                <circle id="rim" cx="0" cy="0" r="7"/>
                <circle id="rim2" cx="0" cy="0" r="3.5"/>
                <g id="zoomPlus">
                        <use xlink:href="#rim" fill="#404040">
                                <set attributeName="fill" to="#808080" begin="zoomplus.mouseover" end="zoomplus.mouseout"/>
                        </use>
                        <path d="M-4,0h8M0,-4v8" fill="none" stroke="white" stroke-width="1.5" pointer-events="none"/>
                </g>
                <g id="zoomMin">
                        <use xlink:href="#rim" fill="#404040">
                                <set attributeName="fill" to="#808080" begin="zoomminus.mouseover" end="zoomminus.mouseout"/>
                        </use>
                        <path d="M-4,0h8" fill="none" stroke="white" stroke-width="1.5" pointer-events="none"/>
                </g>
                <g id="dirArrow">
                        <path fill="none" stroke="white" stroke-width="1.5" d="M0,-3.0v7 M-2.5,-0.5L0,-3.0L2.5,-0.5"/>
                </g>
               <g id="resetDef">
                       <use xlink:href="#rim2" fill="#404040">
                               <set attributeName="fill" to="#808080" begin="reset.mouseover" end="reset.mouseout"/>
                       </use>
               </g>
        </defs>

<script type="text/javascript">
var viewWidth = 695;
var viewHeight = 186;
var sectionId = 'dynsection-6';
</script>
<script xlink:href="svgpan.js"/>
<svg id="graph" class="graph">
<g id="viewport">
<title>src.eralchemy.parser.markdown_file_to_intermediary</title>
<polygon fill="white" stroke="transparent" points="-4,4 -4,-182 691,-182 691,4 -4,4"/>
<!-- Node1 -->
<g id="node1" class="node">
<title>Node1</title>
<g id="a_node1"><a xlink:title=" ">
<polygon fill="#bfbfbf" stroke="black" points="0,-97.5 0,-127.5 155,-127.5 155,-97.5 0,-97.5"/>
<text text-anchor="start" x="8" y="-115.5" font-family="Helvetica,sans-Serif" font-size="10.00">src.eralchemy.parser.markdown</text>
<text text-anchor="middle" x="77.5" y="-104.5" font-family="Helvetica,sans-Serif" font-size="10.00">_file_to_intermediary</text>
</a>
</g>
</g>
<!-- Node2 -->
<g id="node2" class="node">
<title>Node2</title>
<g id="a_node2"><a xlink:href="namespacesrc_1_1eralchemy_1_1parser.html#ae896c00e0ce3280fd4a5f84bb3b13da5" target="_top" xlink:title=" ">
<polygon fill="white" stroke="black" points="191,-97.5 191,-127.5 317,-127.5 317,-97.5 191,-97.5"/>
<text text-anchor="start" x="199" y="-115.5" font-family="Helvetica,sans-Serif" font-size="10.00">src.eralchemy.parser.line</text>
<text text-anchor="middle" x="254" y="-104.5" font-family="Helvetica,sans-Serif" font-size="10.00">_iterator_to_intermediary</text>
</a>
</g>
</g>
<!-- Node1&#45;&gt;Node2 -->
<g id="edge1" class="edge">
<title>Node1&#45;&gt;Node2</title>
<path fill="none" stroke="midnightblue" d="M155.04,-112.5C163.57,-112.5 172.23,-112.5 180.71,-112.5"/>
<polygon fill="midnightblue" stroke="midnightblue" points="180.92,-116 190.92,-112.5 180.92,-109 180.92,-116"/>
</g>
<!-- Node3 -->
<g id="node3" class="node">
<title>Node3</title>
<g id="a_node3"><a xlink:href="namespacesrc_1_1eralchemy_1_1parser.html#af2c09125da4fddcf62bd70475bd1c156" target="_top" xlink:title=" ">
<polygon fill="white" stroke="black" points="353,-122.5 353,-152.5 495,-152.5 495,-122.5 353,-122.5"/>
<text text-anchor="start" x="361" y="-140.5" font-family="Helvetica,sans-Serif" font-size="10.00">src.eralchemy.parser.remove</text>
<text text-anchor="middle" x="424" y="-129.5" font-family="Helvetica,sans-Serif" font-size="10.00">_comments_from_line</text>
</a>
</g>
</g>
<!-- Node2&#45;&gt;Node3 -->
<g id="edge2" class="edge">
<title>Node2&#45;&gt;Node3</title>
<path fill="none" stroke="midnightblue" d="M317.08,-121.74C325.48,-122.99 334.19,-124.28 342.85,-125.57"/>
<polygon fill="midnightblue" stroke="midnightblue" points="342.56,-129.07 352.96,-127.08 343.59,-122.14 342.56,-129.07"/>
</g>
<!-- Node4 -->
<g id="node4" class="node">
<title>Node4</title>
<g id="a_node4"><a xlink:href="namespacesrc_1_1eralchemy_1_1parser.html#aaa8d12965e24d3a437fe9605475f9ec1" target="_top" xlink:title=" ">
<polygon fill="white" stroke="black" points="354,-73.5 354,-103.5 494,-103.5 494,-73.5 354,-73.5"/>
<text text-anchor="start" x="362" y="-91.5" font-family="Helvetica,sans-Serif" font-size="10.00">src.eralchemy.parser.update</text>
<text text-anchor="middle" x="424" y="-80.5" font-family="Helvetica,sans-Serif" font-size="10.00">_models</text>
</a>
</g>
</g>
<!-- Node2&#45;&gt;Node4 -->
<g id="edge3" class="edge">
<title>Node2&#45;&gt;Node4</title>
<path fill="none" stroke="midnightblue" d="M317.08,-103.63C325.77,-102.39 334.8,-101.1 343.76,-99.82"/>
<polygon fill="midnightblue" stroke="midnightblue" points="344.41,-103.26 353.82,-98.38 343.42,-96.33 344.41,-103.26"/>
</g>
<!-- Node5 -->
<g id="node5" class="node">
<title>Node5</title>
<g id="a_node5"><a xlink:href="namespacesrc_1_1eralchemy_1_1parser.html#a4074827fe7dbe79bd52ab7fce3fec3ff" target="_top" xlink:title=" ">
<polygon fill="white" stroke="black" points="549.5,-147.5 549.5,-177.5 668.5,-177.5 668.5,-147.5 549.5,-147.5"/>
<text text-anchor="start" x="557.5" y="-165.5" font-family="Helvetica,sans-Serif" font-size="10.00">src.eralchemy.parser.</text>
<text text-anchor="middle" x="609" y="-154.5" font-family="Helvetica,sans-Serif" font-size="10.00">_check_colname_in_lst</text>
</a>
</g>
</g>
<!-- Node4&#45;&gt;Node5 -->
<g id="edge4" class="edge">
<title>Node4&#45;&gt;Node5</title>
<path fill="none" stroke="midnightblue" d="M472.41,-103.51C480.11,-106.49 487.88,-109.84 495,-113.5 512.32,-122.41 513.5,-129.95 531,-138.5 534.82,-140.37 538.82,-142.13 542.9,-143.79"/>
<polygon fill="midnightblue" stroke="midnightblue" points="541.93,-147.16 552.52,-147.45 544.43,-140.62 541.93,-147.16"/>
</g>
<!-- Node6 -->
<g id="node6" class="node">
<title>Node6</title>
<g id="a_node6"><a xlink:href="namespacesrc_1_1eralchemy_1_1parser.html#aa39338fd82cbc77e7aa9d11241375d3f" target="_top" xlink:title=" ">
<polygon fill="white" stroke="black" points="546.5,-98.5 546.5,-128.5 671.5,-128.5 671.5,-98.5 546.5,-98.5"/>
<text text-anchor="start" x="554.5" y="-116.5" font-family="Helvetica,sans-Serif" font-size="10.00">src.eralchemy.parser.</text>
<text text-anchor="middle" x="609" y="-105.5" font-family="Helvetica,sans-Serif" font-size="10.00">_check_no_current_table</text>
</a>
</g>
</g>
<!-- Node4&#45;&gt;Node6 -->
<g id="edge5" class="edge">
<title>Node4&#45;&gt;Node6</title>
<path fill="none" stroke="midnightblue" d="M494.18,-97.95C507.95,-99.83 522.43,-101.81 536.28,-103.7"/>
<polygon fill="midnightblue" stroke="midnightblue" points="535.85,-107.18 546.23,-105.06 536.8,-100.24 535.85,-107.18"/>
</g>
<!-- Node7 -->
<g id="node7" class="node">
<title>Node7</title>
<g id="a_node7"><a xlink:href="namespacesrc_1_1eralchemy_1_1parser.html#a6ee33be1040bdc3f9d17e30a8667a6bf" target="_top" xlink:title=" ">
<polygon fill="white" stroke="black" points="531,-49.5 531,-79.5 687,-79.5 687,-49.5 531,-49.5"/>
<text text-anchor="start" x="539" y="-67.5" font-family="Helvetica,sans-Serif" font-size="10.00">src.eralchemy.parser.</text>
<text text-anchor="middle" x="609" y="-56.5" font-family="Helvetica,sans-Serif" font-size="10.00">_check_not_creating_duplicates</text>
</a>
</g>
</g>
<!-- Node4&#45;&gt;Node7 -->
<g id="edge6" class="edge">
<title>Node4&#45;&gt;Node7</title>
<path fill="none" stroke="midnightblue" d="M494.18,-79.43C502.86,-78.29 511.82,-77.11 520.73,-75.94"/>
<polygon fill="midnightblue" stroke="midnightblue" points="521.29,-79.4 530.75,-74.63 520.38,-72.46 521.29,-79.4"/>
</g>
<!-- Node8 -->
<g id="node8" class="node">
<title>Node8</title>
<g id="a_node8"><a xlink:href="namespacesrc_1_1eralchemy_1_1parser.html#a865f8f738e78ee150ed201fe3f13f066" target="_top" xlink:title=" ">
<polygon fill="white" stroke="black" points="552,-0.5 552,-30.5 666,-30.5 666,-0.5 552,-0.5"/>
<text text-anchor="start" x="560" y="-18.5" font-family="Helvetica,sans-Serif" font-size="10.00">src.eralchemy.parser.</text>
<text text-anchor="middle" x="609" y="-7.5" font-family="Helvetica,sans-Serif" font-size="10.00">_update_check_inputs</text>
</a>
</g>
</g>
<!-- Node4&#45;&gt;Node8 -->
<g id="edge7" class="edge">
<title>Node4&#45;&gt;Node8</title>
<path fill="none" stroke="midnightblue" d="M456.15,-73.29C477.07,-63.35 505.38,-50.42 531,-40.5 536.85,-38.23 543,-36 549.17,-33.85"/>
<polygon fill="midnightblue" stroke="midnightblue" points="550.49,-37.1 558.83,-30.56 548.24,-30.47 550.49,-37.1"/>
</g>
</g>
</svg>
        <g id="navigator" transform="translate(0 0)" fill="#404254">
                <rect fill="#f2f5e9" fill-opacity="0.5" stroke="#606060" stroke-width=".5" x="0" y="0" width="60" height="60"/>
                <use id="zoomplus" xlink:href="#zoomPlus" x="17" y="9" onmousedown="handleZoom(evt,'in')"/>
                <use id="zoomminus" xlink:href="#zoomMin" x="42" y="9" onmousedown="handleZoom(evt,'out')"/>
                <use id="reset" xlink:href="#resetDef" x="30" y="36" onmousedown="handleReset()"/>
                <g id="arrowUp" xlink:href="#dirArrow" transform="translate(30 24)" onmousedown="handlePan(0,-1)">
                  <use xlink:href="#rim" fill="#404040">
                        <set attributeName="fill" to="#808080" begin="arrowUp.mouseover" end="arrowUp.mouseout"/>
                  </use>
                  <path fill="none" stroke="white" stroke-width="1.5" d="M0,-3.0v7 M-2.5,-0.5L0,-3.0L2.5,-0.5"/>
                </g>
                <g id="arrowRight" xlink:href="#dirArrow" transform="rotate(90) translate(36 -43)" onmousedown="handlePan(1,0)">
                  <use xlink:href="#rim" fill="#404040">
                        <set attributeName="fill" to="#808080" begin="arrowRight.mouseover" end="arrowRight.mouseout"/>
                  </use>
                  <path fill="none" stroke="white" stroke-width="1.5" d="M0,-3.0v7 M-2.5,-0.5L0,-3.0L2.5,-0.5"/>
                </g>
                <g id="arrowDown" xlink:href="#dirArrow" transform="rotate(180) translate(-30 -48)" onmousedown="handlePan(0,1)">
                  <use xlink:href="#rim" fill="#404040">
                        <set attributeName="fill" to="#808080" begin="arrowDown.mouseover" end="arrowDown.mouseout"/>
                  </use>
                  <path fill="none" stroke="white" stroke-width="1.5" d="M0,-3.0v7 M-2.5,-0.5L0,-3.0L2.5,-0.5"/>
                </g>
                <g id="arrowLeft" xlink:href="#dirArrow" transform="rotate(270) translate(-36 17)" onmousedown="handlePan(-1,0)">
                  <use xlink:href="#rim" fill="#404040">
                        <set attributeName="fill" to="#808080" begin="arrowLeft.mouseover" end="arrowLeft.mouseout"/>
                  </use>
                  <path fill="none" stroke="white" stroke-width="1.5" d="M0,-3.0v7 M-2.5,-0.5L0,-3.0L2.5,-0.5"/>
                </g>
        </g>
        <svg viewBox="0 0 15 15" width="100%" height="30px" preserveAspectRatio="xMaxYMin meet">
         <g id="arrow_out" transform="scale(0.3 0.3)">
          <a xlink:href="namespacesrc_1_1eralchemy_1_1parser_a4ae9323517c46eeb4ed9d87588832be2_cgraph_org.svg" target="_base">
           <rect id="button" ry="5" rx="5" y="6" x="6" height="38" width="38"
                fill="#f2f5e9" fill-opacity="0.5" stroke="#606060" stroke-width="1.0"/>
           <path id="arrow"
             d="M 11.500037,31.436501 C 11.940474,20.09759 22.043105,11.32322 32.158766,21.979434 L 37.068811,17.246167 C 37.068811,17.246167 37.088388,32 37.088388,32 L 22.160133,31.978069 C 22.160133,31.978069 26.997745,27.140456 26.997745,27.140456 C 18.528582,18.264221 13.291696,25.230495 11.500037,31.436501 z"
             style="fill:#404040;"/>
          </a>
         </g>
        </svg>
</svg>
